# Blender 4.4.1
# www.blender.org
mtllib fragile_any.mtl
o 立方体
v 1.000000 -1.000000 1.000000
v -1.000000 -1.000000 1.000000
v 1.000000 -1.000000 -1.000000
v -1.000000 -1.000000 -1.000000
v 1.000000 1.000000 1.000000
v -1.000000 1.000000 1.000000
v 1.000000 1.000000 -1.000000
v -1.000000 1.000000 -1.000000
vn 1.0000 -0.0000 -0.0000
vn -0.0000 1.0000 -0.0000
vn -0.0000 -1.0000 -0.0000
vn -0.0000 -0.0000 1.0000
vn -0.0000 -0.0000 -1.0000
vn -1.0000 -0.0000 -0.0000
vt 0.333333 1.000000
vt 0.000000 1.000000
vt 0.000000 0.666667
vt 0.333333 0.666667
vt 0.333333 0.333333
vt 0.333333 0.000000
vt 0.666667 0.000000
vt 0.666667 0.333333
vt 0.000000 0.333333
vt 0.000000 0.000000
vt 0.001592 0.998408
vt 0.001592 0.001592
vt 0.998408 0.001592
vt 0.998408 0.998408
vt 0.666667 1.000000
vt 0.666667 0.666667
s 1
usemtl マテリアル.001
f 7/1/1 5/2/1 1/3/1 3/4/1
f 8/5/2 6/6/2 5/7/2 7/8/2
f 2/9/3 4/10/3 3/6/3 1/5/3
f 6/11/4 2/12/4 1/13/4 5/14/4
f 4/3/5 8/9/5 7/5/5 3/4/5
f 4/15/6 2/1/6 6/4/6 8/16/6
