# Blender 4.4.1
# www.blender.org
mtllib switch_off.mtl
o 立方体
v 1.000000 -1.000000 1.000000
v -1.000000 -1.000000 1.000000
v 1.000000 -1.000000 -1.000000
v -1.000000 -1.000000 -1.000000
v 1.000000 1.000000 1.000000
v -1.000000 1.000000 1.000000
v 1.000000 1.000000 -1.000000
v -1.000000 1.000000 -1.000000
vn -0.0000 -1.0000 -0.0000
vn -0.0000 -0.0000 -1.0000
vn -0.0000 1.0000 -0.0000
vn -0.0000 -0.0000 1.0000
vn 1.0000 -0.0000 -0.0000
vn -1.0000 -0.0000 -0.0000
vt 0.000000 0.333333
vt 0.333333 0.000000
vt 0.333333 0.333333
vt 0.000000 0.666667
vt 0.333333 0.666667
vt 0.666667 0.000000
vt 0.666667 0.333333
vt 0.001592 0.998408
vt 0.998408 0.001592
vt 0.998408 0.998408
vt 0.333333 1.000000
vt 0.666667 1.000000
vt 0.666667 0.666667
vt 0.000000 0.000000
vt 0.001592 0.001592
vt 0.000000 1.000000
s 1
usemtl マテリアル.001
f 2/1/1 3/2/1 1/3/1
f 4/4/2 7/3/2 3/5/2
f 8/3/3 5/6/3 7/7/3
f 6/8/4 1/9/4 5/10/4
f 7/11/5 1/4/5 3/5/5
f 4/12/6 6/5/6 8/13/6
f 2/1/1 4/14/1 3/2/1
f 4/4/2 8/1/2 7/3/2
f 8/3/3 6/2/3 5/6/3
f 6/8/4 2/15/4 1/9/4
f 7/11/5 5/16/5 1/4/5
f 4/12/6 2/11/6 6/5/6
