# Blender 4.4.1
# www.blender.org
mtllib 0.mtl
o テキスト
v 0.029505 0.000000 0.259571
v 0.029872 0.000000 0.283429
v 0.030973 0.000000 0.306063
v 0.032809 0.000000 0.327472
v 0.035378 0.000000 0.347656
v 0.038682 0.000000 0.366616
v 0.042720 0.000000 0.384352
v 0.047493 0.000000 0.400863
v 0.052999 0.000000 0.416150
v 0.059240 0.000000 0.430212
v 0.066215 0.000000 0.443049
v 0.073924 0.000000 0.454662
v 0.082367 0.000000 0.465051
v 0.091562 0.000000 0.474420
v 0.101525 0.000000 0.482974
v 0.112256 0.000000 0.490714
v 0.123756 0.000000 0.497639
v 0.136024 0.000000 0.503749
v 0.149060 0.000000 0.509045
v 0.162865 0.000000 0.513525
v 0.177438 0.000000 0.517192
v 0.192780 0.000000 0.520043
v 0.208889 0.000000 0.522080
v 0.225768 0.000000 0.523302
v 0.243414 0.000000 0.523709
v 0.251949 0.000000 0.523620
v 0.260225 0.000000 0.523353
v 0.268243 0.000000 0.522908
v 0.276002 0.000000 0.522285
v 0.283503 0.000000 0.521483
v 0.290745 0.000000 0.520504
v 0.297728 0.000000 0.519347
v 0.304453 0.000000 0.518011
v 0.310919 0.000000 0.516498
v 0.317127 0.000000 0.514806
v 0.323076 0.000000 0.512936
v 0.328767 0.000000 0.510889
v 0.334243 0.000000 0.508698
v 0.339548 0.000000 0.506401
v 0.344683 0.000000 0.503995
v 0.349647 0.000000 0.501483
v 0.354440 0.000000 0.498863
v 0.359062 0.000000 0.496136
v 0.363514 0.000000 0.493302
v 0.367795 0.000000 0.490360
v 0.371905 0.000000 0.487311
v 0.375844 0.000000 0.484155
v 0.379613 0.000000 0.480891
v 0.383210 0.000000 0.477520
v 0.386661 0.000000 0.474081
v 0.389987 0.000000 0.470612
v 0.393188 0.000000 0.467115
v 0.396265 0.000000 0.463587
v 0.399218 0.000000 0.460031
v 0.402046 0.000000 0.456445
v 0.404750 0.000000 0.452830
v 0.407329 0.000000 0.449186
v 0.409784 0.000000 0.445513
v 0.412115 0.000000 0.441810
v 0.414321 0.000000 0.438078
v 0.416403 0.000000 0.434317
v 0.418390 0.000000 0.430488
v 0.420311 0.000000 0.426555
v 0.422166 0.000000 0.422517
v 0.423955 0.000000 0.418374
v 0.425678 0.000000 0.414126
v 0.427336 0.000000 0.409773
v 0.428927 0.000000 0.405316
v 0.430453 0.000000 0.400753
v 0.431913 0.000000 0.396086
v 0.433307 0.000000 0.391313
v 0.434635 0.000000 0.386436
v 0.435897 0.000000 0.381454
v 0.438198 0.000000 0.371819
v 0.440298 0.000000 0.362116
v 0.442198 0.000000 0.352345
v 0.443898 0.000000 0.342505
v 0.445398 0.000000 0.332597
v 0.446698 0.000000 0.322620
v 0.447798 0.000000 0.312576
v 0.448698 0.000000 0.302463
v 0.449398 0.000000 0.292281
v 0.449899 0.000000 0.282032
v 0.450199 0.000000 0.271714
v 0.450299 0.000000 0.261328
v 0.449969 0.000000 0.238492
v 0.448981 0.000000 0.216700
v 0.447335 0.000000 0.195952
v 0.445030 0.000000 0.176248
v 0.442066 0.000000 0.157588
v 0.438444 0.000000 0.139972
v 0.434163 0.000000 0.123400
v 0.429224 0.000000 0.107872
v 0.423626 0.000000 0.093388
v 0.417369 0.000000 0.079948
v 0.410454 0.000000 0.067552
v 0.402880 0.000000 0.056200
v 0.394502 0.000000 0.045821
v 0.385172 0.000000 0.036344
v 0.374890 0.000000 0.027770
v 0.363658 0.000000 0.020099
v 0.351474 0.000000 0.013330
v 0.338339 0.000000 0.007464
v 0.324252 0.000000 0.002500
v 0.309214 -0.000000 -0.001561
v 0.293225 -0.000000 -0.004720
v 0.276285 -0.000000 -0.006976
v 0.258393 -0.000000 -0.008330
v 0.239550 -0.000000 -0.008781
v 0.228893 -0.000000 -0.008637
v 0.218583 -0.000000 -0.008206
v 0.208619 -0.000000 -0.007486
v 0.199001 -0.000000 -0.006479
v 0.189729 -0.000000 -0.005183
v 0.180804 -0.000000 -0.003600
v 0.172226 -0.000000 -0.001729
v 0.163993 0.000000 0.000429
v 0.156107 0.000000 0.002876
v 0.148568 0.000000 0.005610
v 0.141374 0.000000 0.008632
v 0.134528 0.000000 0.011942
v 0.127954 0.000000 0.015530
v 0.121580 0.000000 0.019387
v 0.115407 0.000000 0.023512
v 0.109433 0.000000 0.027905
v 0.103659 0.000000 0.032566
v 0.098086 0.000000 0.037496
v 0.092712 0.000000 0.042694
v 0.087539 0.000000 0.048160
v 0.082565 0.000000 0.053894
v 0.077791 0.000000 0.059897
v 0.073218 0.000000 0.066169
v 0.068844 0.000000 0.072708
v 0.065799 0.000000 0.077595
v 0.062868 0.000000 0.082772
v 0.060052 0.000000 0.088240
v 0.057351 0.000000 0.093998
v 0.054764 0.000000 0.100046
v 0.052292 0.000000 0.106384
v 0.049934 0.000000 0.113012
v 0.047692 0.000000 0.119931
v 0.045563 0.000000 0.127140
v 0.043550 0.000000 0.134640
v 0.041651 0.000000 0.142429
v 0.039867 0.000000 0.150509
v 0.038212 0.000000 0.158806
v 0.036700 0.000000 0.167247
v 0.035333 0.000000 0.175832
v 0.034110 0.000000 0.184561
v 0.033031 0.000000 0.193433
v 0.032095 0.000000 0.202450
v 0.031304 0.000000 0.211610
v 0.030656 0.000000 0.220915
v 0.030152 0.000000 0.230363
v 0.029793 0.000000 0.239955
v 0.029577 0.000000 0.249691
v 0.171409 0.000000 0.259220
v 0.171529 0.000000 0.243262
v 0.171891 0.000000 0.228169
v 0.172495 0.000000 0.213942
v 0.173340 0.000000 0.200582
v 0.174427 0.000000 0.188087
v 0.175755 0.000000 0.176458
v 0.177325 0.000000 0.165695
v 0.179136 0.000000 0.155798
v 0.181189 0.000000 0.146766
v 0.183483 0.000000 0.138601
v 0.186018 0.000000 0.131302
v 0.188795 0.000000 0.124868
v 0.191802 0.000000 0.119118
v 0.195025 0.000000 0.113867
v 0.198465 0.000000 0.109117
v 0.202123 0.000000 0.104867
v 0.205998 0.000000 0.101116
v 0.210090 0.000000 0.097866
v 0.214398 0.000000 0.095116
v 0.218924 0.000000 0.092866
v 0.223667 0.000000 0.091116
v 0.228628 0.000000 0.089866
v 0.233805 0.000000 0.089115
v 0.239199 0.000000 0.088865
v 0.242788 0.000000 0.088972
v 0.246297 0.000000 0.089290
v 0.249726 0.000000 0.089820
v 0.253073 0.000000 0.090563
v 0.256341 0.000000 0.091518
v 0.259528 0.000000 0.092685
v 0.262634 0.000000 0.094065
v 0.265660 0.000000 0.095656
v 0.268605 0.000000 0.097460
v 0.271470 0.000000 0.099476
v 0.274254 0.000000 0.101704
v 0.276958 0.000000 0.104145
v 0.279563 0.000000 0.106814
v 0.282051 0.000000 0.109731
v 0.284422 0.000000 0.112893
v 0.286676 0.000000 0.116302
v 0.288813 0.000000 0.119957
v 0.290832 0.000000 0.123858
v 0.292735 0.000000 0.128006
v 0.294521 0.000000 0.132401
v 0.296189 0.000000 0.137041
v 0.297740 0.000000 0.141928
v 0.299175 0.000000 0.147061
v 0.300492 0.000000 0.152441
v 0.301698 0.000000 0.158200
v 0.302799 0.000000 0.164471
v 0.303796 0.000000 0.171255
v 0.304687 0.000000 0.178551
v 0.305474 0.000000 0.186358
v 0.306156 0.000000 0.194679
v 0.306733 0.000000 0.203511
v 0.307204 0.000000 0.212856
v 0.307572 0.000000 0.222713
v 0.307834 0.000000 0.233082
v 0.307991 0.000000 0.243963
v 0.308044 0.000000 0.255357
v 0.307923 0.000000 0.271983
v 0.307561 0.000000 0.287676
v 0.306957 0.000000 0.302435
v 0.306112 0.000000 0.316259
v 0.305025 0.000000 0.329149
v 0.303697 0.000000 0.341105
v 0.302127 0.000000 0.352126
v 0.300316 0.000000 0.362214
v 0.298264 0.000000 0.371367
v 0.295969 0.000000 0.379586
v 0.293434 0.000000 0.386870
v 0.290657 0.000000 0.393221
v 0.287638 0.000000 0.398859
v 0.284378 0.000000 0.404007
v 0.280877 0.000000 0.408665
v 0.277134 0.000000 0.412832
v 0.273149 0.000000 0.416509
v 0.268923 0.000000 0.419696
v 0.264456 0.000000 0.422393
v 0.259747 0.000000 0.424599
v 0.254797 0.000000 0.426315
v 0.249605 0.000000 0.427541
v 0.244172 0.000000 0.428276
v 0.238497 0.000000 0.428521
v 0.232721 0.000000 0.428271
v 0.227218 0.000000 0.427521
v 0.221988 0.000000 0.426271
v 0.217032 0.000000 0.424521
v 0.212348 0.000000 0.422271
v 0.207938 0.000000 0.419521
v 0.203801 0.000000 0.416270
v 0.199938 0.000000 0.412520
v 0.196347 0.000000 0.408270
v 0.193030 0.000000 0.403519
v 0.189986 0.000000 0.398269
v 0.187215 0.000000 0.392518
v 0.184690 0.000000 0.386092
v 0.182385 0.000000 0.378815
v 0.180299 0.000000 0.370686
v 0.178433 0.000000 0.361706
v 0.176787 0.000000 0.351875
v 0.175360 0.000000 0.341193
v 0.174153 0.000000 0.329659
v 0.173165 0.000000 0.317274
v 0.172396 0.000000 0.304037
v 0.171848 0.000000 0.289950
v 0.171518 0.000000 0.275011
vn -0.0000 -1.0000 -0.0000
vt 0.361830 0.998739
vt 0.410982 1.000000
vt 0.394954 0.999951
vt 0.426529 0.999709
vt 0.441595 0.999076
vt 0.330168 0.996016
vt 0.456180 0.998104
vt 0.470285 0.996788
vt 0.299972 0.991782
vt 0.483908 0.995133
vt 0.497049 0.993138
vt 0.271236 0.986040
vt 0.509711 0.990800
vt 0.521890 0.988123
vt 0.243966 0.978785
vt 0.533590 0.985104
vt 0.544808 0.981743
vt 0.218158 0.970022
vt 0.555546 0.978044
vt 0.565883 0.974069
vt 0.193815 0.959747
vt 0.575903 0.969891
vt 0.585606 0.965503
vt 0.594990 0.960912
vt 0.170934 0.947963
vt 0.604057 0.956114
vt 0.612805 0.951111
vt 0.149516 0.934668
vt 0.621236 0.945903
vt 0.629349 0.940487
vt 0.129563 0.919863
vt 0.637144 0.934866
vt 0.644620 0.929040
vt 0.651780 0.923007
vt 0.111073 0.903548
vt 0.658619 0.916769
vt 0.665187 0.910399
vt 0.094045 0.885723
vt 0.671520 0.903970
vt 0.677619 0.897485
vt 0.683486 0.890938
vt 0.078455 0.866001
vt 0.689121 0.884336
vt 0.694522 0.877674
vt 0.699691 0.870955
vt 0.064275 0.844000
vt 0.704626 0.864178
vt 0.709329 0.857344
vt 0.713800 0.850450
vt 0.051504 0.819719
vt 0.718037 0.843498
vt 0.722042 0.836489
vt 0.725870 0.829350
vt 0.388136 0.821092
vt 0.729577 0.822013
vt 0.040142 0.793157
vt 0.377297 0.820476
vt 0.398798 0.820776
vt 0.409018 0.819534
vt 0.366983 0.818928
vt 0.418799 0.817363
vt 0.357194 0.816448
vt 0.733162 0.814478
vt 0.428137 0.814267
vt 0.347933 0.813037
vt 0.437035 0.810244
vt 0.339195 0.808693
vt 0.736627 0.806745
vt 0.445491 0.805293
vt 0.330984 0.803417
vt 0.453507 0.799416
vt 0.323299 0.797208
vt 0.739970 0.798812
vt 0.461083 0.792613
vt 0.316140 0.790069
vt 0.030191 0.764313
vt 0.743193 0.790680
vt 0.468217 0.784884
vt 0.309505 0.781997
vt 0.746294 0.782352
vt 0.474909 0.776226
vt 0.303397 0.772992
vt 0.749275 0.773823
vt 0.481160 0.766643
vt 0.297815 0.763057
vt 0.021648 0.733189
vt 0.752135 0.765096
vt 0.486972 0.756133
vt 0.292758 0.752188
vt 0.754873 0.756169
vt 0.492348 0.744278
vt 0.288180 0.740058
vt 0.757491 0.747046
vt 0.497292 0.730665
vt 0.759987 0.737723
vt 0.284036 0.726336
vt 0.014516 0.699784
vt 0.764552 0.719690
vt 0.501810 0.715291
vt 0.280326 0.711019
vt 0.768741 0.701524
vt 0.505896 0.698156
vt 0.277050 0.694110
vt 0.008793 0.664099
vt 0.509552 0.679260
vt 0.772557 0.683225
vt 0.274208 0.675609
vt 0.775998 0.664792
vt 0.512780 0.658606
vt 0.271800 0.655515
vt 0.004481 0.626134
vt 0.779066 0.646226
vt 0.269826 0.633827
vt 0.515577 0.636190
vt 0.781761 0.627525
vt 0.268285 0.610547
vt 0.517945 0.612014
vt 0.001577 0.585888
vt 0.784081 0.608693
vt 0.267177 0.585672
vt 0.519882 0.586078
vt 0.786027 0.589727
vt 0.000084 0.543361
vt 0.266506 0.559207
vt 0.787600 0.570626
vt 0.521391 0.558381
vt 0.788801 0.551394
vt 0.266265 0.531148
vt 0.522468 0.528923
vt -0.000000 0.498553
vt 0.789626 0.532028
vt 0.266461 0.501495
vt 0.523117 0.497708
vt 0.790077 0.512529
vt 0.790037 0.469641
vt 0.000386 0.480004
vt 0.267091 0.471533
vt 0.523307 0.476312
vt 0.001038 0.461728
vt 0.523288 0.455877
vt 0.268154 0.443203
vt 0.001956 0.443726
vt 0.788735 0.428698
vt 0.523059 0.436400
vt 0.003142 0.425998
vt 0.269649 0.416504
vt 0.522619 0.417883
vt 0.004595 0.408543
vt 0.786170 0.389698
vt 0.271575 0.391439
vt 0.521971 0.400324
vt 0.006312 0.391363
vt 0.521112 0.383725
vt 0.008299 0.374456
vt 0.273933 0.368005
vt 0.782342 0.352641
vt 0.520042 0.368084
vt 0.010550 0.357824
vt 0.276721 0.346203
vt 0.518763 0.353405
vt 0.013068 0.341465
vt 0.517275 0.339682
vt 0.279942 0.326034
vt 0.777250 0.317528
vt 0.015852 0.325380
vt 0.515575 0.326919
vt 0.018906 0.309569
vt 0.283594 0.307496
vt 0.513667 0.315116
vt 0.022224 0.294031
vt 0.511548 0.304272
vt 0.770896 0.284359
vt 0.287678 0.290589
vt 0.509212 0.294136
vt 0.025779 0.278905
vt 0.506648 0.284462
vt 0.292193 0.275316
vt 0.029542 0.264328
vt 0.503859 0.275246
vt 0.763278 0.253133
vt 0.297138 0.261675
vt 0.500845 0.266491
vt 0.033512 0.250296
vt 0.497603 0.258193
vt 0.302515 0.249664
vt 0.494135 0.250356
vt 0.037692 0.236814
vt 0.308307 0.238944
vt 0.490443 0.242980
vt 0.754398 0.223851
vt 0.486523 0.236063
vt 0.042078 0.223879
vt 0.314492 0.229166
vt 0.482377 0.229605
vt 0.321072 0.220334
vt 0.046674 0.211493
vt 0.478005 0.223607
vt 0.473408 0.218067
vt 0.328049 0.212446
vt 0.744254 0.196512
vt 0.468584 0.212989
vt 0.051476 0.199655
vt 0.335420 0.205502
vt 0.463569 0.208337
vt 0.458398 0.204083
vt 0.343186 0.199503
vt 0.056487 0.188365
vt 0.453069 0.200225
vt 0.351345 0.194448
vt 0.447585 0.196763
vt 0.441944 0.193699
vt 0.359900 0.190339
vt 0.436147 0.191029
vt 0.061705 0.177621
vt 0.732847 0.171117
vt 0.368851 0.187173
vt 0.430192 0.188757
vt 0.424080 0.186881
vt 0.378197 0.184952
vt 0.417814 0.185401
vt 0.387937 0.183673
vt 0.411389 0.184318
vt 0.404808 0.183632
vt 0.398072 0.183340
vt 0.067131 0.167426
vt 0.072766 0.157779
vt 0.720177 0.147666
vt 0.078608 0.148680
vt 0.086987 0.136513
vt 0.706243 0.126158
vt 0.095732 0.124852
vt 0.104849 0.113701
vt 0.690775 0.106457
vt 0.114334 0.103061
vt 0.124186 0.092929
vt 0.673497 0.088426
vt 0.134408 0.083305
vt 0.144998 0.074189
vt 0.654408 0.072065
vt 0.155958 0.065584
vt 0.167287 0.057487
vt 0.633512 0.057377
vt 0.178982 0.049898
vt 0.610806 0.044357
vt 0.191049 0.042817
vt 0.203484 0.036247
vt 0.586292 0.033010
vt 0.216422 0.030205
vt 0.230007 0.024714
vt 0.559967 0.023331
vt 0.244232 0.019771
vt 0.259102 0.015377
vt 0.531833 0.015324
vt 0.274616 0.011533
vt 0.501891 0.008987
vt 0.290770 0.008238
vt 0.307569 0.005492
vt 0.470140 0.004321
vt 0.325012 0.003294
vt 0.343097 0.001647
vt 0.436578 0.001325
vt 0.361824 0.000548
vt 0.381194 0.000000
vt 0.401208 0.000000
s 1
usemtl マテリアル.002
f 24/1/1 26/2/1 25/3/1
f 24/1/1 27/4/1 26/2/1
f 24/1/1 28/5/1 27/4/1
f 23/6/1 28/5/1 24/1/1
f 23/6/1 29/7/1 28/5/1
f 23/6/1 30/8/1 29/7/1
f 22/9/1 30/8/1 23/6/1
f 22/9/1 31/10/1 30/8/1
f 22/9/1 32/11/1 31/10/1
f 21/12/1 32/11/1 22/9/1
f 21/12/1 33/13/1 32/11/1
f 21/12/1 34/14/1 33/13/1
f 20/15/1 34/14/1 21/12/1
f 20/15/1 35/16/1 34/14/1
f 20/15/1 36/17/1 35/16/1
f 19/18/1 36/17/1 20/15/1
f 19/18/1 37/19/1 36/17/1
f 19/18/1 38/20/1 37/19/1
f 18/21/1 38/20/1 19/18/1
f 18/21/1 39/22/1 38/20/1
f 18/21/1 40/23/1 39/22/1
f 18/21/1 41/24/1 40/23/1
f 17/25/1 41/24/1 18/21/1
f 17/25/1 42/26/1 41/24/1
f 17/25/1 43/27/1 42/26/1
f 16/28/1 43/27/1 17/25/1
f 16/28/1 44/29/1 43/27/1
f 16/28/1 45/30/1 44/29/1
f 15/31/1 45/30/1 16/28/1
f 15/31/1 46/32/1 45/30/1
f 15/31/1 47/33/1 46/32/1
f 15/31/1 48/34/1 47/33/1
f 14/35/1 48/34/1 15/31/1
f 14/35/1 49/36/1 48/34/1
f 14/35/1 50/37/1 49/36/1
f 13/38/1 50/37/1 14/35/1
f 13/38/1 51/39/1 50/37/1
f 13/38/1 52/40/1 51/39/1
f 13/38/1 53/41/1 52/40/1
f 12/42/1 53/41/1 13/38/1
f 12/42/1 54/43/1 53/41/1
f 12/42/1 55/44/1 54/43/1
f 12/42/1 56/45/1 55/44/1
f 11/46/1 56/45/1 12/42/1
f 11/46/1 57/47/1 56/45/1
f 11/46/1 58/48/1 57/47/1
f 11/46/1 59/49/1 58/48/1
f 10/50/1 59/49/1 11/46/1
f 10/50/1 60/51/1 59/49/1
f 10/50/1 61/52/1 60/51/1
f 10/50/1 62/53/1 61/52/1
f 10/50/1 241/54/1 62/53/1
f 241/54/1 63/55/1 62/53/1
f 9/56/1 242/57/1 10/50/1
f 242/57/1 241/54/1 10/50/1
f 240/58/1 63/55/1 241/54/1
f 239/59/1 63/55/1 240/58/1
f 9/56/1 243/60/1 242/57/1
f 238/61/1 63/55/1 239/59/1
f 9/56/1 244/62/1 243/60/1
f 238/61/1 64/63/1 63/55/1
f 237/64/1 64/63/1 238/61/1
f 9/56/1 245/65/1 244/62/1
f 236/66/1 64/63/1 237/64/1
f 9/56/1 246/67/1 245/65/1
f 236/66/1 65/68/1 64/63/1
f 235/69/1 65/68/1 236/66/1
f 9/56/1 247/70/1 246/67/1
f 234/71/1 65/68/1 235/69/1
f 9/56/1 248/72/1 247/70/1
f 234/71/1 66/73/1 65/68/1
f 233/74/1 66/73/1 234/71/1
f 9/56/1 249/75/1 248/72/1
f 8/76/1 249/75/1 9/56/1
f 233/74/1 67/77/1 66/73/1
f 232/78/1 67/77/1 233/74/1
f 8/76/1 250/79/1 249/75/1
f 232/78/1 68/80/1 67/77/1
f 231/81/1 68/80/1 232/78/1
f 8/76/1 251/82/1 250/79/1
f 231/81/1 69/83/1 68/80/1
f 230/84/1 69/83/1 231/81/1
f 8/76/1 252/85/1 251/82/1
f 7/86/1 252/85/1 8/76/1
f 230/84/1 70/87/1 69/83/1
f 229/88/1 70/87/1 230/84/1
f 7/86/1 253/89/1 252/85/1
f 229/88/1 71/90/1 70/87/1
f 228/91/1 71/90/1 229/88/1
f 7/86/1 254/92/1 253/89/1
f 228/91/1 72/93/1 71/90/1
f 227/94/1 72/93/1 228/91/1
f 227/94/1 73/95/1 72/93/1
f 7/86/1 255/96/1 254/92/1
f 6/97/1 255/96/1 7/86/1
f 227/94/1 74/98/1 73/95/1
f 226/99/1 74/98/1 227/94/1
f 6/97/1 256/100/1 255/96/1
f 226/99/1 75/101/1 74/98/1
f 225/102/1 75/101/1 226/99/1
f 6/97/1 257/103/1 256/100/1
f 5/104/1 257/103/1 6/97/1
f 224/105/1 75/101/1 225/102/1
f 224/105/1 76/106/1 75/101/1
f 5/104/1 258/107/1 257/103/1
f 224/105/1 77/108/1 76/106/1
f 223/109/1 77/108/1 224/105/1
f 5/104/1 259/110/1 258/107/1
f 4/111/1 259/110/1 5/104/1
f 223/109/1 78/112/1 77/108/1
f 4/111/1 260/113/1 259/110/1
f 222/114/1 78/112/1 223/109/1
f 222/114/1 79/115/1 78/112/1
f 4/111/1 261/116/1 260/113/1
f 221/117/1 79/115/1 222/114/1
f 3/118/1 261/116/1 4/111/1
f 221/117/1 80/119/1 79/115/1
f 3/118/1 262/120/1 261/116/1
f 220/121/1 80/119/1 221/117/1
f 220/121/1 81/122/1 80/119/1
f 2/123/1 262/120/1 3/118/1
f 2/123/1 263/124/1 262/120/1
f 220/121/1 82/125/1 81/122/1
f 219/126/1 82/125/1 220/121/1
f 219/126/1 83/127/1 82/125/1
f 2/123/1 264/128/1 263/124/1
f 218/129/1 83/127/1 219/126/1
f 1/130/1 264/128/1 2/123/1
f 218/129/1 84/131/1 83/127/1
f 1/130/1 157/132/1 264/128/1
f 217/133/1 84/131/1 218/129/1
f 217/133/1 85/134/1 84/131/1
f 217/133/1 86/135/1 85/134/1
f 156/136/1 157/132/1 1/130/1
f 156/136/1 158/137/1 157/132/1
f 216/138/1 86/135/1 217/133/1
f 155/139/1 158/137/1 156/136/1
f 215/140/1 86/135/1 216/138/1
f 155/139/1 159/141/1 158/137/1
f 154/142/1 159/141/1 155/139/1
f 215/140/1 87/143/1 86/135/1
f 214/144/1 87/143/1 215/140/1
f 153/145/1 159/141/1 154/142/1
f 153/145/1 160/146/1 159/141/1
f 213/147/1 87/143/1 214/144/1
f 152/148/1 160/146/1 153/145/1
f 213/147/1 88/149/1 87/143/1
f 152/148/1 161/150/1 160/146/1
f 212/151/1 88/149/1 213/147/1
f 151/152/1 161/150/1 152/148/1
f 211/153/1 88/149/1 212/151/1
f 150/154/1 161/150/1 151/152/1
f 150/154/1 162/155/1 161/150/1
f 211/153/1 89/156/1 88/149/1
f 210/157/1 89/156/1 211/153/1
f 149/158/1 162/155/1 150/154/1
f 149/158/1 163/159/1 162/155/1
f 209/160/1 89/156/1 210/157/1
f 148/161/1 163/159/1 149/158/1
f 208/162/1 89/156/1 209/160/1
f 148/161/1 164/163/1 163/159/1
f 208/162/1 90/164/1 89/156/1
f 147/165/1 164/163/1 148/161/1
f 207/166/1 90/164/1 208/162/1
f 146/167/1 164/163/1 147/165/1
f 146/167/1 165/168/1 164/163/1
f 206/169/1 90/164/1 207/166/1
f 145/170/1 165/168/1 146/167/1
f 205/171/1 90/164/1 206/169/1
f 205/171/1 91/172/1 90/164/1
f 145/170/1 166/173/1 165/168/1
f 204/174/1 91/172/1 205/171/1
f 144/175/1 166/173/1 145/170/1
f 203/176/1 91/172/1 204/174/1
f 144/175/1 167/177/1 166/173/1
f 143/178/1 167/177/1 144/175/1
f 202/179/1 91/172/1 203/176/1
f 202/179/1 92/180/1 91/172/1
f 143/178/1 168/181/1 167/177/1
f 201/182/1 92/180/1 202/179/1
f 142/183/1 168/181/1 143/178/1
f 200/184/1 92/180/1 201/182/1
f 142/183/1 169/185/1 168/181/1
f 199/186/1 92/180/1 200/184/1
f 141/187/1 169/185/1 142/183/1
f 141/187/1 170/188/1 169/185/1
f 198/189/1 92/180/1 199/186/1
f 198/189/1 93/190/1 92/180/1
f 197/191/1 93/190/1 198/189/1
f 140/192/1 170/188/1 141/187/1
f 140/192/1 171/193/1 170/188/1
f 196/194/1 93/190/1 197/191/1
f 140/192/1 172/195/1 171/193/1
f 139/196/1 172/195/1 140/192/1
f 195/197/1 93/190/1 196/194/1
f 194/198/1 93/190/1 195/197/1
f 139/196/1 173/199/1 172/195/1
f 194/198/1 94/200/1 93/190/1
f 193/201/1 94/200/1 194/198/1
f 138/202/1 173/199/1 139/196/1
f 138/202/1 174/203/1 173/199/1
f 192/204/1 94/200/1 193/201/1
f 191/205/1 94/200/1 192/204/1
f 138/202/1 175/206/1 174/203/1
f 137/207/1 175/206/1 138/202/1
f 190/208/1 94/200/1 191/205/1
f 137/207/1 176/209/1 175/206/1
f 189/210/1 94/200/1 190/208/1
f 188/211/1 94/200/1 189/210/1
f 137/207/1 177/212/1 176/209/1
f 187/213/1 94/200/1 188/211/1
f 136/214/1 177/212/1 137/207/1
f 187/213/1 95/215/1 94/200/1
f 136/214/1 178/216/1 177/212/1
f 186/217/1 95/215/1 187/213/1
f 185/218/1 95/215/1 186/217/1
f 136/214/1 179/219/1 178/216/1
f 184/220/1 95/215/1 185/218/1
f 136/214/1 180/221/1 179/219/1
f 183/222/1 95/215/1 184/220/1
f 182/223/1 95/215/1 183/222/1
f 136/214/1 181/224/1 180/221/1
f 181/224/1 95/215/1 182/223/1
f 136/214/1 95/215/1 181/224/1
f 135/225/1 95/215/1 136/214/1
f 134/226/1 95/215/1 135/225/1
f 134/226/1 96/227/1 95/215/1
f 133/228/1 96/227/1 134/226/1
f 132/229/1 96/227/1 133/228/1
f 132/229/1 97/230/1 96/227/1
f 131/231/1 97/230/1 132/229/1
f 130/232/1 97/230/1 131/231/1
f 130/232/1 98/233/1 97/230/1
f 129/234/1 98/233/1 130/232/1
f 128/235/1 98/233/1 129/234/1
f 128/235/1 99/236/1 98/233/1
f 127/237/1 99/236/1 128/235/1
f 126/238/1 99/236/1 127/237/1
f 126/238/1 100/239/1 99/236/1
f 125/240/1 100/239/1 126/238/1
f 124/241/1 100/239/1 125/240/1
f 124/241/1 101/242/1 100/239/1
f 123/243/1 101/242/1 124/241/1
f 123/243/1 102/244/1 101/242/1
f 122/245/1 102/244/1 123/243/1
f 121/246/1 102/244/1 122/245/1
f 121/246/1 103/247/1 102/244/1
f 120/248/1 103/247/1 121/246/1
f 119/249/1 103/247/1 120/248/1
f 119/249/1 104/250/1 103/247/1
f 118/251/1 104/250/1 119/249/1
f 117/252/1 104/250/1 118/251/1
f 117/252/1 105/253/1 104/250/1
f 116/254/1 105/253/1 117/252/1
f 116/254/1 106/255/1 105/253/1
f 115/256/1 106/255/1 116/254/1
f 114/257/1 106/255/1 115/256/1
f 114/257/1 107/258/1 106/255/1
f 113/259/1 107/258/1 114/257/1
f 112/260/1 107/258/1 113/259/1
f 112/260/1 108/261/1 107/258/1
f 111/262/1 108/261/1 112/260/1
f 110/263/1 108/261/1 111/262/1
f 110/263/1 109/264/1 108/261/1
