# Blender 4.4.1
# www.blender.org
mtllib 1.mtl
o テキスト
v 0.353706 -0.000000 -0.523709
v 0.353706 0.000000 0.000000
v 0.208992 0.000000 0.000000
v 0.208992 -0.000000 -0.343168
v 0.203154 -0.000000 -0.338790
v 0.197347 -0.000000 -0.334553
v 0.191572 -0.000000 -0.330458
v 0.185829 -0.000000 -0.326504
v 0.180118 -0.000000 -0.322691
v 0.174438 -0.000000 -0.319020
v 0.168790 -0.000000 -0.315491
v 0.163174 -0.000000 -0.312102
v 0.157589 -0.000000 -0.308856
v 0.152036 -0.000000 -0.305751
v 0.146515 -0.000000 -0.302787
v 0.141026 -0.000000 -0.299965
v 0.135436 -0.000000 -0.297223
v 0.129615 -0.000000 -0.294501
v 0.123562 -0.000000 -0.291798
v 0.117277 -0.000000 -0.289115
v 0.110761 -0.000000 -0.286452
v 0.104013 -0.000000 -0.283808
v 0.097033 -0.000000 -0.281183
v 0.089822 -0.000000 -0.278578
v 0.082378 -0.000000 -0.275992
v 0.074703 -0.000000 -0.273426
v 0.066797 -0.000000 -0.270880
v 0.058658 -0.000000 -0.268353
v 0.058658 -0.000000 -0.385669
v 0.070608 -0.000000 -0.389657
v 0.082104 -0.000000 -0.393777
v 0.093146 -0.000000 -0.398029
v 0.103735 -0.000000 -0.402412
v 0.113870 -0.000000 -0.406927
v 0.123551 -0.000000 -0.411574
v 0.132779 -0.000000 -0.416352
v 0.141553 -0.000000 -0.421262
v 0.149873 -0.000000 -0.426304
v 0.157739 -0.000000 -0.431478
v 0.165152 -0.000000 -0.436783
v 0.172111 -0.000000 -0.442220
v 0.178721 -0.000000 -0.447830
v 0.185088 -0.000000 -0.453655
v 0.191210 -0.000000 -0.459694
v 0.197089 -0.000000 -0.465949
v 0.202723 -0.000000 -0.472417
v 0.208114 -0.000000 -0.479101
v 0.213261 -0.000000 -0.485999
v 0.218163 -0.000000 -0.493112
v 0.222822 -0.000000 -0.500439
v 0.227237 -0.000000 -0.507981
v 0.231408 -0.000000 -0.515738
v 0.235335 -0.000000 -0.523709
vn -0.0000 1.0000 -0.0000
vt 0.329859 0.984780
vt 0.563382 1.000000
vt 0.337357 1.000000
vt 0.563382 0.000000
vt 0.321894 0.969968
vt 0.313464 0.955567
vt 0.304568 0.941576
vt 0.295208 0.927994
vt 0.285380 0.914823
vt 0.275086 0.902060
vt 0.264328 0.889710
vt 0.253102 0.877766
vt 0.241413 0.866235
vt 0.229255 0.855112
vt 0.216634 0.844400
vt 0.203346 0.834018
vt 0.287056 0.655265
vt 0.189191 0.823889
vt 0.174171 0.814009
vt 0.158284 0.804382
vt 0.141531 0.795006
vt 0.123910 0.785883
vt 0.105425 0.777010
vt 0.086073 0.768389
vt 0.065853 0.760019
vt 0.044769 0.751900
vt 0.022818 0.744033
vt -0.000000 0.736418
vt -0.000000 0.512409
vt 0.275909 0.646905
vt 0.287056 0.000000
vt 0.264821 0.638815
vt 0.253794 0.630995
vt 0.242828 0.623445
vt 0.231923 0.616165
vt 0.221077 0.609155
vt 0.210292 0.602417
vt 0.199569 0.595945
vt 0.188905 0.589747
vt 0.178301 0.583818
vt 0.167759 0.578159
vt 0.157278 0.572770
vt 0.146604 0.567535
vt 0.135489 0.562337
vt 0.123931 0.557176
vt 0.111930 0.552053
vt 0.099488 0.546968
vt 0.086603 0.541919
vt 0.073275 0.536907
vt 0.059506 0.531933
vt 0.045292 0.526995
vt 0.030637 0.522095
vt 0.015541 0.517234
s 1
usemtl マテリアル
f 52/1/1 1/2/1 53/3/1
f 52/1/1 2/4/1 1/2/1
f 51/5/1 2/4/1 52/1/1
f 50/6/1 2/4/1 51/5/1
f 49/7/1 2/4/1 50/6/1
f 48/8/1 2/4/1 49/7/1
f 47/9/1 2/4/1 48/8/1
f 46/10/1 2/4/1 47/9/1
f 45/11/1 2/4/1 46/10/1
f 44/12/1 2/4/1 45/11/1
f 43/13/1 2/4/1 44/12/1
f 42/14/1 2/4/1 43/13/1
f 41/15/1 2/4/1 42/14/1
f 40/16/1 4/17/1 41/15/1
f 4/17/1 2/4/1 41/15/1
f 39/18/1 4/17/1 40/16/1
f 38/19/1 4/17/1 39/18/1
f 37/20/1 4/17/1 38/19/1
f 36/21/1 4/17/1 37/20/1
f 35/22/1 4/17/1 36/21/1
f 34/23/1 4/17/1 35/22/1
f 33/24/1 4/17/1 34/23/1
f 32/25/1 4/17/1 33/24/1
f 31/26/1 4/17/1 32/25/1
f 30/27/1 4/17/1 31/26/1
f 29/28/1 4/17/1 30/27/1
f 28/29/1 4/17/1 29/28/1
f 28/29/1 5/30/1 4/17/1
f 3/31/1 2/4/1 4/17/1
f 28/29/1 6/32/1 5/30/1
f 28/29/1 7/33/1 6/32/1
f 28/29/1 8/34/1 7/33/1
f 28/29/1 9/35/1 8/34/1
f 28/29/1 10/36/1 9/35/1
f 28/29/1 11/37/1 10/36/1
f 28/29/1 12/38/1 11/37/1
f 28/29/1 13/39/1 12/38/1
f 28/29/1 14/40/1 13/39/1
f 28/29/1 15/41/1 14/40/1
f 28/29/1 16/42/1 15/41/1
f 28/29/1 17/43/1 16/42/1
f 28/29/1 18/44/1 17/43/1
f 28/29/1 19/45/1 18/44/1
f 28/29/1 20/46/1 19/45/1
f 28/29/1 21/47/1 20/46/1
f 28/29/1 22/48/1 21/47/1
f 28/29/1 23/49/1 22/48/1
f 28/29/1 24/50/1 23/49/1
f 28/29/1 25/51/1 24/50/1
f 28/29/1 26/52/1 25/51/1
f 28/29/1 27/53/1 26/52/1
