# Blender 4.4.1
# www.blender.org
mtllib 2.mtl
o テキスト
v 0.594573 -0.750000 -0.000000
v -0.693099 -0.750000 -0.000000
v -0.688785 -0.718368 -0.000000
v -0.683220 -0.687054 -0.000000
v -0.676404 -0.656052 -0.000000
v -0.668334 -0.625365 -0.000000
v -0.659016 -0.594993 -0.000000
v -0.648447 -0.564936 -0.000000
v -0.636624 -0.535194 -0.000000
v -0.623550 -0.505767 -0.000000
v -0.609228 -0.476652 -0.000000
v -0.593652 -0.447855 -0.000000
v -0.576825 -0.419370 -0.000000
v -0.558747 -0.391200 -0.000000
v -0.538677 -0.362769 -0.000000
v -0.515880 -0.333495 -0.000000
v -0.490353 -0.303378 -0.000000
v -0.462096 -0.272421 -0.000000
v -0.431109 -0.240621 -0.000000
v -0.397392 -0.207981 -0.000000
v -0.360945 -0.174501 -0.000000
v -0.321771 -0.140178 -0.000000
v -0.279867 -0.105012 -0.000000
v -0.235233 -0.069006 -0.000000
v -0.187869 -0.032157 -0.000000
v -0.137778 0.005532 -0.000000
v -0.107283 0.028422 -0.000000
v -0.078678 0.050376 -0.000000
v -0.051963 0.071391 -0.000000
v -0.027135 0.091470 -0.000000
v -0.004194 0.110613 -0.000000
v 0.016860 0.128820 -0.000000
v 0.036024 0.146088 -0.000000
v 0.053301 0.162423 -0.000000
v 0.068691 0.177819 -0.000000
v 0.082191 0.192279 -0.000000
v 0.093804 0.205800 -0.000000
v 0.103530 0.218388 -0.000000
v 0.111945 0.230454 -0.000000
v 0.119628 0.242418 -0.000000
v 0.126582 0.254280 -0.000000
v 0.132801 0.266040 -0.000000
v 0.138288 0.277698 -0.000000
v 0.143046 0.289251 -0.000000
v 0.147069 0.300705 -0.000000
v 0.150363 0.312054 -0.000000
v 0.152925 0.323301 -0.000000
v 0.154755 0.334446 -0.000000
v 0.155850 0.345489 -0.000000
v 0.156216 0.356427 -0.000000
v 0.155856 0.368052 -0.000000
v 0.154767 0.379392 -0.000000
v 0.152958 0.390444 -0.000000
v 0.150423 0.401211 -0.000000
v 0.147162 0.411693 -0.000000
v 0.143178 0.421890 -0.000000
v 0.138468 0.431802 -0.000000
v 0.133035 0.441429 -0.000000
v 0.126876 0.450771 -0.000000
v 0.119994 0.459825 -0.000000
v 0.112389 0.468597 -0.000000
v 0.104058 0.477081 -0.000000
v 0.095178 0.485076 -0.000000
v 0.085923 0.492375 -0.000000
v 0.076296 0.498978 -0.000000
v 0.066297 0.504888 -0.000000
v 0.055926 0.510102 -0.000000
v 0.045180 0.514620 -0.000000
v 0.034059 0.518445 -0.000000
v 0.022569 0.521571 -0.000000
v 0.010701 0.524007 -0.000000
v -0.001536 0.525744 -0.000000
v -0.014148 0.526785 -0.000000
v -0.027135 0.527133 -0.000000
v -0.040623 0.526776 -0.000000
v -0.053697 0.525699 -0.000000
v -0.066354 0.523908 -0.000000
v -0.078591 0.521397 -0.000000
v -0.090414 0.518169 -0.000000
v -0.101817 0.514227 -0.000000
v -0.112806 0.509565 -0.000000
v -0.123375 0.504186 -0.000000
v -0.133530 0.498090 -0.000000
v -0.143265 0.491277 -0.000000
v -0.152583 0.483747 -0.000000
v -0.161487 0.475500 -0.000000
v -0.169941 0.466347 -0.000000
v -0.177921 0.456093 -0.000000
v -0.185424 0.444744 -0.000000
v -0.192453 0.432297 -0.000000
v -0.199008 0.418752 -0.000000
v -0.205083 0.404109 -0.000000
v -0.210687 0.388368 -0.000000
v -0.215811 0.371532 -0.000000
v -0.220461 0.353595 -0.000000
v -0.224637 0.334563 -0.000000
v -0.228336 0.314433 -0.000000
v -0.231561 0.293202 -0.000000
v -0.661485 0.327978 -0.000000
v -0.656979 0.357633 -0.000000
v -0.651885 0.386181 -0.000000
v -0.646206 0.413625 -0.000000
v -0.639942 0.439965 -0.000000
v -0.633093 0.465201 -0.000000
v -0.625659 0.489330 -0.000000
v -0.617637 0.512355 -0.000000
v -0.609033 0.534276 -0.000000
v -0.599841 0.555090 -0.000000
v -0.590067 0.574800 -0.000000
v -0.579705 0.593406 -0.000000
v -0.568758 0.610905 -0.000000
v -0.557133 0.627525 -0.000000
v -0.544740 0.643485 -0.000000
v -0.531579 0.658785 -0.000000
v -0.517650 0.673428 -0.000000
v -0.502953 0.687411 -0.000000
v -0.487488 0.700737 -0.000000
v -0.471252 0.713403 -0.000000
v -0.454251 0.725412 -0.000000
v -0.436479 0.736761 -0.000000
v -0.417939 0.747453 -0.000000
v -0.398631 0.757485 -0.000000
v -0.378555 0.766860 -0.000000
v -0.357441 0.775527 -0.000000
v -0.335016 0.783441 -0.000000
v -0.311283 0.790602 -0.000000
v -0.286236 0.797010 -0.000000
v -0.259881 0.802662 -0.000000
v -0.232218 0.807561 -0.000000
v -0.203244 0.811707 -0.000000
v -0.172959 0.815097 -0.000000
v -0.141366 0.817737 -0.000000
v -0.108462 0.819621 -0.000000
v -0.074247 0.820752 -0.000000
v -0.038724 0.821127 -0.000000
v -0.001665 0.820770 -0.000000
v 0.033999 0.819693 -0.000000
v 0.068262 0.817899 -0.000000
v 0.101130 0.815391 -0.000000
v 0.132600 0.812163 -0.000000
v 0.162672 0.808218 -0.000000
v 0.191346 0.803559 -0.000000
v 0.218622 0.798180 -0.000000
v 0.244500 0.792084 -0.000000
v 0.268983 0.785271 -0.000000
v 0.292065 0.777741 -0.000000
v 0.313752 0.769494 -0.000000
v 0.334365 0.760506 -0.000000
v 0.354234 0.750747 -0.000000
v 0.373353 0.740220 -0.000000
v 0.391728 0.728925 -0.000000
v 0.409356 0.716862 -0.000000
v 0.426237 0.704031 -0.000000
v 0.442374 0.690432 -0.000000
v 0.457764 0.676062 -0.000000
v 0.472404 0.660927 -0.000000
v 0.486300 0.645021 -0.000000
v 0.499452 0.628347 -0.000000
v 0.511854 0.610905 -0.000000
v 0.523383 0.592902 -0.000000
v 0.533910 0.574539 -0.000000
v 0.543435 0.555816 -0.000000
v 0.551955 0.536736 -0.000000
v 0.559473 0.517296 -0.000000
v 0.565989 0.497496 -0.000000
v 0.571503 0.477342 -0.000000
v 0.576015 0.456825 -0.000000
v 0.579525 0.435951 -0.000000
v 0.582030 0.414720 -0.000000
v 0.583533 0.393129 -0.000000
v 0.584037 0.371181 -0.000000
v 0.583461 0.347736 -0.000000
v 0.581739 0.324465 -0.000000
v 0.578865 0.301371 -0.000000
v 0.574845 0.278451 -0.000000
v 0.569676 0.255708 -0.000000
v 0.563355 0.233139 -0.000000
v 0.555888 0.210747 -0.000000
v 0.547272 0.188532 -0.000000
v 0.537507 0.166491 -0.000000
v 0.526593 0.144627 -0.000000
v 0.514530 0.122937 -0.000000
v 0.501318 0.101424 -0.000000
v 0.486591 0.079821 -0.000000
v 0.469983 0.057867 -0.000000
v 0.451494 0.035565 -0.000000
v 0.431127 0.012909 -0.000000
v 0.408876 -0.010098 -0.000000
v 0.384747 -0.033456 -0.000000
v 0.358737 -0.057165 -0.000000
v 0.330846 -0.081225 -0.000000
v 0.301074 -0.105639 -0.000000
v 0.269421 -0.130401 -0.000000
v 0.235887 -0.155514 -0.000000
v 0.200475 -0.180981 -0.000000
v 0.179469 -0.195534 -0.000000
v 0.159657 -0.209343 -0.000000
v 0.141036 -0.222405 -0.000000
v 0.123609 -0.234720 -0.000000
v 0.107376 -0.246291 -0.000000
v 0.092334 -0.257112 -0.000000
v 0.078486 -0.267189 -0.000000
v 0.065829 -0.276519 -0.000000
v 0.054366 -0.285102 -0.000000
v 0.044097 -0.292941 -0.000000
v 0.035019 -0.300030 -0.000000
v 0.027135 -0.306375 -0.000000
v 0.019740 -0.312501 -0.000000
v 0.012132 -0.318933 -0.000000
v 0.004314 -0.325671 -0.000000
v -0.003717 -0.332718 -0.000000
v -0.011961 -0.340074 -0.000000
v -0.020415 -0.347733 -0.000000
v -0.029085 -0.355704 -0.000000
v -0.037965 -0.363981 -0.000000
v -0.047055 -0.372564 -0.000000
v -0.056361 -0.381453 -0.000000
v -0.065877 -0.390651 -0.000000
v -0.075606 -0.400158 -0.000000
v 0.594573 -0.400158 -0.000000
vn -0.0000 -0.0000 1.0000
vt 0.393891 0.999761
vt 0.440088 0.999773
vt 0.416500 1.000000
vt 0.462788 0.999087
vt 0.372113 0.999041
vt 0.484596 0.997945
vt 0.351170 0.997842
vt 0.505516 0.996349
vt 0.331062 0.996162
vt 0.525546 0.994295
vt 0.311786 0.994004
vt 0.544686 0.991784
vt 0.293344 0.991365
vt 0.562937 0.988818
vt 0.275737 0.988247
vt 0.580298 0.985395
vt 0.258963 0.984650
vt 0.596768 0.981515
vt 0.243020 0.980571
vt 0.612352 0.977178
vt 0.227915 0.976013
vt 0.627043 0.972385
vt 0.213642 0.970976
vt 0.640846 0.967136
vt 0.200203 0.965460
vt 0.653966 0.961416
vt 0.187425 0.959493
vt 0.666613 0.955204
vt 0.175135 0.953108
vt 0.678782 0.948504
vt 0.163335 0.946302
vt 0.690477 0.941315
vt 0.152023 0.939079
vt 0.701697 0.933637
vt 0.141202 0.931435
vt 0.712442 0.925470
vt 0.130868 0.923374
vt 0.722712 0.916815
vt 0.121025 0.914892
vt 0.732508 0.907668
vt 0.111671 0.905992
vt 0.741826 0.898035
vt 0.102805 0.896672
vt 0.750671 0.887911
vt 0.094428 0.886933
vt 0.759042 0.877298
vt 0.086540 0.876775
vt 0.766936 0.866197
vt 0.079141 0.866197
vt 0.072174 0.855059
vt 0.774274 0.854738
vt 0.065578 0.843216
vt 0.780974 0.843050
vt 0.059357 0.830671
vt 0.787036 0.831133
vt 0.792459 0.818989
vt 0.053507 0.817423
vt 0.423877 0.812877
vt 0.797244 0.806616
vt 0.048030 0.803471
vt 0.415292 0.812650
vt 0.432143 0.812656
vt 0.440170 0.811993
vt 0.406970 0.811964
vt 0.447959 0.810887
vt 0.398914 0.810824
vt 0.455513 0.809337
vt 0.391126 0.809226
vt 0.462826 0.807347
vt 0.383600 0.807172
vt 0.469904 0.804913
vt 0.376343 0.804663
vt 0.801392 0.794014
vt 0.476744 0.802037
vt 0.369348 0.801695
vt 0.042925 0.788816
vt 0.483345 0.798718
vt 0.362621 0.798272
vt 0.489709 0.794957
vt 0.356158 0.794392
vt 0.495836 0.790754
vt 0.349962 0.790055
vt 0.804901 0.781186
vt 0.501727 0.786108
vt 0.344031 0.785262
vt 0.038193 0.773458
vt 0.507379 0.781020
vt 0.338364 0.780013
vt 0.807773 0.768127
vt 0.512682 0.775620
vt 0.332983 0.774188
vt 0.517522 0.770036
vt 0.327904 0.767661
vt 0.033834 0.757396
vt 0.521903 0.764274
vt 0.810007 0.754841
vt 0.323128 0.760438
vt 0.525823 0.758328
vt 0.318654 0.752515
vt 0.529281 0.752200
vt 0.029847 0.740631
vt 0.811602 0.741328
vt 0.314482 0.743894
vt 0.532278 0.745891
vt 0.534814 0.739401
vt 0.310615 0.734574
vt 0.812558 0.727585
vt 0.026232 0.723163
vt 0.536890 0.732729
vt 0.307048 0.724555
vt 0.538503 0.725876
vt 0.812879 0.713616
vt 0.539655 0.718842
vt 0.303787 0.713839
vt 0.022990 0.704993
vt 0.540348 0.711624
vt 0.300827 0.702423
vt 0.812512 0.698693
vt 0.540577 0.704225
vt 0.020122 0.686118
vt 0.540344 0.697263
vt 0.298169 0.690309
vt 0.811416 0.683882
vt 0.539647 0.690234
vt 0.295815 0.677496
vt 0.538482 0.683141
vt 0.293762 0.663983
vt 0.809587 0.669183
vt 0.536852 0.675982
vt 0.534755 0.668759
vt 0.807028 0.654594
vt 0.532194 0.661469
vt 0.529166 0.654115
vt 0.803738 0.640119
vt 0.525674 0.646695
vt 0.521715 0.639210
vt 0.799715 0.625754
vt 0.517289 0.631660
vt 0.512399 0.624045
vt 0.794963 0.611502
vt 0.507043 0.616365
vt 0.500853 0.608353
vt 0.789479 0.597362
vt 0.493461 0.599747
vt 0.484869 0.590544
vt 0.783263 0.583333
vt 0.475073 0.580744
vt 0.776317 0.569417
vt 0.464076 0.570347
vt 0.451879 0.559356
vt 0.768639 0.555612
vt 0.438478 0.547768
vt 0.760230 0.541919
vt 0.423877 0.535584
vt 0.750856 0.528169
vt 0.408074 0.522804
vt 0.740285 0.514196
vt 0.391070 0.509428
vt 0.728517 0.500001
vt 0.372864 0.495455
vt 0.715554 0.485581
vt 0.353454 0.480885
vt 0.701392 0.470937
vt 0.321572 0.456897
vt 0.686034 0.456070
vt 0.291425 0.433443
vt 0.669479 0.440980
vt 0.651726 0.425666
vt 0.263016 0.410526
vt 0.632777 0.410127
vt 0.236345 0.388143
vt 0.612630 0.394366
vt 0.591286 0.378382
vt 0.211411 0.366297
vt 0.568747 0.362173
vt 0.188213 0.344987
vt 0.555377 0.352910
vt 0.542767 0.344121
vt 0.166753 0.324212
vt 0.530915 0.335807
vt 0.519823 0.327968
vt 0.509491 0.320604
vt 0.147030 0.303972
vt 0.499917 0.313716
vt 0.491103 0.307302
vt 0.483047 0.301364
vt 0.129045 0.284269
vt 0.475751 0.295901
vt 0.469215 0.290912
vt 0.463437 0.286400
vt 0.458419 0.282361
vt 0.112797 0.265099
vt 0.453712 0.278462
vt 0.448870 0.274368
vt 0.443893 0.270079
vt 0.438782 0.265594
vt 0.433535 0.260912
vt 0.098287 0.246467
vt 0.428154 0.256037
vt 0.422636 0.250964
vt 0.416984 0.245696
vt 0.085513 0.228371
vt 0.411198 0.240233
vt 0.405275 0.234575
vt 0.399218 0.228721
vt 0.393026 0.222669
vt 0.074007 0.210441
vt 0.819585 0.222669
vt 0.819585 0.000000
vt 0.063297 0.192311
vt 0.053383 0.173982
vt 0.044267 0.155451
vt 0.035946 0.136721
vt 0.028420 0.117791
vt 0.021693 0.098660
vt 0.015763 0.079328
vt 0.010626 0.059797
vt 0.006288 0.040064
vt 0.002746 0.020133
vt -0.000000 0.000000
s 1
usemtl マテリアル.001
f 134/1/1 136/2/1 135/3/1
f 134/1/1 137/4/1 136/2/1
f 133/5/1 137/4/1 134/1/1
f 133/5/1 138/6/1 137/4/1
f 132/7/1 138/6/1 133/5/1
f 132/7/1 139/8/1 138/6/1
f 131/9/1 139/8/1 132/7/1
f 131/9/1 140/10/1 139/8/1
f 130/11/1 140/10/1 131/9/1
f 130/11/1 141/12/1 140/10/1
f 129/13/1 141/12/1 130/11/1
f 129/13/1 142/14/1 141/12/1
f 128/15/1 142/14/1 129/13/1
f 128/15/1 143/16/1 142/14/1
f 127/17/1 143/16/1 128/15/1
f 127/17/1 144/18/1 143/16/1
f 126/19/1 144/18/1 127/17/1
f 126/19/1 145/20/1 144/18/1
f 125/21/1 145/20/1 126/19/1
f 125/21/1 146/22/1 145/20/1
f 124/23/1 146/22/1 125/21/1
f 124/23/1 147/24/1 146/22/1
f 123/25/1 147/24/1 124/23/1
f 123/25/1 148/26/1 147/24/1
f 122/27/1 148/26/1 123/25/1
f 122/27/1 149/28/1 148/26/1
f 121/29/1 149/28/1 122/27/1
f 121/29/1 150/30/1 149/28/1
f 120/31/1 150/30/1 121/29/1
f 120/31/1 151/32/1 150/30/1
f 119/33/1 151/32/1 120/31/1
f 119/33/1 152/34/1 151/32/1
f 118/35/1 152/34/1 119/33/1
f 118/35/1 153/36/1 152/34/1
f 117/37/1 153/36/1 118/35/1
f 117/37/1 154/38/1 153/36/1
f 116/39/1 154/38/1 117/37/1
f 116/39/1 155/40/1 154/38/1
f 115/41/1 155/40/1 116/39/1
f 115/41/1 156/42/1 155/40/1
f 114/43/1 156/42/1 115/41/1
f 114/43/1 157/44/1 156/42/1
f 113/45/1 157/44/1 114/43/1
f 113/45/1 158/46/1 157/44/1
f 112/47/1 158/46/1 113/45/1
f 112/47/1 159/48/1 158/46/1
f 111/49/1 159/48/1 112/47/1
f 110/50/1 159/48/1 111/49/1
f 110/50/1 160/51/1 159/48/1
f 109/52/1 160/51/1 110/50/1
f 109/52/1 161/53/1 160/51/1
f 108/54/1 161/53/1 109/52/1
f 108/54/1 162/55/1 161/53/1
f 108/54/1 163/56/1 162/55/1
f 107/57/1 163/56/1 108/54/1
f 107/57/1 74/58/1 163/56/1
f 74/58/1 164/59/1 163/56/1
f 106/60/1 74/58/1 107/57/1
f 106/60/1 75/61/1 74/58/1
f 73/62/1 164/59/1 74/58/1
f 72/63/1 164/59/1 73/62/1
f 106/60/1 76/64/1 75/61/1
f 71/65/1 164/59/1 72/63/1
f 106/60/1 77/66/1 76/64/1
f 70/67/1 164/59/1 71/65/1
f 106/60/1 78/68/1 77/66/1
f 69/69/1 164/59/1 70/67/1
f 106/60/1 79/70/1 78/68/1
f 68/71/1 164/59/1 69/69/1
f 106/60/1 80/72/1 79/70/1
f 68/71/1 165/73/1 164/59/1
f 67/74/1 165/73/1 68/71/1
f 106/60/1 81/75/1 80/72/1
f 105/76/1 81/75/1 106/60/1
f 66/77/1 165/73/1 67/74/1
f 105/76/1 82/78/1 81/75/1
f 65/79/1 165/73/1 66/77/1
f 105/76/1 83/80/1 82/78/1
f 64/81/1 165/73/1 65/79/1
f 105/76/1 84/82/1 83/80/1
f 64/81/1 166/83/1 165/73/1
f 63/84/1 166/83/1 64/81/1
f 105/76/1 85/85/1 84/82/1
f 104/86/1 85/85/1 105/76/1
f 62/87/1 166/83/1 63/84/1
f 104/86/1 86/88/1 85/85/1
f 62/87/1 167/89/1 166/83/1
f 61/90/1 167/89/1 62/87/1
f 104/86/1 87/91/1 86/88/1
f 60/92/1 167/89/1 61/90/1
f 104/86/1 88/93/1 87/91/1
f 103/94/1 88/93/1 104/86/1
f 59/95/1 167/89/1 60/92/1
f 59/95/1 168/96/1 167/89/1
f 103/94/1 89/97/1 88/93/1
f 58/98/1 168/96/1 59/95/1
f 103/94/1 90/99/1 89/97/1
f 57/100/1 168/96/1 58/98/1
f 102/101/1 90/99/1 103/94/1
f 57/100/1 169/102/1 168/96/1
f 102/101/1 91/103/1 90/99/1
f 56/104/1 169/102/1 57/100/1
f 55/105/1 169/102/1 56/104/1
f 102/101/1 92/106/1 91/103/1
f 55/105/1 170/107/1 169/102/1
f 101/108/1 92/106/1 102/101/1
f 54/109/1 170/107/1 55/105/1
f 101/108/1 93/110/1 92/106/1
f 53/111/1 170/107/1 54/109/1
f 53/111/1 171/112/1 170/107/1
f 52/113/1 171/112/1 53/111/1
f 101/108/1 94/114/1 93/110/1
f 100/115/1 94/114/1 101/108/1
f 51/116/1 171/112/1 52/113/1
f 100/115/1 95/117/1 94/114/1
f 51/116/1 172/118/1 171/112/1
f 50/119/1 172/118/1 51/116/1
f 99/120/1 95/117/1 100/115/1
f 49/121/1 172/118/1 50/119/1
f 99/120/1 96/122/1 95/117/1
f 49/121/1 173/123/1 172/118/1
f 48/124/1 173/123/1 49/121/1
f 99/120/1 97/125/1 96/122/1
f 47/126/1 173/123/1 48/124/1
f 98/127/1 97/125/1 99/120/1
f 47/126/1 174/128/1 173/123/1
f 46/129/1 174/128/1 47/126/1
f 45/130/1 174/128/1 46/129/1
f 45/130/1 175/131/1 174/128/1
f 44/132/1 175/131/1 45/130/1
f 43/133/1 175/131/1 44/132/1
f 43/133/1 176/134/1 175/131/1
f 42/135/1 176/134/1 43/133/1
f 41/136/1 176/134/1 42/135/1
f 41/136/1 177/137/1 176/134/1
f 40/138/1 177/137/1 41/136/1
f 39/139/1 177/137/1 40/138/1
f 39/139/1 178/140/1 177/137/1
f 38/141/1 178/140/1 39/139/1
f 37/142/1 178/140/1 38/141/1
f 37/142/1 179/143/1 178/140/1
f 36/144/1 179/143/1 37/142/1
f 35/145/1 179/143/1 36/144/1
f 35/145/1 180/146/1 179/143/1
f 34/147/1 180/146/1 35/145/1
f 34/147/1 181/148/1 180/146/1
f 33/149/1 181/148/1 34/147/1
f 32/150/1 181/148/1 33/149/1
f 32/150/1 182/151/1 181/148/1
f 31/152/1 182/151/1 32/150/1
f 31/152/1 183/153/1 182/151/1
f 30/154/1 183/153/1 31/152/1
f 30/154/1 184/155/1 183/153/1
f 29/156/1 184/155/1 30/154/1
f 29/156/1 185/157/1 184/155/1
f 28/158/1 185/157/1 29/156/1
f 28/158/1 186/159/1 185/157/1
f 27/160/1 186/159/1 28/158/1
f 27/160/1 187/161/1 186/159/1
f 26/162/1 187/161/1 27/160/1
f 26/162/1 188/163/1 187/161/1
f 25/164/1 188/163/1 26/162/1
f 25/164/1 189/165/1 188/163/1
f 24/166/1 189/165/1 25/164/1
f 24/166/1 190/167/1 189/165/1
f 24/166/1 191/168/1 190/167/1
f 23/169/1 191/168/1 24/166/1
f 23/169/1 192/170/1 191/168/1
f 22/171/1 192/170/1 23/169/1
f 22/171/1 193/172/1 192/170/1
f 22/171/1 194/173/1 193/172/1
f 21/174/1 194/173/1 22/171/1
f 21/174/1 195/175/1 194/173/1
f 20/176/1 195/175/1 21/174/1
f 20/176/1 196/177/1 195/175/1
f 20/176/1 197/178/1 196/177/1
f 19/179/1 197/178/1 20/176/1
f 19/179/1 198/180/1 197/178/1
f 19/179/1 199/181/1 198/180/1
f 19/179/1 200/182/1 199/181/1
f 18/183/1 200/182/1 19/179/1
f 18/183/1 201/184/1 200/182/1
f 18/183/1 202/185/1 201/184/1
f 18/183/1 203/186/1 202/185/1
f 17/187/1 203/186/1 18/183/1
f 17/187/1 204/188/1 203/186/1
f 17/187/1 205/189/1 204/188/1
f 17/187/1 206/190/1 205/189/1
f 17/187/1 207/191/1 206/190/1
f 16/192/1 207/191/1 17/187/1
f 16/192/1 208/193/1 207/191/1
f 16/192/1 209/194/1 208/193/1
f 16/192/1 210/195/1 209/194/1
f 16/192/1 211/196/1 210/195/1
f 16/192/1 212/197/1 211/196/1
f 15/198/1 212/197/1 16/192/1
f 15/198/1 213/199/1 212/197/1
f 15/198/1 214/200/1 213/199/1
f 15/198/1 215/201/1 214/200/1
f 14/202/1 215/201/1 15/198/1
f 14/202/1 216/203/1 215/201/1
f 14/202/1 217/204/1 216/203/1
f 14/202/1 218/205/1 217/204/1
f 14/202/1 219/206/1 218/205/1
f 13/207/1 219/206/1 14/202/1
f 13/207/1 220/208/1 219/206/1
f 13/207/1 1/209/1 220/208/1
f 12/210/1 1/209/1 13/207/1
f 11/211/1 1/209/1 12/210/1
f 10/212/1 1/209/1 11/211/1
f 9/213/1 1/209/1 10/212/1
f 8/214/1 1/209/1 9/213/1
f 7/215/1 1/209/1 8/214/1
f 6/216/1 1/209/1 7/215/1
f 5/217/1 1/209/1 6/216/1
f 4/218/1 1/209/1 5/217/1
f 3/219/1 1/209/1 4/218/1
f 2/220/1 1/209/1 3/219/1
