# Blender 4.4.1
# www.blender.org
mtllib 3.mtl
o テキスト
v -0.245259 0.347997 -0.000000
v -0.650949 0.420705 -0.000000
v -0.641871 0.452391 -0.000000
v -0.631497 0.482817 -0.000000
v -0.619830 0.511986 -0.000000
v -0.606867 0.539895 -0.000000
v -0.592608 0.566547 -0.000000
v -0.577056 0.591939 -0.000000
v -0.560205 0.616071 -0.000000
v -0.542061 0.638946 -0.000000
v -0.522621 0.660564 -0.000000
v -0.501888 0.680922 -0.000000
v -0.479859 0.700020 -0.000000
v -0.456534 0.717861 -0.000000
v -0.431730 0.734355 -0.000000
v -0.405267 0.749415 -0.000000
v -0.377139 0.763041 -0.000000
v -0.347355 0.775230 -0.000000
v -0.315906 0.785988 -0.000000
v -0.282798 0.795312 -0.000000
v -0.248028 0.803199 -0.000000
v -0.211596 0.809652 -0.000000
v -0.173505 0.814674 -0.000000
v -0.133752 0.818259 -0.000000
v -0.092337 0.820410 -0.000000
v -0.049263 0.821127 -0.000000
v -0.000021 0.820344 -0.000000
v 0.046893 0.817995 -0.000000
v 0.091479 0.814080 -0.000000
v 0.133737 0.808599 -0.000000
v 0.173670 0.801552 -0.000000
v 0.211275 0.792939 -0.000000
v 0.246552 0.782760 -0.000000
v 0.279504 0.771015 -0.000000
v 0.310128 0.757704 -0.000000
v 0.338427 0.742830 -0.000000
v 0.364398 0.726387 -0.000000
v 0.388041 0.708378 -0.000000
v 0.409584 0.689184 -0.000000
v 0.429252 0.669183 -0.000000
v 0.447051 0.648381 -0.000000
v 0.462972 0.626772 -0.000000
v 0.477024 0.604356 -0.000000
v 0.489198 0.581139 -0.000000
v 0.499503 0.557115 -0.000000
v 0.507933 0.532284 -0.000000
v 0.514488 0.506652 -0.000000
v 0.519171 0.480213 -0.000000
v 0.521982 0.452970 -0.000000
v 0.522918 0.424920 -0.000000
v 0.522537 0.408369 -0.000000
v 0.521397 0.392079 -0.000000
v 0.519495 0.376053 -0.000000
v 0.516831 0.360291 -0.000000
v 0.513405 0.344793 -0.000000
v 0.509220 0.329556 -0.000000
v 0.504273 0.314586 -0.000000
v 0.498567 0.299877 -0.000000
v 0.492096 0.285432 -0.000000
v 0.484866 0.271251 -0.000000
v 0.476877 0.257331 -0.000000
v 0.468123 0.243678 -0.000000
v 0.458604 0.230295 -0.000000
v 0.448308 0.217188 -0.000000
v 0.437238 0.204360 -0.000000
v 0.425388 0.191811 -0.000000
v 0.412767 0.179538 -0.000000
v 0.399369 0.167544 -0.000000
v 0.385194 0.155829 -0.000000
v 0.370245 0.144393 -0.000000
v 0.354519 0.133233 -0.000000
v 0.338016 0.122352 -0.000000
v 0.320739 0.111747 -0.000000
v 0.302688 0.101424 -0.000000
v 0.317322 0.097683 -0.000000
v 0.331371 0.093843 -0.000000
v 0.344838 0.089898 -0.000000
v 0.357717 0.085851 -0.000000
v 0.370008 0.081702 -0.000000
v 0.381717 0.077451 -0.000000
v 0.392841 0.073095 -0.000000
v 0.403377 0.068640 -0.000000
v 0.413331 0.064080 -0.000000
v 0.422697 0.059418 -0.000000
v 0.431478 0.054657 -0.000000
v 0.439674 0.049788 -0.000000
v 0.452256 0.041679 -0.000000
v 0.464364 0.033150 -0.000000
v 0.475995 0.024204 -0.000000
v 0.487149 0.014841 -0.000000
v 0.497829 0.005061 -0.000000
v 0.508035 -0.005136 0.000000
v 0.517764 -0.015750 0.000000
v 0.527016 -0.026784 0.000000
v 0.535794 -0.038232 0.000000
v 0.544095 -0.050097 0.000000
v 0.551922 -0.062379 0.000000
v 0.559272 -0.075078 0.000000
v 0.566088 -0.088197 0.000000
v 0.572313 -0.101730 0.000000
v 0.577944 -0.115680 0.000000
v 0.582981 -0.130050 0.000000
v 0.587427 -0.144834 0.000000
v 0.591279 -0.160038 0.000000
v 0.594540 -0.175656 0.000000
v 0.597207 -0.191694 0.000000
v 0.599283 -0.208146 0.000000
v 0.600765 -0.225018 0.000000
v 0.601653 -0.242307 0.000000
v 0.601950 -0.260010 0.000000
v 0.601458 -0.282414 0.000000
v 0.599988 -0.304662 0.000000
v 0.597537 -0.326757 0.000000
v 0.594105 -0.348699 0.000000
v 0.589692 -0.370488 0.000000
v 0.584298 -0.392124 0.000000
v 0.577926 -0.413604 0.000000
v 0.570570 -0.434931 0.000000
v 0.562236 -0.456105 0.000000
v 0.552921 -0.477126 0.000000
v 0.542625 -0.497991 0.000000
v 0.531348 -0.518703 0.000000
v 0.519150 -0.538944 0.000000
v 0.506088 -0.558396 0.000000
v 0.492162 -0.577056 0.000000
v 0.477375 -0.594924 0.000000
v 0.461721 -0.612003 0.000000
v 0.445206 -0.628293 0.000000
v 0.427827 -0.643791 0.000000
v 0.409584 -0.658500 0.000000
v 0.390477 -0.672417 0.000000
v 0.370506 -0.685545 0.000000
v 0.349674 -0.697884 0.000000
v 0.327978 -0.709431 0.000000
v 0.305271 -0.720117 0.000000
v 0.281406 -0.729876 0.000000
v 0.256389 -0.738705 0.000000
v 0.230214 -0.746604 0.000000
v 0.202881 -0.753576 0.000000
v 0.174393 -0.759615 0.000000
v 0.144750 -0.764727 0.000000
v 0.113949 -0.768909 0.000000
v 0.081993 -0.772161 0.000000
v 0.048882 -0.774486 0.000000
v 0.014613 -0.775878 0.000000
v -0.020811 -0.776343 0.000000
v -0.055317 -0.776001 0.000000
v -0.088587 -0.774969 0.000000
v -0.120621 -0.773247 0.000000
v -0.151416 -0.770841 0.000000
v -0.180975 -0.767745 0.000000
v -0.209298 -0.763962 0.000000
v -0.236385 -0.759492 0.000000
v -0.262236 -0.754332 0.000000
v -0.286848 -0.748485 0.000000
v -0.310224 -0.741951 0.000000
v -0.332364 -0.734727 0.000000
v -0.353268 -0.726819 0.000000
v -0.373251 -0.718245 0.000000
v -0.392637 -0.709035 0.000000
v -0.411420 -0.699189 0.000000
v -0.429603 -0.688707 0.000000
v -0.447189 -0.677589 0.000000
v -0.464172 -0.665832 0.000000
v -0.480558 -0.653439 0.000000
v -0.496341 -0.640410 0.000000
v -0.511524 -0.626745 0.000000
v -0.526110 -0.612444 0.000000
v -0.540093 -0.597504 0.000000
v -0.553476 -0.581928 0.000000
v -0.566310 -0.565695 0.000000
v -0.578634 -0.548778 0.000000
v -0.590457 -0.531183 0.000000
v -0.601773 -0.512907 0.000000
v -0.612585 -0.493953 0.000000
v -0.622893 -0.474315 0.000000
v -0.632694 -0.453999 0.000000
v -0.641991 -0.432999 0.000000
v -0.650784 -0.411321 0.000000
v -0.659070 -0.388962 0.000000
v -0.666852 -0.365922 0.000000
v -0.674130 -0.342201 0.000000
v -0.245259 -0.285300 0.000000
v -0.240849 -0.306351 0.000000
v -0.236052 -0.326295 0.000000
v -0.230868 -0.345132 0.000000
v -0.225297 -0.362868 0.000000
v -0.219336 -0.379497 0.000000
v -0.212988 -0.395022 0.000000
v -0.206250 -0.409440 0.000000
v -0.199128 -0.422754 0.000000
v -0.191616 -0.434964 0.000000
v -0.183717 -0.446070 0.000000
v -0.175431 -0.456069 0.000000
v -0.166755 -0.464964 0.000000
v -0.157683 -0.472959 0.000000
v -0.148212 -0.480258 0.000000
v -0.138336 -0.486861 0.000000
v -0.128058 -0.492771 0.000000
v -0.117378 -0.497985 0.000000
v -0.106296 -0.502503 0.000000
v -0.094812 -0.506325 0.000000
v -0.082923 -0.509454 0.000000
v -0.070635 -0.511887 0.000000
v -0.057942 -0.513624 0.000000
v -0.044847 -0.514668 0.000000
v -0.031350 -0.515016 0.000000
v -0.017148 -0.514578 0.000000
v -0.003351 -0.513261 0.000000
v 0.010044 -0.511065 0.000000
v 0.023037 -0.507990 0.000000
v 0.035625 -0.504039 0.000000
v 0.047814 -0.499209 0.000000
v 0.059598 -0.493503 0.000000
v 0.070980 -0.486915 0.000000
v 0.081960 -0.479451 0.000000
v 0.092538 -0.471111 0.000000
v 0.102714 -0.461889 0.000000
v 0.112488 -0.451791 0.000000
v 0.121659 -0.440961 0.000000
v 0.130035 -0.429546 0.000000
v 0.137613 -0.417546 0.000000
v 0.144393 -0.404958 0.000000
v 0.150375 -0.391788 0.000000
v 0.155559 -0.378030 0.000000
v 0.159945 -0.363687 0.000000
v 0.163536 -0.348759 0.000000
v 0.166326 -0.333246 0.000000
v 0.168321 -0.317148 0.000000
v 0.169518 -0.300462 0.000000
v 0.169917 -0.283194 0.000000
v 0.169533 -0.265617 0.000000
v 0.168378 -0.248712 0.000000
v 0.166458 -0.232482 0.000000
v 0.163770 -0.216924 0.000000
v 0.160311 -0.202041 0.000000
v 0.156084 -0.187830 0.000000
v 0.151092 -0.174291 0.000000
v 0.145329 -0.161427 0.000000
v 0.138798 -0.149235 0.000000
v 0.131499 -0.137718 0.000000
v 0.123429 -0.126873 0.000000
v 0.114594 -0.116703 0.000000
v 0.105099 -0.107277 0.000000
v 0.095055 -0.098670 0.000000
v 0.084465 -0.090885 0.000000
v 0.073323 -0.083919 0.000000
v 0.061632 -0.077772 0.000000
v 0.049395 -0.072444 0.000000
v 0.036606 -0.067938 0.000000
v 0.023271 -0.064248 0.000000
v 0.009384 -0.061380 0.000000
v -0.005049 -0.059331 0.000000
v -0.020031 -0.058101 0.000000
v -0.035565 -0.057693 0.000000
v -0.044256 -0.057867 0.000000
v -0.053478 -0.058395 0.000000
v -0.063225 -0.059274 0.000000
v -0.073497 -0.060501 0.000000
v -0.084300 -0.062082 0.000000
v -0.095628 -0.064014 0.000000
v -0.107481 -0.066297 0.000000
v -0.119862 -0.068931 0.000000
v -0.132771 -0.071919 0.000000
v -0.146205 -0.075255 0.000000
v -0.160170 -0.078942 0.000000
v -0.174657 -0.082983 0.000000
v -0.152529 0.223656 -0.000000
v -0.146667 0.222816 -0.000000
v -0.141027 0.222048 -0.000000
v -0.135603 0.221352 -0.000000
v -0.130401 0.220731 -0.000000
v -0.125418 0.220182 -0.000000
v -0.120654 0.219705 -0.000000
v -0.116109 0.219303 -0.000000
v -0.111783 0.218973 -0.000000
v -0.107679 0.218718 -0.000000
v -0.103794 0.218535 -0.000000
v -0.100128 0.218424 -0.000000
v -0.096681 0.218388 -0.000000
v -0.082824 0.218760 -0.000000
v -0.069357 0.219882 -0.000000
v -0.056277 0.221748 -0.000000
v -0.043584 0.224358 -0.000000
v -0.031278 0.227718 -0.000000
v -0.019362 0.231822 -0.000000
v -0.007833 0.236676 -0.000000
v 0.003309 0.242274 -0.000000
v 0.014061 0.248616 -0.000000
v 0.024426 0.255708 -0.000000
v 0.034404 0.263544 -0.000000
v 0.043995 0.272130 -0.000000
v 0.052998 0.281223 -0.000000
v 0.061218 0.290598 -0.000000
v 0.068658 0.300249 -0.000000
v 0.075312 0.310179 -0.000000
v 0.081186 0.320388 -0.000000
v 0.086274 0.330876 -0.000000
v 0.090582 0.341640 -0.000000
v 0.094104 0.352680 -0.000000
v 0.096846 0.364002 -0.000000
v 0.098802 0.375600 -0.000000
v 0.099978 0.387477 -0.000000
v 0.100368 0.399630 -0.000000
v 0.100077 0.411201 -0.000000
v 0.099198 0.422373 -0.000000
v 0.097734 0.433152 -0.000000
v 0.095685 0.443538 -0.000000
v 0.093051 0.453525 -0.000000
v 0.089832 0.463119 -0.000000
v 0.086025 0.472317 -0.000000
v 0.081636 0.481119 -0.000000
v 0.076659 0.489528 -0.000000
v 0.071097 0.497541 -0.000000
v 0.064950 0.505158 -0.000000
v 0.058218 0.512382 -0.000000
v 0.050976 0.519114 -0.000000
v 0.043290 0.525261 -0.000000
v 0.035169 0.530823 -0.000000
v 0.026607 0.535797 -0.000000
v 0.017607 0.540189 -0.000000
v 0.008166 0.543993 -0.000000
v -0.001713 0.547212 -0.000000
v -0.012030 0.549849 -0.000000
v -0.022788 0.551898 -0.000000
v -0.033984 0.553359 -0.000000
v -0.045618 0.554238 -0.000000
v -0.057693 0.554532 -0.000000
v -0.070140 0.554214 -0.000000
v -0.082191 0.553257 -0.000000
v -0.093849 0.551667 -0.000000
v -0.105111 0.549438 -0.000000
v -0.115977 0.546573 -0.000000
v -0.126450 0.543072 -0.000000
v -0.136524 0.538935 -0.000000
v -0.146208 0.534159 -0.000000
v -0.155493 0.528747 -0.000000
v -0.164385 0.522699 -0.000000
v -0.172878 0.516015 -0.000000
v -0.180981 0.508692 -0.000000
v -0.188670 0.500574 -0.000000
v -0.195936 0.491496 -0.000000
v -0.202779 0.481461 -0.000000
v -0.209196 0.470466 -0.000000
v -0.215190 0.458514 -0.000000
v -0.220758 0.445602 -0.000000
v -0.225903 0.431730 -0.000000
v -0.230622 0.416901 -0.000000
v -0.234918 0.401112 -0.000000
v -0.238788 0.384366 -0.000000
v -0.242235 0.366663 -0.000000
vn -0.0000 -0.0000 -1.0000
vt 0.341964 0.998286
vt 0.368905 0.999554
vt 0.399734 1.000000
vt 0.316088 0.996153
vt 0.429136 0.999422
vt 0.291280 0.993153
vt 0.457111 0.997820
vt 0.267539 0.989286
vt 0.483659 0.995194
vt 0.244864 0.984555
vt 0.508782 0.991543
vt 0.223256 0.978959
vt 0.532478 0.986868
vt 0.202715 0.972495
vt 0.554747 0.981169
vt 0.183240 0.965165
vt 0.575591 0.974446
vt 0.164833 0.956971
vt 0.595008 0.966699
vt 0.147491 0.947909
vt 0.612999 0.957929
vt 0.131217 0.937982
vt 0.629564 0.948134
vt 0.116009 0.927189
vt 0.644701 0.937314
vt 0.101752 0.915581
vt 0.658547 0.925712
vt 0.088330 0.903211
vt 0.671235 0.913570
vt 0.075743 0.890077
vt 0.682769 0.900891
vt 0.063989 0.876180
vt 0.693143 0.887671
vt 0.053070 0.861520
vt 0.702362 0.873911
vt 0.042984 0.846099
vt 0.710422 0.859614
vt 0.033735 0.829913
vt 0.717327 0.844777
vt 0.025319 0.812964
vt 0.360916 0.832130
vt 0.368699 0.832566
vt 0.376260 0.832611
vt 0.723075 0.829398
vt 0.383557 0.832282
vt 0.353393 0.831302
vt 0.390591 0.831581
vt 0.346128 0.830085
vt 0.397362 0.830503
vt 0.339123 0.828476
vt 0.403869 0.829049
vt 0.332377 0.826477
vt 0.410112 0.827223
vt 0.325890 0.824087
vt 0.416092 0.825022
vt 0.319665 0.821307
vt 0.421807 0.822445
vt 0.017738 0.795253
vt 0.313696 0.818134
vt 0.427260 0.819495
vt 0.307988 0.814570
vt 0.727664 0.813483
vt 0.432448 0.816169
vt 0.302539 0.810617
vt 0.437374 0.812468
vt 0.297351 0.806273
vt 0.442034 0.808393
vt 0.292420 0.801536
vt 0.446384 0.804001
vt 0.010991 0.776778
vt 0.287763 0.796310
vt 0.731097 0.797027
vt 0.450375 0.799351
vt 0.283389 0.790491
vt 0.454008 0.794443
vt 0.279297 0.784081
vt 0.457283 0.789275
vt 0.005078 0.757541
vt 0.275491 0.777079
vt 0.460197 0.783850
vt 0.733374 0.780033
vt 0.462754 0.778167
vt 0.271967 0.769486
vt 0.464951 0.772224
vt 0.268728 0.761300
vt 0.466789 0.766025
vt 0.734493 0.762498
vt -0.000000 0.737540
vt 0.265772 0.752521
vt 0.468268 0.759565
vt 0.469390 0.752847
vt 0.263101 0.743152
vt 0.734570 0.752133
vt 0.470152 0.745873
vt 0.255252 0.699755
vt 0.256790 0.711493
vt 0.258610 0.722637
vt 0.260713 0.733190
vt 0.470554 0.738638
vt 0.734166 0.741918
vt 0.470541 0.731025
vt 0.733281 0.731853
vt 0.470031 0.723571
vt 0.731913 0.721939
vt 0.469028 0.716276
vt 0.467527 0.709139
vt 0.730064 0.712176
vt 0.465533 0.702163
vt 0.727735 0.702561
vt 0.463042 0.695345
vt 0.460057 0.688685
vt 0.724924 0.693099
vt 0.456576 0.682185
vt 0.721633 0.683786
vt 0.452601 0.675845
vt 0.448128 0.669664
vt 0.717858 0.674624
vt 0.443163 0.663641
vt 0.713603 0.665613
vt 0.437702 0.657780
vt 0.431863 0.652225
vt 0.708869 0.656750
vt 0.425768 0.647131
vt 0.703650 0.648040
vt 0.419417 0.642496
vt 0.412809 0.638323
vt 0.697948 0.639484
vt 0.405943 0.634608
vt 0.398821 0.631351
vt 0.391443 0.628557
vt 0.691754 0.631086
vt 0.383806 0.626220
vt 0.375912 0.624345
vt 0.307628 0.431402
vt 0.315644 0.623709
vt 0.319328 0.623295
vt 0.322872 0.622922
vt 0.326280 0.622589
vt 0.367763 0.622929
vt 0.329547 0.622300
vt 0.332676 0.622051
vt 0.335666 0.621843
vt 0.359357 0.621971
vt 0.338518 0.621678
vt 0.341231 0.621554
vt 0.343804 0.621472
vt 0.350693 0.621475
vt 0.346239 0.621431
vt 0.348535 0.621432
vt 0.685071 0.622848
vt 0.677894 0.614770
vt 0.670230 0.606850
vt 0.662074 0.599090
vt 0.653426 0.591489
vt 0.644289 0.584049
vt 0.634660 0.576766
vt 0.624540 0.569643
vt 0.613930 0.562679
vt 0.602831 0.555875
vt 0.612059 0.553813
vt 0.620924 0.551677
vt 0.629426 0.549464
vt 0.637562 0.547177
vt 0.645333 0.544814
vt 0.652741 0.542377
vt 0.316616 0.434207
vt 0.659784 0.539862
vt 0.325285 0.436779
vt 0.666462 0.537275
vt 0.672778 0.534610
vt 0.333628 0.439122
vt 0.678728 0.531871
vt 0.341650 0.441238
vt 0.684313 0.529059
vt 0.349347 0.443121
vt 0.689534 0.526168
vt 0.697562 0.521333
vt 0.356721 0.444775
vt 0.705301 0.516226
vt 0.363773 0.446200
vt 0.712750 0.510849
vt 0.370503 0.447394
vt 0.719908 0.505202
vt 0.376908 0.448358
vt 0.726777 0.499285
vt 0.733357 0.493098
vt 0.382991 0.449093
vt 0.739647 0.486641
vt 0.388751 0.449599
vt 0.745647 0.479912
vt 0.751357 0.472915
vt 0.394187 0.449873
vt 0.756778 0.465648
vt 0.761909 0.458111
vt 0.403915 0.449913
vt 0.413314 0.449428
vt 0.422385 0.448420
vt 0.431129 0.446890
vt 0.766750 0.450304
vt 0.439544 0.444834
vt 0.447633 0.442258
vt 0.455392 0.439156
vt 0.771265 0.442224
vt 0.462824 0.435532
vt 0.469929 0.431385
vt 0.775417 0.433874
vt 0.476704 0.426714
vt 0.483153 0.421519
vt 0.779206 0.425252
vt 0.489274 0.415801
vt 0.782632 0.416355
vt 0.494996 0.409605
vt 0.500252 0.402972
vt 0.785695 0.407188
vt 0.505039 0.395904
vt 0.788394 0.397747
vt 0.509358 0.388399
vt 0.790732 0.388036
vt 0.513209 0.380458
vt 0.516590 0.372081
vt 0.792706 0.378050
vt 0.519505 0.363268
vt 0.794318 0.367795
vt 0.521953 0.354021
vt 0.795566 0.357265
vt 0.523931 0.344336
vt 0.796450 0.346463
vt 0.525441 0.334216
vt 0.796973 0.335390
vt 0.526485 0.323660
vt 0.797091 0.321361
vt 0.527059 0.312668
vt 0.796594 0.307411
vt 0.527138 0.301854
vt 0.000000 0.259694
vt 0.267294 0.303456
vt 0.270454 0.290366
vt 0.526706 0.291390
vt 0.795480 0.293538
vt 0.273835 0.277977
vt 0.525764 0.281278
vt 0.277437 0.266288
vt 0.793750 0.279742
vt 0.524313 0.271518
vt 0.005005 0.244988
vt 0.281260 0.255295
vt 0.791403 0.266023
vt 0.522350 0.262108
vt 0.285307 0.245003
vt 0.519878 0.253049
vt 0.010313 0.230718
vt 0.788439 0.252381
vt 0.516895 0.244341
vt 0.289574 0.235408
vt 0.015924 0.216884
vt 0.513402 0.235986
vt 0.784860 0.238819
vt 0.294065 0.226514
vt 0.509399 0.227980
vt 0.298775 0.218318
vt 0.021838 0.203486
vt 0.780662 0.225333
vt 0.504885 0.220326
vt 0.303708 0.210820
vt 0.499861 0.213024
vt 0.028055 0.190522
vt 0.775850 0.211924
vt 0.308862 0.204020
vt 0.494328 0.206072
vt 0.314237 0.197921
vt 0.488403 0.199567
vt 0.034575 0.177995
vt 0.319836 0.192519
vt 0.770420 0.198593
vt 0.482211 0.193603
vt 0.325665 0.187689
vt 0.475750 0.188183
vt 0.331730 0.183301
vt 0.041399 0.165902
vt 0.764374 0.185340
vt 0.469021 0.183303
vt 0.338036 0.179357
vt 0.344580 0.175854
vt 0.462024 0.178964
vt 0.351362 0.172795
vt 0.454758 0.175170
vt 0.048525 0.154246
vt 0.358383 0.170178
vt 0.757711 0.172165
vt 0.447222 0.171915
vt 0.365642 0.168005
vt 0.439420 0.169204
vt 0.373141 0.166273
vt 0.431348 0.167032
vt 0.380877 0.164984
vt 0.423008 0.165404
vt 0.388853 0.164138
vt 0.055954 0.143025
vt 0.414399 0.164317
vt 0.397067 0.163734
vt 0.405520 0.163773
vt 0.750463 0.159267
vt 0.063687 0.132239
vt 0.742659 0.146846
vt 0.071720 0.121888
vt 0.734299 0.134904
vt 0.080060 0.111973
vt 0.725385 0.123442
vt 0.088731 0.102481
vt 0.715914 0.112456
vt 0.097765 0.093398
vt 0.705889 0.101949
vt 0.107165 0.084726
vt 0.116926 0.076463
vt 0.695309 0.091920
vt 0.127050 0.068610
vt 0.684173 0.082369
vt 0.137540 0.061167
vt 0.672481 0.073296
vt 0.148391 0.054132
vt 0.660233 0.064702
vt 0.159607 0.047509
vt 0.647431 0.056584
vt 0.171185 0.041296
vt 0.634074 0.048946
vt 0.183126 0.035492
vt 0.195432 0.030097
vt 0.620068 0.041827
vt 0.208100 0.025111
vt 0.605319 0.035266
vt 0.221331 0.020560
vt 0.589832 0.029266
vt 0.235323 0.016461
vt 0.573603 0.023825
vt 0.250076 0.012816
vt 0.556631 0.018942
vt 0.265588 0.009625
vt 0.538919 0.014622
vt 0.281863 0.006888
vt 0.298899 0.004606
vt 0.520467 0.010859
vt 0.316694 0.002777
vt 0.501272 0.007656
vt 0.335250 0.001402
vt 0.481336 0.005014
vt 0.354567 0.000482
vt 0.460661 0.002929
vt 0.374645 0.000013
vt 0.439242 0.001407
vt 0.395485 -0.000000
vt 0.417084 0.000442
s 1
usemtl マテリアル.005
f 25/1/1 26/2/1 27/3/1
f 24/4/1 25/1/1 27/3/1
f 24/4/1 27/3/1 28/5/1
f 23/6/1 24/4/1 28/5/1
f 23/6/1 28/5/1 29/7/1
f 22/8/1 23/6/1 29/7/1
f 22/8/1 29/7/1 30/9/1
f 21/10/1 22/8/1 30/9/1
f 21/10/1 30/9/1 31/11/1
f 20/12/1 21/10/1 31/11/1
f 20/12/1 31/11/1 32/13/1
f 19/14/1 20/12/1 32/13/1
f 19/14/1 32/13/1 33/15/1
f 18/16/1 19/14/1 33/15/1
f 18/16/1 33/15/1 34/17/1
f 17/18/1 18/16/1 34/17/1
f 17/18/1 34/17/1 35/19/1
f 16/20/1 17/18/1 35/19/1
f 16/20/1 35/19/1 36/21/1
f 15/22/1 16/20/1 36/21/1
f 15/22/1 36/21/1 37/23/1
f 14/24/1 15/22/1 37/23/1
f 14/24/1 37/23/1 38/25/1
f 13/26/1 14/24/1 38/25/1
f 13/26/1 38/25/1 39/27/1
f 12/28/1 13/26/1 39/27/1
f 12/28/1 39/27/1 40/29/1
f 11/30/1 12/28/1 40/29/1
f 11/30/1 40/29/1 41/31/1
f 10/32/1 11/30/1 41/31/1
f 10/32/1 41/31/1 42/33/1
f 9/34/1 10/32/1 42/33/1
f 9/34/1 42/33/1 43/35/1
f 8/36/1 9/34/1 43/35/1
f 8/36/1 43/35/1 44/37/1
f 7/38/1 8/36/1 44/37/1
f 7/38/1 44/37/1 45/39/1
f 6/40/1 7/38/1 329/41/1
f 329/41/1 7/38/1 328/42/1
f 328/42/1 7/38/1 45/39/1
f 328/42/1 45/39/1 327/43/1
f 327/43/1 45/39/1 46/44/1
f 326/45/1 327/43/1 46/44/1
f 6/40/1 329/41/1 330/46/1
f 325/47/1 326/45/1 46/44/1
f 6/40/1 330/46/1 331/48/1
f 324/49/1 325/47/1 46/44/1
f 6/40/1 331/48/1 332/50/1
f 323/51/1 324/49/1 46/44/1
f 6/40/1 332/50/1 333/52/1
f 322/53/1 323/51/1 46/44/1
f 6/40/1 333/52/1 334/54/1
f 321/55/1 322/53/1 46/44/1
f 6/40/1 334/54/1 335/56/1
f 320/57/1 321/55/1 46/44/1
f 5/58/1 6/40/1 335/56/1
f 5/58/1 335/56/1 336/59/1
f 319/60/1 320/57/1 46/44/1
f 5/58/1 336/59/1 337/61/1
f 319/60/1 46/44/1 47/62/1
f 318/63/1 319/60/1 47/62/1
f 5/58/1 337/61/1 338/64/1
f 317/65/1 318/63/1 47/62/1
f 5/58/1 338/64/1 339/66/1
f 316/67/1 317/65/1 47/62/1
f 5/58/1 339/66/1 340/68/1
f 315/69/1 316/67/1 47/62/1
f 4/70/1 5/58/1 340/68/1
f 4/70/1 340/68/1 341/71/1
f 315/69/1 47/62/1 48/72/1
f 314/73/1 315/69/1 48/72/1
f 4/70/1 341/71/1 342/74/1
f 313/75/1 314/73/1 48/72/1
f 4/70/1 342/74/1 343/76/1
f 312/77/1 313/75/1 48/72/1
f 3/78/1 4/70/1 343/76/1
f 3/78/1 343/76/1 344/79/1
f 311/80/1 312/77/1 48/72/1
f 311/80/1 48/72/1 49/81/1
f 310/82/1 311/80/1 49/81/1
f 3/78/1 344/79/1 345/83/1
f 309/84/1 310/82/1 49/81/1
f 3/78/1 345/83/1 346/85/1
f 308/86/1 309/84/1 49/81/1
f 308/86/1 49/81/1 50/87/1
f 2/88/1 3/78/1 346/85/1
f 2/88/1 346/85/1 347/89/1
f 307/90/1 308/86/1 50/87/1
f 306/91/1 307/90/1 50/87/1
f 2/88/1 347/89/1 348/92/1
f 306/91/1 50/87/1 51/93/1
f 305/94/1 306/91/1 51/93/1
f 1/95/1 2/88/1 351/96/1
f 351/96/1 2/88/1 350/97/1
f 350/97/1 2/88/1 349/98/1
f 349/98/1 2/88/1 348/92/1
f 304/99/1 305/94/1 51/93/1
f 304/99/1 51/93/1 52/100/1
f 303/101/1 304/99/1 52/100/1
f 303/101/1 52/100/1 53/102/1
f 302/103/1 303/101/1 53/102/1
f 302/103/1 53/102/1 54/104/1
f 301/105/1 302/103/1 54/104/1
f 300/106/1 301/105/1 54/104/1
f 300/106/1 54/104/1 55/107/1
f 299/108/1 300/106/1 55/107/1
f 299/108/1 55/107/1 56/109/1
f 298/110/1 299/108/1 56/109/1
f 297/111/1 298/110/1 56/109/1
f 297/111/1 56/109/1 57/112/1
f 296/113/1 297/111/1 57/112/1
f 296/113/1 57/112/1 58/114/1
f 295/115/1 296/113/1 58/114/1
f 294/116/1 295/115/1 58/114/1
f 294/116/1 58/114/1 59/117/1
f 293/118/1 294/116/1 59/117/1
f 293/118/1 59/117/1 60/119/1
f 292/120/1 293/118/1 60/119/1
f 291/121/1 292/120/1 60/119/1
f 291/121/1 60/119/1 61/122/1
f 290/123/1 291/121/1 61/122/1
f 290/123/1 61/122/1 62/124/1
f 289/125/1 290/123/1 62/124/1
f 288/126/1 289/125/1 62/124/1
f 288/126/1 62/124/1 63/127/1
f 287/128/1 288/126/1 63/127/1
f 286/129/1 287/128/1 63/127/1
f 285/130/1 286/129/1 63/127/1
f 285/130/1 63/127/1 64/131/1
f 284/132/1 285/130/1 64/131/1
f 283/133/1 284/132/1 64/131/1
f 267/134/1 268/135/1 269/136/1
f 267/134/1 269/136/1 270/137/1
f 267/134/1 270/137/1 271/138/1
f 282/139/1 283/133/1 64/131/1
f 267/134/1 271/138/1 272/140/1
f 267/134/1 272/140/1 273/141/1
f 267/134/1 273/141/1 274/142/1
f 281/143/1 282/139/1 64/131/1
f 267/134/1 274/142/1 275/144/1
f 267/134/1 275/144/1 276/145/1
f 267/134/1 276/145/1 277/146/1
f 280/147/1 281/143/1 64/131/1
f 267/134/1 277/146/1 278/148/1
f 267/134/1 278/148/1 279/149/1
f 267/134/1 279/149/1 280/147/1
f 267/134/1 280/147/1 64/131/1
f 267/134/1 64/131/1 65/150/1
f 267/134/1 65/150/1 66/151/1
f 267/134/1 66/151/1 67/152/1
f 267/134/1 67/152/1 68/153/1
f 267/134/1 68/153/1 69/154/1
f 267/134/1 69/154/1 70/155/1
f 267/134/1 70/155/1 71/156/1
f 267/134/1 71/156/1 72/157/1
f 267/134/1 72/157/1 73/158/1
f 267/134/1 73/158/1 74/159/1
f 267/134/1 74/159/1 75/160/1
f 267/134/1 75/160/1 76/161/1
f 267/134/1 76/161/1 77/162/1
f 267/134/1 77/162/1 78/163/1
f 267/134/1 78/163/1 79/164/1
f 267/134/1 79/164/1 80/165/1
f 267/134/1 80/165/1 266/166/1
f 266/166/1 80/165/1 81/167/1
f 266/166/1 81/167/1 265/168/1
f 265/168/1 81/167/1 82/169/1
f 265/168/1 82/169/1 83/170/1
f 265/168/1 83/170/1 264/171/1
f 264/171/1 83/170/1 84/172/1
f 264/171/1 84/172/1 263/173/1
f 263/173/1 84/172/1 85/174/1
f 263/173/1 85/174/1 262/175/1
f 262/175/1 85/174/1 86/176/1
f 262/175/1 86/176/1 87/177/1
f 262/175/1 87/177/1 261/178/1
f 261/178/1 87/177/1 88/179/1
f 261/178/1 88/179/1 260/180/1
f 260/180/1 88/179/1 89/181/1
f 260/180/1 89/181/1 259/182/1
f 259/182/1 89/181/1 90/183/1
f 259/182/1 90/183/1 258/184/1
f 258/184/1 90/183/1 91/185/1
f 258/184/1 91/185/1 92/186/1
f 258/184/1 92/186/1 257/187/1
f 257/187/1 92/186/1 93/188/1
f 257/187/1 93/188/1 256/189/1
f 256/189/1 93/188/1 94/190/1
f 256/189/1 94/190/1 95/191/1
f 256/189/1 95/191/1 255/192/1
f 255/192/1 95/191/1 96/193/1
f 255/192/1 96/193/1 97/194/1
f 254/195/1 255/192/1 97/194/1
f 253/196/1 254/195/1 97/194/1
f 252/197/1 253/196/1 97/194/1
f 251/198/1 252/197/1 97/194/1
f 251/198/1 97/194/1 98/199/1
f 250/200/1 251/198/1 98/199/1
f 249/201/1 250/200/1 98/199/1
f 248/202/1 249/201/1 98/199/1
f 248/202/1 98/199/1 99/203/1
f 247/204/1 248/202/1 99/203/1
f 246/205/1 247/204/1 99/203/1
f 246/205/1 99/203/1 100/206/1
f 245/207/1 246/205/1 100/206/1
f 244/208/1 245/207/1 100/206/1
f 244/208/1 100/206/1 101/209/1
f 243/210/1 244/208/1 101/209/1
f 243/210/1 101/209/1 102/211/1
f 242/212/1 243/210/1 102/211/1
f 241/213/1 242/212/1 102/211/1
f 241/213/1 102/211/1 103/214/1
f 240/215/1 241/213/1 103/214/1
f 240/215/1 103/214/1 104/216/1
f 239/217/1 240/215/1 104/216/1
f 239/217/1 104/216/1 105/218/1
f 238/219/1 239/217/1 105/218/1
f 237/220/1 238/219/1 105/218/1
f 237/220/1 105/218/1 106/221/1
f 236/222/1 237/220/1 106/221/1
f 236/222/1 106/221/1 107/223/1
f 235/224/1 236/222/1 107/223/1
f 235/224/1 107/223/1 108/225/1
f 234/226/1 235/224/1 108/225/1
f 234/226/1 108/225/1 109/227/1
f 233/228/1 234/226/1 109/227/1
f 233/228/1 109/227/1 110/229/1
f 232/230/1 233/228/1 110/229/1
f 232/230/1 110/229/1 111/231/1
f 231/232/1 232/230/1 111/231/1
f 231/232/1 111/231/1 112/233/1
f 230/234/1 231/232/1 112/233/1
f 182/235/1 183/236/1 184/237/1
f 229/238/1 230/234/1 112/233/1
f 229/238/1 112/233/1 113/239/1
f 182/235/1 184/237/1 185/240/1
f 228/241/1 229/238/1 113/239/1
f 182/235/1 185/240/1 186/242/1
f 228/241/1 113/239/1 114/243/1
f 227/244/1 228/241/1 114/243/1
f 181/245/1 182/235/1 186/242/1
f 181/245/1 186/242/1 187/246/1
f 227/244/1 114/243/1 115/247/1
f 226/248/1 227/244/1 115/247/1
f 181/245/1 187/246/1 188/249/1
f 225/250/1 226/248/1 115/247/1
f 180/251/1 181/245/1 188/249/1
f 225/250/1 115/247/1 116/252/1
f 224/253/1 225/250/1 116/252/1
f 180/251/1 188/249/1 189/254/1
f 179/255/1 180/251/1 189/254/1
f 223/256/1 224/253/1 116/252/1
f 223/256/1 116/252/1 117/257/1
f 179/255/1 189/254/1 190/258/1
f 222/259/1 223/256/1 117/257/1
f 179/255/1 190/258/1 191/260/1
f 178/261/1 179/255/1 191/260/1
f 222/259/1 117/257/1 118/262/1
f 221/263/1 222/259/1 118/262/1
f 178/261/1 191/260/1 192/264/1
f 220/265/1 221/263/1 118/262/1
f 177/266/1 178/261/1 192/264/1
f 220/265/1 118/262/1 119/267/1
f 177/266/1 192/264/1 193/268/1
f 219/269/1 220/265/1 119/267/1
f 177/266/1 193/268/1 194/270/1
f 218/271/1 219/269/1 119/267/1
f 176/272/1 177/266/1 194/270/1
f 176/272/1 194/270/1 195/273/1
f 218/271/1 119/267/1 120/274/1
f 217/275/1 218/271/1 120/274/1
f 176/272/1 195/273/1 196/276/1
f 216/277/1 217/275/1 120/274/1
f 176/272/1 196/276/1 197/278/1
f 175/279/1 176/272/1 197/278/1
f 216/277/1 120/274/1 121/280/1
f 215/281/1 216/277/1 121/280/1
f 175/279/1 197/278/1 198/282/1
f 175/279/1 198/282/1 199/283/1
f 214/284/1 215/281/1 121/280/1
f 175/279/1 199/283/1 200/285/1
f 213/286/1 214/284/1 121/280/1
f 174/287/1 175/279/1 200/285/1
f 174/287/1 200/285/1 201/288/1
f 213/286/1 121/280/1 122/289/1
f 212/290/1 213/286/1 122/289/1
f 174/287/1 201/288/1 202/291/1
f 211/292/1 212/290/1 122/289/1
f 174/287/1 202/291/1 203/293/1
f 210/294/1 211/292/1 122/289/1
f 174/287/1 203/293/1 204/295/1
f 209/296/1 210/294/1 122/289/1
f 174/287/1 204/295/1 205/297/1
f 173/298/1 174/287/1 205/297/1
f 208/299/1 209/296/1 122/289/1
f 173/298/1 205/297/1 206/300/1
f 207/301/1 208/299/1 122/289/1
f 173/298/1 206/300/1 207/301/1
f 173/298/1 207/301/1 122/289/1
f 173/298/1 122/289/1 123/302/1
f 172/303/1 173/298/1 123/302/1
f 172/303/1 123/302/1 124/304/1
f 171/305/1 172/303/1 124/304/1
f 171/305/1 124/304/1 125/306/1
f 170/307/1 171/305/1 125/306/1
f 170/307/1 125/306/1 126/308/1
f 169/309/1 170/307/1 126/308/1
f 169/309/1 126/308/1 127/310/1
f 168/311/1 169/309/1 127/310/1
f 168/311/1 127/310/1 128/312/1
f 167/313/1 168/311/1 128/312/1
f 166/314/1 167/313/1 128/312/1
f 166/314/1 128/312/1 129/315/1
f 165/316/1 166/314/1 129/315/1
f 165/316/1 129/315/1 130/317/1
f 164/318/1 165/316/1 130/317/1
f 164/318/1 130/317/1 131/319/1
f 163/320/1 164/318/1 131/319/1
f 163/320/1 131/319/1 132/321/1
f 162/322/1 163/320/1 132/321/1
f 162/322/1 132/321/1 133/323/1
f 161/324/1 162/322/1 133/323/1
f 161/324/1 133/323/1 134/325/1
f 160/326/1 161/324/1 134/325/1
f 159/327/1 160/326/1 134/325/1
f 159/327/1 134/325/1 135/328/1
f 158/329/1 159/327/1 135/328/1
f 158/329/1 135/328/1 136/330/1
f 157/331/1 158/329/1 136/330/1
f 157/331/1 136/330/1 137/332/1
f 156/333/1 157/331/1 137/332/1
f 156/333/1 137/332/1 138/334/1
f 155/335/1 156/333/1 138/334/1
f 155/335/1 138/334/1 139/336/1
f 154/337/1 155/335/1 139/336/1
f 154/337/1 139/336/1 140/338/1
f 153/339/1 154/337/1 140/338/1
f 152/340/1 153/339/1 140/338/1
f 152/340/1 140/338/1 141/341/1
f 151/342/1 152/340/1 141/341/1
f 151/342/1 141/341/1 142/343/1
f 150/344/1 151/342/1 142/343/1
f 150/344/1 142/343/1 143/345/1
f 149/346/1 150/344/1 143/345/1
f 149/346/1 143/345/1 144/347/1
f 148/348/1 149/346/1 144/347/1
f 148/348/1 144/347/1 145/349/1
f 147/350/1 148/348/1 145/349/1
f 147/350/1 145/349/1 146/351/1
