# Blender 4.4.1
# www.blender.org
mtllib 4.mtl
o テキスト.002
v 0.076134 -0.461274 0.000000
v -0.705744 -0.461274 0.000000
v -0.705744 -0.108273 0.000000
v 0.076134 0.821127 -0.000000
v 0.450210 0.821127 -0.000000
v 0.450210 -0.128292 0.000000
v 0.644100 -0.128292 0.000000
v 0.644100 -0.461274 0.000000
v 0.450210 -0.461274 0.000000
v 0.450210 -0.750000 0.000000
v 0.076134 -0.750000 0.000000
v 0.076134 -0.128292 0.000000
v 0.076134 0.357483 -0.000000
v -0.336933 -0.128292 0.000000
vn -0.0000 -0.0000 -1.0000
vn -0.0000 1.0000 -0.0000
vn -0.0000 -1.0000 -0.0000
vt 0.224680 0.859156
vt 0.816230 0.361502
vt 0.816230 0.123408
vt 0.521127 0.361502
vt 0.211938 0.123408
vt 0.211938 0.624414
vt 0.211938 0.361502
vt -0.000000 0.859156
vt 0.211938 0.000000
vt 0.000000 0.000000
vt 0.816230 0.238094
vt 1.000000 0.238094
vt 1.000000 0.000000
vt 0.816230 0.000000
s 1
usemtl マテリアル.009
f 3/1/1 4/2/1 5/3/1
f 3/1/1 5/3/1 13/4/1
f 13/4/1 5/3/1 6/5/1
f 3/1/1 13/4/1 14/6/1
f 12/7/1 13/4/1 6/5/1
f 2/8/1 3/1/1 14/6/1
f 2/8/1 14/6/1 12/7/1
f 2/8/1 12/7/1 6/5/1
f 2/8/1 6/5/1 7/9/1
f 2/8/1 7/9/1 8/10/1
s 0
f 1/11/2 2/11/2 8/11/2
s 1
f 11/11/1 1/12/1 9/13/1
s 0
f 9/11/3 1/11/3 8/11/3
s 1
f 11/11/1 9/13/1 10/14/1
