# Blender 4.4.1
# www.blender.org
mtllib 5.mtl
o テキスト
v -0.487620 0.794784 0.000000
v 0.531348 0.794784 0.000000
v 0.531348 0.452319 0.000000
v -0.158850 0.452319 0.000000
v -0.195732 0.220494 0.000000
v -0.183801 0.225999 0.000000
v -0.171891 0.231267 0.000000
v -0.160005 0.236301 0.000000
v -0.148137 0.241101 0.000000
v -0.136296 0.245667 0.000000
v -0.124473 0.249999 0.000000
v -0.112674 0.254097 0.000000
v -0.100896 0.257961 0.000000
v -0.089139 0.261591 0.000000
v -0.077406 0.264987 0.000000
v -0.065694 0.268149 0.000000
v -0.054003 0.271074 0.000000
v -0.042336 0.273768 0.000000
v -0.030690 0.276225 0.000000
v -0.019065 0.278451 0.000000
v -0.007464 0.280440 0.000000
v 0.004116 0.282198 0.000000
v 0.015675 0.283719 0.000000
v 0.027210 0.285009 0.000000
v 0.038724 0.286062 0.000000
v 0.050217 0.286881 0.000000
v 0.061689 0.287466 0.000000
v 0.073137 0.287817 0.000000
v 0.084564 0.287934 0.000000
v 0.122592 0.286962 0.000000
v 0.159408 0.284043 0.000000
v 0.195009 0.279174 0.000000
v 0.229395 0.272364 0.000000
v 0.262563 0.263604 0.000000
v 0.294522 0.252897 0.000000
v 0.325263 0.240246 0.000000
v 0.354789 0.225648 0.000000
v 0.383100 0.209103 0.000000
v 0.410199 0.190611 0.000000
v 0.436080 0.170172 0.000000
v 0.460749 0.147786 0.000000
v 0.483807 0.123924 0.000000
v 0.504858 0.099051 0.000000
v 0.523908 0.073170 0.000000
v 0.540948 0.046278 0.000000
v 0.555987 0.018375 0.000000
v 0.569019 -0.010536 0.000000
v 0.580047 -0.040458 0.000000
v 0.589071 -0.071391 0.000000
v 0.596088 -0.103332 0.000000
v 0.601101 -0.136284 0.000000
v 0.604107 -0.170244 0.000000
v 0.605112 -0.205215 0.000000
v 0.604596 -0.230073 0.000000
v 0.603048 -0.254772 0.000000
v 0.600468 -0.279306 0.000000
v 0.596856 -0.303681 0.000000
v 0.592212 -0.327897 0.000000
v 0.586539 -0.351948 0.000000
v 0.579831 -0.375843 0.000000
v 0.572094 -0.399573 0.000000
v 0.563322 -0.423144 0.000000
v 0.553521 -0.446553 0.000000
v 0.542688 -0.469800 0.000000
v 0.530823 -0.492888 0.000000
v 0.518010 -0.515439 0.000000
v 0.504333 -0.537087 0.000000
v 0.489792 -0.557823 0.000000
v 0.474387 -0.577656 0.000000
v 0.458121 -0.596577 0.000000
v 0.440991 -0.614595 0.000000
v 0.422997 -0.631704 0.000000
v 0.404139 -0.647904 0.000000
v 0.384417 -0.663198 0.000000
v 0.363834 -0.677586 0.000000
v 0.342384 -0.691065 0.000000
v 0.320073 -0.703635 0.000000
v 0.296799 -0.715248 0.000000
v 0.272466 -0.725853 0.000000
v 0.247068 -0.735444 0.000000
v 0.220611 -0.744030 0.000000
v 0.193095 -0.751602 -0.000000
v 0.164514 -0.758166 -0.000000
v 0.134874 -0.763722 -0.000000
v 0.104175 -0.768264 -0.000000
v 0.072411 -0.771798 -0.000000
v 0.039588 -0.774324 -0.000000
v 0.005703 -0.775839 -0.000000
v -0.029241 -0.776343 -0.000000
v -0.054402 -0.776142 -0.000000
v -0.078957 -0.775539 -0.000000
v -0.102903 -0.774531 -0.000000
v -0.126243 -0.773124 -0.000000
v -0.148977 -0.771312 -0.000000
v -0.171102 -0.769098 -0.000000
v -0.192618 -0.766482 -0.000000
v -0.213528 -0.763464 -0.000000
v -0.233832 -0.760044 -0.000000
v -0.253527 -0.756219 -0.000000
v -0.272616 -0.751995 -0.000000
v -0.291096 -0.747366 0.000000
v -0.309045 -0.742338 0.000000
v -0.326544 -0.736917 0.000000
v -0.343584 -0.731100 0.000000
v -0.360174 -0.724887 0.000000
v -0.376311 -0.718278 0.000000
v -0.391992 -0.711276 0.000000
v -0.407220 -0.703878 0.000000
v -0.421995 -0.696084 0.000000
v -0.436314 -0.687894 0.000000
v -0.450180 -0.679311 0.000000
v -0.463596 -0.670332 0.000000
v -0.476553 -0.660960 0.000000
v -0.489087 -0.651282 0.000000
v -0.501216 -0.641391 0.000000
v -0.512940 -0.631290 0.000000
v -0.524265 -0.620976 0.000000
v -0.535188 -0.610449 0.000000
v -0.545706 -0.599709 0.000000
v -0.555822 -0.588759 0.000000
v -0.565536 -0.577596 0.000000
v -0.574848 -0.566220 0.000000
v -0.583758 -0.554634 0.000000
v -0.592266 -0.542835 0.000000
v -0.600369 -0.530823 0.000000
v -0.608163 -0.518454 0.000000
v -0.615735 -0.505590 0.000000
v -0.623091 -0.492228 0.000000
v -0.630225 -0.478368 0.000000
v -0.637140 -0.464013 0.000000
v -0.643836 -0.449157 0.000000
v -0.650313 -0.433806 0.000000
v -0.656568 -0.417954 0.000000
v -0.662604 -0.401607 0.000000
v -0.668424 -0.384762 0.000000
v -0.674022 -0.367419 0.000000
v -0.679398 -0.349578 0.000000
v -0.245259 -0.302160 0.000000
v -0.242331 -0.319200 0.000000
v -0.238818 -0.335544 0.000000
v -0.234720 -0.351192 0.000000
v -0.230037 -0.366147 0.000000
v -0.224769 -0.380403 0.000000
v -0.218916 -0.393966 0.000000
v -0.212475 -0.406836 0.000000
v -0.205449 -0.419007 0.000000
v -0.197841 -0.430485 0.000000
v -0.189645 -0.441270 0.000000
v -0.180864 -0.451356 0.000000
v -0.171495 -0.460749 0.000000
v -0.161682 -0.469416 0.000000
v -0.151563 -0.477330 0.000000
v -0.141135 -0.484491 0.000000
v -0.130401 -0.490896 0.000000
v -0.119358 -0.496551 0.000000
v -0.108009 -0.501450 0.000000
v -0.096351 -0.505593 0.000000
v -0.084387 -0.508986 0.000000
v -0.072114 -0.511623 0.000000
v -0.059535 -0.513507 0.000000
v -0.046650 -0.514638 0.000000
v -0.033456 -0.515016 0.000000
v -0.018744 -0.514545 0.000000
v -0.004464 -0.513129 0.000000
v 0.009384 -0.510768 0.000000
v 0.022803 -0.507465 0.000000
v 0.035787 -0.503217 0.000000
v 0.048339 -0.498024 0.000000
v 0.060462 -0.491889 0.000000
v 0.072153 -0.484809 0.000000
v 0.083409 -0.476784 0.000000
v 0.094236 -0.467817 0.000000
v 0.104631 -0.457905 0.000000
v 0.114594 -0.447051 0.000000
v 0.123936 -0.435258 0.000000
v 0.132465 -0.422535 0.000000
v 0.140181 -0.408885 0.000000
v 0.147084 -0.394305 0.000000
v 0.153177 -0.378795 0.000000
v 0.158457 -0.362355 0.000000
v 0.162924 -0.344988 0.000000
v 0.166578 -0.326688 0.000000
v 0.169422 -0.307461 0.000000
v 0.171453 -0.287304 0.000000
v 0.172671 -0.266220 0.000000
v 0.173076 -0.244203 0.000000
v 0.172668 -0.221709 0.000000
v 0.171438 -0.200241 0.000000
v 0.169389 -0.179796 0.000000
v 0.166521 -0.160374 0.000000
v 0.162831 -0.141978 0.000000
v 0.158325 -0.124605 0.000000
v 0.152997 -0.108258 0.000000
v 0.146850 -0.092934 0.000000
v 0.139884 -0.078636 0.000000
v 0.132099 -0.065361 0.000000
v 0.123492 -0.053112 0.000000
v 0.114066 -0.041886 0.000000
v 0.103962 -0.031620 0.000000
v 0.093315 -0.022245 0.000000
v 0.082125 -0.013764 0.000000
v 0.070395 -0.006177 0.000000
v 0.058125 0.000519 0.000000
v 0.045312 0.006324 0.000000
v 0.031956 0.011232 0.000000
v 0.018060 0.015249 0.000000
v 0.003621 0.018375 0.000000
v -0.011358 0.020607 0.000000
v -0.026877 0.021945 0.000000
v -0.042939 0.022392 0.000000
v -0.053271 0.022179 0.000000
v -0.063546 0.021543 0.000000
v -0.073761 0.020481 0.000000
v -0.083919 0.018996 0.000000
v -0.094017 0.017088 0.000000
v -0.104058 0.014751 0.000000
v -0.114039 0.011994 0.000000
v -0.123960 0.008811 0.000000
v -0.133824 0.005202 0.000000
v -0.143631 0.001170 0.000000
v -0.153378 -0.003285 0.000000
v -0.163065 -0.008166 0.000000
v -0.170325 -0.012102 0.000000
v -0.177702 -0.016539 0.000000
v -0.185196 -0.021471 0.000000
v -0.192804 -0.026901 0.000000
v -0.200532 -0.032826 0.000000
v -0.208377 -0.039252 0.000000
v -0.216339 -0.046173 0.000000
v -0.224418 -0.053595 0.000000
v -0.232614 -0.061512 0.000000
v -0.240927 -0.069927 0.000000
v -0.249357 -0.078840 0.000000
v -0.257904 -0.088251 0.000000
v -0.623550 -0.035565 0.000000
vn -0.0000 -0.0000 -1.0000
vt 0.035546 0.471495
vt 0.122064 1.000000
vt 0.331321 0.782026
vt 0.770623 1.000000
vt 0.770623 0.782026
vt 0.307847 0.634473
vt 0.478978 0.677323
vt 0.486251 0.677397
vt 0.510455 0.676778
vt 0.471691 0.677099
vt 0.464390 0.676727
vt 0.533888 0.674921
vt 0.457075 0.676206
vt 0.449746 0.675535
vt 0.442404 0.674714
vt 0.556548 0.671822
vt 0.435047 0.673746
vt 0.427676 0.672627
vt 0.420293 0.671361
vt 0.578434 0.667487
vt 0.412893 0.669945
vt 0.405481 0.668381
vt 0.398055 0.666666
vt 0.599545 0.661911
vt 0.390614 0.664804
vt 0.383159 0.662792
vt 0.375692 0.660630
vt 0.619886 0.655097
vt 0.368208 0.658320
vt 0.360712 0.655860
vt 0.353202 0.653252
vt 0.639453 0.647044
vt 0.345677 0.650495
vt 0.338140 0.647589
vt 0.330586 0.644534
vt 0.658245 0.637753
vt 0.323021 0.641329
vt 0.315440 0.637976
vt 0.676265 0.627222
vt 0.693513 0.615452
vt 0.709986 0.602443
vt 0.725687 0.588195
vt 0.740363 0.573007
vt 0.753762 0.557176
vt 0.391981 0.507843
vt 0.765887 0.540703
vt 0.398521 0.508248
vt 0.776733 0.523587
vt 0.405097 0.508383
vt 0.786305 0.505827
vt 0.415320 0.508099
vt 0.425198 0.507247
vt 0.385479 0.507167
vt 0.434732 0.505827
vt 0.379014 0.506222
vt 0.372587 0.505008
vt 0.443922 0.503837
vt 0.794600 0.487425
vt 0.366196 0.503520
vt 0.452767 0.501280
vt 0.359843 0.501765
vt 0.353528 0.499739
vt 0.461268 0.498156
vt 0.347250 0.497442
vt 0.469423 0.494462
vt 0.341008 0.494876
vt 0.334804 0.492040
vt 0.477233 0.490200
vt 0.328639 0.488934
vt 0.484699 0.485371
vt 0.324018 0.486429
vt 0.801619 0.468380
vt 0.319322 0.483604
vt 0.491821 0.479973
vt 0.314553 0.480465
vt 0.309710 0.477009
vt 0.498598 0.474006
vt 0.304791 0.473238
vt 0.505029 0.467471
vt 0.299798 0.469148
vt 0.268275 0.437961
vt 0.273715 0.443951
vt 0.279081 0.449624
vt 0.284372 0.454980
vt 0.289588 0.460019
vt 0.294730 0.464743
vt 0.807363 0.448692
vt 0.511028 0.460326
vt 0.516506 0.452530
vt 0.521461 0.444081
vt 0.811829 0.428362
vt 0.525895 0.434980
vt 0.529808 0.425227
vt 0.815019 0.407388
vt 0.533199 0.414822
vt 0.536067 0.403764
vt 0.816933 0.385773
vt 0.538415 0.392055
vt 0.540241 0.379694
vt 0.817572 0.363515
vt 0.541545 0.366681
vt 0.542328 0.353017
vt 0.817244 0.347693
vt 0.542588 0.338700
vt 0.816259 0.331972
vt 0.542330 0.324686
vt 0.814617 0.316357
vt 0.541555 0.311266
vt 0.812318 0.300843
vt 0.540262 0.298437
vt 0.000000 0.271630
vt 0.276323 0.301811
vt 0.278187 0.290965
vt 0.809362 0.285429
vt 0.538452 0.286199
vt 0.280423 0.280562
vt 0.536126 0.274551
vt 0.805751 0.270121
vt 0.283031 0.270603
vt 0.533283 0.263497
vt 0.003422 0.260274
vt 0.286012 0.261084
vt 0.801481 0.254913
vt 0.529922 0.253034
vt 0.289365 0.252010
vt 0.006985 0.249236
vt 0.796557 0.239809
vt 0.526044 0.243162
vt 0.293090 0.243378
vt 0.010689 0.238514
vt 0.297190 0.235186
vt 0.521650 0.233882
vt 0.790974 0.224806
vt 0.014531 0.228110
vt 0.301662 0.227439
vt 0.516739 0.225194
vt 0.018512 0.218020
vt 0.306504 0.220134
vt 0.511311 0.217096
vt 0.784735 0.209907
vt 0.311721 0.213269
vt 0.022635 0.208249
vt 0.505365 0.209590
vt 0.317310 0.206850
vt 0.777840 0.195110
vt 0.499023 0.202681
vt 0.026897 0.198794
vt 0.323273 0.200871
vt 0.492407 0.196372
vt 0.329519 0.195355
vt 0.031298 0.189657
vt 0.485516 0.190665
vt 0.335959 0.190318
vt 0.770288 0.180415
vt 0.478352 0.185557
vt 0.342597 0.185760
vt 0.035839 0.180835
vt 0.349429 0.181683
vt 0.470910 0.181051
vt 0.356458 0.178084
vt 0.463194 0.177146
vt 0.040521 0.172330
vt 0.762133 0.166062
vt 0.363681 0.174965
vt 0.455205 0.173841
vt 0.371101 0.172329
vt 0.446941 0.171137
vt 0.045340 0.164143
vt 0.378716 0.170169
vt 0.438400 0.169035
vt 0.386528 0.168490
vt 0.429586 0.167532
vt 0.394534 0.167291
vt 0.420497 0.166631
vt 0.402735 0.166572
vt 0.411133 0.166331
vt 0.753428 0.152283
vt 0.050301 0.156270
vt 0.055458 0.148625
vt 0.744173 0.139085
vt 0.060874 0.141115
vt 0.066545 0.133740
vt 0.734368 0.126461
vt 0.072472 0.126500
vt 0.078654 0.119395
vt 0.724015 0.114418
vt 0.085093 0.112425
vt 0.713112 0.102950
vt 0.091788 0.105589
vt 0.098740 0.098889
vt 0.701659 0.092061
vt 0.105948 0.092324
vt 0.113410 0.085895
vt 0.689656 0.081750
vt 0.121130 0.079600
vt 0.677103 0.072015
vt 0.129108 0.073440
vt 0.137355 0.067475
vt 0.664002 0.062857
vt 0.145894 0.061760
vt 0.650350 0.054278
vt 0.154720 0.056297
vt 0.163833 0.051084
vt 0.636149 0.046278
vt 0.173237 0.046123
vt 0.621336 0.038886
vt 0.182930 0.041414
vt 0.192911 0.036958
vt 0.605848 0.032136
vt 0.203182 0.032751
vt 0.213741 0.028797
vt 0.589682 0.026032
vt 0.224587 0.025094
vt 0.572843 0.020567
vt 0.235724 0.021644
vt 0.247149 0.018443
vt 0.555329 0.015747
vt 0.258911 0.015497
vt 0.537138 0.011569
vt 0.271061 0.012809
vt 0.283596 0.010374
vt 0.518273 0.008033
vt 0.296520 0.008197
vt 0.309829 0.006276
vt 0.498733 0.005142
vt 0.323523 0.004611
vt 0.478516 0.002893
vt 0.337605 0.003202
vt 0.352075 0.002049
vt 0.457624 0.001285
vt 0.366931 0.001153
vt 0.436057 0.000321
vt 0.382172 0.000512
vt 0.397801 0.000128
vt 0.413816 -0.000000
s 1
usemtl マテリアル.010
f 235/1/1 1/2/1 4/3/1
f 4/3/1 1/2/1 2/4/1
f 4/3/1 2/4/1 3/5/1
f 235/1/1 4/3/1 5/6/1
f 28/7/1 29/8/1 30/9/1
f 27/10/1 28/7/1 30/9/1
f 26/11/1 27/10/1 30/9/1
f 26/11/1 30/9/1 31/12/1
f 25/13/1 26/11/1 31/12/1
f 24/14/1 25/13/1 31/12/1
f 23/15/1 24/14/1 31/12/1
f 23/15/1 31/12/1 32/16/1
f 22/17/1 23/15/1 32/16/1
f 21/18/1 22/17/1 32/16/1
f 20/19/1 21/18/1 32/16/1
f 20/19/1 32/16/1 33/20/1
f 19/21/1 20/19/1 33/20/1
f 18/22/1 19/21/1 33/20/1
f 17/23/1 18/22/1 33/20/1
f 17/23/1 33/20/1 34/24/1
f 16/25/1 17/23/1 34/24/1
f 15/26/1 16/25/1 34/24/1
f 14/27/1 15/26/1 34/24/1
f 14/27/1 34/24/1 35/28/1
f 13/29/1 14/27/1 35/28/1
f 12/30/1 13/29/1 35/28/1
f 11/31/1 12/30/1 35/28/1
f 11/31/1 35/28/1 36/32/1
f 10/33/1 11/31/1 36/32/1
f 9/34/1 10/33/1 36/32/1
f 8/35/1 9/34/1 36/32/1
f 8/35/1 36/32/1 37/36/1
f 7/37/1 8/35/1 37/36/1
f 6/38/1 7/37/1 37/36/1
f 5/6/1 6/38/1 37/36/1
f 5/6/1 37/36/1 38/39/1
f 235/1/1 5/6/1 38/39/1
f 235/1/1 38/39/1 39/40/1
f 235/1/1 39/40/1 40/41/1
f 235/1/1 40/41/1 41/42/1
f 235/1/1 41/42/1 42/43/1
f 235/1/1 42/43/1 43/44/1
f 235/1/1 43/44/1 212/45/1
f 212/45/1 43/44/1 44/46/1
f 212/45/1 44/46/1 211/47/1
f 211/47/1 44/46/1 45/48/1
f 211/47/1 45/48/1 210/49/1
f 210/49/1 45/48/1 46/50/1
f 209/51/1 210/49/1 46/50/1
f 208/52/1 209/51/1 46/50/1
f 235/1/1 212/45/1 213/53/1
f 207/54/1 208/52/1 46/50/1
f 235/1/1 213/53/1 214/55/1
f 235/1/1 214/55/1 215/56/1
f 206/57/1 207/54/1 46/50/1
f 206/57/1 46/50/1 47/58/1
f 235/1/1 215/56/1 216/59/1
f 205/60/1 206/57/1 47/58/1
f 235/1/1 216/59/1 217/61/1
f 235/1/1 217/61/1 218/62/1
f 204/63/1 205/60/1 47/58/1
f 235/1/1 218/62/1 219/64/1
f 203/65/1 204/63/1 47/58/1
f 235/1/1 219/64/1 220/66/1
f 235/1/1 220/66/1 221/67/1
f 202/68/1 203/65/1 47/58/1
f 235/1/1 221/67/1 222/69/1
f 201/70/1 202/68/1 47/58/1
f 235/1/1 222/69/1 223/71/1
f 201/70/1 47/58/1 48/72/1
f 235/1/1 223/71/1 224/73/1
f 200/74/1 201/70/1 48/72/1
f 235/1/1 224/73/1 225/75/1
f 235/1/1 225/75/1 226/76/1
f 199/77/1 200/74/1 48/72/1
f 235/1/1 226/76/1 227/78/1
f 198/79/1 199/77/1 48/72/1
f 235/1/1 227/78/1 228/80/1
f 234/81/1 235/1/1 233/82/1
f 233/82/1 235/1/1 232/83/1
f 232/83/1 235/1/1 231/84/1
f 231/84/1 235/1/1 230/85/1
f 230/85/1 235/1/1 229/86/1
f 229/86/1 235/1/1 228/80/1
f 198/79/1 48/72/1 49/87/1
f 197/88/1 198/79/1 49/87/1
f 196/89/1 197/88/1 49/87/1
f 195/90/1 196/89/1 49/87/1
f 195/90/1 49/87/1 50/91/1
f 194/92/1 195/90/1 50/91/1
f 193/93/1 194/92/1 50/91/1
f 193/93/1 50/91/1 51/94/1
f 192/95/1 193/93/1 51/94/1
f 191/96/1 192/95/1 51/94/1
f 191/96/1 51/94/1 52/97/1
f 190/98/1 191/96/1 52/97/1
f 189/99/1 190/98/1 52/97/1
f 189/99/1 52/97/1 53/100/1
f 188/101/1 189/99/1 53/100/1
f 187/102/1 188/101/1 53/100/1
f 187/102/1 53/100/1 54/103/1
f 186/104/1 187/102/1 54/103/1
f 186/104/1 54/103/1 55/105/1
f 185/106/1 186/104/1 55/105/1
f 185/106/1 55/105/1 56/107/1
f 184/108/1 185/106/1 56/107/1
f 184/108/1 56/107/1 57/109/1
f 183/110/1 184/108/1 57/109/1
f 137/111/1 138/112/1 139/113/1
f 183/110/1 57/109/1 58/114/1
f 182/115/1 183/110/1 58/114/1
f 137/111/1 139/113/1 140/116/1
f 181/117/1 182/115/1 58/114/1
f 181/117/1 58/114/1 59/118/1
f 137/111/1 140/116/1 141/119/1
f 180/120/1 181/117/1 59/118/1
f 136/121/1 137/111/1 141/119/1
f 136/121/1 141/119/1 142/122/1
f 180/120/1 59/118/1 60/123/1
f 179/124/1 180/120/1 60/123/1
f 136/121/1 142/122/1 143/125/1
f 135/126/1 136/121/1 143/125/1
f 179/124/1 60/123/1 61/127/1
f 178/128/1 179/124/1 61/127/1
f 135/126/1 143/125/1 144/129/1
f 134/130/1 135/126/1 144/129/1
f 134/130/1 144/129/1 145/131/1
f 177/132/1 178/128/1 61/127/1
f 177/132/1 61/127/1 62/133/1
f 133/134/1 134/130/1 145/131/1
f 133/134/1 145/131/1 146/135/1
f 176/136/1 177/132/1 62/133/1
f 132/137/1 133/134/1 146/135/1
f 132/137/1 146/135/1 147/138/1
f 175/139/1 176/136/1 62/133/1
f 175/139/1 62/133/1 63/140/1
f 132/137/1 147/138/1 148/141/1
f 131/142/1 132/137/1 148/141/1
f 174/143/1 175/139/1 63/140/1
f 131/142/1 148/141/1 149/144/1
f 174/143/1 63/140/1 64/145/1
f 173/146/1 174/143/1 64/145/1
f 130/147/1 131/142/1 149/144/1
f 130/147/1 149/144/1 150/148/1
f 172/149/1 173/146/1 64/145/1
f 130/147/1 150/148/1 151/150/1
f 129/151/1 130/147/1 151/150/1
f 171/152/1 172/149/1 64/145/1
f 129/151/1 151/150/1 152/153/1
f 171/152/1 64/145/1 65/154/1
f 170/155/1 171/152/1 65/154/1
f 129/151/1 152/153/1 153/156/1
f 128/157/1 129/151/1 153/156/1
f 128/157/1 153/156/1 154/158/1
f 169/159/1 170/155/1 65/154/1
f 128/157/1 154/158/1 155/160/1
f 168/161/1 169/159/1 65/154/1
f 127/162/1 128/157/1 155/160/1
f 168/161/1 65/154/1 66/163/1
f 127/162/1 155/160/1 156/164/1
f 167/165/1 168/161/1 66/163/1
f 127/162/1 156/164/1 157/166/1
f 166/167/1 167/165/1 66/163/1
f 126/168/1 127/162/1 157/166/1
f 126/168/1 157/166/1 158/169/1
f 165/170/1 166/167/1 66/163/1
f 126/168/1 158/169/1 159/171/1
f 164/172/1 165/170/1 66/163/1
f 126/168/1 159/171/1 160/173/1
f 163/174/1 164/172/1 66/163/1
f 126/168/1 160/173/1 161/175/1
f 162/176/1 163/174/1 66/163/1
f 126/168/1 161/175/1 162/176/1
f 126/168/1 162/176/1 66/163/1
f 126/168/1 66/163/1 67/177/1
f 125/178/1 126/168/1 67/177/1
f 124/179/1 125/178/1 67/177/1
f 124/179/1 67/177/1 68/180/1
f 123/181/1 124/179/1 68/180/1
f 122/182/1 123/181/1 68/180/1
f 122/182/1 68/180/1 69/183/1
f 121/184/1 122/182/1 69/183/1
f 120/185/1 121/184/1 69/183/1
f 120/185/1 69/183/1 70/186/1
f 119/187/1 120/185/1 70/186/1
f 119/187/1 70/186/1 71/188/1
f 118/189/1 119/187/1 71/188/1
f 117/190/1 118/189/1 71/188/1
f 117/190/1 71/188/1 72/191/1
f 116/192/1 117/190/1 72/191/1
f 115/193/1 116/192/1 72/191/1
f 115/193/1 72/191/1 73/194/1
f 114/195/1 115/193/1 73/194/1
f 114/195/1 73/194/1 74/196/1
f 113/197/1 114/195/1 74/196/1
f 112/198/1 113/197/1 74/196/1
f 112/198/1 74/196/1 75/199/1
f 111/200/1 112/198/1 75/199/1
f 111/200/1 75/199/1 76/201/1
f 110/202/1 111/200/1 76/201/1
f 109/203/1 110/202/1 76/201/1
f 109/203/1 76/201/1 77/204/1
f 108/205/1 109/203/1 77/204/1
f 108/205/1 77/204/1 78/206/1
f 107/207/1 108/205/1 78/206/1
f 106/208/1 107/207/1 78/206/1
f 106/208/1 78/206/1 79/209/1
f 105/210/1 106/208/1 79/209/1
f 104/211/1 105/210/1 79/209/1
f 104/211/1 79/209/1 80/212/1
f 103/213/1 104/211/1 80/212/1
f 103/213/1 80/212/1 81/214/1
f 102/215/1 103/213/1 81/214/1
f 101/216/1 102/215/1 81/214/1
f 101/216/1 81/214/1 82/217/1
f 100/218/1 101/216/1 82/217/1
f 100/218/1 82/217/1 83/219/1
f 99/220/1 100/218/1 83/219/1
f 98/221/1 99/220/1 83/219/1
f 98/221/1 83/219/1 84/222/1
f 97/223/1 98/221/1 84/222/1
f 96/224/1 97/223/1 84/222/1
f 96/224/1 84/222/1 85/225/1
f 95/226/1 96/224/1 85/225/1
f 95/226/1 85/225/1 86/227/1
f 94/228/1 95/226/1 86/227/1
f 93/229/1 94/228/1 86/227/1
f 93/229/1 86/227/1 87/230/1
f 92/231/1 93/229/1 87/230/1
f 92/231/1 87/230/1 88/232/1
f 91/233/1 92/231/1 88/232/1
f 90/234/1 91/233/1 88/232/1
f 90/234/1 88/232/1 89/235/1
