# Blender 4.4.1
# www.blender.org
mtllib 6.mtl
o テキスト
v 0.443625 -0.000000 -0.399017
v 0.301370 -0.000000 -0.381454
v 0.300381 -0.000000 -0.386308
v 0.299287 -0.000000 -0.390918
v 0.298088 -0.000000 -0.395285
v 0.296784 -0.000000 -0.399407
v 0.295375 -0.000000 -0.403285
v 0.293862 -0.000000 -0.406920
v 0.292244 -0.000000 -0.410310
v 0.290520 -0.000000 -0.413457
v 0.288692 -0.000000 -0.416359
v 0.286759 -0.000000 -0.419018
v 0.284721 -0.000000 -0.421433
v 0.282578 -0.000000 -0.423604
v 0.280340 -0.000000 -0.425567
v 0.278017 -0.000000 -0.427360
v 0.275608 -0.000000 -0.428982
v 0.273114 -0.000000 -0.430434
v 0.270535 -0.000000 -0.431714
v 0.267870 -0.000000 -0.432824
v 0.265119 -0.000000 -0.433763
v 0.262284 -0.000000 -0.434531
v 0.259363 -0.000000 -0.435129
v 0.256357 -0.000000 -0.435556
v 0.253265 -0.000000 -0.435812
v 0.250088 -0.000000 -0.435897
v 0.244400 -0.000000 -0.435654
v 0.238926 -0.000000 -0.434922
v 0.233667 -0.000000 -0.433702
v 0.228623 -0.000000 -0.431995
v 0.223793 -0.000000 -0.429799
v 0.219178 -0.000000 -0.427116
v 0.214778 -0.000000 -0.423945
v 0.210592 -0.000000 -0.420287
v 0.206621 -0.000000 -0.416140
v 0.202865 -0.000000 -0.411505
v 0.199323 -0.000000 -0.406383
v 0.195996 -0.000000 -0.400773
v 0.193705 -0.000000 -0.396158
v 0.191517 -0.000000 -0.390743
v 0.189432 -0.000000 -0.384528
v 0.187449 -0.000000 -0.377512
v 0.185568 -0.000000 -0.369697
v 0.183790 -0.000000 -0.361082
v 0.182114 -0.000000 -0.351667
v 0.180541 -0.000000 -0.341451
v 0.179070 -0.000000 -0.330436
v 0.177702 -0.000000 -0.318620
v 0.176436 -0.000000 -0.306004
v 0.175272 -0.000000 -0.292589
v 0.179555 -0.000000 -0.296827
v 0.183858 -0.000000 -0.300877
v 0.188181 -0.000000 -0.304740
v 0.192522 -0.000000 -0.308414
v 0.196884 -0.000000 -0.311901
v 0.201264 -0.000000 -0.315200
v 0.205665 -0.000000 -0.318311
v 0.210085 -0.000000 -0.321235
v 0.214524 -0.000000 -0.323970
v 0.218983 -0.000000 -0.326518
v 0.223461 -0.000000 -0.328878
v 0.227959 -0.000000 -0.331050
v 0.232525 -0.000000 -0.333042
v 0.237209 -0.000000 -0.334860
v 0.242009 -0.000000 -0.336506
v 0.246927 -0.000000 -0.337978
v 0.251961 -0.000000 -0.339276
v 0.257113 -0.000000 -0.340402
v 0.262381 -0.000000 -0.341355
v 0.267767 -0.000000 -0.342134
v 0.273270 -0.000000 -0.342740
v 0.278890 -0.000000 -0.343173
v 0.284627 -0.000000 -0.343433
v 0.290481 -0.000000 -0.343520
v 0.301808 -0.000000 -0.343178
v 0.312839 -0.000000 -0.342154
v 0.323575 -0.000000 -0.340446
v 0.334016 -0.000000 -0.338056
v 0.344162 -0.000000 -0.334982
v 0.354013 -0.000000 -0.331226
v 0.363569 -0.000000 -0.326786
v 0.372829 -0.000000 -0.321664
v 0.381794 -0.000000 -0.315859
v 0.390465 -0.000000 -0.309370
v 0.398840 -0.000000 -0.302199
v 0.406920 -0.000000 -0.294345
v 0.414521 -0.000000 -0.285966
v 0.421462 -0.000000 -0.277222
v 0.427742 -0.000000 -0.268111
v 0.433361 -0.000000 -0.258635
v 0.438318 -0.000000 -0.248793
v 0.442615 -0.000000 -0.238584
v 0.446251 -0.000000 -0.228010
v 0.449225 -0.000000 -0.217071
v 0.451539 -0.000000 -0.205765
v 0.453191 -0.000000 -0.194093
v 0.454183 -0.000000 -0.182056
v 0.454514 -0.000000 -0.169652
v 0.454346 -0.000000 -0.161225
v 0.453845 -0.000000 -0.152919
v 0.453010 -0.000000 -0.144736
v 0.451840 -0.000000 -0.136674
v 0.450336 -0.000000 -0.128734
v 0.448499 -0.000000 -0.120917
v 0.446326 -0.000000 -0.113221
v 0.443820 -0.000000 -0.105647
v 0.440980 -0.000000 -0.098195
v 0.437805 -0.000000 -0.090866
v 0.434296 -0.000000 -0.083658
v 0.430453 -0.000000 -0.076572
v 0.426314 -0.000000 -0.069690
v 0.421916 -0.000000 -0.063093
v 0.417259 -0.000000 -0.056781
v 0.412344 -0.000000 -0.050755
v 0.407171 -0.000000 -0.045014
v 0.401739 -0.000000 -0.039559
v 0.396048 -0.000000 -0.034389
v 0.390099 -0.000000 -0.029505
v 0.383891 -0.000000 -0.024906
v 0.377425 -0.000000 -0.020592
v 0.370700 -0.000000 -0.016563
v 0.363716 -0.000000 -0.012821
v 0.356453 -0.000000 -0.009370
v 0.348891 -0.000000 -0.006220
v 0.341028 -0.000000 -0.003370
v 0.332865 -0.000000 -0.000820
v 0.324402 0.000000 0.001431
v 0.315639 0.000000 0.003381
v 0.306576 0.000000 0.005031
v 0.297213 0.000000 0.006381
v 0.287551 0.000000 0.007431
v 0.277588 0.000000 0.008181
v 0.267325 0.000000 0.008631
v 0.256762 0.000000 0.008781
v 0.244095 0.000000 0.008598
v 0.231852 0.000000 0.008049
v 0.220034 0.000000 0.007135
v 0.208641 0.000000 0.005854
v 0.197672 0.000000 0.004208
v 0.187127 0.000000 0.002195
v 0.177006 -0.000000 -0.000183
v 0.167311 -0.000000 -0.002927
v 0.158039 -0.000000 -0.006037
v 0.149192 -0.000000 -0.009513
v 0.140770 -0.000000 -0.013355
v 0.132771 -0.000000 -0.017562
v 0.125116 -0.000000 -0.022171
v 0.117721 -0.000000 -0.027217
v 0.110588 -0.000000 -0.032699
v 0.103715 -0.000000 -0.038618
v 0.097104 -0.000000 -0.044973
v 0.090753 -0.000000 -0.051765
v 0.084664 -0.000000 -0.058994
v 0.078835 -0.000000 -0.066659
v 0.073268 -0.000000 -0.074761
v 0.067961 -0.000000 -0.083299
v 0.062916 -0.000000 -0.092274
v 0.058131 -0.000000 -0.101686
v 0.053671 -0.000000 -0.111576
v 0.049599 -0.000000 -0.121985
v 0.045915 -0.000000 -0.132914
v 0.042618 -0.000000 -0.144362
v 0.039709 -0.000000 -0.156330
v 0.037188 -0.000000 -0.168818
v 0.035055 -0.000000 -0.181825
v 0.033310 -0.000000 -0.195352
v 0.031952 -0.000000 -0.209398
v 0.030983 -0.000000 -0.223964
v 0.030401 -0.000000 -0.239049
v 0.030207 -0.000000 -0.254654
v 0.030615 -0.000000 -0.277377
v 0.031837 -0.000000 -0.299062
v 0.033873 -0.000000 -0.319712
v 0.036725 -0.000000 -0.339324
v 0.040391 -0.000000 -0.357900
v 0.044872 -0.000000 -0.375439
v 0.050167 -0.000000 -0.391942
v 0.056278 -0.000000 -0.407407
v 0.063203 -0.000000 -0.421837
v 0.070942 -0.000000 -0.435229
v 0.079496 -0.000000 -0.447585
v 0.088865 -0.000000 -0.458904
v 0.098957 -0.000000 -0.469255
v 0.109677 -0.000000 -0.478706
v 0.121027 -0.000000 -0.487256
v 0.133006 -0.000000 -0.494907
v 0.145614 -0.000000 -0.501657
v 0.158851 -0.000000 -0.507508
v 0.172718 -0.000000 -0.512458
v 0.187215 -0.000000 -0.516509
v 0.202340 -0.000000 -0.519659
v 0.218095 -0.000000 -0.521909
v 0.234479 -0.000000 -0.523259
v 0.251493 -0.000000 -0.523709
v 0.261558 -0.000000 -0.523610
v 0.271265 -0.000000 -0.523314
v 0.280613 -0.000000 -0.522820
v 0.289603 -0.000000 -0.522129
v 0.298234 -0.000000 -0.521239
v 0.306507 -0.000000 -0.520153
v 0.314421 -0.000000 -0.518869
v 0.321976 -0.000000 -0.517387
v 0.329173 -0.000000 -0.515707
v 0.336012 -0.000000 -0.513830
v 0.342491 -0.000000 -0.511756
v 0.348613 -0.000000 -0.509484
v 0.354470 -0.000000 -0.507021
v 0.360160 -0.000000 -0.504376
v 0.365681 -0.000000 -0.501548
v 0.371034 -0.000000 -0.498537
v 0.376218 -0.000000 -0.495342
v 0.381235 -0.000000 -0.491965
v 0.386083 -0.000000 -0.488405
v 0.390762 -0.000000 -0.484662
v 0.395274 -0.000000 -0.480736
v 0.399617 -0.000000 -0.476628
v 0.403791 -0.000000 -0.472336
v 0.407798 -0.000000 -0.467861
v 0.411642 -0.000000 -0.463197
v 0.415330 -0.000000 -0.458338
v 0.418862 -0.000000 -0.453284
v 0.422238 -0.000000 -0.448035
v 0.425458 -0.000000 -0.442591
v 0.428521 -0.000000 -0.436951
v 0.431429 -0.000000 -0.431117
v 0.434180 -0.000000 -0.425087
v 0.436776 -0.000000 -0.418862
v 0.439215 -0.000000 -0.412442
v 0.441498 -0.000000 -0.405827
v 0.180190 -0.000000 -0.169652
v 0.180336 -0.000000 -0.162811
v 0.180775 -0.000000 -0.156222
v 0.181507 -0.000000 -0.149884
v 0.182531 -0.000000 -0.143797
v 0.183849 -0.000000 -0.137961
v 0.185458 -0.000000 -0.132376
v 0.187361 -0.000000 -0.127043
v 0.189556 -0.000000 -0.121961
v 0.192044 -0.000000 -0.117130
v 0.194825 -0.000000 -0.112550
v 0.197898 -0.000000 -0.108222
v 0.201265 -0.000000 -0.104145
v 0.204843 -0.000000 -0.100358
v 0.208553 -0.000000 -0.096900
v 0.212395 -0.000000 -0.093772
v 0.216368 -0.000000 -0.090973
v 0.220473 -0.000000 -0.088503
v 0.224710 -0.000000 -0.086363
v 0.229079 -0.000000 -0.084552
v 0.233579 -0.000000 -0.083070
v 0.238211 -0.000000 -0.081917
v 0.242975 -0.000000 -0.081094
v 0.247871 -0.000000 -0.080600
v 0.252898 -0.000000 -0.080436
v 0.257518 -0.000000 -0.080584
v 0.262011 -0.000000 -0.081031
v 0.266377 -0.000000 -0.081775
v 0.270616 -0.000000 -0.082816
v 0.274729 -0.000000 -0.084155
v 0.278714 -0.000000 -0.085792
v 0.282573 -0.000000 -0.087726
v 0.286305 -0.000000 -0.089958
v 0.289910 -0.000000 -0.092488
v 0.293389 -0.000000 -0.095315
v 0.296740 -0.000000 -0.098439
v 0.299965 -0.000000 -0.101862
v 0.302994 -0.000000 -0.105579
v 0.305760 -0.000000 -0.109589
v 0.308263 -0.000000 -0.113892
v 0.310502 -0.000000 -0.118487
v 0.312478 -0.000000 -0.123375
v 0.314190 -0.000000 -0.128556
v 0.315639 -0.000000 -0.134030
v 0.316825 -0.000000 -0.139796
v 0.317747 -0.000000 -0.145855
v 0.318405 -0.000000 -0.152207
v 0.318801 -0.000000 -0.158851
v 0.318932 -0.000000 -0.165789
v 0.318796 -0.000000 -0.172904
v 0.318386 -0.000000 -0.179731
v 0.317703 -0.000000 -0.186271
v 0.316747 -0.000000 -0.192522
v 0.315517 -0.000000 -0.198486
v 0.314015 -0.000000 -0.204162
v 0.312239 -0.000000 -0.209551
v 0.310190 -0.000000 -0.214651
v 0.307868 -0.000000 -0.219463
v 0.305273 -0.000000 -0.223988
v 0.302404 -0.000000 -0.228225
v 0.299262 -0.000000 -0.232174
v 0.295918 -0.000000 -0.235821
v 0.292442 -0.000000 -0.239150
v 0.288835 -0.000000 -0.242163
v 0.285095 -0.000000 -0.244858
v 0.281224 -0.000000 -0.247236
v 0.277222 -0.000000 -0.249297
v 0.273087 -0.000000 -0.251042
v 0.268821 -0.000000 -0.252468
v 0.264423 -0.000000 -0.253578
v 0.259893 -0.000000 -0.254371
v 0.255232 -0.000000 -0.254847
v 0.250439 -0.000000 -0.255005
v 0.245530 -0.000000 -0.254852
v 0.240755 -0.000000 -0.254391
v 0.236115 -0.000000 -0.253622
v 0.231608 -0.000000 -0.252547
v 0.227236 -0.000000 -0.251164
v 0.222998 -0.000000 -0.249473
v 0.218894 -0.000000 -0.247475
v 0.214924 -0.000000 -0.245170
v 0.211088 -0.000000 -0.242558
v 0.207387 -0.000000 -0.239638
v 0.203820 -0.000000 -0.236411
v 0.200386 -0.000000 -0.232877
v 0.197161 -0.000000 -0.229057
v 0.194215 -0.000000 -0.224974
v 0.191550 -0.000000 -0.220627
v 0.189166 -0.000000 -0.216017
v 0.187062 -0.000000 -0.211143
v 0.185239 -0.000000 -0.206006
v 0.183696 -0.000000 -0.200606
v 0.182434 -0.000000 -0.194942
v 0.181452 -0.000000 -0.189015
v 0.180751 -0.000000 -0.182824
v 0.180330 -0.000000 -0.176370
vn -0.0000 1.0000 -0.0000
vt 0.408707 1.000000
vt 0.459493 0.998188
vt 0.440637 0.999292
vt 0.477659 0.996748
vt 0.495135 0.994969
vt 0.377876 0.998964
vt 0.511922 0.992854
vt 0.528018 0.990399
vt 0.348141 0.996184
vt 0.543424 0.987609
vt 0.558140 0.984481
vt 0.319505 0.991660
vt 0.572165 0.981014
vt 0.585501 0.977209
vt 0.291964 0.985389
vt 0.598148 0.973067
vt 0.610103 0.968589
vt 0.265522 0.977376
vt 0.621370 0.963772
vt 0.632123 0.958621
vt 0.240179 0.967617
vt 0.642546 0.953145
vt 0.652636 0.947341
vt 0.215932 0.956116
vt 0.662395 0.941209
vt 0.671820 0.934748
vt 0.680915 0.927961
vt 0.192782 0.942868
vt 0.689677 0.920846
vt 0.698105 0.913404
vt 0.170729 0.927878
vt 0.706204 0.905634
vt 0.713969 0.897538
vt 0.149775 0.911142
vt 0.721401 0.889113
vt 0.728503 0.880360
vt 0.129916 0.892662
vt 0.735282 0.871268
vt 0.741751 0.861825
vt 0.111323 0.872301
vt 0.747910 0.852030
vt 0.753759 0.841884
vt 0.759298 0.831387
vt 0.094164 0.849923
vt 0.764524 0.820536
vt 0.429995 0.834835
vt 0.769443 0.809336
vt 0.419311 0.834899
vt 0.435941 0.834386
vt 0.441713 0.833624
vt 0.408985 0.834026
vt 0.447308 0.832550
vt 0.078437 0.825529
vt 0.452729 0.831163
vt 0.399017 0.832219
vt 0.457972 0.829465
vt 0.463043 0.827454
vt 0.389407 0.829480
vt 0.467936 0.825130
vt 0.380154 0.825804
vt 0.472653 0.822496
vt 0.774049 0.797784
vt 0.477196 0.819547
vt 0.371260 0.821197
vt 0.481563 0.816287
vt 0.485753 0.812715
vt 0.362724 0.815655
vt 0.489769 0.808832
vt 0.778347 0.785879
vt 0.354544 0.809180
vt 0.493587 0.804567
vt 0.064142 0.799114
vt 0.497187 0.799855
vt 0.346723 0.801770
vt 0.500567 0.794695
vt 0.782333 0.773624
vt 0.503729 0.789089
vt 0.339261 0.793425
vt 0.506673 0.783033
vt 0.786008 0.761018
vt 0.332155 0.784148
vt 0.509396 0.776532
vt 0.051277 0.770686
vt 0.511901 0.769581
vt 0.325407 0.773937
vt 0.789374 0.748060
vt 0.514188 0.762184
vt 0.320692 0.765496
vt 0.516256 0.754339
vt 0.518105 0.746045
vt 0.519735 0.737305
vt 0.521146 0.728117
vt 0.316098 0.755546
vt 0.039848 0.740238
vt 0.311623 0.744088
vt 0.307266 0.731119
vt 0.303028 0.716643
vt 0.029849 0.707773
vt 0.298910 0.700658
vt 0.294910 0.683164
vt 0.021284 0.673291
vt 0.291030 0.664160
vt 0.486297 0.658382
vt 0.518476 0.656337
vt 0.497277 0.658011
vt 0.475520 0.658418
vt 0.539057 0.653411
vt 0.464947 0.658119
vt 0.454578 0.657485
vt 0.559024 0.649231
vt 0.444412 0.656516
vt 0.287268 0.643649
vt 0.434451 0.655210
vt 0.578375 0.643799
vt 0.424692 0.653570
vt 0.014150 0.636793
vt 0.415139 0.651596
vt 0.597111 0.637112
vt 0.405787 0.649286
vt 0.396640 0.646638
vt 0.615232 0.629174
vt 0.387695 0.643658
vt 0.378956 0.640341
vt 0.632738 0.619980
vt 0.370327 0.636680
vt 0.283626 0.621628
vt 0.361719 0.632665
vt 0.649627 0.609536
vt 0.353129 0.628296
vt 0.344560 0.623575
vt 0.665900 0.597838
vt 0.336009 0.618498
vt 0.008450 0.598274
vt 0.280103 0.598097
vt 0.327476 0.613068
vt 0.681560 0.584885
vt 0.318966 0.607285
vt 0.310472 0.601147
vt 0.696603 0.570680
vt 0.302001 0.594657
vt 0.276697 0.573060
vt 0.293546 0.587811
vt 0.711031 0.555223
vt 0.285111 0.580612
vt 0.004182 0.557742
vt 0.724513 0.538825
vt 0.736725 0.521803
vt 0.001345 0.515190
vt 0.747665 0.504154
vt 0.757332 0.485880
vt 0.414154 0.495761
vt 0.765725 0.466982
vt 0.404939 0.495922
vt 0.789374 0.343749
vt 0.789374 0.000000
vt 0.789375 0.352748
vt 0.395947 0.495493
vt 0.431815 0.493710
vt 0.423123 0.495028
vt 0.000285 0.485924
vt 0.387180 0.494475
vt 0.440233 0.491811
vt 0.378635 0.492871
vt 0.448375 0.489329
vt 0.370314 0.490678
vt 0.456241 0.486267
vt 0.362217 0.487895
vt 0.463832 0.482620
vt 0.354343 0.484525
vt 0.471145 0.478392
vt 0.772848 0.447455
vt 0.346691 0.480567
vt 0.478183 0.473582
vt 0.339263 0.476021
vt 0.484947 0.468189
vt 0.332060 0.470885
vt 0.491433 0.462213
vt 0.325081 0.465163
vt 0.497644 0.455657
vt 0.000000 0.457598
vt 0.778698 0.427305
vt 0.318322 0.458852
vt 0.503579 0.448516
vt 0.311929 0.451986
vt 0.509108 0.440828
vt 0.306035 0.444602
vt 0.514099 0.432625
vt 0.783275 0.406531
vt 0.300643 0.436698
vt 0.518550 0.423907
vt 0.000488 0.430208
vt 0.295755 0.428275
vt 0.522463 0.414676
vt 0.786581 0.385129
vt 0.291367 0.419332
vt 0.525838 0.404931
vt 0.287481 0.409870
vt 0.528676 0.394668
vt 0.001752 0.403758
vt 0.284097 0.399889
vt 0.788612 0.363102
vt 0.530973 0.383893
vt 0.281215 0.389389
vt 0.532734 0.372602
vt 0.003789 0.378246
vt 0.278834 0.378369
vt 0.789374 0.340451
vt 0.533956 0.360799
vt 0.276955 0.366829
vt 0.534640 0.348479
vt 0.275577 0.354771
vt 0.788863 0.317172
vt 0.006600 0.353672
vt 0.534786 0.335646
vt 0.274702 0.342193
vt 0.534391 0.322298
vt 0.274352 0.329357
vt 0.787779 0.301393
vt 0.010186 0.330036
vt 0.533513 0.309306
vt 0.274574 0.316968
vt 0.786083 0.285871
vt 0.532165 0.296889
vt 0.014547 0.307340
vt 0.275368 0.305022
vt 0.783771 0.270610
vt 0.530352 0.285044
vt 0.276732 0.293520
vt 0.528072 0.273772
vt 0.780843 0.255606
vt 0.019682 0.285582
vt 0.278670 0.282461
vt 0.525323 0.263073
vt 0.281176 0.271846
vt 0.777300 0.240861
vt 0.522108 0.252945
vt 0.025590 0.264762
vt 0.284256 0.261677
vt 0.773144 0.226377
vt 0.518426 0.243391
vt 0.287907 0.251952
vt 0.514277 0.234409
vt 0.032273 0.244881
vt 0.292130 0.242670
vt 0.768369 0.212151
vt 0.509661 0.226001
vt 0.296924 0.233833
vt 0.504578 0.218165
vt 0.762981 0.198184
vt 0.302289 0.225440
vt 0.039730 0.225938
vt 0.499028 0.210901
vt 0.308228 0.217492
vt 0.756979 0.184476
vt 0.493011 0.204211
vt 0.314589 0.210068
vt 0.486655 0.198089
vt 0.047840 0.207861
vt 0.321227 0.203248
vt 0.480089 0.192539
vt 0.750359 0.171029
vt 0.328143 0.197035
vt 0.473310 0.187558
vt 0.335334 0.191426
vt 0.466323 0.183145
vt 0.056477 0.190579
vt 0.342802 0.186422
vt 0.743125 0.157839
vt 0.459124 0.179302
vt 0.350549 0.182025
vt 0.451715 0.176029
vt 0.358572 0.178232
vt 0.444097 0.173324
vt 0.366871 0.175044
vt 0.436266 0.171190
vt 0.735276 0.144908
vt 0.065645 0.174092
vt 0.375448 0.172461
vt 0.428226 0.169625
vt 0.384302 0.170483
vt 0.419975 0.168629
vt 0.393433 0.169111
vt 0.411513 0.168201
vt 0.402840 0.168345
vt 0.726891 0.132387
vt 0.075341 0.158399
vt 0.718046 0.120424
vt 0.085567 0.143501
vt 0.708741 0.109018
vt 0.096320 0.129397
vt 0.698980 0.098172
vt 0.107604 0.116087
vt 0.688761 0.087883
vt 0.678082 0.078155
vt 0.119415 0.103573
vt 0.666944 0.068984
vt 0.131757 0.091852
vt 0.655348 0.060372
vt 0.144626 0.080927
vt 0.643293 0.052319
vt 0.158027 0.070795
vt 0.630781 0.044823
vt 0.171954 0.061458
vt 0.617809 0.037885
vt 0.186562 0.052843
vt 0.604377 0.031508
vt 0.201997 0.044874
vt 0.590450 0.025702
vt 0.218262 0.037552
vt 0.575989 0.020488
vt 0.560992 0.015864
vt 0.235357 0.030878
vt 0.545459 0.011829
vt 0.253278 0.024850
vt 0.529392 0.008382
vt 0.272030 0.019470
vt 0.512790 0.005526
vt 0.291611 0.014736
vt 0.495653 0.003260
vt 0.312020 0.010650
vt 0.477981 0.001584
vt 0.333257 0.007210
vt 0.459775 0.000497
vt 0.355324 0.004419
vt 0.441034 -0.000000
vt 0.378220 0.002273
vt 0.421757 0.000093
vt 0.401945 0.000775
s 1
usemtl マテリアル.004
f 193/1/1 195/2/1 194/3/1
f 193/1/1 196/4/1 195/2/1
f 193/1/1 197/5/1 196/4/1
f 192/6/1 197/5/1 193/1/1
f 192/6/1 198/7/1 197/5/1
f 192/6/1 199/8/1 198/7/1
f 191/9/1 199/8/1 192/6/1
f 191/9/1 200/10/1 199/8/1
f 191/9/1 201/11/1 200/10/1
f 190/12/1 201/11/1 191/9/1
f 190/12/1 202/13/1 201/11/1
f 190/12/1 203/14/1 202/13/1
f 189/15/1 203/14/1 190/12/1
f 189/15/1 204/16/1 203/14/1
f 189/15/1 205/17/1 204/16/1
f 188/18/1 205/17/1 189/15/1
f 188/18/1 206/19/1 205/17/1
f 188/18/1 207/20/1 206/19/1
f 187/21/1 207/20/1 188/18/1
f 187/21/1 208/22/1 207/20/1
f 187/21/1 209/23/1 208/22/1
f 186/24/1 209/23/1 187/21/1
f 186/24/1 210/25/1 209/23/1
f 186/24/1 211/26/1 210/25/1
f 186/24/1 212/27/1 211/26/1
f 185/28/1 212/27/1 186/24/1
f 185/28/1 213/29/1 212/27/1
f 185/28/1 214/30/1 213/29/1
f 184/31/1 214/30/1 185/28/1
f 184/31/1 215/32/1 214/30/1
f 184/31/1 216/33/1 215/32/1
f 183/34/1 216/33/1 184/31/1
f 183/34/1 217/35/1 216/33/1
f 183/34/1 218/36/1 217/35/1
f 182/37/1 218/36/1 183/34/1
f 182/37/1 219/38/1 218/36/1
f 182/37/1 220/39/1 219/38/1
f 181/40/1 220/39/1 182/37/1
f 181/40/1 221/41/1 220/39/1
f 181/40/1 222/42/1 221/41/1
f 181/40/1 223/43/1 222/42/1
f 180/44/1 223/43/1 181/40/1
f 180/44/1 224/45/1 223/43/1
f 180/44/1 26/46/1 224/45/1
f 26/46/1 225/47/1 224/45/1
f 180/44/1 27/48/1 26/46/1
f 25/49/1 225/47/1 26/46/1
f 24/50/1 225/47/1 25/49/1
f 180/44/1 28/51/1 27/48/1
f 23/52/1 225/47/1 24/50/1
f 179/53/1 28/51/1 180/44/1
f 22/54/1 225/47/1 23/52/1
f 179/53/1 29/55/1 28/51/1
f 21/56/1 225/47/1 22/54/1
f 20/57/1 225/47/1 21/56/1
f 179/53/1 30/58/1 29/55/1
f 19/59/1 225/47/1 20/57/1
f 179/53/1 31/60/1 30/58/1
f 18/61/1 225/47/1 19/59/1
f 18/61/1 226/62/1 225/47/1
f 17/63/1 226/62/1 18/61/1
f 179/53/1 32/64/1 31/60/1
f 16/65/1 226/62/1 17/63/1
f 15/66/1 226/62/1 16/65/1
f 179/53/1 33/67/1 32/64/1
f 14/68/1 226/62/1 15/66/1
f 14/68/1 227/69/1 226/62/1
f 179/53/1 34/70/1 33/67/1
f 13/71/1 227/69/1 14/68/1
f 178/72/1 34/70/1 179/53/1
f 12/73/1 227/69/1 13/71/1
f 178/72/1 35/74/1 34/70/1
f 11/75/1 227/69/1 12/73/1
f 11/75/1 228/76/1 227/69/1
f 10/77/1 228/76/1 11/75/1
f 178/72/1 36/78/1 35/74/1
f 9/79/1 228/76/1 10/77/1
f 9/79/1 229/80/1 228/76/1
f 178/72/1 37/81/1 36/78/1
f 8/82/1 229/80/1 9/79/1
f 177/83/1 37/81/1 178/72/1
f 7/84/1 229/80/1 8/82/1
f 177/83/1 38/85/1 37/81/1
f 7/84/1 1/86/1 229/80/1
f 6/87/1 1/86/1 7/84/1
f 177/83/1 39/88/1 38/85/1
f 5/89/1 1/86/1 6/87/1
f 5/89/1 4/90/1 1/86/1
f 4/90/1 3/91/1 1/86/1
f 3/91/1 2/92/1 1/86/1
f 177/83/1 40/93/1 39/88/1
f 176/94/1 40/93/1 177/83/1
f 176/94/1 41/95/1 40/93/1
f 176/94/1 42/96/1 41/95/1
f 176/94/1 43/97/1 42/96/1
f 175/98/1 43/97/1 176/94/1
f 175/98/1 44/99/1 43/97/1
f 175/98/1 45/100/1 44/99/1
f 174/101/1 45/100/1 175/98/1
f 174/101/1 46/102/1 45/100/1
f 73/103/1 75/104/1 74/105/1
f 72/106/1 75/104/1 73/103/1
f 72/106/1 76/107/1 75/104/1
f 71/108/1 76/107/1 72/106/1
f 70/109/1 76/107/1 71/108/1
f 70/109/1 77/110/1 76/107/1
f 69/111/1 77/110/1 70/109/1
f 174/101/1 47/112/1 46/102/1
f 68/113/1 77/110/1 69/111/1
f 68/113/1 78/114/1 77/110/1
f 67/115/1 78/114/1 68/113/1
f 173/116/1 47/112/1 174/101/1
f 66/117/1 78/114/1 67/115/1
f 66/117/1 79/118/1 78/114/1
f 65/119/1 79/118/1 66/117/1
f 64/120/1 79/118/1 65/119/1
f 64/120/1 80/121/1 79/118/1
f 63/122/1 80/121/1 64/120/1
f 62/123/1 80/121/1 63/122/1
f 62/123/1 81/124/1 80/121/1
f 61/125/1 81/124/1 62/123/1
f 173/116/1 48/126/1 47/112/1
f 60/127/1 81/124/1 61/125/1
f 60/127/1 82/128/1 81/124/1
f 59/129/1 82/128/1 60/127/1
f 58/130/1 82/128/1 59/129/1
f 58/130/1 83/131/1 82/128/1
f 57/132/1 83/131/1 58/130/1
f 172/133/1 48/126/1 173/116/1
f 172/133/1 49/134/1 48/126/1
f 56/135/1 83/131/1 57/132/1
f 56/135/1 84/136/1 83/131/1
f 55/137/1 84/136/1 56/135/1
f 54/138/1 84/136/1 55/137/1
f 54/138/1 85/139/1 84/136/1
f 53/140/1 85/139/1 54/138/1
f 172/133/1 50/141/1 49/134/1
f 52/142/1 85/139/1 53/140/1
f 52/142/1 86/143/1 85/139/1
f 51/144/1 86/143/1 52/142/1
f 171/145/1 50/141/1 172/133/1
f 50/141/1 86/143/1 51/144/1
f 50/141/1 87/146/1 86/143/1
f 171/145/1 87/146/1 50/141/1
f 171/145/1 88/147/1 87/146/1
f 170/148/1 88/147/1 171/145/1
f 170/148/1 89/149/1 88/147/1
f 170/148/1 90/150/1 89/149/1
f 170/148/1 302/151/1 90/150/1
f 302/151/1 91/152/1 90/150/1
f 170/148/1 303/153/1 302/151/1
f 301/154/1 91/155/1 302/156/1
f 170/148/1 304/157/1 303/153/1
f 300/158/1 91/152/1 301/159/1
f 169/160/1 304/157/1 170/148/1
f 169/160/1 305/161/1 304/157/1
f 299/162/1 91/152/1 300/158/1
f 169/160/1 306/163/1 305/161/1
f 298/164/1 91/152/1 299/162/1
f 169/160/1 307/165/1 306/163/1
f 297/166/1 91/152/1 298/164/1
f 169/160/1 308/167/1 307/165/1
f 296/168/1 91/152/1 297/166/1
f 169/160/1 309/169/1 308/167/1
f 295/170/1 91/152/1 296/168/1
f 295/170/1 92/171/1 91/152/1
f 169/160/1 310/172/1 309/169/1
f 294/173/1 92/171/1 295/170/1
f 169/160/1 311/174/1 310/172/1
f 293/175/1 92/171/1 294/173/1
f 169/160/1 312/176/1 311/174/1
f 292/177/1 92/171/1 293/175/1
f 169/160/1 313/178/1 312/176/1
f 291/179/1 92/171/1 292/177/1
f 168/180/1 313/178/1 169/160/1
f 291/179/1 93/181/1 92/171/1
f 168/180/1 314/182/1 313/178/1
f 290/183/1 93/181/1 291/179/1
f 168/180/1 315/184/1 314/182/1
f 289/185/1 93/181/1 290/183/1
f 168/180/1 316/186/1 315/184/1
f 288/187/1 93/181/1 289/185/1
f 288/187/1 94/188/1 93/181/1
f 168/180/1 317/189/1 316/186/1
f 287/190/1 94/188/1 288/187/1
f 167/191/1 317/189/1 168/180/1
f 167/191/1 318/192/1 317/189/1
f 286/193/1 94/188/1 287/190/1
f 286/193/1 95/194/1 94/188/1
f 167/191/1 319/195/1 318/192/1
f 285/196/1 95/194/1 286/193/1
f 167/191/1 320/197/1 319/195/1
f 284/198/1 95/194/1 285/196/1
f 166/199/1 320/197/1 167/191/1
f 166/199/1 321/200/1 320/197/1
f 284/198/1 96/201/1 95/194/1
f 283/202/1 96/201/1 284/198/1
f 166/199/1 322/203/1 321/200/1
f 282/204/1 96/201/1 283/202/1
f 165/205/1 322/203/1 166/199/1
f 165/205/1 323/206/1 322/203/1
f 282/204/1 97/207/1 96/201/1
f 281/208/1 97/207/1 282/204/1
f 165/205/1 324/209/1 323/206/1
f 280/210/1 97/207/1 281/208/1
f 165/205/1 325/211/1 324/209/1
f 280/210/1 98/212/1 97/207/1
f 164/213/1 325/211/1 165/205/1
f 279/214/1 98/212/1 280/210/1
f 164/213/1 230/215/1 325/211/1
f 278/216/1 98/212/1 279/214/1
f 164/213/1 231/217/1 230/215/1
f 278/216/1 99/218/1 98/212/1
f 163/219/1 231/217/1 164/213/1
f 277/220/1 99/218/1 278/216/1
f 163/219/1 232/221/1 231/217/1
f 277/220/1 100/222/1 99/218/1
f 276/223/1 100/222/1 277/220/1
f 162/224/1 232/221/1 163/219/1
f 162/224/1 233/225/1 232/221/1
f 276/223/1 101/226/1 100/222/1
f 275/227/1 101/226/1 276/223/1
f 162/224/1 234/228/1 233/225/1
f 274/229/1 101/226/1 275/227/1
f 274/229/1 102/230/1 101/226/1
f 161/231/1 234/228/1 162/224/1
f 161/231/1 235/232/1 234/228/1
f 273/233/1 102/230/1 274/229/1
f 161/231/1 236/234/1 235/232/1
f 273/233/1 103/235/1 102/230/1
f 272/236/1 103/235/1 273/233/1
f 160/237/1 236/234/1 161/231/1
f 160/237/1 237/238/1 236/234/1
f 272/236/1 104/239/1 103/235/1
f 271/240/1 104/239/1 272/236/1
f 160/237/1 238/241/1 237/238/1
f 270/242/1 104/239/1 271/240/1
f 159/243/1 238/241/1 160/237/1
f 159/243/1 239/244/1 238/241/1
f 270/242/1 105/245/1 104/239/1
f 269/246/1 105/245/1 270/242/1
f 159/243/1 240/247/1 239/244/1
f 268/248/1 105/245/1 269/246/1
f 268/248/1 106/249/1 105/245/1
f 159/243/1 241/250/1 240/247/1
f 158/251/1 241/250/1 159/243/1
f 267/252/1 106/249/1 268/248/1
f 158/251/1 242/253/1 241/250/1
f 267/252/1 107/254/1 106/249/1
f 266/255/1 107/254/1 267/252/1
f 158/251/1 243/256/1 242/253/1
f 265/257/1 107/254/1 266/255/1
f 157/258/1 243/256/1 158/251/1
f 157/258/1 244/259/1 243/256/1
f 264/260/1 107/254/1 265/257/1
f 264/260/1 108/261/1 107/254/1
f 157/258/1 245/262/1 244/259/1
f 263/263/1 108/261/1 264/260/1
f 157/258/1 246/264/1 245/262/1
f 262/265/1 108/261/1 263/263/1
f 156/266/1 246/264/1 157/258/1
f 156/266/1 247/267/1 246/264/1
f 262/265/1 109/268/1 108/261/1
f 261/269/1 109/268/1 262/265/1
f 156/266/1 248/270/1 247/267/1
f 260/271/1 109/268/1 261/269/1
f 156/266/1 249/272/1 248/270/1
f 259/273/1 109/268/1 260/271/1
f 156/266/1 250/274/1 249/272/1
f 258/275/1 109/268/1 259/273/1
f 258/275/1 110/276/1 109/268/1
f 155/277/1 250/274/1 156/266/1
f 155/277/1 251/278/1 250/274/1
f 257/279/1 110/276/1 258/275/1
f 155/277/1 252/280/1 251/278/1
f 256/281/1 110/276/1 257/279/1
f 155/277/1 253/282/1 252/280/1
f 255/283/1 110/276/1 256/281/1
f 155/277/1 254/284/1 253/282/1
f 254/284/1 110/276/1 255/283/1
f 155/277/1 110/276/1 254/284/1
f 155/277/1 111/285/1 110/276/1
f 154/286/1 111/285/1 155/277/1
f 154/286/1 112/287/1 111/285/1
f 153/288/1 112/287/1 154/286/1
f 153/288/1 113/289/1 112/287/1
f 152/290/1 113/289/1 153/288/1
f 152/290/1 114/291/1 113/289/1
f 151/292/1 114/291/1 152/290/1
f 151/292/1 115/293/1 114/291/1
f 151/292/1 116/294/1 115/293/1
f 150/295/1 116/294/1 151/292/1
f 150/295/1 117/296/1 116/294/1
f 149/297/1 117/296/1 150/295/1
f 149/297/1 118/298/1 117/296/1
f 148/299/1 118/298/1 149/297/1
f 148/299/1 119/300/1 118/298/1
f 147/301/1 119/300/1 148/299/1
f 147/301/1 120/302/1 119/300/1
f 146/303/1 120/302/1 147/301/1
f 146/303/1 121/304/1 120/302/1
f 145/305/1 121/304/1 146/303/1
f 145/305/1 122/306/1 121/304/1
f 144/307/1 122/306/1 145/305/1
f 144/307/1 123/308/1 122/306/1
f 143/309/1 123/308/1 144/307/1
f 143/309/1 124/310/1 123/308/1
f 143/309/1 125/311/1 124/310/1
f 142/312/1 125/311/1 143/309/1
f 142/312/1 126/313/1 125/311/1
f 141/314/1 126/313/1 142/312/1
f 141/314/1 127/315/1 126/313/1
f 140/316/1 127/315/1 141/314/1
f 140/316/1 128/317/1 127/315/1
f 139/318/1 128/317/1 140/316/1
f 139/318/1 129/319/1 128/317/1
f 138/320/1 129/319/1 139/318/1
f 138/320/1 130/321/1 129/319/1
f 137/322/1 130/321/1 138/320/1
f 137/322/1 131/323/1 130/321/1
f 136/324/1 131/323/1 137/322/1
f 136/324/1 132/325/1 131/323/1
f 135/326/1 132/325/1 136/324/1
f 135/326/1 133/327/1 132/325/1
f 134/328/1 133/327/1 135/326/1
