# Blender 4.4.1
# www.blender.org
mtllib 7.mtl
o テキスト
v 0.031963 -0.000000 -0.514928
v 0.449596 -0.000000 -0.514928
v 0.449596 -0.000000 -0.418335
v 0.440647 -0.000000 -0.410083
v 0.431946 -0.000000 -0.401719
v 0.423494 -0.000000 -0.393243
v 0.415291 -0.000000 -0.384654
v 0.407337 -0.000000 -0.375954
v 0.399631 -0.000000 -0.367141
v 0.392175 -0.000000 -0.358216
v 0.384967 -0.000000 -0.349178
v 0.378008 -0.000000 -0.340029
v 0.371297 -0.000000 -0.330767
v 0.364836 -0.000000 -0.321393
v 0.358623 -0.000000 -0.311907
v 0.351376 -0.000000 -0.300206
v 0.344388 -0.000000 -0.288286
v 0.337658 -0.000000 -0.276146
v 0.331187 -0.000000 -0.263786
v 0.324974 -0.000000 -0.251207
v 0.319020 -0.000000 -0.238409
v 0.313324 -0.000000 -0.225391
v 0.307887 -0.000000 -0.212153
v 0.302709 -0.000000 -0.198696
v 0.297789 -0.000000 -0.185019
v 0.293128 -0.000000 -0.171123
v 0.288725 -0.000000 -0.157007
v 0.285422 -0.000000 -0.145775
v 0.282305 -0.000000 -0.134206
v 0.279373 -0.000000 -0.122300
v 0.276626 -0.000000 -0.110057
v 0.274065 -0.000000 -0.097478
v 0.271690 -0.000000 -0.084563
v 0.269499 -0.000000 -0.071310
v 0.267494 -0.000000 -0.057722
v 0.265674 -0.000000 -0.043796
v 0.264040 -0.000000 -0.029534
v 0.262591 -0.000000 -0.014935
v 0.261328 0.000000 0.000000
v 0.118721 0.000000 0.000000
v 0.121666 -0.000000 -0.020733
v 0.124878 -0.000000 -0.040901
v 0.128359 -0.000000 -0.060502
v 0.132108 -0.000000 -0.079538
v 0.136125 -0.000000 -0.098008
v 0.140411 -0.000000 -0.115911
v 0.144965 -0.000000 -0.133249
v 0.149787 -0.000000 -0.150021
v 0.154878 -0.000000 -0.166228
v 0.160237 -0.000000 -0.181868
v 0.165864 -0.000000 -0.196942
v 0.171760 -0.000000 -0.211451
v 0.178082 -0.000000 -0.225759
v 0.184990 -0.000000 -0.240233
v 0.192483 -0.000000 -0.254874
v 0.200562 -0.000000 -0.269680
v 0.209226 -0.000000 -0.284651
v 0.218476 -0.000000 -0.299789
v 0.228311 -0.000000 -0.315093
v 0.238731 -0.000000 -0.330562
v 0.249737 -0.000000 -0.346198
v 0.261328 -0.000000 -0.361999
v 0.273504 -0.000000 -0.377966
v 0.286266 -0.000000 -0.394099
v 0.031963 -0.000000 -0.394099
vn -0.0000 1.0000 -0.0000
vt 0.000000 0.765348
vt 0.811051 1.000000
vt 0.000000 1.000000
vt 0.811051 0.812415
vt 0.793672 0.796389
vt 0.776775 0.780146
vt 0.493861 0.765348
vt 0.760361 0.763685
vt 0.469077 0.734017
vt 0.744430 0.747005
vt 0.728984 0.730110
vt 0.445431 0.703009
vt 0.714018 0.712995
vt 0.699539 0.695662
vt 0.422921 0.672323
vt 0.685541 0.678110
vt 0.672026 0.660343
vt 0.401547 0.641958
vt 0.658993 0.642356
vt 0.646446 0.624151
vt 0.381312 0.611917
vt 0.634380 0.605729
vt 0.362212 0.582196
vt 0.620306 0.583006
vt 0.606735 0.559857
vt 0.344248 0.552798
vt 0.593666 0.536281
vt 0.327422 0.523724
vt 0.581099 0.512277
vt 0.311733 0.494970
vt 0.569033 0.487849
vt 0.297181 0.466537
vt 0.557470 0.462995
vt 0.283766 0.438428
vt 0.546408 0.437714
vt 0.271488 0.410642
vt 0.535850 0.412005
vt 0.525794 0.385871
vt 0.260038 0.382465
vt 0.516239 0.359310
vt 0.249111 0.353191
vt 0.507187 0.332324
vt 0.238703 0.322818
vt 0.498637 0.304911
vt 0.228816 0.291344
vt 0.492222 0.283098
vt 0.219452 0.258772
vt 0.486169 0.260631
vt 0.480475 0.237509
vt 0.210608 0.225101
vt 0.475140 0.213733
vt 0.202285 0.190333
vt 0.470167 0.189304
vt 0.194484 0.154464
vt 0.465554 0.164223
vt 0.461299 0.138485
vt 0.187203 0.117496
vt 0.457406 0.112097
vt 0.180443 0.079431
vt 0.453871 0.085053
vt 0.450698 0.057356
vt 0.174205 0.040264
vt 0.447884 0.029004
vt 0.168486 0.000000
vt 0.445431 0.000000
s 1
usemtl マテリアル.005
f 65/1/1 2/2/1 1/3/1
f 65/1/1 3/4/1 2/2/1
f 65/1/1 4/5/1 3/4/1
f 65/1/1 5/6/1 4/5/1
f 65/1/1 64/7/1 5/6/1
f 64/7/1 6/8/1 5/6/1
f 63/9/1 6/8/1 64/7/1
f 63/9/1 7/10/1 6/8/1
f 63/9/1 8/11/1 7/10/1
f 62/12/1 8/11/1 63/9/1
f 62/12/1 9/13/1 8/11/1
f 62/12/1 10/14/1 9/13/1
f 61/15/1 10/14/1 62/12/1
f 61/15/1 11/16/1 10/14/1
f 61/15/1 12/17/1 11/16/1
f 60/18/1 12/17/1 61/15/1
f 60/18/1 13/19/1 12/17/1
f 60/18/1 14/20/1 13/19/1
f 59/21/1 14/20/1 60/18/1
f 59/21/1 15/22/1 14/20/1
f 58/23/1 15/22/1 59/21/1
f 58/23/1 16/24/1 15/22/1
f 58/23/1 17/25/1 16/24/1
f 57/26/1 17/25/1 58/23/1
f 57/26/1 18/27/1 17/25/1
f 56/28/1 18/27/1 57/26/1
f 56/28/1 19/29/1 18/27/1
f 55/30/1 19/29/1 56/28/1
f 55/30/1 20/31/1 19/29/1
f 54/32/1 20/31/1 55/30/1
f 54/32/1 21/33/1 20/31/1
f 53/34/1 21/33/1 54/32/1
f 53/34/1 22/35/1 21/33/1
f 52/36/1 22/35/1 53/34/1
f 52/36/1 23/37/1 22/35/1
f 52/36/1 24/38/1 23/37/1
f 51/39/1 24/38/1 52/36/1
f 51/39/1 25/40/1 24/38/1
f 50/41/1 25/40/1 51/39/1
f 50/41/1 26/42/1 25/40/1
f 49/43/1 26/42/1 50/41/1
f 49/43/1 27/44/1 26/42/1
f 48/45/1 27/44/1 49/43/1
f 48/45/1 28/46/1 27/44/1
f 47/47/1 28/46/1 48/45/1
f 47/47/1 29/48/1 28/46/1
f 47/47/1 30/49/1 29/48/1
f 46/50/1 30/49/1 47/47/1
f 46/50/1 31/51/1 30/49/1
f 45/52/1 31/51/1 46/50/1
f 45/52/1 32/53/1 31/51/1
f 44/54/1 32/53/1 45/52/1
f 44/54/1 33/55/1 32/53/1
f 44/54/1 34/56/1 33/55/1
f 43/57/1 34/56/1 44/54/1
f 43/57/1 35/58/1 34/56/1
f 42/59/1 35/58/1 43/57/1
f 42/59/1 36/60/1 35/58/1
f 42/59/1 37/61/1 36/60/1
f 41/62/1 37/61/1 42/59/1
f 41/62/1 38/63/1 37/61/1
f 40/64/1 38/63/1 41/62/1
f 40/64/1 39/65/1 38/63/1
