# Blender 4.4.1
# www.blender.org
mtllib 8.mtl
o テキスト.005
v -0.403320 0.080349 0.000000
v -0.419799 0.089391 0.000000
v -0.435516 0.098613 0.000000
v -0.450474 0.108009 0.000000
v -0.464670 0.117579 0.000000
v -0.478107 0.127326 0.000000
v -0.490779 0.137250 0.000000
v -0.502692 0.147348 0.000000
v -0.513846 0.157623 0.000000
v -0.524235 0.168072 0.000000
v -0.533865 0.178698 0.000000
v -0.542736 0.189498 0.000000
v -0.550842 0.200475 0.000000
v -0.560940 0.215769 0.000000
v -0.570162 0.231441 0.000000
v -0.578505 0.247497 0.000000
v -0.585969 0.263934 0.000000
v -0.592554 0.280749 0.000000
v -0.598260 0.297945 0.000000
v -0.603090 0.315522 0.000000
v -0.607041 0.333480 0.000000
v -0.610116 0.351819 0.000000
v -0.612312 0.370536 0.000000
v -0.613629 0.389634 0.000000
v -0.614067 0.409116 0.000000
v -0.612801 0.440940 0.000000
v -0.609003 0.471783 0.000000
v -0.602673 0.501645 0.000000
v -0.593811 0.530529 0.000000
v -0.582420 0.558432 0.000000
v -0.568494 0.585354 0.000000
v -0.552036 0.611295 0.000000
v -0.533046 0.636255 0.000000
v -0.511524 0.660234 0.000000
v -0.487473 0.683235 0.000000
v -0.460887 0.705252 0.000000
v -0.431769 0.726291 0.000000
v -0.407424 0.741438 0.000000
v -0.381804 0.755268 0.000000
v -0.354912 0.767781 0.000000
v -0.326748 0.778977 0.000000
v -0.297309 0.788856 0.000000
v -0.266595 0.797418 0.000000
v -0.234612 0.804663 0.000000
v -0.201351 0.810591 0.000000
v -0.166821 0.815199 0.000000
v -0.131016 0.818493 0.000000
v -0.093936 0.820470 0.000000
v -0.055584 0.821127 0.000000
v -0.005076 0.820308 0.000000
v 0.043188 0.817848 0.000000
v 0.089205 0.813750 0.000000
v 0.132975 0.808014 0.000000
v 0.174501 0.800637 0.000000
v 0.213777 0.791622 0.000000
v 0.250809 0.780969 0.000000
v 0.285594 0.768675 0.000000
v 0.318132 0.754743 0.000000
v 0.348423 0.739170 0.000000
v 0.376467 0.721959 0.000000
v 0.402267 0.703110 0.000000
v 0.425913 0.683013 0.000000
v 0.447504 0.662070 0.000000
v 0.467037 0.640278 0.000000
v 0.484515 0.617640 0.000000
v 0.499938 0.594150 0.000000
v 0.513303 0.569811 0.000000
v 0.524613 0.544623 0.000000
v 0.533865 0.518586 0.000000
v 0.541062 0.491703 0.000000
v 0.546204 0.463968 0.000000
v 0.549288 0.435384 0.000000
v 0.550317 0.405954 0.000000
v 0.549906 0.388662 0.000000
v 0.548676 0.371562 0.000000
v 0.546627 0.354651 0.000000
v 0.543759 0.337929 0.000000
v 0.540072 0.321399 0.000000
v 0.535563 0.305058 0.000000
v 0.530238 0.288909 0.000000
v 0.524091 0.272949 0.000000
v 0.517122 0.257178 0.000000
v 0.509337 0.241599 0.000000
v 0.500733 0.226212 0.000000
v 0.491307 0.211011 0.000000
v 0.483579 0.199800 0.000000
v 0.475149 0.188649 0.000000
v 0.466017 0.177555 0.000000
v 0.456183 0.166521 0.000000
v 0.445644 0.155544 0.000000
v 0.434406 0.144627 0.000000
v 0.422463 0.133767 0.000000
v 0.409818 0.122967 0.000000
v 0.396471 0.112224 0.000000
v 0.382419 0.101541 0.000000
v 0.367668 0.090915 0.000000
v 0.352212 0.080349 0.000000
v 0.372669 0.070068 0.000000
v 0.392241 0.059244 0.000000
v 0.410925 0.047880 0.000000
v 0.428727 0.035973 0.000000
v 0.445641 0.023526 0.000000
v 0.461670 0.010539 0.000000
v 0.476814 -0.002994 0.000000
v 0.491073 -0.017064 0.000000
v 0.504447 -0.031677 0.000000
v 0.516933 -0.046833 0.000000
v 0.528534 -0.062529 0.000000
v 0.539253 -0.078768 0.000000
v 0.549099 -0.095421 0.000000
v 0.558087 -0.112371 0.000000
v 0.566220 -0.129609 0.000000
v 0.573498 -0.147144 0.000000
v 0.579921 -0.164970 0.000000
v 0.585486 -0.183087 0.000000
v 0.590193 -0.201498 0.000000
v 0.594045 -0.220203 0.000000
v 0.597042 -0.239199 0.000000
v 0.599184 -0.258489 0.000000
v 0.600468 -0.278070 0.000000
v 0.600897 -0.297945 0.000000
v 0.600525 -0.317157 0.000000
v 0.599418 -0.336159 0.000000
v 0.597570 -0.354945 0.000000
v 0.594984 -0.373521 0.000000
v 0.591657 -0.391887 0.000000
v 0.587592 -0.410037 0.000000
v 0.582789 -0.427977 0.000000
v 0.577245 -0.445704 0.000000
v 0.570963 -0.463218 0.000000
v 0.563943 -0.480519 0.000000
v 0.556182 -0.497610 0.000000
v 0.547683 -0.514488 0.000000
v 0.538644 -0.530943 0.000000
v 0.529272 -0.546759 0.000000
v 0.519561 -0.561939 0.000000
v 0.509514 -0.576483 0.000000
v 0.499128 -0.590391 0.000000
v 0.488409 -0.603663 0.000000
v 0.477351 -0.616296 0.000000
v 0.465957 -0.628293 0.000000
v 0.454227 -0.639654 0.000000
v 0.442161 -0.650379 0.000000
v 0.429759 -0.660465 0.000000
v 0.417018 -0.669915 0.000000
v 0.403845 -0.678846 0.000000
v 0.390147 -0.687375 0.000000
v 0.375921 -0.695502 0.000000
v 0.361170 -0.703227 0.000000
v 0.345891 -0.710547 0.000000
v 0.330084 -0.717465 0.000000
v 0.313752 -0.723981 0.000000
v 0.296892 -0.730095 0.000000
v 0.279504 -0.735807 0.000000
v 0.261591 -0.741117 0.000000
v 0.243150 -0.746022 0.000000
v 0.224184 -0.750528 -0.000000
v 0.204846 -0.754650 -0.000000
v 0.185298 -0.758415 -0.000000
v 0.165537 -0.761823 -0.000000
v 0.145563 -0.764868 -0.000000
v 0.125376 -0.767559 -0.000000
v 0.104979 -0.769890 -0.000000
v 0.084369 -0.771861 -0.000000
v 0.063546 -0.773475 -0.000000
v 0.042513 -0.774729 -0.000000
v 0.021264 -0.775626 -0.000000
v -0.000195 -0.776163 -0.000000
v -0.021864 -0.776343 -0.000000
v -0.061980 -0.775941 -0.000000
v -0.100485 -0.774735 -0.000000
v -0.137382 -0.772722 -0.000000
v -0.172668 -0.769905 -0.000000
v -0.206343 -0.766281 -0.000000
v -0.238410 -0.761856 -0.000000
v -0.268866 -0.756621 -0.000000
v -0.297711 -0.750585 -0.000000
v -0.324948 -0.743742 0.000000
v -0.350574 -0.736095 0.000000
v -0.374589 -0.727644 0.000000
v -0.396996 -0.718389 0.000000
v -0.418167 -0.708348 0.000000
v -0.438474 -0.697548 0.000000
v -0.457917 -0.685986 0.000000
v -0.476496 -0.673662 0.000000
v -0.494211 -0.660579 0.000000
v -0.511065 -0.646734 0.000000
v -0.527052 -0.632127 0.000000
v -0.542178 -0.616761 0.000000
v -0.556440 -0.600633 0.000000
v -0.569841 -0.583743 0.000000
v -0.582375 -0.566094 0.000000
v -0.594045 -0.547683 0.000000
v -0.604818 -0.528708 0.000000
v -0.614652 -0.509367 0.000000
v -0.623550 -0.489660 0.000000
v -0.631512 -0.469587 0.000000
v -0.638538 -0.449151 0.000000
v -0.644625 -0.428346 0.000000
v -0.649779 -0.407175 0.000000
v -0.653994 -0.385641 0.000000
v -0.657270 -0.363738 0.000000
v -0.659613 -0.341472 0.000000
v -0.661017 -0.318837 0.000000
v -0.661485 -0.295839 0.000000
v -0.661047 -0.273471 0.000000
v -0.659730 -0.251682 0.000000
v -0.657534 -0.230472 0.000000
v -0.654462 -0.209841 0.000000
v -0.650508 -0.189786 0.000000
v -0.645681 -0.170310 0.000000
v -0.639972 -0.151413 0.000000
v -0.633387 -0.133092 0.000000
v -0.625923 -0.115353 0.000000
v -0.617580 -0.098187 0.000000
v -0.608361 -0.081603 0.000000
v -0.598260 -0.065595 0.000000
v -0.587247 -0.050172 0.000000
v -0.575283 -0.035343 0.000000
v -0.562368 -0.021108 0.000000
v -0.548502 -0.007464 0.000000
v -0.533682 0.005586 0.000000
v -0.517914 0.018045 0.000000
v -0.501192 0.029910 0.000000
v -0.483522 0.041184 0.000000
v -0.464898 0.051864 0.000000
v -0.445323 0.061950 0.000000
v -0.424797 0.071445 0.000000
v -0.210486 0.383826 0.000000
v -0.210138 0.370695 0.000000
v -0.209094 0.357993 0.000000
v -0.207357 0.345726 0.000000
v -0.204924 0.333891 0.000000
v -0.201795 0.322485 0.000000
v -0.197973 0.311511 0.000000
v -0.193452 0.300972 0.000000
v -0.188238 0.290862 0.000000
v -0.182331 0.281184 0.000000
v -0.175725 0.271938 0.000000
v -0.168426 0.263124 0.000000
v -0.160431 0.254742 0.000000
v -0.151860 0.246915 0.000000
v -0.142827 0.239769 0.000000
v -0.133332 0.233304 0.000000
v -0.123375 0.227520 0.000000
v -0.112959 0.222417 0.000000
v -0.102081 0.217992 0.000000
v -0.090741 0.214251 0.000000
v -0.078942 0.211188 0.000000
v -0.066681 0.208806 0.000000
v -0.053961 0.207105 0.000000
v -0.040776 0.206082 0.000000
v -0.027135 0.205743 0.000000
v -0.015024 0.206079 0.000000
v -0.003279 0.207090 0.000000
v 0.008100 0.208773 0.000000
v 0.019113 0.211128 0.000000
v 0.029760 0.214158 0.000000
v 0.040041 0.217860 0.000000
v 0.049959 0.222237 0.000000
v 0.059508 0.227286 0.000000
v 0.068691 0.233010 0.000000
v 0.077508 0.239403 0.000000
v 0.085959 0.246474 0.000000
v 0.094047 0.254214 0.000000
v 0.101619 0.262491 0.000000
v 0.108534 0.271164 0.000000
v 0.114792 0.280230 0.000000
v 0.120390 0.289692 0.000000
v 0.125328 0.299547 0.000000
v 0.129609 0.309801 0.000000
v 0.133233 0.320448 0.000000
v 0.136197 0.331488 0.000000
v 0.138501 0.342927 0.000000
v 0.140148 0.354759 0.000000
v 0.141135 0.366987 0.000000
v 0.141465 0.379611 0.000000
v 0.141120 0.392748 0.000000
v 0.140088 0.405471 0.000000
v 0.138369 0.417774 0.000000
v 0.135963 0.429663 0.000000
v 0.132867 0.441132 0.000000
v 0.129084 0.452187 0.000000
v 0.124611 0.462822 0.000000
v 0.119454 0.473043 0.000000
v 0.113607 0.482844 0.000000
v 0.107073 0.492228 0.000000
v 0.099849 0.501198 0.000000
v 0.091938 0.509748 0.000000
v 0.083493 0.517743 0.000000
v 0.074670 0.525042 0.000000
v 0.065463 0.531645 0.000000
v 0.055878 0.537555 0.000000
v 0.045912 0.542769 0.000000
v 0.035565 0.547287 0.000000
v 0.024837 0.551109 0.000000
v 0.013728 0.554238 0.000000
v 0.002238 0.556671 0.000000
v -0.009630 0.558408 0.000000
v -0.021879 0.559452 0.000000
v -0.034509 0.559800 0.000000
v -0.047304 0.559461 0.000000
v -0.059697 0.558438 0.000000
v -0.071688 0.556737 0.000000
v -0.083274 0.554355 0.000000
v -0.094461 0.551292 0.000000
v -0.105243 0.547551 0.000000
v -0.115623 0.543126 0.000000
v -0.125601 0.538023 0.000000
v -0.135174 0.532239 0.000000
v -0.144348 0.525774 0.000000
v -0.153117 0.518628 0.000000
v -0.161487 0.510801 0.000000
v -0.169311 0.502434 0.000000
v -0.176457 0.493662 0.000000
v -0.182922 0.484491 0.000000
v -0.188706 0.474915 0.000000
v -0.193812 0.464937 0.000000
v -0.198234 0.454557 0.000000
v -0.201978 0.443775 0.000000
v -0.205041 0.432591 0.000000
v -0.207423 0.421002 0.000000
v -0.209124 0.409011 0.000000
v -0.210144 0.396621 0.000000
v -0.233667 -0.281085 0.000000
v -0.233235 -0.297861 0.000000
v -0.231939 -0.314118 0.000000
v -0.229782 -0.329853 0.000000
v -0.226758 -0.345072 0.000000
v -0.222873 -0.359769 0.000000
v -0.218124 -0.373947 0.000000
v -0.212511 -0.387606 0.000000
v -0.206037 -0.400743 0.000000
v -0.198696 -0.413364 0.000000
v -0.190494 -0.425463 0.000000
v -0.181425 -0.437043 0.000000
v -0.171495 -0.448104 0.000000
v -0.161010 -0.458454 0.000000
v -0.150276 -0.467904 0.000000
v -0.139290 -0.476454 0.000000
v -0.128058 -0.484107 0.000000
v -0.116577 -0.490857 0.000000
v -0.104847 -0.496707 0.000000
v -0.092868 -0.501657 0.000000
v -0.080640 -0.505707 0.000000
v -0.068163 -0.508857 0.000000
v -0.055437 -0.511107 0.000000
v -0.042465 -0.512457 0.000000
v -0.029241 -0.512907 0.000000
v -0.016530 -0.512451 0.000000
v -0.004038 -0.511080 0.000000
v 0.008232 -0.508791 0.000000
v 0.020286 -0.505590 0.000000
v 0.032118 -0.501474 0.000000
v 0.043731 -0.496443 0.000000
v 0.055125 -0.490497 0.000000
v 0.066297 -0.483639 0.000000
v 0.077253 -0.475863 0.000000
v 0.087987 -0.467172 0.000000
v 0.098502 -0.457569 0.000000
v 0.108798 -0.447051 0.000000
v 0.118560 -0.435828 0.000000
v 0.127473 -0.424116 0.000000
v 0.135537 -0.411915 0.000000
v 0.142752 -0.399222 0.000000
v 0.149118 -0.386040 0.000000
v 0.154638 -0.372366 0.000000
v 0.159306 -0.358203 0.000000
v 0.163125 -0.343548 0.000000
v 0.166095 -0.328404 0.000000
v 0.168219 -0.312771 0.000000
v 0.169491 -0.296646 0.000000
v 0.169917 -0.280032 0.000000
v 0.169488 -0.263253 0.000000
v 0.168204 -0.246984 0.000000
v 0.166062 -0.231231 0.000000
v 0.163065 -0.215988 0.000000
v 0.159213 -0.201258 0.000000
v 0.154506 -0.187038 0.000000
v 0.148941 -0.173334 0.000000
v 0.142518 -0.160140 0.000000
v 0.135240 -0.147459 0.000000
v 0.127107 -0.135288 0.000000
v 0.118119 -0.123633 0.000000
v 0.108273 -0.112488 0.000000
v 0.097863 -0.102051 0.000000
v 0.087183 -0.092523 0.000000
v 0.076233 -0.083904 0.000000
v 0.065010 -0.076191 0.000000
v 0.053517 -0.069387 0.000000
v 0.041754 -0.063489 0.000000
v 0.029721 -0.058497 0.000000
v 0.017415 -0.054414 0.000000
v 0.004842 -0.051237 0.000000
v -0.008007 -0.048969 0.000000
v -0.021123 -0.047610 0.000000
v -0.034509 -0.047154 0.000000
v -0.047715 -0.047595 0.000000
v -0.060633 -0.048912 0.000000
v -0.073269 -0.051105 0.000000
v -0.085617 -0.054180 0.000000
v -0.097680 -0.058131 0.000000
v -0.109458 -0.062961 0.000000
v -0.120951 -0.068670 0.000000
v -0.132156 -0.075255 0.000000
v -0.143079 -0.082719 0.000000
v -0.153714 -0.091062 0.000000
v -0.164064 -0.100281 0.000000
v -0.174132 -0.110379 0.000000
v -0.183639 -0.121224 0.000000
v -0.192321 -0.132684 0.000000
v -0.200178 -0.144759 0.000000
v -0.207207 -0.157446 0.000000
v -0.213408 -0.170751 0.000000
v -0.218784 -0.184668 0.000000
v -0.223332 -0.199200 0.000000
v -0.227052 -0.214347 0.000000
v -0.229947 -0.230112 0.000000
v -0.232014 -0.246486 0.000000
v -0.233253 -0.263478 0.000000
vn -0.0000 -0.0000 -1.0000
vt 0.344014 0.999199
vt 0.368019 1.000000
vt 0.399651 1.000000
vt 0.320818 0.997585
vt 0.429894 0.998950
vt 0.298433 0.995159
vt 0.458748 0.996851
vt 0.276861 0.991924
vt 0.486210 0.993704
vt 0.256096 0.987874
vt 0.512285 0.989507
vt 0.236145 0.983014
vt 0.536968 0.984261
vt 0.217001 0.977341
vt 0.560262 0.977967
vt 0.198670 0.970857
vt 0.582166 0.970623
vt 0.181150 0.963561
vt 0.602679 0.962231
vt 0.164439 0.955454
vt 0.148539 0.946534
vt 0.621803 0.952788
vt 0.133450 0.936804
vt 0.639536 0.942297
vt 0.115433 0.923335
vt 0.655881 0.930757
vt 0.099011 0.909280
vt 0.670890 0.918414
vt 0.084186 0.894635
vt 0.684621 0.905521
vt 0.697072 0.892075
vt 0.070954 0.879403
vt 0.708245 0.878079
vt 0.059318 0.863583
vt 0.718140 0.863528
vt 0.049276 0.847174
vt 0.726755 0.848425
vt 0.040831 0.830176
vt 0.383868 0.836595
vt 0.734092 0.832769
vt 0.375860 0.836253
vt 0.391779 0.836506
vt 0.368111 0.835487
vt 0.399459 0.835976
vt 0.360621 0.834300
vt 0.033982 0.812591
vt 0.406907 0.835009
vt 0.353391 0.832691
vt 0.414125 0.833603
vt 0.346418 0.830660
vt 0.421113 0.831756
vt 0.339705 0.828208
vt 0.427868 0.829472
vt 0.333251 0.825332
vt 0.434393 0.826749
vt 0.740149 0.816561
vt 0.327055 0.822036
vt 0.440685 0.823585
vt 0.321120 0.818317
vt 0.446746 0.819982
vt 0.315442 0.814176
vt 0.452578 0.815942
vt 0.028727 0.794416
vt 0.310024 0.809613
vt 0.458176 0.811461
vt 0.304863 0.804628
vt 0.744928 0.799803
vt 0.463545 0.806541
vt 0.300049 0.799310
vt 0.468585 0.801268
vt 0.295664 0.793745
vt 0.025066 0.775655
vt 0.473199 0.795725
vt 0.291710 0.787937
vt 0.477385 0.789916
vt 0.748429 0.782490
vt 0.288185 0.781883
vt 0.481146 0.783839
vt 0.285090 0.775584
vt 0.484478 0.777492
vt 0.023002 0.756305
vt 0.282427 0.769040
vt 0.750650 0.764624
vt 0.487387 0.770879
vt 0.280192 0.762251
vt 0.489867 0.763996
vt 0.278388 0.755218
vt 0.491922 0.756846
vt 0.022532 0.736367
vt 0.751593 0.746209
vt 0.277014 0.747938
vt 0.493549 0.749427
vt 0.276071 0.740413
vt 0.494751 0.741741
vt 0.023004 0.724174
vt 0.275558 0.732645
vt 0.751511 0.735378
vt 0.495526 0.733786
vt 0.275474 0.724630
vt 0.495875 0.725564
vt 0.024023 0.712230
vt 0.750915 0.724659
vt 0.275825 0.716412
vt 0.495797 0.717657
vt 0.749803 0.714050
vt 0.276607 0.708470
vt 0.025587 0.700534
vt 0.495303 0.709991
vt 0.277819 0.700807
vt 0.494392 0.702566
vt 0.748177 0.703551
vt 0.027699 0.689083
vt 0.279463 0.693422
vt 0.493066 0.695381
vt 0.746037 0.693164
vt 0.281538 0.686313
vt 0.030355 0.677879
vt 0.491322 0.688438
vt 0.284042 0.679480
vt 0.743380 0.682887
vt 0.489161 0.681735
vt 0.033558 0.666923
vt 0.286980 0.672928
vt 0.486585 0.675272
vt 0.740210 0.672722
vt 0.290347 0.666651
vt 0.483593 0.669051
vt 0.037305 0.656214
vt 0.294144 0.660651
vt 0.480184 0.663070
vt 0.736523 0.662667
vt 0.298374 0.654929
vt 0.041598 0.645753
vt 0.476358 0.657331
vt 0.732320 0.652722
vt 0.303033 0.649485
vt 0.472116 0.651830
vt 0.046438 0.635538
vt 0.308124 0.644318
vt 0.467460 0.646571
vt 0.727604 0.642889
vt 0.313570 0.639505
vt 0.462474 0.641643
vt 0.051825 0.625570
vt 0.319298 0.635122
vt 0.457255 0.637130
vt 0.722373 0.633167
vt 0.325308 0.631171
vt 0.451799 0.633038
vt 0.331601 0.627650
vt 0.446108 0.629361
vt 0.057758 0.615851
vt 0.338175 0.624561
vt 0.440180 0.626102
vt 0.716625 0.623554
vt 0.345030 0.621901
vt 0.434015 0.623261
vt 0.352168 0.619674
vt 0.427616 0.620839
vt 0.064236 0.606378
vt 0.359587 0.617876
vt 0.420980 0.618834
vt 0.367288 0.616509
vt 0.414109 0.617248
vt 0.711901 0.616457
vt 0.375269 0.615573
vt 0.407002 0.616078
vt 0.383535 0.615067
vt 0.399658 0.615326
vt 0.392079 0.614993
vt 0.069422 0.599587
vt 0.706736 0.609389
vt 0.075086 0.592915
vt 0.701131 0.602351
vt 0.081224 0.586360
vt 0.695086 0.595342
vt 0.087834 0.579923
vt 0.688599 0.588362
vt 0.094922 0.573603
vt 0.681673 0.581413
vt 0.102483 0.567402
vt 0.674306 0.574492
vt 0.110518 0.561317
vt 0.666498 0.567602
vt 0.119030 0.555351
vt 0.658251 0.560740
vt 0.128016 0.549503
vt 0.649561 0.553909
vt 0.137476 0.543772
vt 0.640433 0.547106
vt 0.147410 0.538158
vt 0.630864 0.540334
vt 0.157820 0.532664
vt 0.144463 0.526871
vt 0.643776 0.534105
vt 0.131708 0.520718
vt 0.656140 0.527526
vt 0.119555 0.514204
vt 0.667954 0.520601
vt 0.108002 0.507328
vt 0.679221 0.513327
vt 0.097054 0.500090
vt 0.689937 0.505705
vt 0.086704 0.492491
vt 0.700105 0.497737
vt 0.076958 0.484531
vt 0.709724 0.489417
vt 0.067812 0.476209
vt 0.718794 0.480753
vt 0.059269 0.467526
vt 0.727316 0.471739
vt 0.051327 0.458482
vt 0.735288 0.462377
vt 0.043987 0.449076
vt 0.390029 0.456577
vt 0.742710 0.452667
vt 0.381765 0.456167
vt 0.398415 0.456428
vt 0.373691 0.455211
vt 0.406641 0.455710
vt 0.365802 0.453710
vt 0.414709 0.454420
vt 0.037248 0.439308
vt 0.358102 0.451659
vt 0.422613 0.452559
vt 0.350589 0.449063
vt 0.430359 0.450127
vt 0.343264 0.445920
vt 0.437944 0.447124
vt 0.749587 0.442608
vt 0.336126 0.442228
vt 0.445369 0.443551
vt 0.031086 0.429183
vt 0.329177 0.437992
vt 0.452634 0.439407
vt 0.322414 0.433208
vt 0.459739 0.434692
vt 0.755920 0.432282
vt 0.025483 0.418706
vt 0.315840 0.427876
vt 0.466682 0.429407
vt 0.309453 0.421999
vt 0.473466 0.423550
vt 0.761720 0.421761
vt 0.020433 0.407873
vt 0.303252 0.415574
vt 0.480089 0.417121
vt 0.297410 0.408688
vt 0.766987 0.411050
vt 0.486367 0.410243
vt 0.015940 0.396691
vt 0.292090 0.401424
vt 0.492113 0.403037
vt 0.771722 0.400145
vt 0.287294 0.393784
vt 0.012003 0.385153
vt 0.497329 0.395499
vt 0.283022 0.385770
vt 0.775924 0.389050
vt 0.502014 0.387633
vt 0.008621 0.373264
vt 0.279274 0.377376
vt 0.506170 0.379438
vt 0.779592 0.377763
vt 0.005796 0.361021
vt 0.276050 0.368608
vt 0.509793 0.370914
vt 0.782726 0.366284
vt 0.273350 0.359463
vt 0.512884 0.362058
vt 0.003524 0.348424
vt 0.271174 0.349942
vt 0.515446 0.352875
vt 0.785328 0.354611
vt 0.001810 0.335476
vt 0.269522 0.340042
vt 0.517477 0.343362
vt 0.787397 0.342748
vt 0.268394 0.329769
vt 0.000651 0.322174
vt 0.518978 0.333520
vt 0.788934 0.330692
vt 0.267790 0.319118
vt 0.519947 0.323347
vt 0.000047 0.308518
vt 0.789937 0.318446
vt 0.520386 0.312846
vt 0.267710 0.308090
vt 0.000000 0.294509
vt 0.790407 0.306006
vt 0.520288 0.302440
vt 0.268151 0.297591
vt 0.000527 0.280114
vt 0.519655 0.292331
vt 0.269127 0.287425
vt 0.790369 0.293974
vt 0.518484 0.282521
vt 0.270638 0.277595
vt 0.789869 0.282065
vt 0.001635 0.265957
vt 0.516778 0.273009
vt 0.272685 0.268097
vt 0.788903 0.270284
vt 0.003328 0.252040
vt 0.514536 0.263795
vt 0.275267 0.258935
vt 0.787472 0.258627
vt 0.511757 0.254880
vt 0.278384 0.250106
vt 0.005602 0.238359
vt 0.508440 0.246263
vt 0.785576 0.247095
vt 0.282037 0.241611
vt 0.008460 0.224920
vt 0.504588 0.237945
vt 0.286224 0.233452
vt 0.783215 0.235689
vt 0.500199 0.229924
vt 0.290948 0.225624
vt 0.011901 0.211717
vt 0.780390 0.224408
vt 0.495274 0.222203
vt 0.296207 0.218132
vt 0.489813 0.214780
vt 0.302002 0.210974
vt 0.777099 0.213253
vt 0.015924 0.198752
vt 0.483815 0.207654
vt 0.308332 0.204149
vt 0.773343 0.202224
vt 0.477475 0.200964
vt 0.315002 0.197775
vt 0.020530 0.186028
vt 0.470989 0.194845
vt 0.321818 0.191968
vt 0.769124 0.191320
vt 0.464357 0.189294
vt 0.328783 0.186726
vt 0.025719 0.173541
vt 0.457576 0.184315
vt 0.335894 0.182048
vt 0.764438 0.180540
vt 0.450651 0.179907
vt 0.343150 0.177939
vt 0.031490 0.161293
vt 0.443577 0.176069
vt 0.350554 0.174395
vt 0.436357 0.172801
vt 0.358104 0.171417
vt 0.759288 0.169887
vt 0.428991 0.170104
vt 0.365802 0.169006
vt 0.421476 0.167977
vt 0.373646 0.167160
vt 0.413817 0.166419
vt 0.381636 0.165881
vt 0.037844 0.149283
vt 0.406010 0.165434
vt 0.389772 0.165167
vt 0.398056 0.165020
vt 0.753796 0.159492
vt 0.044781 0.137512
vt 0.748088 0.149495
vt 0.742162 0.139892
vt 0.052275 0.126104
vt 0.736020 0.130684
vt 0.060302 0.115181
vt 0.729658 0.121870
vt 0.068864 0.104742
vt 0.723082 0.113452
vt 0.077957 0.094789
vt 0.716286 0.105430
vt 0.709274 0.097803
vt 0.087583 0.085321
vt 0.702045 0.090571
vt 0.097741 0.076338
vt 0.694600 0.083733
vt 0.108434 0.067841
vt 0.686937 0.077292
vt 0.679056 0.071246
vt 0.119659 0.059829
vt 0.670899 0.065521
vt 0.131416 0.052302
vt 0.662409 0.060042
vt 0.143707 0.045260
vt 0.653584 0.054809
vt 0.644427 0.049823
vt 0.156531 0.038704
vt 0.634935 0.045084
vt 0.169888 0.032633
vt 0.625108 0.040592
vt 0.614949 0.036347
vt 0.184011 0.027065
vt 0.604455 0.032348
vt 0.199133 0.022018
vt 0.593626 0.028595
vt 0.582465 0.025088
vt 0.215255 0.017490
vt 0.570968 0.021830
vt 0.232378 0.013482
vt 0.559139 0.018816
vt 0.547074 0.016039
vt 0.250499 0.009996
vt 0.534873 0.013483
vt 0.269621 0.007028
vt 0.522535 0.011149
vt 0.510060 0.009040
vt 0.289743 0.004583
vt 0.497448 0.007150
vt 0.310864 0.002655
vt 0.484701 0.005484
vt 0.471817 0.004040
vt 0.332986 0.001250
vt 0.458796 0.002818
vt 0.356108 0.000364
vt 0.445640 0.001820
vt 0.432345 0.001042
vt 0.380228 -0.000000
vt 0.418914 0.000488
vt 0.405349 0.000156
s 1
usemtl マテリアル.014
f 48/1/1 49/2/1 50/3/1
f 47/4/1 48/1/1 50/3/1
f 47/4/1 50/3/1 51/5/1
f 46/6/1 47/4/1 51/5/1
f 46/6/1 51/5/1 52/7/1
f 45/8/1 46/6/1 52/7/1
f 45/8/1 52/7/1 53/9/1
f 44/10/1 45/8/1 53/9/1
f 44/10/1 53/9/1 54/11/1
f 43/12/1 44/10/1 54/11/1
f 43/12/1 54/11/1 55/13/1
f 42/14/1 43/12/1 55/13/1
f 42/14/1 55/13/1 56/15/1
f 41/16/1 42/14/1 56/15/1
f 41/16/1 56/15/1 57/17/1
f 40/18/1 41/16/1 57/17/1
f 40/18/1 57/17/1 58/19/1
f 39/20/1 40/18/1 58/19/1
f 38/21/1 39/20/1 58/19/1
f 38/21/1 58/19/1 59/22/1
f 37/23/1 38/21/1 59/22/1
f 37/23/1 59/22/1 60/24/1
f 36/25/1 37/23/1 60/24/1
f 36/25/1 60/24/1 61/26/1
f 35/27/1 36/25/1 61/26/1
f 35/27/1 61/26/1 62/28/1
f 34/29/1 35/27/1 62/28/1
f 34/29/1 62/28/1 63/30/1
f 34/29/1 63/30/1 64/31/1
f 33/32/1 34/29/1 64/31/1
f 33/32/1 64/31/1 65/33/1
f 32/34/1 33/32/1 65/33/1
f 32/34/1 65/33/1 66/35/1
f 31/36/1 32/34/1 66/35/1
f 31/36/1 66/35/1 67/37/1
f 30/38/1 31/36/1 67/37/1
f 30/38/1 67/37/1 301/39/1
f 301/39/1 67/37/1 68/40/1
f 30/38/1 301/39/1 302/41/1
f 300/42/1 301/39/1 68/40/1
f 30/38/1 302/41/1 303/43/1
f 299/44/1 300/42/1 68/40/1
f 30/38/1 303/43/1 304/45/1
f 29/46/1 30/38/1 304/45/1
f 298/47/1 299/44/1 68/40/1
f 29/46/1 304/45/1 305/48/1
f 297/49/1 298/47/1 68/40/1
f 29/46/1 305/48/1 306/50/1
f 296/51/1 297/49/1 68/40/1
f 29/46/1 306/50/1 307/52/1
f 295/53/1 296/51/1 68/40/1
f 29/46/1 307/52/1 308/54/1
f 294/55/1 295/53/1 68/40/1
f 294/55/1 68/40/1 69/56/1
f 29/46/1 308/54/1 309/57/1
f 293/58/1 294/55/1 69/56/1
f 29/46/1 309/57/1 310/59/1
f 292/60/1 293/58/1 69/56/1
f 29/46/1 310/59/1 311/61/1
f 291/62/1 292/60/1 69/56/1
f 28/63/1 29/46/1 311/61/1
f 28/63/1 311/61/1 312/64/1
f 290/65/1 291/62/1 69/56/1
f 28/63/1 312/64/1 313/66/1
f 290/65/1 69/56/1 70/67/1
f 289/68/1 290/65/1 70/67/1
f 28/63/1 313/66/1 314/69/1
f 288/70/1 289/68/1 70/67/1
f 28/63/1 314/69/1 315/71/1
f 27/72/1 28/63/1 315/71/1
f 287/73/1 288/70/1 70/67/1
f 27/72/1 315/71/1 316/74/1
f 286/75/1 287/73/1 70/67/1
f 286/75/1 70/67/1 71/76/1
f 27/72/1 316/74/1 317/77/1
f 285/78/1 286/75/1 71/76/1
f 27/72/1 317/77/1 318/79/1
f 284/80/1 285/78/1 71/76/1
f 26/81/1 27/72/1 318/79/1
f 26/81/1 318/79/1 319/82/1
f 284/80/1 71/76/1 72/83/1
f 283/84/1 284/80/1 72/83/1
f 26/81/1 319/82/1 320/85/1
f 282/86/1 283/84/1 72/83/1
f 26/81/1 320/85/1 321/87/1
f 281/88/1 282/86/1 72/83/1
f 25/89/1 26/81/1 321/87/1
f 281/88/1 72/83/1 73/90/1
f 25/89/1 321/87/1 322/91/1
f 280/92/1 281/88/1 73/90/1
f 25/89/1 322/91/1 323/93/1
f 279/94/1 280/92/1 73/90/1
f 24/95/1 25/89/1 323/93/1
f 24/95/1 323/93/1 324/96/1
f 279/94/1 73/90/1 74/97/1
f 278/98/1 279/94/1 74/97/1
f 24/95/1 324/96/1 229/99/1
f 277/100/1 278/98/1 74/97/1
f 23/101/1 24/95/1 229/99/1
f 277/100/1 74/97/1 75/102/1
f 23/101/1 229/99/1 230/103/1
f 276/104/1 277/100/1 75/102/1
f 276/104/1 75/102/1 76/105/1
f 23/101/1 230/103/1 231/106/1
f 22/107/1 23/101/1 231/106/1
f 275/108/1 276/104/1 76/105/1
f 22/107/1 231/106/1 232/109/1
f 274/110/1 275/108/1 76/105/1
f 274/110/1 76/105/1 77/111/1
f 21/112/1 22/107/1 232/109/1
f 21/112/1 232/109/1 233/113/1
f 273/114/1 274/110/1 77/111/1
f 273/114/1 77/111/1 78/115/1
f 21/112/1 233/113/1 234/116/1
f 20/117/1 21/112/1 234/116/1
f 272/118/1 273/114/1 78/115/1
f 20/117/1 234/116/1 235/119/1
f 272/118/1 78/115/1 79/120/1
f 271/121/1 272/118/1 79/120/1
f 19/122/1 20/117/1 235/119/1
f 19/122/1 235/119/1 236/123/1
f 270/124/1 271/121/1 79/120/1
f 270/124/1 79/120/1 80/125/1
f 19/122/1 236/123/1 237/126/1
f 269/127/1 270/124/1 80/125/1
f 18/128/1 19/122/1 237/126/1
f 18/128/1 237/126/1 238/129/1
f 268/130/1 269/127/1 80/125/1
f 268/130/1 80/125/1 81/131/1
f 18/128/1 238/129/1 239/132/1
f 17/133/1 18/128/1 239/132/1
f 267/134/1 268/130/1 81/131/1
f 267/134/1 81/131/1 82/135/1
f 17/133/1 239/132/1 240/136/1
f 266/137/1 267/134/1 82/135/1
f 16/138/1 17/133/1 240/136/1
f 16/138/1 240/136/1 241/139/1
f 265/140/1 266/137/1 82/135/1
f 265/140/1 82/135/1 83/141/1
f 16/138/1 241/139/1 242/142/1
f 264/143/1 265/140/1 83/141/1
f 15/144/1 16/138/1 242/142/1
f 15/144/1 242/142/1 243/145/1
f 263/146/1 264/143/1 83/141/1
f 263/146/1 83/141/1 84/147/1
f 15/144/1 243/145/1 244/148/1
f 262/149/1 263/146/1 84/147/1
f 15/144/1 244/148/1 245/150/1
f 261/151/1 262/149/1 84/147/1
f 14/152/1 15/144/1 245/150/1
f 14/152/1 245/150/1 246/153/1
f 260/154/1 261/151/1 84/147/1
f 260/154/1 84/147/1 85/155/1
f 14/152/1 246/153/1 247/156/1
f 259/157/1 260/154/1 85/155/1
f 14/152/1 247/156/1 248/158/1
f 258/159/1 259/157/1 85/155/1
f 13/160/1 14/152/1 248/158/1
f 13/160/1 248/158/1 249/161/1
f 257/162/1 258/159/1 85/155/1
f 13/160/1 249/161/1 250/163/1
f 256/164/1 257/162/1 85/155/1
f 256/164/1 85/155/1 86/165/1
f 13/160/1 250/163/1 251/166/1
f 255/167/1 256/164/1 86/165/1
f 13/160/1 251/166/1 252/168/1
f 254/169/1 255/167/1 86/165/1
f 13/160/1 252/168/1 253/170/1
f 253/170/1 254/169/1 86/165/1
f 13/160/1 253/170/1 86/165/1
f 12/171/1 13/160/1 86/165/1
f 12/171/1 86/165/1 87/172/1
f 11/173/1 12/171/1 87/172/1
f 11/173/1 87/172/1 88/174/1
f 10/175/1 11/173/1 88/174/1
f 10/175/1 88/174/1 89/176/1
f 9/177/1 10/175/1 89/176/1
f 9/177/1 89/176/1 90/178/1
f 8/179/1 9/177/1 90/178/1
f 8/179/1 90/178/1 91/180/1
f 7/181/1 8/179/1 91/180/1
f 7/181/1 91/180/1 92/182/1
f 6/183/1 7/181/1 92/182/1
f 6/183/1 92/182/1 93/184/1
f 5/185/1 6/183/1 93/184/1
f 5/185/1 93/184/1 94/186/1
f 4/187/1 5/185/1 94/186/1
f 4/187/1 94/186/1 95/188/1
f 3/189/1 4/187/1 95/188/1
f 3/189/1 95/188/1 96/190/1
f 2/191/1 3/189/1 96/190/1
f 2/191/1 96/190/1 97/192/1
f 1/193/1 2/191/1 97/192/1
f 228/194/1 1/193/1 97/192/1
f 228/194/1 97/192/1 98/195/1
f 227/196/1 228/194/1 98/195/1
f 227/196/1 98/195/1 99/197/1
f 226/198/1 227/196/1 99/197/1
f 226/198/1 99/197/1 100/199/1
f 225/200/1 226/198/1 100/199/1
f 225/200/1 100/199/1 101/201/1
f 224/202/1 225/200/1 101/201/1
f 224/202/1 101/201/1 102/203/1
f 223/204/1 224/202/1 102/203/1
f 223/204/1 102/203/1 103/205/1
f 222/206/1 223/204/1 103/205/1
f 222/206/1 103/205/1 104/207/1
f 221/208/1 222/206/1 104/207/1
f 221/208/1 104/207/1 105/209/1
f 220/210/1 221/208/1 105/209/1
f 220/210/1 105/209/1 106/211/1
f 219/212/1 220/210/1 106/211/1
f 219/212/1 106/211/1 107/213/1
f 218/214/1 219/212/1 397/215/1
f 397/215/1 219/212/1 107/213/1
f 397/215/1 107/213/1 108/216/1
f 218/214/1 397/215/1 398/217/1
f 396/218/1 397/215/1 108/216/1
f 218/214/1 398/217/1 399/219/1
f 395/220/1 396/218/1 108/216/1
f 218/214/1 399/219/1 400/221/1
f 394/222/1 395/220/1 108/216/1
f 217/223/1 218/214/1 400/221/1
f 217/223/1 400/221/1 401/224/1
f 393/225/1 394/222/1 108/216/1
f 217/223/1 401/224/1 402/226/1
f 392/227/1 393/225/1 108/216/1
f 217/223/1 402/226/1 403/228/1
f 391/229/1 392/227/1 108/216/1
f 391/229/1 108/216/1 109/230/1
f 217/223/1 403/228/1 404/231/1
f 390/232/1 391/229/1 109/230/1
f 216/233/1 217/223/1 404/231/1
f 216/233/1 404/231/1 405/234/1
f 389/235/1 390/232/1 109/230/1
f 216/233/1 405/234/1 406/236/1
f 388/237/1 389/235/1 109/230/1
f 388/237/1 109/230/1 110/238/1
f 215/239/1 216/233/1 406/236/1
f 215/239/1 406/236/1 407/240/1
f 387/241/1 388/237/1 110/238/1
f 215/239/1 407/240/1 408/242/1
f 386/243/1 387/241/1 110/238/1
f 386/243/1 110/238/1 111/244/1
f 214/245/1 215/239/1 408/242/1
f 214/245/1 408/242/1 409/246/1
f 385/247/1 386/243/1 111/244/1
f 214/245/1 409/246/1 410/248/1
f 385/247/1 111/244/1 112/249/1
f 384/250/1 385/247/1 112/249/1
f 213/251/1 214/245/1 410/248/1
f 213/251/1 410/248/1 411/252/1
f 383/253/1 384/250/1 112/249/1
f 383/253/1 112/249/1 113/254/1
f 213/251/1 411/252/1 412/255/1
f 212/256/1 213/251/1 412/255/1
f 382/257/1 383/253/1 113/254/1
f 212/256/1 412/255/1 413/258/1
f 382/257/1 113/254/1 114/259/1
f 381/260/1 382/257/1 114/259/1
f 211/261/1 212/256/1 413/258/1
f 211/261/1 413/258/1 414/262/1
f 380/263/1 381/260/1 114/259/1
f 380/263/1 114/259/1 115/264/1
f 210/265/1 211/261/1 414/262/1
f 210/265/1 414/262/1 415/266/1
f 379/267/1 380/263/1 115/264/1
f 379/267/1 115/264/1 116/268/1
f 210/265/1 415/266/1 416/269/1
f 378/270/1 379/267/1 116/268/1
f 209/271/1 210/265/1 416/269/1
f 209/271/1 416/269/1 417/272/1
f 377/273/1 378/270/1 116/268/1
f 377/273/1 116/268/1 117/274/1
f 208/275/1 209/271/1 417/272/1
f 208/275/1 417/272/1 418/276/1
f 376/277/1 377/273/1 117/274/1
f 376/277/1 117/274/1 118/278/1
f 208/275/1 418/276/1 419/279/1
f 207/280/1 208/275/1 419/279/1
f 375/281/1 376/277/1 118/278/1
f 375/281/1 118/278/1 119/282/1
f 207/280/1 419/279/1 420/283/1
f 374/284/1 375/281/1 119/282/1
f 206/285/1 207/280/1 420/283/1
f 374/284/1 119/282/1 120/286/1
f 373/287/1 374/284/1 120/286/1
f 206/285/1 420/283/1 325/288/1
f 205/289/1 206/285/1 325/288/1
f 373/287/1 120/286/1 121/290/1
f 372/291/1 373/287/1 121/290/1
f 205/289/1 325/288/1 326/292/1
f 204/293/1 205/289/1 326/292/1
f 371/294/1 372/291/1 121/290/1
f 204/293/1 326/292/1 327/295/1
f 371/294/1 121/290/1 122/296/1
f 370/297/1 371/294/1 122/296/1
f 204/293/1 327/295/1 328/298/1
f 370/297/1 122/296/1 123/299/1
f 203/300/1 204/293/1 328/298/1
f 369/301/1 370/297/1 123/299/1
f 203/300/1 328/298/1 329/302/1
f 369/301/1 123/299/1 124/303/1
f 202/304/1 203/300/1 329/302/1
f 368/305/1 369/301/1 124/303/1
f 202/304/1 329/302/1 330/306/1
f 368/305/1 124/303/1 125/307/1
f 367/308/1 368/305/1 125/307/1
f 202/304/1 330/306/1 331/309/1
f 201/310/1 202/304/1 331/309/1
f 366/311/1 367/308/1 125/307/1
f 366/311/1 125/307/1 126/312/1
f 201/310/1 331/309/1 332/313/1
f 200/314/1 201/310/1 332/313/1
f 365/315/1 366/311/1 126/312/1
f 200/314/1 332/313/1 333/316/1
f 365/315/1 126/312/1 127/317/1
f 364/318/1 365/315/1 127/317/1
f 200/314/1 333/316/1 334/319/1
f 199/320/1 200/314/1 334/319/1
f 364/318/1 127/317/1 128/321/1
f 363/322/1 364/318/1 128/321/1
f 199/320/1 334/319/1 335/323/1
f 362/324/1 363/322/1 128/321/1
f 199/320/1 335/323/1 336/325/1
f 362/324/1 128/321/1 129/326/1
f 198/327/1 199/320/1 336/325/1
f 361/328/1 362/324/1 129/326/1
f 198/327/1 336/325/1 337/329/1
f 361/328/1 129/326/1 130/330/1
f 360/331/1 361/328/1 130/330/1
f 198/327/1 337/329/1 338/332/1
f 197/333/1 198/327/1 338/332/1
f 359/334/1 360/331/1 130/330/1
f 197/333/1 338/332/1 339/335/1
f 359/334/1 130/330/1 131/336/1
f 358/337/1 359/334/1 131/336/1
f 197/333/1 339/335/1 340/338/1
f 196/339/1 197/333/1 340/338/1
f 357/340/1 358/337/1 131/336/1
f 196/339/1 340/338/1 341/341/1
f 357/340/1 131/336/1 132/342/1
f 356/343/1 357/340/1 132/342/1
f 196/339/1 341/341/1 342/344/1
f 195/345/1 196/339/1 342/344/1
f 355/346/1 356/343/1 132/342/1
f 195/345/1 342/344/1 343/347/1
f 354/348/1 355/346/1 132/342/1
f 195/345/1 343/347/1 344/349/1
f 354/348/1 132/342/1 133/350/1
f 353/351/1 354/348/1 133/350/1
f 195/345/1 344/349/1 345/352/1
f 352/353/1 353/351/1 133/350/1
f 195/345/1 345/352/1 346/354/1
f 351/355/1 352/353/1 133/350/1
f 195/345/1 346/354/1 347/356/1
f 194/357/1 195/345/1 347/356/1
f 350/358/1 351/355/1 133/350/1
f 194/357/1 347/356/1 348/359/1
f 349/360/1 350/358/1 133/350/1
f 194/357/1 348/359/1 349/360/1
f 194/357/1 349/360/1 133/350/1
f 194/357/1 133/350/1 134/361/1
f 193/362/1 194/357/1 134/361/1
f 193/362/1 134/361/1 135/363/1
f 193/362/1 135/363/1 136/364/1
f 192/365/1 193/362/1 136/364/1
f 192/365/1 136/364/1 137/366/1
f 191/367/1 192/365/1 137/366/1
f 191/367/1 137/366/1 138/368/1
f 190/369/1 191/367/1 138/368/1
f 190/369/1 138/368/1 139/370/1
f 189/371/1 190/369/1 139/370/1
f 189/371/1 139/370/1 140/372/1
f 189/371/1 140/372/1 141/373/1
f 188/374/1 189/371/1 141/373/1
f 188/374/1 141/373/1 142/375/1
f 187/376/1 188/374/1 142/375/1
f 187/376/1 142/375/1 143/377/1
f 186/378/1 187/376/1 143/377/1
f 186/378/1 143/377/1 144/379/1
f 186/378/1 144/379/1 145/380/1
f 185/381/1 186/378/1 145/380/1
f 185/381/1 145/380/1 146/382/1
f 184/383/1 185/381/1 146/382/1
f 184/383/1 146/382/1 147/384/1
f 183/385/1 184/383/1 147/384/1
f 183/385/1 147/384/1 148/386/1
f 183/385/1 148/386/1 149/387/1
f 182/388/1 183/385/1 149/387/1
f 182/388/1 149/387/1 150/389/1
f 181/390/1 182/388/1 150/389/1
f 181/390/1 150/389/1 151/391/1
f 181/390/1 151/391/1 152/392/1
f 180/393/1 181/390/1 152/392/1
f 180/393/1 152/392/1 153/394/1
f 179/395/1 180/393/1 153/394/1
f 179/395/1 153/394/1 154/396/1
f 179/395/1 154/396/1 155/397/1
f 178/398/1 179/395/1 155/397/1
f 178/398/1 155/397/1 156/399/1
f 177/400/1 178/398/1 156/399/1
f 177/400/1 156/399/1 157/401/1
f 177/400/1 157/401/1 158/402/1
f 176/403/1 177/400/1 158/402/1
f 176/403/1 158/402/1 159/404/1
f 175/405/1 176/403/1 159/404/1
f 175/405/1 159/404/1 160/406/1
f 175/405/1 160/406/1 161/407/1
f 174/408/1 175/405/1 161/407/1
f 174/408/1 161/407/1 162/409/1
f 173/410/1 174/408/1 162/409/1
f 173/410/1 162/409/1 163/411/1
f 173/410/1 163/411/1 164/412/1
f 172/413/1 173/410/1 164/412/1
f 172/413/1 164/412/1 165/414/1
f 171/415/1 172/413/1 165/414/1
f 171/415/1 165/414/1 166/416/1
f 171/415/1 166/416/1 167/417/1
f 170/418/1 171/415/1 167/417/1
f 170/418/1 167/417/1 168/419/1
f 169/420/1 170/418/1 168/419/1
