# Blender 4.4.1
# www.blender.org
mtllib 9.mtl
o テキスト
v 0.035827 -0.000000 -0.115560
v 0.178082 -0.000000 -0.133474
v 0.179073 -0.000000 -0.128620
v 0.180170 -0.000000 -0.124010
v 0.181375 -0.000000 -0.119643
v 0.182687 -0.000000 -0.115521
v 0.184107 -0.000000 -0.111643
v 0.185634 -0.000000 -0.108008
v 0.187268 -0.000000 -0.104618
v 0.189010 -0.000000 -0.101471
v 0.190859 -0.000000 -0.098569
v 0.192815 -0.000000 -0.095910
v 0.194879 -0.000000 -0.093495
v 0.197050 -0.000000 -0.091324
v 0.199316 -0.000000 -0.089361
v 0.201665 -0.000000 -0.087568
v 0.204096 -0.000000 -0.085946
v 0.206611 -0.000000 -0.084494
v 0.209209 -0.000000 -0.083214
v 0.211890 -0.000000 -0.082104
v 0.214653 -0.000000 -0.081165
v 0.217500 -0.000000 -0.080397
v 0.220429 -0.000000 -0.079799
v 0.223442 -0.000000 -0.079372
v 0.226537 -0.000000 -0.079116
v 0.229715 -0.000000 -0.079031
v 0.235348 -0.000000 -0.079272
v 0.240770 -0.000000 -0.079996
v 0.245983 -0.000000 -0.081204
v 0.250985 -0.000000 -0.082894
v 0.255778 -0.000000 -0.085068
v 0.260362 -0.000000 -0.087724
v 0.264735 -0.000000 -0.090863
v 0.268899 -0.000000 -0.094485
v 0.272853 -0.000000 -0.098591
v 0.276597 -0.000000 -0.103179
v 0.280132 -0.000000 -0.108250
v 0.283456 -0.000000 -0.113804
v 0.285749 -0.000000 -0.118475
v 0.287944 -0.000000 -0.123941
v 0.290042 -0.000000 -0.130203
v 0.292042 -0.000000 -0.137260
v 0.293945 -0.000000 -0.145111
v 0.295750 -0.000000 -0.153758
v 0.297457 -0.000000 -0.163201
v 0.299067 -0.000000 -0.173438
v 0.300580 -0.000000 -0.184471
v 0.301994 -0.000000 -0.196298
v 0.303312 -0.000000 -0.208921
v 0.304531 -0.000000 -0.222339
v 0.300248 -0.000000 -0.218046
v 0.295945 -0.000000 -0.213948
v 0.291623 -0.000000 -0.210046
v 0.287281 -0.000000 -0.206338
v 0.282920 -0.000000 -0.202826
v 0.278539 -0.000000 -0.199508
v 0.274138 -0.000000 -0.196386
v 0.269719 -0.000000 -0.193459
v 0.265279 -0.000000 -0.190727
v 0.260820 -0.000000 -0.188190
v 0.256342 -0.000000 -0.185849
v 0.251844 -0.000000 -0.183702
v 0.247278 -0.000000 -0.181739
v 0.242595 -0.000000 -0.179946
v 0.237794 -0.000000 -0.178324
v 0.232877 -0.000000 -0.176872
v 0.227842 -0.000000 -0.175592
v 0.222691 -0.000000 -0.174482
v 0.217422 -0.000000 -0.173543
v 0.212036 -0.000000 -0.172774
v 0.206533 -0.000000 -0.172177
v 0.200913 -0.000000 -0.171750
v 0.195176 -0.000000 -0.171494
v 0.189322 -0.000000 -0.171409
v 0.177940 -0.000000 -0.171750
v 0.166857 -0.000000 -0.172774
v 0.156074 -0.000000 -0.174482
v 0.145592 -0.000000 -0.176872
v 0.135409 -0.000000 -0.179946
v 0.125527 -0.000000 -0.183702
v 0.115944 -0.000000 -0.188142
v 0.106662 -0.000000 -0.193264
v 0.097680 -0.000000 -0.199069
v 0.088997 -0.000000 -0.205557
v 0.080615 -0.000000 -0.212729
v 0.072532 -0.000000 -0.220583
v 0.064931 -0.000000 -0.228959
v 0.057990 -0.000000 -0.237697
v 0.051710 -0.000000 -0.246795
v 0.046091 -0.000000 -0.256254
v 0.041134 -0.000000 -0.266074
v 0.036837 -0.000000 -0.276256
v 0.033201 -0.000000 -0.286798
v 0.030227 -0.000000 -0.297701
v 0.027913 -0.000000 -0.308966
v 0.026261 -0.000000 -0.320591
v 0.025269 -0.000000 -0.332577
v 0.024939 -0.000000 -0.344925
v 0.025107 -0.000000 -0.353408
v 0.025612 -0.000000 -0.361765
v 0.026453 -0.000000 -0.369995
v 0.027631 -0.000000 -0.378098
v 0.029146 -0.000000 -0.386074
v 0.030998 -0.000000 -0.393923
v 0.033186 -0.000000 -0.401646
v 0.035710 -0.000000 -0.409242
v 0.038571 -0.000000 -0.416711
v 0.041769 -0.000000 -0.424053
v 0.045304 -0.000000 -0.431268
v 0.049175 -0.000000 -0.438356
v 0.053341 -0.000000 -0.445238
v 0.057761 -0.000000 -0.451835
v 0.062434 -0.000000 -0.458147
v 0.067361 -0.000000 -0.464173
v 0.072542 -0.000000 -0.469914
v 0.077977 -0.000000 -0.475369
v 0.083665 -0.000000 -0.480539
v 0.089607 -0.000000 -0.485423
v 0.095803 -0.000000 -0.490022
v 0.102252 -0.000000 -0.494336
v 0.108955 -0.000000 -0.498365
v 0.115911 -0.000000 -0.502108
v 0.123146 -0.000000 -0.505558
v 0.130683 -0.000000 -0.508708
v 0.138523 -0.000000 -0.511558
v 0.146665 -0.000000 -0.514108
v 0.155110 -0.000000 -0.516359
v 0.163857 -0.000000 -0.518309
v 0.172906 -0.000000 -0.519959
v 0.182258 -0.000000 -0.521309
v 0.191913 -0.000000 -0.522359
v 0.201869 -0.000000 -0.523109
v 0.212129 -0.000000 -0.523559
v 0.222691 -0.000000 -0.523709
v 0.235357 -0.000000 -0.523525
v 0.247600 -0.000000 -0.522973
v 0.259418 -0.000000 -0.522052
v 0.270811 -0.000000 -0.520763
v 0.281781 -0.000000 -0.519105
v 0.292325 -0.000000 -0.517079
v 0.302446 -0.000000 -0.514685
v 0.312141 -0.000000 -0.511923
v 0.321413 -0.000000 -0.508792
v 0.330260 -0.000000 -0.505293
v 0.338683 -0.000000 -0.501426
v 0.346681 -0.000000 -0.497190
v 0.354336 -0.000000 -0.492553
v 0.361731 -0.000000 -0.487482
v 0.368864 -0.000000 -0.481977
v 0.375737 -0.000000 -0.476037
v 0.382348 -0.000000 -0.469664
v 0.388699 -0.000000 -0.462856
v 0.394788 -0.000000 -0.455614
v 0.400617 -0.000000 -0.447937
v 0.406184 -0.000000 -0.439827
v 0.411491 -0.000000 -0.431282
v 0.416536 -0.000000 -0.422304
v 0.421321 -0.000000 -0.412891
v 0.425781 -0.000000 -0.403003
v 0.429853 -0.000000 -0.392601
v 0.433538 -0.000000 -0.381685
v 0.436834 -0.000000 -0.370253
v 0.439743 -0.000000 -0.358307
v 0.442264 -0.000000 -0.345847
v 0.444397 -0.000000 -0.332871
v 0.446142 -0.000000 -0.319381
v 0.447500 -0.000000 -0.305376
v 0.448469 -0.000000 -0.290857
v 0.449051 -0.000000 -0.275823
v 0.449245 -0.000000 -0.260274
v 0.448837 -0.000000 -0.237551
v 0.447615 -0.000000 -0.215866
v 0.445579 -0.000000 -0.195216
v 0.442727 -0.000000 -0.175604
v 0.439061 -0.000000 -0.157028
v 0.434580 -0.000000 -0.139489
v 0.429285 -0.000000 -0.122986
v 0.423174 -0.000000 -0.107521
v 0.416250 -0.000000 -0.093091
v 0.408510 -0.000000 -0.079699
v 0.399956 -0.000000 -0.067343
v 0.390587 -0.000000 -0.056024
v 0.380496 -0.000000 -0.045673
v 0.369775 -0.000000 -0.036222
v 0.358426 -0.000000 -0.027672
v 0.346447 -0.000000 -0.020021
v 0.333838 -0.000000 -0.013271
v 0.320601 -0.000000 -0.007420
v 0.306734 -0.000000 -0.002470
v 0.292237 0.000000 0.001581
v 0.277112 0.000000 0.004731
v 0.261357 0.000000 0.006981
v 0.244973 0.000000 0.008331
v 0.227959 0.000000 0.008781
v 0.217895 0.000000 0.008682
v 0.208192 0.000000 0.008386
v 0.198850 0.000000 0.007892
v 0.189868 0.000000 0.007201
v 0.181248 0.000000 0.006311
v 0.172989 0.000000 0.005225
v 0.165091 0.000000 0.003941
v 0.157554 0.000000 0.002459
v 0.150378 0.000000 0.000779
v 0.143562 -0.000000 -0.001098
v 0.137108 -0.000000 -0.003172
v 0.131015 -0.000000 -0.005444
v 0.125185 -0.000000 -0.007907
v 0.119522 -0.000000 -0.010552
v 0.114024 -0.000000 -0.013380
v 0.108691 -0.000000 -0.016392
v 0.103525 -0.000000 -0.019586
v 0.098525 -0.000000 -0.022963
v 0.093690 -0.000000 -0.026523
v 0.089022 -0.000000 -0.030266
v 0.084519 -0.000000 -0.034192
v 0.080182 -0.000000 -0.038301
v 0.076011 -0.000000 -0.042592
v 0.072006 -0.000000 -0.047067
v 0.068159 -0.000000 -0.051728
v 0.064464 -0.000000 -0.056580
v 0.060919 -0.000000 -0.061622
v 0.057526 -0.000000 -0.066854
v 0.054285 -0.000000 -0.072276
v 0.051194 -0.000000 -0.077889
v 0.048255 -0.000000 -0.083692
v 0.045467 -0.000000 -0.089685
v 0.042830 -0.000000 -0.095868
v 0.040345 -0.000000 -0.102242
v 0.038010 -0.000000 -0.108806
v 0.299262 -0.000000 -0.345276
v 0.299116 -0.000000 -0.352116
v 0.298677 -0.000000 -0.358706
v 0.297945 -0.000000 -0.365044
v 0.296921 -0.000000 -0.371131
v 0.295604 -0.000000 -0.376967
v 0.293994 -0.000000 -0.382552
v 0.292091 -0.000000 -0.387885
v 0.289896 -0.000000 -0.392967
v 0.287408 -0.000000 -0.397798
v 0.284627 -0.000000 -0.402378
v 0.281554 -0.000000 -0.406706
v 0.278188 -0.000000 -0.410783
v 0.274612 -0.000000 -0.414570
v 0.270909 -0.000000 -0.418028
v 0.267079 -0.000000 -0.421156
v 0.263123 -0.000000 -0.423955
v 0.259040 -0.000000 -0.426425
v 0.254830 -0.000000 -0.428565
v 0.250493 -0.000000 -0.430376
v 0.246029 -0.000000 -0.431858
v 0.241438 -0.000000 -0.433011
v 0.236721 -0.000000 -0.433834
v 0.231877 -0.000000 -0.434328
v 0.226906 -0.000000 -0.434492
v 0.222231 -0.000000 -0.434344
v 0.217690 -0.000000 -0.433897
v 0.213284 -0.000000 -0.433153
v 0.209011 -0.000000 -0.432112
v 0.204873 -0.000000 -0.430773
v 0.200869 -0.000000 -0.429136
v 0.197000 -0.000000 -0.427202
v 0.193264 -0.000000 -0.424970
v 0.189662 -0.000000 -0.422440
v 0.186195 -0.000000 -0.419613
v 0.182862 -0.000000 -0.416489
v 0.179663 -0.000000 -0.413066
v 0.176661 -0.000000 -0.409347
v 0.173921 -0.000000 -0.405329
v 0.171441 -0.000000 -0.401014
v 0.169223 -0.000000 -0.396402
v 0.167265 -0.000000 -0.391492
v 0.165569 -0.000000 -0.386284
v 0.164134 -0.000000 -0.380779
v 0.162959 -0.000000 -0.374976
v 0.162046 -0.000000 -0.368875
v 0.161393 -0.000000 -0.362477
v 0.161002 -0.000000 -0.355781
v 0.160871 -0.000000 -0.348788
v 0.161006 -0.000000 -0.341729
v 0.161413 -0.000000 -0.334953
v 0.162089 -0.000000 -0.328460
v 0.163037 -0.000000 -0.322250
v 0.164256 -0.000000 -0.316322
v 0.165745 -0.000000 -0.310678
v 0.167505 -0.000000 -0.305317
v 0.169535 -0.000000 -0.300238
v 0.171837 -0.000000 -0.295443
v 0.174409 -0.000000 -0.290930
v 0.177252 -0.000000 -0.286700
v 0.180365 -0.000000 -0.282754
v 0.183681 -0.000000 -0.279107
v 0.187132 -0.000000 -0.275778
v 0.190716 -0.000000 -0.272765
v 0.194435 -0.000000 -0.270070
v 0.198287 -0.000000 -0.267692
v 0.202274 -0.000000 -0.265631
v 0.206395 -0.000000 -0.263887
v 0.210651 -0.000000 -0.262460
v 0.215040 -0.000000 -0.261350
v 0.219563 -0.000000 -0.260557
v 0.224221 -0.000000 -0.260081
v 0.229013 -0.000000 -0.259923
v 0.233977 -0.000000 -0.260076
v 0.238799 -0.000000 -0.260537
v 0.243480 -0.000000 -0.261306
v 0.248019 -0.000000 -0.262381
v 0.252417 -0.000000 -0.263765
v 0.256674 -0.000000 -0.265455
v 0.260789 -0.000000 -0.267453
v 0.264762 -0.000000 -0.269758
v 0.268594 -0.000000 -0.272370
v 0.272285 -0.000000 -0.275290
v 0.275834 -0.000000 -0.278517
v 0.279241 -0.000000 -0.282051
v 0.282439 -0.000000 -0.285871
v 0.285359 -0.000000 -0.289954
v 0.288001 -0.000000 -0.294301
v 0.290364 -0.000000 -0.298911
v 0.292450 -0.000000 -0.303785
v 0.294257 -0.000000 -0.308922
v 0.295787 -0.000000 -0.314322
v 0.297038 -0.000000 -0.319986
v 0.298011 -0.000000 -0.325913
v 0.298706 -0.000000 -0.332104
v 0.299123 -0.000000 -0.338558
vn -0.0000 1.0000 -0.0000
vt 0.367643 0.999908
vt 0.411176 0.997726
vt 0.387453 0.999226
vt 0.348372 1.000000
vt 0.434073 0.995575
vt 0.329643 0.999502
vt 0.456139 0.992771
vt 0.311451 0.998415
vt 0.477375 0.989316
vt 0.293800 0.996737
vt 0.497785 0.985209
vt 0.276689 0.994470
vt 0.517363 0.980450
vt 0.260117 0.991612
vt 0.536114 0.975040
vt 0.244084 0.988163
vt 0.554033 0.968979
vt 0.228591 0.984126
vt 0.571126 0.962265
vt 0.213636 0.979499
vt 0.587389 0.954900
vt 0.199223 0.974283
vt 0.185348 0.968476
vt 0.602823 0.946884
vt 0.171969 0.962095
vt 0.617428 0.938216
vt 0.159038 0.955155
vt 0.631352 0.928827
vt 0.146557 0.947657
vt 0.644750 0.918648
vt 0.134525 0.939602
vt 0.657618 0.907679
vt 0.122943 0.930990
vt 0.669958 0.895920
vt 0.111810 0.921819
vt 0.681768 0.883372
vt 0.101126 0.912090
vt 0.090892 0.901802
vt 0.693051 0.870033
vt 0.081108 0.890957
vt 0.703803 0.855904
vt 0.071774 0.879553
vt 0.714028 0.840983
vt 0.062888 0.867591
vt 0.723722 0.825275
vt 0.054452 0.855072
vt 0.732890 0.808776
vt 0.046550 0.842140
vt 0.387218 0.831623
vt 0.378442 0.831772
vt 0.396520 0.830863
vt 0.369890 0.831349
vt 0.405554 0.829495
vt 0.361565 0.830356
vt 0.414320 0.827523
vt 0.353461 0.828794
vt 0.422820 0.824943
vt 0.345583 0.826662
vt 0.431052 0.821758
vt 0.741527 0.791488
vt 0.039267 0.828940
vt 0.337929 0.823959
vt 0.439015 0.817968
vt 0.330501 0.820687
vt 0.446711 0.813574
vt 0.323295 0.816844
vt 0.454138 0.808572
vt 0.316313 0.812431
vt 0.032603 0.815470
vt 0.461298 0.802965
vt 0.309557 0.807448
vt 0.749637 0.773409
vt 0.468191 0.796753
vt 0.303026 0.801897
vt 0.474816 0.789934
vt 0.026560 0.801732
vt 0.296718 0.795773
vt 0.481173 0.782510
vt 0.290752 0.789076
vt 0.757095 0.754470
vt 0.487110 0.774562
vt 0.285250 0.781795
vt 0.021137 0.787725
vt 0.492475 0.766169
vt 0.280208 0.773934
vt 0.763779 0.734602
vt 0.497270 0.757332
vt 0.016332 0.773450
vt 0.275631 0.765492
vt 0.501493 0.748050
vt 0.271513 0.756468
vt 0.012145 0.758907
vt 0.505144 0.738325
vt 0.769690 0.713806
vt 0.267859 0.746861
vt 0.508224 0.728156
vt 0.264668 0.736674
vt 0.008578 0.744096
vt 0.510732 0.717541
vt 0.774825 0.692079
vt 0.261936 0.725905
vt 0.005631 0.729016
vt 0.512669 0.706483
vt 0.259669 0.714553
vt 0.514033 0.694981
vt 0.779188 0.669424
vt 0.003304 0.713667
vt 0.257861 0.702621
vt 0.514827 0.683035
vt 0.256518 0.690106
vt 0.001596 0.698050
vt 0.515049 0.670643
vt 0.782777 0.645840
vt 0.255635 0.677011
vt 0.000507 0.682166
vt 0.514699 0.657810
vt 0.255244 0.663768
vt 0.785592 0.621325
vt 0.513826 0.645231
vt 0.000000 0.658992
vt 0.255389 0.651031
vt 0.512455 0.633172
vt 0.256064 0.638800
vt 0.787632 0.595882
vt 0.000766 0.636437
vt 0.510588 0.621632
vt 0.257275 0.627074
vt 0.508224 0.610612
vt 0.259019 0.615852
vt 0.002803 0.614497
vt 0.505363 0.600110
vt 0.788900 0.569509
vt 0.261295 0.605138
vt 0.502003 0.590128
vt 0.264105 0.594929
vt 0.006113 0.593173
vt 0.498148 0.580665
vt 0.789393 0.542207
vt 0.267447 0.585225
vt 0.493793 0.571720
vt 0.271324 0.576028
vt 0.488944 0.563295
vt 0.010692 0.572466
vt 0.275733 0.567335
vt 0.483596 0.555388
vt 0.280676 0.559147
vt 0.789113 0.513976
vt 0.477751 0.548002
vt 0.016546 0.552376
vt 0.286151 0.551467
vt 0.471408 0.541134
vt 0.292033 0.544329
vt 0.464701 0.534821
vt 0.298198 0.537775
vt 0.457754 0.529096
vt 0.023671 0.532900
vt 0.788059 0.484816
vt 0.304641 0.531801
vt 0.450570 0.523960
vt 0.311365 0.526411
vt 0.443150 0.519413
vt 0.318368 0.521603
vt 0.435493 0.515455
vt 0.325653 0.517376
vt 0.427598 0.512086
vt 0.032067 0.514042
vt 0.333218 0.513732
vt 0.419465 0.509306
vt 0.341065 0.510669
vt 0.411096 0.507113
vt 0.349190 0.508188
vt 0.402491 0.505512
vt 0.357595 0.506289
vt 0.393647 0.504498
vt 0.366282 0.504973
vt 0.384567 0.504074
vt 0.785222 0.442263
vt 0.375249 0.504239
vt 0.041736 0.495801
vt 0.052677 0.478176
vt 0.064889 0.461166
vt 0.513364 0.426910
vt 0.780954 0.401731
vt 0.078372 0.444774
vt 0.504945 0.419255
vt 0.509856 0.401872
vt 0.092806 0.429316
vt 0.496507 0.411966
vt 0.775255 0.363213
vt 0.488050 0.405047
vt 0.107862 0.415110
vt 0.479574 0.398493
vt 0.506235 0.378333
vt 0.471080 0.392308
vt 0.123545 0.402157
vt 0.462566 0.386489
vt 0.454033 0.381038
vt 0.139850 0.390458
vt 0.445483 0.375955
vt 0.502506 0.356295
vt 0.768121 0.326714
vt 0.436912 0.371240
vt 0.156780 0.380012
vt 0.428324 0.366891
vt 0.419717 0.362912
vt 0.174337 0.370816
vt 0.411091 0.359298
vt 0.498664 0.335754
vt 0.402354 0.356035
vt 0.192516 0.362875
vt 0.393413 0.353101
vt 0.384267 0.350499
vt 0.211322 0.356185
vt 0.374918 0.348226
vt 0.365365 0.346286
vt 0.230750 0.350750
vt 0.759556 0.292232
vt 0.355609 0.344675
vt 0.345648 0.343396
vt 0.250804 0.346565
vt 0.335483 0.342446
vt 0.494713 0.316714
vt 0.325114 0.341828
vt 0.271484 0.343635
vt 0.314542 0.341541
vt 0.303766 0.341584
vt 0.292786 0.341958
vt 0.490653 0.299171
vt 0.749558 0.259767
vt 0.486481 0.283128
vt 0.482198 0.268587
vt 0.738129 0.229319
vt 0.477806 0.255542
vt -0.000000 0.251278
vt 0.269675 0.262694
vt 0.268260 0.271882
vt 0.473303 0.243997
vt 0.271310 0.253954
vt 0.273171 0.245659
vt 0.468691 0.233952
vt 0.725265 0.200890
vt 0.275254 0.237813
vt 0.463967 0.225407
vt 0.003476 0.238420
vt 0.277562 0.230415
vt 0.457230 0.215300
vt 0.280092 0.223463
vt 0.007254 0.225904
vt 0.450142 0.206118
vt 0.282846 0.216960
vt 0.710972 0.174476
vt 0.285824 0.210903
vt 0.442707 0.197860
vt 0.011330 0.213731
vt 0.289025 0.205295
vt 0.434921 0.190525
vt 0.292448 0.200133
vt 0.296097 0.195419
vt 0.015709 0.201902
vt 0.426787 0.184116
vt 0.299968 0.191152
vt 0.695244 0.150081
vt 0.304036 0.187266
vt 0.418304 0.178631
vt 0.020388 0.190415
vt 0.308275 0.183691
vt 0.409470 0.174071
vt 0.312684 0.180429
vt 0.317265 0.177478
vt 0.400289 0.170433
vt 0.322018 0.174842
vt 0.025367 0.179271
vt 0.326941 0.172518
vt 0.390759 0.167722
vt 0.332034 0.170506
vt 0.380878 0.165933
vt 0.337300 0.168807
vt 0.342736 0.167419
vt 0.370650 0.165071
vt 0.348344 0.166344
vt 0.678084 0.127702
vt 0.354122 0.165582
vt 0.360070 0.165133
vt 0.030649 0.168468
vt 0.036229 0.158010
vt 0.659492 0.107342
vt 0.042111 0.147895
vt 0.048296 0.138121
vt 0.054779 0.128690
vt 0.639635 0.088861
vt 0.061564 0.119604
vt 0.068663 0.110851
vt 0.618679 0.072125
vt 0.076089 0.102428
vt 0.083843 0.094331
vt 0.596628 0.057135
vt 0.091925 0.086562
vt 0.100333 0.079121
vt 0.573478 0.043887
vt 0.109070 0.072008
vt 0.118134 0.065222
vt 0.549230 0.032385
vt 0.127525 0.058765
vt 0.137246 0.052633
vt 0.147293 0.046831
vt 0.523887 0.022626
vt 0.157666 0.041358
vt 0.168368 0.036210
vt 0.497445 0.014612
vt 0.179581 0.031396
vt 0.191489 0.026920
vt 0.469904 0.008342
vt 0.204093 0.022780
vt 0.217389 0.018977
vt 0.441268 0.003817
vt 0.231381 0.015512
vt 0.246067 0.012385
vt 0.411533 0.001036
vt 0.261447 0.009597
vt 0.277523 0.007143
vt 0.380702 0.000000
vt 0.294294 0.005029
vt 0.311759 0.003251
vt 0.348772 0.000708
vt 0.329918 0.001811
s 1
usemtl マテリアル.008
f 133/1/1 135/2/1 134/3/1
f 132/4/1 135/2/1 133/1/1
f 132/4/1 136/5/1 135/2/1
f 131/6/1 136/5/1 132/4/1
f 131/6/1 137/7/1 136/5/1
f 130/8/1 137/7/1 131/6/1
f 130/8/1 138/9/1 137/7/1
f 129/10/1 138/9/1 130/8/1
f 129/10/1 139/11/1 138/9/1
f 128/12/1 139/11/1 129/10/1
f 128/12/1 140/13/1 139/11/1
f 127/14/1 140/13/1 128/12/1
f 127/14/1 141/15/1 140/13/1
f 126/16/1 141/15/1 127/14/1
f 126/16/1 142/17/1 141/15/1
f 125/18/1 142/17/1 126/16/1
f 125/18/1 143/19/1 142/17/1
f 124/20/1 143/19/1 125/18/1
f 124/20/1 144/21/1 143/19/1
f 123/22/1 144/21/1 124/20/1
f 122/23/1 144/21/1 123/22/1
f 122/23/1 145/24/1 144/21/1
f 121/25/1 145/24/1 122/23/1
f 121/25/1 146/26/1 145/24/1
f 120/27/1 146/26/1 121/25/1
f 120/27/1 147/28/1 146/26/1
f 119/29/1 147/28/1 120/27/1
f 119/29/1 148/30/1 147/28/1
f 118/31/1 148/30/1 119/29/1
f 118/31/1 149/32/1 148/30/1
f 117/33/1 149/32/1 118/31/1
f 117/33/1 150/34/1 149/32/1
f 116/35/1 150/34/1 117/33/1
f 116/35/1 151/36/1 150/34/1
f 115/37/1 151/36/1 116/35/1
f 114/38/1 151/36/1 115/37/1
f 114/38/1 152/39/1 151/36/1
f 113/40/1 152/39/1 114/38/1
f 113/40/1 153/41/1 152/39/1
f 112/42/1 153/41/1 113/40/1
f 112/42/1 154/43/1 153/41/1
f 111/44/1 154/43/1 112/42/1
f 111/44/1 155/45/1 154/43/1
f 110/46/1 155/45/1 111/44/1
f 110/46/1 156/47/1 155/45/1
f 109/48/1 254/49/1 110/46/1
f 254/49/1 156/47/1 110/46/1
f 109/48/1 255/50/1 254/49/1
f 253/51/1 156/47/1 254/49/1
f 109/48/1 256/52/1 255/50/1
f 252/53/1 156/47/1 253/51/1
f 109/48/1 257/54/1 256/52/1
f 251/55/1 156/47/1 252/53/1
f 109/48/1 258/56/1 257/54/1
f 250/57/1 156/47/1 251/55/1
f 109/48/1 259/58/1 258/56/1
f 249/59/1 156/47/1 250/57/1
f 249/59/1 157/60/1 156/47/1
f 108/61/1 259/58/1 109/48/1
f 108/61/1 260/62/1 259/58/1
f 248/63/1 157/60/1 249/59/1
f 108/61/1 261/64/1 260/62/1
f 247/65/1 157/60/1 248/63/1
f 108/61/1 262/66/1 261/64/1
f 246/67/1 157/60/1 247/65/1
f 108/61/1 263/68/1 262/66/1
f 107/69/1 263/68/1 108/61/1
f 245/70/1 157/60/1 246/67/1
f 107/69/1 264/71/1 263/68/1
f 245/70/1 158/72/1 157/60/1
f 244/73/1 158/72/1 245/70/1
f 107/69/1 265/74/1 264/71/1
f 243/75/1 158/72/1 244/73/1
f 106/76/1 265/74/1 107/69/1
f 106/76/1 266/77/1 265/74/1
f 242/78/1 158/72/1 243/75/1
f 106/76/1 267/79/1 266/77/1
f 242/78/1 159/80/1 158/72/1
f 241/81/1 159/80/1 242/78/1
f 106/76/1 268/82/1 267/79/1
f 105/83/1 268/82/1 106/76/1
f 240/84/1 159/80/1 241/81/1
f 105/83/1 269/85/1 268/82/1
f 240/84/1 160/86/1 159/80/1
f 239/87/1 160/86/1 240/84/1
f 104/88/1 269/85/1 105/83/1
f 104/88/1 270/89/1 269/85/1
f 238/90/1 160/86/1 239/87/1
f 104/88/1 271/91/1 270/89/1
f 103/92/1 271/91/1 104/88/1
f 237/93/1 160/86/1 238/90/1
f 237/93/1 161/94/1 160/86/1
f 103/92/1 272/95/1 271/91/1
f 236/96/1 161/94/1 237/93/1
f 103/92/1 273/97/1 272/95/1
f 102/98/1 273/97/1 103/92/1
f 235/99/1 161/94/1 236/96/1
f 235/99/1 162/100/1 161/94/1
f 102/98/1 274/101/1 273/97/1
f 101/102/1 274/101/1 102/98/1
f 234/103/1 162/100/1 235/99/1
f 101/102/1 275/104/1 274/101/1
f 233/105/1 162/100/1 234/103/1
f 233/105/1 163/106/1 162/100/1
f 100/107/1 275/104/1 101/102/1
f 100/107/1 276/108/1 275/104/1
f 232/109/1 163/106/1 233/105/1
f 100/107/1 277/110/1 276/108/1
f 99/111/1 277/110/1 100/107/1
f 231/112/1 163/106/1 232/109/1
f 231/112/1 164/113/1 163/106/1
f 99/111/1 278/114/1 277/110/1
f 98/115/1 278/114/1 99/111/1
f 230/116/1 164/113/1 231/112/1
f 98/115/1 279/117/1 278/114/1
f 230/116/1 165/118/1 164/113/1
f 325/119/1 165/118/1 230/116/1
f 97/120/1 279/117/1 98/115/1
f 97/120/1 280/121/1 279/117/1
f 324/122/1 165/118/1 325/119/1
f 97/120/1 281/123/1 280/121/1
f 324/122/1 166/124/1 165/118/1
f 96/125/1 281/123/1 97/120/1
f 323/126/1 166/124/1 324/122/1
f 96/125/1 282/127/1 281/123/1
f 322/128/1 166/124/1 323/126/1
f 96/125/1 283/129/1 282/127/1
f 95/130/1 283/129/1 96/125/1
f 321/131/1 166/124/1 322/128/1
f 321/131/1 167/132/1 166/124/1
f 95/130/1 284/133/1 283/129/1
f 320/134/1 167/132/1 321/131/1
f 95/130/1 285/135/1 284/133/1
f 94/136/1 285/135/1 95/130/1
f 319/137/1 167/132/1 320/134/1
f 319/137/1 168/138/1 167/132/1
f 94/136/1 286/139/1 285/135/1
f 318/140/1 168/138/1 319/137/1
f 94/136/1 287/141/1 286/139/1
f 317/142/1 168/138/1 318/140/1
f 93/143/1 287/141/1 94/136/1
f 93/143/1 288/144/1 287/141/1
f 316/145/1 168/138/1 317/142/1
f 93/143/1 289/146/1 288/144/1
f 316/145/1 169/147/1 168/138/1
f 315/148/1 169/147/1 316/145/1
f 92/149/1 289/146/1 93/143/1
f 92/149/1 290/150/1 289/146/1
f 314/151/1 169/147/1 315/148/1
f 92/149/1 291/152/1 290/150/1
f 313/153/1 169/147/1 314/151/1
f 92/149/1 292/154/1 291/152/1
f 312/155/1 169/147/1 313/153/1
f 91/156/1 292/154/1 92/149/1
f 312/155/1 170/157/1 169/147/1
f 91/156/1 293/158/1 292/154/1
f 311/159/1 170/157/1 312/155/1
f 91/156/1 294/160/1 293/158/1
f 310/161/1 170/157/1 311/159/1
f 91/156/1 295/162/1 294/160/1
f 309/163/1 170/157/1 310/161/1
f 91/156/1 296/164/1 295/162/1
f 308/165/1 170/157/1 309/163/1
f 90/166/1 296/164/1 91/156/1
f 90/166/1 297/167/1 296/164/1
f 307/168/1 170/157/1 308/165/1
f 90/166/1 298/169/1 297/167/1
f 306/170/1 170/157/1 307/168/1
f 90/166/1 299/171/1 298/169/1
f 305/172/1 170/157/1 306/170/1
f 90/166/1 300/173/1 299/171/1
f 304/174/1 170/157/1 305/172/1
f 90/166/1 301/175/1 300/173/1
f 303/176/1 170/157/1 304/174/1
f 303/176/1 171/177/1 170/157/1
f 90/166/1 302/178/1 301/175/1
f 302/178/1 171/177/1 303/176/1
f 90/166/1 171/177/1 302/178/1
f 89/179/1 171/177/1 90/166/1
f 88/180/1 171/177/1 89/179/1
f 87/181/1 171/177/1 88/180/1
f 87/181/1 50/182/1 171/177/1
f 50/182/1 172/183/1 171/177/1
f 86/184/1 50/182/1 87/181/1
f 86/184/1 51/185/1 50/182/1
f 49/186/1 172/183/1 50/182/1
f 85/187/1 51/185/1 86/184/1
f 85/187/1 52/188/1 51/185/1
f 49/186/1 173/189/1 172/183/1
f 85/187/1 53/190/1 52/188/1
f 84/191/1 53/190/1 85/187/1
f 84/191/1 54/192/1 53/190/1
f 48/193/1 173/189/1 49/186/1
f 84/191/1 55/194/1 54/192/1
f 83/195/1 55/194/1 84/191/1
f 83/195/1 56/196/1 55/194/1
f 83/195/1 57/197/1 56/196/1
f 82/198/1 57/197/1 83/195/1
f 82/198/1 58/199/1 57/197/1
f 47/200/1 173/189/1 48/193/1
f 47/200/1 174/201/1 173/189/1
f 82/198/1 59/202/1 58/199/1
f 81/203/1 59/202/1 82/198/1
f 81/203/1 60/204/1 59/202/1
f 81/203/1 61/205/1 60/204/1
f 80/206/1 61/205/1 81/203/1
f 80/206/1 62/207/1 61/205/1
f 46/208/1 174/201/1 47/200/1
f 80/206/1 63/209/1 62/207/1
f 79/210/1 63/209/1 80/206/1
f 79/210/1 64/211/1 63/209/1
f 79/210/1 65/212/1 64/211/1
f 78/213/1 65/212/1 79/210/1
f 78/213/1 66/214/1 65/212/1
f 78/213/1 67/215/1 66/214/1
f 77/216/1 67/215/1 78/213/1
f 46/208/1 175/217/1 174/201/1
f 77/216/1 68/218/1 67/215/1
f 77/216/1 69/219/1 68/218/1
f 76/220/1 69/219/1 77/216/1
f 76/220/1 70/221/1 69/219/1
f 45/222/1 175/217/1 46/208/1
f 76/220/1 71/223/1 70/221/1
f 75/224/1 71/223/1 76/220/1
f 75/224/1 72/225/1 71/223/1
f 75/224/1 73/226/1 72/225/1
f 74/227/1 73/226/1 75/224/1
f 44/228/1 175/217/1 45/222/1
f 44/228/1 176/229/1 175/217/1
f 43/230/1 176/229/1 44/228/1
f 42/231/1 176/229/1 43/230/1
f 42/231/1 177/232/1 176/229/1
f 41/233/1 177/232/1 42/231/1
f 1/234/1 3/235/1 2/236/1
f 40/237/1 177/232/1 41/233/1
f 1/234/1 4/238/1 3/235/1
f 1/234/1 5/239/1 4/238/1
f 39/240/1 177/232/1 40/237/1
f 39/240/1 178/241/1 177/232/1
f 1/234/1 6/242/1 5/239/1
f 38/243/1 178/241/1 39/240/1
f 229/244/1 6/242/1 1/234/1
f 229/244/1 7/245/1 6/242/1
f 37/246/1 178/241/1 38/243/1
f 229/244/1 8/247/1 7/245/1
f 228/248/1 8/247/1 229/244/1
f 36/249/1 178/241/1 37/246/1
f 228/248/1 9/250/1 8/247/1
f 36/249/1 179/251/1 178/241/1
f 228/248/1 10/252/1 9/250/1
f 35/253/1 179/251/1 36/249/1
f 227/254/1 10/252/1 228/248/1
f 227/254/1 11/255/1 10/252/1
f 34/256/1 179/251/1 35/253/1
f 227/254/1 12/257/1 11/255/1
f 227/254/1 13/258/1 12/257/1
f 226/259/1 13/258/1 227/254/1
f 33/260/1 179/251/1 34/256/1
f 226/259/1 14/261/1 13/258/1
f 33/260/1 180/262/1 179/251/1
f 226/259/1 15/263/1 14/261/1
f 32/264/1 180/262/1 33/260/1
f 225/265/1 15/263/1 226/259/1
f 225/265/1 16/266/1 15/263/1
f 31/267/1 180/262/1 32/264/1
f 225/265/1 17/268/1 16/266/1
f 225/265/1 18/269/1 17/268/1
f 30/270/1 180/262/1 31/267/1
f 225/265/1 19/271/1 18/269/1
f 224/272/1 19/271/1 225/265/1
f 224/272/1 20/273/1 19/271/1
f 29/274/1 180/262/1 30/270/1
f 224/272/1 21/275/1 20/273/1
f 28/276/1 180/262/1 29/274/1
f 224/272/1 22/277/1 21/275/1
f 224/272/1 23/278/1 22/277/1
f 27/279/1 180/262/1 28/276/1
f 224/272/1 24/280/1 23/278/1
f 27/279/1 181/281/1 180/262/1
f 224/272/1 25/282/1 24/280/1
f 26/283/1 181/281/1 27/279/1
f 224/272/1 26/283/1 25/282/1
f 224/272/1 181/281/1 26/283/1
f 223/284/1 181/281/1 224/272/1
f 222/285/1 181/281/1 223/284/1
f 222/285/1 182/286/1 181/281/1
f 221/287/1 182/286/1 222/285/1
f 220/288/1 182/286/1 221/287/1
f 219/289/1 182/286/1 220/288/1
f 219/289/1 183/290/1 182/286/1
f 218/291/1 183/290/1 219/289/1
f 217/292/1 183/290/1 218/291/1
f 217/292/1 184/293/1 183/290/1
f 216/294/1 184/293/1 217/292/1
f 215/295/1 184/293/1 216/294/1
f 215/295/1 185/296/1 184/293/1
f 214/297/1 185/296/1 215/295/1
f 213/298/1 185/296/1 214/297/1
f 213/298/1 186/299/1 185/296/1
f 212/300/1 186/299/1 213/298/1
f 211/301/1 186/299/1 212/300/1
f 211/301/1 187/302/1 186/299/1
f 210/303/1 187/302/1 211/301/1
f 209/304/1 187/302/1 210/303/1
f 208/305/1 187/302/1 209/304/1
f 208/305/1 188/306/1 187/302/1
f 207/307/1 188/306/1 208/305/1
f 206/308/1 188/306/1 207/307/1
f 206/308/1 189/309/1 188/306/1
f 205/310/1 189/309/1 206/308/1
f 204/311/1 189/309/1 205/310/1
f 204/311/1 190/312/1 189/309/1
f 203/313/1 190/312/1 204/311/1
f 202/314/1 190/312/1 203/313/1
f 202/314/1 191/315/1 190/312/1
f 201/316/1 191/315/1 202/314/1
f 200/317/1 191/315/1 201/316/1
f 200/317/1 192/318/1 191/315/1
f 199/319/1 192/318/1 200/317/1
f 198/320/1 192/318/1 199/319/1
f 198/320/1 193/321/1 192/318/1
f 197/322/1 193/321/1 198/320/1
f 196/323/1 193/321/1 197/322/1
f 196/323/1 194/324/1 193/321/1
f 195/325/1 194/324/1 196/323/1
