# Blender 4.4.1
# www.blender.org
mtllib a.mtl
o テキスト.001
v 0.358536 -0.494994 0.000000
v -0.185196 -0.494994 0.000000
v -0.260010 -0.750000 0.000000
v -0.747894 -0.750000 0.000000
v -0.167280 0.794784 0.000000
v 0.353268 0.794784 0.000000
v 0.933879 -0.750000 0.000000
v 0.434406 -0.750000 0.000000
v 0.258429 -0.160959 0.000000
v 0.087723 0.394362 0.000000
v -0.081927 -0.160959 0.000000
vn -0.0000 -0.0000 -1.0000
vt 0.000000 1.000000
vt 0.918545 0.654761
vt 0.918545 0.345237
vt 0.680450 0.503133
vt 0.000000 0.000000
vt 0.350250 0.604009
vt 0.350250 0.401630
vt 0.151629 0.665414
vt 0.151629 0.342105
vt 0.000000 0.709899
vt 0.000000 0.296992
s 1
usemtl マテリアル.002
f 4/1/1 5/2/1 6/3/1
f 4/1/1 6/3/1 10/4/1
f 10/4/1 6/3/1 7/5/1
f 4/1/1 10/4/1 11/6/1
f 9/7/1 10/4/1 7/5/1
f 4/1/1 11/6/1 9/7/1
f 4/1/1 9/7/1 2/8/1
f 2/8/1 9/7/1 1/9/1
f 1/9/1 9/7/1 7/5/1
f 4/1/1 2/8/1 3/10/1
f 8/11/1 1/9/1 7/5/1
