# Blender 4.4.1
# www.blender.org
mtllib easy.mtl
o テキスト
v 1.084152 -0.000000 -0.162342
v 1.084152 -0.000000 -0.107293
v 1.087606 -0.000000 -0.107475
v 1.091450 -0.000000 -0.107666
v 1.095635 -0.000000 -0.107863
v 1.100112 -0.000000 -0.108059
v 1.104832 -0.000000 -0.108251
v 1.109748 -0.000000 -0.108433
v 1.114809 -0.000000 -0.108600
v 1.119968 -0.000000 -0.108748
v 1.125175 -0.000000 -0.108871
v 1.130383 -0.000000 -0.108965
v 1.135542 -0.000000 -0.109025
v 1.140603 -0.000000 -0.109046
v 1.152323 -0.000000 -0.109046
v 1.166603 -0.000000 -0.109046
v 1.182893 -0.000000 -0.109046
v 1.200639 -0.000000 -0.109046
v 1.219291 -0.000000 -0.109046
v 1.238298 -0.000000 -0.109046
v 1.257107 -0.000000 -0.109046
v 1.275168 -0.000000 -0.109046
v 1.291928 -0.000000 -0.109046
v 1.306836 -0.000000 -0.109046
v 1.319342 -0.000000 -0.109046
v 1.328892 -0.000000 -0.109046
v 1.332632 -0.000000 -0.109018
v 1.336460 -0.000000 -0.108941
v 1.340331 -0.000000 -0.108822
v 1.344203 -0.000000 -0.108670
v 1.348031 -0.000000 -0.108493
v 1.351771 -0.000000 -0.108301
v 1.355379 -0.000000 -0.108102
v 1.358813 -0.000000 -0.107903
v 1.362027 -0.000000 -0.107715
v 1.364978 -0.000000 -0.107545
v 1.367622 -0.000000 -0.107401
v 1.369916 -0.000000 -0.107293
v 1.369916 -0.000000 -0.162342
v 1.367508 -0.000000 -0.162154
v 1.364856 -0.000000 -0.161943
v 1.361977 -0.000000 -0.161718
v 1.358891 -0.000000 -0.161485
v 1.355614 -0.000000 -0.161253
v 1.352165 -0.000000 -0.161027
v 1.348563 -0.000000 -0.160817
v 1.344826 -0.000000 -0.160628
v 1.340972 -0.000000 -0.160469
v 1.337020 -0.000000 -0.160346
v 1.332987 -0.000000 -0.160266
v 1.328892 -0.000000 -0.160238
v 1.319348 -0.000000 -0.160238
v 1.306861 -0.000000 -0.160238
v 1.291977 -0.000000 -0.160238
v 1.275246 -0.000000 -0.160238
v 1.257214 -0.000000 -0.160238
v 1.238429 -0.000000 -0.160238
v 1.219440 -0.000000 -0.160238
v 1.200795 -0.000000 -0.160238
v 1.183041 -0.000000 -0.160238
v 1.166725 -0.000000 -0.160238
v 1.152397 -0.000000 -0.160238
v 1.140603 -0.000000 -0.160238
v 1.135903 -0.000000 -0.160260
v 1.130967 -0.000000 -0.160321
v 1.125866 -0.000000 -0.160419
v 1.120669 -0.000000 -0.160550
v 1.115448 -0.000000 -0.160710
v 1.110274 -0.000000 -0.160896
v 1.105216 -0.000000 -0.161103
v 1.100346 -0.000000 -0.161329
v 1.095733 -0.000000 -0.161570
v 1.091450 -0.000000 -0.161821
v 1.087566 -0.000000 -0.162080
v 0.958626 -0.000000 -0.201964
v 0.989130 -0.000000 -0.214937
v 0.986996 -0.000000 -0.219113
v 0.984649 -0.000000 -0.223540
v 0.982123 -0.000000 -0.228162
v 0.979456 -0.000000 -0.232923
v 0.976681 -0.000000 -0.237766
v 0.973834 -0.000000 -0.242637
v 0.970951 -0.000000 -0.247478
v 0.968067 -0.000000 -0.252234
v 0.965216 -0.000000 -0.256848
v 0.962435 -0.000000 -0.261266
v 0.959759 -0.000000 -0.265430
v 0.957223 -0.000000 -0.269285
v 0.927770 -0.000000 -0.257013
v 0.930835 -0.000000 -0.252595
v 0.933732 -0.000000 -0.248260
v 0.936486 -0.000000 -0.243974
v 0.939120 -0.000000 -0.239702
v 0.941656 -0.000000 -0.235411
v 0.944118 -0.000000 -0.231066
v 0.946529 -0.000000 -0.226634
v 0.948912 -0.000000 -0.222079
v 0.951290 -0.000000 -0.217369
v 0.953686 -0.000000 -0.212469
v 0.956123 -0.000000 -0.207346
v 1.008415 -0.000000 -0.220547
v 1.038219 -0.000000 -0.233871
v 1.036010 -0.000000 -0.237872
v 1.033610 -0.000000 -0.242124
v 1.031047 -0.000000 -0.246570
v 1.028349 -0.000000 -0.251156
v 1.025544 -0.000000 -0.255824
v 1.022660 -0.000000 -0.260519
v 1.019724 -0.000000 -0.265185
v 1.016765 -0.000000 -0.269765
v 1.013812 -0.000000 -0.274204
v 1.010891 -0.000000 -0.278447
v 1.008031 -0.000000 -0.282435
v 1.005260 -0.000000 -0.286115
v 0.975456 -0.000000 -0.273843
v 0.978615 -0.000000 -0.269533
v 0.981623 -0.000000 -0.265342
v 0.984501 -0.000000 -0.261226
v 0.987273 -0.000000 -0.257142
v 0.989963 -0.000000 -0.253050
v 0.992593 -0.000000 -0.248904
v 0.995186 -0.000000 -0.244664
v 0.997766 -0.000000 -0.240286
v 1.000356 -0.000000 -0.235728
v 1.002979 -0.000000 -0.230947
v 1.005657 -0.000000 -0.225901
v 0.805400 -0.000000 -0.107293
v 0.830996 -0.000000 -0.146564
v 0.826115 -0.000000 -0.149947
v 0.820495 -0.000000 -0.153732
v 0.814259 -0.000000 -0.157839
v 0.807530 -0.000000 -0.162186
v 0.800430 -0.000000 -0.166695
v 0.793084 -0.000000 -0.171283
v 0.785613 -0.000000 -0.175872
v 0.778141 -0.000000 -0.180380
v 0.770791 -0.000000 -0.184728
v 0.763686 -0.000000 -0.188834
v 0.756948 -0.000000 -0.192619
v 0.750701 -0.000000 -0.196003
v 0.725456 -0.000000 -0.157433
v 0.731582 -0.000000 -0.154063
v 0.738147 -0.000000 -0.150310
v 0.745047 -0.000000 -0.146246
v 0.752182 -0.000000 -0.141941
v 0.759448 -0.000000 -0.137465
v 0.766743 -0.000000 -0.132889
v 0.773965 -0.000000 -0.128284
v 0.781011 -0.000000 -0.123721
v 0.787781 -0.000000 -0.119269
v 0.794170 -0.000000 -0.115001
v 0.800077 -0.000000 -0.110985
v 0.858696 -0.000000 -0.187237
v 0.884642 -0.000000 -0.225806
v 0.879681 -0.000000 -0.229204
v 0.873997 -0.000000 -0.233027
v 0.867713 -0.000000 -0.237191
v 0.860955 -0.000000 -0.241611
v 0.853846 -0.000000 -0.246201
v 0.846511 -0.000000 -0.250877
v 0.839074 -0.000000 -0.255552
v 0.831658 -0.000000 -0.260142
v 0.824389 -0.000000 -0.264562
v 0.817389 -0.000000 -0.268726
v 0.810785 -0.000000 -0.272550
v 0.804698 -0.000000 -0.275947
v 0.779453 -0.000000 -0.237377
v 0.785499 -0.000000 -0.233927
v 0.791995 -0.000000 -0.230108
v 0.798836 -0.000000 -0.225993
v 0.805919 -0.000000 -0.221651
v 0.813138 -0.000000 -0.217153
v 0.820389 -0.000000 -0.212570
v 0.827567 -0.000000 -0.207973
v 0.834567 -0.000000 -0.203431
v 0.841285 -0.000000 -0.199016
v 0.847615 -0.000000 -0.194798
v 0.853454 -0.000000 -0.190848
v 0.739832 -0.000000 -0.026999
v 0.766129 0.000000 0.018934
v 0.774232 0.000000 0.017289
v 0.783034 0.000000 0.015179
v 0.792415 0.000000 0.012639
v 0.802257 0.000000 0.009701
v 0.812440 0.000000 0.006397
v 0.822844 0.000000 0.002761
v 0.833350 -0.000000 -0.001174
v 0.843839 -0.000000 -0.005376
v 0.854192 -0.000000 -0.009812
v 0.864290 -0.000000 -0.014449
v 0.874012 -0.000000 -0.019254
v 0.883240 -0.000000 -0.024194
v 0.897369 -0.000000 -0.032744
v 0.911156 -0.000000 -0.041725
v 0.924565 -0.000000 -0.051115
v 0.937562 -0.000000 -0.060893
v 0.950110 -0.000000 -0.071036
v 0.962176 -0.000000 -0.081522
v 0.973722 -0.000000 -0.092329
v 0.984715 -0.000000 -0.103436
v 0.995119 -0.000000 -0.114821
v 1.004897 -0.000000 -0.126461
v 1.014017 -0.000000 -0.138335
v 1.022440 -0.000000 -0.150421
v 0.995442 -0.000000 -0.198107
v 0.988078 -0.000000 -0.185623
v 0.979860 -0.000000 -0.173270
v 0.970826 -0.000000 -0.161093
v 0.961015 -0.000000 -0.149135
v 0.950463 -0.000000 -0.137440
v 0.939209 -0.000000 -0.126052
v 0.927290 -0.000000 -0.115014
v 0.914745 -0.000000 -0.104371
v 0.901610 -0.000000 -0.094166
v 0.887923 -0.000000 -0.084444
v 0.873723 -0.000000 -0.075247
v 0.859046 -0.000000 -0.066620
v 0.849496 -0.000000 -0.061548
v 0.839794 -0.000000 -0.056843
v 0.829966 -0.000000 -0.052491
v 0.820035 -0.000000 -0.048478
v 0.810027 -0.000000 -0.044792
v 0.799965 -0.000000 -0.041418
v 0.789874 -0.000000 -0.038344
v 0.779778 -0.000000 -0.035557
v 0.769701 -0.000000 -0.033042
v 0.759668 -0.000000 -0.030786
v 0.749704 -0.000000 -0.028776
v 0.382889 -0.000000 -0.162342
v 0.382889 -0.000000 -0.107293
v 0.386344 -0.000000 -0.107475
v 0.390188 -0.000000 -0.107666
v 0.394372 -0.000000 -0.107863
v 0.398849 -0.000000 -0.108059
v 0.403570 -0.000000 -0.108251
v 0.408485 -0.000000 -0.108433
v 0.413547 -0.000000 -0.108600
v 0.418706 -0.000000 -0.108748
v 0.423913 -0.000000 -0.108871
v 0.429121 -0.000000 -0.108965
v 0.434279 -0.000000 -0.109025
v 0.439341 -0.000000 -0.109046
v 0.451061 -0.000000 -0.109046
v 0.465341 -0.000000 -0.109046
v 0.481630 -0.000000 -0.109046
v 0.499377 -0.000000 -0.109046
v 0.518029 -0.000000 -0.109046
v 0.537035 -0.000000 -0.109046
v 0.555845 -0.000000 -0.109046
v 0.573905 -0.000000 -0.109046
v 0.590666 -0.000000 -0.109046
v 0.605574 -0.000000 -0.109046
v 0.618079 -0.000000 -0.109046
v 0.627630 -0.000000 -0.109046
v 0.631370 -0.000000 -0.109018
v 0.635198 -0.000000 -0.108941
v 0.639069 -0.000000 -0.108822
v 0.642941 -0.000000 -0.108670
v 0.646768 -0.000000 -0.108493
v 0.650509 -0.000000 -0.108301
v 0.654117 -0.000000 -0.108102
v 0.657550 -0.000000 -0.107903
v 0.660765 -0.000000 -0.107715
v 0.663716 -0.000000 -0.107545
v 0.666360 -0.000000 -0.107401
v 0.668654 -0.000000 -0.107293
v 0.668654 -0.000000 -0.162342
v 0.666246 -0.000000 -0.162154
v 0.663594 -0.000000 -0.161943
v 0.660715 -0.000000 -0.161718
v 0.657628 -0.000000 -0.161485
v 0.654351 -0.000000 -0.161253
v 0.650903 -0.000000 -0.161027
v 0.647301 -0.000000 -0.160817
v 0.643564 -0.000000 -0.160628
v 0.639710 -0.000000 -0.160469
v 0.635757 -0.000000 -0.160346
v 0.631725 -0.000000 -0.160266
v 0.627630 -0.000000 -0.160238
v 0.618086 -0.000000 -0.160238
v 0.605598 -0.000000 -0.160238
v 0.590715 -0.000000 -0.160238
v 0.573983 -0.000000 -0.160238
v 0.555951 -0.000000 -0.160238
v 0.537167 -0.000000 -0.160238
v 0.518178 -0.000000 -0.160238
v 0.499532 -0.000000 -0.160238
v 0.481778 -0.000000 -0.160238
v 0.465463 -0.000000 -0.160238
v 0.451134 -0.000000 -0.160238
v 0.439341 -0.000000 -0.160238
v 0.434641 -0.000000 -0.160260
v 0.429705 -0.000000 -0.160321
v 0.424603 -0.000000 -0.160419
v 0.419407 -0.000000 -0.160550
v 0.414186 -0.000000 -0.160710
v 0.409011 -0.000000 -0.160896
v 0.403953 -0.000000 -0.161103
v 0.399083 -0.000000 -0.161329
v 0.394471 -0.000000 -0.161570
v 0.390188 -0.000000 -0.161821
v 0.386303 -0.000000 -0.162080
v 0.165147 0.000000 0.015428
v 0.220547 0.000000 0.015428
v 0.219969 0.000000 0.012977
v 0.219461 0.000000 0.010053
v 0.219018 0.000000 0.006722
v 0.218638 0.000000 0.003052
v 0.218316 -0.000000 -0.000891
v 0.218049 -0.000000 -0.005040
v 0.217833 -0.000000 -0.009328
v 0.217664 -0.000000 -0.013688
v 0.217539 -0.000000 -0.018052
v 0.217455 -0.000000 -0.022354
v 0.217407 -0.000000 -0.026528
v 0.217391 -0.000000 -0.030505
v 0.217391 -0.000000 -0.172160
v 0.225883 -0.000000 -0.177869
v 0.234337 -0.000000 -0.183762
v 0.242730 -0.000000 -0.189817
v 0.251039 -0.000000 -0.196016
v 0.259241 -0.000000 -0.202336
v 0.267312 -0.000000 -0.208757
v 0.275231 -0.000000 -0.215258
v 0.282972 -0.000000 -0.221820
v 0.290514 -0.000000 -0.228420
v 0.297834 -0.000000 -0.235038
v 0.304907 -0.000000 -0.241654
v 0.311711 -0.000000 -0.248247
v 0.273843 -0.000000 -0.284362
v 0.267799 -0.000000 -0.277295
v 0.261113 -0.000000 -0.269991
v 0.253857 -0.000000 -0.262519
v 0.246104 -0.000000 -0.254948
v 0.237928 -0.000000 -0.247348
v 0.229400 -0.000000 -0.239788
v 0.220596 -0.000000 -0.232338
v 0.211586 -0.000000 -0.225066
v 0.202446 -0.000000 -0.218043
v 0.193246 -0.000000 -0.211338
v 0.184062 -0.000000 -0.205020
v 0.174965 -0.000000 -0.199158
v 0.164973 -0.000000 -0.193223
v 0.154460 -0.000000 -0.187351
v 0.143430 -0.000000 -0.181561
v 0.131889 -0.000000 -0.175874
v 0.119842 -0.000000 -0.170309
v 0.107293 -0.000000 -0.164884
v 0.094248 -0.000000 -0.159621
v 0.080710 -0.000000 -0.154537
v 0.066686 -0.000000 -0.149654
v 0.052179 -0.000000 -0.144989
v 0.037195 -0.000000 -0.140563
v 0.021739 -0.000000 -0.136396
v 0.043829 -0.000000 -0.092216
v 0.054634 -0.000000 -0.095500
v 0.065464 -0.000000 -0.099024
v 0.076284 -0.000000 -0.102768
v 0.087060 -0.000000 -0.106709
v 0.097759 -0.000000 -0.110825
v 0.108345 -0.000000 -0.115095
v 0.118785 -0.000000 -0.119496
v 0.129045 -0.000000 -0.124007
v 0.139091 -0.000000 -0.128605
v 0.148888 -0.000000 -0.133269
v 0.158403 -0.000000 -0.137977
v 0.167602 -0.000000 -0.142707
v 0.167602 -0.000000 -0.030505
v 0.167573 -0.000000 -0.026521
v 0.167493 -0.000000 -0.022330
v 0.167366 -0.000000 -0.018003
v 0.167199 -0.000000 -0.013610
v 0.166998 -0.000000 -0.009222
v 0.166769 -0.000000 -0.004909
v 0.166518 -0.000000 -0.000742
v 0.166251 0.000000 0.003208
v 0.165975 0.000000 0.006870
v 0.165694 0.000000 0.010175
v 0.165417 0.000000 0.013051
vn -0.0000 1.0000 -0.0000
vt 0.870392 0.672806
vt 0.999383 0.664768
vt 1.000000 0.672806
vt 0.999557 0.005669
vt 0.870392 0.000000
vt 1.000000 0.000000
vt 0.999061 0.011913
vt 0.998773 0.655624
vt 0.998531 0.018692
vt 0.998182 0.645540
vt 0.997982 0.025957
vt 0.997615 0.634679
vt 0.997436 0.033673
vt 0.997083 0.623213
vt 0.996904 0.041793
vt 0.996596 0.611304
vt 0.996410 0.050274
vt 0.996158 0.599123
vt 0.995965 0.059072
vt 0.995781 0.586830
vt 0.995590 0.068146
vt 0.995472 0.574594
vt 0.995301 0.077451
vt 0.995242 0.562584
vt 0.995112 0.086946
vt 0.995098 0.550963
vt 0.995046 0.096587
vt 0.995046 0.539898
vt 0.995046 0.512129
vt 0.995046 0.478395
vt 0.995046 0.439981
vt 0.995046 0.398180
vt 0.995046 0.354283
vt 0.995046 0.309575
vt 0.995046 0.265347
vt 0.995046 0.222892
vt 0.995046 0.183500
vt 0.995046 0.148457
vt 0.995046 0.119058
vt 0.870820 0.664674
vt 0.871270 0.655624
vt 0.871734 0.645770
vt 0.872195 0.635230
vt 0.872647 0.624117
vt 0.873076 0.612543
vt 0.873469 0.600627
vt 0.873818 0.588481
vt 0.874107 0.576221
vt 0.874328 0.563959
vt 0.874470 0.551813
vt 0.874519 0.539898
vt 0.874519 0.512304
vt 0.874519 0.440329
vt 0.874519 0.398548
vt 0.874519 0.354633
vt 0.874519 0.309883
vt 0.874519 0.265599
vt 0.874519 0.223076
vt 0.874519 0.183616
vt 0.874519 0.096587
vt 0.874453 0.087782
vt 0.874272 0.078769
vt 0.873992 0.069655
vt 0.873634 0.060539
vt 0.873217 0.051526
vt 0.872765 0.042721
vt 0.872297 0.034226
vt 0.189698 0.729888
vt 0.871828 0.026141
vt 0.871386 0.018574
vt 0.870985 0.011626
vt 0.870646 0.005401
vt 0.000000 0.953738
vt 0.109423 0.935679
vt 0.108519 0.952066
vt 0.110129 0.917726
vt 0.110656 0.898557
vt 0.111013 0.878530
vt 0.111217 0.857997
vt 0.111278 0.837315
vt 0.111209 0.816835
vt 0.111026 0.796912
vt 0.110739 0.777903
vt 0.000747 0.937366
vt 0.110365 0.760158
vt 0.001327 0.919634
vt 0.109915 0.744036
vt 0.001752 0.900842
vt 0.109400 0.729888
vt 0.002029 0.881284
vt 0.002168 0.861259
vt 0.002178 0.841063
vt 0.002068 0.820994
vt 0.001844 0.801349
vt 0.001517 0.782425
vt 0.001094 0.764521
vt 0.000585 0.747932
vt -0.000000 0.732956
vt 0.559992 0.702155
vt 0.673869 0.723280
vt 0.545211 0.732913
vt 0.740784 0.896913
vt 0.850361 0.878116
vt 0.849295 0.894810
vt 0.851240 0.859942
vt 0.851939 0.840634
vt 0.573397 0.669898
vt 0.852461 0.820535
vt 0.852817 0.799992
vt 0.853010 0.779350
vt 0.585390 0.636274
vt 0.853048 0.758958
vt 0.852936 0.739156
vt 0.852684 0.720297
vt 0.595936 0.601417
vt 0.852293 0.702721
vt 0.741726 0.880478
vt 0.742453 0.862689
vt 0.851774 0.686776
vt 0.686483 0.690971
vt 0.742978 0.843843
vt 0.851133 0.672809
vt 0.604997 0.565455
vt 0.743317 0.824226
vt 0.743479 0.804134
vt 0.743478 0.783859
vt 0.743327 0.763693
vt 0.743041 0.743931
vt 0.742630 0.724859
vt 0.742110 0.706776
vt 0.741489 0.689970
vt 0.740784 0.674735
vt 0.697771 0.657577
vt 0.612539 0.528522
vt 0.707738 0.623201
vt 0.618524 0.490746
vt 0.622917 0.452262
vt 0.716387 0.587934
vt 0.625680 0.413198
vt 0.723720 0.551879
vt 0.626775 0.373686
vt 0.729742 0.515136
vt 0.626172 0.333858
vt 0.734455 0.477795
vt 0.623828 0.293844
vt 0.737866 0.439960
vt 0.621244 0.268516
vt 0.617742 0.243372
vt 0.739974 0.401725
vt 0.613385 0.218444
vt 0.608230 0.193758
vt 0.740784 0.363192
vt 0.602334 0.169349
vt 0.595757 0.145244
vt 0.740298 0.324455
vt 0.588555 0.121475
vt 0.580785 0.098072
vt 0.572508 0.075062
vt 0.563781 0.052478
vt 0.738522 0.285614
vt 0.554664 0.030351
vt 0.545211 0.008709
vt 0.669521 0.000000
vt 0.736101 0.261089
vt 0.732769 0.235775
vt 0.728616 0.209945
vt 0.723736 0.183879
vt 0.718219 0.157854
vt 0.712158 0.132145
vt 0.705646 0.107028
vt 0.698774 0.082777
vt 0.691632 0.059673
vt 0.684315 0.037993
vt 0.676915 0.018008
vt 0.189698 0.887652
vt 0.265567 0.864518
vt 0.264576 0.875318
vt 0.266356 0.852991
vt 0.266951 0.840877
vt 0.267367 0.828331
vt 0.190686 0.875109
vt 0.267621 0.815496
vt 0.191520 0.862992
vt 0.111278 0.886940
vt 0.186666 0.867402
vt 0.185895 0.878238
vt 0.187368 0.855769
vt 0.192186 0.851186
vt 0.267722 0.802517
vt 0.187994 0.843494
vt 0.192679 0.839576
vt 0.267683 0.789544
vt 0.192999 0.828050
vt 0.112487 0.874338
vt 0.188538 0.830736
vt 0.267519 0.776723
vt 0.193131 0.816491
vt 0.113446 0.862100
vt 0.188986 0.817648
vt 0.267243 0.764199
vt 0.193073 0.804790
vt 0.114169 0.850127
vt 0.189334 0.804387
vt 0.266869 0.752122
vt 0.192818 0.792828
vt 0.114660 0.838321
vt 0.189574 0.791105
vt 0.266410 0.740636
vt 0.192359 0.780494
vt 0.114929 0.826589
vt 0.265878 0.729888
vt 0.189698 0.777964
vt 0.191692 0.767672
vt 0.114984 0.814831
vt 0.190805 0.754252
vt 0.189698 0.740115
vt 0.189695 0.765116
vt 0.114833 0.802953
vt 0.189562 0.752715
vt 0.114484 0.790855
vt 0.189286 0.740922
vt 0.113946 0.778444
vt 0.188861 0.729888
vt 0.113226 0.765622
vt 0.112333 0.752295
vt 0.111278 0.738360
vt 0.740784 0.672809
vt 0.869775 0.664771
vt 0.870392 0.672809
vt 0.869949 0.005670
vt 0.740784 0.000000
vt 0.869453 0.011913
vt 0.869165 0.655624
vt 0.868923 0.018692
vt 0.868574 0.645540
vt 0.868374 0.025960
vt 0.868007 0.634682
vt 0.867828 0.033675
vt 0.867475 0.623215
vt 0.867296 0.041793
vt 0.866987 0.611307
vt 0.866802 0.050274
vt 0.866550 0.599123
vt 0.866357 0.059072
vt 0.866173 0.586830
vt 0.865982 0.068146
vt 0.865864 0.574597
vt 0.865693 0.077453
vt 0.865634 0.562585
vt 0.865504 0.086946
vt 0.865490 0.550963
vt 0.865438 0.096588
vt 0.865438 0.539898
vt 0.865438 0.512132
vt 0.865438 0.478396
vt 0.865438 0.439983
vt 0.865438 0.398183
vt 0.865438 0.354283
vt 0.865438 0.309575
vt 0.865438 0.265349
vt 0.865438 0.222895
vt 0.865438 0.183501
vt 0.865438 0.148460
vt 0.865438 0.119058
vt 0.741212 0.664674
vt 0.741662 0.655624
vt 0.742126 0.645773
vt 0.742587 0.635232
vt 0.743039 0.624117
vt 0.743468 0.612545
vt 0.743861 0.600627
vt 0.744210 0.588481
vt 0.744499 0.576221
vt 0.744720 0.563960
vt 0.744862 0.551816
vt 0.744911 0.539898
vt 0.744911 0.512304
vt 0.744911 0.440332
vt 0.744911 0.398548
vt 0.744911 0.354634
vt 0.744911 0.309886
vt 0.744911 0.265599
vt 0.744911 0.223078
vt 0.744911 0.183616
vt 0.744911 0.119075
vt 0.744911 0.096588
vt 0.744845 0.087782
vt 0.744664 0.078769
vt 0.744384 0.069655
vt 0.744026 0.060539
vt 0.743609 0.051529
vt 0.743157 0.042721
vt 0.742689 0.034226
vt 0.742220 0.026144
vt 0.741777 0.018574
vt 0.741377 0.011626
vt 0.741038 0.005401
vt 0.007147 0.675343
vt 0.118461 0.729888
vt 0.000000 0.696037
vt 0.014009 0.653062
vt 0.020534 0.629424
vt 0.026667 0.604659
vt 0.032355 0.579000
vt 0.123740 0.708215
vt 0.037543 0.552674
vt 0.128744 0.685969
vt 0.042178 0.525919
vt 0.133459 0.663219
vt 0.046206 0.498957
vt 0.137872 0.640039
vt 0.049574 0.472029
vt 0.141971 0.616500
vt 0.052224 0.445357
vt 0.145733 0.592673
vt 0.054108 0.419180
vt 0.149153 0.568633
vt 0.055169 0.393722
vt 0.152211 0.544447
vt 0.055312 0.366360
vt 0.154896 0.520187
vt 0.054706 0.338015
vt 0.157188 0.495929
vt 0.053318 0.308718
vt 0.159079 0.471740
vt 0.051112 0.278507
vt 0.160550 0.447693
vt 0.048054 0.247413
vt 0.161019 0.311495
vt 0.448182 0.278875
vt 0.044114 0.215467
vt 0.039254 0.182707
vt 0.033444 0.149159
vt 0.026645 0.114864
vt 0.018829 0.079847
vt 0.009959 0.044147
vt 0.159660 0.287180
vt 0.388846 0.177778
vt 0.000000 0.007798
vt 0.157880 0.262249
vt 0.116034 0.000000
vt 0.155675 0.236797
vt 0.153039 0.210919
vt 0.149971 0.184710
vt 0.146465 0.158267
vt 0.142520 0.131683
vt 0.138127 0.105053
vt 0.133286 0.078476
vt 0.127994 0.052044
vt 0.122243 0.025853
vt 0.396901 0.172971
vt 0.456277 0.274168
vt 0.464809 0.269291
vt 0.405316 0.167814
vt 0.473645 0.264335
vt 0.413950 0.162399
vt 0.482655 0.259388
vt 0.422671 0.156825
vt 0.491709 0.254535
vt 0.431342 0.151187
vt 0.500674 0.249863
vt 0.439826 0.145582
vt 0.509416 0.245461
vt 0.447988 0.140107
vt 0.517806 0.241415
vt 0.455691 0.134857
vt 0.525711 0.237813
vt 0.462797 0.129932
vt 0.533003 0.234743
vt 0.469173 0.125423
vt 0.539545 0.232290
vt 0.474683 0.121433
vt 0.545211 0.230542
vt 0.479188 0.118052
s 1
usemtl マテリアル
f 2/1/1 74/2/1 1/3/1
f 40/4/1 38/5/1 39/6/1
f 41/7/1 38/5/1 40/4/1
f 2/1/1 73/8/1 74/2/1
f 42/9/1 38/5/1 41/7/1
f 2/1/1 72/10/1 73/8/1
f 43/11/1 38/5/1 42/9/1
f 2/1/1 71/12/1 72/10/1
f 44/13/1 38/5/1 43/11/1
f 2/1/1 70/14/1 71/12/1
f 45/15/1 38/5/1 44/13/1
f 2/1/1 69/16/1 70/14/1
f 46/17/1 38/5/1 45/15/1
f 2/1/1 68/18/1 69/16/1
f 47/19/1 38/5/1 46/17/1
f 2/1/1 67/20/1 68/18/1
f 48/21/1 38/5/1 47/19/1
f 2/1/1 66/22/1 67/20/1
f 49/23/1 38/5/1 48/21/1
f 2/1/1 65/24/1 66/22/1
f 50/25/1 38/5/1 49/23/1
f 2/1/1 64/26/1 65/24/1
f 51/27/1 38/5/1 50/25/1
f 2/1/1 63/28/1 64/26/1
f 2/1/1 62/29/1 63/28/1
f 2/1/1 61/30/1 62/29/1
f 2/1/1 60/31/1 61/30/1
f 2/1/1 59/32/1 60/31/1
f 2/1/1 58/33/1 59/32/1
f 2/1/1 57/34/1 58/33/1
f 2/1/1 56/35/1 57/34/1
f 2/1/1 55/36/1 56/35/1
f 2/1/1 54/37/1 55/36/1
f 2/1/1 53/38/1 54/37/1
f 2/1/1 52/39/1 53/38/1
f 2/1/1 51/27/1 52/39/1
f 2/1/1 3/40/1 51/27/1
f 3/40/1 4/41/1 51/27/1
f 4/41/1 5/42/1 51/27/1
f 5/42/1 6/43/1 51/27/1
f 6/43/1 7/44/1 51/27/1
f 7/44/1 8/45/1 51/27/1
f 8/45/1 9/46/1 51/27/1
f 9/46/1 10/47/1 51/27/1
f 10/47/1 11/48/1 51/27/1
f 11/48/1 12/49/1 51/27/1
f 12/49/1 13/50/1 51/27/1
f 13/50/1 14/51/1 51/27/1
f 14/51/1 15/52/1 51/27/1
f 15/52/1 17/53/1 51/27/1
f 17/53/1 18/54/1 51/27/1
f 18/54/1 19/55/1 51/27/1
f 19/55/1 20/56/1 51/27/1
f 20/56/1 21/57/1 51/27/1
f 21/57/1 22/58/1 51/27/1
f 22/58/1 23/59/1 51/27/1
f 23/59/1 26/60/1 51/27/1
f 26/60/1 27/61/1 51/27/1
f 27/61/1 28/62/1 51/27/1
f 28/62/1 29/63/1 51/27/1
f 29/63/1 30/64/1 51/27/1
f 30/64/1 31/65/1 51/27/1
f 31/65/1 32/66/1 51/27/1
f 32/66/1 33/67/1 51/27/1
f 33/67/1 38/5/1 51/27/1
s 0
f 16/68/1 17/68/1 15/68/1
f 24/68/1 26/68/1 23/68/1
f 25/68/1 26/68/1 24/68/1
s 1
f 34/69/1 38/5/1 33/67/1
f 35/70/1 38/5/1 34/69/1
f 36/71/1 38/5/1 35/70/1
f 37/72/1 38/5/1 36/71/1
f 167/73/1 165/74/1 166/75/1
f 167/73/1 164/76/1 165/74/1
f 167/73/1 163/77/1 164/76/1
f 167/73/1 162/78/1 163/77/1
f 167/73/1 161/79/1 162/78/1
f 167/73/1 160/80/1 161/79/1
f 167/73/1 159/81/1 160/80/1
f 167/73/1 158/82/1 159/81/1
f 167/73/1 157/83/1 158/82/1
f 168/84/1 157/83/1 167/73/1
f 168/84/1 156/85/1 157/83/1
f 169/86/1 156/85/1 168/84/1
f 169/86/1 155/87/1 156/85/1
f 170/88/1 155/87/1 169/86/1
f 170/88/1 154/89/1 155/87/1
f 171/90/1 154/89/1 170/88/1
f 171/90/1 172/91/1 154/89/1
f 172/91/1 173/92/1 154/89/1
f 173/92/1 174/93/1 154/89/1
f 174/93/1 175/94/1 154/89/1
f 175/94/1 176/95/1 154/89/1
f 176/95/1 177/96/1 154/89/1
f 177/96/1 178/97/1 154/89/1
f 178/97/1 153/98/1 154/89/1
f 206/99/1 204/100/1 205/101/1
f 141/102/1 139/103/1 140/104/1
f 141/102/1 138/105/1 139/103/1
f 141/102/1 137/106/1 138/105/1
f 207/107/1 204/100/1 206/99/1
f 141/102/1 136/108/1 137/106/1
f 141/102/1 135/109/1 136/108/1
f 141/102/1 134/110/1 135/109/1
f 208/111/1 204/100/1 207/107/1
f 141/102/1 133/112/1 134/110/1
f 141/102/1 132/113/1 133/112/1
f 141/102/1 131/114/1 132/113/1
f 209/115/1 204/100/1 208/111/1
f 141/102/1 130/116/1 131/114/1
f 142/117/1 130/116/1 141/102/1
f 143/118/1 130/116/1 142/117/1
f 143/118/1 129/119/1 130/116/1
f 209/115/1 203/120/1 204/100/1
f 144/121/1 129/119/1 143/118/1
f 144/121/1 128/122/1 129/119/1
f 210/123/1 203/120/1 209/115/1
f 144/121/1 145/124/1 128/122/1
f 145/124/1 146/125/1 128/122/1
f 146/125/1 147/126/1 128/122/1
f 147/126/1 148/127/1 128/122/1
f 148/127/1 149/128/1 128/122/1
f 149/128/1 150/129/1 128/122/1
f 150/129/1 151/130/1 128/122/1
f 151/130/1 152/131/1 128/122/1
f 152/131/1 127/132/1 128/122/1
f 210/123/1 202/133/1 203/120/1
f 211/134/1 202/133/1 210/123/1
f 211/134/1 201/135/1 202/133/1
f 212/136/1 201/135/1 211/134/1
f 213/137/1 201/135/1 212/136/1
f 213/137/1 200/138/1 201/135/1
f 214/139/1 200/138/1 213/137/1
f 214/139/1 199/140/1 200/138/1
f 215/141/1 199/140/1 214/139/1
f 215/141/1 198/142/1 199/140/1
f 216/143/1 198/142/1 215/141/1
f 216/143/1 197/144/1 198/142/1
f 217/145/1 197/144/1 216/143/1
f 217/145/1 196/146/1 197/144/1
f 218/147/1 196/146/1 217/145/1
f 219/148/1 196/146/1 218/147/1
f 219/148/1 195/149/1 196/146/1
f 220/150/1 195/149/1 219/148/1
f 221/151/1 195/149/1 220/150/1
f 221/151/1 194/152/1 195/149/1
f 222/153/1 194/152/1 221/151/1
f 223/154/1 194/152/1 222/153/1
f 223/154/1 193/155/1 194/152/1
f 224/156/1 193/155/1 223/154/1
f 225/157/1 193/155/1 224/156/1
f 226/158/1 193/155/1 225/157/1
f 227/159/1 193/155/1 226/158/1
f 227/159/1 192/160/1 193/155/1
f 228/161/1 192/160/1 227/159/1
f 179/162/1 192/160/1 228/161/1
f 180/163/1 192/160/1 179/162/1
f 180/163/1 191/164/1 192/160/1
f 180/163/1 190/165/1 191/164/1
f 180/163/1 189/166/1 190/165/1
f 180/163/1 188/167/1 189/166/1
f 180/163/1 187/168/1 188/167/1
f 180/163/1 186/169/1 187/168/1
f 180/163/1 185/170/1 186/169/1
f 180/163/1 184/171/1 185/170/1
f 180/163/1 183/172/1 184/171/1
f 180/163/1 182/173/1 183/172/1
f 180/163/1 181/174/1 182/173/1
f 115/175/1 113/176/1 114/177/1
f 115/175/1 112/178/1 113/176/1
f 115/175/1 111/179/1 112/178/1
f 115/175/1 110/180/1 111/179/1
f 116/181/1 110/180/1 115/175/1
f 116/181/1 109/182/1 110/180/1
f 117/183/1 109/182/1 116/181/1
f 89/184/1 87/185/1 88/186/1
f 89/184/1 86/187/1 87/185/1
f 118/188/1 109/182/1 117/183/1
f 118/188/1 108/189/1 109/182/1
f 89/184/1 85/190/1 86/187/1
f 119/191/1 108/189/1 118/188/1
f 119/191/1 107/192/1 108/189/1
f 120/193/1 107/192/1 119/191/1
f 90/194/1 85/190/1 89/184/1
f 90/194/1 84/195/1 85/190/1
f 120/193/1 106/196/1 107/192/1
f 121/197/1 106/196/1 120/193/1
f 91/198/1 84/195/1 90/194/1
f 91/198/1 83/199/1 84/195/1
f 121/197/1 105/200/1 106/196/1
f 122/201/1 105/200/1 121/197/1
f 92/202/1 83/199/1 91/198/1
f 92/202/1 82/203/1 83/199/1
f 122/201/1 104/204/1 105/200/1
f 123/205/1 104/204/1 122/201/1
f 93/206/1 82/203/1 92/202/1
f 93/206/1 81/207/1 82/203/1
f 123/205/1 103/208/1 104/204/1
f 124/209/1 103/208/1 123/205/1
f 94/210/1 81/207/1 93/206/1
f 124/209/1 102/211/1 103/208/1
f 94/210/1 80/212/1 81/207/1
f 125/213/1 102/211/1 124/209/1
f 95/214/1 80/212/1 94/210/1
f 125/213/1 126/215/1 102/211/1
f 126/215/1 101/216/1 102/211/1
f 95/214/1 79/217/1 80/212/1
f 96/218/1 79/217/1 95/214/1
f 96/218/1 78/219/1 79/217/1
f 97/220/1 78/219/1 96/218/1
f 97/220/1 77/221/1 78/219/1
f 98/222/1 77/221/1 97/220/1
f 98/222/1 76/223/1 77/221/1
f 99/224/1 76/223/1 98/222/1
f 99/224/1 100/225/1 76/223/1
f 100/225/1 75/226/1 76/223/1
f 230/227/1 302/228/1 229/229/1
f 268/230/1 266/231/1 267/5/1
f 269/232/1 266/231/1 268/230/1
f 230/227/1 301/233/1 302/228/1
f 270/234/1 266/231/1 269/232/1
f 230/227/1 300/235/1 301/233/1
f 271/236/1 266/231/1 270/234/1
f 230/227/1 299/237/1 300/235/1
f 272/238/1 266/231/1 271/236/1
f 230/227/1 298/239/1 299/237/1
f 273/240/1 266/231/1 272/238/1
f 230/227/1 297/241/1 298/239/1
f 274/242/1 266/231/1 273/240/1
f 230/227/1 296/243/1 297/241/1
f 275/244/1 266/231/1 274/242/1
f 230/227/1 295/245/1 296/243/1
f 276/246/1 266/231/1 275/244/1
f 230/227/1 294/247/1 295/245/1
f 277/248/1 266/231/1 276/246/1
f 230/227/1 293/249/1 294/247/1
f 278/250/1 266/231/1 277/248/1
f 230/227/1 292/251/1 293/249/1
f 279/252/1 266/231/1 278/250/1
f 230/227/1 291/253/1 292/251/1
f 230/227/1 290/254/1 291/253/1
f 230/227/1 289/255/1 290/254/1
f 230/227/1 288/256/1 289/255/1
f 230/227/1 287/257/1 288/256/1
f 230/227/1 286/258/1 287/257/1
f 230/227/1 285/259/1 286/258/1
f 230/227/1 284/260/1 285/259/1
f 230/227/1 283/261/1 284/260/1
f 230/227/1 282/262/1 283/261/1
f 230/227/1 281/263/1 282/262/1
f 230/227/1 280/264/1 281/263/1
f 230/227/1 279/252/1 280/264/1
f 230/227/1 231/265/1 279/252/1
f 231/265/1 232/266/1 279/252/1
f 232/266/1 233/267/1 279/252/1
f 233/267/1 234/268/1 279/252/1
f 234/268/1 235/269/1 279/252/1
f 235/269/1 236/270/1 279/252/1
f 236/270/1 237/271/1 279/252/1
f 237/271/1 238/272/1 279/252/1
f 238/272/1 239/273/1 279/252/1
f 239/273/1 240/274/1 279/252/1
f 240/274/1 241/275/1 279/252/1
f 241/275/1 242/276/1 279/252/1
f 242/276/1 243/277/1 279/252/1
f 243/277/1 245/278/1 279/252/1
f 245/278/1 246/279/1 279/252/1
f 246/279/1 247/280/1 279/252/1
f 247/280/1 248/281/1 279/252/1
f 248/281/1 249/282/1 279/252/1
f 249/282/1 250/283/1 279/252/1
f 250/283/1 251/284/1 279/252/1
f 251/284/1 253/285/1 279/252/1
f 253/285/1 254/286/1 279/252/1
f 254/286/1 255/287/1 279/252/1
f 255/287/1 256/288/1 279/252/1
f 256/288/1 257/289/1 279/252/1
f 257/289/1 258/290/1 279/252/1
f 258/290/1 259/291/1 279/252/1
f 259/291/1 260/292/1 279/252/1
f 260/292/1 261/293/1 279/252/1
f 261/293/1 266/231/1 279/252/1
s 0
f 244/68/1 245/68/1 243/68/1
f 252/68/1 253/68/1 251/68/1
s 1
f 262/294/1 266/231/1 261/293/1
f 263/295/1 266/231/1 262/294/1
f 264/296/1 266/231/1 263/295/1
f 265/297/1 266/231/1 264/296/1
f 331/298/1 329/299/1 330/300/1
f 332/301/1 329/299/1 331/298/1
f 333/302/1 329/299/1 332/301/1
f 334/303/1 329/299/1 333/302/1
f 335/304/1 329/299/1 334/303/1
f 335/304/1 328/305/1 329/299/1
f 336/306/1 328/305/1 335/304/1
f 336/306/1 327/307/1 328/305/1
f 337/308/1 327/307/1 336/306/1
f 337/308/1 326/309/1 327/307/1
f 338/310/1 326/309/1 337/308/1
f 338/310/1 325/311/1 326/309/1
f 339/312/1 325/311/1 338/310/1
f 339/312/1 324/313/1 325/311/1
f 340/314/1 324/313/1 339/312/1
f 340/314/1 323/315/1 324/313/1
f 341/316/1 323/315/1 340/314/1
f 341/316/1 322/317/1 323/315/1
f 342/318/1 322/317/1 341/316/1
f 342/318/1 321/319/1 322/317/1
f 343/320/1 321/319/1 342/318/1
f 343/320/1 320/321/1 321/319/1
f 344/322/1 320/321/1 343/320/1
f 344/322/1 319/323/1 320/321/1
f 345/324/1 319/323/1 344/322/1
f 345/324/1 318/325/1 319/323/1
f 346/326/1 318/325/1 345/324/1
f 346/326/1 317/327/1 318/325/1
f 347/328/1 317/327/1 346/326/1
f 347/328/1 367/329/1 317/327/1
f 367/329/1 316/330/1 317/327/1
f 348/331/1 367/329/1 347/328/1
f 349/332/1 367/329/1 348/331/1
f 350/333/1 367/329/1 349/332/1
f 351/334/1 367/329/1 350/333/1
f 352/335/1 367/329/1 351/334/1
f 353/336/1 367/329/1 352/335/1
f 353/336/1 366/337/1 367/329/1
f 368/338/1 316/330/1 367/329/1
f 354/339/1 366/337/1 353/336/1
f 354/339/1 365/340/1 366/337/1
f 355/341/1 365/340/1 354/339/1
f 355/341/1 364/342/1 365/340/1
f 355/341/1 363/343/1 364/342/1
f 355/341/1 362/344/1 363/343/1
f 355/341/1 361/345/1 362/344/1
f 355/341/1 360/346/1 361/345/1
f 355/341/1 359/347/1 360/346/1
f 355/341/1 358/348/1 359/347/1
f 355/341/1 357/349/1 358/348/1
f 355/341/1 356/350/1 357/349/1
f 369/351/1 316/330/1 368/338/1
f 369/351/1 315/352/1 316/330/1
f 369/351/1 314/353/1 315/352/1
f 370/354/1 314/353/1 369/351/1
f 370/354/1 313/355/1 314/353/1
f 371/356/1 313/355/1 370/354/1
f 371/356/1 312/357/1 313/355/1
f 372/358/1 312/357/1 371/356/1
f 372/358/1 311/359/1 312/357/1
f 373/360/1 311/359/1 372/358/1
f 373/360/1 310/361/1 311/359/1
f 374/362/1 310/361/1 373/360/1
f 374/362/1 309/363/1 310/361/1
f 375/364/1 309/363/1 374/362/1
f 375/364/1 308/365/1 309/363/1
f 376/366/1 308/365/1 375/364/1
f 376/366/1 307/367/1 308/365/1
f 377/368/1 307/367/1 376/366/1
f 377/368/1 306/369/1 307/367/1
f 378/370/1 306/369/1 377/368/1
f 378/370/1 305/371/1 306/369/1
f 379/372/1 305/371/1 378/370/1
f 379/372/1 304/373/1 305/371/1
f 303/374/1 304/373/1 379/372/1
