# Blender 4.4.1
# www.blender.org
mtllib hard.mtl
o テキスト
v 0.941795 -0.000000 -0.194250
v 0.972300 -0.000000 -0.207924
v 0.970166 -0.000000 -0.211999
v 0.967818 -0.000000 -0.216302
v 0.965293 -0.000000 -0.220783
v 0.962625 -0.000000 -0.225391
v 0.959851 -0.000000 -0.230077
v 0.957004 -0.000000 -0.234791
v 0.954121 -0.000000 -0.239484
v 0.951236 -0.000000 -0.244104
v 0.948386 -0.000000 -0.248603
v 0.945605 -0.000000 -0.252930
v 0.942929 -0.000000 -0.257036
v 0.940393 -0.000000 -0.260870
v 0.910940 -0.000000 -0.248597
v 0.914078 -0.000000 -0.244120
v 0.917024 -0.000000 -0.239775
v 0.919804 -0.000000 -0.235520
v 0.922446 -0.000000 -0.231313
v 0.924975 -0.000000 -0.227110
v 0.927419 -0.000000 -0.222870
v 0.929805 -0.000000 -0.218549
v 0.932159 -0.000000 -0.214106
v 0.934509 -0.000000 -0.209497
v 0.936880 -0.000000 -0.204679
v 0.939300 -0.000000 -0.199611
v 0.989832 -0.000000 -0.213885
v 1.019285 -0.000000 -0.228261
v 1.017136 -0.000000 -0.232329
v 1.014749 -0.000000 -0.236609
v 1.012163 -0.000000 -0.241053
v 1.009415 -0.000000 -0.245611
v 1.006546 -0.000000 -0.250231
v 1.003594 -0.000000 -0.254865
v 1.000598 -0.000000 -0.259462
v 0.997598 -0.000000 -0.263973
v 0.994631 -0.000000 -0.268348
v 0.991738 -0.000000 -0.272536
v 0.988956 -0.000000 -0.276488
v 0.986325 -0.000000 -0.280154
v 0.957223 -0.000000 -0.266480
v 0.960376 -0.000000 -0.262184
v 0.963364 -0.000000 -0.258030
v 0.966213 -0.000000 -0.253972
v 0.968950 -0.000000 -0.249961
v 0.971598 -0.000000 -0.245950
v 0.974185 -0.000000 -0.241892
v 0.976735 -0.000000 -0.237738
v 0.979274 -0.000000 -0.233442
v 0.981827 -0.000000 -0.228957
v 0.984421 -0.000000 -0.224233
v 0.987081 -0.000000 -0.219225
v 0.975456 -0.000000 -0.075386
v 0.995091 -0.000000 -0.124123
v 0.986322 -0.000000 -0.128246
v 0.976272 -0.000000 -0.132680
v 0.965140 -0.000000 -0.137354
v 0.953119 -0.000000 -0.142200
v 0.940408 -0.000000 -0.147149
v 0.927200 -0.000000 -0.152130
v 0.913693 -0.000000 -0.157075
v 0.900083 -0.000000 -0.161914
v 0.886565 -0.000000 -0.166577
v 0.873336 -0.000000 -0.170996
v 0.860591 -0.000000 -0.175101
v 0.848527 -0.000000 -0.178822
v 0.848527 -0.000000 -0.230014
v 0.848563 -0.000000 -0.233708
v 0.848664 -0.000000 -0.237418
v 0.848823 -0.000000 -0.241130
v 0.849034 -0.000000 -0.244831
v 0.849288 -0.000000 -0.248508
v 0.849579 -0.000000 -0.252148
v 0.849899 -0.000000 -0.255736
v 0.850242 -0.000000 -0.259259
v 0.850598 -0.000000 -0.262705
v 0.850962 -0.000000 -0.266059
v 0.851326 -0.000000 -0.269309
v 0.851683 -0.000000 -0.272440
v 0.796985 -0.000000 -0.272440
v 0.797569 -0.000000 -0.269195
v 0.798097 -0.000000 -0.265791
v 0.798568 -0.000000 -0.262261
v 0.798985 -0.000000 -0.258636
v 0.799348 -0.000000 -0.254947
v 0.799658 -0.000000 -0.251227
v 0.799918 -0.000000 -0.247507
v 0.800127 -0.000000 -0.243818
v 0.800288 -0.000000 -0.240193
v 0.800402 -0.000000 -0.236663
v 0.800469 -0.000000 -0.233259
v 0.800491 -0.000000 -0.230014
v 0.800491 -0.000000 -0.220376
v 0.800491 -0.000000 -0.206728
v 0.800491 -0.000000 -0.189883
v 0.800491 -0.000000 -0.170653
v 0.800491 -0.000000 -0.149851
v 0.800491 -0.000000 -0.128287
v 0.800491 -0.000000 -0.106775
v 0.800491 -0.000000 -0.086125
v 0.800491 -0.000000 -0.067151
v 0.800491 -0.000000 -0.050665
v 0.800491 -0.000000 -0.037477
v 0.800491 -0.000000 -0.028401
v 0.800462 -0.000000 -0.024831
v 0.800377 -0.000000 -0.020992
v 0.800239 -0.000000 -0.016940
v 0.800049 -0.000000 -0.012727
v 0.799811 -0.000000 -0.008406
v 0.799527 -0.000000 -0.004032
v 0.799198 0.000000 0.000342
v 0.798829 0.000000 0.004662
v 0.798420 0.000000 0.008875
v 0.797975 0.000000 0.012928
v 0.797495 0.000000 0.016766
v 0.796985 0.000000 0.020337
v 0.852034 0.000000 0.020337
v 0.851596 0.000000 0.016545
v 0.851165 0.000000 0.012417
v 0.850746 0.000000 0.008037
v 0.850345 0.000000 0.003493
v 0.849969 -0.000000 -0.001128
v 0.849623 -0.000000 -0.005742
v 0.849314 -0.000000 -0.010260
v 0.849047 -0.000000 -0.014597
v 0.848829 -0.000000 -0.018666
v 0.848665 -0.000000 -0.022380
v 0.848563 -0.000000 -0.025654
v 0.848527 -0.000000 -0.028401
v 0.848527 -0.000000 -0.127630
v 0.858283 -0.000000 -0.124318
v 0.868546 -0.000000 -0.120716
v 0.879208 -0.000000 -0.116853
v 0.890162 -0.000000 -0.112760
v 0.901301 -0.000000 -0.108468
v 0.912517 -0.000000 -0.104006
v 0.923705 -0.000000 -0.099405
v 0.934757 -0.000000 -0.094696
v 0.945564 -0.000000 -0.089909
v 0.956022 -0.000000 -0.085075
v 0.966021 -0.000000 -0.080224
v 0.382889 -0.000000 -0.162342
v 0.382889 -0.000000 -0.107293
v 0.386344 -0.000000 -0.107475
v 0.390188 -0.000000 -0.107666
v 0.394372 -0.000000 -0.107863
v 0.398849 -0.000000 -0.108059
v 0.403570 -0.000000 -0.108251
v 0.408485 -0.000000 -0.108433
v 0.413547 -0.000000 -0.108600
v 0.418706 -0.000000 -0.108748
v 0.423913 -0.000000 -0.108871
v 0.429121 -0.000000 -0.108965
v 0.434279 -0.000000 -0.109025
v 0.439341 -0.000000 -0.109046
v 0.451061 -0.000000 -0.109046
v 0.465341 -0.000000 -0.109046
v 0.481630 -0.000000 -0.109046
v 0.499377 -0.000000 -0.109046
v 0.518029 -0.000000 -0.109046
v 0.537035 -0.000000 -0.109046
v 0.555845 -0.000000 -0.109046
v 0.573905 -0.000000 -0.109046
v 0.590666 -0.000000 -0.109046
v 0.605574 -0.000000 -0.109046
v 0.618079 -0.000000 -0.109046
v 0.627630 -0.000000 -0.109046
v 0.631370 -0.000000 -0.109018
v 0.635198 -0.000000 -0.108941
v 0.639069 -0.000000 -0.108822
v 0.642941 -0.000000 -0.108670
v 0.646768 -0.000000 -0.108493
v 0.650509 -0.000000 -0.108301
v 0.654117 -0.000000 -0.108102
v 0.657550 -0.000000 -0.107903
v 0.660765 -0.000000 -0.107715
v 0.663716 -0.000000 -0.107545
v 0.666360 -0.000000 -0.107401
v 0.668654 -0.000000 -0.107293
v 0.668654 -0.000000 -0.162342
v 0.666246 -0.000000 -0.162154
v 0.663594 -0.000000 -0.161943
v 0.660715 -0.000000 -0.161718
v 0.657628 -0.000000 -0.161485
v 0.654351 -0.000000 -0.161253
v 0.650903 -0.000000 -0.161027
v 0.647301 -0.000000 -0.160817
v 0.643564 -0.000000 -0.160628
v 0.639710 -0.000000 -0.160469
v 0.635757 -0.000000 -0.160346
v 0.631725 -0.000000 -0.160266
v 0.627630 -0.000000 -0.160238
v 0.618086 -0.000000 -0.160238
v 0.605598 -0.000000 -0.160238
v 0.590715 -0.000000 -0.160238
v 0.573983 -0.000000 -0.160238
v 0.555951 -0.000000 -0.160238
v 0.537167 -0.000000 -0.160238
v 0.518178 -0.000000 -0.160238
v 0.499532 -0.000000 -0.160238
v 0.481778 -0.000000 -0.160238
v 0.465463 -0.000000 -0.160238
v 0.451134 -0.000000 -0.160238
v 0.439341 -0.000000 -0.160238
v 0.434641 -0.000000 -0.160260
v 0.429705 -0.000000 -0.160321
v 0.424603 -0.000000 -0.160419
v 0.419407 -0.000000 -0.160550
v 0.414186 -0.000000 -0.160710
v 0.409011 -0.000000 -0.160896
v 0.403953 -0.000000 -0.161103
v 0.399083 -0.000000 -0.161329
v 0.394471 -0.000000 -0.161570
v 0.390188 -0.000000 -0.161821
v 0.386303 -0.000000 -0.162080
v 0.281557 0.000000 0.000701
v 0.333450 -0.000000 -0.016129
v 0.330822 -0.000000 -0.025219
v 0.327881 -0.000000 -0.035031
v 0.324679 -0.000000 -0.045407
v 0.321269 -0.000000 -0.056192
v 0.317703 -0.000000 -0.067230
v 0.314034 -0.000000 -0.078366
v 0.310314 -0.000000 -0.089443
v 0.306594 -0.000000 -0.100306
v 0.302929 -0.000000 -0.110799
v 0.299369 -0.000000 -0.120766
v 0.295968 -0.000000 -0.130052
v 0.292777 -0.000000 -0.138499
v 0.289232 -0.000000 -0.147311
v 0.285305 -0.000000 -0.156807
v 0.281069 -0.000000 -0.166824
v 0.276596 -0.000000 -0.177199
v 0.271957 -0.000000 -0.187768
v 0.267225 -0.000000 -0.198370
v 0.262470 -0.000000 -0.208839
v 0.257766 -0.000000 -0.219015
v 0.253183 -0.000000 -0.228732
v 0.248794 -0.000000 -0.237829
v 0.244670 -0.000000 -0.246141
v 0.240884 -0.000000 -0.253506
v 0.194250 -0.000000 -0.238429
v 0.198089 -0.000000 -0.231191
v 0.202204 -0.000000 -0.223066
v 0.206533 -0.000000 -0.214192
v 0.211015 -0.000000 -0.204704
v 0.215590 -0.000000 -0.194738
v 0.220196 -0.000000 -0.184432
v 0.224774 -0.000000 -0.173921
v 0.229261 -0.000000 -0.163342
v 0.233597 -0.000000 -0.152831
v 0.237721 -0.000000 -0.142525
v 0.241573 -0.000000 -0.132560
v 0.245091 -0.000000 -0.123072
v 0.248567 -0.000000 -0.113471
v 0.251980 -0.000000 -0.103628
v 0.255325 -0.000000 -0.093575
v 0.258597 -0.000000 -0.083346
v 0.261791 -0.000000 -0.072977
v 0.264902 -0.000000 -0.062500
v 0.267925 -0.000000 -0.051950
v 0.270856 -0.000000 -0.041361
v 0.273690 -0.000000 -0.030768
v 0.276421 -0.000000 -0.020203
v 0.279045 -0.000000 -0.009702
v 0.017532 -0.000000 -0.018233
v 0.066620 0.000000 0.002454
v 0.071223 -0.000000 -0.004393
v 0.075892 -0.000000 -0.011743
v 0.080590 -0.000000 -0.019526
v 0.085281 -0.000000 -0.027674
v 0.089928 -0.000000 -0.036119
v 0.094495 -0.000000 -0.044793
v 0.098945 -0.000000 -0.053628
v 0.103241 -0.000000 -0.062555
v 0.107348 -0.000000 -0.071507
v 0.111228 -0.000000 -0.080415
v 0.114845 -0.000000 -0.089210
v 0.118163 -0.000000 -0.097826
v 0.121233 -0.000000 -0.106277
v 0.124291 -0.000000 -0.115238
v 0.127306 -0.000000 -0.124573
v 0.130253 -0.000000 -0.134149
v 0.133102 -0.000000 -0.143832
v 0.135826 -0.000000 -0.153489
v 0.138396 -0.000000 -0.162985
v 0.140785 -0.000000 -0.172186
v 0.142964 -0.000000 -0.180959
v 0.144906 -0.000000 -0.189169
v 0.146583 -0.000000 -0.196683
v 0.147966 -0.000000 -0.203366
v 0.148373 -0.000000 -0.205482
v 0.148882 -0.000000 -0.207936
v 0.149478 -0.000000 -0.210669
v 0.150148 -0.000000 -0.213625
v 0.150876 -0.000000 -0.216747
v 0.151648 -0.000000 -0.219977
v 0.152449 -0.000000 -0.223258
v 0.153265 -0.000000 -0.226534
v 0.154080 -0.000000 -0.229746
v 0.154882 -0.000000 -0.232837
v 0.155653 -0.000000 -0.235751
v 0.156381 -0.000000 -0.238429
v 0.105189 -0.000000 -0.248948
v 0.103951 -0.000000 -0.237642
v 0.102357 -0.000000 -0.226198
v 0.100428 -0.000000 -0.214668
v 0.098190 -0.000000 -0.203106
v 0.095664 -0.000000 -0.191564
v 0.092873 -0.000000 -0.180093
v 0.089842 -0.000000 -0.168746
v 0.086593 -0.000000 -0.157576
v 0.083149 -0.000000 -0.146635
v 0.079533 -0.000000 -0.135975
v 0.075769 -0.000000 -0.125649
v 0.071879 -0.000000 -0.115708
v 0.068721 -0.000000 -0.107858
v 0.065224 -0.000000 -0.099771
v 0.061415 -0.000000 -0.091504
v 0.057322 -0.000000 -0.083113
v 0.052970 -0.000000 -0.074653
v 0.048387 -0.000000 -0.066182
v 0.043600 -0.000000 -0.057754
v 0.038634 -0.000000 -0.049426
v 0.033518 -0.000000 -0.041254
v 0.028278 -0.000000 -0.033294
v 0.022940 -0.000000 -0.025601
vn -0.0000 1.0000 -0.0000
vt 0.699377 0.930048
vt 0.784826 0.908276
vt 0.784019 0.920207
vt 0.785573 0.895490
vt 0.786240 0.882018
vt 0.001548 0.767284
vt 0.144954 0.775884
vt 0.000000 0.775884
vt 0.144008 0.767586
vt 0.143044 0.758974
vt 0.002947 0.758263
vt 0.786814 0.868020
vt 0.700480 0.915969
vt 0.142079 0.750085
vt 0.004195 0.748909
vt 0.787271 0.853671
vt 0.141136 0.740953
vt 0.005300 0.739302
vt 0.701409 0.902441
vt 0.610508 0.855243
vt 0.695271 0.832837
vt 0.694443 0.844991
vt 0.787600 0.839133
vt 0.140227 0.731617
vt 0.006262 0.729526
vt 0.702159 0.889322
vt 0.696066 0.819873
vt 0.139379 0.722108
vt 0.007084 0.719667
vt 0.787778 0.824574
vt 0.702722 0.876466
vt 0.696813 0.806263
vt 0.138607 0.712462
vt 0.007773 0.709809
vt 0.787788 0.810162
vt 0.703086 0.863734
vt 0.697495 0.792166
vt 0.611883 0.840820
vt 0.137934 0.702718
vt 0.008327 0.700033
vt 0.703245 0.850982
vt 0.787612 0.796058
vt 0.137375 0.692910
vt 0.612987 0.826952
vt 0.698099 0.777744
vt 0.008753 0.690426
vt 0.703188 0.838065
vt 0.136954 0.683073
vt 0.787231 0.782438
vt 0.009055 0.681072
vt 0.613826 0.813509
vt 0.698602 0.763156
vt 0.702908 0.824843
vt 0.136686 0.673241
vt 0.009233 0.672051
vt 0.786630 0.769465
vt 0.614411 0.800357
vt 0.698996 0.748568
vt 0.136591 0.663451
vt 0.702395 0.811177
vt 0.009291 0.663451
vt 0.785790 0.757301
vt 0.614740 0.787362
vt 0.699258 0.734139
vt 0.009291 0.637910
vt 0.136591 0.527788
vt 0.701641 0.796914
vt 0.700638 0.781920
vt 0.699377 0.766051
vt 0.614824 0.774392
vt 0.699377 0.720029
vt 0.614669 0.761313
vt 0.699333 0.706398
vt 0.009291 0.601741
vt 0.614281 0.747993
vt 0.699114 0.693409
vt 0.613666 0.734297
vt 0.698700 0.681226
vt 0.612827 0.720091
vt 0.611773 0.705245
vt 0.610508 0.689626
vt 0.009291 0.557101
vt 0.009291 0.506140
vt 0.168561 0.517927
vt 0.202337 0.507049
vt 0.237395 0.495338
vt 0.009291 0.451013
vt 0.273218 0.482981
vt 0.309286 0.470157
vt 0.345081 0.457052
vt 0.380083 0.443852
vt 0.009291 0.393866
vt 0.413768 0.430737
vt 0.445625 0.417894
vt 0.475126 0.405508
vt 0.501759 0.393757
vt 0.009291 0.336858
vt 0.136591 0.392125
vt 0.524998 0.382831
vt 0.136591 0.129160
vt 0.162445 0.383348
vt 0.189643 0.373802
vt 0.217898 0.363565
vt 0.246927 0.352718
vt 0.276446 0.341344
vt 0.306170 0.329519
vt 0.335819 0.317326
vt 0.365107 0.304847
vt 0.393747 0.292161
vt 0.421462 0.279351
vt 0.447960 0.266495
vt 0.472963 0.253674
vt 0.009291 0.282133
vt 0.009291 0.231851
vt 0.009291 0.188161
vt 0.009291 0.153212
vt 0.009291 0.129160
vt 0.009214 0.119699
vt 0.136686 0.121880
vt 0.136956 0.113204
vt 0.008989 0.109525
vt 0.137391 0.103361
vt 0.008624 0.098787
vt 0.137969 0.092578
vt 0.008120 0.087622
vt 0.138676 0.081085
vt 0.007489 0.076171
vt 0.139495 0.069112
vt 0.006737 0.064580
vt 0.140412 0.056884
vt 0.005865 0.052988
vt 0.141409 0.044638
vt 0.004887 0.041540
vt 0.142471 0.032596
vt 0.003803 0.030375
vt 0.143582 0.020989
vt 0.002624 0.019635
vt 0.144724 0.010049
vt 0.001352 0.009463
vt 0.145884 0.000000
vt 0.000000 0.000000
vt 0.699377 0.757301
vt 0.844567 0.748254
vt 0.845262 0.757301
vt 0.844764 0.006382
vt 0.699377 0.000000
vt 0.845262 0.000000
vt 0.844204 0.013410
vt 0.843881 0.737958
vt 0.843608 0.021039
vt 0.843216 0.726608
vt 0.842991 0.029220
vt 0.842577 0.714386
vt 0.842376 0.037904
vt 0.841978 0.701480
vt 0.841777 0.047042
vt 0.841430 0.688076
vt 0.841220 0.056587
vt 0.840937 0.674362
vt 0.840720 0.066491
vt 0.840513 0.660526
vt 0.840298 0.076704
vt 0.840166 0.646756
vt 0.839972 0.087180
vt 0.839906 0.633235
vt 0.839760 0.097865
vt 0.839744 0.620154
vt 0.839686 0.108717
vt 0.839686 0.607699
vt 0.839686 0.576446
vt 0.839686 0.538473
vt 0.839686 0.495237
vt 0.839686 0.448188
vt 0.839686 0.398774
vt 0.839686 0.348452
vt 0.839686 0.298673
vt 0.839686 0.250886
vt 0.839686 0.206545
vt 0.839686 0.167104
vt 0.839686 0.134010
vt 0.699859 0.748145
vt 0.700366 0.737958
vt 0.700888 0.726871
vt 0.701407 0.715006
vt 0.701916 0.702495
vt 0.702398 0.689470
vt 0.702841 0.676055
vt 0.703233 0.662383
vt 0.703559 0.648584
vt 0.703808 0.634783
vt 0.703967 0.621114
vt 0.704023 0.607699
vt 0.704023 0.576640
vt 0.704023 0.495629
vt 0.704023 0.448598
vt 0.704023 0.399169
vt 0.704023 0.348802
vt 0.704023 0.298953
vt 0.704023 0.251093
vt 0.704023 0.206675
vt 0.704023 0.134028
vt 0.704023 0.108717
vt 0.703949 0.098806
vt 0.703745 0.088661
vt 0.703429 0.078403
vt 0.703026 0.068142
vt 0.702557 0.058000
vt 0.702049 0.048086
vt 0.701521 0.038524
vt 0.524998 0.681226
vt 0.700994 0.029427
vt 0.700496 0.020907
vt 0.700045 0.013086
vt 0.699663 0.006079
vt 0.532572 0.629928
vt 0.661717 0.681226
vt 0.524998 0.659102
vt 0.662434 0.673907
vt 0.539395 0.600078
vt 0.663266 0.665962
vt 0.664189 0.657550
vt 0.665193 0.648826
vt 0.666255 0.639942
vt 0.545468 0.569699
vt 0.667359 0.631060
vt 0.668487 0.622332
vt 0.669622 0.613912
vt 0.550806 0.538950
vt 0.670744 0.605959
vt 0.671840 0.598627
vt 0.672889 0.592069
vt 0.673872 0.586444
vt 0.676736 0.568586
vt 0.555412 0.507979
vt 0.679654 0.548393
vt 0.559295 0.476935
vt 0.682571 0.526227
vt 0.685430 0.502443
vt 0.562466 0.445972
vt 0.688172 0.477400
vt 0.564931 0.415242
vt 0.690743 0.451457
vt 0.566697 0.384897
vt 0.693084 0.424970
vt 0.567772 0.355085
vt 0.695140 0.398300
vt 0.568167 0.325962
vt 0.696852 0.371804
vt 0.567887 0.297673
vt 0.698170 0.345840
vt 0.567452 0.275254
vt 0.699028 0.320763
vt 0.566400 0.251929
vt 0.699377 0.296938
vt 0.564745 0.227864
vt 0.699267 0.272470
vt 0.562503 0.203224
vt 0.698585 0.247278
vt 0.559685 0.178170
vt 0.697357 0.221558
vt 0.556305 0.152871
vt 0.695609 0.195516
vt 0.552378 0.127487
vt 0.693368 0.169357
vt 0.547914 0.102182
vt 0.690660 0.143282
vt 0.542932 0.077122
vt 0.687510 0.117495
vt 0.537443 0.052471
vt 0.683947 0.092200
vt 0.531460 0.028388
vt 0.679995 0.067600
vt 0.524998 0.005046
vt 0.675682 0.043897
vt 0.666075 0.000000
vt 0.671033 0.021295
vt 0.845262 0.679899
vt 0.977784 0.653272
vt 0.975053 0.675047
vt 0.980496 0.628832
vt 0.848240 0.658392
vt 0.983154 0.602197
vt 0.851099 0.634426
vt 0.985731 0.573843
vt 0.853810 0.608401
vt 0.988192 0.544236
vt 0.856344 0.580708
vt 0.990514 0.513853
vt 0.858675 0.551741
vt 0.992658 0.483160
vt 0.860774 0.521900
vt 0.994600 0.452634
vt 0.862617 0.491573
vt 0.996305 0.422741
vt 0.864172 0.461160
vt 0.997746 0.393955
vt 0.865413 0.431054
vt 0.998891 0.366747
vt 0.866312 0.401650
vt 0.999707 0.341589
vt 0.866844 0.373343
vt 0.999973 0.317661
vt 0.866978 0.346526
vt 1.000000 0.291454
vt 0.866905 0.319467
vt 0.999803 0.263407
vt 0.866456 0.291862
vt 0.999390 0.233955
vt 0.865646 0.263796
vt 0.998777 0.203532
vt 0.864494 0.235359
vt 0.997970 0.172577
vt 0.863021 0.206644
vt 0.996983 0.141521
vt 0.861243 0.177735
vt 0.995827 0.110802
vt 0.859180 0.148725
vt 0.994514 0.080855
vt 0.856852 0.119701
vt 0.993054 0.052115
vt 0.854279 0.090756
vt 0.991458 0.025017
vt 0.851475 0.061974
vt 0.989738 0.000000
vt 0.848463 0.033448
vt 0.845262 0.005268
s 1
usemtl マテリアル.002
f 41/1/1 39/2/1 40/3/1
f 41/1/1 38/4/1 39/2/1
f 41/1/1 37/5/1 38/4/1
f 81/6/1 79/7/1 80/8/1
f 81/6/1 78/9/1 79/7/1
f 81/6/1 77/10/1 78/9/1
f 82/11/1 77/10/1 81/6/1
f 41/1/1 36/12/1 37/5/1
f 42/13/1 36/12/1 41/1/1
f 82/11/1 76/14/1 77/10/1
f 83/15/1 76/14/1 82/11/1
f 42/13/1 35/16/1 36/12/1
f 83/15/1 75/17/1 76/14/1
f 84/18/1 75/17/1 83/15/1
f 43/19/1 35/16/1 42/13/1
f 15/20/1 13/21/1 14/22/1
f 43/19/1 34/23/1 35/16/1
f 84/18/1 74/24/1 75/17/1
f 85/25/1 74/24/1 84/18/1
f 44/26/1 34/23/1 43/19/1
f 15/20/1 12/27/1 13/21/1
f 85/25/1 73/28/1 74/24/1
f 86/29/1 73/28/1 85/25/1
f 44/26/1 33/30/1 34/23/1
f 45/31/1 33/30/1 44/26/1
f 15/20/1 11/32/1 12/27/1
f 86/29/1 72/33/1 73/28/1
f 87/34/1 72/33/1 86/29/1
f 45/31/1 32/35/1 33/30/1
f 46/36/1 32/35/1 45/31/1
f 15/20/1 10/37/1 11/32/1
f 16/38/1 10/37/1 15/20/1
f 87/34/1 71/39/1 72/33/1
f 88/40/1 71/39/1 87/34/1
f 47/41/1 32/35/1 46/36/1
f 47/41/1 31/42/1 32/35/1
f 88/40/1 70/43/1 71/39/1
f 17/44/1 10/37/1 16/38/1
f 17/44/1 9/45/1 10/37/1
f 89/46/1 70/43/1 88/40/1
f 48/47/1 31/42/1 47/41/1
f 89/46/1 69/48/1 70/43/1
f 48/47/1 30/49/1 31/42/1
f 90/50/1 69/48/1 89/46/1
f 18/51/1 9/45/1 17/44/1
f 18/51/1 8/52/1 9/45/1
f 49/53/1 30/49/1 48/47/1
f 90/50/1 68/54/1 69/48/1
f 91/55/1 68/54/1 90/50/1
f 49/53/1 29/56/1 30/49/1
f 19/57/1 8/52/1 18/51/1
f 19/57/1 7/58/1 8/52/1
f 91/55/1 67/59/1 68/54/1
f 50/60/1 29/56/1 49/53/1
f 92/61/1 67/59/1 91/55/1
f 50/60/1 28/62/1 29/56/1
f 20/63/1 7/58/1 19/57/1
f 20/63/1 6/64/1 7/58/1
f 93/65/1 67/59/1 92/61/1
f 93/65/1 66/66/1 67/59/1
f 51/67/1 28/62/1 50/60/1
f 51/67/1 52/68/1 28/62/1
f 52/68/1 27/69/1 28/62/1
f 21/70/1 6/64/1 20/63/1
f 21/70/1 5/71/1 6/64/1
f 22/72/1 5/71/1 21/70/1
f 22/72/1 4/73/1 5/71/1
f 94/74/1 66/66/1 93/65/1
f 23/75/1 4/73/1 22/72/1
f 23/75/1 3/76/1 4/73/1
f 24/77/1 3/76/1 23/75/1
f 24/77/1 2/78/1 3/76/1
f 25/79/1 2/78/1 24/77/1
f 25/79/1 26/80/1 2/78/1
f 26/80/1 1/81/1 2/78/1
f 95/82/1 66/66/1 94/74/1
f 96/83/1 66/66/1 95/82/1
f 96/83/1 65/84/1 66/66/1
f 96/83/1 64/85/1 65/84/1
f 96/83/1 63/86/1 64/85/1
f 97/87/1 63/86/1 96/83/1
f 97/87/1 62/88/1 63/86/1
f 97/87/1 61/89/1 62/88/1
f 97/87/1 60/90/1 61/89/1
f 97/87/1 59/91/1 60/90/1
f 98/92/1 59/91/1 97/87/1
f 98/92/1 58/93/1 59/91/1
f 98/92/1 57/94/1 58/93/1
f 98/92/1 56/95/1 57/94/1
f 98/92/1 55/96/1 56/95/1
f 99/97/1 130/98/1 98/92/1
f 130/98/1 55/96/1 98/92/1
f 130/98/1 54/99/1 55/96/1
f 99/97/1 129/100/1 130/98/1
f 131/101/1 54/99/1 130/98/1
f 132/102/1 54/99/1 131/101/1
f 132/102/1 133/103/1 54/99/1
f 133/103/1 134/104/1 54/99/1
f 134/104/1 135/105/1 54/99/1
f 135/105/1 136/106/1 54/99/1
f 136/106/1 137/107/1 54/99/1
f 137/107/1 138/108/1 54/99/1
f 138/108/1 139/109/1 54/99/1
f 139/109/1 140/110/1 54/99/1
f 140/110/1 141/111/1 54/99/1
f 141/111/1 53/112/1 54/99/1
f 100/113/1 129/100/1 99/97/1
f 101/114/1 129/100/1 100/113/1
f 102/115/1 129/100/1 101/114/1
f 103/116/1 129/100/1 102/115/1
f 104/117/1 129/100/1 103/116/1
f 105/118/1 129/100/1 104/117/1
f 105/118/1 128/119/1 129/100/1
f 105/118/1 127/120/1 128/119/1
f 106/121/1 127/120/1 105/118/1
f 106/121/1 126/122/1 127/120/1
f 107/123/1 126/122/1 106/121/1
f 107/123/1 125/124/1 126/122/1
f 108/125/1 125/124/1 107/123/1
f 108/125/1 124/126/1 125/124/1
f 109/127/1 124/126/1 108/125/1
f 109/127/1 123/128/1 124/126/1
f 110/129/1 123/128/1 109/127/1
f 110/129/1 122/130/1 123/128/1
f 111/131/1 122/130/1 110/129/1
f 111/131/1 121/132/1 122/130/1
f 112/133/1 121/132/1 111/131/1
f 112/133/1 120/134/1 121/132/1
f 113/135/1 120/134/1 112/133/1
f 113/135/1 119/136/1 120/134/1
f 114/137/1 119/136/1 113/135/1
f 114/137/1 118/138/1 119/136/1
f 115/139/1 118/138/1 114/137/1
f 115/139/1 117/140/1 118/138/1
f 116/141/1 117/140/1 115/139/1
f 143/142/1 215/143/1 142/144/1
f 181/145/1 179/146/1 180/147/1
f 182/148/1 179/146/1 181/145/1
f 143/142/1 214/149/1 215/143/1
f 183/150/1 179/146/1 182/148/1
f 143/142/1 213/151/1 214/149/1
f 184/152/1 179/146/1 183/150/1
f 143/142/1 212/153/1 213/151/1
f 185/154/1 179/146/1 184/152/1
f 143/142/1 211/155/1 212/153/1
f 186/156/1 179/146/1 185/154/1
f 143/142/1 210/157/1 211/155/1
f 187/158/1 179/146/1 186/156/1
f 143/142/1 209/159/1 210/157/1
f 188/160/1 179/146/1 187/158/1
f 143/142/1 208/161/1 209/159/1
f 189/162/1 179/146/1 188/160/1
f 143/142/1 207/163/1 208/161/1
f 190/164/1 179/146/1 189/162/1
f 143/142/1 206/165/1 207/163/1
f 191/166/1 179/146/1 190/164/1
f 143/142/1 205/167/1 206/165/1
f 192/168/1 179/146/1 191/166/1
f 143/142/1 204/169/1 205/167/1
f 143/142/1 203/170/1 204/169/1
f 143/142/1 202/171/1 203/170/1
f 143/142/1 201/172/1 202/171/1
f 143/142/1 200/173/1 201/172/1
f 143/142/1 199/174/1 200/173/1
f 143/142/1 198/175/1 199/174/1
f 143/142/1 197/176/1 198/175/1
f 143/142/1 196/177/1 197/176/1
f 143/142/1 195/178/1 196/177/1
f 143/142/1 194/179/1 195/178/1
f 143/142/1 193/180/1 194/179/1
f 143/142/1 192/168/1 193/180/1
f 143/142/1 144/181/1 192/168/1
f 144/181/1 145/182/1 192/168/1
f 145/182/1 146/183/1 192/168/1
f 146/183/1 147/184/1 192/168/1
f 147/184/1 148/185/1 192/168/1
f 148/185/1 149/186/1 192/168/1
f 149/186/1 150/187/1 192/168/1
f 150/187/1 151/188/1 192/168/1
f 151/188/1 152/189/1 192/168/1
f 152/189/1 153/190/1 192/168/1
f 153/190/1 154/191/1 192/168/1
f 154/191/1 155/192/1 192/168/1
f 155/192/1 156/193/1 192/168/1
f 156/193/1 158/194/1 192/168/1
f 158/194/1 159/195/1 192/168/1
f 159/195/1 160/196/1 192/168/1
f 160/196/1 161/197/1 192/168/1
f 161/197/1 162/198/1 192/168/1
f 162/198/1 163/199/1 192/168/1
f 163/199/1 164/200/1 192/168/1
f 164/200/1 166/201/1 192/168/1
f 166/201/1 167/202/1 192/168/1
f 167/202/1 168/203/1 192/168/1
f 168/203/1 169/204/1 192/168/1
f 169/204/1 170/205/1 192/168/1
f 170/205/1 171/206/1 192/168/1
f 171/206/1 172/207/1 192/168/1
f 172/207/1 173/208/1 192/168/1
f 173/208/1 174/209/1 192/168/1
f 174/209/1 179/146/1 192/168/1
s 0
f 157/210/1 158/210/1 156/210/1
f 165/210/1 166/210/1 164/210/1
s 1
f 175/211/1 179/146/1 174/209/1
f 176/212/1 179/146/1 175/211/1
f 177/213/1 179/146/1 176/212/1
f 178/214/1 179/146/1 177/213/1
f 305/215/1 303/216/1 304/217/1
f 305/215/1 302/218/1 303/216/1
f 306/219/1 302/218/1 305/215/1
f 306/219/1 301/220/1 302/218/1
f 306/219/1 300/221/1 301/220/1
f 306/219/1 299/222/1 300/221/1
f 306/219/1 298/223/1 299/222/1
f 307/224/1 298/223/1 306/219/1
f 307/224/1 297/225/1 298/223/1
f 307/224/1 296/226/1 297/225/1
f 307/224/1 295/227/1 296/226/1
f 308/228/1 295/227/1 307/224/1
f 308/228/1 294/229/1 295/227/1
f 308/228/1 293/230/1 294/229/1
f 308/228/1 292/231/1 293/230/1
f 308/228/1 291/232/1 292/231/1
f 308/228/1 290/233/1 291/232/1
f 309/234/1 290/233/1 308/228/1
f 309/234/1 289/235/1 290/233/1
f 310/236/1 289/235/1 309/234/1
f 310/236/1 288/237/1 289/235/1
f 310/236/1 287/238/1 288/237/1
f 311/239/1 287/238/1 310/236/1
f 311/239/1 286/240/1 287/238/1
f 312/241/1 286/240/1 311/239/1
f 312/241/1 285/242/1 286/240/1
f 313/243/1 285/242/1 312/241/1
f 313/243/1 284/244/1 285/242/1
f 314/245/1 284/244/1 313/243/1
f 314/245/1 283/246/1 284/244/1
f 315/247/1 283/246/1 314/245/1
f 315/247/1 282/248/1 283/246/1
f 316/249/1 282/248/1 315/247/1
f 316/249/1 281/250/1 282/248/1
f 317/251/1 281/250/1 316/249/1
f 317/251/1 280/252/1 281/250/1
f 318/253/1 280/252/1 317/251/1
f 318/253/1 279/254/1 280/252/1
f 319/255/1 279/254/1 318/253/1
f 319/255/1 278/256/1 279/254/1
f 320/257/1 278/256/1 319/255/1
f 320/257/1 277/258/1 278/256/1
f 321/259/1 277/258/1 320/257/1
f 321/259/1 276/260/1 277/258/1
f 322/261/1 276/260/1 321/259/1
f 322/261/1 275/262/1 276/260/1
f 323/263/1 275/262/1 322/261/1
f 323/263/1 274/264/1 275/262/1
f 324/265/1 274/264/1 323/263/1
f 324/265/1 273/266/1 274/264/1
f 325/267/1 273/266/1 324/265/1
f 325/267/1 272/268/1 273/266/1
f 326/269/1 272/268/1 325/267/1
f 326/269/1 271/270/1 272/268/1
f 327/271/1 271/270/1 326/269/1
f 327/271/1 270/272/1 271/270/1
f 266/273/1 270/272/1 327/271/1
f 266/273/1 269/274/1 270/272/1
f 267/275/1 269/274/1 266/273/1
f 267/275/1 268/276/1 269/274/1
f 242/277/1 240/278/1 241/279/1
f 242/277/1 239/280/1 240/278/1
f 243/281/1 239/280/1 242/277/1
f 243/281/1 238/282/1 239/280/1
f 244/283/1 238/282/1 243/281/1
f 244/283/1 237/284/1 238/282/1
f 245/285/1 237/284/1 244/283/1
f 245/285/1 236/286/1 237/284/1
f 246/287/1 236/286/1 245/285/1
f 246/287/1 235/288/1 236/286/1
f 247/289/1 235/288/1 246/287/1
f 247/289/1 234/290/1 235/288/1
f 248/291/1 234/290/1 247/289/1
f 248/291/1 233/292/1 234/290/1
f 249/293/1 233/292/1 248/291/1
f 249/293/1 232/294/1 233/292/1
f 250/295/1 232/294/1 249/293/1
f 250/295/1 231/296/1 232/294/1
f 251/297/1 231/296/1 250/295/1
f 251/297/1 230/298/1 231/296/1
f 252/299/1 230/298/1 251/297/1
f 252/299/1 229/300/1 230/298/1
f 253/301/1 229/300/1 252/299/1
f 253/301/1 228/302/1 229/300/1
f 254/303/1 228/302/1 253/301/1
f 254/303/1 227/304/1 228/302/1
f 255/305/1 227/304/1 254/303/1
f 255/305/1 226/306/1 227/304/1
f 256/307/1 226/306/1 255/305/1
f 256/307/1 225/308/1 226/306/1
f 257/309/1 225/308/1 256/307/1
f 257/309/1 224/310/1 225/308/1
f 258/311/1 224/310/1 257/309/1
f 258/311/1 223/312/1 224/310/1
f 259/313/1 223/312/1 258/311/1
f 259/313/1 222/314/1 223/312/1
f 260/315/1 222/314/1 259/313/1
f 260/315/1 221/316/1 222/314/1
f 261/317/1 221/316/1 260/315/1
f 261/317/1 220/318/1 221/316/1
f 262/319/1 220/318/1 261/317/1
f 262/319/1 219/320/1 220/318/1
f 263/321/1 219/320/1 262/319/1
f 263/321/1 218/322/1 219/320/1
f 264/323/1 218/322/1 263/321/1
f 264/323/1 217/324/1 218/322/1
f 265/325/1 217/324/1 264/323/1
f 265/325/1 216/326/1 217/324/1
