# Blender 4.4.1
# www.blender.org
mtllib nextStage.mtl
o テキスト.002
v 5.281557 -0.144108 0.000000
v 5.373072 -0.105189 0.000000
v 5.366670 -0.092661 0.000000
v 5.359626 -0.079380 0.000000
v 5.352051 -0.065514 0.000000
v 5.344047 -0.051231 0.000000
v 5.335722 -0.036702 0.000000
v 5.327184 -0.022089 0.000000
v 5.318532 -0.007566 0.000000
v 5.309880 0.006702 0.000000
v 5.301331 0.020544 0.000000
v 5.292987 0.033798 0.000000
v 5.284956 0.046290 0.000000
v 5.277348 0.057855 0.000000
v 5.188989 0.021039 0.000000
v 5.198184 0.007785 0.000000
v 5.206878 -0.005220 0.000000
v 5.215140 -0.018078 0.000000
v 5.223042 -0.030894 0.000000
v 5.230650 -0.043767 0.000000
v 5.238036 -0.056802 0.000000
v 5.245266 -0.070098 0.000000
v 5.252415 -0.083763 0.000000
v 5.259549 -0.097893 0.000000
v 5.266737 -0.112593 0.000000
v 5.274051 -0.127962 0.000000
v 5.430924 -0.088359 0.000000
v 5.520336 -0.048387 0.000000
v 5.513709 -0.036384 0.000000
v 5.506512 -0.023628 0.000000
v 5.498823 -0.010290 0.000000
v 5.490726 0.003468 0.000000
v 5.482311 0.017472 0.000000
v 5.473659 0.031557 0.000000
v 5.464850 0.045555 0.000000
v 5.455977 0.059295 0.000000
v 5.447115 0.072612 0.000000
v 5.438352 0.085341 0.000000
v 5.429771 0.097305 0.000000
v 5.421459 0.108345 0.000000
v 5.332047 0.071529 0.000000
v 5.341527 0.058599 0.000000
v 5.350548 0.046026 0.000000
v 5.359181 0.033678 0.000000
v 5.367501 0.021426 0.000000
v 5.375568 0.009150 0.000000
v 5.383458 -0.003288 0.000000
v 5.391240 -0.016008 0.000000
v 5.398980 -0.029142 0.000000
v 5.406747 -0.042816 0.000000
v 5.414616 -0.057159 0.000000
v 5.422653 -0.072297 0.000000
v 4.821879 -0.428121 0.000000
v 4.898667 -0.310308 0.000000
v 4.884024 -0.300159 0.000000
v 4.867164 -0.288804 0.000000
v 4.848456 -0.276483 0.000000
v 4.828269 -0.263442 0.000000
v 4.806972 -0.249915 0.000000
v 4.784931 -0.236151 0.000000
v 4.762521 -0.222384 0.000000
v 4.740105 -0.208860 0.000000
v 4.718055 -0.195816 0.000000
v 4.696740 -0.183498 0.000000
v 4.676526 -0.172143 0.000000
v 4.657785 -0.161991 0.000000
v 4.582047 -0.277701 0.000000
v 4.600428 -0.287811 0.000000
v 4.620120 -0.299070 0.000000
v 4.640823 -0.311262 0.000000
v 4.662225 -0.324177 0.000000
v 4.684023 -0.337605 0.000000
v 4.705908 -0.351333 0.000000
v 4.727574 -0.365148 0.000000
v 4.748715 -0.378837 0.000000
v 4.769022 -0.392193 0.000000
v 4.788189 -0.404997 0.000000
v 4.805910 -0.417045 0.000000
v 4.981767 -0.188289 0.000000
v 5.059608 -0.072582 0.000000
v 5.044725 -0.062388 0.000000
v 5.027670 -0.050919 0.000000
v 5.008821 -0.038427 0.000000
v 4.988547 -0.025167 0.000000
v 4.967220 -0.011397 0.000000
v 4.945215 0.002631 0.000000
v 4.922901 0.016656 0.000000
v 4.900653 0.030426 0.000000
v 4.878846 0.043686 0.000000
v 4.857849 0.056178 0.000000
v 4.838034 0.067650 0.000000
v 4.819776 0.077841 0.000000
v 4.744041 -0.037869 0.000000
v 4.762176 -0.048219 0.000000
v 4.781664 -0.059676 0.000000
v 4.802190 -0.072021 0.000000
v 4.823439 -0.085047 0.000000
v 4.845096 -0.098541 0.000000
v 4.866849 -0.112290 0.000000
v 4.888380 -0.126081 0.000000
v 4.909383 -0.139707 0.000000
v 4.929534 -0.152952 0.000000
v 4.948524 -0.165606 0.000000
v 4.966041 -0.177456 0.000000
v 4.625175 -0.669003 0.000000
v 4.704066 -0.806802 -0.000000
v 4.728378 -0.801867 -0.000000
v 4.754781 -0.795537 -0.000000
v 4.782927 -0.787917 -0.000000
v 4.812450 -0.779103 -0.000000
v 4.842999 -0.769191 -0.000000
v 4.874211 -0.758283 -0.000000
v 4.905729 -0.746478 0.000000
v 4.937199 -0.733872 0.000000
v 4.968258 -0.720564 0.000000
v 4.998549 -0.706653 0.000000
v 5.027715 -0.692238 0.000000
v 5.055399 -0.677418 0.000000
v 5.097786 -0.651768 0.000000
v 5.139147 -0.624825 0.000000
v 5.179374 -0.596655 0.000000
v 5.218365 -0.567321 0.000000
v 5.256012 -0.536892 0.000000
v 5.292207 -0.505434 0.000000
v 5.326848 -0.473013 0.000000
v 5.359824 -0.439692 0.000000
v 5.391036 -0.405537 0.000000
v 5.420373 -0.370617 0.000000
v 5.447730 -0.334995 0.000000
v 5.473001 -0.298737 0.000000
v 5.392005 -0.155679 0.000000
v 5.369913 -0.193131 0.000000
v 5.345259 -0.230190 0.000000
v 5.318160 -0.266721 0.000000
v 5.288724 -0.302595 0.000000
v 5.257071 -0.337680 0.000000
v 5.223309 -0.371844 0.000000
v 5.187552 -0.404958 0.000000
v 5.149914 -0.436887 0.000000
v 5.110509 -0.467502 0.000000
v 5.069448 -0.496668 0.000000
v 5.026848 -0.524259 0.000000
v 4.982820 -0.550140 0.000000
v 4.954167 -0.565356 0.000000
v 4.925061 -0.579471 0.000000
v 4.895577 -0.592527 0.000000
v 4.865787 -0.604566 0.000000
v 4.835760 -0.615624 0.000000
v 4.805574 -0.625746 0.000000
v 4.775301 -0.634968 0.000000
v 4.745013 -0.643329 0.000000
v 4.714782 -0.650874 0.000000
v 4.684686 -0.657642 0.000000
v 4.654791 -0.663672 0.000000
v 3.554349 -0.262974 0.000000
v 3.554349 -0.428121 0.000000
v 3.564711 -0.427575 0.000000
v 3.576243 -0.427002 0.000000
v 3.588798 -0.426411 0.000000
v 3.602229 -0.425823 0.000000
v 3.616389 -0.425247 0.000000
v 3.631137 -0.424701 0.000000
v 3.646320 -0.424200 0.000000
v 3.661797 -0.423756 0.000000
v 3.677418 -0.423387 0.000000
v 3.693042 -0.423105 0.000000
v 3.708519 -0.422925 0.000000
v 3.723702 -0.422862 0.000000
v 3.758862 -0.422862 0.000000
v 3.801705 -0.422862 0.000000
v 3.850572 -0.422862 0.000000
v 3.903810 -0.422862 0.000000
v 3.959766 -0.422862 0.000000
v 4.016787 -0.422862 0.000000
v 4.073214 -0.422862 0.000000
v 4.127397 -0.422862 0.000000
v 4.177677 -0.422862 0.000000
v 4.222404 -0.422862 0.000000
v 4.259919 -0.422862 0.000000
v 4.288569 -0.422862 0.000000
v 4.299789 -0.422946 0.000000
v 4.311273 -0.423177 0.000000
v 4.322889 -0.423534 0.000000
v 4.334502 -0.423990 0.000000
v 4.345986 -0.424521 0.000000
v 4.357206 -0.425097 0.000000
v 4.368030 -0.425694 0.000000
v 4.378332 -0.426291 0.000000
v 4.387974 -0.426855 0.000000
v 4.396827 -0.427365 0.000000
v 4.404759 -0.427797 0.000000
v 4.411641 -0.428121 0.000000
v 4.411641 -0.262974 0.000000
v 4.404417 -0.263538 0.000000
v 4.396461 -0.264171 0.000000
v 4.387824 -0.264846 0.000000
v 4.378566 -0.265545 0.000000
v 4.368735 -0.266241 0.000000
v 4.358388 -0.266919 0.000000
v 4.347582 -0.267549 0.000000
v 4.336371 -0.268116 0.000000
v 4.324809 -0.268593 0.000000
v 4.312953 -0.268962 0.000000
v 4.300854 -0.269202 0.000000
v 4.288569 -0.269286 0.000000
v 4.259937 -0.269286 0.000000
v 4.222476 -0.269286 0.000000
v 4.177824 -0.269286 0.000000
v 4.127631 -0.269286 0.000000
v 4.073535 -0.269286 0.000000
v 4.017180 -0.269286 0.000000
v 3.960216 -0.269286 0.000000
v 3.904278 -0.269286 0.000000
v 3.851016 -0.269286 0.000000
v 3.802068 -0.269286 0.000000
v 3.759084 -0.269286 0.000000
v 3.723702 -0.269286 0.000000
v 3.709602 -0.269220 0.000000
v 3.694794 -0.269037 0.000000
v 3.679491 -0.268743 0.000000
v 3.663900 -0.268350 0.000000
v 3.648237 -0.267870 0.000000
v 3.632715 -0.267312 0.000000
v 3.617541 -0.266691 0.000000
v 3.602931 -0.266013 0.000000
v 3.589095 -0.265290 0.000000
v 3.576243 -0.264537 0.000000
v 3.564591 -0.263760 0.000000
v 2.495091 -0.212481 0.000000
v 2.495091 -0.350280 0.000000
v 2.502663 -0.349755 0.000000
v 2.510607 -0.349239 0.000000
v 2.518857 -0.348735 0.000000
v 2.527350 -0.348255 0.000000
v 2.536017 -0.347802 0.000000
v 2.544792 -0.347388 0.000000
v 2.553615 -0.347016 0.000000
v 2.562414 -0.346695 0.000000
v 2.571123 -0.346434 0.000000
v 2.579682 -0.346239 0.000000
v 2.588019 -0.346116 0.000000
v 2.596074 -0.346074 0.000000
v 2.885343 -0.346074 0.000000
v 2.883999 -0.367962 0.000000
v 2.882046 -0.389445 0.000000
v 2.879442 -0.410502 0.000000
v 2.876151 -0.431121 0.000000
v 2.872125 -0.451287 0.000000
v 2.867331 -0.470985 0.000000
v 2.861724 -0.490203 0.000000
v 2.855268 -0.508923 0.000000
v 2.847918 -0.527130 0.000000
v 2.839641 -0.544812 0.000000
v 2.830389 -0.561954 0.000000
v 2.820126 -0.578541 0.000000
v 2.808969 -0.593775 0.000000
v 2.796600 -0.608895 0.000000
v 2.783130 -0.623790 0.000000
v 2.768661 -0.638343 0.000000
v 2.753304 -0.652446 0.000000
v 2.737158 -0.665979 0.000000
v 2.720334 -0.678837 0.000000
v 2.702937 -0.690900 0.000000
v 2.685072 -0.702057 0.000000
v 2.666847 -0.712194 0.000000
v 2.648364 -0.721200 0.000000
v 2.629734 -0.728961 0.000000
v 2.752806 -0.818373 -0.000000
v 2.775930 -0.805842 -0.000000
v 2.798418 -0.792018 -0.000000
v 2.820159 -0.777054 -0.000000
v 2.841048 -0.761103 -0.000000
v 2.860971 -0.744321 0.000000
v 2.879820 -0.726858 0.000000
v 2.897487 -0.708870 0.000000
v 2.913861 -0.690510 0.000000
v 2.928834 -0.671931 0.000000
v 2.942292 -0.653283 0.000000
v 2.954130 -0.634725 0.000000
v 2.964237 -0.616410 0.000000
v 2.973396 -0.597693 0.000000
v 2.981934 -0.578343 0.000000
v 2.989842 -0.558342 0.000000
v 2.997117 -0.537672 0.000000
v 3.003750 -0.516318 0.000000
v 3.009729 -0.494259 0.000000
v 3.015054 -0.471474 0.000000
v 3.019713 -0.447951 0.000000
v 3.023700 -0.423666 0.000000
v 3.027009 -0.398604 0.000000
v 3.029628 -0.372747 0.000000
v 3.031557 -0.346074 0.000000
v 3.285063 -0.346074 0.000000
v 3.292632 -0.346095 0.000000
v 3.300555 -0.346161 0.000000
v 3.308748 -0.346269 0.000000
v 3.317127 -0.346425 0.000000
v 3.325608 -0.346620 0.000000
v 3.334107 -0.346863 0.000000
v 3.342543 -0.347148 0.000000
v 3.350826 -0.347475 0.000000
v 3.358878 -0.347847 0.000000
v 3.366609 -0.348264 0.000000
v 3.373941 -0.348726 0.000000
v 3.380787 -0.349230 0.000000
v 3.380787 -0.212481 0.000000
v 3.373359 -0.213492 0.000000
v 3.365367 -0.214410 0.000000
v 3.356955 -0.215244 0.000000
v 3.348255 -0.215988 0.000000
v 3.339411 -0.216645 0.000000
v 3.330558 -0.217215 0.000000
v 3.321837 -0.217698 0.000000
v 3.313386 -0.218094 0.000000
v 3.305346 -0.218400 0.000000
v 3.297852 -0.218619 0.000000
v 3.291045 -0.218751 0.000000
v 3.285063 -0.218793 0.000000
v 3.259494 -0.218793 0.000000
v 3.216642 -0.218793 0.000000
v 3.159954 -0.218793 0.000000
v 3.092877 -0.218793 0.000000
v 3.018864 -0.218793 0.000000
v 2.941356 -0.218793 0.000000
v 2.863806 -0.218793 0.000000
v 2.789661 -0.218793 0.000000
v 2.722365 -0.218793 0.000000
v 2.665371 -0.218793 0.000000
v 2.622126 -0.218793 0.000000
v 2.596074 -0.218793 0.000000
v 2.587839 -0.218730 0.000000
v 2.579463 -0.218544 0.000000
v 2.570976 -0.218250 0.000000
v 2.562414 -0.217860 0.000000
v 2.553807 -0.217380 0.000000
v 2.545188 -0.216822 0.000000
v 2.536593 -0.216198 0.000000
v 2.528052 -0.215520 0.000000
v 2.519598 -0.214800 0.000000
v 2.511264 -0.214047 0.000000
v 2.503083 -0.213270 0.000000
v 2.617110 0.056802 0.000000
v 2.617110 -0.078891 0.000000
v 2.625492 -0.078366 0.000000
v 2.634291 -0.077850 0.000000
v 2.643441 -0.077346 0.000000
v 2.652876 -0.076866 0.000000
v 2.662530 -0.076413 0.000000
v 2.672337 -0.075999 0.000000
v 2.682231 -0.075627 0.000000
v 2.692146 -0.075309 0.000000
v 2.702019 -0.075045 0.000000
v 2.711781 -0.074850 0.000000
v 2.721369 -0.074727 0.000000
v 2.730717 -0.074685 0.000000
v 2.751549 -0.074685 0.000000
v 2.780370 -0.074685 0.000000
v 2.815557 -0.074685 0.000000
v 2.855502 -0.074685 0.000000
v 2.898585 -0.074685 0.000000
v 2.943198 -0.074685 0.000000
v 2.987721 -0.074685 0.000000
v 3.030543 -0.074685 0.000000
v 3.070050 -0.074685 0.000000
v 3.104625 -0.074685 0.000000
v 3.132654 -0.074685 0.000000
v 3.152526 -0.074685 0.000000
v 3.161811 -0.074727 0.000000
v 3.171240 -0.074850 0.000000
v 3.180777 -0.075045 0.000000
v 3.190392 -0.075309 0.000000
v 3.200052 -0.075627 0.000000
v 3.209721 -0.075999 0.000000
v 3.219369 -0.076413 0.000000
v 3.228963 -0.076866 0.000000
v 3.238467 -0.077346 0.000000
v 3.247854 -0.077850 0.000000
v 3.257085 -0.078366 0.000000
v 3.266130 -0.078891 0.000000
v 3.266130 0.056802 0.000000
v 3.257064 0.055551 0.000000
v 3.247779 0.054432 0.000000
v 3.238320 0.053433 0.000000
v 3.228729 0.052557 0.000000
v 3.219051 0.051795 0.000000
v 3.209328 0.051147 0.000000
v 3.199605 0.050610 0.000000
v 3.189924 0.050178 0.000000
v 3.180333 0.049851 0.000000
v 3.170874 0.049620 0.000000
v 3.161589 0.049485 0.000000
v 3.152526 0.049440 0.000000
v 3.132654 0.049440 0.000000
v 3.104619 0.049440 0.000000
v 3.070032 0.049440 0.000000
v 3.030504 0.049440 0.000000
v 2.987646 0.049440 0.000000
v 2.943066 0.049440 0.000000
v 2.898378 0.049440 0.000000
v 2.855190 0.049440 0.000000
v 2.815113 0.049440 0.000000
v 2.779761 0.049440 0.000000
v 2.750739 0.049440 0.000000
v 2.729664 0.049440 0.000000
v 2.720820 0.049482 0.000000
v 2.711685 0.049620 0.000000
v 2.702313 0.049851 0.000000
v 2.692770 0.050178 0.000000
v 2.683107 0.050610 0.000000
v 2.673387 0.051147 0.000000
v 2.663667 0.051795 0.000000
v 2.654004 0.052557 0.000000
v 2.644461 0.053433 0.000000
v 2.635089 0.054429 0.000000
v 2.625954 0.055551 0.000000
v 2.202666 -0.796284 -0.000000
v 2.322582 -0.692145 0.000000
v 2.305758 -0.672045 0.000000
v 2.286525 -0.649845 0.000000
v 2.265186 -0.625908 0.000000
v 2.242053 -0.600591 0.000000
v 2.217429 -0.574251 0.000000
v 2.191620 -0.547248 0.000000
v 2.164935 -0.519936 0.000000
v 2.137680 -0.492675 0.000000
v 2.110164 -0.465825 0.000000
v 2.082690 -0.439740 0.000000
v 2.055567 -0.414780 0.000000
v 2.029101 -0.391305 0.000000
v 2.046474 -0.367071 0.000000
v 2.063322 -0.342339 0.000000
v 2.079609 -0.317262 0.000000
v 2.095293 -0.291999 0.000000
v 2.110335 -0.266706 0.000000
v 2.124693 -0.241542 0.000000
v 2.138328 -0.216660 0.000000
v 2.151201 -0.192225 0.000000
v 2.163267 -0.168384 0.000000
v 2.174493 -0.145302 0.000000
v 2.184834 -0.123132 0.000000
v 2.194251 -0.102033 0.000000
v 2.196801 -0.096552 0.000000
v 2.199681 -0.090702 0.000000
v 2.202813 -0.084594 0.000000
v 2.206131 -0.078348 0.000000
v 2.209569 -0.072069 0.000000
v 2.213052 -0.065874 0.000000
v 2.216514 -0.059877 0.000000
v 2.219886 -0.054192 0.000000
v 2.223096 -0.048930 0.000000
v 2.226075 -0.044205 0.000000
v 2.228754 -0.040128 0.000000
v 2.231067 -0.036816 0.000000
v 2.144811 0.027348 0.000000
v 2.139123 0.025533 0.000000
v 2.132622 0.023781 0.000000
v 2.125368 0.022107 0.000000
v 2.117424 0.020532 0.000000
v 2.108850 0.019074 0.000000
v 2.099712 0.017751 0.000000
v 2.090067 0.016581 0.000000
v 2.079984 0.015585 0.000000
v 2.069517 0.014775 0.000000
v 2.058735 0.014175 0.000000
v 2.047698 0.013803 0.000000
v 2.036466 0.013674 0.000000
v 2.020260 0.013674 0.000000
v 1.996323 0.013674 0.000000
v 1.966170 0.013674 0.000000
v 1.931316 0.013674 0.000000
v 1.893276 0.013674 0.000000
v 1.853568 0.013674 0.000000
v 1.813707 0.013674 0.000000
v 1.775208 0.013674 0.000000
v 1.739586 0.013674 0.000000
v 1.708359 0.013674 0.000000
v 1.683039 0.013674 0.000000
v 1.665147 0.013674 0.000000
v 1.656618 0.013740 0.000000
v 1.646967 0.013929 0.000000
v 1.636434 0.014232 0.000000
v 1.625253 0.014649 0.000000
v 1.613664 0.015165 0.000000
v 1.601901 0.015777 0.000000
v 1.590207 0.016479 0.000000
v 1.578813 0.017259 0.000000
v 1.567962 0.018111 0.000000
v 1.557888 0.019032 0.000000
v 1.548831 0.020010 0.000000
v 1.541025 0.021039 0.000000
v 1.541025 -0.128331 0.000000
v 1.547484 -0.127965 0.000000
v 1.555185 -0.127419 0.000000
v 1.563969 -0.126738 0.000000
v 1.573671 -0.125955 0.000000
v 1.584135 -0.125115 0.000000
v 1.595196 -0.124254 0.000000
v 1.606695 -0.123417 0.000000
v 1.618473 -0.122643 0.000000
v 1.630368 -0.121971 0.000000
v 1.642221 -0.121440 0.000000
v 1.653867 -0.121092 0.000000
v 1.665147 -0.120969 0.000000
v 1.680843 -0.120969 0.000000
v 1.704273 -0.120969 0.000000
v 1.733883 -0.120969 0.000000
v 1.768116 -0.120969 0.000000
v 1.805418 -0.120969 0.000000
v 1.844232 -0.120969 0.000000
v 1.883001 -0.120969 0.000000
v 1.920174 -0.120969 0.000000
v 1.954188 -0.120969 0.000000
v 1.983492 -0.120969 0.000000
v 2.006526 -0.120969 0.000000
v 2.021739 -0.120969 0.000000
v 2.015121 -0.140220 0.000000
v 2.006916 -0.160512 0.000000
v 1.997250 -0.181650 0.000000
v 1.986249 -0.203445 0.000000
v 1.974033 -0.225708 0.000000
v 1.960731 -0.248247 0.000000
v 1.946463 -0.270876 0.000000
v 1.931355 -0.293400 0.000000
v 1.915530 -0.315633 0.000000
v 1.899117 -0.337386 0.000000
v 1.882233 -0.358464 0.000000
v 1.865007 -0.378681 0.000000
v 1.838985 -0.406617 0.000000
v 1.810488 -0.435012 0.000000
v 1.779723 -0.463572 0.000000
v 1.746885 -0.492012 0.000000
v 1.712175 -0.520044 0.000000
v 1.675797 -0.547380 0.000000
v 1.637952 -0.573726 0.000000
v 1.598838 -0.598800 0.000000
v 1.558659 -0.622311 0.000000
v 1.517616 -0.643968 0.000000
v 1.475904 -0.663486 0.000000
v 1.433730 -0.680574 0.000000
v 1.542075 -0.794181 -0.000000
v 1.578000 -0.776250 -0.000000
v 1.613667 -0.756729 -0.000000
v 1.648992 -0.735735 0.000000
v 1.683888 -0.713379 0.000000
v 1.718271 -0.689781 0.000000
v 1.752060 -0.665061 0.000000
v 1.785171 -0.639330 0.000000
v 1.817517 -0.612708 0.000000
v 1.849014 -0.585312 0.000000
v 1.879584 -0.557259 0.000000
v 1.909134 -0.528666 0.000000
v 1.937589 -0.499650 0.000000
v 1.962270 -0.523566 0.000000
v 1.986807 -0.547920 0.000000
v 2.011104 -0.572625 0.000000
v 2.035062 -0.597591 0.000000
v 2.058582 -0.622737 0.000000
v 2.081565 -0.647967 0.000000
v 2.103912 -0.673197 0.000000
v 2.125527 -0.698340 0.000000
v 2.146305 -0.723309 0.000000
v 2.166156 -0.748014 0.000000
v 2.184975 -0.772368 -0.000000
v 0.797334 -0.674265 0.000000
v 0.876228 -0.799440 -0.000000
v 0.939798 -0.786801 -0.000000
v 0.997956 -0.769518 -0.000000
v 1.050678 -0.747765 0.000000
v 1.097943 -0.721716 0.000000
v 1.139730 -0.691548 0.000000
v 1.176018 -0.657432 0.000000
v 1.206780 -0.619551 0.000000
v 1.232001 -0.578073 0.000000
v 1.251654 -0.533178 0.000000
v 1.265721 -0.485040 0.000000
v 1.274175 -0.433833 0.000000
v 1.276998 -0.379734 0.000000
v 1.273620 -0.323490 0.000000
v 1.263636 -0.269724 0.000000
v 1.247283 -0.218892 0.000000
v 1.224795 -0.171459 0.000000
v 1.196403 -0.127881 0.000000
v 1.162341 -0.088623 0.000000
v 1.122849 -0.054141 0.000000
v 1.078152 -0.024894 0.000000
v 1.028490 -0.001347 0.000000
v 0.974091 0.016041 0.000000
v 0.915195 0.026811 0.000000
v 0.852033 0.030504 0.000000
v 0.785301 0.026286 0.000000
v 0.721671 0.014031 0.000000
v 0.661656 -0.005670 0.000000
v 0.605775 -0.032220 0.000000
v 0.554535 -0.065022 0.000000
v 0.508458 -0.103479 0.000000
v 0.468057 -0.147003 0.000000
v 0.433848 -0.194991 0.000000
v 0.406344 -0.246849 0.000000
v 0.386061 -0.301986 0.000000
v 0.373512 -0.359802 0.000000
v 0.369216 -0.419706 0.000000
v 0.371187 -0.463071 0.000000
v 0.376923 -0.504105 0.000000
v 0.386160 -0.542529 0.000000
v 0.398628 -0.578073 0.000000
v 0.414063 -0.610461 0.000000
v 0.432198 -0.639420 0.000000
v 0.452763 -0.664674 0.000000
v 0.475494 -0.685950 0.000000
v 0.500127 -0.702978 0.000000
v 0.526389 -0.715476 0.000000
v 0.554019 -0.723180 0.000000
v 0.582750 -0.725805 0.000000
v 0.610908 -0.723117 0.000000
v 0.638046 -0.715161 0.000000
v 0.664155 -0.702105 0.000000
v 0.689223 -0.684120 0.000000
v 0.713241 -0.661371 0.000000
v 0.736194 -0.634029 0.000000
v 0.758073 -0.602259 0.000000
v 0.778869 -0.566229 0.000000
v 0.798567 -0.526110 0.000000
v 0.817161 -0.482070 0.000000
v 0.834636 -0.434271 0.000000
v 0.850983 -0.382890 0.000000
v 0.858351 -0.358218 0.000000
v 0.865227 -0.333651 0.000000
v 0.871641 -0.309207 0.000000
v 0.877629 -0.284907 0.000000
v 0.883224 -0.260769 0.000000
v 0.888456 -0.236808 0.000000
v 0.893358 -0.213045 0.000000
v 0.897966 -0.189498 0.000000
v 0.902310 -0.166182 0.000000
v 0.906426 -0.143121 0.000000
v 0.910344 -0.120330 0.000000
v 0.914094 -0.097827 0.000000
v 0.948273 -0.105600 0.000000
v 0.979767 -0.116715 0.000000
v 1.008519 -0.131010 0.000000
v 1.034478 -0.148317 0.000000
v 1.057590 -0.168474 0.000000
v 1.077795 -0.191313 0.000000
v 1.095045 -0.216675 0.000000
v 1.109280 -0.244389 0.000000
v 1.120446 -0.274299 0.000000
v 1.128492 -0.306234 0.000000
v 1.133358 -0.340029 0.000000
v 1.134993 -0.375525 0.000000
v 1.132845 -0.412731 0.000000
v 1.126578 -0.447543 0.000000
v 1.116453 -0.479925 0.000000
v 1.102734 -0.509856 0.000000
v 1.085685 -0.537303 0.000000
v 1.065567 -0.562236 0.000000
v 1.042647 -0.584628 0.000000
v 1.017180 -0.604449 0.000000
v 0.989436 -0.621669 0.000000
v 0.959679 -0.636258 0.000000
v 0.928164 -0.648189 0.000000
v 0.895161 -0.657432 0.000000
v 0.888033 -0.659010 0.000000
v 0.880830 -0.660579 0.000000
v 0.873516 -0.662133 0.000000
v 0.866058 -0.663666 0.000000
v 0.858426 -0.665169 0.000000
v 0.850587 -0.666636 0.000000
v 0.842505 -0.668061 0.000000
v 0.834150 -0.669432 0.000000
v 0.825489 -0.670746 0.000000
v 0.816489 -0.671994 0.000000
v 0.807114 -0.673170 0.000000
v 0.771039 -0.100983 0.000000
v 0.767973 -0.122844 0.000000
v 0.764571 -0.144747 0.000000
v 0.760848 -0.166644 0.000000
v 0.756819 -0.188484 0.000000
v 0.752496 -0.210222 0.000000
v 0.747897 -0.231810 0.000000
v 0.743034 -0.253203 0.000000
v 0.737922 -0.274350 0.000000
v 0.732579 -0.295203 0.000000
v 0.727014 -0.315720 0.000000
v 0.721245 -0.335847 0.000000
v 0.715287 -0.355539 0.000000
v 0.704547 -0.389469 0.000000
v 0.693876 -0.420276 0.000000
v 0.683253 -0.447993 0.000000
v 0.672666 -0.472650 0.000000
v 0.662094 -0.494286 0.000000
v 0.651516 -0.512928 0.000000
v 0.640917 -0.528615 0.000000
v 0.630279 -0.541374 0.000000
v 0.619581 -0.551241 0.000000
v 0.608808 -0.558249 0.000000
v 0.597939 -0.562428 0.000000
v 0.586956 -0.563814 0.000000
v 0.576705 -0.562740 0.000000
v 0.566556 -0.559506 0.000000
v 0.556665 -0.554100 0.000000
v 0.547179 -0.546516 0.000000
v 0.538248 -0.536742 0.000000
v 0.530022 -0.524763 0.000000
v 0.522651 -0.510573 0.000000
v 0.516285 -0.494157 0.000000
v 0.511071 -0.475506 0.000000
v 0.507165 -0.454608 0.000000
v 0.504708 -0.431454 0.000000
v 0.503856 -0.406032 0.000000
v 0.505800 -0.376404 0.000000
v 0.511596 -0.345741 0.000000
v 0.521196 -0.314583 0.000000
v 0.534558 -0.283467 0.000000
v 0.551628 -0.252933 0.000000
v 0.572361 -0.223527 0.000000
v 0.596712 -0.195786 0.000000
v 0.624630 -0.170250 0.000000
v 0.656070 -0.147462 0.000000
v 0.690981 -0.127962 0.000000
v 0.729321 -0.112287 0.000000
v -0.720546 -0.588009 0.000000
v -0.639552 -0.696354 0.000000
v -0.621357 -0.677829 0.000000
v -0.602613 -0.658596 0.000000
v -0.583422 -0.638745 0.000000
v -0.563892 -0.618357 0.000000
v -0.544128 -0.597516 0.000000
v -0.524238 -0.576306 0.000000
v -0.504324 -0.554811 0.000000
v -0.484494 -0.533115 0.000000
v -0.464856 -0.511302 0.000000
v -0.445512 -0.489456 0.000000
v -0.426570 -0.467661 0.000000
v -0.408135 -0.446004 0.000000
v -0.480714 -0.337659 0.000000
v -0.502629 -0.361608 0.000000
v -0.524631 -0.385494 0.000000
v -0.546591 -0.409170 0.000000
v -0.568374 -0.432483 0.000000
v -0.589848 -0.455286 0.000000
v -0.610887 -0.477429 0.000000
v -0.631356 -0.498759 0.000000
v -0.651123 -0.519129 0.000000
v -0.670056 -0.538389 0.000000
v -0.688026 -0.556389 0.000000
v -0.704901 -0.572979 0.000000
v -0.601683 0.078891 0.000000
v -0.691095 -0.014727 0.000000
v -0.674697 -0.026490 0.000000
v -0.657735 -0.039060 0.000000
v -0.640440 -0.052281 0.000000
v -0.623034 -0.065997 0.000000
v -0.605742 -0.080046 0.000000
v -0.588798 -0.094275 0.000000
v -0.572421 -0.108528 0.000000
v -0.556842 -0.122643 0.000000
v -0.542283 -0.136467 0.000000
v -0.528975 -0.149841 0.000000
v -0.517143 -0.162609 0.000000
v -0.507012 -0.174615 0.000000
v -0.412341 -0.069426 0.000000
v -0.423240 -0.057789 0.000000
v -0.435792 -0.045582 0.000000
v -0.449766 -0.032937 0.000000
v -0.464937 -0.019986 0.000000
v -0.481071 -0.006858 0.000000
v -0.497940 0.006312 0.000000
v -0.515313 0.019395 0.000000
v -0.532959 0.032259 0.000000
v -0.550650 0.044772 0.000000
v -0.568155 0.056802 0.000000
v -0.585243 0.068220 0.000000
v 0.150420 -0.037869 0.000000
v -0.213534 -0.037869 0.000000
v -0.209391 -0.025464 0.000000
v -0.205377 -0.012978 0.000000
v -0.201486 -0.000411 0.000000
v -0.197718 0.012234 0.000000
v -0.194064 0.024951 0.000000
v -0.190524 0.037737 0.000000
v -0.187095 0.050589 0.000000
v -0.183771 0.063504 0.000000
v -0.180549 0.076476 0.000000
v -0.177423 0.089505 0.000000
v -0.174396 0.102582 0.000000
v -0.171459 0.115707 0.000000
v -0.302946 0.139902 0.000000
v -0.311751 0.097971 0.000000
v -0.321849 0.056466 0.000000
v -0.333219 0.015597 0.000000
v -0.345840 -0.024426 0.000000
v -0.359685 -0.063399 0.000000
v -0.374736 -0.101112 0.000000
v -0.390972 -0.137358 0.000000
v -0.408369 -0.171927 0.000000
v -0.426903 -0.204609 0.000000
v -0.446559 -0.235200 0.000000
v -0.467307 -0.263490 0.000000
v -0.489129 -0.289272 0.000000
v -0.480444 -0.293328 0.000000
v -0.470829 -0.298056 0.000000
v -0.460500 -0.303339 0.000000
v -0.449664 -0.309063 0.000000
v -0.438540 -0.315105 0.000000
v -0.427332 -0.321354 0.000000
v -0.416256 -0.327690 0.000000
v -0.405525 -0.333996 0.000000
v -0.395349 -0.340155 0.000000
v -0.385938 -0.346053 0.000000
v -0.377508 -0.351570 0.000000
v -0.370266 -0.356592 0.000000
v -0.360339 -0.343404 0.000000
v -0.350547 -0.329622 0.000000
v -0.340896 -0.315273 0.000000
v -0.331386 -0.300375 0.000000
v -0.322020 -0.284949 0.000000
v -0.312807 -0.269022 0.000000
v -0.303747 -0.252612 0.000000
v -0.294843 -0.235740 0.000000
v -0.286098 -0.218433 0.000000
v -0.277521 -0.200706 0.000000
v -0.269109 -0.182586 0.000000
v -0.260871 -0.164094 0.000000
v -0.176718 -0.164094 0.000000
v -0.176718 -0.272439 0.000000
v -0.178248 -0.304188 0.000000
v -0.183180 -0.339975 0.000000
v -0.192021 -0.378978 0.000000
v -0.205275 -0.420369 0.000000
v -0.223455 -0.463320 0.000000
v -0.247065 -0.507012 0.000000
v -0.276612 -0.550617 0.000000
v -0.312606 -0.593307 0.000000
v -0.355557 -0.634260 0.000000
v -0.405969 -0.672648 0.000000
v -0.464349 -0.707646 0.000000
v -0.531207 -0.738429 0.000000
v -0.525357 -0.744819 0.000000
v -0.518949 -0.752289 -0.000000
v -0.512124 -0.760650 -0.000000
v -0.505026 -0.769713 -0.000000
v -0.497796 -0.779286 -0.000000
v -0.490578 -0.789183 -0.000000
v -0.483510 -0.799209 -0.000000
v -0.476742 -0.809178 -0.000000
v -0.470409 -0.818898 -0.000000
v -0.464658 -0.828180 -0.000000
v -0.459633 -0.836835 -0.000000
v -0.455469 -0.844671 -0.000000
v -0.404265 -0.819789 -0.000000
v -0.357372 -0.791832 -0.000000
v -0.314712 -0.761406 -0.000000
v -0.276219 -0.729117 0.000000
v -0.241815 -0.695574 0.000000
v -0.211431 -0.661377 0.000000
v -0.184989 -0.627138 0.000000
v -0.162420 -0.593463 0.000000
v -0.143649 -0.560955 0.000000
v -0.128604 -0.530223 0.000000
v -0.117210 -0.501870 0.000000
v -0.109398 -0.476508 0.000000
v -0.102750 -0.501993 0.000000
v -0.092775 -0.530661 0.000000
v -0.079434 -0.561843 0.000000
v -0.062685 -0.594864 0.000000
v -0.042489 -0.629058 0.000000
v -0.018804 -0.663744 0.000000
v 0.008412 -0.698259 0.000000
v 0.039192 -0.731922 0.000000
v 0.073584 -0.764070 -0.000000
v 0.111621 -0.794025 -0.000000
v 0.153351 -0.821115 -0.000000
v 0.198807 -0.844671 -0.000000
v 0.204138 -0.836127 -0.000000
v 0.210072 -0.826896 -0.000000
v 0.216510 -0.817125 -0.000000
v 0.223353 -0.806958 -0.000000
v 0.230502 -0.796545 -0.000000
v 0.237858 -0.786027 -0.000000
v 0.245328 -0.775554 -0.000000
v 0.252804 -0.765273 -0.000000
v 0.260196 -0.755325 -0.000000
v 0.267399 -0.745860 0.000000
v 0.274320 -0.737025 0.000000
v 0.280857 -0.728961 0.000000
v 0.219681 -0.698505 0.000000
v 0.166281 -0.663948 0.000000
v 0.120195 -0.626106 0.000000
v 0.080958 -0.585789 0.000000
v 0.048102 -0.543804 0.000000
v 0.021168 -0.500964 0.000000
v -0.000306 -0.458082 0.000000
v -0.016791 -0.415965 0.000000
v -0.028746 -0.375426 0.000000
v -0.036636 -0.337278 0.000000
v -0.040926 -0.302328 0.000000
v -0.042075 -0.271389 0.000000
v -0.042075 -0.164094 0.000000
v 0.106242 -0.164094 0.000000
v 0.101142 -0.179073 0.000000
v 0.095853 -0.193983 0.000000
v 0.090414 -0.208752 0.000000
v 0.084852 -0.223314 0.000000
v 0.079203 -0.237597 0.000000
v 0.073500 -0.251535 0.000000
v 0.067776 -0.265056 0.000000
v 0.062061 -0.278088 0.000000
v 0.056391 -0.290568 0.000000
v 0.050799 -0.302424 0.000000
v 0.045315 -0.313584 0.000000
v 0.039972 -0.323982 0.000000
v 0.047748 -0.327387 0.000000
v 0.056241 -0.331239 0.000000
v 0.065301 -0.335454 0.000000
v 0.074763 -0.339957 0.000000
v 0.084474 -0.344661 0.000000
v 0.094275 -0.349491 0.000000
v 0.104013 -0.354366 0.000000
v 0.113526 -0.359202 0.000000
v 0.122661 -0.363921 0.000000
v 0.131259 -0.368445 0.000000
v 0.139161 -0.372690 0.000000
v 0.146214 -0.376578 0.000000
v 0.156669 -0.356763 0.000000
v 0.167451 -0.335787 0.000000
v 0.178443 -0.313761 0.000000
v 0.189537 -0.290790 0.000000
v 0.200613 -0.266988 0.000000
v 0.211563 -0.242460 0.000000
v 0.222270 -0.217323 0.000000
v 0.232623 -0.191679 0.000000
v 0.242511 -0.165639 0.000000
v 0.251817 -0.139317 0.000000
v 0.260427 -0.112818 0.000000
v 0.268233 -0.086256 0.000000
v 0.174615 -0.031557 0.000000
vn -0.0000 -0.0000 -1.0000
vn -0.0000 1.0000 -0.0000
vt 0.784186 0.125996
vt 0.845268 0.125055
vt 0.845776 0.115833
vt 0.846174 0.105727
vt 0.846470 0.094938
vt 0.846671 0.083666
vt 0.846786 0.072108
vt 0.846821 0.060466
vt 0.846782 0.048939
vt 0.846679 0.037725
vt 0.846518 0.027025
vt 0.784606 0.116782
vt 0.846307 0.017039
vt 0.784932 0.106801
vt 0.846054 0.007963
vt 0.785172 0.096223
vt 0.845764 -0.000000
vt 0.785329 0.085215
vt 0.785407 0.073943
vt 0.785413 0.062576
vt 0.785350 0.051281
vt 0.785225 0.040222
vt 0.785040 0.029572
vt 0.784802 0.019494
vt 0.784516 0.010156
vt 0.784186 0.001727
vt 0.898239 0.787870
vt 0.889919 0.805182
vt 0.962337 0.799761
vt 0.722804 0.795509
vt 0.783882 0.794324
vt 0.784481 0.784928
vt 0.784976 0.774698
vt 0.785369 0.763830
vt 0.905784 0.769713
vt 0.785663 0.752517
vt 0.785864 0.740954
vt 0.785971 0.729337
vt 0.912535 0.750789
vt 0.785994 0.717858
vt 0.785930 0.706713
vt 0.785788 0.696098
vt 0.918471 0.731168
vt 0.785568 0.686205
vt 0.723335 0.786257
vt 0.723743 0.776245
vt 0.785276 0.677231
vt 0.969436 0.781575
vt 0.724040 0.765636
vt 0.784915 0.669369
vt 0.923572 0.710928
vt 0.724230 0.754596
vt 0.724321 0.743287
vt 0.724320 0.731875
vt 0.724236 0.720524
vt 0.724075 0.709400
vt 0.723843 0.698666
vt 0.723550 0.688488
vt 0.723201 0.679029
vt 0.722804 0.670453
vt 0.975790 0.762780
vt 0.927816 0.690139
vt 0.981400 0.743430
vt 0.931185 0.668877
vt 0.933657 0.647214
vt 0.986268 0.723579
vt 0.935212 0.625227
vt 0.990396 0.703286
vt 0.935829 0.602987
vt 0.993785 0.682604
vt 0.935489 0.580569
vt 0.996438 0.661587
vt 0.934171 0.558048
vt 0.998357 0.640290
vt 0.932715 0.543791
vt 0.930744 0.529638
vt 0.999544 0.618769
vt 0.928292 0.515607
vt 0.925391 0.501713
vt 1.000000 0.597080
vt 0.922072 0.487974
vt 0.918370 0.474406
vt 0.999727 0.575277
vt 0.914316 0.461027
vt 0.909943 0.447854
vt 0.905284 0.434903
vt 0.900372 0.422192
vt 0.998727 0.553414
vt 0.895240 0.409736
vt 0.889919 0.397555
vt 0.959889 0.392653
vt 0.997364 0.539610
vt 0.995489 0.525362
vt 0.993152 0.510824
vt 0.990405 0.496153
vt 0.987299 0.481503
vt 0.983888 0.467033
vt 0.980222 0.452895
vt 0.976354 0.439245
vt 0.972335 0.426242
vt 0.968216 0.414038
vt 0.964051 0.402790
vt 0.768385 0.375495
vt 0.810531 0.368553
vt 0.811089 0.362474
vt 0.811533 0.355986
vt 0.811868 0.349167
vt 0.812103 0.342105
vt 0.768943 0.368435
vt 0.812245 0.334881
vt 0.769411 0.361615
vt 0.724246 0.375095
vt 0.766245 0.370197
vt 0.766679 0.364098
vt 0.767075 0.357550
vt 0.769785 0.354970
vt 0.812302 0.327576
vt 0.767428 0.350640
vt 0.770064 0.348434
vt 0.812280 0.320274
vt 0.770243 0.341948
vt 0.724926 0.368002
vt 0.767732 0.343460
vt 0.812188 0.313058
vt 0.770318 0.335442
vt 0.725467 0.361113
vt 0.767985 0.336093
vt 0.812033 0.306007
vt 0.770286 0.328855
vt 0.725874 0.354374
vt 0.768182 0.328628
vt 0.811823 0.299210
vt 0.770142 0.322122
vt 0.726151 0.347729
vt 0.768315 0.321153
vt 0.811563 0.292745
vt 0.769883 0.315180
vt 0.726302 0.341125
vt 0.811264 0.286696
vt 0.768385 0.313757
vt 0.769507 0.307963
vt 0.726332 0.334507
vt 0.769010 0.300409
vt 0.768385 0.292452
vt 0.768385 0.306524
vt 0.726247 0.327822
vt 0.768308 0.299545
vt 0.726050 0.321013
vt 0.768154 0.292906
vt 0.725747 0.314027
vt 0.767915 0.286696
vt 0.725342 0.306810
vt 0.724841 0.299308
vt 0.724246 0.291465
vt 0.267645 0.775453
vt 0.340596 0.775453
vt 0.340249 0.770929
vt 0.340347 0.399947
vt 0.340596 0.396756
vt 0.267645 0.396756
vt 0.340068 0.403461
vt 0.339906 0.765782
vt 0.339769 0.407276
vt 0.339573 0.760104
vt 0.339461 0.411366
vt 0.339254 0.753993
vt 0.339153 0.415709
vt 0.338954 0.747539
vt 0.338854 0.420279
vt 0.338680 0.740836
vt 0.338575 0.425053
vt 0.338434 0.733979
vt 0.338325 0.430005
vt 0.338222 0.727060
vt 0.338114 0.435113
vt 0.338048 0.720173
vt 0.337951 0.440350
vt 0.337918 0.713413
vt 0.337845 0.445694
vt 0.337837 0.706872
vt 0.337808 0.451121
vt 0.337808 0.700644
vt 0.337808 0.685014
vt 0.337808 0.666026
vt 0.337808 0.644404
vt 0.337808 0.620876
vt 0.337808 0.596167
vt 0.337808 0.571004
vt 0.337808 0.546109
vt 0.337808 0.522213
vt 0.337808 0.500041
vt 0.337808 0.480317
vt 0.337808 0.463769
vt 0.267886 0.770876
vt 0.268139 0.765782
vt 0.268400 0.760236
vt 0.268660 0.754303
vt 0.268914 0.748048
vt 0.269156 0.741533
vt 0.269377 0.734826
vt 0.269573 0.727989
vt 0.269736 0.721089
vt 0.269861 0.714187
vt 0.269940 0.707350
vt 0.269968 0.700644
vt 0.269968 0.685112
vt 0.269968 0.644600
vt 0.269968 0.621083
vt 0.269968 0.596365
vt 0.269968 0.571177
vt 0.269968 0.546251
vt 0.269968 0.522317
vt 0.269968 0.500106
vt 0.269968 0.451121
vt 0.269931 0.446165
vt 0.269829 0.441092
vt 0.269671 0.435961
vt 0.269470 0.430831
vt 0.269235 0.425758
vt 0.268981 0.420801
vt 0.268717 0.416020
vt 0.360500 0.396755
vt 0.268453 0.411469
vt 0.268204 0.407210
vt 0.267979 0.403299
vt 0.267788 0.399796
vt 0.724246 0.286696
vt 0.784186 0.286696
vt 0.783634 0.282789
vt 0.783634 0.004005
vt 0.784186 0.000000
vt 0.724246 0.000000
vt 0.783139 0.008107
vt 0.783138 0.278754
vt 0.782698 0.012285
vt 0.782698 0.274614
vt 0.782311 0.016521
vt 0.782311 0.270399
vt 0.781974 0.020797
vt 0.781974 0.266130
vt 0.781688 0.025092
vt 0.781688 0.261837
vt 0.781451 0.029387
vt 0.781451 0.257543
vt 0.781260 0.033663
vt 0.781260 0.253274
vt 0.781116 0.037900
vt 0.781116 0.249059
vt 0.781014 0.042078
vt 0.781014 0.244919
vt 0.780954 0.046180
vt 0.780953 0.240884
vt 0.780934 0.050183
vt 0.780934 0.236977
vt 0.780934 0.227667
vt 0.780934 0.214847
vt 0.780934 0.199231
vt 0.780934 0.181527
vt 0.780934 0.162450
vt 0.780934 0.142709
vt 0.780934 0.123017
vt 0.780934 0.104085
vt 0.780934 0.086624
vt 0.780934 0.071346
vt 0.780934 0.058961
vt 0.724477 0.282994
vt 0.724705 0.279107
vt 0.724928 0.275065
vt 0.725140 0.270897
vt 0.725340 0.266633
vt 0.725523 0.262300
vt 0.725687 0.257930
vt 0.725828 0.253550
vt 0.725945 0.249189
vt 0.726031 0.244877
vt 0.726085 0.240641
vt 0.726104 0.236512
vt 0.726104 0.227310
vt 0.726104 0.214578
vt 0.726104 0.199035
vt 0.726104 0.181390
vt 0.726104 0.162358
vt 0.726104 0.142651
vt 0.726104 0.122984
vt 0.726104 0.104068
vt 0.726104 0.086616
vt 0.726104 0.071343
vt 0.726104 0.058961
vt 0.726104 0.050183
vt 0.726085 0.046082
vt 0.726031 0.041917
vt 0.725945 0.037704
vt 0.725828 0.033456
vt 0.725687 0.029189
vt 0.725523 0.024918
vt 0.725340 0.020656
vt 0.725140 0.016418
vt 0.724928 0.012220
vt 0.724705 0.008073
vt 0.724477 0.003996
vt 0.060871 0.396755
vt 0.000000 0.396755
vt 0.000349 0.400286
vt 0.000447 0.784719
vt 0.000000 0.788000
vt 0.060407 0.788000
vt 0.000692 0.403900
vt 0.000852 0.781188
vt 0.001024 0.407581
vt 0.001221 0.777473
vt 0.001342 0.411316
vt 0.001549 0.773629
vt 0.001642 0.415088
vt 0.001839 0.769723
vt 0.001918 0.418885
vt 0.002091 0.765812
vt 0.002164 0.422692
vt 0.002305 0.761960
vt 0.002376 0.426495
vt 0.002479 0.758227
vt 0.002548 0.430277
vt 0.002615 0.754675
vt 0.002678 0.434026
vt 0.002711 0.751365
vt 0.002760 0.437726
vt 0.002770 0.748358
vt 0.002788 0.441363
vt 0.002788 0.745715
vt 0.002788 0.452872
vt 0.002788 0.471974
vt 0.002788 0.497151
vt 0.002788 0.526878
vt 0.002788 0.559630
vt 0.002788 0.593887
vt 0.002788 0.628125
vt 0.002788 0.660820
vt 0.002788 0.690450
vt 0.002788 0.715491
vt 0.002788 0.734420
vt 0.060639 0.400100
vt 0.060411 0.403609
vt 0.060188 0.407254
vt 0.059976 0.411005
vt 0.059776 0.414834
vt 0.059593 0.418710
vt 0.059429 0.422608
vt 0.059287 0.426494
vt 0.059172 0.430342
vt 0.059086 0.434122
vt 0.059032 0.437805
vt 0.059013 0.441363
vt 0.059013 0.569144
vt 0.059013 0.633732
vt 0.059013 0.745715
vt 0.059022 0.749059
vt 0.059051 0.752559
vt 0.059099 0.756178
vt 0.059168 0.759879
vt 0.059254 0.763625
vt 0.059362 0.767380
vt 0.059487 0.771106
vt 0.059632 0.774765
vt 0.059796 0.778322
vt 0.059980 0.781737
vt 0.060184 0.784976
vt 0.068682 0.568550
vt 0.070795 0.632880
vt 0.078172 0.567688
vt 0.082217 0.631723
vt 0.087473 0.566537
vt 0.093288 0.630262
vt 0.096581 0.565084
vt 0.104016 0.628500
vt 0.105489 0.563305
vt 0.114407 0.626442
vt 0.114191 0.561188
vt 0.122680 0.558711
vt 0.124472 0.624090
vt 0.130949 0.555859
vt 0.134216 0.621449
vt 0.138992 0.552612
vt 0.143649 0.618519
vt 0.146803 0.548956
vt 0.152780 0.615305
vt 0.154375 0.544869
vt 0.161615 0.611812
vt 0.161702 0.540335
vt 0.170162 0.608040
vt 0.168432 0.535407
vt 0.175111 0.529943
vt 0.178430 0.603994
vt 0.181690 0.523993
vt 0.186521 0.599530
vt 0.188119 0.517601
vt 0.194719 0.594301
vt 0.194349 0.510818
vt 0.200327 0.503685
vt 0.202956 0.588356
vt 0.206007 0.496254
vt 0.211163 0.581742
vt 0.211335 0.488569
vt 0.219273 0.574509
vt 0.216264 0.480677
vt 0.220742 0.472626
vt 0.227219 0.566704
vt 0.224720 0.464462
vt 0.228148 0.456232
vt 0.234933 0.558378
vt 0.267645 0.510598
vt 0.242347 0.549577
vt 0.249393 0.540350
vt 0.256003 0.530746
vt 0.262109 0.520812
vt 0.723436 0.082049
vt 0.724246 0.079539
vt 0.696023 0.041347
vt 0.722653 0.084919
vt 0.721903 0.088121
vt 0.721196 0.091628
vt 0.654628 0.346034
vt 0.720610 0.346244
vt 0.720166 0.342794
vt 0.720540 0.095413
vt 0.719747 0.338792
vt 0.719943 0.099448
vt 0.719354 0.334341
vt 0.718993 0.329546
vt 0.719412 0.103706
vt 0.718664 0.324512
vt 0.718958 0.108159
vt 0.718371 0.319345
vt 0.718117 0.314148
vt 0.718586 0.112782
vt 0.717905 0.309028
vt 0.718306 0.117544
vt 0.717737 0.304089
vt 0.717618 0.299435
vt 0.718126 0.122418
vt 0.717548 0.295172
vt 0.718053 0.127380
vt 0.717531 0.291404
vt 0.717556 0.283501
vt 0.717592 0.272316
vt 0.717635 0.258522
vt 0.717686 0.242787
vt 0.717740 0.225780
vt 0.717796 0.208172
vt 0.717852 0.190632
vt 0.717905 0.173828
vt 0.717954 0.158432
vt 0.717996 0.145112
vt 0.718030 0.134539
vt 0.694557 0.042364
vt 0.692752 0.043542
vt 0.690661 0.044851
vt 0.688332 0.046261
vt 0.685816 0.047743
vt 0.683162 0.049264
vt 0.680421 0.050794
vt 0.656505 0.322110
vt 0.677642 0.052303
vt 0.656891 0.317032
vt 0.657249 0.311830
vt 0.674878 0.053760
vt 0.657563 0.306577
vt 0.672176 0.055135
vt 0.669588 0.056399
vt 0.657814 0.301342
vt 0.667163 0.057518
vt 0.657984 0.296198
vt 0.658054 0.291215
vt 0.658076 0.284282
vt 0.658109 0.273932
vt 0.658151 0.260852
vt 0.658199 0.245730
vt 0.658252 0.229252
vt 0.658306 0.212107
vt 0.658413 0.178561
vt 0.658461 0.163536
vt 0.658502 0.150591
vt 0.658556 0.133696
vt 0.657830 0.061648
vt 0.650043 0.136592
vt 0.648022 0.066185
vt 0.656109 0.326995
vt 0.655723 0.331616
vt 0.655364 0.335901
vt 0.655050 0.339780
vt 0.654798 0.343181
vt 0.641067 0.140188
vt 0.637810 0.071111
vt 0.631716 0.144428
vt 0.627262 0.076408
vt 0.622073 0.149257
vt 0.616450 0.082060
vt 0.612222 0.154622
vt 0.605439 0.088048
vt 0.602247 0.160466
vt 0.594303 0.094355
vt 0.592231 0.166737
vt 0.583109 0.100964
vt 0.582260 0.173379
vt 0.571928 0.107857
vt 0.572417 0.180338
vt 0.562784 0.187558
vt 0.560827 0.115016
vt 0.553450 0.194987
vt 0.549879 0.122424
vt 0.544495 0.202567
vt 0.539149 0.130064
vt 0.532118 0.214023
vt 0.528817 0.118340
vt 0.519535 0.226571
vt 0.517829 0.106323
vt 0.506876 0.240121
vt 0.506345 0.094151
vt 0.494267 0.254587
vt 0.494523 0.081958
vt 0.481835 0.269880
vt 0.491161 0.170335
vt 0.482520 0.069880
vt 0.478304 0.182864
vt 0.480631 0.159399
vt 0.470492 0.058054
vt 0.469709 0.285911
vt 0.469908 0.148526
vt 0.465631 0.195877
vt 0.458601 0.046615
vt 0.458018 0.302591
vt 0.459029 0.137759
vt 0.453196 0.209341
vt 0.448034 0.127140
vt 0.446887 0.319834
vt 0.447000 0.035701
vt 0.441050 0.223216
vt 0.436959 0.116715
vt 0.436444 0.337549
vt 0.435849 0.025447
vt 0.429245 0.237467
vt 0.426820 0.355649
vt 0.425847 0.106528
vt 0.425305 0.015987
vt 0.417832 0.252057
vt 0.418140 0.374047
vt 0.414733 0.096621
vt 0.415526 0.007460
vt 0.410532 0.392653
vt 0.406865 0.266948
vt 0.406671 -0.000000
vt 0.403657 0.087037
vt 0.360500 0.344633
vt 0.396393 0.282103
vt 0.392657 0.077824
vt 0.381771 0.069020
vt 0.371040 0.060673
vt 0.360500 0.052824
vt 0.386468 0.297487
vt 0.377145 0.313061
vt 0.368471 0.328789
vt 0.345697 0.258536
vt 0.354299 0.230279
vt 0.359138 0.202753
vt 0.360500 0.176340
vt 0.333955 0.284641
vt 0.358560 0.151187
vt 0.319381 0.308435
vt 0.353491 0.127443
vt 0.302283 0.329755
vt 0.345466 0.105254
vt 0.282969 0.348443
vt 0.334662 0.084770
vt 0.261750 0.364338
vt 0.305449 0.190545
vt 0.321251 0.066134
vt 0.289538 0.251718
vt 0.295394 0.189868
vt 0.305585 0.175062
vt 0.280434 0.268501
vt 0.279829 0.250812
vt 0.238930 0.377276
vt 0.304011 0.160394
vt 0.269796 0.283387
vt 0.300791 0.146580
vt 0.285198 0.189233
vt 0.270067 0.250046
vt 0.305408 0.049496
vt 0.257861 0.296410
vt 0.295993 0.133660
vt 0.274867 0.188657
vt 0.260276 0.249419
vt 0.214822 0.387099
vt 0.244867 0.307607
vt 0.289679 0.121675
vt 0.264402 0.188152
vt 0.250478 0.248928
vt 0.281917 0.110666
vt 0.231050 0.317009
vt 0.287306 0.035003
vt 0.240694 0.248575
vt 0.253811 0.187737
vt 0.272770 0.100670
vt 0.189732 0.393646
vt 0.216648 0.324655
vt 0.230946 0.248356
vt 0.243098 0.187426
vt 0.262305 0.091731
vt 0.267119 0.022802
vt 0.201898 0.330575
vt 0.221255 0.248270
vt 0.232266 0.187238
vt 0.250584 0.083889
vt 0.163967 0.396755
vt 0.187036 0.334806
vt 0.211645 0.248316
vt 0.221320 0.187187
vt 0.245023 0.013040
vt 0.237675 0.077181
vt 0.202137 0.248491
vt 0.172301 0.337384
vt 0.210265 0.187289
vt 0.192752 0.248796
vt 0.137837 0.396268
vt 0.223643 0.071651
vt 0.199105 0.187559
vt 0.157930 0.338341
vt 0.183513 0.249228
vt 0.221189 0.005866
vt 0.187845 0.188015
vt 0.174442 0.249785
vt 0.208551 0.067337
vt 0.144160 0.337713
vt 0.158764 0.250950
vt 0.176490 0.188672
vt 0.111650 0.392020
vt 0.192339 0.064475
vt 0.131226 0.335534
vt 0.197647 0.001576
vt 0.152740 0.190472
vt 0.144436 0.252403
vt 0.120385 0.332582
vt 0.176737 0.063627
vt 0.093210 0.386761
vt 0.131440 0.254149
vt 0.110682 0.329170
vt 0.174775 -0.000000
vt 0.130416 0.193121
vt 0.161787 0.064685
vt 0.119764 0.256192
vt 0.102096 0.325365
vt 0.076154 0.380120
vt 0.109388 0.258535
vt 0.094609 0.321226
vt 0.147525 0.067537
vt 0.109593 0.196633
vt 0.152651 0.001149
vt 0.088200 0.316819
vt 0.100298 0.261186
vt 0.060577 0.372240
vt 0.133993 0.072073
vt 0.082850 0.312207
vt 0.092477 0.264146
vt 0.078538 0.307452
vt 0.090343 0.201019
vt 0.085910 0.267420
vt 0.131353 0.005030
vt 0.075245 0.302619
vt 0.121228 0.078185
vt 0.080580 0.271015
vt 0.046567 0.363265
vt 0.072950 0.297769
vt 0.076472 0.274933
vt 0.071633 0.292968
vt 0.073569 0.279180
vt 0.071275 0.288276
vt 0.109271 0.085759
vt 0.071856 0.283760
vt 0.072740 0.206292
vt 0.034215 0.353334
vt 0.110957 0.011651
vt 0.098159 0.094690
vt 0.056857 0.212465
vt 0.087935 0.104864
vt 0.023611 0.342593
vt 0.091544 0.021021
vt 0.078636 0.116171
vt 0.042768 0.219550
vt 0.070301 0.128504
vt 0.014848 0.331183
vt 0.062970 0.141750
vt 0.061566 0.144654
vt 0.073187 0.033149
vt 0.060159 0.147591
vt 0.058747 0.150576
vt 0.030546 0.227560
vt 0.057329 0.153626
vt 0.055907 0.156754
vt 0.008015 0.319248
vt 0.054479 0.159975
vt 0.053044 0.163304
vt 0.051604 0.166756
vt 0.050158 0.170345
vt 0.048706 0.174087
vt 0.047247 0.177997
vt 0.045781 0.182090
vt 0.000000 0.135441
vt 0.020264 0.236506
vt 0.003201 0.306926
vt 0.055968 0.048042
vt 0.011996 0.246401
vt 0.000501 0.294366
vt 0.005815 0.257257
vt 0.000000 0.281705
vt 0.039961 0.065709
vt 0.001795 0.269087
vt 0.025247 0.086159
vt 0.011901 0.109401
vt 0.858445 0.664249
vt 0.877011 0.667922
vt 0.889919 0.610293
vt 0.884077 0.609216
vt 0.878238 0.608185
vt 0.839828 0.661175
vt 0.872401 0.607202
vt 0.784186 0.234806
vt 0.841308 0.232105
vt 0.842511 0.223531
vt 0.866571 0.606268
vt 0.843653 0.214525
vt 0.860747 0.605385
vt 0.844712 0.205202
vt 0.821250 0.658727
vt 0.854930 0.604556
vt 0.845663 0.195677
vt 0.849120 0.603783
vt 0.846484 0.186066
vt 0.843319 0.603069
vt 0.847154 0.176482
vt 0.802799 0.656935
vt 0.837528 0.602413
vt 0.847648 0.167042
vt 0.831747 0.601821
vt 0.847943 0.157858
vt 0.825977 0.601293
vt 0.785013 0.225930
vt 0.848019 0.149047
vt 0.784563 0.655822
vt 0.820218 0.600832
vt 0.785734 0.216632
vt 0.883169 0.452896
vt 0.889919 0.444154
vt 0.883879 0.396640
vt 0.847849 0.140724
vt 0.786335 0.207034
vt 0.847414 0.133002
vt 0.786803 0.197256
vt 0.846690 0.125996
vt 0.766630 0.655416
vt 0.787126 0.187419
vt 0.787289 0.177647
vt 0.787279 0.168056
vt 0.787085 0.158772
vt 0.786692 0.149912
vt 0.786086 0.141600
vt 0.785256 0.133956
vt 0.784186 0.127099
vt 0.871732 0.395219
vt 0.749089 0.655747
vt 0.859472 0.394135
vt 0.732029 0.656839
vt 0.760725 0.598240
vt 0.824221 0.449021
vt 0.847163 0.393365
vt 0.751783 0.598390
vt 0.385638 0.672429
vt 0.360500 0.713156
vt 0.411113 0.744395
vt 0.436006 0.704063
vt 0.817251 0.448503
vt 0.834868 0.392880
vt 0.715539 0.658719
vt 0.810276 0.448074
vt 0.742963 0.598676
vt 0.822654 0.392653
vt 0.803332 0.447731
vt 0.734274 0.599096
vt 0.699705 0.661418
vt 0.796451 0.447473
vt 0.810585 0.392657
vt 0.725727 0.599657
vt 0.789668 0.447298
vt 0.684618 0.664958
vt 0.717329 0.600358
vt 0.783017 0.447206
vt 0.798721 0.392866
vt 0.776531 0.447194
vt 0.709092 0.601202
vt 0.670364 0.669369
vt 0.770245 0.447262
vt 0.787131 0.393251
vt 0.701025 0.602192
vt 0.443617 0.692699
vt 0.392429 0.660140
vt 0.764192 0.447409
vt 0.693134 0.603331
vt 0.670217 0.665137
vt 0.758405 0.447631
vt 0.775875 0.393787
vt 0.669959 0.660411
vt 0.669598 0.655299
vt 0.685434 0.604620
vt 0.453338 0.680557
vt 0.752921 0.447930
vt 0.669145 0.649904
vt 0.398878 0.645543
vt 0.668613 0.644338
vt 0.747770 0.448303
vt 0.765021 0.394445
vt 0.668012 0.638701
vt 0.677932 0.606061
vt 0.667352 0.633103
vt 0.747731 0.444553
vt 0.747634 0.440435
vt 0.666645 0.627651
vt 0.670637 0.607657
vt 0.747488 0.436023
vt 0.665902 0.622449
vt 0.747294 0.431399
vt 0.754630 0.395200
vt 0.465155 0.668048
vt 0.663887 0.817988
vt 0.663559 0.832325
vt 0.719819 0.819943
vt 0.747062 0.426638
vt 0.404604 0.628831
vt 0.665132 0.617604
vt 0.664348 0.613223
vt 0.663559 0.609411
vt 0.746794 0.421819
vt 0.746497 0.417017
vt 0.746176 0.412314
vt 0.745838 0.407785
vt 0.745487 0.403507
vt 0.745128 0.399561
vt 0.744767 0.396022
vt 0.664168 0.803646
vt 0.479054 0.655583
vt 0.409225 0.610197
vt 0.664398 0.789383
vt 0.664574 0.775290
vt 0.495023 0.643576
vt 0.412356 0.589833
vt 0.664692 0.761454
vt 0.720557 0.807402
vt 0.664747 0.747962
vt 0.458290 0.611339
vt 0.513044 0.632439
vt 0.413618 0.567932
vt 0.721175 0.794661
vt 0.461238 0.599993
vt 0.466702 0.603301
vt 0.664736 0.734903
vt 0.721680 0.781781
vt 0.664656 0.722365
vt 0.533108 0.622584
vt 0.463533 0.586691
vt 0.477103 0.594839
vt 0.412628 0.544685
vt 0.722081 0.768822
vt 0.664502 0.710435
vt 0.465008 0.571648
vt 0.489352 0.586213
vt 0.722386 0.755842
vt 0.664270 0.699202
vt 0.555199 0.614425
vt 0.409002 0.520287
vt 0.722602 0.742900
vt 0.663957 0.688754
vt 0.465494 0.555073
vt 0.503309 0.577686
vt 0.663559 0.679179
vt 0.722739 0.730056
vt 0.579303 0.608373
vt 0.722503 0.669369
vt 0.402359 0.494928
vt 0.464823 0.537179
vt 0.518834 0.569519
vt 0.722803 0.717369
vt 0.722804 0.704897
vt 0.605406 0.604841
vt 0.462827 0.518173
vt 0.535785 0.561975
vt 0.392315 0.468801
vt 0.722748 0.692701
vt 0.722646 0.680838
vt 0.459340 0.498269
vt 0.554024 0.555316
vt 0.633497 0.604240
vt 0.378490 0.442101
vt 0.454190 0.477678
vt 0.573404 0.549803
vt 0.663559 0.606985
vt 0.360500 0.415017
vt 0.662973 0.602437
vt 0.447212 0.456610
vt 0.593791 0.545698
vt 0.662421 0.597511
vt 0.364182 0.413973
vt 0.368324 0.412651
vt 0.661910 0.592281
vt 0.372829 0.411092
vt 0.661439 0.586827
vt 0.377600 0.409332
vt 0.438235 0.435275
vt 0.615039 0.543263
vt 0.661014 0.581228
vt 0.382539 0.407411
vt 0.660636 0.575558
vt 0.387548 0.405365
vt 0.660311 0.569897
vt 0.392531 0.403236
vt 0.427094 0.413886
vt 0.637011 0.542762
vt 0.660040 0.564324
vt 0.397388 0.401059
vt 0.659826 0.558915
vt 0.402024 0.398875
vt 0.659673 0.553748
vt 0.406339 0.396720
vt 0.410236 0.394632
vt 0.413620 0.392653
vt 0.659563 0.544453
vt 0.659584 0.548902
s 1
usemtl マテリアル.010
f 93/1/1 92/2/1 91/3/1
f 93/1/1 91/3/1 90/4/1
f 93/1/1 90/4/1 89/5/1
f 93/1/1 89/5/1 88/6/1
f 93/1/1 88/6/1 87/7/1
f 93/1/1 87/7/1 86/8/1
f 93/1/1 86/8/1 85/9/1
f 93/1/1 85/9/1 84/10/1
f 93/1/1 84/10/1 83/11/1
f 94/12/1 93/1/1 83/11/1
f 94/12/1 83/11/1 82/13/1
f 95/14/1 94/12/1 82/13/1
f 95/14/1 82/13/1 81/15/1
f 96/16/1 95/14/1 81/15/1
f 96/16/1 81/15/1 80/17/1
f 97/18/1 96/16/1 80/17/1
f 97/18/1 80/17/1 98/19/1
f 98/19/1 80/17/1 99/20/1
f 99/20/1 80/17/1 100/21/1
f 100/21/1 80/17/1 101/22/1
f 101/22/1 80/17/1 102/23/1
f 102/23/1 80/17/1 103/24/1
f 103/24/1 80/17/1 104/25/1
f 104/25/1 80/17/1 79/26/1
f 132/27/1 131/28/1 130/29/1
f 67/30/1 66/31/1 65/32/1
f 67/30/1 65/32/1 64/33/1
f 67/30/1 64/33/1 63/34/1
f 133/35/1 132/27/1 130/29/1
f 67/30/1 63/34/1 62/36/1
f 67/30/1 62/36/1 61/37/1
f 67/30/1 61/37/1 60/38/1
f 134/39/1 133/35/1 130/29/1
f 67/30/1 60/38/1 59/40/1
f 67/30/1 59/40/1 58/41/1
f 67/30/1 58/41/1 57/42/1
f 135/43/1 134/39/1 130/29/1
f 67/30/1 57/42/1 56/44/1
f 68/45/1 67/30/1 56/44/1
f 69/46/1 68/45/1 56/44/1
f 69/46/1 56/44/1 55/47/1
f 135/43/1 130/29/1 129/48/1
f 70/49/1 69/46/1 55/47/1
f 70/49/1 55/47/1 54/50/1
f 136/51/1 135/43/1 129/48/1
f 70/49/1 54/50/1 71/52/1
f 71/52/1 54/50/1 72/53/1
f 72/53/1 54/50/1 73/54/1
f 73/54/1 54/50/1 74/55/1
f 74/55/1 54/50/1 75/56/1
f 75/56/1 54/50/1 76/57/1
f 76/57/1 54/50/1 77/58/1
f 77/58/1 54/50/1 78/59/1
f 78/59/1 54/50/1 53/60/1
f 136/51/1 129/48/1 128/61/1
f 137/62/1 136/51/1 128/61/1
f 137/62/1 128/61/1 127/63/1
f 138/64/1 137/62/1 127/63/1
f 139/65/1 138/64/1 127/63/1
f 139/65/1 127/63/1 126/66/1
f 140/67/1 139/65/1 126/66/1
f 140/67/1 126/66/1 125/68/1
f 141/69/1 140/67/1 125/68/1
f 141/69/1 125/68/1 124/70/1
f 142/71/1 141/69/1 124/70/1
f 142/71/1 124/70/1 123/72/1
f 143/73/1 142/71/1 123/72/1
f 143/73/1 123/72/1 122/74/1
f 144/75/1 143/73/1 122/74/1
f 145/76/1 144/75/1 122/74/1
f 145/76/1 122/74/1 121/77/1
f 146/78/1 145/76/1 121/77/1
f 147/79/1 146/78/1 121/77/1
f 147/79/1 121/77/1 120/80/1
f 148/81/1 147/79/1 120/80/1
f 149/82/1 148/81/1 120/80/1
f 149/82/1 120/80/1 119/83/1
f 150/84/1 149/82/1 119/83/1
f 151/85/1 150/84/1 119/83/1
f 152/86/1 151/85/1 119/83/1
f 153/87/1 152/86/1 119/83/1
f 153/87/1 119/83/1 118/88/1
f 154/89/1 153/87/1 118/88/1
f 105/90/1 154/89/1 118/88/1
f 106/91/1 105/90/1 118/88/1
f 106/91/1 118/88/1 117/92/1
f 106/91/1 117/92/1 116/93/1
f 106/91/1 116/93/1 115/94/1
f 106/91/1 115/94/1 114/95/1
f 106/91/1 114/95/1 113/96/1
f 106/91/1 113/96/1 112/97/1
f 106/91/1 112/97/1 111/98/1
f 106/91/1 111/98/1 110/99/1
f 106/91/1 110/99/1 109/100/1
f 106/91/1 109/100/1 108/101/1
f 106/91/1 108/101/1 107/102/1
f 41/103/1 40/104/1 39/105/1
f 41/103/1 39/105/1 38/106/1
f 41/103/1 38/106/1 37/107/1
f 41/103/1 37/107/1 36/108/1
f 42/109/1 41/103/1 36/108/1
f 42/109/1 36/108/1 35/110/1
f 43/111/1 42/109/1 35/110/1
f 15/112/1 14/113/1 13/114/1
f 15/112/1 13/114/1 12/115/1
f 44/116/1 43/111/1 35/110/1
f 44/116/1 35/110/1 34/117/1
f 15/112/1 12/115/1 11/118/1
f 45/119/1 44/116/1 34/117/1
f 45/119/1 34/117/1 33/120/1
f 46/121/1 45/119/1 33/120/1
f 16/122/1 15/112/1 11/118/1
f 16/122/1 11/118/1 10/123/1
f 46/121/1 33/120/1 32/124/1
f 47/125/1 46/121/1 32/124/1
f 17/126/1 16/122/1 10/123/1
f 17/126/1 10/123/1 9/127/1
f 47/125/1 32/124/1 31/128/1
f 48/129/1 47/125/1 31/128/1
f 18/130/1 17/126/1 9/127/1
f 18/130/1 9/127/1 8/131/1
f 48/129/1 31/128/1 30/132/1
f 49/133/1 48/129/1 30/132/1
f 19/134/1 18/130/1 8/131/1
f 19/134/1 8/131/1 7/135/1
f 49/133/1 30/132/1 29/136/1
f 50/137/1 49/133/1 29/136/1
f 20/138/1 19/134/1 7/135/1
f 50/137/1 29/136/1 28/139/1
f 20/138/1 7/135/1 6/140/1
f 51/141/1 50/137/1 28/139/1
f 21/142/1 20/138/1 6/140/1
f 51/141/1 28/139/1 52/143/1
f 52/143/1 28/139/1 27/144/1
f 21/142/1 6/140/1 5/145/1
f 22/146/1 21/142/1 5/145/1
f 22/146/1 5/145/1 4/147/1
f 23/148/1 22/146/1 4/147/1
f 23/148/1 4/147/1 3/149/1
f 24/150/1 23/148/1 3/149/1
f 24/150/1 3/149/1 2/151/1
f 25/152/1 24/150/1 2/151/1
f 25/152/1 2/151/1 26/153/1
f 26/153/1 2/151/1 1/154/1
f 156/155/1 155/156/1 228/157/1
f 194/158/1 193/159/1 192/160/1
f 195/161/1 194/158/1 192/160/1
f 156/155/1 228/157/1 227/162/1
f 196/163/1 195/161/1 192/160/1
f 156/155/1 227/162/1 226/164/1
f 197/165/1 196/163/1 192/160/1
f 156/155/1 226/164/1 225/166/1
f 198/167/1 197/165/1 192/160/1
f 156/155/1 225/166/1 224/168/1
f 199/169/1 198/167/1 192/160/1
f 156/155/1 224/168/1 223/170/1
f 200/171/1 199/169/1 192/160/1
f 156/155/1 223/170/1 222/172/1
f 201/173/1 200/171/1 192/160/1
f 156/155/1 222/172/1 221/174/1
f 202/175/1 201/173/1 192/160/1
f 156/155/1 221/174/1 220/176/1
f 203/177/1 202/175/1 192/160/1
f 156/155/1 220/176/1 219/178/1
f 204/179/1 203/177/1 192/160/1
f 156/155/1 219/178/1 218/180/1
f 205/181/1 204/179/1 192/160/1
f 156/155/1 218/180/1 217/182/1
f 156/155/1 217/182/1 216/183/1
f 156/155/1 216/183/1 215/184/1
f 156/155/1 215/184/1 214/185/1
f 156/155/1 214/185/1 213/186/1
f 156/155/1 213/186/1 212/187/1
f 156/155/1 212/187/1 211/188/1
f 156/155/1 211/188/1 210/189/1
f 156/155/1 210/189/1 209/190/1
f 156/155/1 209/190/1 208/191/1
f 156/155/1 208/191/1 207/192/1
f 156/155/1 207/192/1 206/193/1
f 156/155/1 206/193/1 205/181/1
f 156/155/1 205/181/1 157/194/1
f 157/194/1 205/181/1 158/195/1
f 158/195/1 205/181/1 159/196/1
f 159/196/1 205/181/1 160/197/1
f 160/197/1 205/181/1 161/198/1
f 161/198/1 205/181/1 162/199/1
f 162/199/1 205/181/1 163/200/1
f 163/200/1 205/181/1 164/201/1
f 164/201/1 205/181/1 165/202/1
f 165/202/1 205/181/1 166/203/1
f 166/203/1 205/181/1 167/204/1
f 167/204/1 205/181/1 168/205/1
f 168/205/1 205/181/1 169/206/1
f 169/206/1 205/181/1 171/207/1
f 171/207/1 205/181/1 172/208/1
f 172/208/1 205/181/1 173/209/1
f 173/209/1 205/181/1 174/210/1
f 174/210/1 205/181/1 175/211/1
f 175/211/1 205/181/1 176/212/1
f 176/212/1 205/181/1 177/213/1
f 177/213/1 205/181/1 180/214/1
f 180/214/1 205/181/1 181/215/1
f 181/215/1 205/181/1 182/216/1
f 182/216/1 205/181/1 183/217/1
f 183/217/1 205/181/1 184/218/1
f 184/218/1 205/181/1 185/219/1
f 185/219/1 205/181/1 186/220/1
f 186/220/1 205/181/1 187/221/1
f 187/221/1 205/181/1 192/160/1
s 0
f 170/222/2 169/222/2 171/222/2
f 178/222/2 177/222/2 180/222/2
f 179/222/2 178/222/2 180/222/2
s 1
f 188/223/1 187/221/1 192/160/1
f 189/224/1 188/223/1 192/160/1
f 190/225/1 189/224/1 192/160/1
f 191/226/1 190/225/1 192/160/1
f 343/227/1 342/228/1 415/229/1
f 381/230/1 380/231/1 379/232/1
f 382/233/1 381/230/1 379/232/1
f 343/227/1 415/229/1 414/234/1
f 383/235/1 382/233/1 379/232/1
f 343/227/1 414/234/1 413/236/1
f 384/237/1 383/235/1 379/232/1
f 343/227/1 413/236/1 412/238/1
f 385/239/1 384/237/1 379/232/1
f 343/227/1 412/238/1 411/240/1
f 386/241/1 385/239/1 379/232/1
f 343/227/1 411/240/1 410/242/1
f 387/243/1 386/241/1 379/232/1
f 343/227/1 410/242/1 409/244/1
f 388/245/1 387/243/1 379/232/1
f 343/227/1 409/244/1 408/246/1
f 389/247/1 388/245/1 379/232/1
f 343/227/1 408/246/1 407/248/1
f 390/249/1 389/247/1 379/232/1
f 343/227/1 407/248/1 406/250/1
f 391/251/1 390/249/1 379/232/1
f 343/227/1 406/250/1 405/252/1
f 392/253/1 391/251/1 379/232/1
f 343/227/1 405/252/1 404/254/1
f 343/227/1 404/254/1 403/255/1
f 343/227/1 403/255/1 402/256/1
f 343/227/1 402/256/1 401/257/1
f 343/227/1 401/257/1 400/258/1
f 343/227/1 400/258/1 399/259/1
f 343/227/1 399/259/1 398/260/1
f 343/227/1 398/260/1 397/261/1
f 343/227/1 397/261/1 396/262/1
f 343/227/1 396/262/1 395/263/1
f 343/227/1 395/263/1 394/264/1
f 343/227/1 394/264/1 393/265/1
f 343/227/1 393/265/1 392/253/1
f 343/227/1 392/253/1 344/266/1
f 344/266/1 392/253/1 345/267/1
f 345/267/1 392/253/1 346/268/1
f 346/268/1 392/253/1 347/269/1
f 347/269/1 392/253/1 348/270/1
f 348/270/1 392/253/1 349/271/1
f 349/271/1 392/253/1 350/272/1
f 350/272/1 392/253/1 351/273/1
f 351/273/1 392/253/1 352/274/1
f 352/274/1 392/253/1 353/275/1
f 353/275/1 392/253/1 354/276/1
f 354/276/1 392/253/1 355/277/1
f 355/277/1 392/253/1 356/278/1
f 356/278/1 392/253/1 357/279/1
f 357/279/1 392/253/1 358/280/1
f 358/280/1 392/253/1 359/281/1
f 359/281/1 392/253/1 360/282/1
f 360/282/1 392/253/1 361/283/1
f 361/283/1 392/253/1 362/284/1
f 362/284/1 392/253/1 363/285/1
f 363/285/1 392/253/1 364/286/1
f 364/286/1 392/253/1 365/287/1
f 365/287/1 392/253/1 366/288/1
f 366/288/1 392/253/1 367/289/1
f 367/289/1 392/253/1 368/290/1
f 368/290/1 392/253/1 369/291/1
f 369/291/1 392/253/1 370/292/1
f 370/292/1 392/253/1 371/293/1
f 371/293/1 392/253/1 372/294/1
f 372/294/1 392/253/1 373/295/1
f 373/295/1 392/253/1 374/296/1
f 374/296/1 392/253/1 375/297/1
f 375/297/1 392/253/1 376/298/1
f 376/298/1 392/253/1 377/299/1
f 377/299/1 392/253/1 378/300/1
f 378/300/1 392/253/1 379/232/1
f 230/301/1 229/302/1 341/303/1
f 307/304/1 306/305/1 305/306/1
f 230/301/1 341/303/1 340/307/1
f 308/308/1 307/304/1 305/306/1
f 230/301/1 340/307/1 339/309/1
f 309/310/1 308/308/1 305/306/1
f 230/301/1 339/309/1 338/311/1
f 310/312/1 309/310/1 305/306/1
f 230/301/1 338/311/1 337/313/1
f 311/314/1 310/312/1 305/306/1
f 230/301/1 337/313/1 336/315/1
f 312/316/1 311/314/1 305/306/1
f 230/301/1 336/315/1 335/317/1
f 313/318/1 312/316/1 305/306/1
f 230/301/1 335/317/1 334/319/1
f 314/320/1 313/318/1 305/306/1
f 230/301/1 334/319/1 333/321/1
f 315/322/1 314/320/1 305/306/1
f 230/301/1 333/321/1 332/323/1
f 316/324/1 315/322/1 305/306/1
f 230/301/1 332/323/1 331/325/1
f 317/326/1 316/324/1 305/306/1
f 230/301/1 331/325/1 330/327/1
f 318/328/1 317/326/1 305/306/1
f 230/301/1 330/327/1 329/329/1
f 230/301/1 329/329/1 328/330/1
f 230/301/1 328/330/1 327/331/1
f 230/301/1 327/331/1 326/332/1
f 230/301/1 326/332/1 325/333/1
f 230/301/1 325/333/1 324/334/1
f 230/301/1 324/334/1 323/335/1
f 230/301/1 323/335/1 322/336/1
f 230/301/1 322/336/1 321/337/1
f 230/301/1 321/337/1 320/338/1
f 230/301/1 320/338/1 319/339/1
f 230/301/1 319/339/1 318/328/1
f 230/301/1 318/328/1 231/340/1
f 231/340/1 318/328/1 232/341/1
f 232/341/1 318/328/1 233/342/1
f 233/342/1 318/328/1 234/343/1
f 234/343/1 318/328/1 235/344/1
f 235/344/1 318/328/1 236/345/1
f 236/345/1 318/328/1 237/346/1
f 237/346/1 318/328/1 238/347/1
f 238/347/1 318/328/1 239/348/1
f 239/348/1 318/328/1 240/349/1
f 240/349/1 318/328/1 241/350/1
f 241/350/1 318/328/1 242/351/1
f 242/351/1 318/328/1 243/352/1
f 243/352/1 318/328/1 292/353/1
f 292/353/1 318/328/1 293/354/1
f 293/354/1 318/328/1 294/355/1
f 294/355/1 318/328/1 295/356/1
f 295/356/1 318/328/1 296/357/1
f 296/357/1 318/328/1 297/358/1
f 297/358/1 318/328/1 298/359/1
f 298/359/1 318/328/1 299/360/1
f 299/360/1 318/328/1 300/361/1
f 300/361/1 318/328/1 301/362/1
f 301/362/1 318/328/1 302/363/1
f 302/363/1 318/328/1 303/364/1
f 303/364/1 318/328/1 304/365/1
f 304/365/1 318/328/1 305/306/1
f 244/366/1 243/352/1 292/353/1
f 244/366/1 292/353/1 291/367/1
f 245/368/1 244/366/1 291/367/1
f 245/368/1 291/367/1 290/369/1
f 246/370/1 245/368/1 290/369/1
f 246/370/1 290/369/1 289/371/1
f 247/372/1 246/370/1 289/371/1
f 247/372/1 289/371/1 288/373/1
f 248/374/1 247/372/1 288/373/1
f 248/374/1 288/373/1 287/375/1
f 249/376/1 248/374/1 287/375/1
f 250/377/1 249/376/1 287/375/1
f 250/377/1 287/375/1 286/378/1
f 251/379/1 250/377/1 286/378/1
f 251/379/1 286/378/1 285/380/1
f 252/381/1 251/379/1 285/380/1
f 252/381/1 285/380/1 284/382/1
f 253/383/1 252/381/1 284/382/1
f 253/383/1 284/382/1 283/384/1
f 254/385/1 253/383/1 283/384/1
f 254/385/1 283/384/1 282/386/1
f 255/387/1 254/385/1 282/386/1
f 255/387/1 282/386/1 281/388/1
f 256/389/1 255/387/1 281/388/1
f 257/390/1 256/389/1 281/388/1
f 257/390/1 281/388/1 280/391/1
f 258/392/1 257/390/1 280/391/1
f 258/392/1 280/391/1 279/393/1
f 259/394/1 258/392/1 279/393/1
f 259/394/1 279/393/1 278/395/1
f 260/396/1 259/394/1 278/395/1
f 261/397/1 260/396/1 278/395/1
f 261/397/1 278/395/1 277/398/1
f 262/399/1 261/397/1 277/398/1
f 262/399/1 277/398/1 276/400/1
f 263/401/1 262/399/1 276/400/1
f 263/401/1 276/400/1 275/402/1
f 264/403/1 263/401/1 275/402/1
f 265/404/1 264/403/1 275/402/1
f 265/404/1 275/402/1 274/405/1
f 266/406/1 265/404/1 274/405/1
f 267/407/1 266/406/1 274/405/1
f 267/407/1 274/405/1 273/408/1
f 268/409/1 267/407/1 273/408/1
f 268/409/1 273/408/1 272/410/1
f 268/409/1 272/410/1 271/411/1
f 268/409/1 271/411/1 270/412/1
f 268/409/1 270/412/1 269/413/1
f 455/414/1 454/415/1 453/416/1
f 456/417/1 455/414/1 453/416/1
f 457/418/1 456/417/1 453/416/1
f 458/419/1 457/418/1 453/416/1
f 491/420/1 490/421/1 489/422/1
f 459/423/1 458/419/1 453/416/1
f 491/420/1 489/422/1 488/424/1
f 460/425/1 459/423/1 453/416/1
f 491/420/1 488/424/1 487/426/1
f 491/420/1 487/426/1 486/427/1
f 461/428/1 460/425/1 453/416/1
f 491/420/1 486/427/1 485/429/1
f 462/430/1 461/428/1 453/416/1
f 491/420/1 485/429/1 484/431/1
f 491/420/1 484/431/1 483/432/1
f 463/433/1 462/430/1 453/416/1
f 491/420/1 483/432/1 482/434/1
f 464/435/1 463/433/1 453/416/1
f 491/420/1 482/434/1 481/436/1
f 491/420/1 481/436/1 480/437/1
f 465/438/1 464/435/1 453/416/1
f 491/420/1 480/437/1 479/439/1
f 466/440/1 465/438/1 453/416/1
f 491/420/1 479/439/1 478/441/1
f 491/420/1 478/441/1 477/442/1
f 491/420/1 477/442/1 476/443/1
f 491/420/1 476/443/1 475/444/1
f 491/420/1 475/444/1 474/445/1
f 491/420/1 474/445/1 473/446/1
f 491/420/1 473/446/1 472/447/1
f 491/420/1 472/447/1 471/448/1
f 491/420/1 471/448/1 470/449/1
f 491/420/1 470/449/1 469/450/1
f 491/420/1 469/450/1 468/451/1
f 491/420/1 468/451/1 467/452/1
f 491/420/1 467/452/1 466/440/1
f 491/420/1 466/440/1 453/416/1
f 491/420/1 453/416/1 452/453/1
f 491/420/1 452/453/1 451/454/1
f 491/420/1 451/454/1 450/455/1
f 491/420/1 450/455/1 449/456/1
f 491/420/1 449/456/1 448/457/1
f 491/420/1 448/457/1 447/458/1
f 491/420/1 447/458/1 446/459/1
f 491/420/1 446/459/1 497/460/1
f 497/460/1 446/459/1 445/461/1
f 497/460/1 445/461/1 498/462/1
f 498/462/1 445/461/1 499/463/1
f 499/463/1 445/461/1 444/464/1
f 499/463/1 444/464/1 500/465/1
f 500/465/1 444/464/1 443/466/1
f 500/465/1 443/466/1 442/467/1
f 500/465/1 442/467/1 501/468/1
f 501/468/1 442/467/1 441/469/1
f 501/468/1 441/469/1 502/470/1
f 502/470/1 441/469/1 503/471/1
f 503/471/1 441/469/1 504/472/1
f 504/472/1 441/469/1 505/473/1
f 505/473/1 441/469/1 506/474/1
f 506/474/1 441/469/1 507/475/1
f 507/475/1 441/469/1 508/476/1
f 508/476/1 441/469/1 509/477/1
f 509/477/1 441/469/1 511/478/1
f 511/478/1 441/469/1 512/479/1
f 512/479/1 441/469/1 513/480/1
f 513/480/1 441/469/1 515/481/1
f 515/481/1 441/469/1 440/482/1
s 0
f 510/222/2 509/222/2 511/222/2
f 514/222/2 513/222/2 515/222/2
s 1
f 516/483/1 515/481/1 440/482/1
f 516/483/1 440/482/1 439/484/1
f 491/420/1 497/460/1 496/485/1
f 491/420/1 496/485/1 495/486/1
f 491/420/1 495/486/1 494/487/1
f 491/420/1 494/487/1 493/488/1
f 491/420/1 493/488/1 492/489/1
f 517/490/1 516/483/1 439/484/1
f 517/490/1 439/484/1 438/491/1
f 518/492/1 517/490/1 438/491/1
f 518/492/1 438/491/1 437/493/1
f 519/494/1 518/492/1 437/493/1
f 519/494/1 437/493/1 436/495/1
f 520/496/1 519/494/1 436/495/1
f 520/496/1 436/495/1 435/497/1
f 521/498/1 520/496/1 435/497/1
f 521/498/1 435/497/1 434/499/1
f 522/500/1 521/498/1 434/499/1
f 522/500/1 434/499/1 433/501/1
f 523/502/1 522/500/1 433/501/1
f 523/502/1 433/501/1 432/503/1
f 524/504/1 523/502/1 432/503/1
f 525/505/1 524/504/1 432/503/1
f 525/505/1 432/503/1 431/506/1
f 526/507/1 525/505/1 431/506/1
f 526/507/1 431/506/1 430/508/1
f 527/509/1 526/507/1 430/508/1
f 527/509/1 430/508/1 429/510/1
f 528/511/1 527/509/1 429/510/1
f 528/511/1 429/510/1 428/512/1
f 529/513/1 528/511/1 428/512/1
f 529/513/1 428/512/1 427/514/1
f 530/515/1 529/513/1 427/514/1
f 530/515/1 427/514/1 426/516/1
f 531/517/1 530/515/1 426/516/1
f 531/517/1 426/516/1 425/518/1
f 532/519/1 531/517/1 552/520/1
f 552/520/1 531/517/1 425/518/1
f 552/520/1 425/518/1 424/521/1
f 532/519/1 552/520/1 551/522/1
f 553/523/1 552/520/1 424/521/1
f 553/523/1 424/521/1 423/524/1
f 533/525/1 532/519/1 551/522/1
f 554/526/1 553/523/1 423/524/1
f 533/525/1 551/522/1 550/527/1
f 554/526/1 423/524/1 422/528/1
f 534/529/1 533/525/1 550/527/1
f 555/530/1 554/526/1 422/528/1
f 534/529/1 550/527/1 549/531/1
f 556/532/1 555/530/1 422/528/1
f 535/533/1 534/529/1 549/531/1
f 556/532/1 422/528/1 421/534/1
f 535/533/1 549/531/1 548/535/1
f 557/536/1 556/532/1 421/534/1
f 536/537/1 535/533/1 548/535/1
f 557/536/1 421/534/1 420/538/1
f 536/537/1 548/535/1 547/539/1
f 537/540/1 536/537/1 547/539/1
f 558/541/1 557/536/1 420/538/1
f 558/541/1 420/538/1 419/542/1
f 537/540/1 547/539/1 546/543/1
f 538/544/1 537/540/1 546/543/1
f 559/545/1 558/541/1 419/542/1
f 559/545/1 419/542/1 418/546/1
f 539/547/1 538/544/1 546/543/1
f 539/547/1 546/543/1 545/548/1
f 559/545/1 418/546/1 417/549/1
f 560/550/1 559/545/1 417/549/1
f 540/551/1 539/547/1 545/548/1
f 540/551/1 545/548/1 544/552/1
f 560/550/1 417/549/1 561/553/1
f 561/553/1 417/549/1 562/554/1
f 562/554/1 417/549/1 563/555/1
f 563/555/1 417/549/1 416/556/1
f 540/551/1 544/552/1 543/557/1
f 540/551/1 543/557/1 542/558/1
f 540/551/1 542/558/1 541/559/1
f 590/560/1 589/561/1 588/562/1
f 590/560/1 588/562/1 587/563/1
f 591/564/1 590/560/1 587/563/1
f 591/564/1 587/563/1 586/565/1
f 592/566/1 591/564/1 586/565/1
f 592/566/1 586/565/1 585/567/1
f 593/568/1 592/566/1 585/567/1
f 593/568/1 585/567/1 584/569/1
f 594/570/1 593/568/1 584/569/1
f 594/570/1 584/569/1 583/571/1
f 595/572/1 594/570/1 583/571/1
f 595/572/1 583/571/1 637/573/1
f 637/573/1 583/571/1 582/574/1
f 595/572/1 637/573/1 673/575/1
f 673/575/1 637/573/1 636/576/1
f 638/577/1 637/573/1 582/574/1
f 595/572/1 673/575/1 720/578/1
f 674/579/1 673/575/1 636/576/1
f 596/580/1 595/572/1 720/578/1
f 639/581/1 638/577/1 582/574/1
f 596/580/1 720/578/1 719/582/1
f 640/583/1 639/581/1 582/574/1
f 674/579/1 636/576/1 635/584/1
f 675/585/1 674/579/1 635/584/1
f 640/583/1 582/574/1 581/586/1
f 596/580/1 719/582/1 718/587/1
f 641/588/1 640/583/1 581/586/1
f 675/585/1 635/584/1 634/589/1
f 676/590/1 675/585/1 634/589/1
f 597/591/1 596/580/1 718/587/1
f 597/591/1 718/587/1 717/592/1
f 642/593/1 641/588/1 581/586/1
f 676/590/1 634/589/1 633/594/1
f 677/595/1 676/590/1 633/594/1
f 643/596/1 642/593/1 581/586/1
f 597/591/1 717/592/1 716/597/1
f 643/596/1 581/586/1 580/598/1
f 678/599/1 677/595/1 633/594/1
f 678/599/1 633/594/1 632/600/1
f 644/601/1 643/596/1 580/598/1
f 598/602/1 597/591/1 716/597/1
f 598/602/1 716/597/1 715/603/1
f 679/604/1 678/599/1 632/600/1
f 679/604/1 632/600/1 631/605/1
f 645/606/1 644/601/1 580/598/1
f 645/606/1 580/598/1 579/607/1
f 598/602/1 715/603/1 714/608/1
f 680/609/1 679/604/1 631/605/1
f 680/609/1 631/605/1 630/610/1
f 646/611/1 645/606/1 579/607/1
f 599/612/1 598/602/1 714/608/1
f 599/612/1 714/608/1 713/613/1
f 681/614/1 680/609/1 630/610/1
f 681/614/1 630/610/1 629/615/1
f 646/611/1 579/607/1 578/616/1
f 647/617/1 646/611/1 578/616/1
f 682/618/1 681/614/1 629/615/1
f 599/612/1 713/613/1 712/619/1
f 682/618/1 629/615/1 628/620/1
f 683/621/1 682/618/1 628/620/1
f 600/622/1 599/612/1 712/619/1
f 648/623/1 647/617/1 578/616/1
f 683/621/1 628/620/1 627/624/1
f 600/622/1 712/619/1 711/625/1
f 684/626/1 683/621/1 627/624/1
f 648/623/1 578/616/1 577/627/1
f 684/626/1 627/624/1 626/628/1
f 685/629/1 684/626/1 626/628/1
f 649/630/1 648/623/1 577/627/1
f 600/622/1 711/625/1 710/631/1
f 686/632/1 685/629/1 626/628/1
f 686/632/1 626/628/1 625/633/1
f 601/634/1 600/622/1 710/631/1
f 650/635/1 649/630/1 577/627/1
f 601/634/1 710/631/1 709/636/1
f 650/635/1 577/627/1 576/637/1
f 686/632/1 625/633/1 624/638/1
f 687/639/1 686/632/1 624/638/1
f 601/634/1 709/636/1 708/640/1
f 651/641/1 650/635/1 576/637/1
f 602/642/1 601/634/1 708/640/1
f 688/643/1 687/639/1 624/638/1
f 602/642/1 708/640/1 707/644/1
f 651/641/1 576/637/1 575/645/1
f 688/643/1 624/638/1 623/646/1
f 652/647/1 651/641/1 575/645/1
f 689/648/1 688/643/1 623/646/1
f 602/642/1 707/644/1 706/649/1
f 603/650/1 602/642/1 706/649/1
f 690/651/1 689/648/1 623/646/1
f 603/650/1 706/649/1 705/652/1
f 653/653/1 652/647/1 575/645/1
f 690/651/1 623/646/1 622/654/1
f 653/653/1 575/645/1 574/655/1
f 603/650/1 705/652/1 704/656/1
f 691/657/1 690/651/1 622/654/1
f 604/658/1 603/650/1 704/656/1
f 654/659/1 653/653/1 574/655/1
f 604/658/1 704/656/1 703/660/1
f 692/661/1 691/657/1 622/654/1
f 604/658/1 703/660/1 702/662/1
f 692/661/1 622/654/1 621/663/1
f 693/664/1 692/661/1 621/663/1
f 654/659/1 574/655/1 573/665/1
f 604/658/1 702/662/1 701/666/1
f 655/667/1 654/659/1 573/665/1
f 694/668/1 693/664/1 621/663/1
f 605/669/1 604/658/1 701/666/1
f 605/669/1 701/666/1 700/670/1
f 695/671/1 694/668/1 621/663/1
f 605/669/1 700/670/1 699/672/1
f 696/673/1 695/671/1 621/663/1
f 605/669/1 699/672/1 698/674/1
f 656/675/1 655/667/1 573/665/1
f 697/676/1 696/673/1 621/663/1
f 605/669/1 698/674/1 697/676/1
f 605/669/1 697/676/1 621/663/1
f 605/669/1 621/663/1 620/677/1
f 606/678/1 605/669/1 620/677/1
f 656/675/1 573/665/1 572/679/1
f 657/680/1 656/675/1 572/679/1
f 606/678/1 620/677/1 619/681/1
f 658/682/1 657/680/1 572/679/1
f 607/683/1 606/678/1 619/681/1
f 658/682/1 572/679/1 571/684/1
f 659/685/1 658/682/1 571/684/1
f 607/683/1 619/681/1 618/686/1
f 660/687/1 659/685/1 571/684/1
f 608/688/1 607/683/1 618/686/1
f 661/689/1 660/687/1 571/684/1
f 662/690/1 661/689/1 571/684/1
f 662/690/1 571/684/1 570/691/1
f 663/692/1 662/690/1 570/691/1
f 664/693/1 663/692/1 570/691/1
f 608/688/1 618/686/1 617/694/1
f 665/695/1 664/693/1 570/691/1
f 666/696/1 665/695/1 570/691/1
f 609/697/1 608/688/1 617/694/1
f 667/698/1 666/696/1 570/691/1
f 668/699/1 667/698/1 570/691/1
f 669/700/1 668/699/1 570/691/1
f 670/701/1 669/700/1 570/691/1
f 671/702/1 670/701/1 570/691/1
f 672/703/1 671/702/1 570/691/1
f 564/704/1 672/703/1 570/691/1
f 565/705/1 564/704/1 570/691/1
f 609/697/1 617/694/1 616/706/1
f 610/707/1 609/697/1 616/706/1
f 565/705/1 570/691/1 569/708/1
f 610/707/1 616/706/1 615/709/1
f 611/710/1 610/707/1 615/709/1
f 611/710/1 615/709/1 614/711/1
f 612/712/1 611/710/1 614/711/1
f 565/705/1 569/708/1 568/713/1
f 612/712/1 614/711/1 613/714/1
f 565/705/1 568/713/1 567/715/1
f 565/705/1 567/715/1 566/716/1
f 788/717/1 787/718/1 786/719/1
f 788/717/1 786/719/1 785/720/1
f 788/717/1 785/720/1 784/721/1
f 789/722/1 788/717/1 784/721/1
f 789/722/1 784/721/1 783/723/1
f 748/724/1 747/725/1 772/726/1
f 789/722/1 783/723/1 782/727/1
f 748/724/1 772/726/1 771/728/1
f 789/722/1 782/727/1 781/729/1
f 748/724/1 771/728/1 770/730/1
f 790/731/1 789/722/1 781/729/1
f 790/731/1 781/729/1 780/732/1
f 748/724/1 770/730/1 769/733/1
f 790/731/1 780/732/1 779/734/1
f 748/724/1 769/733/1 768/735/1
f 790/731/1 779/734/1 778/736/1
f 748/724/1 768/735/1 767/737/1
f 791/738/1 790/731/1 778/736/1
f 791/738/1 778/736/1 777/739/1
f 748/724/1 767/737/1 766/740/1
f 791/738/1 777/739/1 776/741/1
f 748/724/1 766/740/1 765/742/1
f 791/738/1 776/741/1 775/743/1
f 749/744/1 748/724/1 765/742/1
f 749/744/1 765/742/1 764/745/1
f 792/746/1 791/738/1 775/743/1
f 792/746/1 775/743/1 774/747/1
f 750/748/1 749/744/1 764/745/1
f 773/749/1 936/750/1 935/751/1
f 750/748/1 764/745/1 763/752/1
f 792/746/1 774/747/1 773/749/1
f 792/746/1 773/749/1 935/751/1
f 751/753/1 750/748/1 763/752/1
f 751/753/1 763/752/1 762/754/1
f 752/755/1 751/753/1 762/754/1
f 752/755/1 762/754/1 761/756/1
f 793/757/1 792/746/1 935/751/1
f 753/758/1 752/755/1 761/756/1
f 753/758/1 761/756/1 754/759/1
f 754/759/1 761/756/1 755/760/1
f 755/760/1 761/756/1 756/761/1
f 756/761/1 761/756/1 757/762/1
f 757/762/1 761/756/1 758/763/1
f 758/763/1 761/756/1 759/764/1
f 759/764/1 761/756/1 760/765/1
f 793/757/1 935/751/1 934/766/1
f 794/767/1 793/757/1 934/766/1
f 794/767/1 934/766/1 933/768/1
f 795/769/1 794/767/1 823/770/1
f 823/770/1 794/767/1 933/768/1
f 823/770/1 933/768/1 899/771/1
f 899/771/1 933/768/1 932/772/1
f 795/769/1 823/770/1 822/773/1
s 0
f 824/222/2 823/222/2 899/222/2
s 1
f 825/774/1 824/775/1 898/776/1
s 0
f 898/222/2 824/222/2 899/222/2
s 1
f 825/774/1 898/776/1 897/777/1
f 900/778/1 899/771/1 932/772/1
f 900/778/1 932/772/1 931/779/1
f 796/780/1 795/769/1 822/773/1
f 901/781/1 900/778/1 931/779/1
f 796/780/1 822/773/1 821/782/1
f 901/781/1 931/779/1 930/783/1
f 902/784/1 901/781/1 930/783/1
f 796/780/1 821/782/1 820/785/1
f 797/786/1 796/780/1 820/785/1
f 903/787/1 902/784/1 930/783/1
f 903/787/1 930/783/1 929/788/1
f 797/786/1 820/785/1 819/789/1
f 904/790/1 903/787/1 929/788/1
f 798/791/1 797/786/1 819/789/1
f 798/791/1 819/789/1 818/792/1
f 905/793/1 904/790/1 929/788/1
f 905/793/1 929/788/1 928/794/1
f 906/795/1 905/793/1 928/794/1
f 798/791/1 818/792/1 817/796/1
f 799/797/1 798/791/1 817/796/1
f 907/798/1 906/795/1 928/794/1
f 907/798/1 928/794/1 927/799/1
f 799/797/1 817/796/1 816/800/1
f 825/774/1 897/777/1 896/801/1
f 826/802/1 825/774/1 896/801/1
f 908/803/1 907/798/1 927/799/1
f 799/797/1 816/800/1 815/804/1
f 800/805/1 799/797/1 815/804/1
f 909/806/1 908/803/1 927/799/1
f 909/806/1 927/799/1 926/807/1
f 801/808/1 800/805/1 815/804/1
f 802/809/1 801/808/1 815/804/1
f 802/809/1 815/804/1 814/810/1
f 826/802/1 896/801/1 895/811/1
f 910/812/1 909/806/1 926/807/1
f 803/813/1 802/809/1 814/810/1
f 827/814/1 826/802/1 895/811/1
f 804/815/1 803/813/1 814/810/1
f 911/816/1 910/812/1 926/807/1
f 911/816/1 926/807/1 925/817/1
f 805/818/1 804/815/1 814/810/1
f 805/818/1 814/810/1 813/819/1
f 806/820/1 805/818/1 813/819/1
f 912/821/1 911/816/1 925/817/1
f 913/822/1 912/821/1 925/817/1
f 807/823/1 806/820/1 813/819/1
f 807/823/1 813/819/1 812/824/1
f 914/825/1 913/822/1 925/817/1
f 808/826/1 807/823/1 812/824/1
f 915/827/1 914/825/1 925/817/1
f 915/827/1 925/817/1 924/828/1
f 827/814/1 895/811/1 894/829/1
f 736/830/1 735/831/1 734/832/1
f 916/833/1 915/827/1 924/828/1
f 828/834/1 827/814/1 894/829/1
f 809/835/1 808/826/1 812/824/1
f 809/835/1 812/824/1 810/836/1
f 810/836/1 812/824/1 811/837/1
f 917/838/1 916/833/1 924/828/1
f 918/839/1 917/838/1 924/828/1
f 919/840/1 918/839/1 924/828/1
f 919/840/1 924/828/1 920/841/1
f 920/841/1 924/828/1 921/842/1
f 921/842/1 924/828/1 922/843/1
f 922/843/1 924/828/1 923/844/1
f 737/845/1 736/830/1 734/832/1
f 828/834/1 894/829/1 893/846/1
f 829/847/1 828/834/1 893/846/1
f 738/848/1 737/845/1 734/832/1
f 739/849/1 738/848/1 734/832/1
f 829/847/1 893/846/1 892/850/1
f 830/851/1 829/847/1 892/850/1
f 740/852/1 739/849/1 734/832/1
f 740/852/1 734/832/1 733/853/1
f 741/854/1 740/852/1 733/853/1
f 830/851/1 892/850/1 861/855/1
f 861/855/1 892/850/1 891/856/1
f 831/857/1 830/851/1 861/855/1
f 741/854/1 733/853/1 732/858/1
f 831/857/1 861/855/1 860/859/1
f 862/860/1 861/855/1 891/856/1
f 742/861/1 741/854/1 732/858/1
f 742/861/1 732/858/1 731/862/1
f 743/863/1 742/861/1 731/862/1
f 862/860/1 891/856/1 890/864/1
f 831/857/1 860/859/1 859/865/1
f 863/866/1 862/860/1 890/864/1
f 832/867/1 831/857/1 859/865/1
f 743/863/1 731/862/1 730/868/1
f 744/869/1 743/863/1 730/868/1
f 832/867/1 859/865/1 858/870/1
f 864/871/1 863/866/1 890/864/1
f 744/869/1 730/868/1 729/872/1
f 745/873/1 744/869/1 729/872/1
f 864/871/1 890/864/1 889/874/1
f 833/875/1 832/867/1 858/870/1
f 745/873/1 729/872/1 728/876/1
f 746/877/1 745/873/1 728/876/1
f 833/875/1 858/870/1 857/878/1
f 865/879/1 864/871/1 889/874/1
f 721/880/1 746/877/1 728/876/1
f 721/880/1 728/876/1 727/881/1
f 865/879/1 889/874/1 888/882/1
f 722/883/1 721/880/1 727/881/1
f 834/884/1 833/875/1 857/878/1
f 834/884/1 857/878/1 856/885/1
f 866/886/1 865/879/1 888/882/1
f 722/883/1 727/881/1 726/887/1
f 722/883/1 726/887/1 725/888/1
f 866/886/1 888/882/1 887/889/1
f 834/884/1 856/885/1 855/890/1
f 867/891/1 866/886/1 887/889/1
f 835/892/1 834/884/1 855/890/1
f 722/883/1 725/888/1 724/893/1
f 722/883/1 724/893/1 723/894/1
f 835/892/1 855/890/1 854/895/1
f 868/896/1 867/891/1 887/889/1
f 868/896/1 887/889/1 886/897/1
f 836/898/1 835/892/1 854/895/1
f 836/898/1 854/895/1 853/899/1
f 869/900/1 868/896/1 886/897/1
f 869/900/1 886/897/1 885/901/1
f 837/902/1 836/898/1 853/899/1
f 869/900/1 885/901/1 884/903/1
f 837/902/1 853/899/1 852/904/1
f 870/905/1 869/900/1 884/903/1
f 870/905/1 884/903/1 883/906/1
f 838/907/1 837/902/1 852/904/1
f 839/908/1 838/907/1 852/904/1
f 870/905/1 883/906/1 882/909/1
f 840/910/1 839/908/1 852/904/1
f 870/905/1 882/909/1 881/911/1
f 841/912/1 840/910/1 852/904/1
f 841/912/1 852/904/1 851/913/1
f 871/914/1 870/905/1 881/911/1
f 871/914/1 881/911/1 880/915/1
f 842/916/1 841/912/1 851/913/1
f 871/914/1 880/915/1 879/917/1
f 843/918/1 842/916/1 851/913/1
f 871/914/1 879/917/1 878/919/1
f 844/920/1 843/918/1 851/913/1
f 844/920/1 851/913/1 850/921/1
f 872/922/1 871/914/1 878/919/1
f 872/922/1 878/919/1 877/923/1
f 845/924/1 844/920/1 850/921/1
f 872/922/1 877/923/1 876/925/1
f 846/926/1 845/924/1 850/921/1
f 872/922/1 876/925/1 875/927/1
f 847/928/1 846/926/1 850/921/1
f 847/928/1 850/921/1 848/929/1
f 848/929/1 850/921/1 849/930/1
f 873/931/1 872/922/1 874/932/1
f 874/932/1 872/922/1 875/927/1
