# Blender 4.4.1
# www.blender.org
mtllib normal.mtl
o テキスト
v 1.065919 -0.000000 -0.012973
v 1.108696 0.000000 0.015428
v 1.115984 0.000000 0.008606
v 1.122937 0.000000 0.001472
v 1.129542 -0.000000 -0.005966
v 1.135785 -0.000000 -0.013701
v 1.141654 -0.000000 -0.021722
v 1.147134 -0.000000 -0.030023
v 1.152212 -0.000000 -0.038594
v 1.156875 -0.000000 -0.047426
v 1.161110 -0.000000 -0.056512
v 1.164902 -0.000000 -0.065842
v 1.168239 -0.000000 -0.075409
v 1.171108 -0.000000 -0.085203
v 1.173304 -0.000000 -0.094812
v 1.175174 -0.000000 -0.105770
v 1.176746 -0.000000 -0.117834
v 1.178043 -0.000000 -0.130759
v 1.179092 -0.000000 -0.144303
v 1.179918 -0.000000 -0.158222
v 1.180546 -0.000000 -0.172273
v 1.181004 -0.000000 -0.186211
v 1.181315 -0.000000 -0.199794
v 1.181505 -0.000000 -0.212778
v 1.181601 -0.000000 -0.224919
v 1.181627 -0.000000 -0.235975
v 1.181669 -0.000000 -0.239589
v 1.181785 -0.000000 -0.243208
v 1.181961 -0.000000 -0.246779
v 1.182186 -0.000000 -0.250247
v 1.182444 -0.000000 -0.253559
v 1.182723 -0.000000 -0.256662
v 1.183009 -0.000000 -0.259502
v 1.183289 -0.000000 -0.262025
v 1.183550 -0.000000 -0.264179
v 1.183778 -0.000000 -0.265908
v 1.183959 -0.000000 -0.267161
v 1.184081 -0.000000 -0.267882
v 1.132539 -0.000000 -0.267882
v 1.133043 -0.000000 -0.265674
v 1.133503 -0.000000 -0.263423
v 1.133919 -0.000000 -0.261116
v 1.134292 -0.000000 -0.258740
v 1.134620 -0.000000 -0.256281
v 1.134905 -0.000000 -0.253725
v 1.135146 -0.000000 -0.251061
v 1.135344 -0.000000 -0.248273
v 1.135497 -0.000000 -0.245349
v 1.135607 -0.000000 -0.242275
v 1.135672 -0.000000 -0.239038
v 1.135694 -0.000000 -0.235624
v 1.135682 -0.000000 -0.224555
v 1.135623 -0.000000 -0.212702
v 1.135486 -0.000000 -0.200271
v 1.135240 -0.000000 -0.187471
v 1.134852 -0.000000 -0.174510
v 1.134292 -0.000000 -0.161597
v 1.133527 -0.000000 -0.148940
v 1.132526 -0.000000 -0.136746
v 1.131257 -0.000000 -0.125225
v 1.129688 -0.000000 -0.114583
v 1.127788 -0.000000 -0.105030
v 1.125526 -0.000000 -0.096774
v 1.122880 -0.000000 -0.089280
v 1.119844 -0.000000 -0.081728
v 1.116410 -0.000000 -0.074164
v 1.112566 -0.000000 -0.066633
v 1.108303 -0.000000 -0.059180
v 1.103611 -0.000000 -0.051850
v 1.098482 -0.000000 -0.044687
v 1.092904 -0.000000 -0.037738
v 1.086869 -0.000000 -0.031047
v 1.080366 -0.000000 -0.024659
v 1.073386 -0.000000 -0.018620
v 1.228261 -0.000000 -0.007714
v 1.257363 0.000000 0.016480
v 1.258256 0.000000 0.015764
v 1.259188 0.000000 0.015019
v 1.260168 0.000000 0.014244
v 1.261207 0.000000 0.013441
v 1.262314 0.000000 0.012608
v 1.263499 0.000000 0.011746
v 1.264772 0.000000 0.010855
v 1.266142 0.000000 0.009935
v 1.267619 0.000000 0.008985
v 1.269213 0.000000 0.008006
v 1.270934 0.000000 0.006998
v 1.272791 0.000000 0.005961
v 1.282824 0.000000 0.000602
v 1.293211 -0.000000 -0.005440
v 1.303838 -0.000000 -0.012102
v 1.314594 -0.000000 -0.019324
v 1.325364 -0.000000 -0.027042
v 1.336036 -0.000000 -0.035195
v 1.346496 -0.000000 -0.043720
v 1.356631 -0.000000 -0.052556
v 1.366327 -0.000000 -0.061640
v 1.375472 -0.000000 -0.070910
v 1.383953 -0.000000 -0.080305
v 1.391655 -0.000000 -0.089762
v 1.364656 -0.000000 -0.128331
v 1.358560 -0.000000 -0.119965
v 1.352056 -0.000000 -0.111894
v 1.345207 -0.000000 -0.104148
v 1.338073 -0.000000 -0.096761
v 1.330715 -0.000000 -0.089764
v 1.323194 -0.000000 -0.083187
v 1.315571 -0.000000 -0.077064
v 1.307906 -0.000000 -0.071425
v 1.300261 -0.000000 -0.066302
v 1.292696 -0.000000 -0.061727
v 1.285272 -0.000000 -0.057732
v 1.278051 -0.000000 -0.054348
v 1.278051 -0.000000 -0.061913
v 1.278051 -0.000000 -0.073410
v 1.278051 -0.000000 -0.088080
v 1.278051 -0.000000 -0.105163
v 1.278051 -0.000000 -0.123903
v 1.278051 -0.000000 -0.143540
v 1.278051 -0.000000 -0.163315
v 1.278051 -0.000000 -0.182471
v 1.278051 -0.000000 -0.200249
v 1.278051 -0.000000 -0.215890
v 1.278051 -0.000000 -0.228636
v 1.278051 -0.000000 -0.237728
v 1.278092 -0.000000 -0.241616
v 1.278208 -0.000000 -0.245369
v 1.278385 -0.000000 -0.248954
v 1.278609 -0.000000 -0.252338
v 1.278867 -0.000000 -0.255488
v 1.279146 -0.000000 -0.258371
v 1.279433 -0.000000 -0.260955
v 1.279713 -0.000000 -0.263207
v 1.279974 -0.000000 -0.265094
v 1.280201 -0.000000 -0.266582
v 1.280383 -0.000000 -0.267639
v 1.280505 -0.000000 -0.268233
v 1.228261 -0.000000 -0.268233
v 1.228390 -0.000000 -0.267646
v 1.228590 -0.000000 -0.266608
v 1.228847 -0.000000 -0.265148
v 1.229144 -0.000000 -0.263298
v 1.229465 -0.000000 -0.261087
v 1.229795 -0.000000 -0.258547
v 1.230117 -0.000000 -0.255706
v 1.230417 -0.000000 -0.252597
v 1.230677 -0.000000 -0.249249
v 1.230883 -0.000000 -0.245693
v 1.231017 -0.000000 -0.241960
v 1.231066 -0.000000 -0.238079
v 1.231066 -0.000000 -0.228445
v 1.231066 -0.000000 -0.214365
v 1.231066 -0.000000 -0.196770
v 1.231066 -0.000000 -0.176588
v 1.231066 -0.000000 -0.154751
v 1.231066 -0.000000 -0.132188
v 1.231066 -0.000000 -0.109830
v 1.231066 -0.000000 -0.088606
v 1.231066 -0.000000 -0.069447
v 1.231066 -0.000000 -0.053283
v 1.231066 -0.000000 -0.041044
v 1.231066 -0.000000 -0.033661
v 1.231038 -0.000000 -0.031289
v 1.230956 -0.000000 -0.028914
v 1.230825 -0.000000 -0.026549
v 1.230650 -0.000000 -0.024207
v 1.230437 -0.000000 -0.021898
v 1.230189 -0.000000 -0.019635
v 1.229913 -0.000000 -0.017431
v 1.229611 -0.000000 -0.015298
v 1.229291 -0.000000 -0.013247
v 1.228956 -0.000000 -0.011292
v 1.228611 -0.000000 -0.009443
v 0.917251 0.000000 0.022791
v 0.958275 -0.000000 -0.009818
v 0.954715 -0.000000 -0.014064
v 0.950889 -0.000000 -0.018541
v 0.946825 -0.000000 -0.023218
v 0.942548 -0.000000 -0.028063
v 0.938087 -0.000000 -0.033045
v 0.933468 -0.000000 -0.038131
v 0.928717 -0.000000 -0.043290
v 0.923861 -0.000000 -0.048491
v 0.918927 -0.000000 -0.053701
v 0.913943 -0.000000 -0.058890
v 0.908934 -0.000000 -0.064025
v 0.903927 -0.000000 -0.069074
v 0.916183 -0.000000 -0.079385
v 0.928197 -0.000000 -0.090260
v 0.939916 -0.000000 -0.101590
v 0.951288 -0.000000 -0.113267
v 0.962261 -0.000000 -0.125182
v 0.972782 -0.000000 -0.137228
v 0.982799 -0.000000 -0.149296
v 0.992260 -0.000000 -0.161277
v 1.001112 -0.000000 -0.173064
v 1.009303 -0.000000 -0.184547
v 1.016781 -0.000000 -0.195619
v 1.023492 -0.000000 -0.206171
v 1.024222 -0.000000 -0.207311
v 1.025008 -0.000000 -0.208455
v 1.025848 -0.000000 -0.209606
v 1.026739 -0.000000 -0.210768
v 1.027678 -0.000000 -0.211945
v 1.028664 -0.000000 -0.213140
v 1.029694 -0.000000 -0.214357
v 1.030765 -0.000000 -0.215599
v 1.031875 -0.000000 -0.216871
v 1.033021 -0.000000 -0.218175
v 1.034202 -0.000000 -0.219516
v 1.035414 -0.000000 -0.220898
v 1.000351 -0.000000 -0.249649
v 0.998417 -0.000000 -0.249058
v 0.996304 -0.000000 -0.248511
v 0.994023 -0.000000 -0.248011
v 0.991585 -0.000000 -0.247559
v 0.989001 -0.000000 -0.247155
v 0.986282 -0.000000 -0.246800
v 0.983438 -0.000000 -0.246498
v 0.980482 -0.000000 -0.246247
v 0.977423 -0.000000 -0.246050
v 0.974272 -0.000000 -0.245908
v 0.971042 -0.000000 -0.245821
v 0.967742 -0.000000 -0.245792
v 0.956380 -0.000000 -0.245792
v 0.941712 -0.000000 -0.245792
v 0.924466 -0.000000 -0.245792
v 0.905369 -0.000000 -0.245792
v 0.885146 -0.000000 -0.245792
v 0.864525 -0.000000 -0.245792
v 0.844233 -0.000000 -0.245792
v 0.824996 -0.000000 -0.245792
v 0.807542 -0.000000 -0.245792
v 0.792597 -0.000000 -0.245792
v 0.780888 -0.000000 -0.245792
v 0.773142 -0.000000 -0.245792
v 0.770018 -0.000000 -0.245828
v 0.766648 -0.000000 -0.245929
v 0.763094 -0.000000 -0.246088
v 0.759415 -0.000000 -0.246299
v 0.755673 -0.000000 -0.246553
v 0.751928 -0.000000 -0.246844
v 0.748242 -0.000000 -0.247165
v 0.744676 -0.000000 -0.247507
v 0.741289 -0.000000 -0.247863
v 0.738143 -0.000000 -0.248227
v 0.735300 -0.000000 -0.248591
v 0.732819 -0.000000 -0.248948
v 0.732819 -0.000000 -0.199860
v 0.734891 -0.000000 -0.200055
v 0.737389 -0.000000 -0.200285
v 0.740254 -0.000000 -0.200539
v 0.743429 -0.000000 -0.200808
v 0.746858 -0.000000 -0.201081
v 0.750482 -0.000000 -0.201350
v 0.754246 -0.000000 -0.201604
v 0.758090 -0.000000 -0.201834
v 0.761960 -0.000000 -0.202029
v 0.765796 -0.000000 -0.202181
v 0.769543 -0.000000 -0.202279
v 0.773142 -0.000000 -0.202314
v 0.781800 -0.000000 -0.202314
v 0.793991 -0.000000 -0.202314
v 0.809027 -0.000000 -0.202314
v 0.826217 -0.000000 -0.202314
v 0.844873 -0.000000 -0.202314
v 0.864306 -0.000000 -0.202314
v 0.883826 -0.000000 -0.202314
v 0.902745 -0.000000 -0.202314
v 0.920374 -0.000000 -0.202314
v 0.936023 -0.000000 -0.202314
v 0.949003 -0.000000 -0.202314
v 0.958626 -0.000000 -0.202314
v 0.954168 -0.000000 -0.194890
v 0.949058 -0.000000 -0.187042
v 0.943329 -0.000000 -0.178844
v 0.937016 -0.000000 -0.170368
v 0.930153 -0.000000 -0.161687
v 0.922774 -0.000000 -0.152875
v 0.914912 -0.000000 -0.144005
v 0.906602 -0.000000 -0.135149
v 0.897879 -0.000000 -0.126381
v 0.888775 -0.000000 -0.117773
v 0.879326 -0.000000 -0.109399
v 0.869565 -0.000000 -0.101332
v 0.864027 -0.000000 -0.106142
v 0.858480 -0.000000 -0.110908
v 0.852960 -0.000000 -0.115604
v 0.847501 -0.000000 -0.120202
v 0.842141 -0.000000 -0.124672
v 0.836913 -0.000000 -0.128988
v 0.831853 -0.000000 -0.133122
v 0.826996 -0.000000 -0.137045
v 0.822378 -0.000000 -0.140729
v 0.818034 -0.000000 -0.144147
v 0.813999 -0.000000 -0.147270
v 0.810309 -0.000000 -0.150070
v 0.773142 -0.000000 -0.120266
v 0.778691 -0.000000 -0.116170
v 0.784748 -0.000000 -0.111481
v 0.791210 -0.000000 -0.106296
v 0.797972 -0.000000 -0.100709
v 0.804928 -0.000000 -0.094815
v 0.811974 -0.000000 -0.088710
v 0.819006 -0.000000 -0.082487
v 0.825918 -0.000000 -0.076243
v 0.832607 -0.000000 -0.070071
v 0.838966 -0.000000 -0.064068
v 0.844892 -0.000000 -0.058328
v 0.850281 -0.000000 -0.052945
v 0.856105 -0.000000 -0.046895
v 0.862132 -0.000000 -0.040542
v 0.868289 -0.000000 -0.033962
v 0.874500 -0.000000 -0.027232
v 0.880692 -0.000000 -0.020430
v 0.886790 -0.000000 -0.013631
v 0.892720 -0.000000 -0.006912
v 0.898408 -0.000000 -0.000351
v 0.903779 0.000000 0.005977
v 0.908760 0.000000 0.011995
v 0.913275 0.000000 0.017625
v 0.382889 -0.000000 -0.162342
v 0.382889 -0.000000 -0.107293
v 0.386344 -0.000000 -0.107475
v 0.390188 -0.000000 -0.107666
v 0.394372 -0.000000 -0.107863
v 0.398849 -0.000000 -0.108059
v 0.403570 -0.000000 -0.108251
v 0.408485 -0.000000 -0.108433
v 0.413547 -0.000000 -0.108600
v 0.418706 -0.000000 -0.108748
v 0.423913 -0.000000 -0.108871
v 0.429121 -0.000000 -0.108965
v 0.434279 -0.000000 -0.109025
v 0.439341 -0.000000 -0.109046
v 0.451061 -0.000000 -0.109046
v 0.465341 -0.000000 -0.109046
v 0.481630 -0.000000 -0.109046
v 0.499377 -0.000000 -0.109046
v 0.518029 -0.000000 -0.109046
v 0.537035 -0.000000 -0.109046
v 0.555845 -0.000000 -0.109046
v 0.573905 -0.000000 -0.109046
v 0.590666 -0.000000 -0.109046
v 0.605574 -0.000000 -0.109046
v 0.618079 -0.000000 -0.109046
v 0.627630 -0.000000 -0.109046
v 0.631370 -0.000000 -0.109018
v 0.635198 -0.000000 -0.108941
v 0.639069 -0.000000 -0.108822
v 0.642941 -0.000000 -0.108670
v 0.646768 -0.000000 -0.108493
v 0.650509 -0.000000 -0.108301
v 0.654117 -0.000000 -0.108102
v 0.657550 -0.000000 -0.107903
v 0.660765 -0.000000 -0.107715
v 0.663716 -0.000000 -0.107545
v 0.666360 -0.000000 -0.107401
v 0.668654 -0.000000 -0.107293
v 0.668654 -0.000000 -0.162342
v 0.666246 -0.000000 -0.162154
v 0.663594 -0.000000 -0.161943
v 0.660715 -0.000000 -0.161718
v 0.657628 -0.000000 -0.161485
v 0.654351 -0.000000 -0.161253
v 0.650903 -0.000000 -0.161027
v 0.647301 -0.000000 -0.160817
v 0.643564 -0.000000 -0.160628
v 0.639710 -0.000000 -0.160469
v 0.635757 -0.000000 -0.160346
v 0.631725 -0.000000 -0.160266
v 0.627630 -0.000000 -0.160238
v 0.618086 -0.000000 -0.160238
v 0.605598 -0.000000 -0.160238
v 0.590715 -0.000000 -0.160238
v 0.573983 -0.000000 -0.160238
v 0.555951 -0.000000 -0.160238
v 0.537167 -0.000000 -0.160238
v 0.518178 -0.000000 -0.160238
v 0.499532 -0.000000 -0.160238
v 0.481778 -0.000000 -0.160238
v 0.465463 -0.000000 -0.160238
v 0.451134 -0.000000 -0.160238
v 0.439341 -0.000000 -0.160238
v 0.434641 -0.000000 -0.160260
v 0.429705 -0.000000 -0.160321
v 0.424603 -0.000000 -0.160419
v 0.419407 -0.000000 -0.160550
v 0.414186 -0.000000 -0.160710
v 0.409011 -0.000000 -0.160896
v 0.403953 -0.000000 -0.161103
v 0.399083 -0.000000 -0.161329
v 0.394471 -0.000000 -0.161570
v 0.390188 -0.000000 -0.161821
v 0.386303 -0.000000 -0.162080
v 0.038219 -0.000000 -0.028050
v 0.078191 0.000000 0.012973
v 0.091579 0.000000 0.007116
v 0.104714 0.000000 0.000474
v 0.117544 -0.000000 -0.006859
v 0.130019 -0.000000 -0.014791
v 0.142091 -0.000000 -0.023230
v 0.153708 -0.000000 -0.032083
v 0.164821 -0.000000 -0.041257
v 0.175380 -0.000000 -0.050660
v 0.185336 -0.000000 -0.060199
v 0.194638 -0.000000 -0.069782
v 0.203236 -0.000000 -0.079316
v 0.211080 -0.000000 -0.088710
v 0.218062 -0.000000 -0.097911
v 0.224802 -0.000000 -0.107738
v 0.231291 -0.000000 -0.118086
v 0.237520 -0.000000 -0.128850
v 0.243482 -0.000000 -0.139927
v 0.249167 -0.000000 -0.151210
v 0.254568 -0.000000 -0.162595
v 0.259675 -0.000000 -0.173978
v 0.264480 -0.000000 -0.185254
v 0.268975 -0.000000 -0.196318
v 0.273150 -0.000000 -0.207065
v 0.276999 -0.000000 -0.217391
v 0.278066 -0.000000 -0.220280
v 0.279164 -0.000000 -0.223320
v 0.280297 -0.000000 -0.226486
v 0.281466 -0.000000 -0.229754
v 0.282674 -0.000000 -0.233101
v 0.283924 -0.000000 -0.236501
v 0.285217 -0.000000 -0.239930
v 0.286557 -0.000000 -0.243364
v 0.287945 -0.000000 -0.246779
v 0.289384 -0.000000 -0.250149
v 0.290877 -0.000000 -0.253452
v 0.292426 -0.000000 -0.256662
v 0.237728 -0.000000 -0.270687
v 0.235078 -0.000000 -0.257951
v 0.231869 -0.000000 -0.244882
v 0.228113 -0.000000 -0.231586
v 0.223820 -0.000000 -0.218170
v 0.219000 -0.000000 -0.204740
v 0.213666 -0.000000 -0.191401
v 0.207827 -0.000000 -0.178259
v 0.201496 -0.000000 -0.165420
v 0.194682 -0.000000 -0.152990
v 0.187398 -0.000000 -0.141075
v 0.179653 -0.000000 -0.129782
v 0.171459 -0.000000 -0.119215
v 0.163326 -0.000000 -0.109821
v 0.154552 -0.000000 -0.100604
v 0.145167 -0.000000 -0.091608
v 0.135201 -0.000000 -0.082879
v 0.124684 -0.000000 -0.074461
v 0.113648 -0.000000 -0.066401
v 0.102123 -0.000000 -0.058742
v 0.090138 -0.000000 -0.051530
v 0.077725 -0.000000 -0.044810
v 0.064914 -0.000000 -0.038626
v 0.051735 -0.000000 -0.033025
vn -0.0000 1.0000 -0.0000
vt 0.471294 0.491671
vt 0.561477 0.492687
vt 0.471071 0.492687
vt 0.561266 0.491659
vt 0.471640 0.489875
vt 0.560951 0.489830
vt 0.472085 0.487349
vt 0.560558 0.487255
vt 0.472599 0.484147
vt 0.560107 0.483990
vt 0.473154 0.480321
vt 0.559622 0.480093
vt 0.473725 0.475926
vt 0.559125 0.475621
vt 0.474282 0.471009
vt 0.558643 0.470632
vt 0.474802 0.465629
vt 0.558196 0.465181
vt 0.475251 0.459836
vt 0.557809 0.459325
vt 0.475608 0.453682
vt 0.557502 0.453122
vt 0.475840 0.447222
vt 0.557302 0.446627
vt 0.475925 0.440506
vt 0.557231 0.439899
vt 0.475925 0.423835
vt 0.557231 0.424166
vt 0.557231 0.402109
vt 0.475925 0.399470
vt 0.557231 0.375043
vt 0.475925 0.369023
vt 0.557231 0.344279
vt 0.475925 0.334098
vt 0.557231 0.311130
vt 0.475925 0.296310
vt 0.557231 0.276910
vt 0.475925 0.257265
vt 0.557231 0.242928
vt 0.475925 0.218576
vt 0.696549 0.236114
vt 0.753819 0.183849
vt 0.707098 0.250591
vt 0.557231 0.210499
vt 0.685294 0.222147
vt 0.673442 0.208743
vt 0.475925 0.181848
vt 0.557231 0.180938
vt 0.661097 0.195960
vt 0.648364 0.183852
vt 0.635349 0.172471
vt 0.740491 0.167483
vt 0.475925 0.148694
vt 0.557231 0.155552
vt 0.622158 0.161875
vt 0.725815 0.151226
vt 0.608894 0.152117
vt 0.557231 0.135657
vt 0.595664 0.143252
vt 0.709990 0.135184
vt 0.475925 0.120723
vt 0.582573 0.135335
vt 0.557231 0.122566
vt 0.569726 0.128422
vt 0.693211 0.119465
vt 0.475925 0.099544
vt 0.675673 0.104174
vt 0.657572 0.089422
vt 0.475925 0.086767
vt 0.639104 0.075313
vt 0.475876 0.082663
vt 0.475734 0.078553
vt 0.475507 0.074460
vt 0.620467 0.061958
vt 0.475205 0.070408
vt 0.474836 0.066412
vt 0.474407 0.062496
vt 0.473929 0.058682
vt 0.601854 0.049460
vt 0.473407 0.054991
vt 0.472853 0.051442
vt 0.472273 0.048059
vt 0.583465 0.037932
vt 0.471676 0.044859
vt 0.471071 0.041867
vt 0.521431 0.000000
vt 0.522976 0.001239
vt 0.524589 0.002528
vt 0.526285 0.003869
vt 0.528083 0.005259
vt 0.529998 0.006700
vt 0.532049 0.008192
vt 0.534252 0.009734
vt 0.536623 0.011326
vt 0.539178 0.012970
vt 0.541937 0.014664
vt 0.544915 0.016408
vt 0.548128 0.018203
vt 0.565490 0.027476
vt 0.472881 0.973971
vt 0.557364 1.000000
vt 0.471071 0.977448
vt 0.557475 0.998740
vt 0.557721 0.996563
vt 0.558095 0.993568
vt 0.474636 0.970404
vt 0.558601 0.989848
vt 0.476342 0.966724
vt 0.559236 0.985501
vt 0.478006 0.962909
vt 0.560000 0.980621
vt 0.479631 0.958935
vt 0.560890 0.975304
vt 0.481226 0.954781
vt 0.482796 0.950426
vt 0.561908 0.969646
vt 0.484347 0.945845
vt 0.563049 0.963741
vt 0.485882 0.941016
vt 0.564316 0.957685
vt 0.487412 0.935918
vt 0.565706 0.951576
vt 0.488937 0.930527
vt 0.567217 0.945507
vt 0.490468 0.924821
vt 0.572011 0.926985
vt 0.495291 0.906283
vt 0.577162 0.906616
vt 0.500378 0.886413
vt 0.582525 0.884794
vt 0.505588 0.865540
vt 0.510777 0.844002
vt 0.587948 0.861917
vt 0.515799 0.822133
vt 0.593280 0.838381
vt 0.520511 0.800268
vt 0.598377 0.814582
vt 0.524769 0.778743
vt 0.603084 0.790917
vt 0.528428 0.757889
vt 0.607254 0.767782
vt 0.531345 0.738045
vt 0.610738 0.745575
vt 0.533375 0.719541
vt 0.613385 0.724689
vt 0.534373 0.702716
vt 0.615049 0.705525
vt 0.534199 0.687904
vt 0.533048 0.674199
vt 0.615577 0.688476
vt 0.531269 0.660227
vt 0.615059 0.670823
vt 0.528830 0.646061
vt 0.613658 0.653346
vt 0.525689 0.631770
vt 0.521813 0.617426
vt 0.611392 0.636066
vt 0.517165 0.603101
vt 0.608277 0.619001
vt 0.511712 0.588865
vt 0.604335 0.602173
vt 0.505414 0.574790
vt 0.599583 0.585602
vt 0.498237 0.560947
vt 0.490145 0.547406
vt 0.594041 0.569306
vt 0.481101 0.534241
vt 0.587724 0.553309
vt 0.471071 0.521520
vt 0.580656 0.537627
vt 0.555116 0.492687
vt 0.572853 0.522284
vt 0.564333 0.507298
vt 0.001014 0.459831
vt 0.049912 0.523725
vt -0.000000 0.463180
vt 0.001951 0.456172
vt 0.084945 0.000000
vt 0.000629 0.004514
vt -0.000000 0.000223
vt 0.001272 0.009433
vt 0.002806 0.452222
vt 0.001916 0.014875
vt 0.003577 0.448002
vt 0.002547 0.020734
vt 0.004264 0.443528
vt 0.003155 0.026904
vt 0.003728 0.033281
vt 0.004866 0.438821
vt 0.004248 0.039760
vt 0.005376 0.433899
vt 0.004705 0.046234
vt 0.005797 0.428782
vt 0.005086 0.052600
vt 0.006124 0.423488
vt 0.005378 0.058749
vt 0.006355 0.418035
vt 0.005568 0.064580
vt 0.006491 0.412445
vt 0.005644 0.069986
vt 0.006527 0.406734
vt 0.005679 0.083390
vt 0.005732 0.103652
vt 0.005800 0.129514
vt 0.005879 0.159717
vt 0.005967 0.193006
vt 0.006059 0.228121
vt 0.006152 0.263805
vt 0.006244 0.298800
vt 0.006330 0.331847
vt 0.006409 0.361690
vt 0.006475 0.387073
vt 0.084617 0.003587
vt 0.084230 0.007910
vt 0.083804 0.012869
vt 0.083353 0.018365
vt 0.082896 0.024300
vt 0.082447 0.030572
vt 0.082024 0.037087
vt 0.052298 0.521621
vt 0.081644 0.043740
vt 0.054613 0.519572
vt 0.056864 0.517583
vt 0.081324 0.050437
vt 0.059060 0.515656
vt 0.061205 0.513797
vt 0.063306 0.512009
vt 0.081078 0.057076
vt 0.065369 0.510298
vt 0.067402 0.508667
vt 0.069409 0.507120
vt 0.080925 0.063561
vt 0.071397 0.505661
vt 0.073373 0.504296
vt 0.075342 0.503028
vt 0.080881 0.069789
vt 0.080976 0.105867
vt 0.081044 0.131886
vt 0.081122 0.161633
vt 0.081295 0.227545
vt 0.081383 0.261323
vt 0.081469 0.294062
vt 0.081549 0.324568
vt 0.081620 0.351648
vt 0.081679 0.374110
vt 0.081722 0.390762
vt 0.093571 0.491367
vt 0.000000 0.523725
vt 0.094549 0.383014
vt 0.112697 0.478376
vt 0.108107 0.374136
vt 0.122267 0.364185
vt 0.132531 0.464150
vt 0.136906 0.353222
vt 0.152888 0.448778
vt 0.151897 0.341306
vt 0.167112 0.328497
vt 0.173578 0.432352
vt 0.182426 0.314852
vt 0.222862 0.069417
vt 0.176318 0.140241
vt 0.171456 0.133868
vt 0.194415 0.414963
vt 0.181741 0.147209
vt 0.187675 0.154711
vt 0.197713 0.300432
vt 0.194071 0.162685
vt 0.215213 0.396703
vt 0.200882 0.171072
vt 0.212846 0.285297
vt 0.208058 0.179810
vt 0.215551 0.188837
vt 0.227701 0.269504
vt 0.235782 0.377660
vt 0.223310 0.198092
vt 0.229975 0.079000
vt 0.231292 0.207518
vt 0.242149 0.253115
vt 0.238117 0.089461
vt 0.239443 0.217049
vt 0.255937 0.357928
vt 0.247119 0.100619
vt 0.247715 0.226626
vt 0.256064 0.236187
vt 0.256818 0.112295
vt 0.275490 0.337598
vt 0.267048 0.124306
vt 0.277645 0.136471
vt 0.294254 0.316759
vt 0.288445 0.148611
vt 0.299282 0.160544
vt 0.312041 0.295503
vt 0.309993 0.172091
vt 0.320409 0.183068
vt 0.320801 0.304145
vt 0.330369 0.193297
vt 0.329710 0.312789
vt 0.338712 0.321391
vt 0.339709 0.202598
vt 0.347750 0.329905
vt 0.350204 0.212649
vt 0.356772 0.338285
vt 0.361225 0.223049
vt 0.365721 0.346483
vt 0.372640 0.233674
vt 0.374543 0.354452
vt 0.384314 0.244391
vt 0.383184 0.362149
vt 0.391588 0.369529
vt 0.396112 0.255075
vt 0.399700 0.376540
vt 0.407906 0.265597
vt 0.407464 0.383141
vt 0.414828 0.389282
vt 0.419559 0.275828
vt 0.430939 0.285641
vt 0.441913 0.294907
vt 0.452350 0.303499
vt 0.462113 0.311286
vt 0.471071 0.318143
vt 0.615577 0.987195
vt 0.710384 0.981287
vt 0.710838 0.987195
vt 0.710512 0.496854
vt 0.615577 0.492687
vt 0.710838 0.492687
vt 0.710147 0.501443
vt 0.709936 0.974564
vt 0.709758 0.506425
vt 0.709502 0.967152
vt 0.709355 0.511767
vt 0.709085 0.959171
vt 0.708953 0.517438
vt 0.708694 0.950744
vt 0.708562 0.523405
vt 0.708335 0.941991
vt 0.708199 0.529638
vt 0.708013 0.933036
vt 0.707872 0.536105
vt 0.707737 0.924001
vt 0.707596 0.542774
vt 0.707510 0.915010
vt 0.707384 0.549614
vt 0.707340 0.906181
vt 0.707245 0.556592
vt 0.707235 0.897639
vt 0.707197 0.563678
vt 0.707197 0.889506
vt 0.707197 0.869099
vt 0.707197 0.844303
vt 0.707197 0.816070
vt 0.707197 0.785347
vt 0.707197 0.753081
vt 0.707197 0.720221
vt 0.707197 0.687716
vt 0.707197 0.656512
vt 0.707197 0.627558
vt 0.707197 0.601804
vt 0.707197 0.580194
vt 0.615892 0.981216
vt 0.616222 0.974564
vt 0.616563 0.967324
vt 0.616903 0.959576
vt 0.617235 0.951407
vt 0.617550 0.942901
vt 0.617839 0.934142
vt 0.618095 0.925214
vt 0.618308 0.916204
vt 0.618470 0.907192
vt 0.618574 0.898266
vt 0.618611 0.889506
vt 0.618611 0.869225
vt 0.618611 0.816326
vt 0.618611 0.785616
vt 0.618611 0.753339
vt 0.618611 0.720450
vt 0.618611 0.687900
vt 0.618611 0.656647
vt 0.618611 0.627643
vt 0.618611 0.580206
vt 0.618611 0.563678
vt 0.618562 0.557206
vt 0.618429 0.550582
vt 0.618223 0.543883
vt 0.617960 0.537183
vt 0.617654 0.530560
vt 0.617321 0.524086
vt 0.616977 0.517843
vt 0.616633 0.511902
vt 0.616307 0.506339
vt 0.616013 0.501232
vt 0.615764 0.496657
vt 0.764274 0.534555
vt 0.842345 0.595860
vt 0.753819 0.554491
vt 0.774349 0.513559
vt 0.843802 0.589867
vt 0.845437 0.583812
vt 0.847217 0.577726
vt 0.849115 0.571636
vt 0.783941 0.491659
vt 0.851098 0.565573
vt 0.853139 0.559568
vt 0.855205 0.553650
vt 0.857268 0.547849
vt 0.792948 0.469009
vt 0.859298 0.542196
vt 0.861263 0.536719
vt 0.863136 0.531448
vt 0.864885 0.526414
vt 0.801266 0.445760
vt 0.871089 0.508382
vt 0.877320 0.489428
vt 0.808796 0.422069
vt 0.883472 0.469700
vt 0.815435 0.398085
vt 0.889443 0.449347
vt 0.821084 0.373966
vt 0.895127 0.428519
vt 0.825637 0.349863
vt 0.900420 0.407365
vt 0.828997 0.325931
vt 0.905222 0.386036
vt 0.831056 0.302324
vt 0.909427 0.364677
vt 0.831717 0.279194
vt 0.912932 0.343444
vt 0.831171 0.257699
vt 0.915631 0.322480
vt 0.829573 0.235736
vt 0.917423 0.301938
vt 0.826916 0.213397
vt 0.918203 0.281966
vt 0.823189 0.190777
vt 0.918043 0.260788
vt 0.818383 0.167966
vt 0.917029 0.238595
vt 0.812490 0.145064
vt 0.915128 0.215563
vt 0.805503 0.122160
vt 0.912304 0.191870
vt 0.797410 0.099348
vt 0.788204 0.076723
vt 0.908525 0.167697
vt 0.777877 0.054377
vt 0.903753 0.143221
vt 0.766417 0.032406
vt 0.753819 0.010902
vt 0.897956 0.118620
vt 0.852333 0.000000
vt 0.891095 0.094072
vt 0.883138 0.069759
vt 0.874048 0.045857
vt 0.863791 0.022543
s 1
usemtl マテリアル.001
f 139/1/1 137/2/1 138/3/1
f 139/1/1 136/4/1 137/2/1
f 140/5/1 136/4/1 139/1/1
f 140/5/1 135/6/1 136/4/1
f 141/7/1 135/6/1 140/5/1
f 141/7/1 134/8/1 135/6/1
f 142/9/1 134/8/1 141/7/1
f 142/9/1 133/10/1 134/8/1
f 143/11/1 133/10/1 142/9/1
f 143/11/1 132/12/1 133/10/1
f 144/13/1 132/12/1 143/11/1
f 144/13/1 131/14/1 132/12/1
f 145/15/1 131/14/1 144/13/1
f 145/15/1 130/16/1 131/14/1
f 146/17/1 130/16/1 145/15/1
f 146/17/1 129/18/1 130/16/1
f 147/19/1 129/18/1 146/17/1
f 147/19/1 128/20/1 129/18/1
f 148/21/1 128/20/1 147/19/1
f 148/21/1 127/22/1 128/20/1
f 149/23/1 127/22/1 148/21/1
f 149/23/1 126/24/1 127/22/1
f 150/25/1 126/24/1 149/23/1
f 150/25/1 125/26/1 126/24/1
f 151/27/1 125/26/1 150/25/1
f 151/27/1 124/28/1 125/26/1
f 151/27/1 123/29/1 124/28/1
f 152/30/1 123/29/1 151/27/1
f 152/30/1 122/31/1 123/29/1
f 153/32/1 122/31/1 152/30/1
f 153/32/1 121/33/1 122/31/1
f 154/34/1 121/33/1 153/32/1
f 154/34/1 120/35/1 121/33/1
f 155/36/1 120/35/1 154/34/1
f 155/36/1 119/37/1 120/35/1
f 156/38/1 119/37/1 155/36/1
f 156/38/1 118/39/1 119/37/1
f 157/40/1 118/39/1 156/38/1
f 102/41/1 100/42/1 101/43/1
f 157/40/1 117/44/1 118/39/1
f 103/45/1 100/42/1 102/41/1
f 104/46/1 100/42/1 103/45/1
f 158/47/1 117/44/1 157/40/1
f 158/47/1 116/48/1 117/44/1
f 105/49/1 100/42/1 104/46/1
f 106/50/1 100/42/1 105/49/1
f 107/51/1 100/42/1 106/50/1
f 107/51/1 99/52/1 100/42/1
f 159/53/1 116/48/1 158/47/1
f 159/53/1 115/54/1 116/48/1
f 108/55/1 99/52/1 107/51/1
f 108/55/1 98/56/1 99/52/1
f 109/57/1 98/56/1 108/55/1
f 159/53/1 114/58/1 115/54/1
f 110/59/1 98/56/1 109/57/1
f 110/59/1 97/60/1 98/56/1
f 160/61/1 114/58/1 159/53/1
f 111/62/1 97/60/1 110/59/1
f 160/61/1 113/63/1 114/58/1
f 112/64/1 97/60/1 111/62/1
f 112/64/1 96/65/1 97/60/1
f 113/63/1 96/65/1 112/64/1
f 160/61/1 96/65/1 113/63/1
f 161/66/1 96/65/1 160/61/1
f 161/66/1 95/67/1 96/65/1
f 161/66/1 94/68/1 95/67/1
f 162/69/1 94/68/1 161/66/1
f 162/69/1 93/70/1 94/68/1
f 163/71/1 93/70/1 162/69/1
f 164/72/1 93/70/1 163/71/1
f 165/73/1 93/70/1 164/72/1
f 165/73/1 92/74/1 93/70/1
f 166/75/1 92/74/1 165/73/1
f 167/76/1 92/74/1 166/75/1
f 168/77/1 92/74/1 167/76/1
f 169/78/1 92/74/1 168/77/1
f 169/78/1 91/79/1 92/74/1
f 170/80/1 91/79/1 169/78/1
f 171/81/1 91/79/1 170/80/1
f 172/82/1 91/79/1 171/81/1
f 172/82/1 90/83/1 91/79/1
f 173/84/1 90/83/1 172/82/1
f 75/85/1 90/83/1 173/84/1
f 76/86/1 77/87/1 75/85/1
f 77/87/1 78/88/1 75/85/1
f 78/88/1 79/89/1 75/85/1
f 79/89/1 80/90/1 75/85/1
f 80/90/1 81/91/1 75/85/1
f 81/91/1 82/92/1 75/85/1
f 82/92/1 83/93/1 75/85/1
f 83/93/1 84/94/1 75/85/1
f 84/94/1 85/95/1 75/85/1
f 85/95/1 86/96/1 75/85/1
f 86/96/1 87/97/1 75/85/1
f 87/97/1 88/98/1 75/85/1
f 88/98/1 90/83/1 75/85/1
f 88/98/1 89/99/1 90/83/1
f 40/100/1 38/101/1 39/102/1
f 40/100/1 37/103/1 38/101/1
f 40/100/1 36/104/1 37/103/1
f 40/100/1 35/105/1 36/104/1
f 41/106/1 35/105/1 40/100/1
f 41/106/1 34/107/1 35/105/1
f 42/108/1 34/107/1 41/106/1
f 42/108/1 33/109/1 34/107/1
f 43/110/1 33/109/1 42/108/1
f 43/110/1 32/111/1 33/109/1
f 44/112/1 32/111/1 43/110/1
f 44/112/1 31/113/1 32/111/1
f 45/114/1 31/113/1 44/112/1
f 46/115/1 31/113/1 45/114/1
f 46/115/1 30/116/1 31/113/1
f 47/117/1 30/116/1 46/115/1
f 47/117/1 29/118/1 30/116/1
f 48/119/1 29/118/1 47/117/1
f 48/119/1 28/120/1 29/118/1
f 49/121/1 28/120/1 48/119/1
f 49/121/1 27/122/1 28/120/1
f 50/123/1 27/122/1 49/121/1
f 50/123/1 26/124/1 27/122/1
f 51/125/1 26/124/1 50/123/1
f 51/125/1 25/126/1 26/124/1
f 52/127/1 25/126/1 51/125/1
f 52/127/1 24/128/1 25/126/1
f 53/129/1 24/128/1 52/127/1
f 53/129/1 23/130/1 24/128/1
f 54/131/1 23/130/1 53/129/1
f 55/132/1 23/130/1 54/131/1
f 55/132/1 22/133/1 23/130/1
f 56/134/1 22/133/1 55/132/1
f 56/134/1 21/135/1 22/133/1
f 57/136/1 21/135/1 56/134/1
f 57/136/1 20/137/1 21/135/1
f 58/138/1 20/137/1 57/136/1
f 58/138/1 19/139/1 20/137/1
f 59/140/1 19/139/1 58/138/1
f 59/140/1 18/141/1 19/139/1
f 60/142/1 18/141/1 59/140/1
f 60/142/1 17/143/1 18/141/1
f 61/144/1 17/143/1 60/142/1
f 61/144/1 16/145/1 17/143/1
f 62/146/1 16/145/1 61/144/1
f 62/146/1 15/147/1 16/145/1
f 63/148/1 15/147/1 62/146/1
f 64/149/1 15/147/1 63/148/1
f 64/149/1 14/150/1 15/147/1
f 65/151/1 14/150/1 64/149/1
f 65/151/1 13/152/1 14/150/1
f 66/153/1 13/152/1 65/151/1
f 66/153/1 12/154/1 13/152/1
f 67/155/1 12/154/1 66/153/1
f 68/156/1 12/154/1 67/155/1
f 68/156/1 11/157/1 12/154/1
f 69/158/1 11/157/1 68/156/1
f 69/158/1 10/159/1 11/157/1
f 70/160/1 10/159/1 69/158/1
f 70/160/1 9/161/1 10/159/1
f 71/162/1 9/161/1 70/160/1
f 71/162/1 8/163/1 9/161/1
f 72/164/1 8/163/1 71/162/1
f 73/165/1 8/163/1 72/164/1
f 73/165/1 7/166/1 8/163/1
f 74/167/1 7/166/1 73/165/1
f 74/167/1 6/168/1 7/166/1
f 1/169/1 6/168/1 74/167/1
f 1/169/1 5/170/1 6/168/1
f 2/171/1 5/170/1 1/169/1
f 2/171/1 4/172/1 5/170/1
f 2/171/1 3/173/1 4/172/1
f 213/174/1 211/175/1 212/176/1
f 214/177/1 211/175/1 213/174/1
f 249/178/1 247/179/1 248/180/1
f 249/178/1 246/181/1 247/179/1
f 215/182/1 211/175/1 214/177/1
f 249/178/1 245/183/1 246/181/1
f 216/184/1 211/175/1 215/182/1
f 249/178/1 244/185/1 245/183/1
f 217/186/1 211/175/1 216/184/1
f 249/178/1 243/187/1 244/185/1
f 249/178/1 242/188/1 243/187/1
f 218/189/1 211/175/1 217/186/1
f 249/178/1 241/190/1 242/188/1
f 219/191/1 211/175/1 218/189/1
f 249/178/1 240/192/1 241/190/1
f 220/193/1 211/175/1 219/191/1
f 249/178/1 239/194/1 240/192/1
f 221/195/1 211/175/1 220/193/1
f 249/178/1 238/196/1 239/194/1
f 222/197/1 211/175/1 221/195/1
f 249/178/1 237/198/1 238/196/1
f 223/199/1 211/175/1 222/197/1
f 249/178/1 236/200/1 237/198/1
f 224/201/1 211/175/1 223/199/1
f 249/178/1 235/202/1 236/200/1
f 249/178/1 234/203/1 235/202/1
f 249/178/1 233/204/1 234/203/1
f 249/178/1 232/205/1 233/204/1
f 249/178/1 231/206/1 232/205/1
f 249/178/1 230/207/1 231/206/1
f 249/178/1 229/208/1 230/207/1
f 249/178/1 228/209/1 229/208/1
f 249/178/1 227/210/1 228/209/1
f 249/178/1 226/211/1 227/210/1
f 249/178/1 225/212/1 226/211/1
f 249/178/1 224/201/1 225/212/1
f 249/178/1 250/213/1 224/201/1
f 250/213/1 251/214/1 224/201/1
f 251/214/1 252/215/1 224/201/1
f 252/215/1 253/216/1 224/201/1
f 253/216/1 254/217/1 224/201/1
f 254/217/1 255/218/1 224/201/1
f 255/218/1 211/175/1 224/201/1
f 255/218/1 256/219/1 211/175/1
f 256/219/1 210/220/1 211/175/1
f 256/219/1 257/221/1 210/220/1
f 257/221/1 209/222/1 210/220/1
f 257/221/1 208/223/1 209/222/1
f 257/221/1 258/224/1 208/223/1
f 258/224/1 207/225/1 208/223/1
f 258/224/1 206/226/1 207/225/1
f 258/224/1 205/227/1 206/226/1
f 258/224/1 259/228/1 205/227/1
f 259/228/1 204/229/1 205/227/1
f 259/228/1 203/230/1 204/229/1
f 259/228/1 202/231/1 203/230/1
f 259/228/1 260/232/1 202/231/1
f 260/232/1 201/233/1 202/231/1
f 260/232/1 200/234/1 201/233/1
f 260/232/1 199/235/1 200/234/1
f 260/232/1 261/236/1 199/235/1
f 261/236/1 263/237/1 199/235/1
f 263/237/1 264/238/1 199/235/1
f 264/238/1 265/239/1 199/235/1
f 265/239/1 267/240/1 199/235/1
f 267/240/1 268/241/1 199/235/1
f 268/241/1 269/242/1 199/235/1
f 269/242/1 270/243/1 199/235/1
f 270/243/1 271/244/1 199/235/1
f 271/244/1 272/245/1 199/235/1
f 272/245/1 273/246/1 199/235/1
f 273/246/1 198/247/1 199/235/1
s 0
f 262/248/1 263/248/1 261/248/1
f 266/248/1 267/248/1 265/248/1
s 1
f 274/249/1 198/247/1 273/246/1
f 274/249/1 197/250/1 198/247/1
f 275/251/1 197/250/1 274/249/1
f 276/252/1 197/250/1 275/251/1
f 276/252/1 196/253/1 197/250/1
f 277/254/1 196/253/1 276/252/1
f 277/254/1 195/255/1 196/253/1
f 278/256/1 195/255/1 277/254/1
f 279/257/1 195/255/1 278/256/1
f 279/257/1 194/258/1 195/255/1
f 280/259/1 194/258/1 279/257/1
f 298/260/1 296/261/1 297/262/1
f 280/259/1 193/263/1 194/258/1
f 298/260/1 295/264/1 296/261/1
f 298/260/1 294/265/1 295/264/1
f 281/266/1 193/263/1 280/259/1
f 298/260/1 293/267/1 294/265/1
f 281/266/1 192/268/1 193/263/1
f 298/260/1 292/269/1 293/267/1
f 282/270/1 192/268/1 281/266/1
f 298/260/1 291/271/1 292/269/1
f 298/260/1 290/272/1 291/271/1
f 283/273/1 192/268/1 282/270/1
f 283/273/1 191/274/1 192/268/1
f 298/260/1 289/275/1 290/272/1
f 299/276/1 289/275/1 298/260/1
f 299/276/1 288/277/1 289/275/1
f 284/278/1 191/274/1 283/273/1
f 300/279/1 288/277/1 299/276/1
f 300/279/1 287/280/1 288/277/1
f 284/278/1 190/281/1 191/274/1
f 301/282/1 287/280/1 300/279/1
f 301/282/1 286/283/1 287/280/1
f 285/284/1 190/281/1 284/278/1
f 302/285/1 286/283/1 301/282/1
f 302/285/1 285/284/1 286/283/1
f 285/284/1 189/286/1 190/281/1
f 302/285/1 189/286/1 285/284/1
f 303/287/1 189/286/1 302/285/1
f 304/288/1 189/286/1 303/287/1
f 304/288/1 188/289/1 189/286/1
f 305/290/1 188/289/1 304/288/1
f 306/291/1 188/289/1 305/290/1
f 306/291/1 187/292/1 188/289/1
f 307/293/1 187/292/1 306/291/1
f 308/294/1 187/292/1 307/293/1
f 308/294/1 186/295/1 187/292/1
f 309/296/1 186/295/1 308/294/1
f 309/296/1 185/297/1 186/295/1
f 309/296/1 184/298/1 185/297/1
f 310/299/1 184/298/1 309/296/1
f 310/299/1 183/300/1 184/298/1
f 311/301/1 183/300/1 310/299/1
f 311/301/1 182/302/1 183/300/1
f 312/303/1 182/302/1 311/301/1
f 312/303/1 181/304/1 182/302/1
f 313/305/1 181/304/1 312/303/1
f 313/305/1 180/306/1 181/304/1
f 314/307/1 180/306/1 313/305/1
f 314/307/1 179/308/1 180/306/1
f 314/307/1 178/309/1 179/308/1
f 315/310/1 178/309/1 314/307/1
f 315/310/1 177/311/1 178/309/1
f 316/312/1 177/311/1 315/310/1
f 316/312/1 176/313/1 177/311/1
f 316/312/1 175/314/1 176/313/1
f 317/315/1 175/314/1 316/312/1
f 317/315/1 318/316/1 175/314/1
f 318/316/1 319/317/1 175/314/1
f 319/317/1 320/318/1 175/314/1
f 320/318/1 321/319/1 175/314/1
f 321/319/1 174/320/1 175/314/1
f 323/321/1 395/322/1 322/323/1
f 361/324/1 359/325/1 360/326/1
f 362/327/1 359/325/1 361/324/1
f 323/321/1 394/328/1 395/322/1
f 363/329/1 359/325/1 362/327/1
f 323/321/1 393/330/1 394/328/1
f 364/331/1 359/325/1 363/329/1
f 323/321/1 392/332/1 393/330/1
f 365/333/1 359/325/1 364/331/1
f 323/321/1 391/334/1 392/332/1
f 366/335/1 359/325/1 365/333/1
f 323/321/1 390/336/1 391/334/1
f 367/337/1 359/325/1 366/335/1
f 323/321/1 389/338/1 390/336/1
f 368/339/1 359/325/1 367/337/1
f 323/321/1 388/340/1 389/338/1
f 369/341/1 359/325/1 368/339/1
f 323/321/1 387/342/1 388/340/1
f 370/343/1 359/325/1 369/341/1
f 323/321/1 386/344/1 387/342/1
f 371/345/1 359/325/1 370/343/1
f 323/321/1 385/346/1 386/344/1
f 372/347/1 359/325/1 371/345/1
f 323/321/1 384/348/1 385/346/1
f 323/321/1 383/349/1 384/348/1
f 323/321/1 382/350/1 383/349/1
f 323/321/1 381/351/1 382/350/1
f 323/321/1 380/352/1 381/351/1
f 323/321/1 379/353/1 380/352/1
f 323/321/1 378/354/1 379/353/1
f 323/321/1 377/355/1 378/354/1
f 323/321/1 376/356/1 377/355/1
f 323/321/1 375/357/1 376/356/1
f 323/321/1 374/358/1 375/357/1
f 323/321/1 373/359/1 374/358/1
f 323/321/1 372/347/1 373/359/1
f 323/321/1 324/360/1 372/347/1
f 324/360/1 325/361/1 372/347/1
f 325/361/1 326/362/1 372/347/1
f 326/362/1 327/363/1 372/347/1
f 327/363/1 328/364/1 372/347/1
f 328/364/1 329/365/1 372/347/1
f 329/365/1 330/366/1 372/347/1
f 330/366/1 331/367/1 372/347/1
f 331/367/1 332/368/1 372/347/1
f 332/368/1 333/369/1 372/347/1
f 333/369/1 334/370/1 372/347/1
f 334/370/1 335/371/1 372/347/1
f 335/371/1 336/372/1 372/347/1
f 336/372/1 338/373/1 372/347/1
f 338/373/1 339/374/1 372/347/1
f 339/374/1 340/375/1 372/347/1
f 340/375/1 341/376/1 372/347/1
f 341/376/1 342/377/1 372/347/1
f 342/377/1 343/378/1 372/347/1
f 343/378/1 344/379/1 372/347/1
f 344/379/1 346/380/1 372/347/1
f 346/380/1 347/381/1 372/347/1
f 347/381/1 348/382/1 372/347/1
f 348/382/1 349/383/1 372/347/1
f 349/383/1 350/384/1 372/347/1
f 350/384/1 351/385/1 372/347/1
f 351/385/1 352/386/1 372/347/1
f 352/386/1 353/387/1 372/347/1
f 353/387/1 354/388/1 372/347/1
f 354/388/1 359/325/1 372/347/1
s 0
f 337/248/1 338/248/1 336/248/1
f 345/248/1 346/248/1 344/248/1
s 1
f 355/389/1 359/325/1 354/388/1
f 356/390/1 359/325/1 355/389/1
f 357/391/1 359/325/1 356/390/1
f 358/392/1 359/325/1 357/391/1
f 435/393/1 433/394/1 434/395/1
f 436/396/1 433/394/1 435/393/1
f 436/396/1 432/397/1 433/394/1
f 436/396/1 431/398/1 432/397/1
f 436/396/1 430/399/1 431/398/1
f 436/396/1 429/400/1 430/399/1
f 437/401/1 429/400/1 436/396/1
f 437/401/1 428/402/1 429/400/1
f 437/401/1 427/403/1 428/402/1
f 437/401/1 426/404/1 427/403/1
f 437/401/1 425/405/1 426/404/1
f 438/406/1 425/405/1 437/401/1
f 438/406/1 424/407/1 425/405/1
f 438/406/1 423/408/1 424/407/1
f 438/406/1 422/409/1 423/408/1
f 438/406/1 421/410/1 422/409/1
f 439/411/1 421/410/1 438/406/1
f 439/411/1 420/412/1 421/410/1
f 439/411/1 419/413/1 420/412/1
f 440/414/1 419/413/1 439/411/1
f 440/414/1 418/415/1 419/413/1
f 441/416/1 418/415/1 440/414/1
f 441/416/1 417/417/1 418/415/1
f 442/418/1 417/417/1 441/416/1
f 442/418/1 416/419/1 417/417/1
f 443/420/1 416/419/1 442/418/1
f 443/420/1 415/421/1 416/419/1
f 444/422/1 415/421/1 443/420/1
f 444/422/1 414/423/1 415/421/1
f 445/424/1 414/423/1 444/422/1
f 445/424/1 413/425/1 414/423/1
f 446/426/1 413/425/1 445/424/1
f 446/426/1 412/427/1 413/425/1
f 447/428/1 412/427/1 446/426/1
f 447/428/1 411/429/1 412/427/1
f 448/430/1 411/429/1 447/428/1
f 448/430/1 410/431/1 411/429/1
f 449/432/1 410/431/1 448/430/1
f 449/432/1 409/433/1 410/431/1
f 450/434/1 409/433/1 449/432/1
f 450/434/1 408/435/1 409/433/1
f 451/436/1 408/435/1 450/434/1
f 451/436/1 407/437/1 408/435/1
f 452/438/1 407/437/1 451/436/1
f 452/438/1 406/439/1 407/437/1
f 453/440/1 406/439/1 452/438/1
f 453/440/1 405/441/1 406/439/1
f 454/442/1 405/441/1 453/440/1
f 455/443/1 405/441/1 454/442/1
f 455/443/1 404/444/1 405/441/1
f 456/445/1 404/444/1 455/443/1
f 456/445/1 403/446/1 404/444/1
f 457/447/1 403/446/1 456/445/1
f 396/448/1 403/446/1 457/447/1
f 396/448/1 402/449/1 403/446/1
f 397/450/1 402/449/1 396/448/1
f 397/450/1 401/451/1 402/449/1
f 397/450/1 400/452/1 401/451/1
f 397/450/1 399/453/1 400/452/1
f 397/450/1 398/454/1 399/453/1
