# Blender 4.4.1
# www.blender.org
mtllib s.mtl
o テキスト.002
v -0.675183 -0.238935 0.000000
v -0.221022 -0.210486 0.000000
v -0.218352 -0.228558 0.000000
v -0.215256 -0.245901 0.000000
v -0.211737 -0.262512 0.000000
v -0.207792 -0.278391 0.000000
v -0.203424 -0.293541 0.000000
v -0.198630 -0.307956 0.000000
v -0.193413 -0.321639 0.000000
v -0.187770 -0.334593 0.000000
v -0.181704 -0.346812 0.000000
v -0.175215 -0.358302 0.000000
v -0.168297 -0.369057 0.000000
v -0.160959 -0.379083 0.000000
v -0.148227 -0.394062 0.000000
v -0.134616 -0.407739 0.000000
v -0.120126 -0.420114 0.000000
v -0.104760 -0.431184 0.000000
v -0.088515 -0.440955 0.000000
v -0.071391 -0.449421 0.000000
v -0.053391 -0.456585 0.000000
v -0.034509 -0.462447 0.000000
v -0.014751 -0.467004 0.000000
v 0.005883 -0.470262 0.000000
v 0.027396 -0.472215 0.000000
v 0.049788 -0.472866 0.000000
v 0.066498 -0.472533 0.000000
v 0.082557 -0.471534 0.000000
v 0.097965 -0.469869 0.000000
v 0.112722 -0.467538 0.000000
v 0.126825 -0.464541 0.000000
v 0.140280 -0.460881 0.000000
v 0.153081 -0.456552 0.000000
v 0.165231 -0.451557 0.000000
v 0.176733 -0.445896 0.000000
v 0.187581 -0.439572 0.000000
v 0.197778 -0.432579 0.000000
v 0.207324 -0.424920 0.000000
v 0.216159 -0.416823 0.000000
v 0.224226 -0.408516 0.000000
v 0.231528 -0.399993 0.000000
v 0.238059 -0.391260 0.000000
v 0.243819 -0.382314 0.000000
v 0.248814 -0.373155 0.000000
v 0.253041 -0.363786 0.000000
v 0.256497 -0.354204 0.000000
v 0.259188 -0.344409 0.000000
v 0.261108 -0.334401 0.000000
v 0.262260 -0.324183 0.000000
v 0.262644 -0.313752 0.000000
v 0.262278 -0.303828 0.000000
v 0.261180 -0.294081 0.000000
v 0.259353 -0.284511 0.000000
v 0.256791 -0.275115 0.000000
v 0.253497 -0.265893 0.000000
v 0.249474 -0.256848 0.000000
v 0.244716 -0.247980 0.000000
v 0.239229 -0.239286 0.000000
v 0.233007 -0.230769 0.000000
v 0.226056 -0.222426 0.000000
v 0.218373 -0.214260 0.000000
v 0.209958 -0.206271 0.000000
v 0.200211 -0.198402 0.000000
v 0.188532 -0.190611 0.000000
v 0.174921 -0.182889 0.000000
v 0.159378 -0.175242 0.000000
v 0.141903 -0.167670 0.000000
v 0.122496 -0.160170 0.000000
v 0.101160 -0.152742 0.000000
v 0.077889 -0.145386 0.000000
v 0.052686 -0.138105 0.000000
v 0.025554 -0.130899 0.000000
v -0.003513 -0.123762 0.000000
v -0.034509 -0.116703 0.000000
v -0.085593 -0.104613 0.000000
v -0.134175 -0.091881 0.000000
v -0.180255 -0.078504 0.000000
v -0.223833 -0.064482 0.000000
v -0.264906 -0.049818 0.000000
v -0.303477 -0.034509 0.000000
v -0.339546 -0.018558 0.000000
v -0.373113 -0.001962 0.000000
v -0.404175 0.015279 0.000000
v -0.432735 0.033165 0.000000
v -0.458793 0.051693 0.000000
v -0.482349 0.070863 0.000000
v -0.503892 0.090804 0.000000
v -0.523563 0.111639 0.000000
v -0.541359 0.133365 0.000000
v -0.557283 0.155982 0.000000
v -0.571332 0.179496 0.000000
v -0.583509 0.203898 0.000000
v -0.593811 0.229197 0.000000
v -0.602241 0.255387 0.000000
v -0.608799 0.282468 0.000000
v -0.613482 0.310443 0.000000
v -0.616293 0.339312 0.000000
v -0.617229 0.369072 0.000000
v -0.616749 0.388827 0.000000
v -0.615312 0.408399 0.000000
v -0.612915 0.427785 0.000000
v -0.609561 0.446991 0.000000
v -0.605247 0.466014 0.000000
v -0.599973 0.484854 0.000000
v -0.593742 0.503508 0.000000
v -0.586554 0.521982 0.000000
v -0.578406 0.540273 0.000000
v -0.569298 0.558381 0.000000
v -0.559233 0.576306 0.000000
v -0.548208 0.594045 0.000000
v -0.536223 0.611382 0.000000
v -0.523269 0.628089 0.000000
v -0.509352 0.644166 0.000000
v -0.494469 0.659613 0.000000
v -0.478617 0.674430 0.000000
v -0.461802 0.688620 0.000000
v -0.444021 0.702180 0.000000
v -0.425271 0.715110 0.000000
v -0.405558 0.727410 0.000000
v -0.384879 0.739083 0.000000
v -0.363234 0.750123 0.000000
v -0.340623 0.760539 0.000000
v -0.316815 0.770214 0.000000
v -0.291579 0.779052 0.000000
v -0.264918 0.787047 0.000000
v -0.236829 0.794199 0.000000
v -0.207312 0.800511 0.000000
v -0.176370 0.805980 0.000000
v -0.144000 0.810609 0.000000
v -0.110205 0.814395 0.000000
v -0.074979 0.817341 0.000000
v -0.038331 0.819444 0.000000
v -0.000252 0.820707 0.000000
v 0.039252 0.821127 0.000000
v 0.087624 0.820362 0.000000
v 0.134046 0.818070 0.000000
v 0.178509 0.814245 0.000000
v 0.221022 0.808893 0.000000
v 0.261579 0.802011 0.000000
v 0.300183 0.793599 0.000000
v 0.336834 0.783657 0.000000
v 0.371532 0.772188 0.000000
v 0.404274 0.759189 0.000000
v 0.435063 0.744660 0.000000
v 0.463899 0.728601 0.000000
v 0.490779 0.711012 0.000000
v 0.515811 0.691755 0.000000
v 0.539091 0.670692 0.000000
v 0.560622 0.647820 0.000000
v 0.580407 0.623142 0.000000
v 0.598440 0.596655 0.000000
v 0.614727 0.568362 0.000000
v 0.629262 0.538260 0.000000
v 0.642051 0.506352 0.000000
v 0.653088 0.472635 0.000000
v 0.662379 0.437112 0.000000
v 0.669918 0.399780 0.000000
v 0.675711 0.360642 0.000000
v 0.225765 0.334299 0.000000
v 0.222504 0.351291 0.000000
v 0.218694 0.367491 0.000000
v 0.214338 0.382902 0.000000
v 0.209430 0.397524 0.000000
v 0.203976 0.411354 0.000000
v 0.197973 0.424395 0.000000
v 0.191418 0.436644 0.000000
v 0.184317 0.448104 0.000000
v 0.176667 0.458772 0.000000
v 0.168468 0.468651 0.000000
v 0.159717 0.477741 0.000000
v 0.150423 0.486039 0.000000
v 0.140547 0.493611 0.000000
v 0.130065 0.500526 0.000000
v 0.118974 0.506784 0.000000
v 0.107277 0.512382 0.000000
v 0.094971 0.517320 0.000000
v 0.082059 0.521601 0.000000
v 0.068541 0.525225 0.000000
v 0.054414 0.528189 0.000000
v 0.039681 0.530493 0.000000
v 0.024339 0.532140 0.000000
v 0.008391 0.533127 0.000000
v -0.008166 0.533457 0.000000
v -0.021756 0.533211 0.000000
v -0.034773 0.532476 0.000000
v -0.047220 0.531249 0.000000
v -0.059097 0.529533 0.000000
v -0.070404 0.527328 0.000000
v -0.081138 0.524631 0.000000
v -0.091302 0.521445 0.000000
v -0.100896 0.517767 0.000000
v -0.109917 0.513600 0.000000
v -0.118371 0.508941 0.000000
v -0.126252 0.503793 0.000000
v -0.133563 0.498156 0.000000
v -0.140295 0.492168 0.000000
v -0.146442 0.485964 0.000000
v -0.152001 0.479550 0.000000
v -0.156978 0.472926 0.000000
v -0.161370 0.466086 0.000000
v -0.165174 0.459036 0.000000
v -0.168393 0.451773 0.000000
v -0.171027 0.444297 0.000000
v -0.173076 0.436611 0.000000
v -0.174540 0.428712 0.000000
v -0.175419 0.420600 0.000000
v -0.175710 0.412275 0.000000
v -0.175470 0.406182 0.000000
v -0.174744 0.400188 0.000000
v -0.173538 0.394296 0.000000
v -0.171849 0.388509 0.000000
v -0.169674 0.382824 0.000000
v -0.167019 0.377238 0.000000
v -0.163878 0.371757 0.000000
v -0.160257 0.366381 0.000000
v -0.156150 0.361104 0.000000
v -0.151563 0.355929 0.000000
v -0.146493 0.350859 0.000000
v -0.140937 0.345891 0.000000
v -0.134673 0.340827 0.000000
v -0.127122 0.335820 0.000000
v -0.118281 0.330876 0.000000
v -0.108156 0.325986 0.000000
v -0.096738 0.321156 0.000000
v -0.084036 0.316386 0.000000
v -0.070044 0.311673 0.000000
v -0.054765 0.307020 0.000000
v -0.038199 0.302424 0.000000
v -0.020343 0.297888 0.000000
v -0.001200 0.293409 0.000000
v 0.019230 0.288987 0.000000
v 0.070158 0.277737 0.000000
v 0.118620 0.266466 0.000000
v 0.164613 0.255171 0.000000
v 0.208143 0.243852 0.000000
v 0.249207 0.232515 0.000000
v 0.287802 0.221154 0.000000
v 0.323934 0.209772 0.000000
v 0.357600 0.198366 0.000000
v 0.388797 0.186939 0.000000
v 0.417531 0.175491 0.000000
v 0.443796 0.164022 0.000000
v 0.467598 0.152529 0.000000
v 0.489654 0.140796 0.000000
v 0.510684 0.128601 0.000000
v 0.530691 0.115944 0.000000
v 0.549672 0.102828 0.000000
v 0.567630 0.089250 0.000000
v 0.584562 0.075210 0.000000
v 0.600471 0.060711 0.000000
v 0.615354 0.045750 0.000000
v 0.629214 0.030327 0.000000
v 0.642051 0.014445 0.000000
v 0.653862 -0.001899 0.000000
v 0.664647 -0.018705 0.000000
v 0.674493 -0.035907 0.000000
v 0.683484 -0.053448 0.000000
v 0.691617 -0.071325 0.000000
v 0.698895 -0.089538 0.000000
v 0.705315 -0.108090 0.000000
v 0.710880 -0.126975 0.000000
v 0.715590 -0.146199 0.000000
v 0.719442 -0.165759 0.000000
v 0.722439 -0.185655 0.000000
v 0.724578 -0.205890 0.000000
v 0.725862 -0.226458 0.000000
v 0.726291 -0.247365 0.000000
v 0.725721 -0.271968 0.000000
v 0.724008 -0.296247 0.000000
v 0.721155 -0.320205 0.000000
v 0.717159 -0.343842 0.000000
v 0.712023 -0.367155 0.000000
v 0.705744 -0.390147 0.000000
v 0.698322 -0.412818 0.000000
v 0.689760 -0.435165 0.000000
v 0.680058 -0.457191 0.000000
v 0.669213 -0.478896 0.000000
v 0.657228 -0.500277 0.000000
v 0.644100 -0.521337 0.000000
v 0.629946 -0.541818 0.000000
v 0.614886 -0.561453 0.000000
v 0.598920 -0.580248 0.000000
v 0.582045 -0.598203 0.000000
v 0.564264 -0.615315 0.000000
v 0.545574 -0.631587 0.000000
v 0.525978 -0.647016 0.000000
v 0.505473 -0.661602 0.000000
v 0.484062 -0.675348 0.000000
v 0.461742 -0.688254 0.000000
v 0.438516 -0.700317 0.000000
v 0.414384 -0.711537 0.000000
v 0.389262 -0.721890 0.000000
v 0.363072 -0.731340 0.000000
v 0.335814 -0.739890 0.000000
v 0.307488 -0.747540 0.000000
v 0.278091 -0.754293 -0.000000
v 0.247629 -0.760143 -0.000000
v 0.216096 -0.765093 -0.000000
v 0.183498 -0.769143 -0.000000
v 0.149829 -0.772293 -0.000000
v 0.115092 -0.774543 -0.000000
v 0.079287 -0.775893 -0.000000
v 0.042414 -0.776343 -0.000000
v -0.021588 -0.775290 -0.000000
v -0.082221 -0.772128 -0.000000
v -0.139488 -0.766860 -0.000000
v -0.193392 -0.759483 -0.000000
v -0.243927 -0.750000 0.000000
v -0.291096 -0.738408 0.000000
v -0.334899 -0.724710 0.000000
v -0.375336 -0.708903 0.000000
v -0.412407 -0.690990 0.000000
v -0.446112 -0.670968 0.000000
v -0.476451 -0.648840 0.000000
v -0.503424 -0.624606 0.000000
v -0.527799 -0.598743 0.000000
v -0.550344 -0.571743 0.000000
v -0.571062 -0.543600 0.000000
v -0.589947 -0.514314 0.000000
v -0.607005 -0.483888 0.000000
v -0.622233 -0.452319 0.000000
v -0.635634 -0.419607 0.000000
v -0.647202 -0.385758 0.000000
v -0.656943 -0.350763 0.000000
v -0.664851 -0.314628 0.000000
v -0.670932 -0.277353 0.000000
vn -0.0000 -0.0000 -1.0000
vt 0.412023 0.999346
vt 0.436749 1.000000
vt 0.467037 1.000000
vt 0.388198 0.998178
vt 0.496121 0.999025
vt 0.365276 0.996499
vt 0.523993 0.997070
vt 0.343254 0.994306
vt 0.322135 0.991601
vt 0.550659 0.994141
vt 0.301917 0.988383
vt 0.576117 0.990234
vt 0.282601 0.984653
vt 0.600366 0.985350
vt 0.264186 0.980410
vt 0.246673 0.975654
vt 0.623409 0.979490
vt 0.230062 0.970386
vt 0.645243 0.972653
vt 0.214351 0.964603
vt 0.665869 0.964840
vt 0.199543 0.958311
vt 0.185491 0.951566
vt 0.685287 0.956050
vt 0.172051 0.944441
vt 0.703498 0.946282
vt 0.159221 0.936929
vt 0.720499 0.935537
vt 0.147002 0.929034
vt 0.135393 0.920754
vt 0.736360 0.923730
vt 0.124396 0.912089
vt 0.751142 0.910775
vt 0.114010 0.903040
vt 0.104233 0.893607
vt 0.764847 0.896670
vt 0.095069 0.883790
vt 0.777477 0.881417
vt 0.086516 0.873588
vt 0.078572 0.863001
vt 0.789028 0.865014
vt 0.071241 0.852029
vt 0.799504 0.847464
vt 0.064515 0.840815
vt 0.058392 0.829494
vt 0.808901 0.828764
vt 0.052869 0.818068
vt 0.047950 0.806537
vt 0.401407 0.819158
vt 0.409912 0.819447
vt 0.420280 0.819404
vt 0.817223 0.808916
vt 0.393266 0.818569
vt 0.430274 0.818944
vt 0.385486 0.817678
vt 0.439894 0.818065
vt 0.378068 0.816486
vt 0.449140 0.816768
vt 0.371011 0.814994
vt 0.458013 0.815053
vt 0.364319 0.813199
vt 0.466511 0.812918
vt 0.357987 0.811104
vt 0.043633 0.794901
vt 0.474637 0.810366
vt 0.352018 0.808706
vt 0.346412 0.806009
vt 0.482389 0.807396
vt 0.341166 0.803008
vt 0.489767 0.804008
vt 0.336283 0.799707
vt 0.496772 0.800200
vt 0.824466 0.787918
vt 0.331762 0.796106
vt 0.039917 0.783162
vt 0.503403 0.795975
vt 0.327607 0.792291
vt 0.509660 0.791332
vt 0.323820 0.788346
vt 0.515560 0.786230
vt 0.320404 0.784276
vt 0.036802 0.771315
vt 0.317354 0.780080
vt 0.521128 0.780626
vt 0.314672 0.775755
vt 0.830634 0.765772
vt 0.526359 0.774523
vt 0.312361 0.771304
vt 0.034289 0.759364
vt 0.310417 0.766725
vt 0.531254 0.767920
vt 0.308843 0.762019
vt 0.535812 0.760816
vt 0.032380 0.747308
vt 0.307636 0.757187
vt 0.835723 0.742476
vt 0.540037 0.753213
vt 0.306798 0.752228
vt 0.306328 0.747141
vt 0.031071 0.735148
vt 0.543924 0.745109
vt 0.306228 0.741927
vt 0.306438 0.738115
vt 0.547475 0.736505
vt 0.030365 0.722882
vt 0.306952 0.734370
vt 0.307766 0.730693
vt 0.839737 0.718033
vt 0.550692 0.727400
vt 0.308880 0.727087
vt 0.030261 0.710510
vt 0.310298 0.723550
vt 0.553572 0.717796
vt 0.312015 0.720079
vt 0.314036 0.716679
vt 0.316356 0.713350
vt 0.031141 0.691889
vt 0.556117 0.707692
vt 0.318979 0.710087
vt 0.321902 0.706893
vt 0.558327 0.697088
vt 0.325126 0.703769
vt 0.328653 0.700714
vt 0.332625 0.697606
vt 0.337401 0.694546
vt 0.033187 0.673845
vt 0.342985 0.691539
vt 0.349372 0.688578
vt 0.356567 0.685667
vt 0.364566 0.682807
vt 0.373372 0.679995
vt 0.382983 0.677233
vt 0.036395 0.656379
vt 0.393399 0.674520
vt 0.404622 0.671858
vt 0.416650 0.669243
vt 0.429483 0.666677
vt 0.461476 0.660139
vt 0.040769 0.639491
vt 0.491925 0.653563
vt 0.520829 0.646947
vt 0.046305 0.623179
vt 0.548191 0.640292
vt 0.574010 0.633602
vt 0.598283 0.626872
vt 0.053005 0.607444
vt 0.621015 0.620104
vt 0.642203 0.613297
vt 0.060869 0.592288
vt 0.661845 0.606453
vt 0.679947 0.599571
vt 0.069897 0.577707
vt 0.696502 0.592651
vt 0.711516 0.585692
vt 0.080089 0.563707
vt 0.725440 0.578565
vt 0.738725 0.571139
vt 0.091445 0.550282
vt 0.751375 0.563414
vt 0.763387 0.555391
vt 0.103965 0.537434
vt 0.774764 0.547069
vt 0.117649 0.525164
vt 0.785502 0.538447
vt 0.795605 0.529528
vt 0.132585 0.513396
vt 0.805070 0.520310
vt 0.149081 0.502056
vt 0.813899 0.510792
vt 0.167137 0.491142
vt 0.822093 0.500977
vt 0.186753 0.480656
vt 0.829648 0.490863
vt 0.836566 0.480449
vt 0.207930 0.470599
vt 0.230668 0.460971
vt 0.842900 0.469777
vt 0.254965 0.451769
vt 0.848702 0.458886
vt 0.280822 0.442996
vt 0.853970 0.447775
vt 0.308241 0.434649
vt 0.858707 0.436446
vt 0.337220 0.426731
vt 0.862909 0.424895
vt 0.367759 0.419242
vt 0.399858 0.412179
vt 0.866580 0.413128
vt 0.419332 0.408067
vt 0.437598 0.403887
vt 0.869719 0.401141
vt 0.454655 0.399645
vt 0.470504 0.395336
vt 0.485145 0.390962
vt 0.872324 0.388934
vt 0.498575 0.386523
vt 0.510798 0.382020
vt 0.874397 0.376509
vt 0.521813 0.377453
vt 0.531618 0.372820
vt 0.540215 0.368120
vt 0.875937 0.363862
vt 0.547604 0.363359
vt 0.553783 0.358529
vt 0.876944 0.350999
vt 0.559130 0.353611
vt 0.000000 0.329318
vt 0.284027 0.351624
vt 0.285878 0.340337
vt 0.564021 0.348575
vt 0.568455 0.343421
vt 0.877419 0.337916
vt 0.287988 0.329511
vt 0.572434 0.338151
vt 0.003042 0.305310
vt 0.575955 0.332763
vt 0.290355 0.319147
vt 0.877306 0.322508
vt 0.579021 0.327259
vt 0.581629 0.321636
vt 0.292982 0.309246
vt 0.583783 0.315896
vt 0.876474 0.307292
vt 0.585480 0.310039
vt 0.007217 0.282036
vt 0.295866 0.299805
vt 0.586718 0.304066
vt 0.299010 0.290828
vt 0.587502 0.297976
vt 0.874925 0.292266
vt 0.587829 0.291767
vt 0.302411 0.282314
vt 0.587692 0.285233
vt 0.012526 0.259494
vt 0.872658 0.277430
vt 0.306072 0.274261
vt 0.587072 0.278825
vt 0.585969 0.272541
vt 0.309990 0.266672
vt 0.869673 0.262785
vt 0.584382 0.266382
vt 0.314166 0.259543
vt 0.018970 0.237683
vt 0.582313 0.260350
vt 0.318604 0.252879
vt 0.579760 0.254443
vt 0.865970 0.248329
vt 0.323297 0.246675
vt 0.576723 0.248660
vt 0.331415 0.237424
vt 0.573206 0.243002
vt 0.026547 0.216608
vt 0.861549 0.234064
vt 0.569204 0.237471
vt 0.340071 0.228997
vt 0.564717 0.232063
vt 0.349265 0.221394
vt 0.559750 0.226783
vt 0.856410 0.219989
vt 0.554299 0.221627
vt 0.035260 0.196262
vt 0.358993 0.214616
vt 0.548399 0.216738
vt 0.369260 0.208660
vt 0.542085 0.212259
vt 0.850554 0.206105
vt 0.535356 0.208193
vt 0.380063 0.203530
vt 0.528212 0.204535
vt 0.391402 0.199223
vt 0.520656 0.201288
vt 0.045105 0.176650
vt 0.512685 0.198451
vt 0.403281 0.195740
vt 0.843980 0.192410
vt 0.504298 0.196027
vt 0.415695 0.193083
vt 0.495499 0.194011
vt 0.428644 0.191248
vt 0.486284 0.192406
vt 0.476655 0.191211
vt 0.442131 0.190238
vt 0.466612 0.190426
vt 0.456155 0.190052
vt 0.836689 0.178907
vt 0.056085 0.157772
vt 0.828679 0.165593
vt 0.068197 0.139626
vt 0.820022 0.152631
vt 0.810788 0.140191
vt 0.081445 0.122213
vt 0.800980 0.128267
vt 0.095826 0.105534
vt 0.790593 0.116860
vt 0.779632 0.105971
vt 0.111341 0.089585
vt 0.768093 0.095600
vt 0.128466 0.074681
vt 0.755978 0.085747
vt 0.743286 0.076413
vt 0.147678 0.061129
vt 0.730019 0.067596
vt 0.168976 0.048929
vt 0.716174 0.059296
vt 0.701754 0.051514
vt 0.192360 0.038082
vt 0.686758 0.044252
vt 0.217830 0.028587
vt 0.671134 0.037522
vt 0.654832 0.031347
vt 0.245387 0.020446
vt 0.637853 0.025725
vt 0.275030 0.013656
vt 0.620197 0.020655
vt 0.601861 0.016137
vt 0.306759 0.008220
vt 0.582849 0.012173
vt 0.340577 0.004136
vt 0.563158 0.008762
vt 0.542791 0.005904
vt 0.376478 0.001405
vt 0.521746 0.003599
vt 0.414467 0.000026
vt 0.500022 0.001846
vt 0.477621 0.000647
vt 0.454543 0.000000
s 1
usemtl マテリアル.003
f 133/1/1 134/2/1 135/3/1
f 132/4/1 133/1/1 135/3/1
f 132/4/1 135/3/1 136/5/1
f 131/6/1 132/4/1 136/5/1
f 131/6/1 136/5/1 137/7/1
f 130/8/1 131/6/1 137/7/1
f 129/9/1 130/8/1 137/7/1
f 129/9/1 137/7/1 138/10/1
f 128/11/1 129/9/1 138/10/1
f 128/11/1 138/10/1 139/12/1
f 127/13/1 128/11/1 139/12/1
f 127/13/1 139/12/1 140/14/1
f 126/15/1 127/13/1 140/14/1
f 125/16/1 126/15/1 140/14/1
f 125/16/1 140/14/1 141/17/1
f 124/18/1 125/16/1 141/17/1
f 124/18/1 141/17/1 142/19/1
f 123/20/1 124/18/1 142/19/1
f 123/20/1 142/19/1 143/21/1
f 122/22/1 123/20/1 143/21/1
f 121/23/1 122/22/1 143/21/1
f 121/23/1 143/21/1 144/24/1
f 120/25/1 121/23/1 144/24/1
f 120/25/1 144/24/1 145/26/1
f 119/27/1 120/25/1 145/26/1
f 119/27/1 145/26/1 146/28/1
f 118/29/1 119/27/1 146/28/1
f 117/30/1 118/29/1 146/28/1
f 117/30/1 146/28/1 147/31/1
f 116/32/1 117/30/1 147/31/1
f 116/32/1 147/31/1 148/33/1
f 115/34/1 116/32/1 148/33/1
f 114/35/1 115/34/1 148/33/1
f 114/35/1 148/33/1 149/36/1
f 113/37/1 114/35/1 149/36/1
f 113/37/1 149/36/1 150/38/1
f 112/39/1 113/37/1 150/38/1
f 111/40/1 112/39/1 150/38/1
f 111/40/1 150/38/1 151/41/1
f 110/42/1 111/40/1 151/41/1
f 110/42/1 151/41/1 152/43/1
f 109/44/1 110/42/1 152/43/1
f 108/45/1 109/44/1 152/43/1
f 108/45/1 152/43/1 153/46/1
f 107/47/1 108/45/1 153/46/1
f 106/48/1 107/47/1 184/49/1
f 184/49/1 107/47/1 183/50/1
f 183/50/1 107/47/1 153/46/1
f 183/50/1 153/46/1 182/51/1
f 182/51/1 153/46/1 154/52/1
f 106/48/1 184/49/1 185/53/1
f 181/54/1 182/51/1 154/52/1
f 106/48/1 185/53/1 186/55/1
f 180/56/1 181/54/1 154/52/1
f 106/48/1 186/55/1 187/57/1
f 179/58/1 180/56/1 154/52/1
f 106/48/1 187/57/1 188/59/1
f 178/60/1 179/58/1 154/52/1
f 106/48/1 188/59/1 189/61/1
f 177/62/1 178/60/1 154/52/1
f 106/48/1 189/61/1 190/63/1
f 105/64/1 106/48/1 190/63/1
f 176/65/1 177/62/1 154/52/1
f 105/64/1 190/63/1 191/66/1
f 105/64/1 191/66/1 192/67/1
f 175/68/1 176/65/1 154/52/1
f 105/64/1 192/67/1 193/69/1
f 174/70/1 175/68/1 154/52/1
f 105/64/1 193/69/1 194/71/1
f 173/72/1 174/70/1 154/52/1
f 173/72/1 154/52/1 155/73/1
f 105/64/1 194/71/1 195/74/1
f 104/75/1 105/64/1 195/74/1
f 172/76/1 173/72/1 155/73/1
f 104/75/1 195/74/1 196/77/1
f 171/78/1 172/76/1 155/73/1
f 104/75/1 196/77/1 197/79/1
f 170/80/1 171/78/1 155/73/1
f 104/75/1 197/79/1 198/81/1
f 103/82/1 104/75/1 198/81/1
f 103/82/1 198/81/1 199/83/1
f 169/84/1 170/80/1 155/73/1
f 103/82/1 199/83/1 200/85/1
f 169/84/1 155/73/1 156/86/1
f 168/87/1 169/84/1 156/86/1
f 103/82/1 200/85/1 201/88/1
f 102/89/1 103/82/1 201/88/1
f 102/89/1 201/88/1 202/90/1
f 167/91/1 168/87/1 156/86/1
f 102/89/1 202/90/1 203/92/1
f 166/93/1 167/91/1 156/86/1
f 101/94/1 102/89/1 203/92/1
f 101/94/1 203/92/1 204/95/1
f 166/93/1 156/86/1 157/96/1
f 165/97/1 166/93/1 157/96/1
f 101/94/1 204/95/1 205/98/1
f 101/94/1 205/98/1 206/99/1
f 100/100/1 101/94/1 206/99/1
f 164/101/1 165/97/1 157/96/1
f 100/100/1 206/99/1 207/102/1
f 100/100/1 207/102/1 208/103/1
f 163/104/1 164/101/1 157/96/1
f 99/105/1 100/100/1 208/103/1
f 99/105/1 208/103/1 209/106/1
f 99/105/1 209/106/1 210/107/1
f 163/104/1 157/96/1 158/108/1
f 162/109/1 163/104/1 158/108/1
f 99/105/1 210/107/1 211/110/1
f 98/111/1 99/105/1 211/110/1
f 98/111/1 211/110/1 212/112/1
f 161/113/1 162/109/1 158/108/1
f 98/111/1 212/112/1 213/114/1
f 98/111/1 213/114/1 214/115/1
f 98/111/1 214/115/1 215/116/1
f 97/117/1 98/111/1 215/116/1
f 160/118/1 161/113/1 158/108/1
f 97/117/1 215/116/1 216/119/1
f 97/117/1 216/119/1 217/120/1
f 160/118/1 158/108/1 159/121/1
f 97/117/1 217/120/1 218/122/1
f 97/117/1 218/122/1 219/123/1
f 97/117/1 219/123/1 220/124/1
f 97/117/1 220/124/1 221/125/1
f 96/126/1 97/117/1 221/125/1
f 96/126/1 221/125/1 222/127/1
f 96/126/1 222/127/1 223/128/1
f 96/126/1 223/128/1 224/129/1
f 96/126/1 224/129/1 225/130/1
f 96/126/1 225/130/1 226/131/1
f 96/126/1 226/131/1 227/132/1
f 95/133/1 96/126/1 227/132/1
f 95/133/1 227/132/1 228/134/1
f 95/133/1 228/134/1 229/135/1
f 95/133/1 229/135/1 230/136/1
f 95/133/1 230/136/1 231/137/1
f 95/133/1 231/137/1 232/138/1
f 94/139/1 95/133/1 232/138/1
f 94/139/1 232/138/1 233/140/1
f 94/139/1 233/140/1 234/141/1
f 93/142/1 94/139/1 234/141/1
f 93/142/1 234/141/1 235/143/1
f 93/142/1 235/143/1 236/144/1
f 93/142/1 236/144/1 237/145/1
f 92/146/1 93/142/1 237/145/1
f 92/146/1 237/145/1 238/147/1
f 92/146/1 238/147/1 239/148/1
f 91/149/1 92/146/1 239/148/1
f 91/149/1 239/148/1 240/150/1
f 91/149/1 240/150/1 241/151/1
f 90/152/1 91/149/1 241/151/1
f 90/152/1 241/151/1 242/153/1
f 90/152/1 242/153/1 243/154/1
f 89/155/1 90/152/1 243/154/1
f 89/155/1 243/154/1 244/156/1
f 89/155/1 244/156/1 245/157/1
f 88/158/1 89/155/1 245/157/1
f 88/158/1 245/157/1 246/159/1
f 88/158/1 246/159/1 247/160/1
f 87/161/1 88/158/1 247/160/1
f 87/161/1 247/160/1 248/162/1
f 86/163/1 87/161/1 248/162/1
f 86/163/1 248/162/1 249/164/1
f 86/163/1 249/164/1 250/165/1
f 85/166/1 86/163/1 250/165/1
f 85/166/1 250/165/1 251/167/1
f 84/168/1 85/166/1 251/167/1
f 84/168/1 251/167/1 252/169/1
f 83/170/1 84/168/1 252/169/1
f 83/170/1 252/169/1 253/171/1
f 82/172/1 83/170/1 253/171/1
f 82/172/1 253/171/1 254/173/1
f 82/172/1 254/173/1 255/174/1
f 81/175/1 82/172/1 255/174/1
f 80/176/1 81/175/1 255/174/1
f 80/176/1 255/174/1 256/177/1
f 79/178/1 80/176/1 256/177/1
f 79/178/1 256/177/1 257/179/1
f 78/180/1 79/178/1 257/179/1
f 78/180/1 257/179/1 258/181/1
f 77/182/1 78/180/1 258/181/1
f 77/182/1 258/181/1 259/183/1
f 76/184/1 77/182/1 259/183/1
f 76/184/1 259/183/1 260/185/1
f 75/186/1 76/184/1 260/185/1
f 74/187/1 75/186/1 260/185/1
f 74/187/1 260/185/1 261/188/1
f 73/189/1 74/187/1 261/188/1
f 72/190/1 73/189/1 261/188/1
f 72/190/1 261/188/1 262/191/1
f 71/192/1 72/190/1 262/191/1
f 70/193/1 71/192/1 262/191/1
f 69/194/1 70/193/1 262/191/1
f 69/194/1 262/191/1 263/195/1
f 68/196/1 69/194/1 263/195/1
f 67/197/1 68/196/1 263/195/1
f 67/197/1 263/195/1 264/198/1
f 66/199/1 67/197/1 264/198/1
f 65/200/1 66/199/1 264/198/1
f 64/201/1 65/200/1 264/198/1
f 64/201/1 264/198/1 265/202/1
f 63/203/1 64/201/1 265/202/1
f 62/204/1 63/203/1 265/202/1
f 62/204/1 265/202/1 266/205/1
f 61/206/1 62/204/1 266/205/1
f 1/207/1 2/208/1 3/209/1
f 60/210/1 61/206/1 266/205/1
f 59/211/1 60/210/1 266/205/1
f 59/211/1 266/205/1 267/212/1
f 1/207/1 3/209/1 4/213/1
f 58/214/1 59/211/1 267/212/1
f 326/215/1 1/207/1 4/213/1
f 57/216/1 58/214/1 267/212/1
f 326/215/1 4/213/1 5/217/1
f 57/216/1 267/212/1 268/218/1
f 56/219/1 57/216/1 268/218/1
f 55/220/1 56/219/1 268/218/1
f 326/215/1 5/217/1 6/221/1
f 54/222/1 55/220/1 268/218/1
f 54/222/1 268/218/1 269/223/1
f 53/224/1 54/222/1 269/223/1
f 325/225/1 326/215/1 6/221/1
f 325/225/1 6/221/1 7/226/1
f 52/227/1 53/224/1 269/223/1
f 325/225/1 7/226/1 8/228/1
f 51/229/1 52/227/1 269/223/1
f 51/229/1 269/223/1 270/230/1
f 50/231/1 51/229/1 270/230/1
f 325/225/1 8/228/1 9/232/1
f 49/233/1 50/231/1 270/230/1
f 324/234/1 325/225/1 9/232/1
f 49/233/1 270/230/1 271/235/1
f 324/234/1 9/232/1 10/236/1
f 48/237/1 49/233/1 271/235/1
f 47/238/1 48/237/1 271/235/1
f 324/234/1 10/236/1 11/239/1
f 47/238/1 271/235/1 272/240/1
f 46/241/1 47/238/1 272/240/1
f 324/234/1 11/239/1 12/242/1
f 323/243/1 324/234/1 12/242/1
f 45/244/1 46/241/1 272/240/1
f 323/243/1 12/242/1 13/245/1
f 44/246/1 45/244/1 272/240/1
f 44/246/1 272/240/1 273/247/1
f 323/243/1 13/245/1 14/248/1
f 43/249/1 44/246/1 273/247/1
f 323/243/1 14/248/1 15/250/1
f 42/251/1 43/249/1 273/247/1
f 322/252/1 323/243/1 15/250/1
f 42/251/1 273/247/1 274/253/1
f 41/254/1 42/251/1 274/253/1
f 322/252/1 15/250/1 16/255/1
f 40/256/1 41/254/1 274/253/1
f 322/252/1 16/255/1 17/257/1
f 39/258/1 40/256/1 274/253/1
f 39/258/1 274/253/1 275/259/1
f 38/260/1 39/258/1 275/259/1
f 321/261/1 322/252/1 17/257/1
f 321/261/1 17/257/1 18/262/1
f 37/263/1 38/260/1 275/259/1
f 321/261/1 18/262/1 19/264/1
f 36/265/1 37/263/1 275/259/1
f 36/265/1 275/259/1 276/266/1
f 35/267/1 36/265/1 276/266/1
f 321/261/1 19/264/1 20/268/1
f 34/269/1 35/267/1 276/266/1
f 321/261/1 20/268/1 21/270/1
f 33/271/1 34/269/1 276/266/1
f 320/272/1 321/261/1 21/270/1
f 32/273/1 33/271/1 276/266/1
f 320/272/1 21/270/1 22/274/1
f 32/273/1 276/266/1 277/275/1
f 31/276/1 32/273/1 277/275/1
f 320/272/1 22/274/1 23/277/1
f 30/278/1 31/276/1 277/275/1
f 320/272/1 23/277/1 24/279/1
f 29/280/1 30/278/1 277/275/1
f 28/281/1 29/280/1 277/275/1
f 320/272/1 24/279/1 25/282/1
f 27/283/1 28/281/1 277/275/1
f 320/272/1 25/282/1 26/284/1
f 26/284/1 27/283/1 277/275/1
f 320/272/1 26/284/1 277/275/1
f 320/272/1 277/275/1 278/285/1
f 319/286/1 320/272/1 278/285/1
f 319/286/1 278/285/1 279/287/1
f 318/288/1 319/286/1 279/287/1
f 318/288/1 279/287/1 280/289/1
f 318/288/1 280/289/1 281/290/1
f 317/291/1 318/288/1 281/290/1
f 317/291/1 281/290/1 282/292/1
f 316/293/1 317/291/1 282/292/1
f 316/293/1 282/292/1 283/294/1
f 316/293/1 283/294/1 284/295/1
f 315/296/1 316/293/1 284/295/1
f 315/296/1 284/295/1 285/297/1
f 314/298/1 315/296/1 285/297/1
f 314/298/1 285/297/1 286/299/1
f 314/298/1 286/299/1 287/300/1
f 313/301/1 314/298/1 287/300/1
f 313/301/1 287/300/1 288/302/1
f 312/303/1 313/301/1 288/302/1
f 312/303/1 288/302/1 289/304/1
f 312/303/1 289/304/1 290/305/1
f 311/306/1 312/303/1 290/305/1
f 311/306/1 290/305/1 291/307/1
f 310/308/1 311/306/1 291/307/1
f 310/308/1 291/307/1 292/309/1
f 310/308/1 292/309/1 293/310/1
f 309/311/1 310/308/1 293/310/1
f 309/311/1 293/310/1 294/312/1
f 308/313/1 309/311/1 294/312/1
f 308/313/1 294/312/1 295/314/1
f 308/313/1 295/314/1 296/315/1
f 307/316/1 308/313/1 296/315/1
f 307/316/1 296/315/1 297/317/1
f 306/318/1 307/316/1 297/317/1
f 306/318/1 297/317/1 298/319/1
f 306/318/1 298/319/1 299/320/1
f 305/321/1 306/318/1 299/320/1
f 305/321/1 299/320/1 300/322/1
f 304/323/1 305/321/1 300/322/1
f 304/323/1 300/322/1 301/324/1
f 304/323/1 301/324/1 302/325/1
f 303/326/1 304/323/1 302/325/1
