# Blender 4.4.1
# www.blender.org
mtllib space.mtl
o テキスト
v 2.210397 -0.000000 -0.514928
v 2.636811 -0.000000 -0.514928
v 2.636811 -0.000000 -0.404988
v 2.369863 -0.000000 -0.404988
v 2.369863 -0.000000 -0.323147
v 2.617492 -0.000000 -0.323147
v 2.617492 -0.000000 -0.218124
v 2.369863 -0.000000 -0.218124
v 2.369863 -0.000000 -0.116614
v 2.644538 -0.000000 -0.116614
v 2.644538 0.000000 0.000000
v 2.210397 0.000000 0.000000
v 1.994029 -0.000000 -0.210397
v 2.133474 -0.000000 -0.168247
v 2.131020 -0.000000 -0.158605
v 2.128342 -0.000000 -0.149231
v 2.125439 -0.000000 -0.140126
v 2.122312 -0.000000 -0.131288
v 2.118961 -0.000000 -0.122719
v 2.115385 -0.000000 -0.114419
v 2.111584 -0.000000 -0.106386
v 2.107560 -0.000000 -0.098622
v 2.103311 -0.000000 -0.091127
v 2.098837 -0.000000 -0.083899
v 2.094139 -0.000000 -0.076940
v 2.089217 -0.000000 -0.070249
v 2.084081 -0.000000 -0.063827
v 2.078743 -0.000000 -0.057673
v 2.073202 -0.000000 -0.051787
v 2.067459 -0.000000 -0.046169
v 2.061513 -0.000000 -0.040820
v 2.055365 -0.000000 -0.035739
v 2.049015 -0.000000 -0.030927
v 2.042462 -0.000000 -0.026383
v 2.035707 -0.000000 -0.022107
v 2.028749 -0.000000 -0.018099
v 2.021588 -0.000000 -0.014360
v 2.014225 -0.000000 -0.010889
v 2.006592 -0.000000 -0.007691
v 1.998619 -0.000000 -0.004771
v 1.990308 -0.000000 -0.002129
v 1.981657 0.000000 0.000234
v 1.972667 0.000000 0.002320
v 1.963339 0.000000 0.004127
v 1.953671 0.000000 0.005657
v 1.943664 0.000000 0.006908
v 1.933318 0.000000 0.007881
v 1.922633 0.000000 0.008576
v 1.911609 0.000000 0.008993
v 1.900246 0.000000 0.009132
v 1.886468 0.000000 0.008963
v 1.873117 0.000000 0.008454
v 1.860193 0.000000 0.007607
v 1.847695 0.000000 0.006420
v 1.835625 0.000000 0.004894
v 1.823981 0.000000 0.003030
v 1.812765 0.000000 0.000826
v 1.801975 -0.000000 -0.001717
v 1.791612 -0.000000 -0.004599
v 1.781676 -0.000000 -0.007820
v 1.772166 -0.000000 -0.011380
v 1.763084 -0.000000 -0.015279
v 1.754316 -0.000000 -0.019605
v 1.745751 -0.000000 -0.024446
v 1.737388 -0.000000 -0.029801
v 1.729228 -0.000000 -0.035671
v 1.721270 -0.000000 -0.042056
v 1.713514 -0.000000 -0.048955
v 1.705961 -0.000000 -0.056369
v 1.698611 -0.000000 -0.064298
v 1.691463 -0.000000 -0.072741
v 1.684517 -0.000000 -0.081699
v 1.677774 -0.000000 -0.091172
v 1.671233 -0.000000 -0.101159
v 1.665062 -0.000000 -0.111643
v 1.659427 -0.000000 -0.122605
v 1.654329 -0.000000 -0.134045
v 1.649768 -0.000000 -0.145963
v 1.645743 -0.000000 -0.158359
v 1.642255 -0.000000 -0.171233
v 1.639304 -0.000000 -0.184585
v 1.636889 -0.000000 -0.198416
v 1.635011 -0.000000 -0.212724
v 1.633669 -0.000000 -0.227510
v 1.632864 -0.000000 -0.242775
v 1.632596 -0.000000 -0.258518
v 1.633068 -0.000000 -0.279416
v 1.634484 -0.000000 -0.299492
v 1.636844 -0.000000 -0.318746
v 1.640148 -0.000000 -0.337178
v 1.644395 -0.000000 -0.354787
v 1.649587 -0.000000 -0.371575
v 1.655723 -0.000000 -0.387541
v 1.662803 -0.000000 -0.402685
v 1.670827 -0.000000 -0.417007
v 1.679794 -0.000000 -0.430507
v 1.689706 -0.000000 -0.443185
v 1.700562 -0.000000 -0.455040
v 1.712281 -0.000000 -0.466008
v 1.724783 -0.000000 -0.476023
v 1.738069 -0.000000 -0.485083
v 1.752137 -0.000000 -0.493190
v 1.766988 -0.000000 -0.500343
v 1.782622 -0.000000 -0.506542
v 1.799039 -0.000000 -0.511788
v 1.816239 -0.000000 -0.516079
v 1.834222 -0.000000 -0.519417
v 1.852988 -0.000000 -0.521802
v 1.872538 -0.000000 -0.523232
v 1.892870 -0.000000 -0.523709
v 1.908797 -0.000000 -0.523436
v 1.924145 -0.000000 -0.522616
v 1.938916 -0.000000 -0.521250
v 1.953109 -0.000000 -0.519338
v 1.966723 -0.000000 -0.516879
v 1.979759 -0.000000 -0.513874
v 1.992218 -0.000000 -0.510323
v 2.004098 -0.000000 -0.506225
v 2.015400 -0.000000 -0.501581
v 2.026124 -0.000000 -0.496390
v 2.036270 -0.000000 -0.490653
v 2.045838 -0.000000 -0.484370
v 2.054918 -0.000000 -0.477520
v 2.063600 -0.000000 -0.470086
v 2.071885 -0.000000 -0.462065
v 2.079772 -0.000000 -0.453460
v 2.087262 -0.000000 -0.444269
v 2.094354 -0.000000 -0.434492
v 2.101048 -0.000000 -0.424131
v 2.107345 -0.000000 -0.413184
v 2.113244 -0.000000 -0.401651
v 2.118746 -0.000000 -0.389533
v 2.123850 -0.000000 -0.376829
v 2.128556 -0.000000 -0.363541
v 1.988058 -0.000000 -0.332280
v 1.986823 -0.000000 -0.336114
v 1.985579 -0.000000 -0.339773
v 1.984326 -0.000000 -0.343256
v 1.983062 -0.000000 -0.346564
v 1.981789 -0.000000 -0.349696
v 1.980506 -0.000000 -0.352652
v 1.979213 -0.000000 -0.355433
v 1.977911 -0.000000 -0.358038
v 1.976598 -0.000000 -0.360467
v 1.975276 -0.000000 -0.362721
v 1.973945 -0.000000 -0.364799
v 1.972603 -0.000000 -0.366702
v 1.970337 -0.000000 -0.369687
v 1.967988 -0.000000 -0.372556
v 1.965556 -0.000000 -0.375307
v 1.963041 -0.000000 -0.377942
v 1.960443 -0.000000 -0.380459
v 1.957763 -0.000000 -0.382859
v 1.954999 -0.000000 -0.385142
v 1.952152 -0.000000 -0.387308
v 1.949223 -0.000000 -0.389357
v 1.946211 -0.000000 -0.391289
v 1.943115 -0.000000 -0.393104
v 1.939937 -0.000000 -0.394802
v 1.936685 -0.000000 -0.396372
v 1.933371 -0.000000 -0.397807
v 1.929992 -0.000000 -0.399104
v 1.926551 -0.000000 -0.400265
v 1.923046 -0.000000 -0.401290
v 1.919477 -0.000000 -0.402178
v 1.915845 -0.000000 -0.402929
v 1.912150 -0.000000 -0.403544
v 1.908391 -0.000000 -0.404022
v 1.904569 -0.000000 -0.404363
v 1.900683 -0.000000 -0.404568
v 1.896734 -0.000000 -0.404636
v 1.887894 -0.000000 -0.404334
v 1.879405 -0.000000 -0.403427
v 1.871268 -0.000000 -0.401914
v 1.863482 -0.000000 -0.399797
v 1.856047 -0.000000 -0.397075
v 1.848964 -0.000000 -0.393748
v 1.842232 -0.000000 -0.389816
v 1.835850 -0.000000 -0.385279
v 1.829821 -0.000000 -0.380137
v 1.824142 -0.000000 -0.374390
v 1.818815 -0.000000 -0.368039
v 1.813839 -0.000000 -0.361082
v 1.810361 -0.000000 -0.355440
v 1.807185 -0.000000 -0.349286
v 1.804312 -0.000000 -0.342619
v 1.801741 -0.000000 -0.335441
v 1.799472 -0.000000 -0.327750
v 1.797506 -0.000000 -0.319547
v 1.795843 -0.000000 -0.310832
v 1.794482 -0.000000 -0.301604
v 1.793423 -0.000000 -0.291864
v 1.792667 -0.000000 -0.281612
v 1.792213 -0.000000 -0.270848
v 1.792062 -0.000000 -0.259571
v 1.792242 -0.000000 -0.245662
v 1.792784 -0.000000 -0.232501
v 1.793686 -0.000000 -0.220089
v 1.794950 -0.000000 -0.208426
v 1.796574 -0.000000 -0.197512
v 1.798560 -0.000000 -0.187346
v 1.800906 -0.000000 -0.177930
v 1.803614 -0.000000 -0.169262
v 1.806682 -0.000000 -0.161343
v 1.810112 -0.000000 -0.154173
v 1.813902 -0.000000 -0.147752
v 1.818054 -0.000000 -0.142079
v 1.822533 -0.000000 -0.137002
v 1.827304 -0.000000 -0.132366
v 1.832367 -0.000000 -0.128172
v 1.837724 -0.000000 -0.124419
v 1.843373 -0.000000 -0.121108
v 1.849315 -0.000000 -0.118239
v 1.855550 -0.000000 -0.115810
v 1.862077 -0.000000 -0.113824
v 1.868897 -0.000000 -0.112278
v 1.876010 -0.000000 -0.111175
v 1.883415 -0.000000 -0.110512
v 1.891114 -0.000000 -0.110292
v 1.898569 -0.000000 -0.110470
v 1.905715 -0.000000 -0.111004
v 1.912551 -0.000000 -0.111894
v 1.919077 -0.000000 -0.113141
v 1.925293 -0.000000 -0.114743
v 1.931200 -0.000000 -0.116702
v 1.936796 -0.000000 -0.119017
v 1.942083 -0.000000 -0.121688
v 1.947061 -0.000000 -0.124715
v 1.951728 -0.000000 -0.128098
v 1.956086 -0.000000 -0.131837
v 1.960134 -0.000000 -0.135933
v 1.963938 -0.000000 -0.140367
v 1.967563 -0.000000 -0.145124
v 1.971011 -0.000000 -0.150202
v 1.974281 -0.000000 -0.155602
v 1.977373 -0.000000 -0.161325
v 1.980286 -0.000000 -0.167369
v 1.983022 -0.000000 -0.173736
v 1.985579 -0.000000 -0.180424
v 1.987959 -0.000000 -0.187434
v 1.990160 -0.000000 -0.194766
v 1.992184 -0.000000 -0.202421
v 1.408500 -0.000000 -0.085002
v 1.227257 -0.000000 -0.085002
v 1.202318 0.000000 0.000000
v 1.039691 0.000000 0.000000
v 1.233228 -0.000000 -0.514928
v 1.406744 -0.000000 -0.514928
v 1.600281 0.000000 0.000000
v 1.433790 0.000000 0.000000
v 1.375132 -0.000000 -0.196347
v 1.318230 -0.000000 -0.381454
v 1.261679 -0.000000 -0.196347
v 0.571479 -0.000000 -0.514928
v 0.835968 -0.000000 -0.514928
v 0.850068 -0.000000 -0.514643
v 0.863565 -0.000000 -0.513786
v 0.876460 -0.000000 -0.512360
v 0.888752 -0.000000 -0.510362
v 0.900442 -0.000000 -0.507793
v 0.911530 -0.000000 -0.504654
v 0.922015 -0.000000 -0.500944
v 0.931897 -0.000000 -0.496663
v 0.941177 -0.000000 -0.491812
v 0.949855 -0.000000 -0.486389
v 0.957930 -0.000000 -0.480396
v 0.965402 -0.000000 -0.473832
v 0.972275 -0.000000 -0.466741
v 0.978550 -0.000000 -0.459168
v 0.984227 -0.000000 -0.451111
v 0.989307 -0.000000 -0.442571
v 0.993789 -0.000000 -0.433549
v 0.997673 -0.000000 -0.424043
v 1.000960 -0.000000 -0.414054
v 1.003649 -0.000000 -0.403583
v 1.005741 -0.000000 -0.392628
v 1.007235 -0.000000 -0.381191
v 1.008131 -0.000000 -0.369270
v 1.008430 -0.000000 -0.356867
v 1.008104 -0.000000 -0.344107
v 1.007127 -0.000000 -0.331821
v 1.005499 -0.000000 -0.320008
v 1.003220 -0.000000 -0.308668
v 1.000289 -0.000000 -0.297801
v 0.996707 -0.000000 -0.287408
v 0.992474 -0.000000 -0.277488
v 0.987589 -0.000000 -0.268040
v 0.982054 -0.000000 -0.259067
v 0.975866 -0.000000 -0.250566
v 0.969028 -0.000000 -0.242538
v 0.961539 -0.000000 -0.234984
v 0.953381 -0.000000 -0.227971
v 0.944537 -0.000000 -0.221569
v 0.935008 -0.000000 -0.215775
v 0.924794 -0.000000 -0.210592
v 0.913895 -0.000000 -0.206019
v 0.902309 -0.000000 -0.202055
v 0.890039 -0.000000 -0.198701
v 0.877083 -0.000000 -0.195957
v 0.863442 -0.000000 -0.193822
v 0.849115 -0.000000 -0.192298
v 0.834103 -0.000000 -0.191383
v 0.818405 -0.000000 -0.191078
v 0.731296 -0.000000 -0.191078
v 0.731296 0.000000 0.000000
v 0.571479 0.000000 0.000000
v 0.731296 -0.000000 -0.295399
v 0.770285 -0.000000 -0.295399
v 0.777763 -0.000000 -0.295510
v 0.784861 -0.000000 -0.295843
v 0.791579 -0.000000 -0.296398
v 0.797916 -0.000000 -0.297174
v 0.803873 -0.000000 -0.298173
v 0.809449 -0.000000 -0.299394
v 0.814644 -0.000000 -0.300837
v 0.819459 -0.000000 -0.302502
v 0.823894 -0.000000 -0.304388
v 0.827948 -0.000000 -0.306497
v 0.831621 -0.000000 -0.308828
v 0.834914 -0.000000 -0.311380
v 0.837887 -0.000000 -0.314106
v 0.840602 -0.000000 -0.316956
v 0.843059 -0.000000 -0.319931
v 0.845256 -0.000000 -0.323030
v 0.847196 -0.000000 -0.326254
v 0.848876 -0.000000 -0.329601
v 0.850298 -0.000000 -0.333074
v 0.851462 -0.000000 -0.336670
v 0.852367 -0.000000 -0.340391
v 0.853013 -0.000000 -0.344237
v 0.853401 -0.000000 -0.348206
v 0.853530 -0.000000 -0.352301
v 0.853418 -0.000000 -0.356289
v 0.853081 -0.000000 -0.360174
v 0.852520 -0.000000 -0.363958
v 0.851735 -0.000000 -0.367638
v 0.850725 -0.000000 -0.371217
v 0.849491 -0.000000 -0.374693
v 0.848032 -0.000000 -0.378066
v 0.846349 -0.000000 -0.381337
v 0.844442 -0.000000 -0.384506
v 0.842310 -0.000000 -0.387572
v 0.839953 -0.000000 -0.390535
v 0.837373 -0.000000 -0.393397
v 0.834482 -0.000000 -0.396089
v 0.831197 -0.000000 -0.398548
v 0.827516 -0.000000 -0.400773
v 0.823440 -0.000000 -0.402763
v 0.818969 -0.000000 -0.404519
v 0.814103 -0.000000 -0.406041
v 0.808841 -0.000000 -0.407329
v 0.803185 -0.000000 -0.408383
v 0.797133 -0.000000 -0.409203
v 0.790686 -0.000000 -0.409788
v 0.783844 -0.000000 -0.410139
v 0.776607 -0.000000 -0.410256
v 0.731296 -0.000000 -0.410256
v 0.024939 -0.000000 -0.170355
v 0.176326 -0.000000 -0.179838
v 0.177216 -0.000000 -0.173814
v 0.178248 -0.000000 -0.168033
v 0.179421 -0.000000 -0.162496
v 0.180736 -0.000000 -0.157203
v 0.182192 -0.000000 -0.152153
v 0.183790 -0.000000 -0.147348
v 0.185529 -0.000000 -0.142787
v 0.187410 -0.000000 -0.138469
v 0.189432 -0.000000 -0.134396
v 0.191595 -0.000000 -0.130566
v 0.193901 -0.000000 -0.126981
v 0.196347 -0.000000 -0.123639
v 0.200591 -0.000000 -0.118646
v 0.205128 -0.000000 -0.114087
v 0.209958 -0.000000 -0.109962
v 0.215080 -0.000000 -0.106272
v 0.220495 -0.000000 -0.103015
v 0.226203 -0.000000 -0.100193
v 0.232203 -0.000000 -0.097805
v 0.238497 -0.000000 -0.095851
v 0.245083 -0.000000 -0.094332
v 0.251961 -0.000000 -0.093246
v 0.259132 -0.000000 -0.092595
v 0.266596 -0.000000 -0.092378
v 0.272166 -0.000000 -0.092489
v 0.277519 -0.000000 -0.092822
v 0.282655 -0.000000 -0.093377
v 0.287574 -0.000000 -0.094154
v 0.292275 -0.000000 -0.095153
v 0.296760 -0.000000 -0.096373
v 0.301027 -0.000000 -0.097816
v 0.305077 -0.000000 -0.099481
v 0.308911 -0.000000 -0.101368
v 0.312527 -0.000000 -0.103476
v 0.315926 -0.000000 -0.105807
v 0.319108 -0.000000 -0.108360
v 0.322053 -0.000000 -0.111059
v 0.324742 -0.000000 -0.113828
v 0.327176 -0.000000 -0.116669
v 0.329353 -0.000000 -0.119580
v 0.331273 -0.000000 -0.122562
v 0.332938 -0.000000 -0.125615
v 0.334347 -0.000000 -0.128738
v 0.335499 -0.000000 -0.131932
v 0.336396 -0.000000 -0.135197
v 0.337036 -0.000000 -0.138533
v 0.337420 -0.000000 -0.141939
v 0.337548 -0.000000 -0.145416
v 0.337426 -0.000000 -0.148724
v 0.337060 -0.000000 -0.151973
v 0.336451 -0.000000 -0.155163
v 0.335597 -0.000000 -0.158295
v 0.334499 -0.000000 -0.161369
v 0.333158 -0.000000 -0.164384
v 0.331572 -0.000000 -0.167340
v 0.329743 -0.000000 -0.170238
v 0.327669 -0.000000 -0.173077
v 0.325352 -0.000000 -0.175858
v 0.322791 -0.000000 -0.178580
v 0.319986 -0.000000 -0.181243
v 0.316737 -0.000000 -0.183866
v 0.312844 -0.000000 -0.186463
v 0.308307 -0.000000 -0.189037
v 0.303126 -0.000000 -0.191586
v 0.297301 -0.000000 -0.194110
v 0.290832 -0.000000 -0.196610
v 0.283720 -0.000000 -0.199086
v 0.275963 -0.000000 -0.201538
v 0.267562 -0.000000 -0.203965
v 0.258518 -0.000000 -0.206367
v 0.248829 -0.000000 -0.208746
v 0.238497 -0.000000 -0.211099
v 0.221469 -0.000000 -0.215129
v 0.205275 -0.000000 -0.219373
v 0.189915 -0.000000 -0.223832
v 0.175389 -0.000000 -0.228506
v 0.161698 -0.000000 -0.233394
v 0.148841 -0.000000 -0.238497
v 0.136818 -0.000000 -0.243814
v 0.125629 -0.000000 -0.249346
v 0.115275 -0.000000 -0.255093
v 0.105755 -0.000000 -0.261055
v 0.097069 -0.000000 -0.267231
v 0.089217 -0.000000 -0.273621
v 0.082036 -0.000000 -0.280268
v 0.075479 -0.000000 -0.287213
v 0.069547 -0.000000 -0.294455
v 0.064239 -0.000000 -0.301994
v 0.059556 -0.000000 -0.309832
v 0.055497 -0.000000 -0.317966
v 0.052063 -0.000000 -0.326399
v 0.049253 -0.000000 -0.335129
v 0.047067 -0.000000 -0.344156
v 0.045506 -0.000000 -0.353481
v 0.044569 -0.000000 -0.363104
v 0.044257 -0.000000 -0.373024
v 0.044417 -0.000000 -0.379609
v 0.044896 -0.000000 -0.386133
v 0.045695 -0.000000 -0.392595
v 0.046813 -0.000000 -0.398997
v 0.048251 -0.000000 -0.405338
v 0.050009 -0.000000 -0.411618
v 0.052086 -0.000000 -0.417836
v 0.054482 -0.000000 -0.423994
v 0.057198 -0.000000 -0.430091
v 0.060234 -0.000000 -0.436127
v 0.063589 -0.000000 -0.442102
v 0.067264 -0.000000 -0.448015
v 0.071259 -0.000000 -0.453794
v 0.075577 -0.000000 -0.459363
v 0.080216 -0.000000 -0.464722
v 0.085177 -0.000000 -0.469871
v 0.090461 -0.000000 -0.474810
v 0.096066 -0.000000 -0.479540
v 0.101993 -0.000000 -0.484060
v 0.108243 -0.000000 -0.488370
v 0.114814 -0.000000 -0.492470
v 0.121707 -0.000000 -0.496361
v 0.128922 -0.000000 -0.500041
v 0.136459 -0.000000 -0.503513
v 0.144395 -0.000000 -0.506738
v 0.152807 -0.000000 -0.509684
v 0.161694 -0.000000 -0.512349
v 0.171057 -0.000000 -0.514733
v 0.180896 -0.000000 -0.516837
v 0.191210 -0.000000 -0.518660
v 0.202000 -0.000000 -0.520203
v 0.213265 -0.000000 -0.521465
v 0.225007 -0.000000 -0.522447
v 0.237223 -0.000000 -0.523148
v 0.249916 -0.000000 -0.523569
v 0.263084 -0.000000 -0.523709
v 0.279208 -0.000000 -0.523454
v 0.294682 -0.000000 -0.522690
v 0.309503 -0.000000 -0.521415
v 0.323674 -0.000000 -0.519631
v 0.337193 -0.000000 -0.517337
v 0.350061 -0.000000 -0.514533
v 0.362278 -0.000000 -0.511219
v 0.373844 -0.000000 -0.507396
v 0.384758 -0.000000 -0.503063
v 0.395021 -0.000000 -0.498220
v 0.404633 -0.000000 -0.492867
v 0.413593 -0.000000 -0.487004
v 0.421937 -0.000000 -0.480585
v 0.429697 -0.000000 -0.473564
v 0.436874 -0.000000 -0.465940
v 0.443469 -0.000000 -0.457714
v 0.449480 -0.000000 -0.448885
v 0.454909 -0.000000 -0.439454
v 0.459754 -0.000000 -0.429420
v 0.464017 -0.000000 -0.418784
v 0.467696 -0.000000 -0.407545
v 0.470793 -0.000000 -0.395704
v 0.473306 -0.000000 -0.383260
v 0.475237 -0.000000 -0.370214
v 0.325255 -0.000000 -0.361433
v 0.324168 -0.000000 -0.367097
v 0.322898 -0.000000 -0.372497
v 0.321446 -0.000000 -0.377634
v 0.319810 -0.000000 -0.382508
v 0.317992 -0.000000 -0.387118
v 0.315991 -0.000000 -0.391465
v 0.313806 -0.000000 -0.395548
v 0.311439 -0.000000 -0.399368
v 0.308889 -0.000000 -0.402924
v 0.306156 -0.000000 -0.406217
v 0.303239 -0.000000 -0.409247
v 0.300141 -0.000000 -0.412013
v 0.296849 -0.000000 -0.414537
v 0.293355 -0.000000 -0.416842
v 0.289658 -0.000000 -0.418928
v 0.285759 -0.000000 -0.420794
v 0.281657 -0.000000 -0.422440
v 0.277353 -0.000000 -0.423867
v 0.272847 -0.000000 -0.425075
v 0.268138 -0.000000 -0.426063
v 0.263227 -0.000000 -0.426831
v 0.258113 -0.000000 -0.427380
v 0.252797 -0.000000 -0.427709
v 0.247278 -0.000000 -0.427819
v 0.242748 -0.000000 -0.427737
v 0.238409 -0.000000 -0.427492
v 0.234260 -0.000000 -0.427083
v 0.230301 -0.000000 -0.426511
v 0.226532 -0.000000 -0.425776
v 0.222954 -0.000000 -0.424877
v 0.219566 -0.000000 -0.423815
v 0.216368 -0.000000 -0.422589
v 0.213361 -0.000000 -0.421200
v 0.210543 -0.000000 -0.419647
v 0.207916 -0.000000 -0.417931
v 0.205479 -0.000000 -0.416052
v 0.203235 -0.000000 -0.414056
v 0.201186 -0.000000 -0.411988
v 0.199333 -0.000000 -0.409850
v 0.197674 -0.000000 -0.407642
v 0.196210 -0.000000 -0.405362
v 0.194942 -0.000000 -0.403012
v 0.193869 -0.000000 -0.400591
v 0.192991 -0.000000 -0.398099
v 0.192308 -0.000000 -0.395537
v 0.191820 -0.000000 -0.392904
v 0.191527 -0.000000 -0.390200
v 0.191430 -0.000000 -0.387425
v 0.191510 -0.000000 -0.385394
v 0.191752 -0.000000 -0.383396
v 0.192154 -0.000000 -0.381432
v 0.192717 -0.000000 -0.379503
v 0.193442 -0.000000 -0.377608
v 0.194327 -0.000000 -0.375746
v 0.195374 -0.000000 -0.373919
v 0.196581 -0.000000 -0.372127
v 0.197950 -0.000000 -0.370368
v 0.199479 -0.000000 -0.368643
v 0.201169 -0.000000 -0.366953
v 0.203021 -0.000000 -0.365297
v 0.205109 -0.000000 -0.363609
v 0.207626 -0.000000 -0.361940
v 0.210573 -0.000000 -0.360292
v 0.213948 -0.000000 -0.358662
v 0.217754 -0.000000 -0.357052
v 0.221988 -0.000000 -0.355462
v 0.226652 -0.000000 -0.353891
v 0.231745 -0.000000 -0.352340
v 0.237267 -0.000000 -0.350808
v 0.243219 -0.000000 -0.349296
v 0.249600 -0.000000 -0.347803
v 0.256410 -0.000000 -0.346329
v 0.273386 -0.000000 -0.342579
v 0.289540 -0.000000 -0.338822
v 0.304871 -0.000000 -0.335057
v 0.319381 -0.000000 -0.331284
v 0.333069 -0.000000 -0.327505
v 0.345934 -0.000000 -0.323718
v 0.357978 -0.000000 -0.319924
v 0.369200 -0.000000 -0.316122
v 0.379599 -0.000000 -0.312313
v 0.389177 -0.000000 -0.308497
v 0.397932 -0.000000 -0.304674
v 0.405866 -0.000000 -0.300843
v 0.413218 -0.000000 -0.296932
v 0.420228 -0.000000 -0.292867
v 0.426897 -0.000000 -0.288648
v 0.433224 -0.000000 -0.284276
v 0.439210 -0.000000 -0.279750
v 0.444854 -0.000000 -0.275070
v 0.450157 -0.000000 -0.270237
v 0.455118 -0.000000 -0.265250
v 0.459738 -0.000000 -0.260109
v 0.464017 -0.000000 -0.254815
v 0.467954 -0.000000 -0.249367
v 0.471549 -0.000000 -0.243765
v 0.474831 -0.000000 -0.238031
v 0.477828 -0.000000 -0.232184
v 0.480539 -0.000000 -0.226225
v 0.482965 -0.000000 -0.220154
v 0.485105 -0.000000 -0.213970
v 0.486960 -0.000000 -0.207675
v 0.488530 -0.000000 -0.201267
v 0.489814 -0.000000 -0.194747
v 0.490813 -0.000000 -0.188115
v 0.491526 -0.000000 -0.181370
v 0.491954 -0.000000 -0.174514
v 0.492097 -0.000000 -0.167545
v 0.491907 -0.000000 -0.159344
v 0.491336 -0.000000 -0.151251
v 0.490385 -0.000000 -0.143265
v 0.489053 -0.000000 -0.135386
v 0.487341 -0.000000 -0.127615
v 0.485248 -0.000000 -0.119951
v 0.482774 -0.000000 -0.112394
v 0.479920 -0.000000 -0.104945
v 0.476686 -0.000000 -0.097603
v 0.473071 -0.000000 -0.090368
v 0.469076 -0.000000 -0.083241
v 0.464700 -0.000000 -0.076221
v 0.459982 -0.000000 -0.069394
v 0.454962 -0.000000 -0.062849
v 0.449640 -0.000000 -0.056584
v 0.444015 -0.000000 -0.050599
v 0.438088 -0.000000 -0.044895
v 0.431858 -0.000000 -0.039471
v 0.425326 -0.000000 -0.034328
v 0.418491 -0.000000 -0.029466
v 0.411354 -0.000000 -0.024884
v 0.403914 -0.000000 -0.020582
v 0.396172 -0.000000 -0.016561
v 0.388128 -0.000000 -0.012821
v 0.379754 -0.000000 -0.009370
v 0.371024 -0.000000 -0.006220
v 0.361938 -0.000000 -0.003370
v 0.352496 -0.000000 -0.000820
v 0.342697 0.000000 0.001431
v 0.332543 0.000000 0.003381
v 0.322032 0.000000 0.005031
v 0.311166 0.000000 0.006381
v 0.299943 0.000000 0.007431
v 0.288364 0.000000 0.008181
v 0.276429 0.000000 0.008631
v 0.264138 0.000000 0.008781
v 0.242804 0.000000 0.008430
v 0.222593 0.000000 0.007376
v 0.203504 0.000000 0.005620
v 0.185536 0.000000 0.003161
v 0.168691 0.000000 0.000000
v 0.152968 -0.000000 -0.003864
v 0.138367 -0.000000 -0.008430
v 0.124888 -0.000000 -0.013699
v 0.112531 -0.000000 -0.019670
v 0.101296 -0.000000 -0.026344
v 0.091183 -0.000000 -0.033720
v 0.082192 -0.000000 -0.041798
v 0.074067 -0.000000 -0.050419
v 0.066552 -0.000000 -0.059419
v 0.059646 -0.000000 -0.068800
v 0.053351 -0.000000 -0.078562
v 0.047665 -0.000000 -0.088704
v 0.042589 -0.000000 -0.099227
v 0.038122 -0.000000 -0.110131
v 0.034266 -0.000000 -0.121414
v 0.031019 -0.000000 -0.133079
v 0.028383 -0.000000 -0.145124
v 0.026356 -0.000000 -0.157549
vn -0.0000 1.0000 -0.0000
vt 0.693449 0.376384
vt 0.806050 0.662349
vt 0.693449 0.739979
vt 0.994544 0.739979
vt 0.994544 0.662349
vt 0.806050 0.604561
vt 0.806050 0.530403
vt 0.980903 0.604561
vt 0.980903 0.530403
vt 0.806050 0.458726
vt 1.000000 0.458726
vt 1.000000 0.376384
vt 0.537763 0.376384
vt 0.563361 0.375883
vt 0.552123 0.376359
vt 0.574180 0.375032
vt 0.523937 0.375722
vt 0.584583 0.373805
vt 0.510648 0.374372
vt 0.594567 0.372203
vt 0.497895 0.372336
vt 0.604133 0.370225
vt 0.613282 0.367872
vt 0.485677 0.369612
vt 0.622013 0.365144
vt 0.473996 0.366201
vt 0.630326 0.362040
vt 0.462850 0.362103
vt 0.638222 0.358561
vt 0.645700 0.354706
vt 0.452239 0.357318
vt 0.652759 0.350476
vt 0.442165 0.351846
vt 0.659402 0.345871
vt 0.432625 0.345686
vt 0.665689 0.340875
vt 0.671686 0.335473
vt 0.423622 0.338839
vt 0.677391 0.329663
vt 0.415155 0.331305
vt 0.682806 0.323449
vt 0.407281 0.323130
vt 0.687929 0.316828
vt 0.692762 0.309801
vt 0.400059 0.314357
vt 0.697303 0.302368
vt 0.393490 0.304987
vt 0.701553 0.294529
vt 0.387571 0.295020
vt 0.552734 0.292239
vt 0.705512 0.286283
vt 0.546489 0.292183
vt 0.555520 0.292121
vt 0.558260 0.291907
vt 0.560952 0.291598
vt 0.540480 0.291693
vt 0.563597 0.291194
vt 0.566194 0.290694
vt 0.534710 0.290770
vt 0.568744 0.290099
vt 0.382304 0.284456
vt 0.571248 0.289409
vt 0.529176 0.289414
vt 0.709180 0.277631
vt 0.573704 0.288623
vt 0.576112 0.287743
vt 0.523879 0.287625
vt 0.578474 0.286767
vt 0.580788 0.285695
vt 0.518820 0.285402
vt 0.583056 0.284529
vt 0.585269 0.283274
vt 0.513998 0.282746
vt 0.587422 0.281938
vt 0.589514 0.280520
vt 0.509413 0.279657
vt 0.712557 0.268573
vt 0.591545 0.279022
vt 0.377689 0.273295
vt 0.593516 0.277443
vt 0.505066 0.276135
vt 0.595426 0.275782
vt 0.597275 0.274040
vt 0.599065 0.272217
vt 0.500955 0.272179
vt 0.600793 0.270312
vt 0.715643 0.259109
vt 0.602461 0.268327
vt 0.497082 0.267791
vt 0.604068 0.266260
vt 0.373726 0.261537
vt 0.605614 0.264113
vt 0.493445 0.262968
vt 0.606528 0.262746
vt 0.607431 0.261255
vt 0.608324 0.259641
vt 0.609207 0.257903
vt 0.610080 0.256041
vt 0.610943 0.254055
vt 0.611796 0.251946
vt 0.612639 0.249712
vt 0.613473 0.247355
vt 0.614295 0.244874
vt 0.615108 0.242269
vt 0.615912 0.239540
vt 0.490890 0.259047
vt 0.488539 0.254760
vt 0.370415 0.249182
vt 0.486392 0.250105
vt 0.484450 0.245084
vt 0.367755 0.236230
vt 0.482711 0.239695
vt 0.481178 0.233940
vt 0.479849 0.227817
vt 0.365747 0.222681
vt 0.478724 0.221328
vt 0.477804 0.214471
vt 0.364390 0.208535
vt 0.477088 0.207248
vt 0.476576 0.199658
vt 0.363686 0.193792
vt 0.476269 0.191700
vt 0.476149 0.181879
vt 0.363595 0.182674
vt 0.476297 0.172579
vt 0.363892 0.171885
vt 0.476713 0.163802
vt 0.364576 0.161424
vt 0.477398 0.155547
vt 0.365648 0.151290
vt 0.616516 0.147802
vt 0.715643 0.121167
vt 0.617960 0.153399
vt 0.478351 0.147814
vt 0.614951 0.142434
vt 0.367106 0.141484
vt 0.479572 0.140602
vt 0.613267 0.137298
vt 0.611463 0.132392
vt 0.481060 0.133914
vt 0.368952 0.132007
vt 0.609539 0.127716
vt 0.482818 0.127747
vt 0.607494 0.123270
vt 0.371185 0.122857
vt 0.484843 0.122103
vt 0.713739 0.114405
vt 0.605331 0.119056
vt 0.487137 0.116981
vt 0.603046 0.115071
vt 0.711682 0.107835
vt 0.373806 0.114036
vt 0.600642 0.111317
vt 0.489698 0.112381
vt 0.598118 0.107794
vt 0.709471 0.101460
vt 0.492528 0.108302
vt 0.376814 0.105542
vt 0.595475 0.104501
vt 0.495599 0.104639
vt 0.592711 0.101438
vt 0.707107 0.095277
vt 0.498884 0.101282
vt 0.589780 0.098619
vt 0.380209 0.097376
vt 0.502384 0.098231
vt 0.586638 0.096057
vt 0.704589 0.089288
vt 0.506099 0.095487
vt 0.583283 0.093752
vt 0.579715 0.091704
vt 0.510027 0.093049
vt 0.701917 0.083492
vt 0.383992 0.089538
vt 0.575936 0.089913
vt 0.514171 0.090918
vt 0.571945 0.088378
vt 0.518529 0.089093
vt 0.567740 0.087100
vt 0.523101 0.087575
vt 0.563324 0.086080
vt 0.699091 0.077889
vt 0.527887 0.086363
vt 0.558695 0.085316
vt 0.532889 0.085458
vt 0.553854 0.084809
vt 0.388162 0.082028
vt 0.538104 0.084858
vt 0.548800 0.084559
vt 0.543535 0.084566
vt 0.696113 0.072480
vt 0.392601 0.074862
vt 0.692981 0.067265
vt 0.397193 0.068055
vt 0.689694 0.062243
vt 0.686254 0.057414
vt 0.401937 0.061608
vt 0.682661 0.052778
vt 0.406832 0.055521
vt 0.678921 0.048337
vt 0.411879 0.049794
vt 0.675044 0.044087
vt 0.671028 0.040031
vt 0.417079 0.044426
vt 0.666874 0.036168
vt 0.422431 0.039418
vt 0.662582 0.032497
vt 0.427935 0.034770
vt 0.658152 0.029020
vt 0.653584 0.025736
vt 0.433591 0.030481
vt 0.648877 0.022645
vt 0.439399 0.026552
vt 0.644033 0.019747
vt 0.445359 0.022983
vt 0.639050 0.017042
vt 0.451471 0.019773
vt 0.633929 0.014530
vt 0.457813 0.016860
vt 0.628670 0.012210
vt 0.464462 0.014178
vt 0.623225 0.010089
vt 0.471419 0.011727
vt 0.617545 0.008169
vt 0.611631 0.006452
vt 0.478683 0.009509
vt 0.605483 0.004938
vt 0.486254 0.007522
vt 0.599100 0.003625
vt 0.494132 0.005767
vt 0.592483 0.002515
vt 0.502318 0.004244
vt 0.585631 0.001607
vt 0.510811 0.002952
vt 0.578545 0.000902
vt 0.519612 0.001892
vt 0.571225 0.000399
vt 0.528720 0.001065
vt 0.563670 0.000098
vt 0.538135 0.000468
vt 0.555881 0.000000
vt 0.547858 0.000104
vt 0.000000 0.395837
vt 0.363595 0.136658
vt 0.363595 0.259179
vt 0.269348 0.199159
vt 0.000000 0.000000
vt 0.138642 0.239090
vt 0.138642 0.158980
vt 0.060021 0.263395
vt 0.060021 0.135418
vt 0.000000 0.281005
vt 0.000000 0.117561
vt -0.000000 0.395837
vt 0.112848 0.685523
vt -0.000000 0.759432
vt 0.186758 0.759432
vt 0.196714 0.759231
vt 0.206244 0.758626
vt 0.215350 0.757619
vt 0.224029 0.756208
vt 0.232284 0.754394
vt 0.240113 0.752178
vt 0.247516 0.749558
vt 0.254494 0.746535
vt 0.261047 0.743110
vt 0.267174 0.739281
vt 0.272876 0.735049
vt 0.278152 0.730414
vt 0.283005 0.725407
vt 0.287436 0.720060
vt 0.291445 0.714371
vt 0.295032 0.708340
vt 0.298197 0.701970
vt 0.300939 0.695258
vt 0.303260 0.688204
vt 0.144843 0.685523
vt 0.149953 0.685440
vt 0.305159 0.680811
vt 0.112848 0.604421
vt 0.154784 0.685192
vt 0.159336 0.684779
vt 0.163609 0.684200
vt 0.167603 0.683456
vt 0.171319 0.682546
vt 0.174755 0.681472
vt 0.177912 0.680232
vt 0.306636 0.673075
vt 0.180790 0.678827
vt 0.183389 0.677255
vt 0.185709 0.675519
vt 0.187750 0.673618
vt 0.189572 0.671597
vt 0.307691 0.665000
vt 0.191236 0.669505
vt 0.192741 0.667340
vt 0.194088 0.665103
vt 0.195276 0.662793
vt 0.308324 0.656582
vt 0.196307 0.660411
vt 0.197178 0.657957
vt 0.197891 0.655430
vt 0.308535 0.647824
vt 0.198445 0.652831
vt 0.198841 0.650159
vt 0.199079 0.647416
vt 0.308305 0.638814
vt 0.199159 0.644600
vt 0.199067 0.641709
vt 0.198793 0.638906
vt 0.198337 0.636190
vt 0.307615 0.630139
vt 0.197698 0.633563
vt 0.196876 0.631024
vt 0.195872 0.628571
vt 0.306465 0.621798
vt 0.194686 0.626208
vt 0.193316 0.623932
vt 0.191765 0.621743
vt 0.304856 0.613790
vt 0.190030 0.619643
vt 0.188113 0.617630
vt 0.186014 0.615705
vt 0.183688 0.613903
vt 0.181095 0.612257
vt 0.302786 0.606117
vt 0.178232 0.610768
vt 0.175101 0.609437
vt 0.171701 0.608261
vt 0.168033 0.607242
vt 0.164095 0.606380
vt 0.159889 0.605674
vt 0.300257 0.598779
vt 0.155414 0.605127
vt 0.150671 0.604735
vt 0.145659 0.604499
vt 0.140379 0.604421
vt 0.112848 0.530759
vt 0.297268 0.591774
vt 0.293819 0.585103
vt 0.289910 0.578767
vt 0.285541 0.572764
vt 0.280713 0.567096
vt 0.275425 0.561762
vt 0.269664 0.556810
vt 0.263419 0.552289
vt 0.256691 0.548198
vt 0.249479 0.544538
vt 0.241783 0.541309
vt 0.233602 0.538510
vt 0.224938 0.536142
vt 0.215790 0.534204
vt 0.206157 0.532697
vt 0.196041 0.531621
vt 0.185441 0.530975
vt 0.174356 0.530759
vt 0.112848 0.395837
vt 0.518490 0.752075
vt 0.539172 0.752321
vt 0.527785 0.752321
vt 0.509533 0.751636
vt 0.550105 0.751954
vt 0.500916 0.751005
vt 0.560583 0.751220
vt 0.492637 0.750180
vt 0.484698 0.749164
vt 0.570608 0.750118
vt 0.477097 0.747954
vt 0.580179 0.748650
vt 0.469835 0.746552
vt 0.589295 0.746814
vt 0.462912 0.744956
vt 0.456328 0.743168
vt 0.597957 0.744610
vt 0.450084 0.741188
vt 0.606166 0.742040
vt 0.444178 0.739014
vt 0.613920 0.739103
vt 0.438611 0.736648
vt 0.433328 0.734113
vt 0.621220 0.735798
vt 0.428275 0.731434
vt 0.628066 0.732126
vt 0.423452 0.728610
vt 0.634457 0.728087
vt 0.418859 0.725642
vt 0.414494 0.722529
vt 0.640420 0.723648
vt 0.410360 0.719272
vt 0.645977 0.718778
vt 0.406456 0.715870
vt 0.402780 0.712324
vt 0.651129 0.713475
vt 0.399335 0.708633
vt 0.655877 0.707741
vt 0.396120 0.704798
vt 0.393133 0.700818
vt 0.660220 0.701575
vt 0.390377 0.696693
vt 0.664158 0.694977
vt 0.387849 0.692477
vt 0.385547 0.688221
vt 0.667691 0.687947
vt 0.383471 0.683926
vt 0.381621 0.679591
vt 0.514499 0.684336
vt 0.517696 0.684444
vt 0.521594 0.684428
vt 0.670819 0.680485
vt 0.511438 0.684114
vt 0.525351 0.684255
vt 0.508513 0.683779
vt 0.528968 0.683925
vt 0.505725 0.683331
vt 0.532443 0.683437
vt 0.503072 0.682770
vt 0.535779 0.682792
vt 0.500556 0.682095
vt 0.538974 0.681990
vt 0.498176 0.681308
vt 0.379998 0.675217
vt 0.542029 0.681030
vt 0.495932 0.680407
vt 0.493824 0.679392
vt 0.544943 0.679914
vt 0.491852 0.678264
vt 0.547717 0.678640
vt 0.490016 0.677024
vt 0.550350 0.677209
vt 0.673542 0.672591
vt 0.488317 0.675670
vt 0.378601 0.670803
vt 0.552843 0.675620
vt 0.486755 0.674235
vt 0.555195 0.673875
vt 0.485331 0.672753
vt 0.557413 0.671957
vt 0.484047 0.671222
vt 0.377430 0.666350
vt 0.482900 0.669645
vt 0.559506 0.669850
vt 0.481892 0.668019
vt 0.675861 0.664266
vt 0.561473 0.667556
vt 0.481023 0.666346
vt 0.376486 0.661857
vt 0.480292 0.664624
vt 0.563313 0.665074
vt 0.479700 0.662855
vt 0.565027 0.662403
vt 0.375768 0.657325
vt 0.479247 0.661039
vt 0.677774 0.655508
vt 0.566615 0.659545
vt 0.478932 0.659174
vt 0.478755 0.657262
vt 0.375276 0.652753
vt 0.568076 0.656498
vt 0.478717 0.655302
vt 0.478797 0.653869
vt 0.569411 0.653264
vt 0.375011 0.648142
vt 0.478990 0.652461
vt 0.479295 0.651079
vt 0.679283 0.646319
vt 0.570621 0.649841
vt 0.479715 0.649723
vt 0.374971 0.643491
vt 0.480248 0.648393
vt 0.571703 0.646230
vt 0.480893 0.647088
vt 0.481653 0.645810
vt 0.482525 0.644558
vt 0.375302 0.636491
vt 0.572660 0.642432
vt 0.483511 0.643332
vt 0.484610 0.642131
vt 0.573491 0.638445
vt 0.485822 0.640957
vt 0.487148 0.639808
vt 0.488641 0.638640
vt 0.490437 0.637490
vt 0.376071 0.629707
vt 0.492536 0.636359
vt 0.494937 0.635246
vt 0.497642 0.634152
vt 0.500649 0.633076
vt 0.503959 0.632019
vt 0.507572 0.630981
vt 0.377277 0.623141
vt 0.511488 0.629961
vt 0.515707 0.628960
vt 0.520229 0.627977
vt 0.525053 0.627013
vt 0.537081 0.624555
vt 0.378921 0.616792
vt 0.548528 0.622082
vt 0.559394 0.619595
vt 0.381003 0.610660
vt 0.569680 0.617094
vt 0.579386 0.614578
vt 0.588512 0.612048
vt 0.383521 0.604744
vt 0.597057 0.609504
vt 0.605023 0.606945
vt 0.386478 0.599047
vt 0.612407 0.604372
vt 0.619212 0.601785
vt 0.389872 0.593566
vt 0.625436 0.599183
vt 0.631080 0.596567
vt 0.393704 0.588302
vt 0.636315 0.593888
vt 0.641309 0.591096
vt 0.397973 0.583255
vt 0.646065 0.588192
vt 0.650581 0.585176
vt 0.402679 0.578425
vt 0.654857 0.582047
vt 0.407824 0.573812
vt 0.658894 0.578806
vt 0.662692 0.575453
vt 0.413439 0.569389
vt 0.666251 0.571988
vt 0.419640 0.565125
vt 0.669570 0.568410
vt 0.426428 0.561022
vt 0.672650 0.564720
vt 0.433802 0.557080
vt 0.675490 0.560917
vt 0.678091 0.557002
vt 0.441764 0.553300
vt 0.450312 0.549680
vt 0.680472 0.552991
vt 0.459446 0.546221
vt 0.682653 0.548896
vt 0.469167 0.542922
vt 0.684634 0.544719
vt 0.479474 0.539785
vt 0.686415 0.540460
vt 0.490369 0.536808
vt 0.687995 0.536118
vt 0.501849 0.533993
vt 0.513916 0.531337
vt 0.689375 0.531694
vt 0.521237 0.529792
vt 0.528104 0.528220
vt 0.690554 0.527188
vt 0.534517 0.526625
vt 0.540475 0.525006
vt 0.545979 0.523361
vt 0.691534 0.522599
vt 0.551028 0.521692
vt 0.555623 0.519999
vt 0.692313 0.517927
vt 0.559764 0.518282
vt 0.563450 0.516541
vt 0.566682 0.514774
vt 0.692892 0.513173
vt 0.569459 0.512984
vt 0.571783 0.511168
vt 0.693271 0.508338
vt 0.573793 0.509320
vt 0.363595 0.500187
vt 0.471067 0.504329
vt 0.470371 0.508572
vt 0.575631 0.507426
vt 0.577298 0.505489
vt 0.693449 0.503419
vt 0.471860 0.500259
vt 0.578794 0.503508
vt 0.364738 0.491161
vt 0.580118 0.501482
vt 0.472750 0.496363
vt 0.693407 0.497627
vt 0.581271 0.499413
vt 0.582251 0.497299
vt 0.473738 0.492641
vt 0.583061 0.495141
vt 0.693094 0.491907
vt 0.583698 0.492939
vt 0.366308 0.482412
vt 0.474822 0.489092
vt 0.584164 0.490694
vt 0.476004 0.485717
vt 0.584459 0.488404
vt 0.692512 0.486258
vt 0.584582 0.486070
vt 0.477283 0.482516
vt 0.584530 0.483614
vt 0.368304 0.473937
vt 0.691659 0.480680
vt 0.478659 0.479489
vt 0.584297 0.481205
vt 0.583883 0.478842
vt 0.480132 0.476636
vt 0.690537 0.475174
vt 0.583286 0.476527
vt 0.481702 0.473956
vt 0.370727 0.465738
vt 0.582508 0.474259
vt 0.483370 0.471451
vt 0.581548 0.472038
vt 0.689145 0.469740
vt 0.485134 0.469118
vt 0.580407 0.469864
vt 0.488186 0.465641
vt 0.579084 0.467738
vt 0.373575 0.457815
vt 0.687483 0.464377
vt 0.577580 0.465658
vt 0.491440 0.462472
vt 0.575893 0.463625
vt 0.494897 0.459614
vt 0.574026 0.461640
vt 0.685551 0.459086
vt 0.571976 0.459702
vt 0.376850 0.450166
vt 0.498554 0.457066
vt 0.569758 0.457864
vt 0.502413 0.454827
vt 0.567385 0.456180
vt 0.683350 0.453866
vt 0.564855 0.454651
vt 0.506475 0.452898
vt 0.562169 0.453276
vt 0.510738 0.451279
vt 0.559329 0.452056
vt 0.380552 0.442793
vt 0.556332 0.450989
vt 0.515203 0.449970
vt 0.680878 0.448718
vt 0.553179 0.450078
vt 0.519870 0.448971
vt 0.549871 0.449320
vt 0.524738 0.448281
vt 0.546407 0.448716
vt 0.542787 0.448267
vt 0.529808 0.447902
vt 0.539012 0.447972
vt 0.535080 0.447832
vt 0.678137 0.443642
vt 0.384679 0.435696
vt 0.675126 0.438636
vt 0.389233 0.428875
vt 0.671871 0.433764
vt 0.668400 0.429087
vt 0.394213 0.422329
vt 0.664713 0.424604
vt 0.399620 0.416058
vt 0.660808 0.420316
vt 0.656687 0.416223
vt 0.405452 0.410062
vt 0.652349 0.412324
vt 0.411890 0.404460
vt 0.647795 0.408620
vt 0.643024 0.405111
vt 0.419113 0.399365
vt 0.638036 0.401796
vt 0.427119 0.394778
vt 0.632831 0.398676
vt 0.627410 0.395750
vt 0.435910 0.390701
vt 0.621773 0.393020
vt 0.445485 0.387131
vt 0.615899 0.390490
vt 0.609771 0.388168
vt 0.455845 0.384070
vt 0.603388 0.386055
vt 0.466989 0.381518
vt 0.596750 0.384149
vt 0.589857 0.382450
vt 0.478917 0.379474
vt 0.582709 0.380960
vt 0.491630 0.377939
vt 0.575307 0.379678
vt 0.567650 0.378604
vt 0.505127 0.376912
vt 0.559738 0.377737
vt 0.519408 0.376394
vt 0.551572 0.377078
vt 0.543150 0.376627
vt 0.534474 0.376384
s 1
usemtl マテリアル.003
f 12/1/1 4/2/1 1/3/1
f 4/2/1 2/4/1 1/3/1
f 4/2/1 3/5/1 2/4/1
f 12/1/1 5/6/1 4/2/1
f 12/1/1 8/7/1 5/6/1
f 8/7/1 6/8/1 5/6/1
f 8/7/1 7/9/1 6/8/1
f 12/1/1 9/10/1 8/7/1
f 12/1/1 10/11/1 9/10/1
f 12/1/1 11/12/1 10/11/1
f 109/13/1 111/14/1 110/15/1
f 109/13/1 112/16/1 111/14/1
f 108/17/1 112/16/1 109/13/1
f 108/17/1 113/18/1 112/16/1
f 107/19/1 113/18/1 108/17/1
f 107/19/1 114/20/1 113/18/1
f 106/21/1 114/20/1 107/19/1
f 106/21/1 115/22/1 114/20/1
f 106/21/1 116/23/1 115/22/1
f 105/24/1 116/23/1 106/21/1
f 105/24/1 117/25/1 116/23/1
f 104/26/1 117/25/1 105/24/1
f 104/26/1 118/27/1 117/25/1
f 103/28/1 118/27/1 104/26/1
f 103/28/1 119/29/1 118/27/1
f 103/28/1 120/30/1 119/29/1
f 102/31/1 120/30/1 103/28/1
f 102/31/1 121/32/1 120/30/1
f 101/33/1 121/32/1 102/31/1
f 101/33/1 122/34/1 121/32/1
f 100/35/1 122/34/1 101/33/1
f 100/35/1 123/36/1 122/34/1
f 100/35/1 124/37/1 123/36/1
f 99/38/1 124/37/1 100/35/1
f 99/38/1 125/39/1 124/37/1
f 98/40/1 125/39/1 99/38/1
f 98/40/1 126/41/1 125/39/1
f 97/42/1 126/41/1 98/40/1
f 97/42/1 127/43/1 126/41/1
f 97/42/1 128/44/1 127/43/1
f 96/45/1 128/44/1 97/42/1
f 96/45/1 129/46/1 128/44/1
f 95/47/1 129/46/1 96/45/1
f 95/47/1 130/48/1 129/46/1
f 94/49/1 130/48/1 95/47/1
f 94/49/1 171/50/1 130/48/1
f 171/50/1 131/51/1 130/48/1
f 94/49/1 172/52/1 171/50/1
f 170/53/1 131/51/1 171/50/1
f 169/54/1 131/51/1 170/53/1
f 168/55/1 131/51/1 169/54/1
f 94/49/1 173/56/1 172/52/1
f 167/57/1 131/51/1 168/55/1
f 166/58/1 131/51/1 167/57/1
f 94/49/1 174/59/1 173/56/1
f 165/60/1 131/51/1 166/58/1
f 93/61/1 174/59/1 94/49/1
f 164/62/1 131/51/1 165/60/1
f 93/61/1 175/63/1 174/59/1
f 164/62/1 132/64/1 131/51/1
f 163/65/1 132/64/1 164/62/1
f 162/66/1 132/64/1 163/65/1
f 93/61/1 176/67/1 175/63/1
f 161/68/1 132/64/1 162/66/1
f 160/69/1 132/64/1 161/68/1
f 93/61/1 177/70/1 176/67/1
f 159/71/1 132/64/1 160/69/1
f 158/72/1 132/64/1 159/71/1
f 93/61/1 178/73/1 177/70/1
f 157/74/1 132/64/1 158/72/1
f 156/75/1 132/64/1 157/74/1
f 93/61/1 179/76/1 178/73/1
f 156/75/1 133/77/1 132/64/1
f 155/78/1 133/77/1 156/75/1
f 92/79/1 179/76/1 93/61/1
f 154/80/1 133/77/1 155/78/1
f 92/79/1 180/81/1 179/76/1
f 153/82/1 133/77/1 154/80/1
f 152/83/1 133/77/1 153/82/1
f 151/84/1 133/77/1 152/83/1
f 92/79/1 181/85/1 180/81/1
f 150/86/1 133/77/1 151/84/1
f 150/86/1 134/87/1 133/77/1
f 149/88/1 134/87/1 150/86/1
f 92/79/1 182/89/1 181/85/1
f 148/90/1 134/87/1 149/88/1
f 91/91/1 182/89/1 92/79/1
f 147/92/1 134/87/1 148/90/1
f 91/91/1 183/93/1 182/89/1
f 146/94/1 134/87/1 147/92/1
f 145/95/1 134/87/1 146/94/1
f 145/95/1 144/96/1 134/87/1
f 144/96/1 143/97/1 134/87/1
f 143/97/1 142/98/1 134/87/1
f 142/98/1 141/99/1 134/87/1
f 141/99/1 140/100/1 134/87/1
f 140/100/1 139/101/1 134/87/1
f 139/101/1 138/102/1 134/87/1
f 138/102/1 137/103/1 134/87/1
f 137/103/1 136/104/1 134/87/1
f 136/104/1 135/105/1 134/87/1
f 91/91/1 184/106/1 183/93/1
f 91/91/1 185/107/1 184/106/1
f 90/108/1 185/107/1 91/91/1
f 90/108/1 186/109/1 185/107/1
f 90/108/1 187/110/1 186/109/1
f 89/111/1 187/110/1 90/108/1
f 89/111/1 188/112/1 187/110/1
f 89/111/1 189/113/1 188/112/1
f 89/111/1 190/114/1 189/113/1
f 88/115/1 190/114/1 89/111/1
f 88/115/1 191/116/1 190/114/1
f 88/115/1 192/117/1 191/116/1
f 87/118/1 192/117/1 88/115/1
f 87/118/1 193/119/1 192/117/1
f 87/118/1 194/120/1 193/119/1
f 86/121/1 194/120/1 87/118/1
f 86/121/1 195/122/1 194/120/1
f 86/121/1 196/123/1 195/122/1
f 85/124/1 196/123/1 86/121/1
f 85/124/1 197/125/1 196/123/1
f 84/126/1 197/125/1 85/124/1
f 84/126/1 198/127/1 197/125/1
f 83/128/1 198/127/1 84/126/1
f 83/128/1 199/129/1 198/127/1
f 82/130/1 199/129/1 83/128/1
f 242/131/1 14/132/1 13/133/1
f 82/130/1 200/134/1 199/129/1
f 241/135/1 14/132/1 242/131/1
f 81/136/1 200/134/1 82/130/1
f 81/136/1 201/137/1 200/134/1
f 240/138/1 14/132/1 241/135/1
f 239/139/1 14/132/1 240/138/1
f 81/136/1 202/140/1 201/137/1
f 80/141/1 202/140/1 81/136/1
f 238/142/1 14/132/1 239/139/1
f 80/141/1 203/143/1 202/140/1
f 237/144/1 14/132/1 238/142/1
f 79/145/1 203/143/1 80/141/1
f 79/145/1 204/146/1 203/143/1
f 237/144/1 15/147/1 14/132/1
f 236/148/1 15/147/1 237/144/1
f 79/145/1 205/149/1 204/146/1
f 235/150/1 15/147/1 236/148/1
f 235/150/1 16/151/1 15/147/1
f 78/152/1 205/149/1 79/145/1
f 234/153/1 16/151/1 235/150/1
f 78/152/1 206/154/1 205/149/1
f 233/155/1 16/151/1 234/153/1
f 233/155/1 17/156/1 16/151/1
f 78/152/1 207/157/1 206/154/1
f 77/158/1 207/157/1 78/152/1
f 232/159/1 17/156/1 233/155/1
f 77/158/1 208/160/1 207/157/1
f 231/161/1 17/156/1 232/159/1
f 231/161/1 18/162/1 17/156/1
f 77/158/1 209/163/1 208/160/1
f 230/164/1 18/162/1 231/161/1
f 76/165/1 209/163/1 77/158/1
f 76/165/1 210/166/1 209/163/1
f 229/167/1 18/162/1 230/164/1
f 229/167/1 19/168/1 18/162/1
f 76/165/1 211/169/1 210/166/1
f 228/170/1 19/168/1 229/167/1
f 227/171/1 19/168/1 228/170/1
f 76/165/1 212/172/1 211/169/1
f 227/171/1 20/173/1 19/168/1
f 75/174/1 212/172/1 76/165/1
f 226/175/1 20/173/1 227/171/1
f 75/174/1 213/176/1 212/172/1
f 225/177/1 20/173/1 226/175/1
f 75/174/1 214/178/1 213/176/1
f 224/179/1 20/173/1 225/177/1
f 75/174/1 215/180/1 214/178/1
f 223/181/1 20/173/1 224/179/1
f 223/181/1 21/182/1 20/173/1
f 75/174/1 216/183/1 215/180/1
f 222/184/1 21/182/1 223/181/1
f 75/174/1 217/185/1 216/183/1
f 221/186/1 21/182/1 222/184/1
f 74/187/1 217/185/1 75/174/1
f 74/187/1 218/188/1 217/185/1
f 220/189/1 21/182/1 221/186/1
f 74/187/1 219/190/1 218/188/1
f 219/190/1 21/182/1 220/189/1
f 74/187/1 21/182/1 219/190/1
f 74/187/1 22/191/1 21/182/1
f 73/192/1 22/191/1 74/187/1
f 73/192/1 23/193/1 22/191/1
f 72/194/1 23/193/1 73/192/1
f 72/194/1 24/195/1 23/193/1
f 72/194/1 25/196/1 24/195/1
f 71/197/1 25/196/1 72/194/1
f 71/197/1 26/198/1 25/196/1
f 70/199/1 26/198/1 71/197/1
f 70/199/1 27/200/1 26/198/1
f 69/201/1 27/200/1 70/199/1
f 69/201/1 28/202/1 27/200/1
f 69/201/1 29/203/1 28/202/1
f 68/204/1 29/203/1 69/201/1
f 68/204/1 30/205/1 29/203/1
f 67/206/1 30/205/1 68/204/1
f 67/206/1 31/207/1 30/205/1
f 66/208/1 31/207/1 67/206/1
f 66/208/1 32/209/1 31/207/1
f 66/208/1 33/210/1 32/209/1
f 65/211/1 33/210/1 66/208/1
f 65/211/1 34/212/1 33/210/1
f 64/213/1 34/212/1 65/211/1
f 64/213/1 35/214/1 34/212/1
f 63/215/1 35/214/1 64/213/1
f 63/215/1 36/216/1 35/214/1
f 62/217/1 36/216/1 63/215/1
f 62/217/1 37/218/1 36/216/1
f 61/219/1 37/218/1 62/217/1
f 61/219/1 38/220/1 37/218/1
f 60/221/1 38/220/1 61/219/1
f 60/221/1 39/222/1 38/220/1
f 59/223/1 39/222/1 60/221/1
f 59/223/1 40/224/1 39/222/1
f 59/223/1 41/225/1 40/224/1
f 58/226/1 41/225/1 59/223/1
f 58/226/1 42/227/1 41/225/1
f 57/228/1 42/227/1 58/226/1
f 57/228/1 43/229/1 42/227/1
f 56/230/1 43/229/1 57/228/1
f 56/230/1 44/231/1 43/229/1
f 55/232/1 44/231/1 56/230/1
f 55/232/1 45/233/1 44/231/1
f 54/234/1 45/233/1 55/232/1
f 54/234/1 46/235/1 45/233/1
f 53/236/1 46/235/1 54/234/1
f 53/236/1 47/237/1 46/235/1
f 52/238/1 47/237/1 53/236/1
f 52/238/1 48/239/1 47/237/1
f 51/240/1 48/239/1 52/238/1
f 51/240/1 49/241/1 48/239/1
f 50/242/1 49/241/1 51/240/1
f 246/243/1 248/244/1 247/245/1
f 246/243/1 252/246/1 248/244/1
f 252/246/1 249/247/1 248/244/1
f 246/243/1 253/248/1 252/246/1
f 251/249/1 249/247/1 252/246/1
f 246/243/1 251/249/1 253/248/1
f 246/243/1 244/250/1 251/249/1
f 244/250/1 243/251/1 251/249/1
f 243/251/1 249/247/1 251/249/1
f 246/243/1 245/252/1 244/250/1
f 250/253/1 249/247/1 243/251/1
f 306/254/1 357/255/1 254/256/1
f 357/255/1 255/257/1 254/256/1
f 357/255/1 256/258/1 255/257/1
f 357/255/1 257/259/1 256/258/1
f 357/255/1 258/260/1 257/259/1
f 357/255/1 259/261/1 258/260/1
f 357/255/1 260/262/1 259/261/1
f 357/255/1 261/263/1 260/262/1
f 357/255/1 262/264/1 261/263/1
f 357/255/1 263/265/1 262/264/1
f 357/255/1 264/266/1 263/265/1
f 357/255/1 265/267/1 264/266/1
f 357/255/1 266/268/1 265/267/1
f 357/255/1 267/269/1 266/268/1
f 357/255/1 268/270/1 267/269/1
f 357/255/1 269/271/1 268/270/1
f 357/255/1 270/272/1 269/271/1
f 357/255/1 271/273/1 270/272/1
f 357/255/1 272/274/1 271/273/1
f 357/255/1 273/275/1 272/274/1
f 357/255/1 274/276/1 273/275/1
f 357/255/1 356/277/1 274/276/1
f 356/277/1 355/278/1 274/276/1
f 355/278/1 275/279/1 274/276/1
f 306/254/1 307/280/1 357/255/1
f 354/281/1 275/279/1 355/278/1
f 353/282/1 275/279/1 354/281/1
f 352/283/1 275/279/1 353/282/1
f 351/284/1 275/279/1 352/283/1
f 350/285/1 275/279/1 351/284/1
f 349/286/1 275/279/1 350/285/1
f 348/287/1 275/279/1 349/286/1
f 348/287/1 276/288/1 275/279/1
f 347/289/1 276/288/1 348/287/1
f 346/290/1 276/288/1 347/289/1
f 345/291/1 276/288/1 346/290/1
f 344/292/1 276/288/1 345/291/1
f 343/293/1 276/288/1 344/292/1
f 343/293/1 277/294/1 276/288/1
f 342/295/1 277/294/1 343/293/1
f 341/296/1 277/294/1 342/295/1
f 340/297/1 277/294/1 341/296/1
f 339/298/1 277/294/1 340/297/1
f 339/298/1 278/299/1 277/294/1
f 338/300/1 278/299/1 339/298/1
f 337/301/1 278/299/1 338/300/1
f 336/302/1 278/299/1 337/301/1
f 336/302/1 279/303/1 278/299/1
f 335/304/1 279/303/1 336/302/1
f 334/305/1 279/303/1 335/304/1
f 333/306/1 279/303/1 334/305/1
f 333/306/1 280/307/1 279/303/1
f 332/308/1 280/307/1 333/306/1
f 331/309/1 280/307/1 332/308/1
f 330/310/1 280/307/1 331/309/1
f 329/311/1 280/307/1 330/310/1
f 329/311/1 281/312/1 280/307/1
f 328/313/1 281/312/1 329/311/1
f 327/314/1 281/312/1 328/313/1
f 326/315/1 281/312/1 327/314/1
f 326/315/1 282/316/1 281/312/1
f 325/317/1 282/316/1 326/315/1
f 324/318/1 282/316/1 325/317/1
f 323/319/1 282/316/1 324/318/1
f 323/319/1 283/320/1 282/316/1
f 322/321/1 283/320/1 323/319/1
f 321/322/1 283/320/1 322/321/1
f 320/323/1 283/320/1 321/322/1
f 319/324/1 283/320/1 320/323/1
f 318/325/1 283/320/1 319/324/1
f 318/325/1 284/326/1 283/320/1
f 317/327/1 284/326/1 318/325/1
f 316/328/1 284/326/1 317/327/1
f 315/329/1 284/326/1 316/328/1
f 314/330/1 284/326/1 315/329/1
f 313/331/1 284/326/1 314/330/1
f 312/332/1 284/326/1 313/331/1
f 312/332/1 285/333/1 284/326/1
f 311/334/1 285/333/1 312/332/1
f 310/335/1 285/333/1 311/334/1
f 309/336/1 285/333/1 310/335/1
f 308/337/1 285/333/1 309/336/1
f 306/254/1 308/337/1 307/280/1
f 306/254/1 304/338/1 308/337/1
f 304/338/1 285/333/1 308/337/1
f 304/338/1 286/339/1 285/333/1
f 304/338/1 287/340/1 286/339/1
f 304/338/1 288/341/1 287/340/1
f 304/338/1 289/342/1 288/341/1
f 304/338/1 290/343/1 289/342/1
f 304/338/1 291/344/1 290/343/1
f 304/338/1 292/345/1 291/344/1
f 304/338/1 293/346/1 292/345/1
f 304/338/1 294/347/1 293/346/1
f 304/338/1 295/348/1 294/347/1
f 304/338/1 296/349/1 295/348/1
f 304/338/1 297/350/1 296/349/1
f 304/338/1 298/351/1 297/350/1
f 304/338/1 299/352/1 298/351/1
f 304/338/1 300/353/1 299/352/1
f 304/338/1 301/354/1 300/353/1
f 304/338/1 302/355/1 301/354/1
f 304/338/1 303/356/1 302/355/1
f 306/254/1 305/357/1 304/338/1
f 490/358/1 492/359/1 491/360/1
f 489/361/1 492/359/1 490/358/1
f 489/361/1 493/362/1 492/359/1
f 488/363/1 493/362/1 489/361/1
f 488/363/1 494/364/1 493/362/1
f 487/365/1 494/364/1 488/363/1
f 486/366/1 494/364/1 487/365/1
f 486/366/1 495/367/1 494/364/1
f 485/368/1 495/367/1 486/366/1
f 485/368/1 496/369/1 495/367/1
f 484/370/1 496/369/1 485/368/1
f 484/370/1 497/371/1 496/369/1
f 483/372/1 497/371/1 484/370/1
f 482/373/1 497/371/1 483/372/1
f 482/373/1 498/374/1 497/371/1
f 481/375/1 498/374/1 482/373/1
f 481/375/1 499/376/1 498/374/1
f 480/377/1 499/376/1 481/375/1
f 480/377/1 500/378/1 499/376/1
f 479/379/1 500/378/1 480/377/1
f 478/380/1 500/378/1 479/379/1
f 478/380/1 501/381/1 500/378/1
f 477/382/1 501/381/1 478/380/1
f 477/382/1 502/383/1 501/381/1
f 476/384/1 502/383/1 477/382/1
f 476/384/1 503/385/1 502/383/1
f 475/386/1 503/385/1 476/384/1
f 474/387/1 503/385/1 475/386/1
f 474/387/1 504/388/1 503/385/1
f 473/389/1 504/388/1 474/387/1
f 473/389/1 505/390/1 504/388/1
f 472/391/1 505/390/1 473/389/1
f 471/392/1 505/390/1 472/391/1
f 471/392/1 506/393/1 505/390/1
f 470/394/1 506/393/1 471/392/1
f 470/394/1 507/395/1 506/393/1
f 469/396/1 507/395/1 470/394/1
f 468/397/1 507/395/1 469/396/1
f 468/397/1 508/398/1 507/395/1
f 467/399/1 508/398/1 468/397/1
f 467/399/1 509/400/1 508/398/1
f 466/401/1 509/400/1 467/399/1
f 465/402/1 509/400/1 466/401/1
f 465/402/1 510/403/1 509/400/1
f 464/404/1 510/403/1 465/402/1
f 463/405/1 541/406/1 464/404/1
f 541/406/1 540/407/1 464/404/1
f 540/407/1 510/403/1 464/404/1
f 540/407/1 539/408/1 510/403/1
f 539/408/1 511/409/1 510/403/1
f 463/405/1 542/410/1 541/406/1
f 538/411/1 511/409/1 539/408/1
f 463/405/1 543/412/1 542/410/1
f 537/413/1 511/409/1 538/411/1
f 463/405/1 544/414/1 543/412/1
f 536/415/1 511/409/1 537/413/1
f 463/405/1 545/416/1 544/414/1
f 535/417/1 511/409/1 536/415/1
f 463/405/1 546/418/1 545/416/1
f 534/419/1 511/409/1 535/417/1
f 463/405/1 547/420/1 546/418/1
f 462/421/1 547/420/1 463/405/1
f 533/422/1 511/409/1 534/419/1
f 462/421/1 548/423/1 547/420/1
f 462/421/1 549/424/1 548/423/1
f 532/425/1 511/409/1 533/422/1
f 462/421/1 550/426/1 549/424/1
f 531/427/1 511/409/1 532/425/1
f 462/421/1 551/428/1 550/426/1
f 530/429/1 511/409/1 531/427/1
f 530/429/1 512/430/1 511/409/1
f 462/421/1 552/431/1 551/428/1
f 461/432/1 552/431/1 462/421/1
f 529/433/1 512/430/1 530/429/1
f 461/432/1 553/434/1 552/431/1
f 528/435/1 512/430/1 529/433/1
f 461/432/1 554/436/1 553/434/1
f 527/437/1 512/430/1 528/435/1
f 461/432/1 555/438/1 554/436/1
f 460/439/1 555/438/1 461/432/1
f 460/439/1 556/440/1 555/438/1
f 526/441/1 512/430/1 527/437/1
f 460/439/1 557/442/1 556/440/1
f 526/441/1 513/443/1 512/430/1
f 525/444/1 513/443/1 526/441/1
f 460/439/1 558/445/1 557/442/1
f 459/446/1 558/445/1 460/439/1
f 459/446/1 559/447/1 558/445/1
f 524/448/1 513/443/1 525/444/1
f 459/446/1 560/449/1 559/447/1
f 523/450/1 513/443/1 524/448/1
f 458/451/1 560/449/1 459/446/1
f 458/451/1 561/452/1 560/449/1
f 523/450/1 514/453/1 513/443/1
f 522/454/1 514/453/1 523/450/1
f 458/451/1 562/455/1 561/452/1
f 458/451/1 563/456/1 562/455/1
f 457/457/1 563/456/1 458/451/1
f 521/458/1 514/453/1 522/454/1
f 457/457/1 564/459/1 563/456/1
f 457/457/1 565/460/1 564/459/1
f 520/461/1 514/453/1 521/458/1
f 456/462/1 565/460/1 457/457/1
f 456/462/1 566/463/1 565/460/1
f 456/462/1 567/464/1 566/463/1
f 520/461/1 515/465/1 514/453/1
f 519/466/1 515/465/1 520/461/1
f 456/462/1 568/467/1 567/464/1
f 455/468/1 568/467/1 456/462/1
f 455/468/1 569/469/1 568/467/1
f 518/470/1 515/465/1 519/466/1
f 455/468/1 570/471/1 569/469/1
f 455/468/1 571/472/1 570/471/1
f 455/468/1 572/473/1 571/472/1
f 454/474/1 572/473/1 455/468/1
f 517/475/1 515/465/1 518/470/1
f 454/474/1 573/476/1 572/473/1
f 454/474/1 574/477/1 573/476/1
f 517/475/1 516/478/1 515/465/1
f 454/474/1 575/479/1 574/477/1
f 454/474/1 576/480/1 575/479/1
f 454/474/1 577/481/1 576/480/1
f 454/474/1 578/482/1 577/481/1
f 453/483/1 578/482/1 454/474/1
f 453/483/1 579/484/1 578/482/1
f 453/483/1 580/485/1 579/484/1
f 453/483/1 581/486/1 580/485/1
f 453/483/1 582/487/1 581/486/1
f 453/483/1 583/488/1 582/487/1
f 453/483/1 584/489/1 583/488/1
f 452/490/1 584/489/1 453/483/1
f 452/490/1 585/491/1 584/489/1
f 452/490/1 586/492/1 585/491/1
f 452/490/1 587/493/1 586/492/1
f 452/490/1 588/494/1 587/493/1
f 452/490/1 589/495/1 588/494/1
f 451/496/1 589/495/1 452/490/1
f 451/496/1 590/497/1 589/495/1
f 451/496/1 591/498/1 590/497/1
f 450/499/1 591/498/1 451/496/1
f 450/499/1 592/500/1 591/498/1
f 450/499/1 593/501/1 592/500/1
f 450/499/1 594/502/1 593/501/1
f 449/503/1 594/502/1 450/499/1
f 449/503/1 595/504/1 594/502/1
f 449/503/1 596/505/1 595/504/1
f 448/506/1 596/505/1 449/503/1
f 448/506/1 597/507/1 596/505/1
f 448/506/1 598/508/1 597/507/1
f 447/509/1 598/508/1 448/506/1
f 447/509/1 599/510/1 598/508/1
f 447/509/1 600/511/1 599/510/1
f 446/512/1 600/511/1 447/509/1
f 446/512/1 601/513/1 600/511/1
f 446/512/1 602/514/1 601/513/1
f 445/515/1 602/514/1 446/512/1
f 445/515/1 603/516/1 602/514/1
f 445/515/1 604/517/1 603/516/1
f 444/518/1 604/517/1 445/515/1
f 444/518/1 605/519/1 604/517/1
f 443/520/1 605/519/1 444/518/1
f 443/520/1 606/521/1 605/519/1
f 443/520/1 607/522/1 606/521/1
f 442/523/1 607/522/1 443/520/1
f 442/523/1 608/524/1 607/522/1
f 441/525/1 608/524/1 442/523/1
f 441/525/1 609/526/1 608/524/1
f 440/527/1 609/526/1 441/525/1
f 440/527/1 610/528/1 609/526/1
f 439/529/1 610/528/1 440/527/1
f 439/529/1 611/530/1 610/528/1
f 439/529/1 612/531/1 611/530/1
f 438/532/1 612/531/1 439/529/1
f 437/533/1 612/531/1 438/532/1
f 437/533/1 613/534/1 612/531/1
f 436/535/1 613/534/1 437/533/1
f 436/535/1 614/536/1 613/534/1
f 435/537/1 614/536/1 436/535/1
f 435/537/1 615/538/1 614/536/1
f 434/539/1 615/538/1 435/537/1
f 434/539/1 616/540/1 615/538/1
f 433/541/1 616/540/1 434/539/1
f 433/541/1 617/542/1 616/540/1
f 432/543/1 617/542/1 433/541/1
f 431/544/1 617/542/1 432/543/1
f 431/544/1 618/545/1 617/542/1
f 430/546/1 618/545/1 431/544/1
f 429/547/1 618/545/1 430/546/1
f 429/547/1 619/548/1 618/545/1
f 428/549/1 619/548/1 429/547/1
f 427/550/1 619/548/1 428/549/1
f 426/551/1 619/548/1 427/550/1
f 426/551/1 620/552/1 619/548/1
f 425/553/1 620/552/1 426/551/1
f 424/554/1 620/552/1 425/553/1
f 424/554/1 621/555/1 620/552/1
f 423/556/1 621/555/1 424/554/1
f 422/557/1 621/555/1 423/556/1
f 421/558/1 621/555/1 422/557/1
f 421/558/1 622/559/1 621/555/1
f 420/560/1 622/559/1 421/558/1
f 419/561/1 622/559/1 420/560/1
f 419/561/1 623/562/1 622/559/1
f 418/563/1 623/562/1 419/561/1
f 358/564/1 360/565/1 359/566/1
f 417/567/1 623/562/1 418/563/1
f 416/568/1 623/562/1 417/567/1
f 416/568/1 624/569/1 623/562/1
f 358/564/1 361/570/1 360/565/1
f 415/571/1 624/569/1 416/568/1
f 683/572/1 361/570/1 358/564/1
f 414/573/1 624/569/1 415/571/1
f 683/572/1 362/574/1 361/570/1
f 414/573/1 625/575/1 624/569/1
f 413/576/1 625/575/1 414/573/1
f 412/577/1 625/575/1 413/576/1
f 683/572/1 363/578/1 362/574/1
f 411/579/1 625/575/1 412/577/1
f 411/579/1 626/580/1 625/575/1
f 410/581/1 626/580/1 411/579/1
f 682/582/1 363/578/1 683/572/1
f 682/582/1 364/583/1 363/578/1
f 409/584/1 626/580/1 410/581/1
f 682/582/1 365/585/1 364/583/1
f 408/586/1 626/580/1 409/584/1
f 408/586/1 627/587/1 626/580/1
f 407/588/1 627/587/1 408/586/1
f 682/582/1 366/589/1 365/585/1
f 406/590/1 627/587/1 407/588/1
f 681/591/1 366/589/1 682/582/1
f 406/590/1 628/592/1 627/587/1
f 681/591/1 367/593/1 366/589/1
f 405/594/1 628/592/1 406/590/1
f 404/595/1 628/592/1 405/594/1
f 681/591/1 368/596/1 367/593/1
f 404/595/1 629/597/1 628/592/1
f 403/598/1 629/597/1 404/595/1
f 681/591/1 369/599/1 368/596/1
f 680/600/1 369/599/1 681/591/1
f 402/601/1 629/597/1 403/598/1
f 680/600/1 370/602/1 369/599/1
f 401/603/1 629/597/1 402/601/1
f 401/603/1 630/604/1 629/597/1
f 680/600/1 371/605/1 370/602/1
f 400/606/1 630/604/1 401/603/1
f 680/600/1 372/607/1 371/605/1
f 399/608/1 630/604/1 400/606/1
f 679/609/1 372/607/1 680/600/1
f 399/608/1 631/610/1 630/604/1
f 398/611/1 631/610/1 399/608/1
f 679/609/1 373/612/1 372/607/1
f 397/613/1 631/610/1 398/611/1
f 679/609/1 374/614/1 373/612/1
f 396/615/1 631/610/1 397/613/1
f 396/615/1 632/616/1 631/610/1
f 395/617/1 632/616/1 396/615/1
f 678/618/1 374/614/1 679/609/1
f 678/618/1 375/619/1 374/614/1
f 394/620/1 632/616/1 395/617/1
f 678/618/1 376/621/1 375/619/1
f 393/622/1 632/616/1 394/620/1
f 393/622/1 633/623/1 632/616/1
f 392/624/1 633/623/1 393/622/1
f 678/618/1 377/625/1 376/621/1
f 391/626/1 633/623/1 392/624/1
f 678/618/1 378/627/1 377/625/1
f 390/628/1 633/623/1 391/626/1
f 677/629/1 378/627/1 678/618/1
f 389/630/1 633/623/1 390/628/1
f 677/629/1 379/631/1 378/627/1
f 389/630/1 634/632/1 633/623/1
f 388/633/1 634/632/1 389/630/1
f 677/629/1 380/634/1 379/631/1
f 387/635/1 634/632/1 388/633/1
f 677/629/1 381/636/1 380/634/1
f 386/637/1 634/632/1 387/635/1
f 385/638/1 634/632/1 386/637/1
f 677/629/1 382/639/1 381/636/1
f 384/640/1 634/632/1 385/638/1
f 677/629/1 383/641/1 382/639/1
f 383/641/1 634/632/1 384/640/1
f 677/629/1 634/632/1 383/641/1
f 677/629/1 635/642/1 634/632/1
f 676/643/1 635/642/1 677/629/1
f 676/643/1 636/644/1 635/642/1
f 675/645/1 636/644/1 676/643/1
f 675/645/1 637/646/1 636/644/1
f 675/645/1 638/647/1 637/646/1
f 674/648/1 638/647/1 675/645/1
f 674/648/1 639/649/1 638/647/1
f 673/650/1 639/649/1 674/648/1
f 673/650/1 640/651/1 639/649/1
f 673/650/1 641/652/1 640/651/1
f 672/653/1 641/652/1 673/650/1
f 672/653/1 642/654/1 641/652/1
f 671/655/1 642/654/1 672/653/1
f 671/655/1 643/656/1 642/654/1
f 671/655/1 644/657/1 643/656/1
f 670/658/1 644/657/1 671/655/1
f 670/658/1 645/659/1 644/657/1
f 669/660/1 645/659/1 670/658/1
f 669/660/1 646/661/1 645/659/1
f 669/660/1 647/662/1 646/661/1
f 668/663/1 647/662/1 669/660/1
f 668/663/1 648/664/1 647/662/1
f 667/665/1 648/664/1 668/663/1
f 667/665/1 649/666/1 648/664/1
f 667/665/1 650/667/1 649/666/1
f 666/668/1 650/667/1 667/665/1
f 666/668/1 651/669/1 650/667/1
f 665/670/1 651/669/1 666/668/1
f 665/670/1 652/671/1 651/669/1
f 665/670/1 653/672/1 652/671/1
f 664/673/1 653/672/1 665/670/1
f 664/673/1 654/674/1 653/672/1
f 663/675/1 654/674/1 664/673/1
f 663/675/1 655/676/1 654/674/1
f 663/675/1 656/677/1 655/676/1
f 662/678/1 656/677/1 663/675/1
f 662/678/1 657/679/1 656/677/1
f 661/680/1 657/679/1 662/678/1
f 661/680/1 658/681/1 657/679/1
f 661/680/1 659/682/1 658/681/1
f 660/683/1 659/682/1 661/680/1
