# Blender 4.4.1
# www.blender.org
mtllib stageSelect.mtl
o テキスト
v 2.739131 0.000000 -0.080645
v 2.759117 0.000000 -0.129032
v 2.750354 0.000000 -0.133155
v 2.740322 0.000000 -0.137587
v 2.729215 0.000000 -0.142258
v 2.717223 0.000000 -0.147096
v 2.704540 0.000000 -0.152032
v 2.691357 0.000000 -0.156995
v 2.677868 0.000000 -0.161914
v 2.664264 0.000000 -0.166719
v 2.650739 0.000000 -0.171338
v 2.637483 0.000000 -0.175702
v 2.624691 0.000000 -0.179739
v 2.612553 0.000000 -0.183380
v 2.612553 0.000000 -0.235273
v 2.612588 0.000000 -0.238887
v 2.612689 0.000000 -0.242530
v 2.612849 0.000000 -0.246187
v 2.613059 0.000000 -0.249844
v 2.613314 0.000000 -0.253487
v 2.613605 0.000000 -0.257100
v 2.613925 0.000000 -0.260670
v 2.614267 0.000000 -0.264181
v 2.614624 0.000000 -0.267619
v 2.614988 0.000000 -0.270970
v 2.615352 0.000000 -0.274218
v 2.615709 0.000000 -0.277349
v 2.561010 0.000000 -0.277349
v 2.561595 0.000000 -0.274178
v 2.562122 0.000000 -0.270824
v 2.562593 0.000000 -0.267323
v 2.563010 0.000000 -0.263714
v 2.563373 0.000000 -0.260031
v 2.563684 0.000000 -0.256311
v 2.563943 0.000000 -0.252592
v 2.564153 0.000000 -0.248909
v 2.564314 0.000000 -0.245299
v 2.564427 0.000000 -0.241799
v 2.564494 0.000000 -0.238445
v 2.564516 0.000000 -0.235273
v 2.564516 0.000000 -0.225555
v 2.564516 0.000000 -0.211841
v 2.564516 0.000000 -0.194945
v 2.564516 0.000000 -0.175679
v 2.564516 0.000000 -0.154855
v 2.564516 0.000000 -0.133284
v 2.564516 0.000000 -0.111778
v 2.564516 0.000000 -0.091151
v 2.564516 0.000000 -0.072214
v 2.564516 0.000000 -0.055778
v 2.564516 0.000000 -0.042656
v 2.564516 0.000000 -0.033661
v 2.564487 0.000000 -0.030016
v 2.564403 0.000000 -0.026129
v 2.564264 0.000000 -0.022046
v 2.564075 0.000000 -0.017817
v 2.563837 0.000000 -0.013491
v 2.563552 0.000000 -0.009116
v 2.563224 0.000000 -0.004742
v 2.562854 0.000000 -0.000416
v 2.562445 0.000000 0.003813
v 2.562000 0.000000 0.007896
v 2.561521 0.000000 0.011783
v 2.561010 0.000000 0.015428
v 2.615709 0.000000 0.015428
v 2.615352 0.000000 0.011636
v 2.614988 0.000000 0.007506
v 2.614624 0.000000 0.003123
v 2.614267 0.000000 -0.001428
v 2.613925 0.000000 -0.006063
v 2.613605 0.000000 -0.010694
v 2.613314 0.000000 -0.015238
v 2.613060 0.000000 -0.019609
v 2.612849 0.000000 -0.023722
v 2.612689 0.000000 -0.027492
v 2.612588 0.000000 -0.030833
v 2.612553 0.000000 -0.033661
v 2.612553 0.000000 -0.132889
v 2.622309 0.000000 -0.129498
v 2.632570 0.000000 -0.125830
v 2.643228 0.000000 -0.121916
v 2.654174 0.000000 -0.117786
v 2.665301 0.000000 -0.113472
v 2.676500 0.000000 -0.109002
v 2.687662 0.000000 -0.104409
v 2.698679 0.000000 -0.099722
v 2.709443 0.000000 -0.094972
v 2.719845 0.000000 -0.090188
v 2.729777 0.000000 -0.085403
v 2.128331 0.000000 -0.140603
v 2.167602 0.000000 -0.111501
v 2.176110 0.000000 -0.117523
v 2.184447 0.000000 -0.123825
v 2.192600 0.000000 -0.130380
v 2.200561 0.000000 -0.137162
v 2.208317 0.000000 -0.144143
v 2.215857 0.000000 -0.151297
v 2.223171 0.000000 -0.158598
v 2.230248 0.000000 -0.166017
v 2.237076 0.000000 -0.173530
v 2.243645 0.000000 -0.181107
v 2.249943 0.000000 -0.188724
v 2.255961 0.000000 -0.196353
v 2.354488 0.000000 -0.196353
v 2.352785 0.000000 -0.189468
v 2.350508 0.000000 -0.182031
v 2.347695 0.000000 -0.174149
v 2.344385 0.000000 -0.165926
v 2.340617 0.000000 -0.157471
v 2.336431 0.000000 -0.148887
v 2.331864 0.000000 -0.140281
v 2.326957 0.000000 -0.131759
v 2.321748 0.000000 -0.123428
v 2.316276 0.000000 -0.115392
v 2.310580 0.000000 -0.107758
v 2.304698 0.000000 -0.100631
v 2.296876 0.000000 -0.092044
v 2.288607 0.000000 -0.083648
v 2.279809 0.000000 -0.075462
v 2.270401 0.000000 -0.067503
v 2.260302 0.000000 -0.059787
v 2.249430 0.000000 -0.052332
v 2.237703 0.000000 -0.045154
v 2.225040 0.000000 -0.038271
v 2.211359 0.000000 -0.031699
v 2.196579 0.000000 -0.025456
v 2.180618 0.000000 -0.019559
v 2.163394 0.000000 -0.014025
v 2.204769 0.000000 0.023142
v 2.220767 0.000000 0.016522
v 2.235837 0.000000 0.009633
v 2.250028 0.000000 0.002465
v 2.263389 0.000000 -0.004987
v 2.275971 0.000000 -0.012731
v 2.287824 0.000000 -0.020775
v 2.298998 0.000000 -0.029126
v 2.309542 0.000000 -0.037790
v 2.319507 0.000000 -0.046776
v 2.328942 0.000000 -0.056091
v 2.337898 0.000000 -0.065742
v 2.346424 0.000000 -0.075736
v 2.354072 0.000000 -0.085694
v 2.361243 0.000000 -0.095880
v 2.367938 0.000000 -0.106214
v 2.374162 0.000000 -0.116617
v 2.379919 0.000000 -0.127011
v 2.385212 0.000000 -0.137316
v 2.390045 0.000000 -0.147453
v 2.394421 0.000000 -0.157342
v 2.398345 0.000000 -0.166906
v 2.401819 0.000000 -0.176064
v 2.404847 0.000000 -0.184737
v 2.407434 0.000000 -0.192847
v 2.408177 0.000000 -0.195058
v 2.408997 0.000000 -0.197298
v 2.409882 0.000000 -0.199553
v 2.410823 0.000000 -0.201808
v 2.411807 0.000000 -0.204048
v 2.412824 0.000000 -0.206259
v 2.413863 0.000000 -0.208426
v 2.414913 0.000000 -0.210535
v 2.415963 0.000000 -0.212570
v 2.417002 0.000000 -0.214518
v 2.418020 0.000000 -0.216364
v 2.419004 0.000000 -0.218093
v 2.383240 0.000000 -0.240182
v 2.381153 0.000000 -0.239584
v 2.378935 0.000000 -0.239018
v 2.376600 0.000000 -0.238489
v 2.374163 0.000000 -0.238001
v 2.371638 0.000000 -0.237556
v 2.369040 0.000000 -0.237158
v 2.366383 0.000000 -0.236812
v 2.363683 0.000000 -0.236520
v 2.360953 0.000000 -0.236287
v 2.358209 0.000000 -0.236116
v 2.355465 0.000000 -0.236011
v 2.352735 0.000000 -0.235975
v 2.282258 0.000000 -0.235975
v 2.283310 0.000000 -0.237728
v 2.284461 0.000000 -0.239818
v 2.285795 0.000000 -0.242203
v 2.287293 0.000000 -0.244845
v 2.288933 0.000000 -0.247701
v 2.290695 0.000000 -0.250734
v 2.292558 0.000000 -0.253901
v 2.294501 0.000000 -0.257163
v 2.296504 0.000000 -0.260480
v 2.298546 0.000000 -0.263812
v 2.300606 0.000000 -0.267118
v 2.302664 0.000000 -0.270358
v 2.304698 0.000000 -0.273492
v 2.253506 0.000000 -0.290323
v 2.252634 0.000000 -0.287261
v 2.251607 0.000000 -0.284065
v 2.250449 0.000000 -0.280773
v 2.249182 0.000000 -0.277427
v 2.247827 0.000000 -0.274066
v 2.246406 0.000000 -0.270731
v 2.244942 0.000000 -0.267462
v 2.243455 0.000000 -0.264298
v 2.241969 0.000000 -0.261280
v 2.240504 0.000000 -0.258449
v 2.239083 0.000000 -0.255844
v 2.237728 0.000000 -0.253506
v 2.233065 0.000000 -0.245667
v 2.227798 0.000000 -0.237278
v 2.221868 0.000000 -0.228420
v 2.215210 0.000000 -0.219170
v 2.207763 0.000000 -0.209609
v 2.199465 0.000000 -0.199816
v 2.190254 0.000000 -0.189869
v 2.180068 0.000000 -0.179848
v 2.168845 0.000000 -0.169831
v 2.156523 0.000000 -0.159899
v 2.143039 0.000000 -0.150130
v 1.821529 0.000000 -0.014025
v 1.854839 0.000000 0.014727
v 1.856846 0.000000 0.013469
v 1.858830 0.000000 0.012321
v 1.860783 0.000000 0.011275
v 1.862695 0.000000 0.010324
v 1.864559 0.000000 0.009461
v 1.866366 0.000000 0.008678
v 1.868106 0.000000 0.007968
v 1.869773 0.000000 0.007324
v 1.871357 0.000000 0.006739
v 1.872849 0.000000 0.006204
v 1.874242 0.000000 0.005714
v 1.875526 0.000000 0.005259
v 1.895993 0.000000 -0.001798
v 1.915987 0.000000 -0.009472
v 1.935457 0.000000 -0.017767
v 1.954353 0.000000 -0.026687
v 1.972626 0.000000 -0.036235
v 1.990226 0.000000 -0.046415
v 2.007103 0.000000 -0.057230
v 2.023207 0.000000 -0.068685
v 2.038487 0.000000 -0.080782
v 2.052895 0.000000 -0.093526
v 2.066380 0.000000 -0.106920
v 2.078892 0.000000 -0.120968
v 2.053997 0.000000 -0.160589
v 2.042114 0.000000 -0.147130
v 2.029032 0.000000 -0.134144
v 2.014940 0.000000 -0.121696
v 2.000026 0.000000 -0.109851
v 1.984478 0.000000 -0.098674
v 1.968487 0.000000 -0.088228
v 1.952240 0.000000 -0.078578
v 1.935925 0.000000 -0.069789
v 1.919733 0.000000 -0.061925
v 1.903851 0.000000 -0.055051
v 1.888468 0.000000 -0.049231
v 1.873773 0.000000 -0.044530
v 1.873773 0.000000 -0.052972
v 1.873773 0.000000 -0.064586
v 1.873773 0.000000 -0.078788
v 1.873773 0.000000 -0.094995
v 1.873773 0.000000 -0.112624
v 1.873773 0.000000 -0.131092
v 1.873773 0.000000 -0.149816
v 1.873773 0.000000 -0.168212
v 1.873773 0.000000 -0.185698
v 1.873773 0.000000 -0.201689
v 1.873773 0.000000 -0.215604
v 1.873773 0.000000 -0.226858
v 1.873802 0.000000 -0.230256
v 1.873886 0.000000 -0.233618
v 1.874025 0.000000 -0.236950
v 1.874214 0.000000 -0.240260
v 1.874453 0.000000 -0.243556
v 1.874737 0.000000 -0.246844
v 1.875065 0.000000 -0.250133
v 1.875435 0.000000 -0.253428
v 1.875844 0.000000 -0.256739
v 1.876289 0.000000 -0.260071
v 1.876768 0.000000 -0.263432
v 1.877279 0.000000 -0.266830
v 1.822230 0.000000 -0.266830
v 1.822748 0.000000 -0.264162
v 1.823246 0.000000 -0.261264
v 1.823720 0.000000 -0.258169
v 1.824165 0.000000 -0.254909
v 1.824576 0.000000 -0.251518
v 1.824947 0.000000 -0.248028
v 1.825275 0.000000 -0.244472
v 1.825554 0.000000 -0.240884
v 1.825780 0.000000 -0.237295
v 1.825947 0.000000 -0.233739
v 1.826051 0.000000 -0.230250
v 1.826087 0.000000 -0.226858
v 1.826087 0.000000 -0.215445
v 1.826087 0.000000 -0.201093
v 1.826087 0.000000 -0.184443
v 1.826087 0.000000 -0.166134
v 1.826087 0.000000 -0.146808
v 1.826087 0.000000 -0.127104
v 1.826087 0.000000 -0.107663
v 1.826087 0.000000 -0.089125
v 1.826087 0.000000 -0.072131
v 1.826087 0.000000 -0.057322
v 1.826087 0.000000 -0.045337
v 1.826087 0.000000 -0.036816
v 1.826078 0.000000 -0.034841
v 1.826042 0.000000 -0.032937
v 1.825966 0.000000 -0.031086
v 1.825840 0.000000 -0.029271
v 1.825651 0.000000 -0.027476
v 1.825386 0.000000 -0.025684
v 1.825033 0.000000 -0.023877
v 1.824581 0.000000 -0.022038
v 1.824016 0.000000 -0.020150
v 1.823327 0.000000 -0.018197
v 1.822502 0.000000 -0.016161
v 1.599579 0.000000 -0.102384
v 1.638149 0.000000 -0.079593
v 1.644585 0.000000 -0.086275
v 1.651219 0.000000 -0.093774
v 1.657970 0.000000 -0.101946
v 1.664758 0.000000 -0.110644
v 1.671501 0.000000 -0.119721
v 1.678121 0.000000 -0.129032
v 1.684536 0.000000 -0.138431
v 1.690665 0.000000 -0.147772
v 1.696430 0.000000 -0.156907
v 1.701749 0.000000 -0.165693
v 1.706542 0.000000 -0.173981
v 1.710729 0.000000 -0.181627
v 1.711560 0.000000 -0.183238
v 1.712463 0.000000 -0.184906
v 1.713425 0.000000 -0.186612
v 1.714430 0.000000 -0.188341
v 1.715465 0.000000 -0.190074
v 1.716515 0.000000 -0.191795
v 1.717564 0.000000 -0.193487
v 1.718599 0.000000 -0.195133
v 1.719605 0.000000 -0.196715
v 1.720566 0.000000 -0.198217
v 1.721470 0.000000 -0.199622
v 1.722300 0.000000 -0.200912
v 1.688640 0.000000 -0.226858
v 1.686938 0.000000 -0.226003
v 1.685164 0.000000 -0.225190
v 1.683320 0.000000 -0.224415
v 1.681406 0.000000 -0.223677
v 1.679424 0.000000 -0.222973
v 1.677376 0.000000 -0.222300
v 1.675261 0.000000 -0.221657
v 1.673082 0.000000 -0.221040
v 1.670840 0.000000 -0.220448
v 1.668535 0.000000 -0.219878
v 1.666170 0.000000 -0.219327
v 1.663745 0.000000 -0.218794
v 1.659124 0.000000 -0.217709
v 1.653224 0.000000 -0.216396
v 1.646153 0.000000 -0.214877
v 1.638019 0.000000 -0.213171
v 1.628930 0.000000 -0.211299
v 1.618995 0.000000 -0.209283
v 1.608323 0.000000 -0.207142
v 1.597021 0.000000 -0.204898
v 1.585198 0.000000 -0.202572
v 1.572962 0.000000 -0.200183
v 1.560422 0.000000 -0.197753
v 1.547686 0.000000 -0.195302
v 1.547686 0.000000 -0.236676
v 1.547714 0.000000 -0.239766
v 1.547798 0.000000 -0.243047
v 1.547933 0.000000 -0.246477
v 1.548115 0.000000 -0.250013
v 1.548340 0.000000 -0.253612
v 1.548606 0.000000 -0.257232
v 1.548909 0.000000 -0.260830
v 1.549244 0.000000 -0.264363
v 1.549609 0.000000 -0.267789
v 1.549999 0.000000 -0.271065
v 1.550411 0.000000 -0.274150
v 1.550842 0.000000 -0.276999
v 1.498598 0.000000 -0.276999
v 1.499021 0.000000 -0.274143
v 1.499414 0.000000 -0.271041
v 1.499775 0.000000 -0.267740
v 1.500104 0.000000 -0.264285
v 1.500398 0.000000 -0.260723
v 1.500658 0.000000 -0.257100
v 1.500880 0.000000 -0.253463
v 1.501065 0.000000 -0.249857
v 1.501211 0.000000 -0.246329
v 1.501317 0.000000 -0.242926
v 1.501381 0.000000 -0.239692
v 1.501403 0.000000 -0.236676
v 1.501403 0.000000 -0.186536
v 1.492811 0.000000 -0.184981
v 1.484416 0.000000 -0.183477
v 1.476256 0.000000 -0.182032
v 1.468365 0.000000 -0.180653
v 1.460782 0.000000 -0.179347
v 1.453541 0.000000 -0.178121
v 1.446681 0.000000 -0.176982
v 1.440237 0.000000 -0.175939
v 1.434246 0.000000 -0.174998
v 1.428744 0.000000 -0.174166
v 1.423768 0.000000 -0.173452
v 1.419355 0.000000 -0.172861
v 1.427770 0.000000 -0.126928
v 1.431716 0.000000 -0.127848
v 1.436171 0.000000 -0.128850
v 1.441100 0.000000 -0.129931
v 1.446470 0.000000 -0.131084
v 1.452250 0.000000 -0.132306
v 1.458406 0.000000 -0.133590
v 1.464906 0.000000 -0.134934
v 1.471716 0.000000 -0.136331
v 1.478803 0.000000 -0.137776
v 1.486135 0.000000 -0.139266
v 1.493680 0.000000 -0.140794
v 1.501403 0.000000 -0.142356
v 1.501403 0.000000 -0.046634
v 1.501677 0.000000 -0.036749
v 1.502630 0.000000 -0.027775
v 1.504460 0.000000 -0.019701
v 1.507363 0.000000 -0.012519
v 1.511538 0.000000 -0.006218
v 1.517181 0.000000 -0.000789
v 1.524490 0.000000 0.003778
v 1.533661 0.000000 0.007493
v 1.544892 0.000000 0.010366
v 1.558380 0.000000 0.012405
v 1.574323 0.000000 0.013622
v 1.592917 0.000000 0.014025
v 1.602381 0.000000 0.013954
v 1.611975 0.000000 0.013746
v 1.621636 0.000000 0.013412
v 1.631305 0.000000 0.012960
v 1.640920 0.000000 0.012402
v 1.650421 0.000000 0.011746
v 1.659746 0.000000 0.011003
v 1.668835 0.000000 0.010181
v 1.677628 0.000000 0.009292
v 1.686062 0.000000 0.008344
v 1.694077 0.000000 0.007347
v 1.701613 0.000000 0.006311
v 1.703015 0.000000 -0.041374
v 1.694253 0.000000 -0.039667
v 1.685338 0.000000 -0.038056
v 1.676291 0.000000 -0.036553
v 1.667134 0.000000 -0.035167
v 1.657890 0.000000 -0.033907
v 1.648580 0.000000 -0.032784
v 1.639226 0.000000 -0.031807
v 1.629851 0.000000 -0.030985
v 1.620475 0.000000 -0.030330
v 1.611121 0.000000 -0.029849
v 1.601811 0.000000 -0.029554
v 1.592567 0.000000 -0.029453
v 1.583581 0.000000 -0.029617
v 1.575850 0.000000 -0.030125
v 1.569283 0.000000 -0.030998
v 1.563789 0.000000 -0.032258
v 1.559279 0.000000 -0.033927
v 1.555663 0.000000 -0.036027
v 1.552850 0.000000 -0.038580
v 1.550751 0.000000 -0.041608
v 1.549275 0.000000 -0.045133
v 1.548332 0.000000 -0.049176
v 1.547832 0.000000 -0.053760
v 1.547686 0.000000 -0.058906
v 1.547686 0.000000 -0.151823
v 1.655680 0.000000 -0.173212
v 1.652956 0.000000 -0.168383
v 1.649723 0.000000 -0.163071
v 1.646027 0.000000 -0.157362
v 1.641915 0.000000 -0.151343
v 1.637432 0.000000 -0.145099
v 1.632626 0.000000 -0.138718
v 1.627542 0.000000 -0.132286
v 1.622227 0.000000 -0.125890
v 1.616727 0.000000 -0.119615
v 1.611088 0.000000 -0.113548
v 1.605357 0.000000 -0.107775
v 1.309257 0.000000 -0.201964
v 1.339762 0.000000 -0.214937
v 1.337627 0.000000 -0.219113
v 1.335280 0.000000 -0.223540
v 1.332754 0.000000 -0.228162
v 1.330087 0.000000 -0.232923
v 1.327312 0.000000 -0.237766
v 1.324465 0.000000 -0.242637
v 1.321582 0.000000 -0.247478
v 1.318698 0.000000 -0.252234
v 1.315848 0.000000 -0.256848
v 1.313067 0.000000 -0.261266
v 1.310390 0.000000 -0.265430
v 1.307854 0.000000 -0.269285
v 1.278401 0.000000 -0.257013
v 1.281466 0.000000 -0.252595
v 1.284364 0.000000 -0.248260
v 1.287118 0.000000 -0.243974
v 1.289751 0.000000 -0.239702
v 1.292287 0.000000 -0.235411
v 1.294749 0.000000 -0.231066
v 1.297160 0.000000 -0.226634
v 1.299543 0.000000 -0.222079
v 1.301921 0.000000 -0.217369
v 1.304317 0.000000 -0.212469
v 1.306755 0.000000 -0.207346
v 1.359046 0.000000 -0.220547
v 1.388850 0.000000 -0.233871
v 1.386641 0.000000 -0.237872
v 1.384241 0.000000 -0.242124
v 1.381678 0.000000 -0.246570
v 1.378980 0.000000 -0.251156
v 1.376175 0.000000 -0.255824
v 1.373291 0.000000 -0.260519
v 1.370355 0.000000 -0.265185
v 1.367397 0.000000 -0.269765
v 1.364443 0.000000 -0.274204
v 1.361522 0.000000 -0.278447
v 1.358662 0.000000 -0.282435
v 1.355891 0.000000 -0.286115
v 1.326087 0.000000 -0.273843
v 1.329247 0.000000 -0.269533
v 1.332254 0.000000 -0.265342
v 1.335132 0.000000 -0.261226
v 1.337904 0.000000 -0.257142
v 1.340594 0.000000 -0.253050
v 1.343224 0.000000 -0.248904
v 1.345817 0.000000 -0.244664
v 1.348397 0.000000 -0.240286
v 1.350987 0.000000 -0.235728
v 1.353610 0.000000 -0.230947
v 1.356289 0.000000 -0.225901
v 1.156031 0.000000 -0.107293
v 1.181627 0.000000 -0.146564
v 1.176746 0.000000 -0.149947
v 1.171126 0.000000 -0.153732
v 1.164890 0.000000 -0.157839
v 1.158161 0.000000 -0.162186
v 1.151062 0.000000 -0.166695
v 1.143715 0.000000 -0.171283
v 1.136245 0.000000 -0.175872
v 1.128773 0.000000 -0.180380
v 1.121423 0.000000 -0.184728
v 1.114317 0.000000 -0.188834
v 1.107580 0.000000 -0.192619
v 1.101332 0.000000 -0.196003
v 1.076087 0.000000 -0.157433
v 1.082213 0.000000 -0.154063
v 1.088778 0.000000 -0.150310
v 1.095679 0.000000 -0.146246
v 1.102813 0.000000 -0.141941
v 1.110079 0.000000 -0.137465
v 1.117374 0.000000 -0.132889
v 1.124596 0.000000 -0.128284
v 1.131643 0.000000 -0.123721
v 1.138412 0.000000 -0.119269
v 1.144801 0.000000 -0.115001
v 1.150708 0.000000 -0.110985
v 1.209327 0.000000 -0.187237
v 1.235274 0.000000 -0.225806
v 1.230312 0.000000 -0.229204
v 1.224628 0.000000 -0.233027
v 1.218345 0.000000 -0.237191
v 1.211586 0.000000 -0.241611
v 1.204478 0.000000 -0.246201
v 1.197142 0.000000 -0.250877
v 1.189705 0.000000 -0.255552
v 1.182289 0.000000 -0.260142
v 1.175020 0.000000 -0.264562
v 1.168020 0.000000 -0.268726
v 1.161416 0.000000 -0.272550
v 1.155330 0.000000 -0.275947
v 1.130084 0.000000 -0.237377
v 1.136130 0.000000 -0.233927
v 1.142626 0.000000 -0.230108
v 1.149468 0.000000 -0.225993
v 1.156550 0.000000 -0.221651
v 1.163770 0.000000 -0.217153
v 1.171020 0.000000 -0.212570
v 1.178198 0.000000 -0.207973
v 1.185198 0.000000 -0.203431
v 1.191916 0.000000 -0.199016
v 1.198246 0.000000 -0.194798
v 1.204085 0.000000 -0.190848
v 1.090463 0.000000 -0.026999
v 1.116760 0.000000 0.018934
v 1.124863 0.000000 0.017289
v 1.133665 0.000000 0.015179
v 1.143047 0.000000 0.012639
v 1.152888 0.000000 0.009701
v 1.163071 0.000000 0.006397
v 1.173475 0.000000 0.002761
v 1.183981 0.000000 -0.001174
v 1.194471 0.000000 -0.005376
v 1.204823 0.000000 -0.009812
v 1.214921 0.000000 -0.014449
v 1.224643 0.000000 -0.019254
v 1.233871 0.000000 -0.024194
v 1.248000 0.000000 -0.032744
v 1.261787 0.000000 -0.041725
v 1.275196 0.000000 -0.051115
v 1.288193 0.000000 -0.060893
v 1.300741 0.000000 -0.071036
v 1.312807 0.000000 -0.081522
v 1.324353 0.000000 -0.092329
v 1.335346 0.000000 -0.103436
v 1.345750 0.000000 -0.114821
v 1.355529 0.000000 -0.126461
v 1.364648 0.000000 -0.138335
v 1.373072 0.000000 -0.150421
v 1.346073 0.000000 -0.198107
v 1.338709 0.000000 -0.185623
v 1.330491 0.000000 -0.173270
v 1.321458 0.000000 -0.161093
v 1.311646 0.000000 -0.149135
v 1.301095 0.000000 -0.137440
v 1.289841 0.000000 -0.126052
v 1.277922 0.000000 -0.115014
v 1.265376 0.000000 -0.104371
v 1.252241 0.000000 -0.094166
v 1.238554 0.000000 -0.084444
v 1.224354 0.000000 -0.075247
v 1.209677 0.000000 -0.066620
v 1.200127 0.000000 -0.061548
v 1.190425 0.000000 -0.056843
v 1.180597 0.000000 -0.052491
v 1.170666 0.000000 -0.048478
v 1.160658 0.000000 -0.044792
v 1.150596 0.000000 -0.041418
v 1.140505 0.000000 -0.038344
v 1.130409 0.000000 -0.035557
v 1.120332 0.000000 -0.033042
v 1.110299 0.000000 -0.030786
v 1.100335 0.000000 -0.028776
v 0.733520 0.000000 -0.162342
v 0.733520 0.000000 -0.107293
v 0.736975 0.000000 -0.107475
v 0.740819 0.000000 -0.107666
v 0.745004 0.000000 -0.107863
v 0.749481 0.000000 -0.108059
v 0.754201 0.000000 -0.108251
v 0.759116 0.000000 -0.108433
v 0.764178 0.000000 -0.108600
v 0.769337 0.000000 -0.108748
v 0.774544 0.000000 -0.108871
v 0.779752 0.000000 -0.108965
v 0.784911 0.000000 -0.109025
v 0.789972 0.000000 -0.109046
v 0.801692 0.000000 -0.109046
v 0.815972 0.000000 -0.109046
v 0.832261 0.000000 -0.109046
v 0.850008 0.000000 -0.109046
v 0.868660 0.000000 -0.109046
v 0.887667 0.000000 -0.109046
v 0.906476 0.000000 -0.109046
v 0.924536 0.000000 -0.109046
v 0.941297 0.000000 -0.109046
v 0.956205 0.000000 -0.109046
v 0.968710 0.000000 -0.109046
v 0.978261 0.000000 -0.109046
v 0.982001 0.000000 -0.109018
v 0.985829 0.000000 -0.108941
v 0.989700 0.000000 -0.108822
v 0.993572 0.000000 -0.108670
v 0.997400 0.000000 -0.108493
v 1.001140 0.000000 -0.108301
v 1.004748 0.000000 -0.108102
v 1.008181 0.000000 -0.107903
v 1.011396 0.000000 -0.107715
v 1.014347 0.000000 -0.107545
v 1.016991 0.000000 -0.107401
v 1.019285 0.000000 -0.107293
v 1.019285 0.000000 -0.162342
v 1.016877 0.000000 -0.162154
v 1.014225 0.000000 -0.161943
v 1.011346 0.000000 -0.161718
v 1.008259 0.000000 -0.161485
v 1.004982 0.000000 -0.161253
v 1.001534 0.000000 -0.161027
v 0.997932 0.000000 -0.160817
v 0.994195 0.000000 -0.160628
v 0.990341 0.000000 -0.160469
v 0.986389 0.000000 -0.160346
v 0.982356 0.000000 -0.160266
v 0.978261 0.000000 -0.160238
v 0.968717 0.000000 -0.160238
v 0.956230 0.000000 -0.160238
v 0.941346 0.000000 -0.160238
v 0.924614 0.000000 -0.160238
v 0.906582 0.000000 -0.160238
v 0.887798 0.000000 -0.160238
v 0.868809 0.000000 -0.160238
v 0.850164 0.000000 -0.160238
v 0.832409 0.000000 -0.160238
v 0.816094 0.000000 -0.160238
v 0.801766 0.000000 -0.160238
v 0.789972 0.000000 -0.160238
v 0.785272 0.000000 -0.160260
v 0.780336 0.000000 -0.160321
v 0.775234 0.000000 -0.160419
v 0.770038 0.000000 -0.160550
v 0.764817 0.000000 -0.160710
v 0.759642 0.000000 -0.160896
v 0.754585 0.000000 -0.161103
v 0.749714 0.000000 -0.161329
v 0.745102 0.000000 -0.161570
v 0.740819 0.000000 -0.161821
v 0.736935 0.000000 -0.162080
v 0.380435 0.000000 -0.179173
v 0.380435 0.000000 -0.133240
v 0.382959 0.000000 -0.133415
v 0.385607 0.000000 -0.133587
v 0.388357 0.000000 -0.133755
v 0.391187 0.000000 -0.133915
v 0.394077 0.000000 -0.134066
v 0.397002 0.000000 -0.134204
v 0.399942 0.000000 -0.134328
v 0.402875 0.000000 -0.134435
v 0.405779 0.000000 -0.134522
v 0.408631 0.000000 -0.134587
v 0.411411 0.000000 -0.134628
v 0.414095 0.000000 -0.134642
v 0.510519 0.000000 -0.134642
v 0.510071 0.000000 -0.127346
v 0.509420 0.000000 -0.120185
v 0.508552 0.000000 -0.113166
v 0.507454 0.000000 -0.106293
v 0.506113 0.000000 -0.099571
v 0.504514 0.000000 -0.093005
v 0.502646 0.000000 -0.086599
v 0.500493 0.000000 -0.080359
v 0.498044 0.000000 -0.074290
v 0.495284 0.000000 -0.068396
v 0.492201 0.000000 -0.062682
v 0.488780 0.000000 -0.057153
v 0.485060 0.000000 -0.052075
v 0.480938 0.000000 -0.047035
v 0.476447 0.000000 -0.042070
v 0.471625 0.000000 -0.037219
v 0.466505 0.000000 -0.032518
v 0.461124 0.000000 -0.028007
v 0.455516 0.000000 -0.023721
v 0.449717 0.000000 -0.019700
v 0.443762 0.000000 -0.015981
v 0.437687 0.000000 -0.012602
v 0.431526 0.000000 -0.009600
v 0.425316 0.000000 -0.007013
v 0.466339 0.000000 0.022791
v 0.474047 0.000000 0.018614
v 0.481543 0.000000 0.014006
v 0.488791 0.000000 0.009018
v 0.495753 0.000000 0.003701
v 0.502395 0.000000 -0.001893
v 0.508678 0.000000 -0.007714
v 0.514567 0.000000 -0.013710
v 0.520025 0.000000 -0.019830
v 0.525015 0.000000 -0.026023
v 0.529502 0.000000 -0.032239
v 0.533448 0.000000 -0.038425
v 0.536816 0.000000 -0.044530
v 0.539869 0.000000 -0.050769
v 0.542715 0.000000 -0.057219
v 0.545352 0.000000 -0.063886
v 0.547777 0.000000 -0.070776
v 0.549987 0.000000 -0.077894
v 0.551981 0.000000 -0.085247
v 0.553756 0.000000 -0.092842
v 0.555309 0.000000 -0.100683
v 0.556638 0.000000 -0.108778
v 0.557741 0.000000 -0.117132
v 0.558614 0.000000 -0.125751
v 0.559257 0.000000 -0.134642
v 0.643759 0.000000 -0.134642
v 0.646282 0.000000 -0.134635
v 0.648922 0.000000 -0.134613
v 0.651653 0.000000 -0.134577
v 0.654446 0.000000 -0.134525
v 0.657274 0.000000 -0.134460
v 0.660107 0.000000 -0.134379
v 0.662918 0.000000 -0.134284
v 0.665680 0.000000 -0.134175
v 0.668363 0.000000 -0.134051
v 0.670941 0.000000 -0.133912
v 0.673384 0.000000 -0.133758
v 0.675666 0.000000 -0.133590
v 0.675666 0.000000 -0.179173
v 0.673190 0.000000 -0.178836
v 0.670527 0.000000 -0.178530
v 0.667722 0.000000 -0.178252
v 0.664823 0.000000 -0.178004
v 0.661874 0.000000 -0.177785
v 0.658924 0.000000 -0.177595
v 0.656017 0.000000 -0.177434
v 0.653200 0.000000 -0.177302
v 0.650519 0.000000 -0.177200
v 0.648022 0.000000 -0.177127
v 0.645753 0.000000 -0.177083
v 0.643759 0.000000 -0.177069
v 0.635236 0.000000 -0.177069
v 0.620952 0.000000 -0.177069
v 0.602056 0.000000 -0.177069
v 0.579697 0.000000 -0.177069
v 0.555026 0.000000 -0.177069
v 0.529190 0.000000 -0.177069
v 0.503340 0.000000 -0.177069
v 0.478625 0.000000 -0.177069
v 0.456193 0.000000 -0.177069
v 0.437195 0.000000 -0.177069
v 0.422779 0.000000 -0.177069
v 0.414095 0.000000 -0.177069
v 0.411351 0.000000 -0.177090
v 0.408558 0.000000 -0.177152
v 0.405730 0.000000 -0.177250
v 0.402875 0.000000 -0.177380
v 0.400006 0.000000 -0.177540
v 0.397134 0.000000 -0.177726
v 0.394268 0.000000 -0.177934
v 0.391421 0.000000 -0.178160
v 0.388603 0.000000 -0.178400
v 0.385826 0.000000 -0.178651
v 0.383099 0.000000 -0.178910
v 0.421108 0.000000 -0.268934
v 0.421108 0.000000 -0.223703
v 0.423902 0.000000 -0.223878
v 0.426835 0.000000 -0.224050
v 0.429885 0.000000 -0.224218
v 0.433029 0.000000 -0.224378
v 0.436247 0.000000 -0.224529
v 0.439516 0.000000 -0.224667
v 0.442814 0.000000 -0.224791
v 0.446120 0.000000 -0.224897
v 0.449410 0.000000 -0.224985
v 0.452665 0.000000 -0.225050
v 0.455861 0.000000 -0.225091
v 0.458976 0.000000 -0.225105
v 0.465921 0.000000 -0.225105
v 0.475527 0.000000 -0.225105
v 0.487257 0.000000 -0.225105
v 0.500571 0.000000 -0.225105
v 0.514933 0.000000 -0.225105
v 0.529804 0.000000 -0.225105
v 0.544645 0.000000 -0.225105
v 0.558919 0.000000 -0.225105
v 0.572088 0.000000 -0.225105
v 0.583613 0.000000 -0.225105
v 0.592956 0.000000 -0.225105
v 0.599579 0.000000 -0.225105
v 0.602675 0.000000 -0.225091
v 0.605818 0.000000 -0.225050
v 0.608997 0.000000 -0.224985
v 0.612202 0.000000 -0.224897
v 0.615422 0.000000 -0.224791
v 0.618645 0.000000 -0.224667
v 0.621861 0.000000 -0.224529
v 0.625058 0.000000 -0.224378
v 0.628227 0.000000 -0.224218
v 0.631355 0.000000 -0.224050
v 0.634432 0.000000 -0.223878
v 0.637447 0.000000 -0.223703
v 0.637447 0.000000 -0.268934
v 0.634426 0.000000 -0.268517
v 0.631331 0.000000 -0.268144
v 0.628178 0.000000 -0.267811
v 0.624981 0.000000 -0.267519
v 0.621754 0.000000 -0.267265
v 0.618513 0.000000 -0.267049
v 0.615272 0.000000 -0.266870
v 0.612046 0.000000 -0.266726
v 0.608849 0.000000 -0.266617
v 0.605696 0.000000 -0.266540
v 0.602601 0.000000 -0.266495
v 0.599579 0.000000 -0.266480
v 0.592956 0.000000 -0.266480
v 0.583611 0.000000 -0.266480
v 0.572082 0.000000 -0.266480
v 0.558906 0.000000 -0.266480
v 0.544620 0.000000 -0.266480
v 0.529760 0.000000 -0.266480
v 0.514863 0.000000 -0.266480
v 0.500468 0.000000 -0.266480
v 0.487109 0.000000 -0.266480
v 0.475324 0.000000 -0.266480
v 0.465651 0.000000 -0.266480
v 0.458626 0.000000 -0.266480
v 0.455678 0.000000 -0.266494
v 0.452632 0.000000 -0.266540
v 0.449509 0.000000 -0.266617
v 0.446327 0.000000 -0.266726
v 0.443107 0.000000 -0.266870
v 0.439867 0.000000 -0.267049
v 0.436627 0.000000 -0.267265
v 0.433406 0.000000 -0.267519
v 0.430224 0.000000 -0.267811
v 0.427101 0.000000 -0.268143
v 0.424056 0.000000 -0.268517
v 0.282959 0.000000 0.015428
v 0.322931 0.000000 -0.019285
v 0.317324 0.000000 -0.025985
v 0.310912 0.000000 -0.033385
v 0.303800 0.000000 -0.041364
v 0.296089 0.000000 -0.049803
v 0.287880 0.000000 -0.058583
v 0.279278 0.000000 -0.067584
v 0.270383 0.000000 -0.076688
v 0.261298 0.000000 -0.085775
v 0.252126 0.000000 -0.094725
v 0.242968 0.000000 -0.103420
v 0.233927 0.000000 -0.111740
v 0.225105 0.000000 -0.119565
v 0.230896 0.000000 -0.127643
v 0.236512 0.000000 -0.135887
v 0.241941 0.000000 -0.144246
v 0.247169 0.000000 -0.152667
v 0.252183 0.000000 -0.161098
v 0.256969 0.000000 -0.169486
v 0.261514 0.000000 -0.177780
v 0.265804 0.000000 -0.185925
v 0.269827 0.000000 -0.193872
v 0.273569 0.000000 -0.201566
v 0.277015 0.000000 -0.208956
v 0.280154 0.000000 -0.215989
v 0.281005 0.000000 -0.217816
v 0.281964 0.000000 -0.219766
v 0.283009 0.000000 -0.221802
v 0.284115 0.000000 -0.223884
v 0.285261 0.000000 -0.225977
v 0.286422 0.000000 -0.228042
v 0.287576 0.000000 -0.230041
v 0.288699 0.000000 -0.231936
v 0.289769 0.000000 -0.233690
v 0.290762 0.000000 -0.235265
v 0.291656 0.000000 -0.236624
v 0.292426 0.000000 -0.237728
v 0.263675 0.000000 -0.259116
v 0.261779 0.000000 -0.258511
v 0.259611 0.000000 -0.257927
v 0.257193 0.000000 -0.257369
v 0.254545 0.000000 -0.256844
v 0.251688 0.000000 -0.256358
v 0.248641 0.000000 -0.255917
v 0.245427 0.000000 -0.255527
v 0.242065 0.000000 -0.255195
v 0.238577 0.000000 -0.254925
v 0.234983 0.000000 -0.254725
v 0.231304 0.000000 -0.254601
v 0.227560 0.000000 -0.254558
v 0.222158 0.000000 -0.254558
v 0.214179 0.000000 -0.254558
v 0.204128 0.000000 -0.254558
v 0.192509 0.000000 -0.254558
v 0.179830 0.000000 -0.254558
v 0.166594 0.000000 -0.254558
v 0.153306 0.000000 -0.254558
v 0.140473 0.000000 -0.254558
v 0.128599 0.000000 -0.254558
v 0.118190 0.000000 -0.254558
v 0.109751 0.000000 -0.254558
v 0.103787 0.000000 -0.254558
v 0.100944 0.000000 -0.254580
v 0.097727 0.000000 -0.254643
v 0.094216 0.000000 -0.254744
v 0.090489 0.000000 -0.254883
v 0.086626 0.000000 -0.255055
v 0.082705 0.000000 -0.255259
v 0.078807 0.000000 -0.255493
v 0.075009 0.000000 -0.255753
v 0.071392 0.000000 -0.256037
v 0.068034 0.000000 -0.256344
v 0.065014 0.000000 -0.256670
v 0.062412 0.000000 -0.257013
v 0.062412 0.000000 -0.207223
v 0.064566 0.000000 -0.207345
v 0.067133 0.000000 -0.207527
v 0.070060 0.000000 -0.207754
v 0.073295 0.000000 -0.208015
v 0.076783 0.000000 -0.208295
v 0.080470 0.000000 -0.208582
v 0.084303 0.000000 -0.208861
v 0.088229 0.000000 -0.209119
v 0.092194 0.000000 -0.209343
v 0.096144 0.000000 -0.209520
v 0.100026 0.000000 -0.209636
v 0.103787 0.000000 -0.209677
v 0.109018 0.000000 -0.209677
v 0.116828 0.000000 -0.209677
v 0.126698 0.000000 -0.209677
v 0.138110 0.000000 -0.209677
v 0.150544 0.000000 -0.209677
v 0.163482 0.000000 -0.209677
v 0.176405 0.000000 -0.209677
v 0.188795 0.000000 -0.209677
v 0.200134 0.000000 -0.209677
v 0.209901 0.000000 -0.209677
v 0.217580 0.000000 -0.209677
v 0.222651 0.000000 -0.209677
v 0.220444 0.000000 -0.203260
v 0.217709 0.000000 -0.196496
v 0.214488 0.000000 -0.189450
v 0.210820 0.000000 -0.182185
v 0.206749 0.000000 -0.174764
v 0.202314 0.000000 -0.167251
v 0.197558 0.000000 -0.159708
v 0.192522 0.000000 -0.152200
v 0.187248 0.000000 -0.144789
v 0.181776 0.000000 -0.137538
v 0.176149 0.000000 -0.130512
v 0.170407 0.000000 -0.123773
v 0.161732 0.000000 -0.114461
v 0.152234 0.000000 -0.104996
v 0.141978 0.000000 -0.095476
v 0.131032 0.000000 -0.085996
v 0.119463 0.000000 -0.076652
v 0.107337 0.000000 -0.067540
v 0.094722 0.000000 -0.058758
v 0.081684 0.000000 -0.050400
v 0.068291 0.000000 -0.042563
v 0.054609 0.000000 -0.035344
v 0.040706 0.000000 -0.028838
v 0.026648 0.000000 -0.023142
v 0.062763 0.000000 0.014727
v 0.074738 0.000000 0.008750
v 0.086627 0.000000 0.002243
v 0.098401 0.000000 -0.004755
v 0.110033 0.000000 -0.012207
v 0.121495 0.000000 -0.020073
v 0.132758 0.000000 -0.028313
v 0.143794 0.000000 -0.036890
v 0.154576 0.000000 -0.045764
v 0.165076 0.000000 -0.054896
v 0.175265 0.000000 -0.064247
v 0.185116 0.000000 -0.073778
v 0.194600 0.000000 -0.083450
v 0.202827 0.000000 -0.075478
v 0.211007 0.000000 -0.067360
v 0.219106 0.000000 -0.059125
v 0.227092 0.000000 -0.050803
v 0.234932 0.000000 -0.042421
v 0.242593 0.000000 -0.034011
v 0.250042 0.000000 -0.025601
v 0.257246 0.000000 -0.017220
v 0.264173 0.000000 -0.008897
v 0.270790 0.000000 -0.000662
v 0.277063 0.000000 0.007456
vn -0.0000 1.0000 -0.0000
vt 0.678014 0.349209
vt 0.743265 0.353033
vt 0.677309 0.353033
vt 0.742835 0.349258
vt 0.742396 0.345341
vt 0.678650 0.345165
vt 0.741957 0.341301
vt 0.679218 0.340944
vt 0.741527 0.337155
vt 0.679721 0.336591
vt 0.741114 0.332921
vt 0.680159 0.332150
vt 0.740728 0.328617
vt 0.680533 0.327666
vt 0.740377 0.324260
vt 0.680846 0.323181
vt 0.740071 0.319867
vt 0.681099 0.318740
vt 0.739817 0.315457
vt 0.681293 0.314387
vt 0.739624 0.311047
vt 0.681430 0.310167
vt 0.739503 0.306655
vt 0.681511 0.306122
vt 0.739460 0.302298
vt 0.681537 0.302298
vt 0.681537 0.290579
vt 0.739460 0.239724
vt 0.681537 0.274043
vt 0.681537 0.253670
vt 0.681537 0.230439
vt 0.754096 0.235335
vt 0.769521 0.230466
vt 0.785505 0.225204
vt 0.681537 0.205328
vt 0.801814 0.219634
vt 0.818218 0.213840
vt 0.834483 0.207909
vt 0.850379 0.201925
vt 0.681537 0.179318
vt 0.865672 0.195973
vt 0.880132 0.190139
vt 0.893526 0.184507
vt 0.905622 0.179163
vt 0.681537 0.153387
vt 0.739460 0.178842
vt 0.916188 0.174191
vt 0.739460 0.059191
vt 0.751224 0.174752
vt 0.763597 0.170329
vt 0.776448 0.165610
vt 0.789648 0.160631
vt 0.803064 0.155428
vt 0.816568 0.150039
vt 0.830027 0.144501
vt 0.843311 0.138849
vt 0.856291 0.133121
vt 0.868834 0.127353
vt 0.880810 0.121582
vt 0.892089 0.115846
vt 0.681537 0.128514
vt 0.681537 0.105679
vt 0.681537 0.085861
vt 0.681537 0.070038
vt 0.681537 0.059191
vt 0.681502 0.054797
vt 0.739503 0.055782
vt 0.739625 0.051753
vt 0.681400 0.050109
vt 0.739817 0.047208
vt 0.681233 0.045186
vt 0.740071 0.042248
vt 0.681005 0.040087
vt 0.740378 0.036977
vt 0.680717 0.034871
vt 0.740728 0.031498
vt 0.680374 0.029596
vt 0.741114 0.025913
vt 0.679979 0.024320
vt 0.741527 0.020325
vt 0.679533 0.019104
vt 0.741957 0.014837
vt 0.679040 0.014005
vt 0.742396 0.009552
vt 0.678503 0.009082
vt 0.742835 0.004572
vt 0.677925 0.004394
vt 0.743265 -0.000000
vt 0.677309 -0.000000
vt 0.001560 0.684297
vt 0.060374 0.711828
vt 0.000000 0.687804
vt 0.003083 0.680546
vt 0.004558 0.676606
vt 0.005973 0.672530
vt 0.007319 0.668373
vt 0.008585 0.664189
vt 0.060916 0.707355
vt 0.009758 0.660031
vt 0.061519 0.702766
vt 0.010830 0.655955
vt 0.062170 0.698114
vt 0.011789 0.652014
vt 0.062858 0.693453
vt 0.012624 0.648262
vt 0.063570 0.688835
vt 0.013324 0.644753
vt 0.064296 0.684314
vt 0.013879 0.641542
vt 0.065022 0.679943
vt 0.015628 0.630683
vt 0.065737 0.675776
vt 0.066430 0.671864
vt 0.017244 0.618850
vt 0.067087 0.668263
vt 0.067698 0.665024
vt 0.157327 0.739592
vt 0.208965 0.748986
vt 0.158795 0.741760
vt 0.068249 0.662201
vt 0.155712 0.737354
vt 0.153961 0.735058
vt 0.152085 0.732721
vt 0.150093 0.730356
vt 0.068632 0.659765
vt 0.147997 0.727979
vt 0.018609 0.606068
vt 0.145807 0.725604
vt 0.143535 0.723246
vt 0.141190 0.720919
vt 0.138784 0.718638
vt 0.136327 0.716418
vt 0.133829 0.714274
vt 0.019604 0.592362
vt 0.020110 0.577758
vt 0.209391 0.746625
vt 0.209877 0.744131
vt 0.210423 0.741526
vt 0.211026 0.738830
vt 0.211685 0.736068
vt 0.020008 0.562280
vt 0.212400 0.733259
vt 0.213169 0.730427
vt 0.213991 0.727594
vt 0.214865 0.724780
vt 0.019181 0.545955
vt 0.074949 0.602773
vt 0.215790 0.722009
vt 0.166095 0.678977
vt 0.216764 0.719303
vt 0.075283 0.591061
vt 0.169846 0.671290
vt 0.217786 0.716683
vt 0.221666 0.707180
vt 0.017508 0.528806
vt 0.173491 0.662649
vt 0.075348 0.579143
vt 0.225573 0.696814
vt 0.176985 0.653181
vt 0.075132 0.567052
vt 0.014873 0.510860
vt 0.229442 0.685655
vt 0.180282 0.643015
vt 0.074625 0.554822
vt 0.011155 0.492141
vt 0.233209 0.673774
vt 0.073818 0.542485
vt 0.183337 0.632279
vt 0.006237 0.472675
vt 0.072698 0.530075
vt 0.186103 0.621100
vt 0.236810 0.661240
vt 0.071256 0.517624
vt 0.000000 0.452486
vt 0.188535 0.609607
vt 0.240179 0.648125
vt 0.069480 0.505167
vt 0.058837 0.455937
vt 0.190586 0.597929
vt 0.243253 0.634499
vt 0.067362 0.492737
vt 0.192211 0.586192
vt 0.064888 0.480366
vt 0.245966 0.620431
vt 0.062051 0.468089
vt 0.193364 0.574526
vt 0.248254 0.605993
vt 0.193999 0.563058
vt 0.194070 0.551917
vt 0.250053 0.591254
vt 0.193476 0.537922
vt 0.251298 0.576286
vt 0.192319 0.523760
vt 0.251924 0.561158
vt 0.190512 0.509383
vt 0.251767 0.545319
vt 0.187965 0.494744
vt 0.184590 0.479795
vt 0.250946 0.529464
vt 0.180299 0.464489
vt 0.249423 0.513550
vt 0.175002 0.448779
vt 0.247154 0.497530
vt 0.168611 0.432618
vt 0.161038 0.415958
vt 0.244102 0.481359
vt 0.152193 0.398751
vt 0.240224 0.464992
vt 0.141989 0.380951
vt 0.235480 0.448383
vt 0.130336 0.362510
vt 0.197356 0.360128
vt 0.229830 0.431488
vt 0.223233 0.414260
vt 0.215649 0.396654
vt 0.207037 0.378625
vt 0.346970 0.693452
vt 0.412715 0.696852
vt 0.346337 0.696668
vt 0.412111 0.692753
vt 0.347581 0.689959
vt 0.411544 0.688698
vt 0.348163 0.686228
vt 0.411018 0.684679
vt 0.348710 0.682299
vt 0.410536 0.680686
vt 0.349216 0.678211
vt 0.410102 0.676710
vt 0.349676 0.674004
vt 0.409717 0.672744
vt 0.350084 0.669718
vt 0.409385 0.668778
vt 0.350432 0.665392
vt 0.409109 0.664803
vt 0.350716 0.661066
vt 0.408891 0.660811
vt 0.350930 0.656779
vt 0.408736 0.656793
vt 0.351067 0.652571
vt 0.408645 0.652739
vt 0.408621 0.648642
vt 0.351121 0.648482
vt 0.351160 0.634720
vt 0.408659 0.635071
vt 0.408705 0.618293
vt 0.351208 0.617415
vt 0.408759 0.599010
vt 0.351263 0.597337
vt 0.408817 0.577926
vt 0.351324 0.575261
vt 0.408879 0.555744
vt 0.351389 0.551957
vt 0.611875 0.553068
vt 0.656309 0.521644
vt 0.626158 0.569337
vt 0.408942 0.533166
vt 0.596144 0.537366
vt 0.351455 0.528198
vt 0.579193 0.522309
vt 0.409003 0.510898
vt 0.351520 0.504756
vt 0.561249 0.507977
vt 0.641269 0.504664
vt 0.409062 0.489640
vt 0.542539 0.494446
vt 0.351582 0.482403
vt 0.625054 0.488468
vt 0.523291 0.481797
vt 0.409116 0.470098
vt 0.607723 0.473053
vt 0.351639 0.461912
vt 0.503733 0.470107
vt 0.589338 0.458415
vt 0.409164 0.452973
vt 0.484090 0.459454
vt 0.351688 0.444054
vt 0.464592 0.449918
vt 0.569959 0.444549
vt 0.409203 0.438969
vt 0.445464 0.441576
vt 0.351729 0.429602
vt 0.549645 0.431452
vt 0.426934 0.434507
vt 0.409231 0.428789
vt 0.528457 0.419118
vt 0.351757 0.419329
vt 0.351752 0.416947
vt 0.506455 0.407544
vt 0.351715 0.414650
vt 0.351631 0.412418
vt 0.351485 0.410230
vt 0.351262 0.408065
vt 0.350949 0.405903
vt 0.483699 0.396725
vt 0.350529 0.403722
vt 0.349990 0.401504
vt 0.349316 0.399226
vt 0.348492 0.396868
vt 0.347504 0.394410
vt 0.460250 0.386657
vt 0.346337 0.391832
vt 0.386598 0.357274
vt 0.389015 0.358797
vt 0.391403 0.360188
vt 0.393755 0.361456
vt 0.396057 0.362609
vt 0.398302 0.363656
vt 0.400477 0.364606
vt 0.402574 0.365468
vt 0.404582 0.366250
vt 0.406489 0.366961
vt 0.408287 0.367611
vt 0.411512 0.368759
vt 0.436167 0.377337
vt 0.409965 0.368207
vt 0.336703 0.276672
vt 0.346337 0.214838
vt 0.340079 0.277523
vt 0.342867 0.215013
vt 0.339117 0.215138
vt 0.333029 0.275829
vt 0.335139 0.215213
vt 0.329111 0.275000
vt 0.330985 0.215241
vt 0.325005 0.274192
vt 0.326705 0.215220
vt 0.320767 0.273412
vt 0.322352 0.215152
vt 0.316451 0.272667
vt 0.317977 0.215038
vt 0.312113 0.271965
vt 0.313632 0.214877
vt 0.307809 0.271311
vt 0.309367 0.214672
vt 0.303594 0.270713
vt 0.305236 0.214423
vt 0.299522 0.270179
vt 0.301289 0.214130
vt 0.295651 0.269714
vt 0.297578 0.213794
vt 0.292034 0.269327
vt 0.231874 0.263321
vt 0.247935 0.208838
vt 0.301452 0.045435
vt 0.275582 0.000000
vt 0.302682 0.043496
vt 0.300263 0.047466
vt 0.299113 0.049586
vt 0.297998 0.051793
vt 0.296916 0.054087
vt 0.295864 0.056465
vt 0.294838 0.058925
vt 0.293838 0.061465
vt 0.292859 0.064085
vt 0.291899 0.066782
vt 0.290955 0.069554
vt 0.290024 0.072400
vt 0.288169 0.077813
vt 0.285887 0.084735
vt 0.283217 0.093038
vt 0.280196 0.102593
vt 0.276861 0.113274
vt 0.273252 0.124953
vt 0.269405 0.137502
vt 0.265359 0.150794
vt 0.261151 0.164701
vt 0.256819 0.179096
vt 0.273934 0.000842
vt 0.252401 0.193851
vt 0.272141 0.001758
vt 0.270224 0.002732
vt 0.268205 0.003749
vt 0.266106 0.004793
vt 0.263951 0.005850
vt 0.261760 0.006903
vt 0.259556 0.007937
vt 0.257362 0.008936
vt 0.255199 0.009886
vt 0.228979 0.273444
vt 0.226169 0.283336
vt 0.253090 0.010770
vt 0.223458 0.292954
vt 0.251057 0.011573
vt 0.220858 0.302256
vt 0.241382 0.015681
vt 0.218382 0.311199
vt 0.216044 0.319739
vt 0.213856 0.327834
vt 0.211832 0.335441
vt 0.209986 0.342517
vt 0.208329 0.349019
vt 0.206875 0.354903
vt 0.234366 0.076616
vt 0.230863 0.020439
vt 0.205638 0.360128
vt 0.195768 0.203630
vt 0.228246 0.079306
vt 0.151534 0.344529
vt 0.153110 0.339904
vt 0.154847 0.334680
vt 0.156733 0.328895
vt 0.158760 0.322589
vt 0.160918 0.315800
vt 0.163197 0.308568
vt 0.165587 0.300931
vt 0.168079 0.292927
vt 0.170663 0.284596
vt 0.221486 0.082549
vt 0.219685 0.025769
vt 0.214193 0.086300
vt 0.206478 0.090513
vt 0.208033 0.031592
vt 0.173328 0.275977
vt 0.176065 0.267109
vt 0.178865 0.258029
vt 0.084281 0.192501
vt 0.198450 0.095143
vt 0.196091 0.037828
vt 0.190218 0.100145
vt 0.064013 0.246563
vt 0.181892 0.105475
vt 0.184046 0.044399
vt 0.173580 0.111086
vt 0.172081 0.051226
vt 0.165392 0.116933
vt 0.160382 0.058230
vt 0.157437 0.122973
vt 0.149825 0.129158
vt 0.149133 0.065332
vt 0.142665 0.135444
vt 0.119939 0.086437
vt 0.138519 0.072453
vt 0.128726 0.079514
vt 0.078124 0.191708
vt 0.072684 0.190560
vt 0.067946 0.188944
vt 0.052185 0.245051
vt 0.063894 0.186751
vt 0.060512 0.183870
vt 0.078753 0.014338
vt 0.024468 0.000000
vt 0.081852 0.004029
vt 0.075753 0.024842
vt 0.057786 0.180189
vt 0.072866 0.035517
vt 0.041532 0.242832
vt 0.070106 0.046338
vt 0.055699 0.175599
vt 0.067487 0.057278
vt 0.054237 0.169987
vt 0.065024 0.068314
vt 0.062731 0.079420
vt 0.053383 0.163245
vt 0.060623 0.090571
vt 0.053122 0.155261
vt 0.058713 0.101742
vt 0.057016 0.112908
vt 0.053439 0.145923
vt 0.055546 0.124043
vt 0.054318 0.135123
vt 0.032064 0.239669
vt 0.023794 0.235325
vt 0.016734 0.229561
vt 0.010896 0.222140
vt 0.006292 0.212824
vt 0.002933 0.201375
vt 0.022323 0.008918
vt 0.020167 0.018416
vt 0.000832 0.187555
vt 0.018019 0.028422
vt 0.015899 0.038865
vt 0.013825 0.049672
vt 0.000000 0.171127
vt 0.011816 0.060772
vt 0.009891 0.072093
vt 0.008069 0.083563
vt 0.000450 0.151853
vt 0.006369 0.095109
vt 0.004811 0.106662
vt 0.002193 0.129494
vt 0.003412 0.118147
vt 0.458373 0.811496
vt 0.514413 0.802248
vt 0.513951 0.810639
vt 0.514776 0.793052
vt 0.515045 0.783236
vt 0.515229 0.772979
vt 0.515333 0.762463
vt 0.515364 0.751870
vt 0.515329 0.741381
vt 0.515235 0.731178
vt 0.515089 0.721442
vt 0.458755 0.803111
vt 0.514897 0.712354
vt 0.459052 0.794030
vt 0.514666 0.704097
vt 0.459270 0.784405
vt 0.514403 0.696852
vt 0.459412 0.774388
vt 0.459484 0.764132
vt 0.459489 0.753789
vt 0.459432 0.743511
vt 0.459318 0.733450
vt 0.459150 0.723759
vt 0.458934 0.714589
vt 0.458673 0.706093
vt 0.458373 0.698423
vt 0.907408 0.716881
vt 0.965730 0.727701
vt 0.899838 0.732634
vt 0.400877 0.811626
vt 0.456997 0.802000
vt 0.456451 0.810549
vt 0.457448 0.792692
vt 0.457805 0.782803
vt 0.914273 0.700361
vt 0.458073 0.772509
vt 0.458255 0.761988
vt 0.458354 0.751417
vt 0.920416 0.683142
vt 0.458373 0.740972
vt 0.458316 0.730832
vt 0.458186 0.721173
vt 0.925817 0.665289
vt 0.457987 0.712171
vt 0.401360 0.803209
vt 0.401732 0.794099
vt 0.457721 0.704005
vt 0.972190 0.711154
vt 0.402001 0.784446
vt 0.457392 0.696852
vt 0.930458 0.646872
vt 0.402174 0.774400
vt 0.402257 0.764110
vt 0.402257 0.753726
vt 0.402180 0.743398
vt 0.402033 0.733276
vt 0.401823 0.723509
vt 0.401556 0.714248
vt 0.401238 0.705641
vt 0.400877 0.697838
vt 0.977971 0.694052
vt 0.934320 0.627956
vt 0.983076 0.676445
vt 0.937385 0.608610
vt 0.939635 0.588900
vt 0.987505 0.658384
vt 0.941050 0.568893
vt 0.991261 0.639919
vt 0.941612 0.548657
vt 0.994345 0.621100
vt 0.941302 0.528259
vt 0.996760 0.601976
vt 0.940102 0.507766
vt 0.998506 0.582599
vt 0.938778 0.494794
vt 0.936985 0.481917
vt 0.999585 0.563017
vt 0.934753 0.469149
vt 0.932113 0.456507
vt 1.000000 0.543282
vt 0.929094 0.444006
vt 0.925725 0.431661
vt 0.999752 0.523443
vt 0.922036 0.419487
vt 0.918057 0.407501
vt 0.913818 0.395717
vt 0.909349 0.384151
vt 0.998842 0.503550
vt 0.904679 0.372818
vt 0.899838 0.361734
vt 0.963503 0.357274
vt 0.997602 0.490990
vt 0.995895 0.478026
vt 0.993769 0.464798
vt 0.991269 0.451448
vt 0.988444 0.438119
vt 0.985340 0.424952
vt 0.982004 0.412088
vt 0.978485 0.399669
vt 0.974828 0.387836
vt 0.971080 0.376732
vt 0.967290 0.366497
vt 0.555526 0.777650
vt 0.594383 0.765803
vt 0.593875 0.771334
vt 0.594786 0.759898
vt 0.595091 0.753695
vt 0.595305 0.747269
vt 0.556033 0.771227
vt 0.595434 0.740695
vt 0.556459 0.765021
vt 0.515364 0.777285
vt 0.553974 0.767279
vt 0.553579 0.772829
vt 0.554334 0.761321
vt 0.556801 0.758974
vt 0.595486 0.734048
vt 0.554655 0.755035
vt 0.557054 0.753028
vt 0.595466 0.727404
vt 0.557217 0.747125
vt 0.515983 0.770832
vt 0.554932 0.748501
vt 0.595382 0.720838
vt 0.557285 0.741206
vt 0.516475 0.764564
vt 0.555162 0.741798
vt 0.595241 0.714424
vt 0.557255 0.735213
vt 0.516845 0.758431
vt 0.555341 0.735006
vt 0.595050 0.708238
vt 0.557125 0.729087
vt 0.517096 0.752385
vt 0.555463 0.728205
vt 0.594814 0.702356
vt 0.556890 0.722770
vt 0.517234 0.746376
vt 0.594542 0.696852
vt 0.555527 0.721474
vt 0.556547 0.716204
vt 0.517262 0.740355
vt 0.556094 0.709330
vt 0.555526 0.702089
vt 0.555526 0.714894
vt 0.517185 0.734271
vt 0.555457 0.708544
vt 0.517006 0.728076
vt 0.555316 0.702503
vt 0.516730 0.721720
vt 0.555099 0.696852
vt 0.516362 0.715154
vt 0.515905 0.708327
vt 0.515364 0.701191
vt 0.279958 0.704705
vt 0.346020 0.700588
vt 0.346337 0.704705
vt 0.346109 0.363031
vt 0.279958 0.360128
vt 0.346337 0.360128
vt 0.345855 0.366229
vt 0.345709 0.695905
vt 0.345584 0.369700
vt 0.345405 0.690740
vt 0.345303 0.373422
vt 0.345115 0.685178
vt 0.345023 0.377373
vt 0.344843 0.679306
vt 0.344751 0.381532
vt 0.344593 0.673207
vt 0.344497 0.385875
vt 0.344369 0.666967
vt 0.344270 0.390381
vt 0.344176 0.660672
vt 0.344078 0.395028
vt 0.344018 0.654406
vt 0.343929 0.399794
vt 0.343900 0.648254
vt 0.343834 0.404657
vt 0.343826 0.642302
vt 0.343800 0.409595
vt 0.343800 0.636635
vt 0.343800 0.622414
vt 0.343800 0.605137
vt 0.343800 0.585464
vt 0.343800 0.564055
vt 0.343800 0.541572
vt 0.343800 0.518676
vt 0.343800 0.496025
vt 0.343800 0.474282
vt 0.343800 0.454107
vt 0.343800 0.436160
vt 0.343800 0.421102
vt 0.280177 0.700540
vt 0.280408 0.695905
vt 0.280645 0.690858
vt 0.280882 0.685460
vt 0.281113 0.679768
vt 0.281332 0.673841
vt 0.281534 0.667738
vt 0.281712 0.661517
vt 0.281861 0.655238
vt 0.281974 0.648959
vt 0.282047 0.642738
vt 0.282072 0.636635
vt 0.282072 0.622503
vt 0.282072 0.585642
vt 0.282072 0.564243
vt 0.282072 0.541752
vt 0.282072 0.518834
vt 0.282072 0.496154
vt 0.282072 0.474376
vt 0.282072 0.454166
vt 0.282072 0.421111
vt 0.282072 0.409595
vt 0.282039 0.405085
vt 0.281945 0.400469
vt 0.281801 0.395801
vt 0.281618 0.391132
vt 0.281405 0.386517
vt 0.281174 0.382007
vt 0.280933 0.377656
vt 0.279958 0.360128
vt 0.280694 0.373516
vt 0.280467 0.369640
vt 0.280262 0.366082
vt 0.280089 0.362893
vt 0.346337 0.957716
vt 0.400375 0.954161
vt 0.400877 0.957716
vt 0.400375 0.700496
vt 0.346337 0.696852
vt 0.400877 0.696852
vt 0.399924 0.704227
vt 0.399924 0.950489
vt 0.399523 0.708030
vt 0.399523 0.946723
vt 0.399171 0.711885
vt 0.399170 0.942887
vt 0.398865 0.715775
vt 0.398865 0.939003
vt 0.398605 0.719683
vt 0.398605 0.935097
vt 0.398389 0.723591
vt 0.398389 0.931190
vt 0.398215 0.727481
vt 0.398215 0.927306
vt 0.398083 0.731336
vt 0.398083 0.923470
vt 0.397990 0.735138
vt 0.397990 0.919704
vt 0.397936 0.738870
vt 0.397936 0.916032
vt 0.397918 0.742514
vt 0.397918 0.912477
vt 0.397918 0.904006
vt 0.397918 0.892341
vt 0.397918 0.878132
vt 0.397918 0.862024
vt 0.397918 0.844665
vt 0.397918 0.826703
vt 0.397918 0.808785
vt 0.397918 0.791558
vt 0.397918 0.775670
vt 0.397918 0.761769
vt 0.397918 0.750501
vt 0.346548 0.954347
vt 0.346756 0.950810
vt 0.346958 0.947133
vt 0.347151 0.943341
vt 0.347333 0.939461
vt 0.347500 0.935519
vt 0.347649 0.931542
vt 0.347778 0.927557
vt 0.347883 0.923589
vt 0.347962 0.919665
vt 0.348011 0.915811
vt 0.348028 0.912054
vt 0.348028 0.903680
vt 0.348028 0.892097
vt 0.348028 0.877953
vt 0.348028 0.861898
vt 0.348028 0.844581
vt 0.348028 0.826650
vt 0.348028 0.808754
vt 0.348028 0.791542
vt 0.348028 0.775663
vt 0.348028 0.761766
vt 0.348028 0.750500
vt 0.348028 0.742514
vt 0.348011 0.738781
vt 0.347962 0.734991
vt 0.347883 0.731158
vt 0.347778 0.727293
vt 0.347649 0.723411
vt 0.347500 0.719524
vt 0.347333 0.715646
vt 0.347151 0.711791
vt 0.346958 0.707970
vt 0.346756 0.704198
vt 0.346548 0.700487
vt 0.711695 0.357274
vt 0.656625 0.360487
vt 0.656309 0.357274
vt 0.656714 0.710282
vt 0.711272 0.713267
vt 0.656309 0.713267
vt 0.656937 0.363775
vt 0.657084 0.707070
vt 0.657240 0.367124
vt 0.657418 0.703688
vt 0.657530 0.370522
vt 0.657718 0.700192
vt 0.657802 0.373955
vt 0.657982 0.696637
vt 0.658053 0.377410
vt 0.658211 0.693079
vt 0.658277 0.380874
vt 0.658405 0.689574
vt 0.658470 0.384333
vt 0.658564 0.686177
vt 0.658627 0.387775
vt 0.658687 0.682945
vt 0.658746 0.391186
vt 0.658775 0.679933
vt 0.658820 0.394553
vt 0.658828 0.677197
vt 0.658845 0.397862
vt 0.658845 0.674793
vt 0.658845 0.408334
vt 0.658845 0.425716
vt 0.658845 0.448624
vt 0.658845 0.475672
vt 0.658845 0.505474
vt 0.658845 0.536645
vt 0.658845 0.567797
vt 0.658845 0.597547
vt 0.658845 0.624507
vt 0.658845 0.647292
vt 0.658845 0.664516
vt 0.711484 0.360317
vt 0.711276 0.363510
vt 0.711074 0.366827
vt 0.710880 0.370240
vt 0.710699 0.373724
vt 0.710532 0.377251
vt 0.710383 0.380797
vt 0.710254 0.384333
vt 0.710149 0.387834
vt 0.710070 0.391274
vt 0.710021 0.394625
vt 0.710003 0.397862
vt 0.710004 0.514131
vt 0.710004 0.572899
vt 0.710004 0.674793
vt 0.710012 0.677835
vt 0.710039 0.681019
vt 0.710083 0.684312
vt 0.710144 0.687680
vt 0.710224 0.691089
vt 0.710321 0.694506
vt 0.710435 0.697895
vt 0.710567 0.701225
vt 0.710717 0.704461
vt 0.710884 0.707569
vt 0.711069 0.710516
vt 0.718802 0.513591
vt 0.720724 0.572125
vt 0.727436 0.512806
vt 0.731118 0.571071
vt 0.735900 0.511759
vt 0.741191 0.569742
vt 0.744187 0.510435
vt 0.750952 0.568139
vt 0.752293 0.508818
vt 0.760407 0.566266
vt 0.760210 0.506891
vt 0.767934 0.504637
vt 0.769565 0.564126
vt 0.775458 0.502042
vt 0.778431 0.561722
vt 0.782777 0.499089
vt 0.787015 0.559057
vt 0.789884 0.495761
vt 0.795322 0.556133
vt 0.796774 0.492043
vt 0.803361 0.552954
vt 0.803441 0.487918
vt 0.811138 0.549522
vt 0.809564 0.483433
vt 0.815641 0.478462
vt 0.818662 0.545841
vt 0.821628 0.473047
vt 0.826024 0.541779
vt 0.827478 0.467232
vt 0.833483 0.537021
vt 0.833146 0.461059
vt 0.838586 0.454570
vt 0.840977 0.531611
vt 0.843753 0.447808
vt 0.848445 0.525593
vt 0.848602 0.440815
vt 0.855825 0.519012
vt 0.853086 0.433635
vt 0.857161 0.426309
vt 0.863055 0.511911
vt 0.860781 0.418881
vt 0.863901 0.411392
vt 0.870074 0.504335
vt 0.899838 0.460859
vt 0.876819 0.496327
vt 0.883230 0.487931
vt 0.889245 0.479192
vt 0.894801 0.470153
vt 0.676572 0.074657
vt 0.651629 0.037622
vt 0.677309 0.072373
vt 0.675859 0.077268
vt 0.675177 0.080181
vt 0.674534 0.083372
vt 0.613963 0.314856
vt 0.673596 0.311909
vt 0.674000 0.315048
vt 0.673937 0.086816
vt 0.673215 0.308267
vt 0.673393 0.090488
vt 0.672858 0.304216
vt 0.672529 0.299853
vt 0.672911 0.094362
vt 0.672230 0.295273
vt 0.672497 0.098414
vt 0.671963 0.290572
vt 0.671732 0.285844
vt 0.672159 0.102619
vt 0.671539 0.281185
vt 0.671904 0.106953
vt 0.671387 0.276690
vt 0.671277 0.272456
vt 0.671740 0.111389
vt 0.671214 0.268577
vt 0.671674 0.115903
vt 0.671199 0.265149
vt 0.671222 0.257957
vt 0.671254 0.247781
vt 0.671294 0.235229
vt 0.671340 0.220912
vt 0.671389 0.205438
vt 0.671440 0.189416
vt 0.671491 0.173456
vt 0.671540 0.158167
vt 0.671584 0.144157
vt 0.671623 0.132038
vt 0.671653 0.122416
vt 0.650295 0.038547
vt 0.648654 0.039619
vt 0.646750 0.040810
vt 0.644631 0.042094
vt 0.642341 0.043441
vt 0.639927 0.044825
vt 0.637433 0.046217
vt 0.615671 0.293088
vt 0.634905 0.047590
vt 0.616022 0.288466
vt 0.616348 0.283734
vt 0.632389 0.048917
vt 0.616634 0.278954
vt 0.629931 0.050168
vt 0.627576 0.051317
vt 0.616862 0.274191
vt 0.625369 0.052336
vt 0.617017 0.269510
vt 0.617081 0.264976
vt 0.617102 0.258668
vt 0.617132 0.249251
vt 0.617169 0.237349
vt 0.617213 0.223590
vt 0.617261 0.208597
vt 0.617311 0.192996
vt 0.617360 0.177413
vt 0.617408 0.162473
vt 0.617451 0.148801
vt 0.617489 0.137023
vt 0.617518 0.127764
vt 0.617538 0.121650
vt 0.616876 0.056094
vt 0.609791 0.124286
vt 0.607952 0.060222
vt 0.615311 0.297533
vt 0.614960 0.301737
vt 0.614633 0.305636
vt 0.614347 0.309165
vt 0.614118 0.312260
vt 0.601625 0.127557
vt 0.598660 0.064704
vt 0.593117 0.131415
vt 0.589063 0.069524
vt 0.584342 0.135809
vt 0.579225 0.074666
vt 0.575379 0.140691
vt 0.569207 0.080115
vt 0.566302 0.146009
vt 0.559074 0.085853
vt 0.557189 0.151714
vt 0.548889 0.091867
vt 0.548116 0.157758
vt 0.538715 0.098138
vt 0.539159 0.164089
vt 0.530395 0.170659
vt 0.528615 0.104652
vt 0.521901 0.177418
vt 0.518652 0.111393
vt 0.513753 0.184316
vt 0.508890 0.118344
vt 0.502491 0.194740
vt 0.499488 0.107677
vt 0.491042 0.206157
vt 0.489490 0.096743
vt 0.479523 0.218486
vt 0.479041 0.085667
vt 0.468050 0.231649
vt 0.468284 0.074573
vt 0.456739 0.245563
vt 0.465225 0.154988
vt 0.457362 0.063583
vt 0.453526 0.166387
vt 0.455644 0.145038
vt 0.446419 0.052823
vt 0.445706 0.260150
vt 0.445887 0.135143
vt 0.441995 0.178229
vt 0.435598 0.042415
vt 0.435067 0.275327
vt 0.435988 0.125346
vt 0.430680 0.190479
vt 0.425983 0.115684
vt 0.424939 0.291016
vt 0.425042 0.032484
vt 0.419629 0.203105
vt 0.415907 0.106199
vt 0.415438 0.307136
vt 0.414896 0.023153
vt 0.408888 0.216072
vt 0.406681 0.323605
vt 0.405796 0.096929
vt 0.405302 0.014547
vt 0.398503 0.229347
vt 0.398782 0.340345
vt 0.395683 0.087914
vt 0.396405 0.006787
vt 0.391860 0.357274
vt 0.388524 0.242896
vt 0.388347 -0.000000
vt 0.385605 0.079195
vt 0.346337 0.313581
vt 0.378995 0.256686
vt 0.375596 0.070811
vt 0.365692 0.062801
vt 0.355927 0.055206
vt 0.346337 0.048065
vt 0.369965 0.270683
vt 0.361481 0.284854
vt 0.353589 0.299164
s 0
usemtl マテリアル
f 29/1/1 27/2/1 28/3/1
f 29/1/1 26/4/1 27/2/1
f 29/1/1 25/5/1 26/4/1
f 30/6/1 25/5/1 29/1/1
f 30/6/1 24/7/1 25/5/1
f 31/8/1 24/7/1 30/6/1
f 31/8/1 23/9/1 24/7/1
f 32/10/1 23/9/1 31/8/1
f 32/10/1 22/11/1 23/9/1
f 33/12/1 22/11/1 32/10/1
f 33/12/1 21/13/1 22/11/1
f 34/14/1 21/13/1 33/12/1
f 34/14/1 20/15/1 21/13/1
f 35/16/1 20/15/1 34/14/1
f 35/16/1 19/17/1 20/15/1
f 36/18/1 19/17/1 35/16/1
f 36/18/1 18/19/1 19/17/1
f 37/20/1 18/19/1 36/18/1
f 37/20/1 17/21/1 18/19/1
f 38/22/1 17/21/1 37/20/1
f 38/22/1 16/23/1 17/21/1
f 39/24/1 16/23/1 38/22/1
f 39/24/1 15/25/1 16/23/1
f 40/26/1 15/25/1 39/24/1
f 41/27/1 15/25/1 40/26/1
f 41/27/1 14/28/1 15/25/1
f 42/29/1 14/28/1 41/27/1
f 43/30/1 14/28/1 42/29/1
f 44/31/1 14/28/1 43/30/1
f 44/31/1 13/32/1 14/28/1
f 44/31/1 12/33/1 13/32/1
f 44/31/1 11/34/1 12/33/1
f 45/35/1 11/34/1 44/31/1
f 45/35/1 10/36/1 11/34/1
f 45/35/1 9/37/1 10/36/1
f 45/35/1 8/38/1 9/37/1
f 45/35/1 7/39/1 8/38/1
f 46/40/1 7/39/1 45/35/1
f 46/40/1 6/41/1 7/39/1
f 46/40/1 5/42/1 6/41/1
f 46/40/1 4/43/1 5/42/1
f 46/40/1 3/44/1 4/43/1
f 47/45/1 78/46/1 46/40/1
f 78/46/1 3/44/1 46/40/1
f 78/46/1 2/47/1 3/44/1
f 47/45/1 77/48/1 78/46/1
f 79/49/1 2/47/1 78/46/1
f 80/50/1 2/47/1 79/49/1
f 80/50/1 81/51/1 2/47/1
f 81/51/1 82/52/1 2/47/1
f 82/52/1 83/53/1 2/47/1
f 83/53/1 84/54/1 2/47/1
f 84/54/1 85/55/1 2/47/1
f 85/55/1 86/56/1 2/47/1
f 86/56/1 87/57/1 2/47/1
f 87/57/1 88/58/1 2/47/1
f 88/58/1 89/59/1 2/47/1
f 89/59/1 1/60/1 2/47/1
f 48/61/1 77/48/1 47/45/1
f 49/62/1 77/48/1 48/61/1
f 50/63/1 77/48/1 49/62/1
f 51/64/1 77/48/1 50/63/1
f 52/65/1 77/48/1 51/64/1
f 53/66/1 77/48/1 52/65/1
f 53/66/1 76/67/1 77/48/1
f 53/66/1 75/68/1 76/67/1
f 54/69/1 75/68/1 53/66/1
f 54/69/1 74/70/1 75/68/1
f 55/71/1 74/70/1 54/69/1
f 55/71/1 73/72/1 74/70/1
f 56/73/1 73/72/1 55/71/1
f 56/73/1 72/74/1 73/72/1
f 57/75/1 72/74/1 56/73/1
f 57/75/1 71/76/1 72/74/1
f 58/77/1 71/76/1 57/75/1
f 58/77/1 70/78/1 71/76/1
f 59/79/1 70/78/1 58/77/1
f 59/79/1 69/80/1 70/78/1
f 60/81/1 69/80/1 59/79/1
f 60/81/1 68/82/1 69/80/1
f 61/83/1 68/82/1 60/81/1
f 61/83/1 67/84/1 68/82/1
f 62/85/1 67/84/1 61/83/1
f 62/85/1 66/86/1 67/84/1
f 63/87/1 66/86/1 62/85/1
f 63/87/1 65/88/1 66/86/1
f 64/89/1 65/88/1 63/87/1
f 194/90/1 192/91/1 193/92/1
f 195/93/1 192/91/1 194/90/1
f 196/94/1 192/91/1 195/93/1
f 197/95/1 192/91/1 196/94/1
f 198/96/1 192/91/1 197/95/1
f 199/97/1 192/91/1 198/96/1
f 199/97/1 191/98/1 192/91/1
f 200/99/1 191/98/1 199/97/1
f 200/99/1 190/100/1 191/98/1
f 201/101/1 190/100/1 200/99/1
f 201/101/1 189/102/1 190/100/1
f 202/103/1 189/102/1 201/101/1
f 202/103/1 188/104/1 189/102/1
f 203/105/1 188/104/1 202/103/1
f 203/105/1 187/106/1 188/104/1
f 204/107/1 187/106/1 203/105/1
f 204/107/1 186/108/1 187/106/1
f 205/109/1 186/108/1 204/107/1
f 205/109/1 185/110/1 186/108/1
f 206/111/1 185/110/1 205/109/1
f 206/111/1 184/112/1 185/110/1
f 206/111/1 183/113/1 184/112/1
f 207/114/1 183/113/1 206/111/1
f 207/114/1 182/115/1 183/113/1
f 207/114/1 181/116/1 182/115/1
f 167/117/1 165/118/1 166/119/1
f 207/114/1 180/120/1 181/116/1
f 168/121/1 165/118/1 167/117/1
f 169/122/1 165/118/1 168/121/1
f 170/123/1 165/118/1 169/122/1
f 171/124/1 165/118/1 170/123/1
f 207/114/1 179/125/1 180/120/1
f 172/126/1 165/118/1 171/124/1
f 208/127/1 179/125/1 207/114/1
f 173/128/1 165/118/1 172/126/1
f 174/129/1 165/118/1 173/128/1
f 175/130/1 165/118/1 174/129/1
f 176/131/1 165/118/1 175/130/1
f 177/132/1 165/118/1 176/131/1
f 178/133/1 165/118/1 177/132/1
f 208/127/1 178/133/1 179/125/1
f 208/127/1 165/118/1 178/133/1
f 209/134/1 165/118/1 208/127/1
f 210/135/1 165/118/1 209/134/1
f 210/135/1 164/136/1 165/118/1
f 210/135/1 163/137/1 164/136/1
f 210/135/1 162/138/1 163/137/1
f 210/135/1 161/139/1 162/138/1
f 210/135/1 160/140/1 161/139/1
f 211/141/1 160/140/1 210/135/1
f 211/141/1 159/142/1 160/140/1
f 211/141/1 158/143/1 159/142/1
f 211/141/1 157/144/1 158/143/1
f 211/141/1 156/145/1 157/144/1
f 212/146/1 103/147/1 211/141/1
f 103/147/1 156/145/1 211/141/1
f 103/147/1 155/148/1 156/145/1
f 103/147/1 104/149/1 155/148/1
f 104/149/1 154/150/1 155/148/1
f 212/146/1 102/151/1 103/147/1
f 105/152/1 154/150/1 104/149/1
f 105/152/1 153/153/1 154/150/1
f 105/152/1 152/154/1 153/153/1
f 213/155/1 102/151/1 212/146/1
f 106/156/1 152/154/1 105/152/1
f 213/155/1 101/157/1 102/151/1
f 106/156/1 151/158/1 152/154/1
f 107/159/1 151/158/1 106/156/1
f 213/155/1 100/160/1 101/157/1
f 214/161/1 100/160/1 213/155/1
f 107/159/1 150/162/1 151/158/1
f 108/163/1 150/162/1 107/159/1
f 214/161/1 99/164/1 100/160/1
f 215/165/1 99/164/1 214/161/1
f 108/163/1 149/166/1 150/162/1
f 215/165/1 98/167/1 99/164/1
f 109/168/1 149/166/1 108/163/1
f 216/169/1 98/167/1 215/165/1
f 216/169/1 97/170/1 98/167/1
f 110/171/1 149/166/1 109/168/1
f 110/171/1 148/172/1 149/166/1
f 216/169/1 96/173/1 97/170/1
f 90/174/1 96/173/1 216/169/1
f 111/175/1 148/172/1 110/171/1
f 111/175/1 147/176/1 148/172/1
f 90/174/1 95/177/1 96/173/1
f 91/178/1 95/177/1 90/174/1
f 112/179/1 147/176/1 111/175/1
f 112/179/1 146/180/1 147/176/1
f 91/178/1 94/181/1 95/177/1
f 113/182/1 146/180/1 112/179/1
f 91/178/1 93/183/1 94/181/1
f 113/182/1 145/184/1 146/180/1
f 91/178/1 92/185/1 93/183/1
f 114/186/1 145/184/1 113/182/1
f 114/186/1 144/187/1 145/184/1
f 115/188/1 144/187/1 114/186/1
f 116/189/1 144/187/1 115/188/1
f 116/189/1 143/190/1 144/187/1
f 117/191/1 143/190/1 116/189/1
f 117/191/1 142/192/1 143/190/1
f 118/193/1 142/192/1 117/191/1
f 118/193/1 141/194/1 142/192/1
f 119/195/1 141/194/1 118/193/1
f 119/195/1 140/196/1 141/194/1
f 120/197/1 140/196/1 119/195/1
f 121/198/1 140/196/1 120/197/1
f 121/198/1 139/199/1 140/196/1
f 122/200/1 139/199/1 121/198/1
f 122/200/1 138/201/1 139/199/1
f 123/202/1 138/201/1 122/200/1
f 123/202/1 137/203/1 138/201/1
f 124/204/1 137/203/1 123/202/1
f 125/205/1 137/203/1 124/204/1
f 125/205/1 136/206/1 137/203/1
f 126/207/1 136/206/1 125/205/1
f 126/207/1 135/208/1 136/206/1
f 127/209/1 135/208/1 126/207/1
f 127/209/1 134/210/1 135/208/1
f 128/211/1 134/210/1 127/209/1
f 129/212/1 134/210/1 128/211/1
f 129/212/1 133/213/1 134/210/1
f 129/212/1 132/214/1 133/213/1
f 129/212/1 131/215/1 132/214/1
f 129/212/1 130/216/1 131/215/1
f 281/217/1 279/218/1 280/219/1
f 281/217/1 278/220/1 279/218/1
f 282/221/1 278/220/1 281/217/1
f 282/221/1 277/222/1 278/220/1
f 283/223/1 277/222/1 282/221/1
f 283/223/1 276/224/1 277/222/1
f 284/225/1 276/224/1 283/223/1
f 284/225/1 275/226/1 276/224/1
f 285/227/1 275/226/1 284/225/1
f 285/227/1 274/228/1 275/226/1
f 286/229/1 274/228/1 285/227/1
f 286/229/1 273/230/1 274/228/1
f 287/231/1 273/230/1 286/229/1
f 287/231/1 272/232/1 273/230/1
f 288/233/1 272/232/1 287/231/1
f 288/233/1 271/234/1 272/232/1
f 289/235/1 271/234/1 288/233/1
f 289/235/1 270/236/1 271/234/1
f 290/237/1 270/236/1 289/235/1
f 290/237/1 269/238/1 270/236/1
f 291/239/1 269/238/1 290/237/1
f 291/239/1 268/240/1 269/238/1
f 291/239/1 267/241/1 268/240/1
f 292/242/1 267/241/1 291/239/1
f 293/243/1 267/241/1 292/242/1
f 293/243/1 266/244/1 267/241/1
f 293/243/1 265/245/1 266/244/1
f 294/246/1 265/245/1 293/243/1
f 294/246/1 264/247/1 265/245/1
f 295/248/1 264/247/1 294/246/1
f 295/248/1 263/249/1 264/247/1
f 296/250/1 263/249/1 295/248/1
f 296/250/1 262/251/1 263/249/1
f 297/252/1 262/251/1 296/250/1
f 244/253/1 242/254/1 243/255/1
f 297/252/1 261/256/1 262/251/1
f 245/257/1 242/254/1 244/253/1
f 298/258/1 261/256/1 297/252/1
f 246/259/1 242/254/1 245/257/1
f 298/258/1 260/260/1 261/256/1
f 299/261/1 260/260/1 298/258/1
f 247/262/1 242/254/1 246/259/1
f 247/262/1 241/263/1 242/254/1
f 299/261/1 259/264/1 260/260/1
f 248/265/1 241/263/1 247/262/1
f 300/266/1 259/264/1 299/261/1
f 248/265/1 240/267/1 241/263/1
f 249/268/1 240/267/1 248/265/1
f 300/266/1 258/269/1 259/264/1
f 249/268/1 239/270/1 240/267/1
f 301/271/1 258/269/1 300/266/1
f 250/272/1 239/270/1 249/268/1
f 250/272/1 238/273/1 239/270/1
f 301/271/1 257/274/1 258/269/1
f 251/275/1 238/273/1 250/272/1
f 302/276/1 257/274/1 301/271/1
f 252/277/1 238/273/1 251/275/1
f 252/277/1 237/278/1 238/273/1
f 302/276/1 256/279/1 257/274/1
f 253/280/1 237/278/1 252/277/1
f 303/281/1 256/279/1 302/276/1
f 253/280/1 236/282/1 237/278/1
f 254/283/1 236/282/1 253/280/1
f 303/281/1 255/284/1 256/279/1
f 255/284/1 236/282/1 254/283/1
f 255/284/1 235/285/1 236/282/1
f 304/286/1 255/284/1 303/281/1
f 304/286/1 235/285/1 255/284/1
f 305/287/1 235/285/1 304/286/1
f 305/287/1 234/288/1 235/285/1
f 306/289/1 234/288/1 305/287/1
f 307/290/1 234/288/1 306/289/1
f 308/291/1 234/288/1 307/290/1
f 309/292/1 234/288/1 308/291/1
f 310/293/1 234/288/1 309/292/1
f 310/293/1 233/294/1 234/288/1
f 311/295/1 233/294/1 310/293/1
f 312/296/1 233/294/1 311/295/1
f 313/297/1 233/294/1 312/296/1
f 314/298/1 233/294/1 313/297/1
f 315/299/1 233/294/1 314/298/1
f 315/299/1 232/300/1 233/294/1
f 217/301/1 232/300/1 315/299/1
f 218/302/1 219/303/1 217/301/1
f 219/303/1 220/304/1 217/301/1
f 220/304/1 221/305/1 217/301/1
f 221/305/1 222/306/1 217/301/1
f 222/306/1 223/307/1 217/301/1
f 223/307/1 224/308/1 217/301/1
f 224/308/1 225/309/1 217/301/1
f 225/309/1 226/310/1 217/301/1
f 226/310/1 227/311/1 217/301/1
f 227/311/1 232/300/1 217/301/1
f 227/311/1 228/312/1 232/300/1
f 228/312/1 230/313/1 232/300/1
f 230/313/1 231/314/1 232/300/1
f 228/312/1 229/315/1 230/313/1
f 381/316/1 379/317/1 380/318/1
f 381/316/1 378/319/1 379/317/1
f 381/316/1 377/320/1 378/319/1
f 382/321/1 377/320/1 381/316/1
f 382/321/1 376/322/1 377/320/1
f 383/323/1 376/322/1 382/321/1
f 383/323/1 375/324/1 376/322/1
f 384/325/1 375/324/1 383/323/1
f 384/325/1 374/326/1 375/324/1
f 385/327/1 374/326/1 384/325/1
f 385/327/1 373/328/1 374/326/1
f 386/329/1 373/328/1 385/327/1
f 386/329/1 372/330/1 373/328/1
f 387/331/1 372/330/1 386/329/1
f 387/331/1 371/332/1 372/330/1
f 388/333/1 371/332/1 387/331/1
f 388/333/1 370/334/1 371/332/1
f 389/335/1 370/334/1 388/333/1
f 389/335/1 369/336/1 370/334/1
f 390/337/1 369/336/1 389/335/1
f 390/337/1 368/338/1 369/336/1
f 391/339/1 368/338/1 390/337/1
f 391/339/1 367/340/1 368/338/1
f 392/341/1 367/340/1 391/339/1
f 393/342/1 367/340/1 392/341/1
f 393/342/1 366/343/1 367/340/1
f 343/344/1 341/345/1 342/346/1
f 344/347/1 341/345/1 343/344/1
f 345/348/1 341/345/1 344/347/1
f 346/349/1 341/345/1 345/348/1
f 347/350/1 341/345/1 346/349/1
f 348/351/1 341/345/1 347/350/1
f 349/352/1 341/345/1 348/351/1
f 350/353/1 341/345/1 349/352/1
f 351/354/1 341/345/1 350/353/1
f 352/355/1 341/345/1 351/354/1
f 353/356/1 341/345/1 352/355/1
f 354/357/1 341/345/1 353/356/1
f 355/358/1 341/345/1 354/357/1
f 356/359/1 341/345/1 355/358/1
f 357/360/1 341/345/1 356/359/1
f 358/361/1 341/345/1 357/360/1
f 359/362/1 341/345/1 358/361/1
f 360/363/1 341/345/1 359/362/1
f 361/364/1 341/345/1 360/363/1
f 362/365/1 341/345/1 361/364/1
f 363/366/1 341/345/1 362/365/1
f 364/367/1 341/345/1 363/366/1
f 364/367/1 340/368/1 341/345/1
f 365/369/1 340/368/1 364/367/1
f 365/369/1 339/370/1 340/368/1
f 365/369/1 338/371/1 339/370/1
f 366/343/1 338/371/1 365/369/1
f 366/343/1 337/372/1 338/371/1
f 393/342/1 337/372/1 366/343/1
f 393/342/1 336/373/1 337/372/1
f 393/342/1 335/374/1 336/373/1
f 393/342/1 334/375/1 335/374/1
f 393/342/1 333/376/1 334/375/1
f 393/342/1 332/377/1 333/376/1
f 393/342/1 331/378/1 332/377/1
f 394/379/1 331/378/1 393/342/1
f 395/380/1 331/378/1 394/379/1
f 395/380/1 330/381/1 331/378/1
f 396/382/1 330/381/1 395/380/1
f 396/382/1 329/383/1 330/381/1
f 397/384/1 329/383/1 396/382/1
f 397/384/1 328/385/1 329/383/1
f 398/386/1 328/385/1 397/384/1
f 399/387/1 328/385/1 398/386/1
f 400/388/1 328/385/1 399/387/1
f 401/389/1 328/385/1 400/388/1
f 402/390/1 328/385/1 401/389/1
f 403/391/1 328/385/1 402/390/1
f 404/392/1 328/385/1 403/391/1
f 404/392/1 470/393/1 328/385/1
f 470/393/1 327/394/1 328/385/1
f 405/395/1 470/393/1 404/392/1
f 405/395/1 469/396/1 470/393/1
f 471/397/1 327/394/1 470/393/1
f 406/398/1 407/399/1 405/395/1
f 407/399/1 408/400/1 405/395/1
f 408/400/1 409/401/1 405/395/1
f 409/401/1 410/402/1 405/395/1
f 410/402/1 411/403/1 405/395/1
f 411/403/1 412/404/1 405/395/1
f 412/404/1 413/405/1 405/395/1
f 413/405/1 414/406/1 405/395/1
f 414/406/1 415/407/1 405/395/1
f 415/407/1 469/396/1 405/395/1
f 472/408/1 327/394/1 471/397/1
f 472/408/1 326/409/1 327/394/1
f 473/410/1 326/409/1 472/408/1
f 474/411/1 326/409/1 473/410/1
f 474/411/1 325/412/1 326/409/1
f 415/407/1 416/413/1 469/396/1
f 416/413/1 417/414/1 469/396/1
f 417/414/1 418/415/1 469/396/1
f 418/415/1 468/416/1 469/396/1
f 475/417/1 325/412/1 474/411/1
f 475/417/1 324/418/1 325/412/1
f 476/419/1 324/418/1 475/417/1
f 419/420/1 468/416/1 418/415/1
f 477/421/1 324/418/1 476/419/1
f 477/421/1 323/422/1 324/418/1
f 478/423/1 323/422/1 477/421/1
f 478/423/1 322/424/1 323/422/1
f 479/425/1 322/424/1 478/423/1
f 479/425/1 321/426/1 322/424/1
f 480/427/1 321/426/1 479/425/1
f 481/428/1 321/426/1 480/427/1
f 481/428/1 320/429/1 321/426/1
f 316/430/1 320/429/1 481/428/1
f 317/431/1 320/429/1 316/430/1
f 317/431/1 319/432/1 320/429/1
f 317/431/1 318/433/1 319/432/1
f 419/420/1 467/434/1 468/416/1
f 419/420/1 466/435/1 467/434/1
f 419/420/1 465/436/1 466/435/1
f 420/437/1 465/436/1 419/420/1
f 420/437/1 464/438/1 465/436/1
f 420/437/1 463/439/1 464/438/1
f 445/440/1 443/441/1 444/442/1
f 446/443/1 443/441/1 445/440/1
f 420/437/1 462/444/1 463/439/1
f 447/445/1 443/441/1 446/443/1
f 421/446/1 462/444/1 420/437/1
f 448/447/1 443/441/1 447/445/1
f 421/446/1 461/448/1 462/444/1
f 449/449/1 443/441/1 448/447/1
f 421/446/1 460/450/1 461/448/1
f 450/451/1 443/441/1 449/449/1
f 451/452/1 443/441/1 450/451/1
f 421/446/1 459/453/1 460/450/1
f 452/454/1 443/441/1 451/452/1
f 421/446/1 458/455/1 459/453/1
f 453/456/1 443/441/1 452/454/1
f 454/457/1 443/441/1 453/456/1
f 421/446/1 457/458/1 458/455/1
f 455/459/1 443/441/1 454/457/1
f 421/446/1 456/460/1 457/458/1
f 456/460/1 443/441/1 455/459/1
f 421/446/1 443/441/1 456/460/1
f 422/461/1 443/441/1 421/446/1
f 423/462/1 443/441/1 422/461/1
f 424/463/1 443/441/1 423/462/1
f 425/464/1 443/441/1 424/463/1
f 426/465/1 443/441/1 425/464/1
f 427/466/1 443/441/1 426/465/1
f 427/466/1 442/467/1 443/441/1
f 427/466/1 441/468/1 442/467/1
f 428/469/1 441/468/1 427/466/1
f 428/469/1 440/470/1 441/468/1
f 428/469/1 439/471/1 440/470/1
f 428/469/1 438/472/1 439/471/1
f 429/473/1 438/472/1 428/469/1
f 429/473/1 437/474/1 438/472/1
f 429/473/1 436/475/1 437/474/1
f 429/473/1 435/476/1 436/475/1
f 430/477/1 435/476/1 429/473/1
f 430/477/1 434/478/1 435/476/1
f 430/477/1 433/479/1 434/478/1
f 431/480/1 433/479/1 430/477/1
f 431/480/1 432/481/1 433/479/1
f 574/482/1 572/483/1 573/484/1
f 574/482/1 571/485/1 572/483/1
f 574/482/1 570/486/1 571/485/1
f 574/482/1 569/487/1 570/486/1
f 574/482/1 568/488/1 569/487/1
f 574/482/1 567/489/1 568/488/1
f 574/482/1 566/490/1 567/489/1
f 574/482/1 565/491/1 566/490/1
f 574/482/1 564/492/1 565/491/1
f 575/493/1 564/492/1 574/482/1
f 575/493/1 563/494/1 564/492/1
f 576/495/1 563/494/1 575/493/1
f 576/495/1 562/496/1 563/494/1
f 577/497/1 562/496/1 576/495/1
f 577/497/1 561/498/1 562/496/1
f 578/499/1 561/498/1 577/497/1
f 578/499/1 579/500/1 561/498/1
f 579/500/1 580/501/1 561/498/1
f 580/501/1 581/502/1 561/498/1
f 581/502/1 582/503/1 561/498/1
f 582/503/1 583/504/1 561/498/1
f 583/504/1 584/505/1 561/498/1
f 584/505/1 585/506/1 561/498/1
f 585/506/1 560/507/1 561/498/1
f 613/508/1 611/509/1 612/510/1
f 548/511/1 546/512/1 547/513/1
f 548/511/1 545/514/1 546/512/1
f 548/511/1 544/515/1 545/514/1
f 614/516/1 611/509/1 613/508/1
f 548/511/1 543/517/1 544/515/1
f 548/511/1 542/518/1 543/517/1
f 548/511/1 541/519/1 542/518/1
f 615/520/1 611/509/1 614/516/1
f 548/511/1 540/521/1 541/519/1
f 548/511/1 539/522/1 540/521/1
f 548/511/1 538/523/1 539/522/1
f 616/524/1 611/509/1 615/520/1
f 548/511/1 537/525/1 538/523/1
f 549/526/1 537/525/1 548/511/1
f 550/527/1 537/525/1 549/526/1
f 550/527/1 536/528/1 537/525/1
f 616/524/1 610/529/1 611/509/1
f 551/530/1 536/528/1 550/527/1
f 551/530/1 535/531/1 536/528/1
f 617/532/1 610/529/1 616/524/1
f 551/530/1 552/533/1 535/531/1
f 552/533/1 553/534/1 535/531/1
f 553/534/1 554/535/1 535/531/1
f 554/535/1 555/536/1 535/531/1
f 555/536/1 556/537/1 535/531/1
f 556/537/1 557/538/1 535/531/1
f 557/538/1 558/539/1 535/531/1
f 558/539/1 559/540/1 535/531/1
f 559/540/1 534/541/1 535/531/1
f 617/532/1 609/542/1 610/529/1
f 618/543/1 609/542/1 617/532/1
f 618/543/1 608/544/1 609/542/1
f 619/545/1 608/544/1 618/543/1
f 620/546/1 608/544/1 619/545/1
f 620/546/1 607/547/1 608/544/1
f 621/548/1 607/547/1 620/546/1
f 621/548/1 606/549/1 607/547/1
f 622/550/1 606/549/1 621/548/1
f 622/550/1 605/551/1 606/549/1
f 623/552/1 605/551/1 622/550/1
f 623/552/1 604/553/1 605/551/1
f 624/554/1 604/553/1 623/552/1
f 624/554/1 603/555/1 604/553/1
f 625/556/1 603/555/1 624/554/1
f 626/557/1 603/555/1 625/556/1
f 626/557/1 602/558/1 603/555/1
f 627/559/1 602/558/1 626/557/1
f 628/560/1 602/558/1 627/559/1
f 628/560/1 601/561/1 602/558/1
f 629/562/1 601/561/1 628/560/1
f 630/563/1 601/561/1 629/562/1
f 630/563/1 600/564/1 601/561/1
f 631/565/1 600/564/1 630/563/1
f 632/566/1 600/564/1 631/565/1
f 633/567/1 600/564/1 632/566/1
f 634/568/1 600/564/1 633/567/1
f 634/568/1 599/569/1 600/564/1
f 635/570/1 599/569/1 634/568/1
f 586/571/1 599/569/1 635/570/1
f 587/572/1 599/569/1 586/571/1
f 587/572/1 598/573/1 599/569/1
f 587/572/1 597/574/1 598/573/1
f 587/572/1 596/575/1 597/574/1
f 587/572/1 595/576/1 596/575/1
f 587/572/1 594/577/1 595/576/1
f 587/572/1 593/578/1 594/577/1
f 587/572/1 592/579/1 593/578/1
f 587/572/1 591/580/1 592/579/1
f 587/572/1 590/581/1 591/580/1
f 587/572/1 589/582/1 590/581/1
f 587/572/1 588/583/1 589/582/1
f 522/584/1 520/585/1 521/586/1
f 522/584/1 519/587/1 520/585/1
f 522/584/1 518/588/1 519/587/1
f 522/584/1 517/589/1 518/588/1
f 523/590/1 517/589/1 522/584/1
f 523/590/1 516/591/1 517/589/1
f 524/592/1 516/591/1 523/590/1
f 496/593/1 494/594/1 495/595/1
f 496/593/1 493/596/1 494/594/1
f 525/597/1 516/591/1 524/592/1
f 525/597/1 515/598/1 516/591/1
f 496/593/1 492/599/1 493/596/1
f 526/600/1 515/598/1 525/597/1
f 526/600/1 514/601/1 515/598/1
f 527/602/1 514/601/1 526/600/1
f 497/603/1 492/599/1 496/593/1
f 497/603/1 491/604/1 492/599/1
f 527/602/1 513/605/1 514/601/1
f 528/606/1 513/605/1 527/602/1
f 498/607/1 491/604/1 497/603/1
f 498/607/1 490/608/1 491/604/1
f 528/606/1 512/609/1 513/605/1
f 529/610/1 512/609/1 528/606/1
f 499/611/1 490/608/1 498/607/1
f 499/611/1 489/612/1 490/608/1
f 529/610/1 511/613/1 512/609/1
f 530/614/1 511/613/1 529/610/1
f 500/615/1 489/612/1 499/611/1
f 500/615/1 488/616/1 489/612/1
f 530/614/1 510/617/1 511/613/1
f 531/618/1 510/617/1 530/614/1
f 501/619/1 488/616/1 500/615/1
f 531/618/1 509/620/1 510/617/1
f 501/619/1 487/621/1 488/616/1
f 532/622/1 509/620/1 531/618/1
f 502/623/1 487/621/1 501/619/1
f 532/622/1 533/624/1 509/620/1
f 533/624/1 508/625/1 509/620/1
f 502/623/1 486/626/1 487/621/1
f 503/627/1 486/626/1 502/623/1
f 503/627/1 485/628/1 486/626/1
f 504/629/1 485/628/1 503/627/1
f 504/629/1 484/630/1 485/628/1
f 505/631/1 484/630/1 504/629/1
f 505/631/1 483/632/1 484/630/1
f 506/633/1 483/632/1 505/631/1
f 506/633/1 507/634/1 483/632/1
f 507/634/1 482/635/1 483/632/1
f 637/636/1 709/637/1 636/638/1
f 675/639/1 673/640/1 674/641/1
f 676/642/1 673/640/1 675/639/1
f 637/636/1 708/643/1 709/637/1
f 677/644/1 673/640/1 676/642/1
f 637/636/1 707/645/1 708/643/1
f 678/646/1 673/640/1 677/644/1
f 637/636/1 706/647/1 707/645/1
f 679/648/1 673/640/1 678/646/1
f 637/636/1 705/649/1 706/647/1
f 680/650/1 673/640/1 679/648/1
f 637/636/1 704/651/1 705/649/1
f 681/652/1 673/640/1 680/650/1
f 637/636/1 703/653/1 704/651/1
f 682/654/1 673/640/1 681/652/1
f 637/636/1 702/655/1 703/653/1
f 683/656/1 673/640/1 682/654/1
f 637/636/1 701/657/1 702/655/1
f 684/658/1 673/640/1 683/656/1
f 637/636/1 700/659/1 701/657/1
f 685/660/1 673/640/1 684/658/1
f 637/636/1 699/661/1 700/659/1
f 686/662/1 673/640/1 685/660/1
f 637/636/1 698/663/1 699/661/1
f 637/636/1 697/664/1 698/663/1
f 637/636/1 696/665/1 697/664/1
f 637/636/1 695/666/1 696/665/1
f 637/636/1 694/667/1 695/666/1
f 637/636/1 693/668/1 694/667/1
f 637/636/1 692/669/1 693/668/1
f 637/636/1 691/670/1 692/669/1
f 637/636/1 690/671/1 691/670/1
f 637/636/1 689/672/1 690/671/1
f 637/636/1 688/673/1 689/672/1
f 637/636/1 687/674/1 688/673/1
f 637/636/1 686/662/1 687/674/1
f 637/636/1 638/675/1 686/662/1
f 638/675/1 639/676/1 686/662/1
f 639/676/1 640/677/1 686/662/1
f 640/677/1 641/678/1 686/662/1
f 641/678/1 642/679/1 686/662/1
f 642/679/1 643/680/1 686/662/1
f 643/680/1 644/681/1 686/662/1
f 644/681/1 645/682/1 686/662/1
f 645/682/1 646/683/1 686/662/1
f 646/683/1 647/684/1 686/662/1
f 647/684/1 648/685/1 686/662/1
f 648/685/1 649/686/1 686/662/1
f 649/686/1 650/687/1 686/662/1
f 650/687/1 652/688/1 686/662/1
f 652/688/1 653/689/1 686/662/1
f 653/689/1 654/690/1 686/662/1
f 654/690/1 655/691/1 686/662/1
f 655/691/1 656/692/1 686/662/1
f 656/692/1 657/693/1 686/662/1
f 657/693/1 658/694/1 686/662/1
f 658/694/1 660/695/1 686/662/1
f 660/695/1 661/696/1 686/662/1
f 661/696/1 662/697/1 686/662/1
f 662/697/1 663/698/1 686/662/1
f 663/698/1 664/699/1 686/662/1
f 664/699/1 665/700/1 686/662/1
f 665/700/1 666/701/1 686/662/1
f 666/701/1 667/702/1 686/662/1
f 667/702/1 668/703/1 686/662/1
f 668/703/1 673/640/1 686/662/1
f 651/704/1 652/704/1 650/704/1
f 659/704/1 660/704/1 658/704/1
f 669/705/1 673/640/1 668/703/1
f 670/706/1 673/640/1 669/705/1
f 671/707/1 673/640/1 670/706/1
f 672/708/1 673/640/1 671/707/1
f 824/709/1 896/710/1 823/711/1
f 862/712/1 860/713/1 861/714/1
f 863/715/1 860/713/1 862/712/1
f 824/709/1 895/716/1 896/710/1
f 864/717/1 860/713/1 863/715/1
f 824/709/1 894/718/1 895/716/1
f 865/719/1 860/713/1 864/717/1
f 824/709/1 893/720/1 894/718/1
f 866/721/1 860/713/1 865/719/1
f 824/709/1 892/722/1 893/720/1
f 867/723/1 860/713/1 866/721/1
f 824/709/1 891/724/1 892/722/1
f 868/725/1 860/713/1 867/723/1
f 824/709/1 890/726/1 891/724/1
f 869/727/1 860/713/1 868/725/1
f 824/709/1 889/728/1 890/726/1
f 870/729/1 860/713/1 869/727/1
f 824/709/1 888/730/1 889/728/1
f 871/731/1 860/713/1 870/729/1
f 824/709/1 887/732/1 888/730/1
f 872/733/1 860/713/1 871/731/1
f 824/709/1 886/734/1 887/732/1
f 873/735/1 860/713/1 872/733/1
f 824/709/1 885/736/1 886/734/1
f 824/709/1 884/737/1 885/736/1
f 824/709/1 883/738/1 884/737/1
f 824/709/1 882/739/1 883/738/1
f 824/709/1 881/740/1 882/739/1
f 824/709/1 880/741/1 881/740/1
f 824/709/1 879/742/1 880/741/1
f 824/709/1 878/743/1 879/742/1
f 824/709/1 877/744/1 878/743/1
f 824/709/1 876/745/1 877/744/1
f 824/709/1 875/746/1 876/745/1
f 824/709/1 874/747/1 875/746/1
f 824/709/1 873/735/1 874/747/1
f 824/709/1 825/748/1 873/735/1
f 825/748/1 826/749/1 873/735/1
f 826/749/1 827/750/1 873/735/1
f 827/750/1 828/751/1 873/735/1
f 828/751/1 829/752/1 873/735/1
f 829/752/1 830/753/1 873/735/1
f 830/753/1 831/754/1 873/735/1
f 831/754/1 832/755/1 873/735/1
f 832/755/1 833/756/1 873/735/1
f 833/756/1 834/757/1 873/735/1
f 834/757/1 835/758/1 873/735/1
f 835/758/1 836/759/1 873/735/1
f 836/759/1 837/760/1 873/735/1
f 837/760/1 838/761/1 873/735/1
f 838/761/1 839/762/1 873/735/1
f 839/762/1 840/763/1 873/735/1
f 840/763/1 841/764/1 873/735/1
f 841/764/1 842/765/1 873/735/1
f 842/765/1 843/766/1 873/735/1
f 843/766/1 844/767/1 873/735/1
f 844/767/1 845/768/1 873/735/1
f 845/768/1 846/769/1 873/735/1
f 846/769/1 847/770/1 873/735/1
f 847/770/1 848/771/1 873/735/1
f 848/771/1 849/772/1 873/735/1
f 849/772/1 850/773/1 873/735/1
f 850/773/1 851/774/1 873/735/1
f 851/774/1 852/775/1 873/735/1
f 852/775/1 853/776/1 873/735/1
f 853/776/1 854/777/1 873/735/1
f 854/777/1 855/778/1 873/735/1
f 855/778/1 856/779/1 873/735/1
f 856/779/1 857/780/1 873/735/1
f 857/780/1 858/781/1 873/735/1
f 858/781/1 859/782/1 873/735/1
f 859/782/1 860/713/1 873/735/1
f 711/783/1 822/784/1 710/785/1
f 788/786/1 786/787/1 787/788/1
f 711/783/1 821/789/1 822/784/1
f 789/790/1 786/787/1 788/786/1
f 711/783/1 820/791/1 821/789/1
f 790/792/1 786/787/1 789/790/1
f 711/783/1 819/793/1 820/791/1
f 791/794/1 786/787/1 790/792/1
f 711/783/1 818/795/1 819/793/1
f 792/796/1 786/787/1 791/794/1
f 711/783/1 817/797/1 818/795/1
f 793/798/1 786/787/1 792/796/1
f 711/783/1 816/799/1 817/797/1
f 794/800/1 786/787/1 793/798/1
f 711/783/1 815/801/1 816/799/1
f 795/802/1 786/787/1 794/800/1
f 711/783/1 814/803/1 815/801/1
f 796/804/1 786/787/1 795/802/1
f 711/783/1 813/805/1 814/803/1
f 797/806/1 786/787/1 796/804/1
f 711/783/1 812/807/1 813/805/1
f 798/808/1 786/787/1 797/806/1
f 711/783/1 811/809/1 812/807/1
f 799/810/1 786/787/1 798/808/1
f 711/783/1 810/811/1 811/809/1
f 711/783/1 809/812/1 810/811/1
f 711/783/1 808/813/1 809/812/1
f 711/783/1 807/814/1 808/813/1
f 711/783/1 806/815/1 807/814/1
f 711/783/1 805/816/1 806/815/1
f 711/783/1 804/817/1 805/816/1
f 711/783/1 803/818/1 804/817/1
f 711/783/1 802/819/1 803/818/1
f 711/783/1 801/820/1 802/819/1
f 711/783/1 800/821/1 801/820/1
f 711/783/1 799/810/1 800/821/1
f 711/783/1 712/822/1 799/810/1
f 712/822/1 713/823/1 799/810/1
f 713/823/1 714/824/1 799/810/1
f 714/824/1 715/825/1 799/810/1
f 715/825/1 716/826/1 799/810/1
f 716/826/1 717/827/1 799/810/1
f 717/827/1 718/828/1 799/810/1
f 718/828/1 719/829/1 799/810/1
f 719/829/1 720/830/1 799/810/1
f 720/830/1 721/831/1 799/810/1
f 721/831/1 722/832/1 799/810/1
f 722/832/1 723/833/1 799/810/1
f 723/833/1 724/834/1 799/810/1
f 724/834/1 773/835/1 799/810/1
f 773/835/1 774/836/1 799/810/1
f 774/836/1 775/837/1 799/810/1
f 775/837/1 776/838/1 799/810/1
f 776/838/1 777/839/1 799/810/1
f 777/839/1 778/840/1 799/810/1
f 778/840/1 779/841/1 799/810/1
f 779/841/1 780/842/1 799/810/1
f 780/842/1 781/843/1 799/810/1
f 781/843/1 782/844/1 799/810/1
f 782/844/1 783/845/1 799/810/1
f 783/845/1 784/846/1 799/810/1
f 784/846/1 785/847/1 799/810/1
f 785/847/1 786/787/1 799/810/1
f 725/848/1 773/835/1 724/834/1
f 725/848/1 772/849/1 773/835/1
f 726/850/1 772/849/1 725/848/1
f 726/850/1 771/851/1 772/849/1
f 727/852/1 771/851/1 726/850/1
f 727/852/1 770/853/1 771/851/1
f 728/854/1 770/853/1 727/852/1
f 728/854/1 769/855/1 770/853/1
f 729/856/1 769/855/1 728/854/1
f 729/856/1 768/857/1 769/855/1
f 730/858/1 768/857/1 729/856/1
f 731/859/1 768/857/1 730/858/1
f 731/859/1 767/860/1 768/857/1
f 732/861/1 767/860/1 731/859/1
f 732/861/1 766/862/1 767/860/1
f 733/863/1 766/862/1 732/861/1
f 733/863/1 765/864/1 766/862/1
f 734/865/1 765/864/1 733/863/1
f 734/865/1 764/866/1 765/864/1
f 735/867/1 764/866/1 734/865/1
f 735/867/1 763/868/1 764/866/1
f 736/869/1 763/868/1 735/867/1
f 736/869/1 762/870/1 763/868/1
f 737/871/1 762/870/1 736/869/1
f 738/872/1 762/870/1 737/871/1
f 738/872/1 761/873/1 762/870/1
f 739/874/1 761/873/1 738/872/1
f 739/874/1 760/875/1 761/873/1
f 740/876/1 760/875/1 739/874/1
f 740/876/1 759/877/1 760/875/1
f 741/878/1 759/877/1 740/876/1
f 742/879/1 759/877/1 741/878/1
f 742/879/1 758/880/1 759/877/1
f 743/881/1 758/880/1 742/879/1
f 743/881/1 757/882/1 758/880/1
f 744/883/1 757/882/1 743/881/1
f 744/883/1 756/884/1 757/882/1
f 745/885/1 756/884/1 744/883/1
f 746/886/1 756/884/1 745/885/1
f 746/886/1 755/887/1 756/884/1
f 747/888/1 755/887/1 746/886/1
f 748/889/1 755/887/1 747/888/1
f 748/889/1 754/890/1 755/887/1
f 749/891/1 754/890/1 748/889/1
f 749/891/1 753/892/1 754/890/1
f 749/891/1 752/893/1 753/892/1
f 749/891/1 751/894/1 752/893/1
f 749/891/1 750/895/1 751/894/1
f 936/896/1 934/897/1 935/898/1
f 937/899/1 934/897/1 936/896/1
f 938/900/1 934/897/1 937/899/1
f 939/901/1 934/897/1 938/900/1
f 972/902/1 970/903/1 971/904/1
f 940/905/1 934/897/1 939/901/1
f 972/902/1 969/906/1 970/903/1
f 941/907/1 934/897/1 940/905/1
f 972/902/1 968/908/1 969/906/1
f 972/902/1 967/909/1 968/908/1
f 942/910/1 934/897/1 941/907/1
f 972/902/1 966/911/1 967/909/1
f 943/912/1 934/897/1 942/910/1
f 972/902/1 965/913/1 966/911/1
f 972/902/1 964/914/1 965/913/1
f 944/915/1 934/897/1 943/912/1
f 972/902/1 963/916/1 964/914/1
f 945/917/1 934/897/1 944/915/1
f 972/902/1 962/918/1 963/916/1
f 972/902/1 961/919/1 962/918/1
f 946/920/1 934/897/1 945/917/1
f 972/902/1 960/921/1 961/919/1
f 947/922/1 934/897/1 946/920/1
f 972/902/1 959/923/1 960/921/1
f 972/902/1 958/924/1 959/923/1
f 972/902/1 957/925/1 958/924/1
f 972/902/1 956/926/1 957/925/1
f 972/902/1 955/927/1 956/926/1
f 972/902/1 954/928/1 955/927/1
f 972/902/1 953/929/1 954/928/1
f 972/902/1 952/930/1 953/929/1
f 972/902/1 951/931/1 952/930/1
f 972/902/1 950/932/1 951/931/1
f 972/902/1 949/933/1 950/932/1
f 972/902/1 948/934/1 949/933/1
f 972/902/1 947/922/1 948/934/1
f 972/902/1 934/897/1 947/922/1
f 972/902/1 933/935/1 934/897/1
f 972/902/1 932/936/1 933/935/1
f 972/902/1 931/937/1 932/936/1
f 972/902/1 930/938/1 931/937/1
f 972/902/1 929/939/1 930/938/1
f 972/902/1 928/940/1 929/939/1
f 972/902/1 927/941/1 928/940/1
f 972/902/1 978/942/1 927/941/1
f 978/942/1 926/943/1 927/941/1
f 978/942/1 979/944/1 926/943/1
f 979/944/1 980/945/1 926/943/1
f 980/945/1 925/946/1 926/943/1
f 980/945/1 981/947/1 925/946/1
f 981/947/1 924/948/1 925/946/1
f 981/947/1 923/949/1 924/948/1
f 981/947/1 982/950/1 923/949/1
f 982/950/1 922/951/1 923/949/1
f 982/950/1 983/952/1 922/951/1
f 983/952/1 984/953/1 922/951/1
f 984/953/1 985/954/1 922/951/1
f 985/954/1 986/955/1 922/951/1
f 986/955/1 987/956/1 922/951/1
f 987/956/1 988/957/1 922/951/1
f 988/957/1 989/958/1 922/951/1
f 989/958/1 990/959/1 922/951/1
f 990/959/1 991/960/1 922/951/1
f 991/960/1 992/961/1 922/951/1
f 992/961/1 993/962/1 922/951/1
f 993/962/1 994/963/1 922/951/1
f 994/963/1 995/964/1 922/951/1
f 995/964/1 996/965/1 922/951/1
f 996/965/1 921/966/1 922/951/1
f 997/967/1 921/966/1 996/965/1
f 997/967/1 920/968/1 921/966/1
f 972/902/1 977/969/1 978/942/1
f 972/902/1 976/970/1 977/969/1
f 972/902/1 975/971/1 976/970/1
f 972/902/1 974/972/1 975/971/1
f 972/902/1 973/973/1 974/972/1
f 998/974/1 920/968/1 997/967/1
f 998/974/1 919/975/1 920/968/1
f 999/976/1 919/975/1 998/974/1
f 999/976/1 918/977/1 919/975/1
f 1000/978/1 918/977/1 999/976/1
f 1000/978/1 917/979/1 918/977/1
f 1001/980/1 917/979/1 1000/978/1
f 1001/980/1 916/981/1 917/979/1
f 1002/982/1 916/981/1 1001/980/1
f 1002/982/1 915/983/1 916/981/1
f 1003/984/1 915/983/1 1002/982/1
f 1003/984/1 914/985/1 915/983/1
f 1004/986/1 914/985/1 1003/984/1
f 1004/986/1 913/987/1 914/985/1
f 1005/988/1 913/987/1 1004/986/1
f 1006/989/1 913/987/1 1005/988/1
f 1006/989/1 912/990/1 913/987/1
f 1007/991/1 912/990/1 1006/989/1
f 1007/991/1 911/992/1 912/990/1
f 1008/993/1 911/992/1 1007/991/1
f 1008/993/1 910/994/1 911/992/1
f 1009/995/1 910/994/1 1008/993/1
f 1009/995/1 909/996/1 910/994/1
f 1010/997/1 909/996/1 1009/995/1
f 1010/997/1 908/998/1 909/996/1
f 1011/999/1 908/998/1 1010/997/1
f 1011/999/1 907/1000/1 908/998/1
f 1012/1001/1 907/1000/1 1011/999/1
f 1012/1001/1 906/1002/1 907/1000/1
f 1013/1003/1 1033/1004/1 1012/1001/1
f 1033/1004/1 906/1002/1 1012/1001/1
f 1033/1004/1 905/1005/1 906/1002/1
f 1013/1003/1 1032/1006/1 1033/1004/1
f 1034/1007/1 905/1005/1 1033/1004/1
f 1034/1007/1 904/1008/1 905/1005/1
f 1014/1009/1 1032/1006/1 1013/1003/1
f 1035/1010/1 904/1008/1 1034/1007/1
f 1014/1009/1 1031/1011/1 1032/1006/1
f 1035/1010/1 903/1012/1 904/1008/1
f 1015/1013/1 1031/1011/1 1014/1009/1
f 1036/1014/1 903/1012/1 1035/1010/1
f 1015/1013/1 1030/1015/1 1031/1011/1
f 1037/1016/1 903/1012/1 1036/1014/1
f 1016/1017/1 1030/1015/1 1015/1013/1
f 1037/1016/1 902/1018/1 903/1012/1
f 1016/1017/1 1029/1019/1 1030/1015/1
f 1038/1020/1 902/1018/1 1037/1016/1
f 1017/1021/1 1029/1019/1 1016/1017/1
f 1038/1020/1 901/1022/1 902/1018/1
f 1017/1021/1 1028/1023/1 1029/1019/1
f 1018/1024/1 1028/1023/1 1017/1021/1
f 1039/1025/1 901/1022/1 1038/1020/1
f 1039/1025/1 900/1026/1 901/1022/1
f 1018/1024/1 1027/1027/1 1028/1023/1
f 1019/1028/1 1027/1027/1 1018/1024/1
f 1040/1029/1 900/1026/1 1039/1025/1
f 1040/1029/1 899/1030/1 900/1026/1
f 1020/1031/1 1027/1027/1 1019/1028/1
f 1020/1031/1 1026/1032/1 1027/1027/1
f 1040/1029/1 898/1033/1 899/1030/1
f 1041/1034/1 898/1033/1 1040/1029/1
f 1021/1035/1 1026/1032/1 1020/1031/1
f 1021/1035/1 1025/1036/1 1026/1032/1
f 1041/1034/1 1042/1037/1 898/1033/1
f 1042/1037/1 1043/1038/1 898/1033/1
f 1043/1038/1 1044/1039/1 898/1033/1
f 1044/1039/1 897/1040/1 898/1033/1
f 1021/1035/1 1024/1041/1 1025/1036/1
f 1021/1035/1 1023/1042/1 1024/1041/1
f 1021/1035/1 1022/1043/1 1023/1042/1
