# Blender 4.4.1
# www.blender.org
mtllib title.mtl
o テキスト
v 2.471599 -0.254418 0.000000
v 2.361150 -0.254418 0.000000
v 2.361150 -0.123983 0.000000
v 2.043478 -0.123983 0.000000
v 2.043478 -0.076648 0.000000
v 2.343268 -0.076648 0.000000
v 2.343268 0.132679 0.000000
v 2.043478 0.132679 0.000000
v 2.043478 0.175806 0.000000
v 2.447405 0.175806 0.000000
v 2.447405 0.274684 -0.000000
v 2.043478 0.274684 -0.000000
v 2.043478 0.344109 -0.000000
v 1.915148 0.344109 -0.000000
v 1.915148 0.274684 -0.000000
v 1.521739 0.274684 -0.000000
v 1.521739 0.175806 0.000000
v 1.915148 0.175806 0.000000
v 1.915148 0.132679 0.000000
v 1.629032 0.132679 0.000000
v 1.629032 -0.076648 0.000000
v 1.915148 -0.076648 0.000000
v 1.915148 -0.123983 0.000000
v 1.603787 -0.123983 0.000000
v 1.603787 -0.209187 0.000000
v 1.915148 -0.209187 0.000000
v 1.915148 -0.254418 0.000000
v 1.497546 -0.254418 0.000000
v 1.497546 -0.350140 0.000000
v 1.915148 -0.350140 0.000000
v 1.915148 -0.398527 0.000000
v 1.595372 -0.398527 0.000000
v 1.595372 -0.490042 0.000000
v 1.915148 -0.490042 0.000000
v 1.915148 -0.523703 0.000000
v 1.915011 -0.528177 0.000000
v 1.914587 -0.532152 0.000000
v 1.913849 -0.535651 0.000000
v 1.912771 -0.538702 0.000000
v 1.911327 -0.541329 0.000000
v 1.909493 -0.543557 0.000000
v 1.907243 -0.545413 0.000000
v 1.904550 -0.546922 0.000000
v 1.901390 -0.548110 0.000000
v 1.897737 -0.549002 0.000000
v 1.893565 -0.549623 0.000000
v 1.888850 -0.550000 0.000000
v 1.883713 -0.550240 0.000000
v 1.876856 -0.550429 0.000000
v 1.868486 -0.550559 0.000000
v 1.858812 -0.550623 0.000000
v 1.848043 -0.550615 0.000000
v 1.836387 -0.550526 0.000000
v 1.824051 -0.550349 0.000000
v 1.811244 -0.550078 0.000000
v 1.798173 -0.549704 0.000000
v 1.785048 -0.549221 0.000000
v 1.772077 -0.548621 0.000000
v 1.759467 -0.547896 0.000000
v 1.763468 -0.555065 0.000000
v 1.767546 -0.562818 0.000000
v 1.771646 -0.571038 0.000000
v 1.775713 -0.579609 0.000000
v 1.779693 -0.588414 0.000000
v 1.783529 -0.597335 0.000000
v 1.787169 -0.606257 0.000000
v 1.790556 -0.615062 0.000000
v 1.793637 -0.623633 0.000000
v 1.796356 -0.631853 0.000000
v 1.798659 -0.639606 0.000000
v 1.800491 -0.646774 0.000000
v 1.822174 -0.646985 0.000000
v 1.842557 -0.647062 0.000000
v 1.861698 -0.646955 0.000000
v 1.879655 -0.646618 0.000000
v 1.896488 -0.646004 0.000000
v 1.912255 -0.645065 0.000000
v 1.927013 -0.643753 0.000000
v 1.940822 -0.642021 0.000000
v 1.953739 -0.639822 0.000000
v 1.965824 -0.637107 0.000000
v 1.977134 -0.633831 0.000000
v 1.987728 -0.629944 0.000000
v 1.997443 -0.625504 0.000000
v 2.006103 -0.620545 0.000000
v 2.013746 -0.614987 0.000000
v 2.020415 -0.608750 0.000000
v 2.026148 -0.601753 0.000000
v 2.030987 -0.593917 0.000000
v 2.034971 -0.585159 0.000000
v 2.038141 -0.575401 0.000000
v 2.040536 -0.564562 0.000000
v 2.042198 -0.552562 0.000000
v 2.043165 -0.539319 0.000000
v 2.043478 -0.524755 0.000000
v 2.043478 -0.490042 0.000000
v 2.232819 -0.490042 0.000000
v 2.232819 -0.535273 0.000000
v 2.361150 -0.535273 0.000000
v 2.361150 -0.350140 0.000000
v 2.471599 -0.350140 0.000000
v 2.043478 0.052735 0.000000
v 2.213885 0.052735 0.000000
v 2.213885 0.003296 0.000000
v 2.043478 0.003296 0.000000
v 1.750000 0.003296 0.000000
v 1.750000 0.052735 0.000000
v 1.915148 0.052735 0.000000
v 1.915148 0.003296 0.000000
v 2.043478 -0.209187 0.000000
v 2.232819 -0.209187 0.000000
v 2.232819 -0.254418 0.000000
v 2.043478 -0.254418 0.000000
v 2.043478 -0.350140 0.000000
v 2.232819 -0.350140 0.000000
v 2.232819 -0.398527 0.000000
v 2.043478 -0.398527 0.000000
v 1.414446 -0.443759 0.000000
v 1.000000 -0.443759 0.000000
v 1.000000 0.102174 0.000000
v 1.355540 0.102174 0.000000
v 1.355540 0.234712 -0.000000
v 0.510870 0.234712 -0.000000
v 0.510870 0.102174 0.000000
v 0.855891 0.102174 0.000000
v 0.855891 -0.443759 0.000000
v 0.453016 -0.443759 0.000000
v 0.453016 -0.571038 0.000000
v 1.414446 -0.571038 0.000000
v -0.355891 -0.465849 0.000000
v -0.315918 -0.603647 0.000000
v -0.212404 -0.609097 0.000000
v -0.120344 -0.607362 0.000000
v -0.039270 -0.598929 0.000000
v 0.031284 -0.584284 0.000000
v 0.091788 -0.563911 0.000000
v 0.142707 -0.538298 0.000000
v 0.184510 -0.507929 0.000000
v 0.217664 -0.473290 0.000000
v 0.242637 -0.434867 0.000000
v 0.259896 -0.393146 0.000000
v 0.269908 -0.348613 0.000000
v 0.273142 -0.301753 0.000000
v 0.270924 -0.270276 0.000000
v 0.264342 -0.239716 0.000000
v 0.253501 -0.210419 0.000000
v 0.238507 -0.182733 0.000000
v 0.219466 -0.157005 0.000000
v 0.196485 -0.133582 0.000000
v 0.169668 -0.112810 0.000000
v 0.139123 -0.095037 0.000000
v 0.104954 -0.080609 0.000000
v 0.067268 -0.069874 0.000000
v 0.026170 -0.063179 0.000000
v -0.018233 -0.060870 0.000000
v -0.045712 -0.061510 0.000000
v -0.072922 -0.063451 0.000000
v -0.099853 -0.066721 0.000000
v -0.126500 -0.071350 0.000000
v -0.152854 -0.077366 0.000000
v -0.178910 -0.084800 0.000000
v -0.204658 -0.093680 0.000000
v -0.230092 -0.104036 0.000000
v -0.255205 -0.115897 0.000000
v -0.279989 -0.129291 0.000000
v -0.304437 -0.144249 0.000000
v -0.328541 -0.160799 0.000000
v -0.326469 -0.144466 0.000000
v -0.323973 -0.125766 0.000000
v -0.321112 -0.105181 0.000000
v -0.317945 -0.083193 0.000000
v -0.314528 -0.060285 0.000000
v -0.310922 -0.036939 0.000000
v -0.307185 -0.013637 0.000000
v -0.303374 0.009140 0.000000
v -0.299549 0.030908 0.000000
v -0.295767 0.051186 0.000000
v -0.292088 0.069492 0.000000
v -0.288569 0.085344 0.000000
v -0.429523 0.104278 0.000000
v -0.431703 0.070215 0.000000
v -0.434515 0.033655 0.000000
v -0.437889 -0.004790 0.000000
v -0.441756 -0.044507 0.000000
v -0.446047 -0.084881 0.000000
v -0.450693 -0.125298 0.000000
v -0.455623 -0.165146 0.000000
v -0.460768 -0.203810 0.000000
v -0.466060 -0.240678 0.000000
v -0.471428 -0.275134 0.000000
v -0.476804 -0.306567 0.000000
v -0.482118 -0.334362 0.000000
v -0.361150 -0.364867 0.000000
v -0.358757 -0.359689 0.000000
v -0.356295 -0.354650 0.000000
v -0.353738 -0.349713 0.000000
v -0.351060 -0.344842 0.000000
v -0.348236 -0.340000 0.000000
v -0.345241 -0.335151 0.000000
v -0.342048 -0.330258 0.000000
v -0.338632 -0.325284 0.000000
v -0.334968 -0.320194 0.000000
v -0.331030 -0.314951 0.000000
v -0.326793 -0.309517 0.000000
v -0.322230 -0.303857 0.000000
v -0.304825 -0.284621 0.000000
v -0.285813 -0.266904 0.000000
v -0.265296 -0.250736 0.000000
v -0.243377 -0.236146 0.000000
v -0.220157 -0.223163 0.000000
v -0.195740 -0.211816 0.000000
v -0.170226 -0.202135 0.000000
v -0.143720 -0.194148 0.000000
v -0.116322 -0.187886 0.000000
v -0.088135 -0.183376 0.000000
v -0.059262 -0.180649 0.000000
v -0.029804 -0.179734 0.000000
v -0.007495 -0.180767 0.000000
v 0.013582 -0.183790 0.000000
v 0.033293 -0.188691 0.000000
v 0.051504 -0.195356 0.000000
v 0.068078 -0.203672 0.000000
v 0.082880 -0.213526 0.000000
v 0.095776 -0.224804 0.000000
v 0.106631 -0.237393 0.000000
v 0.115308 -0.251180 0.000000
v 0.121674 -0.266052 0.000000
v 0.125592 -0.281896 0.000000
v 0.126928 -0.298598 0.000000
v 0.123455 -0.330775 0.000000
v 0.113078 -0.360367 0.000000
v 0.095865 -0.387154 0.000000
v 0.071879 -0.410916 0.000000
v 0.041188 -0.431436 0.000000
v 0.003857 -0.448492 0.000000
v -0.040049 -0.461867 0.000000
v -0.090463 -0.471342 0.000000
v -0.147320 -0.476696 0.000000
v -0.210554 -0.477712 0.000000
v -0.280100 -0.474169 0.000000
v 0.094320 0.086396 0.000000
v 0.125877 0.214727 -0.000000
v 0.100282 0.217948 -0.000000
v 0.069873 0.222265 -0.000000
v 0.035578 0.227546 -0.000000
v -0.001675 0.233660 -0.000000
v -0.040959 0.240476 -0.000000
v -0.081347 0.247861 -0.000000
v -0.121909 0.255685 -0.000000
v -0.161719 0.263815 -0.000000
v -0.199849 0.272120 -0.000000
v -0.235371 0.280470 -0.000000
v -0.267358 0.288732 -0.000000
v -0.294881 0.296774 -0.000000
v -0.328541 0.170547 0.000000
v -0.305015 0.164733 0.000000
v -0.276107 0.157958 0.000000
v -0.242796 0.150446 0.000000
v -0.206054 0.142419 0.000000
v -0.166858 0.134099 0.000000
v -0.126184 0.125710 0.000000
v -0.085004 0.117474 0.000000
v -0.044297 0.109615 0.000000
v -0.005035 0.102355 0.000000
v 0.031805 0.095916 0.000000
v 0.065248 0.090522 0.000000
v -0.798738 -0.271248 0.000000
v -0.665147 -0.209187 0.000000
v -0.674174 -0.182223 0.000000
v -0.685289 -0.151785 0.000000
v -0.698216 -0.118609 0.000000
v -0.712677 -0.083427 0.000000
v -0.728395 -0.046974 0.000000
v -0.745091 -0.009984 0.000000
v -0.762489 0.026808 0.000000
v -0.780310 0.062670 0.000000
v -0.798277 0.096865 0.000000
v -0.816113 0.128661 0.000000
v -0.833540 0.157323 0.000000
v -0.850280 0.182118 0.000000
v -0.975456 0.128471 0.000000
v -0.956812 0.103391 0.000000
v -0.938333 0.074830 0.000000
v -0.920182 0.043383 0.000000
v -0.902525 0.009646 0.000000
v -0.885525 -0.025785 0.000000
v -0.869346 -0.062316 0.000000
v -0.854154 -0.099351 0.000000
v -0.840112 -0.136294 0.000000
v -0.827385 -0.172551 0.000000
v -0.816138 -0.207526 0.000000
v -0.806534 -0.240624 0.000000
v -1.631837 -0.543689 0.000000
v -1.495091 -0.598387 0.000000
v -1.471303 -0.557864 0.000000
v -1.448370 -0.514036 0.000000
v -1.426357 -0.467541 0.000000
v -1.405330 -0.419020 0.000000
v -1.385355 -0.369110 0.000000
v -1.366497 -0.318452 0.000000
v -1.348823 -0.267684 0.000000
v -1.332398 -0.217446 0.000000
v -1.317288 -0.168376 0.000000
v -1.303559 -0.121115 0.000000
v -1.291276 -0.076300 0.000000
v -1.280505 -0.034572 0.000000
v -1.273211 -0.034048 0.000000
v -1.266071 -0.033530 0.000000
v -1.259105 -0.033027 0.000000
v -1.252337 -0.032546 0.000000
v -1.245789 -0.032095 0.000000
v -1.239481 -0.031679 0.000000
v -1.233436 -0.031308 0.000000
v -1.227677 -0.030988 0.000000
v -1.222223 -0.030726 0.000000
v -1.217099 -0.030530 0.000000
v -1.212326 -0.030407 0.000000
v -1.207924 -0.030365 0.000000
v -1.191995 -0.030641 0.000000
v -1.177356 -0.031611 0.000000
v -1.164024 -0.033487 0.000000
v -1.152018 -0.036481 0.000000
v -1.141356 -0.040804 0.000000
v -1.132056 -0.046669 0.000000
v -1.124138 -0.054287 0.000000
v -1.117617 -0.063869 0.000000
v -1.112514 -0.075629 0.000000
v -1.108847 -0.089777 0.000000
v -1.106633 -0.106526 0.000000
v -1.105891 -0.126087 0.000000
v -1.106176 -0.152551 0.000000
v -1.107035 -0.179665 0.000000
v -1.108471 -0.207116 0.000000
v -1.110488 -0.234588 0.000000
v -1.113089 -0.261768 0.000000
v -1.116278 -0.288342 0.000000
v -1.120059 -0.313995 0.000000
v -1.124435 -0.338414 0.000000
v -1.129410 -0.361284 0.000000
v -1.134988 -0.382291 0.000000
v -1.141172 -0.401122 0.000000
v -1.147966 -0.417461 0.000000
v -1.152391 -0.425643 0.000000
v -1.157243 -0.432865 0.000000
v -1.162512 -0.439173 0.000000
v -1.168186 -0.444616 0.000000
v -1.174254 -0.449240 0.000000
v -1.180706 -0.453094 0.000000
v -1.187531 -0.456225 0.000000
v -1.194717 -0.458680 0.000000
v -1.202254 -0.460507 0.000000
v -1.210130 -0.461753 0.000000
v -1.218335 -0.462466 0.000000
v -1.226858 -0.462693 0.000000
v -1.234587 -0.462479 0.000000
v -1.243455 -0.461860 0.000000
v -1.253287 -0.460868 0.000000
v -1.263908 -0.459537 0.000000
v -1.275143 -0.457899 0.000000
v -1.286816 -0.455987 0.000000
v -1.298752 -0.453834 0.000000
v -1.310776 -0.451473 0.000000
v -1.322712 -0.448936 0.000000
v -1.334385 -0.446257 0.000000
v -1.345620 -0.443468 0.000000
v -1.356241 -0.440603 0.000000
v -1.333100 -0.579453 0.000000
v -1.323886 -0.581290 0.000000
v -1.314180 -0.583101 0.000000
v -1.304057 -0.584860 0.000000
v -1.293595 -0.586544 0.000000
v -1.282870 -0.588124 0.000000
v -1.271958 -0.589577 0.000000
v -1.260937 -0.590877 0.000000
v -1.249883 -0.591998 0.000000
v -1.238873 -0.592914 0.000000
v -1.227983 -0.593600 0.000000
v -1.217291 -0.594030 0.000000
v -1.206872 -0.594179 0.000000
v -1.187568 -0.593682 0.000000
v -1.169111 -0.592124 0.000000
v -1.151516 -0.589413 0.000000
v -1.134798 -0.585453 0.000000
v -1.118971 -0.580148 0.000000
v -1.104050 -0.573405 0.000000
v -1.090049 -0.565127 0.000000
v -1.076983 -0.555221 0.000000
v -1.064866 -0.543590 0.000000
v -1.053714 -0.530141 0.000000
v -1.043541 -0.514777 0.000000
v -1.034362 -0.497405 0.000000
v -1.023680 -0.472956 0.000000
v -1.014215 -0.445653 0.000000
v -1.005911 -0.415933 0.000000
v -0.998714 -0.384229 0.000000
v -0.992569 -0.350977 0.000000
v -0.987421 -0.316611 0.000000
v -0.983216 -0.281566 0.000000
v -0.979897 -0.246276 0.000000
v -0.977412 -0.211175 0.000000
v -0.975704 -0.176700 0.000000
v -0.974720 -0.143283 0.000000
v -0.974404 -0.111360 0.000000
v -0.976021 -0.075588 0.000000
v -0.980764 -0.043883 0.000000
v -0.988473 -0.016065 0.000000
v -0.998987 0.008049 0.000000
v -1.012146 0.028642 0.000000
v -1.027788 0.045898 0.000000
v -1.045753 0.059997 0.000000
v -1.065880 0.071124 0.000000
v -1.088008 0.079460 0.000000
v -1.111978 0.085188 0.000000
v -1.137627 0.088491 0.000000
v -1.164797 0.089551 0.000000
v -1.170513 0.089509 0.000000
v -1.176601 0.089386 0.000000
v -1.183040 0.089190 0.000000
v -1.189808 0.088928 0.000000
v -1.196883 0.088608 0.000000
v -1.204243 0.088236 0.000000
v -1.211865 0.087821 0.000000
v -1.219729 0.087370 0.000000
v -1.227812 0.086889 0.000000
v -1.236092 0.086386 0.000000
v -1.244547 0.085868 0.000000
v -1.253156 0.085344 0.000000
v -1.231066 0.193689 0.000000
v -1.229709 0.200408 -0.000000
v -1.228276 0.207388 -0.000000
v -1.226776 0.214579 -0.000000
v -1.225222 0.221934 -0.000000
v -1.223624 0.229406 -0.000000
v -1.221993 0.236948 -0.000000
v -1.220341 0.244511 -0.000000
v -1.218677 0.252049 -0.000000
v -1.217013 0.259514 -0.000000
v -1.215361 0.266858 -0.000000
v -1.213730 0.274035 -0.000000
v -1.212132 0.280996 -0.000000
v -1.368864 0.296774 -0.000000
v -1.368796 0.279993 -0.000000
v -1.369112 0.262802 -0.000000
v -1.369801 0.245231 -0.000000
v -1.370851 0.227310 -0.000000
v -1.372252 0.209068 -0.000000
v -1.373992 0.190533 0.000000
v -1.376061 0.171735 0.000000
v -1.378448 0.152704 0.000000
v -1.381142 0.133468 0.000000
v -1.384131 0.114056 0.000000
v -1.387405 0.094499 0.000000
v -1.390954 0.074825 0.000000
v -1.404270 0.073554 0.000000
v -1.417368 0.072370 0.000000
v -1.430202 0.071274 0.000000
v -1.442730 0.070266 0.000000
v -1.454907 0.069346 0.000000
v -1.466690 0.068513 0.000000
v -1.478034 0.067768 0.000000
v -1.488897 0.067111 0.000000
v -1.499233 0.066541 0.000000
v -1.509000 0.066059 0.000000
v -1.518153 0.065664 0.000000
v -1.526648 0.065358 0.000000
v -1.536315 0.065076 0.000000
v -1.545869 0.064773 0.000000
v -1.555328 0.064470 0.000000
v -1.564711 0.064189 0.000000
v -1.574035 0.063951 0.000000
v -1.583319 0.063780 0.000000
v -1.592581 0.063696 0.000000
v -1.601839 0.063721 0.000000
v -1.611112 0.063878 0.000000
v -1.620418 0.064189 0.000000
v -1.629774 0.064675 0.000000
v -1.639200 0.065358 0.000000
v -1.626578 -0.077700 0.000000
v -1.618214 -0.076344 0.000000
v -1.609017 -0.074914 0.000000
v -1.599163 -0.073427 0.000000
v -1.588826 -0.071895 0.000000
v -1.578183 -0.070334 0.000000
v -1.567409 -0.068759 0.000000
v -1.556678 -0.067183 0.000000
v -1.546166 -0.065623 0.000000
v -1.536049 -0.064091 0.000000
v -1.526502 -0.062603 0.000000
v -1.517699 -0.061174 0.000000
v -1.509818 -0.059818 0.000000
v -1.419355 -0.049299 0.000000
v -1.429542 -0.086668 0.000000
v -1.441157 -0.126389 0.000000
v -1.454182 -0.167965 0.000000
v -1.468599 -0.210901 0.000000
v -1.484389 -0.254698 0.000000
v -1.501534 -0.298860 0.000000
v -1.520016 -0.342891 0.000000
v -1.539816 -0.386294 0.000000
v -1.560917 -0.428572 0.000000
v -1.583299 -0.469228 0.000000
v -1.606946 -0.507766 0.000000
v -1.795933 -0.065077 0.000000
v -1.732819 0.042216 0.000000
v -1.748075 0.052788 0.000000
v -1.765720 0.064379 0.000000
v -1.785381 0.076781 0.000000
v -1.806686 0.089785 0.000000
v -1.829261 0.103184 0.000000
v -1.852735 0.116769 0.000000
v -1.876735 0.130332 0.000000
v -1.900888 0.143665 0.000000
v -1.924823 0.156560 0.000000
v -1.948165 0.168808 0.000000
v -1.970544 0.180202 0.000000
v -1.991585 0.190533 0.000000
v -2.049439 0.088499 0.000000
v -2.031715 0.079672 0.000000
v -2.011522 0.069161 0.000000
v -1.989415 0.057255 0.000000
v -1.965950 0.044242 0.000000
v -1.941681 0.030411 0.000000
v -1.917164 0.016050 0.000000
v -1.892953 0.001448 0.000000
v -1.869604 -0.013106 0.000000
v -1.847673 -0.027324 0.000000
v -1.827714 -0.040918 0.000000
v -1.810282 -0.053598 0.000000
v -2.487027 0.000140 0.000000
v -2.431276 0.002244 0.000000
v -2.431276 -0.086115 0.000000
v -2.430224 -0.160799 0.000000
v -2.462019 -0.175544 0.000000
v -2.492525 -0.191801 0.000000
v -2.521460 -0.209417 0.000000
v -2.548543 -0.228237 0.000000
v -2.573493 -0.248110 0.000000
v -2.596029 -0.268882 0.000000
v -2.615870 -0.290398 0.000000
v -2.632733 -0.312506 0.000000
v -2.646339 -0.335052 0.000000
v -2.656406 -0.357883 0.000000
v -2.662652 -0.380846 0.000000
v -2.664797 -0.403787 0.000000
v -2.661902 -0.431142 0.000000
v -2.653650 -0.457307 0.000000
v -2.640685 -0.482054 0.000000
v -2.623656 -0.505158 0.000000
v -2.603208 -0.526392 0.000000
v -2.579988 -0.545529 0.000000
v -2.554642 -0.562344 0.000000
v -2.527817 -0.576609 0.000000
v -2.500159 -0.588098 0.000000
v -2.472315 -0.596585 0.000000
v -2.444931 -0.601844 0.000000
v -2.418654 -0.603647 0.000000
v -2.401793 -0.602888 0.000000
v -2.385977 -0.600471 0.000000
v -2.371285 -0.596185 0.000000
v -2.357800 -0.589816 0.000000
v -2.345599 -0.581154 0.000000
v -2.334765 -0.569986 0.000000
v -2.325377 -0.556101 0.000000
v -2.317516 -0.539286 0.000000
v -2.311262 -0.519331 0.000000
v -2.306695 -0.496022 0.000000
v -2.303896 -0.469149 0.000000
v -2.302945 -0.438499 0.000000
v -2.307153 -0.237588 0.000000
v -2.291028 -0.233031 0.000000
v -2.274754 -0.228832 0.000000
v -2.258355 -0.224998 0.000000
v -2.241858 -0.221537 0.000000
v -2.225287 -0.218455 0.000000
v -2.208669 -0.215761 0.000000
v -2.192030 -0.213461 0.000000
v -2.175393 -0.211563 0.000000
v -2.158787 -0.210074 0.000000
v -2.142235 -0.209002 0.000000
v -2.125763 -0.208353 0.000000
v -2.109397 -0.208135 0.000000
v -2.087130 -0.209004 0.000000
v -2.066167 -0.211583 0.000000
v -2.046628 -0.215827 0.000000
v -2.028635 -0.221692 0.000000
v -2.012307 -0.229136 0.000000
v -1.997765 -0.238114 0.000000
v -1.985129 -0.248581 0.000000
v -1.974521 -0.260496 0.000000
v -1.966060 -0.273812 0.000000
v -1.959867 -0.288488 0.000000
v -1.956063 -0.304478 0.000000
v -1.954769 -0.321739 0.000000
v -1.956142 -0.340218 0.000000
v -1.960150 -0.357279 0.000000
v -1.966619 -0.372953 0.000000
v -1.975378 -0.387268 0.000000
v -1.986255 -0.400254 0.000000
v -1.999080 -0.411939 0.000000
v -2.013679 -0.422353 0.000000
v -2.029882 -0.431526 0.000000
v -2.047516 -0.439485 0.000000
v -2.066411 -0.446262 0.000000
v -2.086393 -0.451884 0.000000
v -2.107293 -0.456381 0.000000
v -2.116669 -0.457852 0.000000
v -2.126373 -0.459118 0.000000
v -2.136385 -0.460195 0.000000
v -2.146681 -0.461095 0.000000
v -2.157240 -0.461836 0.000000
v -2.168040 -0.462430 0.000000
v -2.179059 -0.462893 0.000000
v -2.190276 -0.463238 0.000000
v -2.201668 -0.463482 0.000000
v -2.213213 -0.463638 0.000000
v -2.224890 -0.463720 0.000000
v -2.236676 -0.463745 0.000000
v -2.188289 -0.599439 0.000000
v -2.177663 -0.598646 0.000000
v -2.166832 -0.597827 0.000000
v -2.155812 -0.596957 0.000000
v -2.144616 -0.596011 0.000000
v -2.133259 -0.594962 0.000000
v -2.121757 -0.593785 0.000000
v -2.110123 -0.592455 0.000000
v -2.098372 -0.590946 0.000000
v -2.086518 -0.589232 0.000000
v -2.074577 -0.587289 0.000000
v -2.062563 -0.585089 0.000000
v -2.050491 -0.582609 0.000000
v -2.010783 -0.571028 0.000000
v -1.975198 -0.557373 0.000000
v -1.943609 -0.541716 0.000000
v -1.915887 -0.524131 0.000000
v -1.891906 -0.504691 0.000000
v -1.871537 -0.483468 0.000000
v -1.854653 -0.460536 0.000000
v -1.841125 -0.435967 0.000000
v -1.830826 -0.409835 0.000000
v -1.823628 -0.382213 0.000000
v -1.819402 -0.353174 0.000000
v -1.818022 -0.322791 0.000000
v -1.820621 -0.287785 0.000000
v -1.828200 -0.255402 0.000000
v -1.840441 -0.225721 0.000000
v -1.857020 -0.198823 0.000000
v -1.877617 -0.174789 0.000000
v -1.901911 -0.153699 0.000000
v -1.929579 -0.135633 0.000000
v -1.960301 -0.120672 0.000000
v -1.993754 -0.108895 0.000000
v -2.029619 -0.100384 0.000000
v -2.067572 -0.095218 0.000000
v -2.107293 -0.093478 0.000000
v -2.122054 -0.093675 0.000000
v -2.137374 -0.094262 0.000000
v -2.153198 -0.095237 0.000000
v -2.169472 -0.096595 0.000000
v -2.186139 -0.098333 0.000000
v -2.203147 -0.100447 0.000000
v -2.220439 -0.102934 0.000000
v -2.237962 -0.105789 0.000000
v -2.255659 -0.109010 0.000000
v -2.273478 -0.112593 0.000000
v -2.291362 -0.116533 0.000000
v -2.309257 -0.120828 0.000000
v -2.309257 -0.081907 0.000000
v -2.308205 0.012763 0.000000
v -2.291034 0.014911 0.000000
v -2.273746 0.017151 0.000000
v -2.256399 0.019485 0.000000
v -2.239053 0.021918 0.000000
v -2.221764 0.024454 0.000000
v -2.204593 0.027095 0.000000
v -2.187597 0.029846 0.000000
v -2.170835 0.032710 0.000000
v -2.154365 0.035691 0.000000
v -2.138246 0.038792 0.000000
v -2.122536 0.042018 0.000000
v -2.107293 0.045372 0.000000
v -2.110449 0.175806 0.000000
v -2.124422 0.171907 0.000000
v -2.138957 0.168107 0.000000
v -2.154004 0.164416 0.000000
v -2.169511 0.160846 0.000000
v -2.185427 0.157407 0.000000
v -2.201701 0.154111 0.000000
v -2.218281 0.150968 0.000000
v -2.235118 0.147990 0.000000
v -2.252159 0.145186 0.000000
v -2.269353 0.142569 0.000000
v -2.286649 0.140150 0.000000
v -2.303997 0.137938 0.000000
v -2.300842 0.212623 -0.000000
v -2.300274 0.219807 -0.000000
v -2.299629 0.227583 -0.000000
v -2.298919 0.235797 -0.000000
v -2.298153 0.244296 -0.000000
v -2.297344 0.252927 -0.000000
v -2.296502 0.261536 -0.000000
v -2.295639 0.269969 -0.000000
v -2.294764 0.278074 -0.000000
v -2.293889 0.285696 -0.000000
v -2.293025 0.292683 -0.000000
v -2.292183 0.298882 -0.000000
v -2.291375 0.304137 -0.000000
v -2.436536 0.304137 -0.000000
v -2.435728 0.298761 -0.000000
v -2.434895 0.292240 -0.000000
v -2.434054 0.284792 -0.000000
v -2.433224 0.276632 -0.000000
v -2.432424 0.267976 -0.000000
v -2.431671 0.259038 -0.000000
v -2.430983 0.250034 -0.000000
v -2.430380 0.241180 -0.000000
v -2.429879 0.232691 -0.000000
v -2.429499 0.224783 -0.000000
v -2.429257 0.217671 -0.000000
v -2.429173 0.211571 -0.000000
v -2.430224 0.126367 0.000000
v -2.491234 0.124264 0.000000
v -2.500880 0.124288 0.000000
v -2.510899 0.124371 0.000000
v -2.521312 0.124527 0.000000
v -2.532141 0.124770 0.000000
v -2.543409 0.125116 0.000000
v -2.555137 0.125579 0.000000
v -2.567347 0.126173 0.000000
v -2.580061 0.126913 0.000000
v -2.593301 0.127814 0.000000
v -2.607089 0.128890 0.000000
v -2.621446 0.130156 0.000000
v -2.636396 0.131627 0.000000
v -2.634292 0.005400 0.000000
v -2.625227 0.004412 0.000000
v -2.615859 0.003549 0.000000
v -2.606104 0.002803 0.000000
v -2.595878 0.002166 0.000000
v -2.585097 0.001632 0.000000
v -2.573676 0.001192 0.000000
v -2.561533 0.000840 0.000000
v -2.548582 0.000569 0.000000
v -2.534740 0.000370 0.000000
v -2.519923 0.000238 0.000000
v -2.504046 0.000163 0.000000
v -2.428121 -0.284923 0.000000
v -2.424965 -0.415358 0.000000
v -2.425266 -0.423740 0.000000
v -2.426143 -0.431048 0.000000
v -2.427562 -0.437349 0.000000
v -2.429484 -0.442707 0.000000
v -2.431874 -0.447188 0.000000
v -2.434695 -0.450859 0.000000
v -2.437910 -0.453785 0.000000
v -2.441484 -0.456031 0.000000
v -2.445378 -0.457663 0.000000
v -2.449558 -0.458748 0.000000
v -2.453986 -0.459351 0.000000
v -2.458626 -0.459537 0.000000
v -2.465882 -0.458960 0.000000
v -2.473810 -0.457282 0.000000
v -2.482162 -0.454590 0.000000
v -2.490689 -0.450966 0.000000
v -2.499143 -0.446495 0.000000
v -2.507276 -0.441261 0.000000
v -2.514839 -0.435347 0.000000
v -2.521583 -0.428837 0.000000
v -2.527262 -0.421817 0.000000
v -2.531625 -0.414369 0.000000
v -2.534425 -0.406578 0.000000
v -2.535414 -0.398527 0.000000
v -2.534528 -0.389201 0.000000
v -2.531922 -0.379666 0.000000
v -2.527672 -0.369978 0.000000
v -2.521856 -0.360192 0.000000
v -2.514549 -0.350361 0.000000
v -2.505829 -0.340542 0.000000
v -2.495772 -0.330788 0.000000
v -2.484455 -0.321155 0.000000
v -2.471955 -0.311697 0.000000
v -2.458348 -0.302469 0.000000
v -2.443711 -0.293526 0.000000
vn -0.0000 -0.0000 -1.0000
vn -0.0000 -0.0000 1.0000
vt 0.363525 0.623783
vt 0.396668 0.623783
vt 0.396668 0.685046
vt 0.363525 0.685046
vt 0.316322 0.435975
vt 0.363525 0.435975
vt 0.363525 0.877876
vt 0.316322 0.877876
vt 0.401734 0.435975
vt 0.961320 0.595563
vt 0.981908 0.595563
vt 0.981908 0.656826
vt 0.961320 0.656826
vt 0.861390 0.458974
vt 0.961320 0.458975
vt 0.923156 0.516723
vt 0.961320 0.799942
vt 0.923156 0.595563
vt 0.923156 0.656826
vt 0.923156 0.738176
vt 0.861390 0.799942
vt 0.899554 0.516723
vt 0.899554 0.595563
vt 0.899554 0.656826
vt 0.899554 0.738176
vt 0.838793 0.658332
vt 0.861390 0.658332
vt 0.861390 0.719595
vt 0.861390 0.862711
vt 0.838793 0.719595
vt 0.798118 0.509693
vt 0.838793 0.509693
vt 0.838793 0.871248
vt 0.798118 0.719595
vt 0.798118 0.809985
vt 0.776525 0.871248
vt 0.776525 0.658332
vt 0.798118 0.658332
vt 0.776525 0.719595
vt 0.776525 0.809985
vt 0.730828 0.458974
vt 0.776525 0.458974
vt 0.776525 0.923975
vt 0.730828 0.923975
vt 0.839883 0.157475
vt 0.862723 0.160931
vt 0.853557 0.221505
vt 0.822979 0.423584
vt 0.830718 0.218049
vt 0.840034 0.310876
vt 0.817194 0.307420
vt 0.830868 0.371450
vt 0.743482 0.358228
vt 0.819526 0.000000
vt 0.862723 0.006536
vt 0.796687 0.150939
vt 0.787521 0.211512
vt 0.773998 0.300884
vt 0.780798 0.148535
vt 0.771136 0.209033
vt 0.752648 0.297654
vt 0.778696 0.148151
vt 0.764284 0.207845
vt 0.776850 0.147666
vt 0.775252 0.147068
vt 0.773888 0.146341
vt 0.772752 0.145472
vt 0.758102 0.206443
vt 0.771831 0.144447
vt 0.771116 0.143253
vt 0.770596 0.141874
vt 0.770261 0.140298
vt 0.776829 0.074700
vt 0.780498 0.073323
vt 0.779255 0.079224
vt 0.770101 0.138510
vt 0.778046 0.085303
vt 0.770105 0.136496
vt 0.776880 0.091464
vt 0.770264 0.134243
vt 0.775770 0.097607
vt 0.770518 0.131802
vt 0.774728 0.103632
vt 0.770918 0.128552
vt 0.773763 0.109443
vt 0.771455 0.124591
vt 0.772888 0.114938
vt 0.772116 0.120021
vt 0.752557 0.204801
vt 0.772878 0.076071
vt 0.768705 0.077419
vt 0.747612 0.202897
vt 0.764369 0.078726
vt 0.743232 0.200704
vt 0.759929 0.079976
vt 0.739383 0.198197
vt 0.755444 0.081150
vt 0.736030 0.195354
vt 0.750972 0.082231
vt 0.733137 0.192148
vt 0.746574 0.083200
vt 0.730669 0.188555
vt 0.728591 0.184550
vt 0.742309 0.084043
vt 0.726869 0.180108
vt 0.738235 0.084739
vt 0.725467 0.175206
vt 0.724389 0.169927
vt 0.734411 0.085272
vt 0.723651 0.164355
vt 0.723232 0.158457
vt 0.730896 0.085625
vt 0.723117 0.152203
vt 0.723286 0.145561
vt 0.723720 0.138501
vt 0.724403 0.130992
vt 0.725316 0.123003
vt 0.726439 0.114503
vt 0.729248 0.095845
vt 0.727756 0.105460
vt 0.862723 -0.000000
vt 0.925995 -0.000000
vt 0.925995 0.403235
vt 0.862723 0.403235
vt 0.862723 0.164709
vt 0.462496 0.192327
vt 0.723117 0.192327
vt 0.723117 0.261123
vt 0.462496 0.261123
vt 0.401734 -0.000000
vt 0.462496 -0.000000
vt 0.462496 0.458974
vt 0.401734 0.458974
vt 0.988216 0.417524
vt 0.925995 0.413285
vt 0.927248 0.399654
vt 0.928197 0.383911
vt 0.928864 0.366504
vt 0.929271 0.347879
vt 0.929443 0.328483
vt 0.929403 0.308762
vt 0.929173 0.289163
vt 0.928778 0.270133
vt 0.928239 0.252119
vt 0.927580 0.235568
vt 0.926824 0.220925
vt 0.925995 0.208638
vt 0.989009 0.211699
vt 0.988790 0.405969
vt 0.989323 0.391805
vt 0.989800 0.375510
vt 0.990204 0.357561
vt 0.990521 0.338435
vt 0.990735 0.318610
vt 0.990832 0.298562
vt 0.990795 0.278771
vt 0.990609 0.259711
vt 0.418004 0.815336
vt 0.401734 0.816239
vt 0.402698 0.748352
vt 0.990260 0.241860
vt 0.989732 0.225698
vt 0.410412 0.749119
vt 0.435493 0.814591
vt 0.419298 0.749822
vt 0.429124 0.750462
vt 0.453907 0.814005
vt 0.439659 0.751038
vt 0.450672 0.751550
vt 0.472952 0.813581
vt 0.461930 0.751997
vt 0.473200 0.752379
vt 0.492333 0.813320
vt 0.484253 0.752697
vt 0.458503 0.624893
vt 0.456638 0.611905
vt 0.455209 0.590727
vt 0.460970 0.637680
vt 0.456046 0.570866
vt 0.464050 0.650259
vt 0.467759 0.662627
vt 0.458993 0.552393
vt 0.472108 0.674776
vt 0.477112 0.686704
vt 0.463890 0.535377
vt 0.494855 0.752948
vt 0.482785 0.698404
vt 0.511755 0.813226
vt 0.489139 0.709871
vt 0.470578 0.519889
vt 0.496188 0.721100
vt 0.504775 0.753135
vt 0.478900 0.505997
vt 0.503946 0.732086
vt 0.530923 0.813298
vt 0.513780 0.753255
vt 0.512425 0.742824
vt 0.488696 0.493773
vt 0.521640 0.753309
vt 0.499808 0.483286
vt 0.549541 0.813539
vt 0.515744 0.624545
vt 0.513636 0.610634
vt 0.512858 0.600001
vt 0.518678 0.638075
vt 0.513093 0.589839
vt 0.512079 0.474605
vt 0.522417 0.651179
vt 0.514296 0.580217
vt 0.526943 0.663810
vt 0.516420 0.571206
vt 0.532235 0.675919
vt 0.519420 0.562878
vt 0.538274 0.687463
vt 0.523249 0.555302
vt 0.567317 0.813952
vt 0.525350 0.467802
vt 0.545040 0.698391
vt 0.527862 0.548548
vt 0.552513 0.708659
vt 0.533212 0.542688
vt 0.560674 0.718220
vt 0.539254 0.537791
vt 0.539461 0.462945
vt 0.583954 0.814538
vt 0.569504 0.727026
vt 0.545941 0.533928
vt 0.553228 0.531171
vt 0.578982 0.735030
vt 0.554255 0.460105
vt 0.599159 0.815300
vt 0.561069 0.529588
vt 0.589089 0.742187
vt 0.576518 0.529406
vt 0.576650 0.458974
vt 0.592031 0.744028
vt 0.612635 0.816239
vt 0.594848 0.745727
vt 0.597557 0.747296
vt 0.600178 0.748743
vt 0.602729 0.750080
vt 0.605230 0.751315
vt 0.591134 0.532643
vt 0.620219 0.757167
vt 0.617629 0.756327
vt 0.615101 0.755447
vt 0.612615 0.754515
vt 0.610154 0.753523
vt 0.607699 0.752459
vt 0.598327 0.461189
vt 0.604809 0.539279
vt 0.617436 0.549298
vt 0.619083 0.466999
vt 0.628906 0.562679
vt 0.639112 0.579404
vt 0.638715 0.476652
vt 0.647947 0.599455
vt 0.655304 0.622812
vt 0.730829 0.722157
vt 0.667785 0.748935
vt 0.667421 0.712538
vt 0.661073 0.649458
vt 0.657018 0.490398
vt 0.665148 0.679372
vt 0.673788 0.508486
vt 0.688822 0.531166
vt 0.701918 0.558686
vt 0.712869 0.591296
vt 0.721474 0.629245
vt 0.727529 0.672782
vt 0.186006 0.854543
vt 0.185941 0.862553
vt 0.111216 0.854117
vt 0.112019 0.850804
vt 0.186256 0.846338
vt 0.112839 0.847387
vt 0.113670 0.843891
vt 0.186686 0.837955
vt 0.114507 0.840337
vt 0.115345 0.836748
vt 0.187290 0.829406
vt 0.116177 0.833148
vt 0.116999 0.829557
vt 0.117805 0.825999
vt 0.188065 0.820706
vt 0.118589 0.822497
vt 0.119347 0.819073
vt 0.189002 0.811869
vt 0.120071 0.815750
vt 0.120758 0.812550
vt 0.131928 0.760959
vt 0.190098 0.802907
vt 1.000000 0.208638
vt 0.934990 0.207898
vt 0.932467 0.193841
vt 0.191347 0.793837
vt 0.930391 0.177962
vt 0.192744 0.784670
vt 0.194283 0.775421
vt 0.928741 0.160637
vt 0.996701 0.194088
vt 0.195959 0.766104
vt 0.994146 0.178051
vt 0.927497 0.142238
vt 0.197767 0.756733
vt 0.092454 0.762470
vt 0.089725 0.762457
vt 0.076762 0.761795
vt 0.095361 0.762447
vt 0.098436 0.762390
vt 0.101668 0.762304
vt 0.105047 0.762192
vt 0.108562 0.762057
vt 0.064537 0.760070
vt 0.112203 0.761903
vt 0.115960 0.761733
vt 0.119821 0.761550
vt 0.123776 0.761358
vt 0.127815 0.761159
vt 0.053128 0.757197
vt 0.042613 0.753090
vt 0.992291 0.160817
vt 0.204130 0.756203
vt 0.210390 0.755714
vt 0.216522 0.755264
vt 0.222508 0.754856
vt 0.033070 0.747663
vt 0.228326 0.754487
vt 0.233956 0.754157
vt 0.239375 0.753867
vt 0.244565 0.753616
vt 0.249502 0.753403
vt 0.254167 0.753230
vt 0.258538 0.753094
vt 0.262595 0.752997
vt 0.311123 0.685285
vt 0.316322 0.753646
vt 0.311827 0.753266
vt 0.267211 0.752918
vt 0.271774 0.752829
vt 0.276291 0.752739
vt 0.307363 0.752980
vt 0.280771 0.752659
vt 0.302923 0.752778
vt 0.285224 0.752599
vt 0.289656 0.752571
vt 0.298497 0.752649
vt 0.294078 0.752584
vt 0.926638 0.123140
vt 0.024575 0.740829
vt 0.017208 0.732501
vt 0.991094 0.142678
vt 0.307122 0.685884
vt 0.302724 0.686513
vt 0.255284 0.693147
vt 0.011046 0.722595
vt 0.926144 0.103717
vt 0.990511 0.123927
vt 0.212040 0.697646
vt 0.145675 0.703875
vt 0.138779 0.704289
vt 0.135451 0.704489
vt 0.132217 0.704679
vt 0.129089 0.704857
vt 0.126075 0.705019
vt 0.006166 0.711024
vt 0.925995 0.084344
vt 0.123188 0.705161
vt 0.120437 0.705281
vt 0.117832 0.705374
vt 0.115385 0.705438
vt 0.113105 0.705469
vt 0.111004 0.705464
vt 0.103402 0.705240
vt 0.002647 0.697700
vt 0.990498 0.104854
vt 0.096419 0.704693
vt 0.090066 0.703720
vt 0.084352 0.702222
vt 0.142190 0.704083
vt 0.151057 0.684018
vt 0.079288 0.700097
vt 0.074882 0.697243
vt 0.000565 0.682538
vt 0.071147 0.693561
vt 0.926168 0.065394
vt 0.217119 0.679867
vt 0.068089 0.688950
vt 0.298011 0.687166
vt 0.259054 0.692545
vt 0.263264 0.691914
vt 0.991014 0.085751
vt 0.293068 0.687838
vt 0.267830 0.691258
vt 0.065721 0.683307
vt 0.272668 0.690585
vt 0.287979 0.688521
vt 0.277695 0.689901
vt 0.282826 0.689211
vt -0.000000 0.665453
vt 0.064052 0.676532
vt 0.157179 0.662696
vt 0.926646 0.047241
vt 0.222892 0.660973
vt 0.063092 0.668524
vt 0.992014 0.066910
vt 0.062851 0.659182
vt 0.000335 0.650217
vt 0.927406 0.030261
vt 0.164006 0.640215
vt 0.063139 0.646551
vt 0.229350 0.641201
vt 0.993456 0.048623
vt 0.000998 0.634271
vt 0.928428 0.014825
vt 0.063706 0.633613
vt 0.236480 0.620789
vt 0.171501 0.616879
vt 0.995297 0.031181
vt 0.002012 0.617824
vt 0.064550 0.620518
vt 0.929692 0.001310
vt 0.065671 0.607415
vt 0.997492 0.014876
vt 1.000000 -0.000000
vt 0.244270 0.599974
vt 0.003401 0.601083
vt 0.179632 0.592992
vt 0.067070 0.594456
vt 0.005189 0.584256
vt 0.252709 0.578992
vt 0.068745 0.581789
vt 0.188362 0.568860
vt 0.007398 0.567551
vt 0.070698 0.569566
vt 0.261785 0.558080
vt 0.072928 0.557934
vt 0.010054 0.551176
vt 0.197656 0.544787
vt 0.075435 0.547046
vt 0.271487 0.537476
vt 0.013179 0.535339
vt 0.078219 0.537050
vt 0.207479 0.521078
vt 0.081279 0.528097
vt 0.016798 0.520246
vt 0.281804 0.517416
vt 0.084617 0.520337
vt 0.020933 0.506107
vt 0.086776 0.516457
vt 0.217796 0.498038
vt 0.089134 0.513037
vt 0.292723 0.498138
vt 0.091686 0.510056
vt 0.094425 0.507491
vt 0.173926 0.444078
vt 0.184171 0.510492
vt 0.179117 0.509063
vt 0.173770 0.507667
vt 0.097349 0.505319
vt 0.025609 0.493129
vt 0.168214 0.506321
vt 0.162531 0.505041
vt 0.100451 0.503516
vt 0.156805 0.503844
vt 0.103727 0.502061
vt 0.151119 0.502748
vt 0.145558 0.501768
vt 0.107171 0.500931
vt 0.140205 0.500921
vt 0.110780 0.500102
vt 0.135142 0.500224
vt 0.114546 0.499553
vt 0.130455 0.499694
vt 0.118467 0.499260
vt 0.126225 0.499347
vt 0.122537 0.499200
vt 0.228573 0.475970
vt 0.304233 0.479878
vt 0.030849 0.481520
vt 0.035331 0.473280
vt 0.316322 0.462874
vt 0.239773 0.455181
vt 0.040276 0.466005
vt 0.045677 0.459649
vt 0.051528 0.454167
vt 0.251362 0.435975
vt 0.057822 0.449514
vt 0.064553 0.445643
vt 0.071715 0.442510
vt 0.169538 0.443148
vt 0.079300 0.440069
vt 0.164915 0.442227
vt 0.160093 0.441329
vt 0.155109 0.440465
vt 0.087304 0.438276
vt 0.149998 0.439649
vt 0.144798 0.438892
vt 0.095718 0.437083
vt 0.139544 0.438208
vt 0.134274 0.437609
vt 0.129024 0.437109
vt 0.104538 0.436446
vt 0.123829 0.436718
vt 0.118728 0.436451
vt 0.113755 0.436320
vt 0.310299 0.429761
vt 0.310820 0.432304
vt 0.241619 0.435975
vt 0.241872 0.433449
vt 0.242116 0.430473
vt 0.309737 0.426674
vt 0.242351 0.427120
vt 0.309148 0.423145
vt 0.242576 0.423464
vt 0.308546 0.419276
vt 0.242788 0.419578
vt 0.307945 0.415169
vt 0.242986 0.415536
vt 0.307360 0.410927
vt 0.243170 0.411411
vt 0.306805 0.406652
vt 0.243337 0.407276
vt 0.306293 0.402447
vt 0.243487 0.403205
vt 0.305840 0.398413
vt 0.243618 0.399271
vt 0.305459 0.394652
vt 0.243729 0.395548
vt 0.305163 0.391268
vt 0.243818 0.392109
vt 0.304969 0.388362
vt 0.243434 0.356426
vt 0.303316 0.347717
vt 0.921961 0.941437
vt 0.865990 0.943054
vt 0.865003 0.931907
vt 0.864120 0.919951
vt 0.158686 0.377160
vt 0.152124 0.379372
vt 0.147321 0.317272
vt 0.165519 0.374981
vt 0.863347 0.907391
vt 0.172599 0.372841
vt 0.179901 0.370747
vt 0.187402 0.368705
vt 0.195076 0.366722
vt 0.862692 0.894429
vt 0.202901 0.364805
vt 0.210852 0.362959
vt 0.218905 0.361192
vt 0.227035 0.359509
vt 0.862161 0.881269
vt 0.235219 0.357919
vt 0.397539 0.284890
vt 0.401734 0.345011
vt 0.394570 0.344688
vt 0.861763 0.868115
vt 0.387694 0.344448
vt 0.381094 0.344283
vt 0.374759 0.344189
vt 0.368680 0.344158
vt 0.332347 0.345172
vt 0.362844 0.344183
vt 0.357241 0.344259
vt 0.351861 0.344379
vt 0.346692 0.344537
vt 0.341724 0.344726
vt 0.336946 0.344940
vt 0.861503 0.855170
vt 0.861390 0.842638
vt 0.861430 0.830722
vt 0.921181 0.932017
vt 0.920478 0.921172
vt 0.861630 0.819627
vt 0.919871 0.909201
vt 0.861998 0.809555
vt 0.919380 0.896401
vt 0.862541 0.800711
vt 0.154503 0.315288
vt 0.919025 0.883071
vt 0.918824 0.869508
vt 0.918797 0.856011
vt 0.918964 0.842877
vt 0.919345 0.830406
vt 0.919958 0.818894
vt 0.920824 0.808640
vt 0.921961 0.799942
vt 0.161910 0.313352
vt 0.169516 0.311466
vt 0.177292 0.309629
vt 0.185210 0.307840
vt 0.193243 0.306098
vt 0.201362 0.304405
vt 0.209540 0.302759
vt 0.217747 0.301161
vt 0.225958 0.299609
vt 0.234143 0.298104
vt 0.242274 0.296646
vt 0.300678 0.288519
vt 0.240382 0.251489
vt 0.393193 0.284648
vt 0.388705 0.284474
vt 0.384036 0.284365
vt 0.379145 0.284320
vt 0.327203 0.286107
vt 0.298444 0.246397
vt 0.373992 0.284338
vt 0.368536 0.284417
vt 0.362739 0.284556
vt 0.356558 0.284754
vt 0.349954 0.285010
vt 0.342887 0.285321
vt 0.335316 0.285687
vt 0.239398 0.232934
vt 0.296054 0.210821
vt 0.150841 0.250613
vt 0.143810 0.251080
vt 0.124830 0.251255
vt 0.158130 0.249945
vt 0.165649 0.249080
vt 0.106606 0.249752
vt 0.173373 0.248021
vt 0.181274 0.246771
vt 0.189329 0.245334
vt 0.089294 0.246601
vt 0.197509 0.243711
vt 0.205790 0.241907
vt 0.214145 0.239924
vt 0.073048 0.241833
vt 0.222549 0.237765
vt 0.230975 0.235434
vt 0.058024 0.235478
vt 0.044378 0.227565
vt 0.032263 0.218125
vt 0.310838 0.202987
vt 0.021836 0.207189
vt 0.324970 0.194466
vt 0.338318 0.185336
vt 0.141913 0.196368
vt 0.131276 0.196516
vt 0.013253 0.194785
vt 0.149710 0.195850
vt 0.157546 0.195124
vt 0.165409 0.194194
vt 0.121218 0.195817
vt 0.350753 0.175680
vt 0.173288 0.193065
vt 0.181171 0.191739
vt 0.111796 0.194288
vt 0.189045 0.190222
vt 0.196899 0.188517
vt 0.103070 0.191947
vt 0.204721 0.186629
vt 0.212498 0.184562
vt 0.095098 0.188811
vt 0.220218 0.182320
vt 0.006667 0.180945
vt 0.362145 0.165575
vt 0.227870 0.179906
vt 0.087938 0.184899
vt 0.235442 0.177326
vt 0.291913 0.151702
vt 0.228355 0.081655
vt 0.081650 0.180229
vt 0.372363 0.155103
vt 0.076291 0.174817
vt 0.002235 0.165699
vt 0.071921 0.168683
vt 0.381277 0.144344
vt 0.068598 0.161843
vt 0.299127 0.147206
vt 0.287110 0.089601
vt 0.000110 0.149077
vt 0.066380 0.154317
vt 0.388757 0.133378
vt 0.305879 0.142573
vt 0.312132 0.137830
vt 0.065327 0.146121
vt 0.317852 0.133005
vt 0.394673 0.122286
vt 0.323003 0.128126
vt 0.065514 0.137277
vt -0.000000 0.134558
vt 0.327551 0.123222
vt 0.398895 0.111148
vt 0.066993 0.129042
vt 0.331460 0.118321
vt 0.334694 0.113449
vt 0.001280 0.120608
vt 0.069681 0.121407
vt 0.401292 0.100043
vt 0.337219 0.108637
vt 0.339000 0.103911
vt 0.073494 0.114361
vt 0.340002 0.099300
vt 0.401734 0.089052
vt 0.004013 0.107258
vt 0.078351 0.107895
vt 0.340188 0.094832
vt 0.339513 0.091019
vt 0.084170 0.102000
vt 0.399662 0.076085
vt 0.337981 0.087375
vt 0.008262 0.094540
vt 0.090866 0.096667
vt 0.335713 0.083935
vt 0.287041 0.085598
vt 0.332828 0.080732
vt 0.098358 0.091884
vt 0.287275 0.082091
vt 0.329449 0.077799
vt 0.287792 0.079052
vt 0.395067 0.063820
vt 0.106563 0.087644
vt 0.325694 0.075171
vt 0.014090 0.082486
vt 0.288572 0.076449
vt 0.228034 0.067019
vt 0.115399 0.083935
vt 0.321684 0.072882
vt 0.289598 0.074252
vt 0.124783 0.080750
vt 0.317541 0.070964
vt 0.290850 0.072431
vt 0.292309 0.070955
vt 0.313384 0.069452
vt 0.134633 0.078078
vt 0.293956 0.069794
vt 0.309335 0.068380
vt 0.295771 0.068917
vt 0.139065 0.077139
vt 0.305513 0.067780
vt 0.388261 0.052351
vt 0.297736 0.068294
vt 0.143659 0.076290
vt 0.299832 0.067895
vt 0.302039 0.067689
vt 0.148405 0.075524
vt 0.153290 0.074834
vt 0.021559 0.071127
vt 0.158305 0.074214
vt 0.163439 0.073658
vt 0.168680 0.073159
vt 0.174019 0.072710
vt 0.179443 0.072306
vt 0.184943 0.071940
vt 0.190508 0.071605
vt 0.196126 0.071295
vt 0.169627 0.007831
vt 0.228689 0.054138
vt 0.379558 0.041767
vt 0.030732 0.060494
vt 0.230276 0.042911
vt 0.041673 0.050620
vt 0.369273 0.032162
vt 0.232753 0.033239
vt 0.054444 0.041536
vt 0.357720 0.023626
vt 0.236075 0.025025
vt 0.069107 0.033273
vt 0.345212 0.016251
vt 0.240200 0.018168
vt 0.085726 0.025864
vt 0.332063 0.010129
vt 0.245082 0.012570
vt 0.104362 0.019339
vt 0.318588 0.005351
vt 0.250679 0.008132
vt 0.110054 0.017852
vt 0.115726 0.016499
vt 0.121369 0.015271
vt 0.305099 0.002010
vt 0.126977 0.014154
vt 0.256947 0.004755
vt 0.132541 0.013137
vt 0.138053 0.012209
vt 0.143507 0.011357
vt 0.148894 0.010570
vt 0.154208 0.009836
vt 0.263842 0.002340
vt 0.291912 0.000195
vt 0.159439 0.009142
vt 0.164582 0.008478
vt 0.271321 0.000788
vt 0.279340 -0.000000
s 1
usemtl マテリアル.013
f 15/1/1 14/2/1 13/3/1
f 15/1/1 13/3/1 12/4/1
f 17/5/1 16/6/1 15/1/1
f 17/5/1 15/1/1 12/4/1
f 17/5/1 12/4/1 11/7/1
f 17/5/1 11/7/1 10/8/1
s 0
f 18/9/2 17/9/2 10/9/2
s 1
f 19/10/1 18/11/1 9/12/1
s 0
f 9/9/2 18/9/2 10/9/2
s 1
f 19/10/1 9/12/1 8/13/1
f 21/14/1 20/15/1 107/16/1
f 107/16/1 20/15/1 19/10/1
f 107/16/1 19/10/1 8/13/1
f 107/16/1 8/13/1 7/17/1
f 107/16/1 7/17/1 108/18/1
f 108/18/1 7/17/1 102/19/1
f 102/19/1 7/17/1 103/20/1
f 103/20/1 7/17/1 6/21/1
f 21/14/1 107/16/1 106/22/1
f 109/23/1 108/18/1 102/19/1
f 109/23/1 102/19/1 105/24/1
f 104/25/1 103/20/1 6/21/1
f 21/14/1 106/22/1 109/23/1
f 21/14/1 109/23/1 105/24/1
f 21/14/1 105/24/1 104/25/1
f 21/14/1 104/25/1 6/21/1
s 0
f 22/9/2 21/9/2 6/9/2
s 1
f 23/26/1 22/27/1 5/28/1
s 0
f 5/28/2 22/27/2 6/29/2
s 1
f 23/26/1 5/28/1 4/30/1
f 25/31/1 24/32/1 23/26/1
f 25/31/1 23/26/1 4/30/1
f 25/31/1 4/30/1 3/33/1
f 25/31/1 3/33/1 110/34/1
f 110/34/1 3/33/1 111/35/1
f 111/35/1 3/33/1 2/36/1
s 0
f 26/9/2 25/9/2 110/9/2
s 1
f 27/37/1 26/38/1 110/34/1
f 27/37/1 110/34/1 113/39/1
f 112/40/1 111/35/1 2/36/1
f 29/41/1 28/42/1 27/37/1
f 29/41/1 27/37/1 113/39/1
f 29/41/1 113/39/1 112/40/1
f 29/41/1 112/40/1 2/36/1
f 29/41/1 2/36/1 1/43/1
f 29/41/1 1/43/1 101/44/1
s 0
f 30/9/2 29/9/2 101/9/2
s 1
f 31/45/1 30/46/1 114/47/1
s 0
f 114/47/2 30/46/2 101/48/2
s 1
f 31/45/1 114/47/1 117/49/1
s 0
f 115/50/1 114/47/1 101/48/1
s 1
f 116/51/1 115/50/1 100/52/1
s 0
f 100/52/2 115/50/2 101/48/2
s 1
f 116/51/1 100/52/1 99/53/1
f 33/54/1 32/55/1 31/45/1
f 33/54/1 31/45/1 117/49/1
f 33/54/1 117/49/1 116/51/1
f 33/54/1 116/51/1 34/56/1
f 34/56/1 116/51/1 96/57/1
f 96/57/1 116/51/1 97/58/1
f 97/58/1 116/51/1 99/53/1
f 35/59/1 34/56/1 96/57/1
f 35/59/1 96/57/1 95/60/1
f 98/61/1 97/58/1 99/53/1
f 36/62/1 35/59/1 95/60/1
f 36/62/1 95/60/1 94/63/1
f 37/64/1 36/62/1 94/63/1
f 38/65/1 37/64/1 94/63/1
f 39/66/1 38/65/1 94/63/1
f 40/67/1 39/66/1 94/63/1
f 40/67/1 94/63/1 93/68/1
f 41/69/1 40/67/1 93/68/1
f 42/70/1 41/69/1 93/68/1
f 43/71/1 42/70/1 93/68/1
f 44/72/1 43/71/1 93/68/1
f 60/73/1 59/74/1 58/75/1
f 45/76/1 44/72/1 93/68/1
f 60/73/1 58/75/1 57/77/1
f 46/78/1 45/76/1 93/68/1
f 60/73/1 57/77/1 56/79/1
f 47/80/1 46/78/1 93/68/1
f 60/73/1 56/79/1 55/81/1
f 48/82/1 47/80/1 93/68/1
f 60/73/1 55/81/1 54/83/1
f 49/84/1 48/82/1 93/68/1
f 60/73/1 54/83/1 53/85/1
f 50/86/1 49/84/1 93/68/1
f 60/73/1 53/85/1 52/87/1
f 51/88/1 50/86/1 93/68/1
f 60/73/1 52/87/1 51/88/1
f 60/73/1 51/88/1 93/68/1
f 60/73/1 93/68/1 92/89/1
f 61/90/1 60/73/1 92/89/1
f 62/91/1 61/90/1 92/89/1
f 62/91/1 92/89/1 91/92/1
f 63/93/1 62/91/1 91/92/1
f 63/93/1 91/92/1 90/94/1
f 64/95/1 63/93/1 90/94/1
f 64/95/1 90/94/1 89/96/1
f 65/97/1 64/95/1 89/96/1
f 65/97/1 89/96/1 88/98/1
f 66/99/1 65/97/1 88/98/1
f 66/99/1 88/98/1 87/100/1
f 67/101/1 66/99/1 87/100/1
f 67/101/1 87/100/1 86/102/1
f 67/101/1 86/102/1 85/103/1
f 68/104/1 67/101/1 85/103/1
f 68/104/1 85/103/1 84/105/1
f 69/106/1 68/104/1 84/105/1
f 69/106/1 84/105/1 83/107/1
f 69/106/1 83/107/1 82/108/1
f 70/109/1 69/106/1 82/108/1
f 70/109/1 82/108/1 81/110/1
f 70/109/1 81/110/1 80/111/1
f 71/112/1 70/109/1 80/111/1
f 71/112/1 80/111/1 79/113/1
f 71/112/1 79/113/1 78/114/1
f 71/112/1 78/114/1 77/115/1
f 71/112/1 77/115/1 76/116/1
f 71/112/1 76/116/1 75/117/1
f 71/112/1 75/117/1 74/118/1
f 72/119/1 71/112/1 74/118/1
f 72/119/1 74/118/1 73/120/1
f 124/121/1 123/122/1 122/123/1
f 124/121/1 122/123/1 121/124/1
s 0
f 125/125/1 124/121/1 121/124/1
s 1
f 126/126/1 125/127/1 120/128/1
s 0
f 120/9/2 125/9/2 121/9/2
s 1
f 126/126/1 120/128/1 119/129/1
f 128/130/1 127/131/1 126/126/1
f 128/130/1 126/126/1 119/129/1
f 128/130/1 119/129/1 118/132/1
f 128/130/1 118/132/1 129/133/1
f 255/134/1 254/135/1 253/136/1
f 255/134/1 253/136/1 252/137/1
f 255/134/1 252/137/1 251/138/1
f 255/134/1 251/138/1 250/139/1
f 255/134/1 250/139/1 249/140/1
f 255/134/1 249/140/1 248/141/1
f 255/134/1 248/141/1 247/142/1
f 255/134/1 247/142/1 246/143/1
f 255/134/1 246/143/1 245/144/1
f 255/134/1 245/144/1 244/145/1
f 255/134/1 244/145/1 243/146/1
f 255/134/1 243/146/1 242/147/1
f 255/134/1 242/147/1 241/148/1
f 256/149/1 255/134/1 241/148/1
f 257/150/1 256/149/1 241/148/1
f 258/151/1 257/150/1 241/148/1
f 259/152/1 258/151/1 241/148/1
f 260/153/1 259/152/1 241/148/1
f 261/154/1 260/153/1 241/148/1
f 262/155/1 261/154/1 241/148/1
f 263/156/1 262/155/1 241/148/1
f 264/157/1 263/156/1 241/148/1
f 181/158/1 180/159/1 179/160/1
f 265/161/1 264/157/1 241/148/1
f 266/162/1 265/161/1 241/148/1
f 181/158/1 179/160/1 178/163/1
f 182/164/1 181/158/1 178/163/1
f 182/164/1 178/163/1 177/165/1
f 182/164/1 177/165/1 176/166/1
f 183/167/1 182/164/1 176/166/1
f 183/167/1 176/166/1 175/168/1
f 183/167/1 175/168/1 174/169/1
f 184/170/1 183/167/1 174/169/1
f 184/170/1 174/169/1 173/171/1
f 184/170/1 173/171/1 172/172/1
f 185/173/1 184/170/1 172/172/1
f 185/173/1 172/172/1 171/174/1
f 156/175/1 155/176/1 154/177/1
f 157/178/1 156/175/1 154/177/1
f 157/178/1 154/177/1 153/179/1
f 158/180/1 157/178/1 153/179/1
f 159/181/1 158/180/1 153/179/1
f 159/181/1 153/179/1 152/182/1
f 160/183/1 159/181/1 152/182/1
f 161/184/1 160/183/1 152/182/1
f 161/184/1 152/182/1 151/185/1
f 185/173/1 171/174/1 170/186/1
f 162/187/1 161/184/1 151/185/1
f 186/188/1 185/173/1 170/186/1
f 163/189/1 162/187/1 151/185/1
f 163/189/1 151/185/1 150/190/1
f 164/191/1 163/189/1 150/190/1
f 186/188/1 170/186/1 169/192/1
f 164/191/1 150/190/1 149/193/1
f 165/194/1 164/191/1 149/193/1
f 187/195/1 186/188/1 169/192/1
f 187/195/1 169/192/1 168/196/1
f 166/197/1 165/194/1 149/193/1
f 166/197/1 149/193/1 148/198/1
f 167/199/1 166/197/1 148/198/1
f 187/195/1 168/196/1 167/199/1
f 167/199/1 148/198/1 147/200/1
f 187/195/1 167/199/1 147/200/1
f 188/201/1 187/195/1 216/202/1
f 216/202/1 187/195/1 217/203/1
f 217/203/1 187/195/1 147/200/1
f 218/204/1 217/203/1 147/200/1
f 188/201/1 216/202/1 215/205/1
f 219/206/1 218/204/1 147/200/1
f 219/206/1 147/200/1 146/207/1
f 188/201/1 215/205/1 214/208/1
f 220/209/1 219/206/1 146/207/1
f 188/201/1 214/208/1 213/210/1
f 221/211/1 220/209/1 146/207/1
f 188/201/1 213/210/1 212/212/1
f 222/213/1 221/211/1 146/207/1
f 188/201/1 212/212/1 211/214/1
f 223/215/1 222/213/1 146/207/1
f 189/216/1 188/201/1 211/214/1
f 223/215/1 146/207/1 145/217/1
f 189/216/1 211/214/1 210/218/1
f 224/219/1 223/215/1 145/217/1
f 189/216/1 210/218/1 209/220/1
f 225/221/1 224/219/1 145/217/1
f 189/216/1 209/220/1 208/222/1
f 226/223/1 225/221/1 145/217/1
f 226/223/1 145/217/1 144/224/1
f 190/225/1 189/216/1 208/222/1
f 190/225/1 208/222/1 207/226/1
f 227/227/1 226/223/1 144/224/1
f 228/228/1 227/227/1 144/224/1
f 190/225/1 207/226/1 206/229/1
f 228/228/1 144/224/1 143/230/1
f 191/231/1 190/225/1 206/229/1
f 229/232/1 228/228/1 143/230/1
f 191/231/1 206/229/1 205/233/1
f 230/234/1 229/232/1 143/230/1
f 230/234/1 143/230/1 142/235/1
f 191/231/1 205/233/1 204/236/1
f 192/237/1 191/231/1 204/236/1
f 192/237/1 204/236/1 203/238/1
f 192/237/1 203/238/1 202/239/1
f 192/237/1 202/239/1 201/240/1
f 192/237/1 201/240/1 200/241/1
f 192/237/1 200/241/1 199/242/1
f 231/243/1 230/234/1 142/235/1
f 193/244/1 192/237/1 194/245/1
f 194/245/1 192/237/1 195/246/1
f 195/246/1 192/237/1 196/247/1
f 196/247/1 192/237/1 197/248/1
f 197/248/1 192/237/1 198/249/1
f 198/249/1 192/237/1 199/242/1
f 231/243/1 142/235/1 141/250/1
f 232/251/1 231/243/1 141/250/1
f 233/252/1 232/251/1 141/250/1
f 233/252/1 141/250/1 140/253/1
f 234/254/1 233/252/1 140/253/1
f 235/255/1 234/254/1 140/253/1
f 235/255/1 140/253/1 139/256/1
f 236/257/1 235/255/1 139/256/1
f 237/258/1 236/257/1 139/256/1
f 131/259/1 130/260/1 240/261/1
f 238/262/1 237/258/1 139/256/1
f 238/262/1 139/256/1 138/263/1
f 131/259/1 240/261/1 239/264/1
f 239/264/1 238/262/1 138/263/1
f 131/259/1 239/264/1 138/263/1
f 131/259/1 138/263/1 137/265/1
f 131/259/1 137/265/1 136/266/1
f 131/259/1 136/266/1 135/267/1
f 131/259/1 135/267/1 134/268/1
f 131/259/1 134/268/1 133/269/1
f 132/270/1 131/259/1 133/269/1
f 442/271/1 441/272/1 440/273/1
f 442/271/1 440/273/1 439/274/1
f 443/275/1 442/271/1 439/274/1
f 443/275/1 439/274/1 438/276/1
f 443/275/1 438/276/1 437/277/1
f 444/278/1 443/275/1 437/277/1
f 444/278/1 437/277/1 436/279/1
f 444/278/1 436/279/1 435/280/1
f 445/281/1 444/278/1 435/280/1
f 445/281/1 435/280/1 434/282/1
f 445/281/1 434/282/1 433/283/1
f 445/281/1 433/283/1 432/284/1
f 446/285/1 445/281/1 432/284/1
f 446/285/1 432/284/1 431/286/1
f 446/285/1 431/286/1 430/287/1
f 447/288/1 446/285/1 430/287/1
f 447/288/1 430/287/1 429/289/1
f 447/288/1 429/289/1 428/290/1
f 447/288/1 428/290/1 427/291/1
f 448/292/1 447/288/1 427/291/1
f 281/293/1 280/294/1 279/295/1
f 449/296/1 448/292/1 427/291/1
f 281/293/1 279/295/1 278/297/1
f 450/298/1 449/296/1 427/291/1
f 451/299/1 450/298/1 427/291/1
f 281/293/1 278/297/1 277/300/1
f 282/301/1 281/293/1 277/300/1
f 452/302/1 451/299/1 427/291/1
f 283/303/1 282/301/1 277/300/1
f 283/303/1 277/300/1 276/304/1
f 453/305/1 452/302/1 427/291/1
f 416/306/1 415/307/1 414/308/1
f 417/309/1 416/306/1 414/308/1
f 418/310/1 417/309/1 414/308/1
f 419/311/1 418/310/1 414/308/1
f 420/312/1 419/311/1 414/308/1
f 421/313/1 420/312/1 414/308/1
f 421/313/1 414/308/1 413/314/1
f 422/315/1 421/313/1 413/314/1
f 423/316/1 422/315/1 413/314/1
f 424/317/1 423/316/1 413/314/1
f 425/318/1 424/317/1 413/314/1
f 426/319/1 425/318/1 413/314/1
f 427/291/1 426/319/1 413/314/1
f 453/305/1 427/291/1 413/314/1
f 453/305/1 413/314/1 412/320/1
f 453/305/1 412/320/1 411/321/1
f 284/322/1 283/303/1 276/304/1
f 454/323/1 453/305/1 411/321/1
f 455/324/1 454/323/1 411/321/1
f 456/325/1 455/324/1 411/321/1
f 457/326/1 456/325/1 411/321/1
f 457/326/1 411/321/1 410/327/1
f 458/328/1 457/326/1 410/327/1
f 459/329/1 458/328/1 410/327/1
f 460/330/1 459/329/1 410/327/1
f 461/331/1 460/330/1 410/327/1
f 462/332/1 461/331/1 410/327/1
f 463/333/1 462/332/1 410/327/1
f 464/334/1 463/333/1 410/327/1
f 465/335/1 464/334/1 410/327/1
f 478/336/1 477/337/1 476/338/1
f 466/339/1 465/335/1 410/327/1
f 467/340/1 466/339/1 410/327/1
f 468/341/1 467/340/1 410/327/1
f 478/336/1 476/338/1 475/342/1
f 469/343/1 468/341/1 410/327/1
f 478/336/1 475/342/1 474/344/1
f 470/345/1 469/343/1 410/327/1
f 471/346/1 470/345/1 410/327/1
f 478/336/1 474/344/1 473/347/1
f 472/348/1 471/346/1 410/327/1
f 478/336/1 473/347/1 472/348/1
f 478/336/1 472/348/1 410/327/1
f 284/322/1 276/304/1 275/349/1
f 478/336/1 410/327/1 409/350/1
f 478/336/1 409/350/1 408/351/1
f 285/352/1 284/322/1 275/349/1
f 478/336/1 408/351/1 479/353/1
f 479/353/1 408/351/1 480/354/1
f 480/354/1 408/351/1 490/355/1
f 490/355/1 408/351/1 407/356/1
f 285/352/1 275/349/1 274/357/1
f 286/358/1 285/352/1 274/357/1
f 490/355/1 407/356/1 491/359/1
f 491/359/1 407/356/1 306/360/1
f 306/360/1 407/356/1 308/361/1
f 308/361/1 407/356/1 309/362/1
f 309/362/1 407/356/1 310/363/1
f 310/363/1 407/356/1 311/364/1
f 311/364/1 407/356/1 312/365/1
f 312/365/1 407/356/1 406/366/1
f 286/358/1 274/357/1 273/367/1
f 312/365/1 406/366/1 313/368/1
f 313/368/1 406/366/1 314/369/1
f 314/369/1 406/366/1 315/370/1
f 315/370/1 406/366/1 316/371/1
f 316/371/1 406/366/1 317/372/1
f 317/372/1 406/366/1 318/373/1
f 318/373/1 406/366/1 319/374/1
f 319/374/1 406/366/1 405/375/1
f 287/376/1 286/358/1 273/367/1
f 320/377/1 319/374/1 405/375/1
f 321/378/1 320/377/1 405/375/1
f 322/379/1 321/378/1 405/375/1
f 306/360/1 308/361/1 307/380/1
f 491/359/1 306/360/1 305/381/1
f 323/382/1 322/379/1 405/375/1
f 324/383/1 323/382/1 405/375/1
f 324/383/1 405/375/1 404/384/1
f 325/385/1 324/383/1 404/384/1
f 287/376/1 273/367/1 272/386/1
f 492/387/1 491/359/1 305/381/1
f 326/388/1 325/385/1 404/384/1
f 480/354/1 490/355/1 481/389/1
f 481/389/1 490/355/1 489/390/1
f 481/389/1 489/390/1 488/391/1
f 288/392/1 287/376/1 272/386/1
f 481/389/1 488/391/1 482/393/1
f 482/393/1 488/391/1 487/394/1
f 327/395/1 326/388/1 404/384/1
f 482/393/1 487/394/1 486/396/1
f 482/393/1 486/396/1 483/397/1
f 483/397/1 486/396/1 485/398/1
f 483/397/1 485/398/1 484/399/1
f 327/395/1 404/384/1 403/400/1
f 328/401/1 327/395/1 403/400/1
f 492/387/1 305/381/1 304/402/1
f 288/392/1 272/386/1 271/403/1
f 493/404/1 492/387/1 304/402/1
f 329/405/1 328/401/1 403/400/1
f 289/406/1 288/392/1 271/403/1
f 330/407/1 329/405/1 403/400/1
f 330/407/1 403/400/1 402/408/1
f 289/406/1 271/403/1 270/409/1
f 493/404/1 304/402/1 303/410/1
f 331/411/1 330/407/1 402/408/1
f 494/412/1 493/404/1 303/410/1
f 290/413/1 289/406/1 270/409/1
f 331/411/1 402/408/1 401/414/1
f 290/413/1 270/409/1 269/415/1
f 332/416/1 331/411/1 401/414/1
f 495/417/1 494/412/1 303/410/1
f 495/417/1 303/410/1 302/418/1
f 291/419/1 290/413/1 269/415/1
f 332/416/1 401/414/1 400/420/1
f 333/421/1 332/416/1 400/420/1
f 291/419/1 269/415/1 268/422/1
f 334/423/1 333/421/1 400/420/1
f 292/424/1 291/419/1 268/422/1
f 292/424/1 268/422/1 267/425/1
f 496/426/1 495/417/1 302/418/1
f 334/423/1 400/420/1 399/427/1
f 496/426/1 302/418/1 301/428/1
f 335/429/1 334/423/1 399/427/1
f 335/429/1 399/427/1 398/430/1
f 497/431/1 496/426/1 301/428/1
f 336/432/1 335/429/1 398/430/1
f 497/431/1 301/428/1 300/433/1
f 336/432/1 398/430/1 397/434/1
f 337/435/1 336/432/1 397/434/1
f 498/436/1 497/431/1 300/433/1
f 338/437/1 337/435/1 397/434/1
f 338/437/1 397/434/1 396/438/1
f 498/436/1 300/433/1 299/439/1
f 339/440/1 338/437/1 396/438/1
f 499/441/1 498/436/1 299/439/1
f 339/440/1 396/438/1 395/442/1
f 340/443/1 339/440/1 395/442/1
f 499/441/1 299/439/1 298/444/1
f 341/445/1 340/443/1 395/442/1
f 341/445/1 395/442/1 394/446/1
f 500/447/1 499/441/1 298/444/1
f 342/448/1 341/445/1 394/446/1
f 342/448/1 394/446/1 393/449/1
f 343/450/1 342/448/1 393/449/1
f 500/447/1 298/444/1 297/451/1
f 344/452/1 343/450/1 393/449/1
f 501/453/1 500/447/1 297/451/1
f 345/454/1 344/452/1 393/449/1
f 346/455/1 345/454/1 393/449/1
f 367/456/1 366/457/1 365/458/1
f 367/456/1 365/458/1 364/459/1
f 347/460/1 346/455/1 393/449/1
f 347/460/1 393/449/1 392/461/1
f 367/456/1 364/459/1 363/462/1
f 367/456/1 363/462/1 362/463/1
f 348/464/1 347/460/1 392/461/1
f 367/456/1 362/463/1 361/465/1
f 349/466/1 348/464/1 392/461/1
f 367/456/1 361/465/1 360/467/1
f 367/456/1 360/467/1 359/468/1
f 350/469/1 349/466/1 392/461/1
f 367/456/1 359/468/1 358/470/1
f 351/471/1 350/469/1 392/461/1
f 367/456/1 358/470/1 357/472/1
f 352/473/1 351/471/1 392/461/1
f 367/456/1 357/472/1 356/474/1
f 353/475/1 352/473/1 392/461/1
f 367/456/1 356/474/1 355/476/1
f 354/477/1 353/475/1 392/461/1
f 367/456/1 355/476/1 354/477/1
f 367/456/1 354/477/1 392/461/1
f 501/453/1 297/451/1 296/478/1
f 502/479/1 501/453/1 296/478/1
f 367/456/1 392/461/1 391/480/1
f 367/456/1 391/480/1 390/481/1
f 293/482/1 502/479/1 296/478/1
f 293/482/1 296/478/1 295/483/1
f 367/456/1 390/481/1 389/484/1
f 367/456/1 389/484/1 388/485/1
f 367/456/1 388/485/1 387/486/1
f 294/487/1 293/482/1 295/483/1
f 367/456/1 387/486/1 386/488/1
f 367/456/1 386/488/1 385/489/1
f 367/456/1 385/489/1 384/490/1
f 368/491/1 367/456/1 384/490/1
f 368/491/1 384/490/1 383/492/1
f 369/493/1 368/491/1 383/492/1
f 370/494/1 369/493/1 383/492/1
f 371/495/1 370/494/1 383/492/1
f 371/495/1 383/492/1 382/496/1
f 372/497/1 371/495/1 382/496/1
f 373/498/1 372/497/1 382/496/1
f 373/498/1 382/496/1 381/499/1
f 374/500/1 373/498/1 381/499/1
f 375/501/1 374/500/1 381/499/1
f 376/502/1 375/501/1 381/499/1
f 376/502/1 381/499/1 380/503/1
f 377/504/1 376/502/1 380/503/1
f 378/505/1 377/504/1 380/503/1
f 378/505/1 380/503/1 379/506/1
f 708/507/1 707/508/1 706/509/1
f 708/507/1 706/509/1 705/510/1
f 708/507/1 705/510/1 704/511/1
f 709/512/1 708/507/1 704/511/1
f 709/512/1 704/511/1 703/513/1
f 710/514/1 709/512/1 703/513/1
f 710/514/1 703/513/1 702/515/1
f 711/516/1 710/514/1 702/515/1
f 711/516/1 702/515/1 701/517/1
f 712/518/1 711/516/1 701/517/1
f 712/518/1 701/517/1 700/519/1
f 713/520/1 712/518/1 700/519/1
f 713/520/1 700/519/1 699/521/1
f 714/522/1 713/520/1 699/521/1
f 714/522/1 699/521/1 698/523/1
f 715/524/1 714/522/1 698/523/1
f 715/524/1 698/523/1 697/525/1
f 716/526/1 715/524/1 697/525/1
f 716/526/1 697/525/1 696/527/1
f 717/528/1 716/526/1 696/527/1
f 717/528/1 696/527/1 695/529/1
f 718/530/1 717/528/1 695/529/1
f 718/530/1 695/529/1 694/531/1
f 719/532/1 718/530/1 694/531/1
f 719/532/1 694/531/1 693/533/1
f 720/534/1 719/532/1 693/533/1
f 517/535/1 516/536/1 515/537/1
f 517/535/1 515/537/1 514/538/1
f 682/539/1 681/540/1 680/541/1
f 683/542/1 682/539/1 680/541/1
f 517/535/1 514/538/1 513/543/1
f 684/544/1 683/542/1 680/541/1
f 685/545/1 684/544/1 680/541/1
f 686/546/1 685/545/1 680/541/1
f 687/547/1 686/546/1 680/541/1
f 517/535/1 513/543/1 512/548/1
f 688/549/1 687/547/1 680/541/1
f 689/550/1 688/549/1 680/541/1
f 690/551/1 689/550/1 680/541/1
f 691/552/1 690/551/1 680/541/1
f 517/535/1 512/548/1 511/553/1
f 692/554/1 691/552/1 680/541/1
f 693/533/1 692/554/1 680/541/1
f 720/534/1 693/533/1 680/541/1
f 734/555/1 733/556/1 732/557/1
f 517/535/1 511/553/1 510/558/1
f 734/555/1 732/557/1 731/559/1
f 734/555/1 731/559/1 730/560/1
f 734/555/1 730/560/1 729/561/1
f 734/555/1 729/561/1 728/562/1
f 721/563/1 720/534/1 680/541/1
f 734/555/1 728/562/1 727/564/1
f 734/555/1 727/564/1 726/565/1
f 734/555/1 726/565/1 725/566/1
f 734/555/1 725/566/1 724/567/1
f 734/555/1 724/567/1 723/568/1
f 734/555/1 723/568/1 722/569/1
f 734/555/1 722/569/1 721/563/1
f 734/555/1 721/563/1 680/541/1
f 517/535/1 510/558/1 509/570/1
f 517/535/1 509/570/1 508/571/1
f 517/535/1 508/571/1 507/572/1
f 518/573/1 517/535/1 507/572/1
f 519/574/1 518/573/1 507/572/1
f 519/574/1 507/572/1 506/575/1
f 520/576/1 519/574/1 506/575/1
f 520/576/1 506/575/1 505/577/1
f 521/578/1 520/576/1 505/577/1
f 521/578/1 505/577/1 504/579/1
f 734/555/1 680/541/1 679/580/1
f 522/581/1 521/578/1 504/579/1
f 522/581/1 504/579/1 523/582/1
f 523/582/1 504/579/1 524/583/1
f 524/583/1 504/579/1 525/584/1
f 525/584/1 504/579/1 526/585/1
f 526/585/1 504/579/1 527/586/1
f 527/586/1 504/579/1 528/587/1
f 528/587/1 504/579/1 503/588/1
f 734/555/1 679/580/1 678/589/1
f 734/555/1 678/589/1 677/590/1
f 734/555/1 677/590/1 676/591/1
f 734/555/1 676/591/1 675/592/1
f 734/555/1 675/592/1 674/593/1
f 734/555/1 674/593/1 673/594/1
f 734/555/1 673/594/1 672/595/1
f 734/555/1 672/595/1 671/596/1
f 734/555/1 671/596/1 670/597/1
f 734/555/1 670/597/1 669/598/1
f 734/555/1 669/598/1 668/599/1
f 734/555/1 668/599/1 530/600/1
f 530/600/1 668/599/1 667/601/1
f 735/602/1 734/555/1 530/600/1
f 736/603/1 735/602/1 530/600/1
f 737/604/1 736/603/1 530/600/1
f 738/605/1 737/604/1 530/600/1
f 738/605/1 530/600/1 529/606/1
f 531/607/1 530/600/1 667/601/1
f 739/608/1 738/605/1 529/606/1
f 740/609/1 739/608/1 529/606/1
f 741/610/1 740/609/1 529/606/1
f 742/611/1 741/610/1 529/606/1
f 743/612/1 742/611/1 529/606/1
f 744/613/1 743/612/1 529/606/1
f 745/614/1 744/613/1 529/606/1
f 531/607/1 667/601/1 666/615/1
f 532/616/1 531/607/1 666/615/1
f 655/617/1 654/618/1 653/619/1
f 656/620/1 655/617/1 653/619/1
f 657/621/1 656/620/1 653/619/1
f 657/621/1 653/619/1 652/622/1
f 658/623/1 657/621/1 652/622/1
f 659/624/1 658/623/1 652/622/1
f 660/625/1 659/624/1 652/622/1
f 660/625/1 652/622/1 651/626/1
f 661/627/1 660/625/1 651/626/1
f 662/628/1 661/627/1 651/626/1
f 663/629/1 662/628/1 651/626/1
f 663/629/1 651/626/1 650/630/1
f 664/631/1 663/629/1 650/630/1
f 665/632/1 664/631/1 650/630/1
f 666/615/1 665/632/1 650/630/1
f 666/615/1 650/630/1 649/633/1
f 532/616/1 666/615/1 649/633/1
f 532/616/1 649/633/1 648/634/1
f 532/616/1 648/634/1 647/635/1
f 533/636/1 532/616/1 647/635/1
f 533/636/1 647/635/1 646/637/1
f 534/638/1 533/636/1 646/637/1
f 535/639/1 534/638/1 646/637/1
f 535/639/1 646/637/1 581/640/1
f 581/640/1 646/637/1 582/641/1
f 582/641/1 646/637/1 645/642/1
f 535/639/1 581/640/1 580/643/1
f 535/639/1 580/643/1 579/644/1
f 535/639/1 579/644/1 578/645/1
f 583/646/1 582/641/1 645/642/1
f 536/647/1 535/639/1 578/645/1
f 536/647/1 578/645/1 577/648/1
f 536/647/1 577/648/1 576/649/1
f 584/650/1 583/646/1 645/642/1
f 536/647/1 576/649/1 575/651/1
f 536/647/1 575/651/1 574/652/1
f 585/653/1 584/650/1 645/642/1
f 536/647/1 574/652/1 573/654/1
f 536/647/1 573/654/1 572/655/1
f 586/656/1 585/653/1 645/642/1
f 536/647/1 572/655/1 571/657/1
f 586/656/1 645/642/1 644/658/1
f 537/659/1 536/647/1 571/657/1
f 537/659/1 571/657/1 570/660/1
f 587/661/1 586/656/1 644/658/1
f 537/659/1 570/660/1 569/662/1
f 537/659/1 569/662/1 746/663/1
f 746/663/1 569/662/1 568/664/1
f 588/665/1 587/661/1 644/658/1
f 538/666/1 537/659/1 746/663/1
f 589/667/1 588/665/1 644/658/1
f 589/667/1 644/658/1 643/668/1
f 590/669/1 589/667/1 643/668/1
f 539/670/1 538/666/1 746/663/1
f 591/671/1 590/669/1 643/668/1
f 539/670/1 746/663/1 782/672/1
f 747/673/1 746/663/1 568/664/1
f 591/671/1 643/668/1 642/674/1
f 592/675/1 591/671/1 642/674/1
f 540/676/1 539/670/1 782/672/1
f 540/676/1 782/672/1 781/677/1
f 540/676/1 781/677/1 780/678/1
f 593/679/1 592/675/1 642/674/1
f 540/676/1 780/678/1 779/680/1
f 541/681/1 540/676/1 779/680/1
f 541/681/1 779/680/1 778/682/1
f 594/683/1 593/679/1 642/674/1
f 594/683/1 642/674/1 641/684/1
f 541/681/1 778/682/1 777/685/1
f 542/686/1 541/681/1 777/685/1
f 595/687/1 594/683/1 641/684/1
f 542/686/1 777/685/1 776/688/1
f 542/686/1 776/688/1 775/689/1
f 595/687/1 641/684/1 640/690/1
f 596/691/1 595/687/1 640/690/1
f 543/692/1 542/686/1 775/689/1
f 543/692/1 775/689/1 774/693/1
f 543/692/1 774/693/1 773/694/1
f 597/695/1 596/691/1 640/690/1
f 543/692/1 773/694/1 772/696/1
f 544/697/1 543/692/1 772/696/1
f 597/695/1 640/690/1 639/698/1
f 598/699/1 597/695/1 639/698/1
f 544/697/1 772/696/1 771/700/1
f 544/697/1 771/700/1 770/701/1
f 599/702/1 598/699/1 639/698/1
f 545/703/1 544/697/1 770/701/1
f 545/703/1 770/701/1 769/704/1
f 599/702/1 639/698/1 638/705/1
f 600/706/1 599/702/1 638/705/1
f 545/703/1 769/704/1 768/707/1
f 748/708/1 747/673/1 568/664/1
f 545/703/1 768/707/1 767/709/1
f 601/710/1 600/706/1 638/705/1
f 749/711/1 748/708/1 568/664/1
f 545/703/1 767/709/1 766/712/1
f 750/713/1 749/711/1 568/664/1
f 546/714/1 545/703/1 766/712/1
f 602/715/1 601/710/1 638/705/1
f 546/714/1 766/712/1 765/716/1
f 602/715/1 638/705/1 637/717/1
f 751/718/1 750/713/1 568/664/1
f 751/718/1 568/664/1 567/719/1
f 603/720/1 602/715/1 637/717/1
f 546/714/1 765/716/1 764/721/1
f 752/722/1 751/718/1 567/719/1
f 604/723/1 603/720/1 637/717/1
f 546/714/1 764/721/1 763/724/1
f 753/725/1 752/722/1 567/719/1
f 754/726/1 753/725/1 567/719/1
f 546/714/1 763/724/1 762/727/1
f 605/728/1 604/723/1 637/717/1
f 755/729/1 754/726/1 567/719/1
f 546/714/1 762/727/1 761/730/1
f 756/731/1 755/729/1 567/719/1
f 606/732/1 605/728/1 637/717/1
f 546/714/1 761/730/1 760/733/1
f 547/734/1 546/714/1 760/733/1
f 757/735/1 756/731/1 567/719/1
f 607/736/1 606/732/1 637/717/1
f 758/737/1 757/735/1 567/719/1
f 547/734/1 760/733/1 759/738/1
f 608/739/1 607/736/1 637/717/1
f 759/738/1 758/737/1 567/719/1
f 547/734/1 759/738/1 567/719/1
f 609/740/1 608/739/1 637/717/1
f 609/740/1 637/717/1 636/741/1
f 610/742/1 609/740/1 636/741/1
f 611/743/1 610/742/1 636/741/1
f 612/744/1 611/743/1 636/741/1
f 613/745/1 612/744/1 636/741/1
f 614/746/1 613/745/1 636/741/1
f 615/747/1 614/746/1 636/741/1
f 616/748/1 615/747/1 636/741/1
f 617/749/1 616/748/1 636/741/1
f 618/750/1 617/749/1 636/741/1
f 547/734/1 567/719/1 566/751/1
f 548/752/1 547/734/1 566/751/1
f 618/750/1 636/741/1 635/753/1
f 548/752/1 566/751/1 565/754/1
f 618/750/1 635/753/1 634/755/1
f 549/756/1 548/752/1 565/754/1
f 549/756/1 565/754/1 564/757/1
f 618/750/1 634/755/1 633/758/1
f 550/759/1 549/756/1 564/757/1
f 550/759/1 564/757/1 563/760/1
f 618/750/1 633/758/1 632/761/1
f 551/762/1 550/759/1 563/760/1
f 551/762/1 563/760/1 562/763/1
f 618/750/1 632/761/1 631/764/1
f 552/765/1 551/762/1 562/763/1
f 552/765/1 562/763/1 561/766/1
f 618/750/1 631/764/1 630/767/1
f 553/768/1 552/765/1 561/766/1
f 553/768/1 561/766/1 560/769/1
f 618/750/1 630/767/1 629/770/1
f 618/750/1 629/770/1 628/771/1
f 618/750/1 628/771/1 627/772/1
f 554/773/1 553/768/1 560/769/1
f 618/750/1 627/772/1 626/774/1
f 554/773/1 560/769/1 559/775/1
f 618/750/1 626/774/1 625/776/1
f 618/750/1 625/776/1 624/777/1
f 618/750/1 624/777/1 623/778/1
f 618/750/1 623/778/1 622/779/1
f 618/750/1 622/779/1 621/780/1
f 554/773/1 559/775/1 558/781/1
f 555/782/1 554/773/1 558/781/1
f 618/750/1 621/780/1 620/783/1
f 618/750/1 620/783/1 619/784/1
f 555/782/1 558/781/1 557/785/1
f 556/786/1 555/782/1 557/785/1
