# Blender 4.4.1
# www.blender.org
mtllib w.mtl
o テキスト.004
v -0.751053 0.794784 0.000000
v -0.297945 0.794784 0.000000
v -0.134616 -0.068229 0.000000
v 0.103530 0.794784 0.000000
v 0.555585 0.794784 0.000000
v 0.794784 -0.068229 0.000000
v 0.958113 0.794784 0.000000
v 1.409115 0.794784 0.000000
v 1.068756 -0.750000 0.000000
v 0.600897 -0.750000 0.000000
v 0.330084 0.222603 0.000000
v 0.060327 -0.750000 0.000000
v -0.407535 -0.750000 0.000000
vn -0.0000 -0.0000 -1.0000
vt 0.000000 0.840976
vt 0.715122 1.000000
vt 0.715122 0.790244
vt 0.315610 0.714635
vt 0.715122 0.604391
vt 0.715122 0.395122
vt 0.450244 0.499512
vt 0.315610 0.284390
vt 0.715122 0.208781
vt 0.715122 -0.000000
vt 0.000000 0.157561
vt 0.000000 0.624390
vt 0.000000 0.374146
s 1
usemtl マテリアル.005
f 13/1/1 1/2/1 2/3/1
f 13/1/1 2/3/1 3/4/1
f 3/4/1 4/5/1 5/6/1
f 3/4/1 5/6/1 11/7/1
f 11/7/1 5/6/1 6/8/1
f 6/8/1 7/9/1 8/10/1
f 6/8/1 8/10/1 9/11/1
f 3/4/1 11/7/1 12/12/1
f 10/13/1 11/7/1 6/8/1
f 13/1/1 3/4/1 12/12/1
f 10/13/1 6/8/1 9/11/1
